<svg width="298" height="42" viewBox="0 0 298 42" fill="none" xmlns="http://www.w3.org/2000/svg">
<path d="M232.008 0.643537C236.241 0.643537 238.984 -8.67965e-06 242.076 3.54619L252.188 15.911H244.684C242.99 15.911 241.053 15.4317 239.478 12.7938L232.008 0.643537Z" fill="url(#paint0_linear_1238_1086)"/>
<path d="M254.982 19.5041L270.956 38.6697H259.76C255.886 38.6697 253.664 36.3938 252.221 33.9403L247.416 25.8524L248.808 21.599L254.982 19.5041Z" fill="url(#paint1_linear_1238_1086)"/>
<path d="M248.496 27.7697L244.804 21.599C243.731 19.6851 244.699 17.4092 248.634 16.9869C252.57 16.5646 259.407 15.911 261.341 19.8762C256.017 19.3399 248.089 20.942 248.496 27.7697Z" fill="url(#paint2_linear_1238_1086)"/>
<path d="M58.2811 31.2287V23.6C58.2811 21.0962 57.3634 19.7722 55.6329 19.7722C55.0486 19.7919 54.4847 19.9894 54.018 20.338C53.5514 20.6865 53.2047 21.169 53.0253 21.7196C52.8972 22.1137 52.8354 22.5258 52.8424 22.9397V31.2287H49.5845V23.2279C49.5845 21.0325 48.6533 19.7722 47.0277 19.7722C45.5952 19.7722 44.6775 20.8817 44.3185 21.8336C44.1958 22.2288 44.1341 22.6402 44.1356 23.0536V31.2287H40.8913V21.5085C40.8913 19.9432 40.8338 18.5958 40.7796 17.4528H43.6039L43.7902 19.5141H44.0476L44.0814 19.4572C44.5106 18.7204 45.134 18.1129 45.885 17.6996C46.636 17.2864 47.4863 17.0829 48.3451 17.1109C49.1656 17.0909 49.9724 17.3219 50.6554 17.7724C51.3384 18.2229 51.8644 18.8709 52.1617 19.6281L52.1922 19.7018H52.392L52.4258 19.6482C52.8534 18.957 53.432 18.3695 54.1191 17.9287C54.9569 17.3669 55.9523 17.0807 56.9638 17.1109C58.0407 17.1109 61.5559 17.5399 61.5559 23.0704V31.2153L58.2811 31.2287ZM71.0145 31.5169C66.5849 31.5169 63.8317 28.8355 63.8317 24.5519C63.8317 20.9722 65.9618 17.1243 70.6352 17.1243C75.058 17.1243 76.626 20.7376 76.626 23.8279C76.6305 24.2901 76.5977 24.7519 76.5278 25.2088H67.0252V25.3295C67.12 28.0847 69.3957 29.0668 71.5021 29.0668C72.8074 29.0837 74.106 28.8808 75.3425 28.4668L75.8166 30.6656C74.2857 31.259 72.6515 31.5472 71.0077 31.5136L71.0145 31.5169ZM70.432 19.313C68.031 19.313 67.164 21.5286 67.0455 22.8391V22.9665H73.5104V22.8559C73.5104 22.4503 73.4765 21.0526 72.5486 20.1141C72.2744 19.845 71.9469 19.6349 71.5868 19.4971C71.2266 19.3592 70.8415 19.2965 70.4557 19.313H70.432ZM79.1557 31.2287V21.8436C79.1557 19.8761 79.1252 18.5857 79.0473 17.4427H81.8954L82.041 20.0907H82.3221L82.3492 20.0136C82.9723 18.2572 84.459 17.1243 86.1353 17.1243C86.4333 17.1243 86.623 17.1478 87.4425 17.1914V20.2683C86.5654 20.2247 86.2708 20.2046 85.9017 20.2046C84.2084 20.2046 82.9283 21.2671 82.5896 22.9732C82.5286 23.3331 82.4991 23.6976 82.5016 24.0625V31.2287H79.1557ZM102.069 31.5169C97.7071 31.5169 94.8861 28.7483 94.8861 24.4782C94.8861 20.0873 98.0085 17.1377 102.651 17.1377C103.786 17.1365 104.912 17.3351 105.977 17.7243L105.391 20.1677C104.563 19.8144 103.668 19.6451 102.767 19.6717C102.184 19.6524 101.604 19.7497 101.06 19.9576C100.517 20.1655 100.021 20.4798 99.6035 20.8817C99.1689 21.3416 98.8309 21.8825 98.6094 22.4729C98.3879 23.0633 98.2872 23.6914 98.3133 24.3206C98.3133 27.0926 100.101 28.9528 102.763 28.9528C103.698 28.9632 104.626 28.7935 105.496 28.4534L105.947 30.8432C104.708 31.3084 103.39 31.5359 102.066 31.5136L102.069 31.5169ZM111.839 31.5437C108.994 31.5437 107.508 29.5025 107.508 27.4847C107.508 24.1329 110.407 22.3062 115.669 22.3062H115.923V21.971C115.923 21.0124 115.534 19.4069 112.93 19.4069C111.618 19.4106 110.33 19.7464 109.187 20.3823L108.558 18.3109C110.087 17.498 111.804 17.0925 113.539 17.1344C118.28 17.1344 119.269 20.2951 119.269 22.9497V27.9774C119.247 29.0661 119.316 30.1547 119.476 31.232H116.489L116.225 29.6768H115.984L115.947 29.7237C115.053 30.8834 113.576 31.5471 111.853 31.5471L111.839 31.5437ZM115.686 24.3776C112.459 24.3776 110.823 25.296 110.823 27.1127C110.823 28.4266 111.646 29.2411 112.974 29.2411C113.613 29.2526 114.241 29.0646 114.766 28.7036C115.292 28.3427 115.69 27.8271 115.903 27.23C115.98 26.9656 116.012 26.6903 115.998 26.4155V24.3709L115.686 24.3776ZM131.234 31.2287V23.429C131.234 21.0828 130.218 19.7722 128.413 19.7722C127.763 19.7875 127.135 20.0026 126.615 20.3877C126.095 20.7727 125.709 21.3086 125.51 21.9207C125.384 22.2953 125.323 22.6888 125.331 23.0838V31.2287H121.985V21.5085C121.985 19.9432 121.931 18.5958 121.877 17.4528H124.759L124.931 19.541H125.192L125.226 19.484C125.694 18.7437 126.35 18.1377 127.128 17.7261C127.907 17.3145 128.78 17.1116 129.662 17.1377C132.033 17.1377 134.576 18.6896 134.576 23.0369V31.2421L131.234 31.2287ZM165.194 31.2287V21.8436C165.194 19.8761 165.163 18.5857 165.085 17.4427H167.934L168.079 20.0907H168.36L168.387 20.0136C169.014 18.2572 170.5 17.1243 172.173 17.1243C172.475 17.1243 172.661 17.1478 173.484 17.1914V20.2683C172.604 20.2247 172.309 20.2046 171.943 20.2046C170.25 20.2046 168.966 21.2671 168.628 22.9732C168.567 23.3331 168.537 23.6976 168.54 24.0625V31.2287H165.194ZM174.964 11.024H178.306V31.2287H174.964V11.024ZM197.965 31.2287V23.429C197.965 21.0828 196.949 19.7722 195.144 19.7722C194.495 19.7875 193.867 20.0026 193.346 20.3877C192.826 20.7727 192.44 21.3086 192.242 21.9207C192.115 22.2953 192.054 22.6888 192.063 23.0838V31.2287H188.734V21.5085C188.734 19.9432 188.679 18.5958 188.625 17.4528H191.507L191.68 19.551H191.941L191.978 19.494C192.445 18.7538 193.101 18.1477 193.878 17.7361C194.656 17.3244 195.529 17.1216 196.411 17.1478C198.781 17.1478 201.328 18.6997 201.328 23.0469V31.2521L197.965 31.2287ZM211.051 31.5169C206.621 31.5169 203.868 28.8355 203.868 24.5519C203.868 20.9722 205.995 17.1243 210.671 17.1243C215.094 17.1243 216.662 20.7376 216.662 23.8279C216.665 24.29 216.632 24.7517 216.564 25.2088H207.061V25.3295C207.16 28.0847 209.432 29.0668 211.542 29.0668C212.847 29.0837 214.146 28.8808 215.382 28.4668L215.856 30.6656C214.325 31.2583 212.691 31.5465 211.047 31.5136L211.051 31.5169ZM210.468 19.313C208.064 19.313 207.2 21.5286 207.082 22.8391V22.9665H213.547V22.8559C213.547 22.4503 213.513 21.0526 212.585 20.1141C212.311 19.845 211.983 19.6349 211.623 19.4971C211.263 19.3592 210.878 19.2965 210.492 19.313H210.468ZM222.504 31.5169C221.061 31.5402 219.634 31.2243 218.339 30.5952L219.016 28.2489C220.101 28.8425 221.312 29.1765 222.551 29.2243C224.069 29.2243 224.922 28.6042 224.922 27.5249C224.922 26.4457 224.146 25.963 222.521 25.3731C220.018 24.5385 218.701 23.1643 218.701 21.3945C218.701 18.8874 220.851 17.1344 223.933 17.1344C225.192 17.1132 226.439 17.3793 227.577 17.912L226.9 20.1577C225.999 19.6799 224.996 19.4225 223.974 19.4069C222.704 19.4069 221.881 20.0404 221.881 21.0191C221.881 21.9978 222.633 22.4269 224.428 23.0838C226.998 23.972 228.105 25.2122 228.132 27.24C228.132 29.8813 225.972 31.527 222.49 31.527L222.504 31.5169ZM35.7438 31.2287H39.364L33.0718 12.0598H28.6694L22.4551 31.2287H25.9161L27.1488 27.0021H34.4705L35.7438 31.2287ZM27.8532 24.5955L29.6718 18.3611C29.875 17.6271 30.0782 16.8092 30.2746 16.0149C30.3863 15.5691 30.4947 15.1367 30.6132 14.7278L30.6335 14.644H30.874L31.0636 15.3914C31.3041 16.3333 31.5784 17.4025 31.8832 18.3477L33.7593 24.5888L27.8532 24.5955ZM152.924 31.2287H156.562L150.256 12.0598H145.853L139.646 31.2287H143.093L144.326 27.0021H151.648L152.924 31.2287ZM145.047 24.5955L146.866 18.3611C147.072 17.6271 147.276 16.8092 147.472 16.0149C147.584 15.5691 147.692 15.1367 147.811 14.7278L147.834 14.644H148.072L148.265 15.3914C148.505 16.3333 148.776 17.4025 149.081 18.3477L150.957 24.5888L145.047 24.5955ZM89.2746 31.2287V17.4427H92.6205V31.2287H89.2746ZM89.4541 12.1771H92.4546V15.006H89.4541V12.1771ZM158.19 31.2287V17.4427H161.533V31.2287H158.19ZM158.367 12.1771H161.367V15.006H158.367V12.1771ZM182.106 31.2287V17.4427H185.449V31.2287H182.106ZM182.286 12.1771H185.286V15.006H182.286V12.1771ZM272.493 36.9435H271.896V36.729H273.349V36.9435H272.75V38.673H272.493V36.9435ZM275.219 37.8183C275.219 37.5468 275.188 37.2183 275.188 36.9804C275.117 37.2049 275.039 37.4496 274.941 37.7178L274.602 38.6596H274.413L274.074 37.7345C273.983 37.4597 273.905 37.2116 273.851 36.9804C273.851 37.2217 273.834 37.5435 273.813 37.8384L273.762 38.673H273.519L273.657 36.729H273.996L274.335 37.6675C274.416 37.9088 274.48 38.12 274.535 38.3378C274.589 38.1401 274.657 37.9256 274.745 37.6675L275.083 36.729H275.422L275.544 38.673H275.293L275.219 37.8183Z" fill="white"/>
<defs>
<linearGradient id="paint0_linear_1238_1086" x1="242.096" y1="0.874811" x2="242.096" y2="15.73" gradientUnits="userSpaceOnUse">
<stop stop-color="#33A3C3"/>
<stop offset="1" stop-color="#005770"/>
</linearGradient>
<linearGradient id="paint1_linear_1238_1086" x1="247.416" y1="29.0869" x2="270.956" y2="29.0869" gradientUnits="userSpaceOnUse">
<stop stop-color="#077797"/>
<stop offset="1" stop-color="#005A74"/>
</linearGradient>
<linearGradient id="paint2_linear_1238_1086" x1="248.336" y1="22.266" x2="260.907" y2="22.0231" gradientUnits="userSpaceOnUse">
<stop stop-color="#D3F5FF"/>
<stop offset="1" stop-color="#51C1E1"/>
</linearGradient>
</defs>
</svg>
