<svg width="576" height="262" viewBox="0 0 576 262" fill="none" xmlns="http://www.w3.org/2000/svg">
<g filter="url(#filter0_d_1_2007)">
<g clip-path="url(#clip0_1_2007)">
<g filter="url(#filter1_d_1_2007)">
<path fill-rule="evenodd" clip-rule="evenodd" d="M541 26H34V218H253V217C253 197.67 268.67 182 288 182C307.33 182 323 197.67 323 217V218H541V26Z" fill="white"/>
</g>
</g>
<path fill-rule="evenodd" clip-rule="evenodd" d="M34 56C34 53.9978 34.2252 52.0446 34.6532 50.1614L34.5357 50.1382C34.1839 52.0385 34 53.9978 34 56ZM39.6042 39.7005L38.7879 39.1541C40.9072 35.738 43.6518 32.7504 46.8618 30.3514L47.8878 31.884L48.1244 32.2374C46.259 33.3254 44.5308 34.5994 42.9699 36.0316C41.7392 37.1608 40.6124 38.3883 39.6042 39.7005ZM58.52 28.4661L58.3392 27.552L57.9511 25.59L57.844 25.0487C59.8273 24.5275 61.8859 24.1919 64 24.0615C64.6614 24.0207 65.3283 24 66 24H69.6V25V27V28H64C62.1284 28 60.2968 28.16 58.52 28.4661ZM80.8 28H92V27V25V24H80.8V25V27V28ZM103.2 24V25V27V28H114.4V27V25V24H103.2ZM125.6 24V25V27V28H136.8V27V25V24H125.6ZM148 24V25V27V28H159.2V27V25V24H148ZM170.4 24V25V27V28H181.6V27V25V24H170.4ZM192.8 24V25V27V28H204V27V25V24H192.8ZM215.2 24V25V27V28H226.4V27V25V24H215.2ZM237.6 24V25V27V28H248.8V27V25V24H237.6ZM260 24V25V27V28H271.2V27V25V24H260ZM282.4 24V25V27V28H293.6V27V25V24H282.4ZM304.8 24V25V27V28H316V27V25V24H304.8ZM327.2 24V25V27V28H338.4V27V25V24H327.2ZM349.6 24V25V27V28H360.8V27V25V24H349.6ZM372 24V25V27V28H383.2V27V25V24H372ZM394.4 24V25V27V28H405.6V27V25V24H394.4ZM416.8 24V25V27V28H428V27V25V24H416.8ZM439.2 24V25V27V28H450.4V27V25V24H439.2ZM461.6 24V25V27V28H472.8V27V25V24H461.6ZM484 24V25V27V28H495.2V27V25V24H484ZM506.4 24V25V27V28H512C513.872 28 515.703 28.16 517.48 28.4661L517.661 27.552L518.049 25.59L518.156 25.0487C516.173 24.5275 514.114 24.1919 512 24.0615C511.339 24.0207 510.672 24 510 24H506.4ZM529.138 30.3514L528.112 31.884L527.876 32.2374C529.741 33.3254 531.469 34.5994 533.03 36.0317C534.261 37.1608 535.388 38.3883 536.396 39.7005L537.212 39.1541C535.093 35.738 532.348 32.7504 529.138 30.3514ZM541.464 50.1381L541.347 50.1614C541.775 52.0446 542 53.9978 542 56C542 53.9978 541.816 52.0385 541.464 50.1381Z" fill="white" mask="url(#path-1-outside-1_1_2007)"/>
</g>
<defs>
<filter id="filter0_d_1_2007" x="0" y="0" width="576" height="262" filterUnits="userSpaceOnUse" color-interpolation-filters="sRGB">
<feFlood flood-opacity="0" result="BackgroundImageFix"/>
<feColorMatrix in="SourceAlpha" type="matrix" values="0 0 0 0 0 0 0 0 0 0 0 0 0 0 0 0 0 0 127 0" result="hardAlpha"/>
<feOffset dy="10"/>
<feGaussianBlur stdDeviation="17"/>
<feComposite in2="hardAlpha" operator="out"/>
<feColorMatrix type="matrix" values="0 0 0 0 0.215686 0 0 0 0 0.458824 0 0 0 0 0.819608 0 0 0 0.08 0"/>
<feBlend mode="normal" in2="BackgroundImageFix" result="effect1_dropShadow_1_2007"/>
<feBlend mode="normal" in="SourceGraphic" in2="effect1_dropShadow_1_2007" result="shape"/>
</filter>
<filter id="filter1_d_1_2007" x="0" y="2" width="575" height="260" filterUnits="userSpaceOnUse" color-interpolation-filters="sRGB">
<feFlood flood-opacity="0" result="BackgroundImageFix"/>
<feColorMatrix in="SourceAlpha" type="matrix" values="0 0 0 0 0 0 0 0 0 0 0 0 0 0 0 0 0 0 127 0" result="hardAlpha"/>
<feOffset dy="10"/>
<feGaussianBlur stdDeviation="17"/>
<feComposite in2="hardAlpha" operator="out"/>
<feColorMatrix type="matrix" values="0 0 0 0 0.215686 0 0 0 0 0.458824 0 0 0 0 0.819608 0 0 0 0.08 0"/>
<feBlend mode="normal" in2="BackgroundImageFix" result="effect1_dropShadow_1_2007"/>
<feBlend mode="normal" in="SourceGraphic" in2="effect1_dropShadow_1_2007" result="shape"/>
</filter>
<clipPath id="clip0_1_2007">
<path d="M34 56C34 39.4315 47.4315 26 64 26H512C528.569 26 542 39.4315 542 56V188C542 204.569 528.569 218 512 218H64C47.4314 218 34 204.569 34 188V56Z" fill="white"/>
</clipPath>
</defs>
</svg>
