<svg width="232" height="102" viewBox="0 0 232 102" fill="none" xmlns="http://www.w3.org/2000/svg">
<path d="M198.304 44.5689C199.478 44.5689 200.51 43.62 200.51 42.2495C200.51 40.8438 199.514 39.9301 198.304 39.9301C197.094 39.9301 196.098 40.8438 196.098 42.2495C196.098 43.62 197.094 44.5689 198.304 44.5689ZM197.094 40.5978H198.339C199.193 40.5978 199.692 40.8438 199.692 41.5818C199.692 42.1792 199.336 42.39 198.909 42.4252L199.763 43.866H198.909L198.161 42.4955H197.841V43.866H197.13V40.5978H197.094Z" fill="white"/>
<path d="M198.943 41.5115C198.943 41.16 198.587 41.16 198.303 41.16H197.805V41.9332H198.445C198.73 41.9332 198.943 41.898 198.943 41.5115Z" fill="white"/>
<path d="M31.5273 81.7498H38.2525C37.8611 83.6475 37.185 85.1938 35.7261 86.2481C34.2672 87.3024 31.9899 87.8647 28.3249 87.8647C24.731 87.8647 18.0059 87.6187 18.0059 80.1684C18.0059 72.683 24.731 72.4722 28.3249 72.4722C31.9187 72.4722 37.4697 72.929 38.2525 78.6221H31.5273C31.3494 77.603 30.6378 76.0919 28.3249 76.0919C25.9052 76.0919 24.3396 77.2516 24.3396 80.1684C24.3396 83.0853 25.8341 84.245 28.0402 84.245C29.8905 84.2098 31.0292 83.4718 31.5273 81.7498Z" fill="white"/>
<path d="M57.6082 85.6507L57.3592 82.4878C57.2524 81.2227 56.5408 80.5198 55.6512 80.2738V80.2387C57.3947 79.7467 57.9641 78.3058 57.9641 76.9353C57.9641 75.3539 57.0389 73.9833 55.9003 73.4562C55.0819 73.0696 54.05 72.929 52.342 72.929H39.7812V87.3375H45.7592V82.9095H49.9935C51.0966 82.9095 51.488 83.5421 51.5236 84.6315C51.6303 86.3184 51.6303 86.9158 51.8438 87.3375H58.3555C57.9641 86.9158 57.6794 86.3184 57.6082 85.6507ZM49.9935 79.2547H45.7592V76.5487H49.8868C50.8831 76.5487 51.6303 76.8299 51.6303 77.9193C51.6303 78.833 51.1322 79.2547 49.9935 79.2547Z" fill="white"/>
<path d="M77.9979 72.929V81.8553C77.9979 86.4238 75.1157 87.8295 68.9599 87.8295C62.8041 87.8295 59.9219 86.459 59.9219 81.8553V72.929H65.8998V81.6444C65.8998 83.507 67.0029 84.0693 68.9599 84.0693C70.8814 84.0693 72.02 83.4718 72.02 81.6444V72.929H77.9979Z" fill="white"/>
<path d="M86.7162 72.929H80.7383V87.3375H86.7162V72.929Z" fill="white"/>
<path d="M108.173 82.6635C108.173 86.1778 105.184 87.8295 98.4589 87.8295C93.8687 87.8295 88.8516 87.2321 88.8516 82.9798H96.0393C96.0749 83.4718 96.2528 83.7881 96.6798 83.999C97.1068 84.2098 97.7828 84.2801 98.708 84.2801C100.558 84.2801 101.092 83.7881 101.092 83.1204C101.092 82.6987 100.807 82.277 100.025 82.1364L93.2283 81.1876C90.3105 80.7658 89.1006 79.1493 89.1006 77.111C89.1006 73.3859 92.9436 72.3667 97.8184 72.3667C104.544 72.3667 107.319 74.0536 107.533 77.0759H100.594C100.594 76.4784 100.238 76.127 99.6687 75.9161C99.135 75.7053 98.4589 75.5999 97.8184 75.5999C96.0393 75.5999 95.4344 76.0216 95.4344 76.619C95.4344 77.0056 95.6123 77.2867 96.2172 77.357L103.369 78.3761C106.323 78.9033 108.173 80.2387 108.173 82.6635Z" fill="white"/>
<path d="M116.214 76.4433V78.3761H125.573V81.8904H116.214V83.8233H126.32V87.3375H110.236V72.929H126.32V76.4433H116.214Z" fill="white"/>
<path d="M151.655 83.4718V87.3375H136.461V72.929H142.403V83.4718H151.655Z" fill="white"/>
<path d="M159.447 72.929H153.469V87.3376H159.447V72.929Z" fill="white"/>
<path d="M181.118 72.929V87.3375H174.606L168.237 79.2547H168.201V87.3375H162.508V72.929H169.304L175.353 80.9416H175.424V72.929H181.118Z" fill="white"/>
<path d="M190.119 76.4433V78.3761H199.477V81.8904H190.119V83.8233H200.188V87.3375H184.141V72.929H200.188V76.4433H190.119Z" fill="white"/>
<path d="M220.65 82.6636C220.65 86.1778 217.661 87.8295 210.936 87.8295C206.346 87.8295 201.329 87.2321 201.293 82.9798H208.516C208.516 83.4718 208.73 83.7881 209.157 83.999C209.584 84.2098 210.26 84.2801 211.185 84.2801C213.035 84.2801 213.533 83.7881 213.533 83.1204C213.533 82.6987 213.249 82.277 212.466 82.1364L205.67 81.2227C202.752 80.801 201.542 79.1844 201.542 77.1462C201.542 73.421 205.385 72.4019 210.295 72.4019C217.021 72.4019 219.796 74.0887 220.01 77.111H213.071C213.071 76.5136 212.715 76.1622 212.181 75.9513C211.648 75.7404 210.971 75.635 210.331 75.635C208.552 75.635 207.947 76.0567 207.947 76.6542C207.947 77.0407 208.125 77.3219 208.73 77.3922L215.882 78.4113C218.8 78.9033 220.65 80.2387 220.65 82.6636Z" fill="white"/>
<path d="M126.498 65.4788L126.178 61.1914C126.035 59.5045 125.075 58.5205 123.936 58.1691V58.0988C126.213 57.4311 126.996 55.4631 126.996 53.6006C126.996 51.4569 125.786 49.5592 124.292 48.8563C123.189 48.3292 121.837 48.1534 119.595 48.1534H103.049V67.7982H110.913V61.7537H116.499C117.958 61.7537 118.456 62.6322 118.527 64.1082C118.67 66.3925 118.67 67.2359 118.954 67.7982H127.53C126.96 67.2008 126.569 66.3574 126.498 65.4788ZM116.428 56.7986H110.841V53.1086H116.286C117.602 53.1086 118.563 53.46 118.563 54.936C118.599 56.2011 117.958 56.7986 116.428 56.7986Z" fill="white"/>
<path d="M137.741 48.1534H129.877V67.7982H137.741V48.1534Z" fill="white"/>
<path d="M158.414 60.1371H167.275C166.776 62.7025 165.887 64.8111 163.93 66.2519C162.008 67.6928 158.984 68.4659 154.216 68.4659C149.448 68.4659 140.623 68.1496 140.623 57.9583C140.623 47.7669 149.448 47.4506 154.216 47.4506C158.948 47.4506 166.243 48.048 167.275 55.8497H158.414C158.165 54.444 157.24 52.4057 154.216 52.4057C151.013 52.4057 148.985 53.9871 148.985 57.9583C148.985 61.9294 150.978 63.5108 153.824 63.5108C156.279 63.546 157.774 62.5268 158.414 60.1371Z" fill="white"/>
<path d="M37.2558 48.1534H27.6484L26.9012 49.8754L19.1797 67.7982H27.5417L28.3956 65.5491H36.5797L37.4337 67.7982H45.7956L37.2558 48.1534ZM30.1036 60.7345L32.4521 54.0926H32.4877L34.8361 60.7345H30.1036Z" fill="white"/>
<path d="M75.4376 48.1534V67.7982H68.2854V53.7763H68.2498L64.0867 67.7982H58.1087L53.9455 53.7763H53.8744V67.7982H46.7578V48.1534H57.7885L61.0621 59.5748H61.1333L64.3713 48.1534H75.4376Z" fill="white"/>
<path d="M100.415 48.1534V52.9329H87.1431V55.5686H99.4903V60.348H87.1431V63.0188H100.415V67.7982H79.2793V48.1534H100.415Z" fill="white"/>
<path d="M185.386 48.3994L185.28 48.1534H175.637L167.168 67.7982H175.53L176.384 65.5491H184.568L185.386 67.7982H193.748L185.386 48.3994ZM178.127 60.7345L180.476 54.0926H180.547L182.896 60.7345H178.127Z" fill="white"/>
<path d="M219.298 48.1534V67.7982H210.687L202.36 56.7986H202.289V67.7982H194.781V48.1534H203.748L211.719 59.0477H211.79V48.1534H219.298Z" fill="white"/>
<path d="M191.009 45.6934C182.149 43.2686 166.884 40.422 161.013 39.4029C156.067 38.5595 148.096 37.5403 141.442 37.5403C137.35 37.5403 128.455 37.2943 119.274 40.422C113.688 42.3197 105.966 44.7797 96.8215 45.588C89.527 46.2206 73.6215 45.3772 61.7724 43.1632L58.9258 37.2943C71.6644 39.3326 85.7196 41.16 95.8963 40.3166C103.44 39.684 111.517 36.9078 117.566 34.7289C120.448 33.6746 125.217 32.4446 131.586 32.0229C138.133 31.6012 146.922 32.1986 154.821 33.4638C161.013 34.4829 177.488 37.1889 186.704 40.7383L186.882 40.8086L191.009 45.6934Z" fill="#0A7A9A"/>
<path d="M182.505 35.3615L182.256 35.2561C172.613 31.5661 155.533 28.7195 149.448 27.7355C138.56 26.0135 132.333 26.4352 128.134 26.8921C123.9 27.3138 119.95 28.0518 115.68 29.3169C103.191 33.0421 102.016 33.8855 94.9353 34.7641C86.1108 35.8535 69.7427 33.5341 56.3635 31.8121L53.4102 25.7324C66.0421 27.4895 81.6985 29.9495 89.9893 29.1412C100.7 28.1221 104.685 26.3298 112.905 23.9753C116.961 22.8507 121.622 21.8316 125.11 21.4098C133.116 20.4258 136.852 20.8476 146.424 22.2533C153.398 23.3075 168.805 26.4001 177.63 29.5981L177.986 29.7035L182.505 35.3615Z" fill="#0A7A9A"/>
<path d="M174.108 25.0998L173.681 24.9593C163.077 21.1287 146.424 17.2981 138.489 16.4899C129.807 15.5762 124.754 16.1736 118.065 17.2981C111.98 18.3524 108.92 19.1607 105.433 20.1798C95.4695 23.0615 87.1432 25.0295 72.9456 23.6238C63.6941 22.7101 57.5027 21.5856 50.6708 20.3204L48.9984 16.9116L47.5039 13.8542C58.926 15.9979 62.8045 16.7007 68.7113 17.6144C80.3113 19.4067 91.7689 18.3876 98.6008 16.4547C103.689 15.0139 108.849 13.6433 112.229 12.8702C119.559 11.1833 124.256 10.0236 135.429 11.4293C145.57 12.7296 161.511 16.8413 169.802 19.8636L174.108 25.0998Z" fill="#0A7A9A"/>
<path d="M58.9258 37.2241L56.2926 31.8472L53.3393 25.7675L50.6706 20.2853L48.9982 16.8764L47.5037 13.819C46.543 13.6433 45.5822 13.4676 44.5147 13.2567C44.3012 13.2216 44.1233 13.1864 43.9454 13.1513C37.754 12.0267 35.3344 11.1833 28.965 11.851C28.1111 12.6945 27.2926 13.5027 26.4387 14.3462C27.8264 15.5059 29.1785 16.6304 30.6019 17.7901C28.716 17.2981 26.9368 16.8061 25.0865 16.3142C23.8411 18.1064 22.1331 19.477 21.7417 20.0041C21.5282 18.6687 22.4534 16.8061 22.2399 15.5059C20.9589 14.9787 19.6779 14.4516 18.3969 13.9244C15.4436 14.6273 12.1699 15.2247 7.11719 15.1193L10.6043 22.183C10.7822 22.183 10.9601 22.1478 11.138 22.1478C11.0313 20.707 10.9245 19.3716 10.8178 17.9307C11.7785 19.1607 12.7037 20.3204 13.6644 21.5504C15.1945 21.3747 16.689 21.2341 18.219 21.0584C17.2939 21.9721 16.3687 22.8507 15.4436 23.7644C16.689 25.0647 17.8988 26.3298 19.1798 27.6301C17.4362 26.9975 15.7638 26.4001 14.0203 25.7675C13.7 26.2244 13.3442 26.6812 13.0239 27.103L18.0411 37.2943C18.4681 37.2241 18.8951 37.1889 19.3221 37.1186C19.1086 35.7481 18.9307 34.4478 18.7172 33.0772C19.7491 34.2018 20.781 35.2561 21.8129 36.3806C23.343 36.1346 24.8019 35.8886 26.3319 35.6075C25.4779 36.5564 24.6239 37.4349 23.7344 38.3838C25.0865 39.5435 26.3675 40.668 27.7196 41.8278C25.9405 41.3358 24.2325 40.8438 22.4178 40.3518C21.8485 41.1952 21.3147 42.0035 20.781 42.8469L22.1687 45.6583C25.5847 46.818 30.0681 43.9715 36.6153 42.636L36.5798 42.3197C35.0497 41.652 33.5552 41.0195 31.9896 40.3518C33.4129 40.2112 34.8006 40.1058 36.2239 39.9652C36.046 38.6649 35.8681 37.4349 35.6902 36.1346C36.7577 37.2241 37.754 38.2783 38.8215 39.3678C40.4227 39.192 41.9528 39.0163 43.554 38.8406C42.6288 39.684 41.7037 40.4923 40.7785 41.3709C41.0632 41.6169 41.3123 41.8278 41.5969 42.0738C49.5319 41.406 51.2399 41.7926 61.7724 43.1632L58.9258 37.2241ZM32.3098 31.0741C31.4914 32.0581 30.7086 33.0069 29.8902 34.0261C29.7834 32.6907 29.6767 31.4255 29.5344 30.0901C28.0043 29.3521 26.581 28.6141 25.0509 27.8761C26.5098 27.8058 27.862 27.7355 29.3209 27.6652C29.1785 26.3298 29.0718 25.0295 28.965 23.659C29.9614 24.8538 30.9221 25.9433 31.954 27.1381C33.5552 27.0327 35.0853 26.8921 36.6865 26.7867C35.7258 27.6301 34.765 28.4384 33.8043 29.2818C35.1209 30.5469 36.3663 31.7418 37.6828 33.0069C35.9037 32.3392 34.1601 31.7066 32.3098 31.0741ZM39.7111 24.8187C39.6399 23.4833 39.6043 22.2181 39.5331 20.9178C38.0387 20.0744 36.5798 19.3013 35.0497 18.4579C36.5086 18.4579 37.9319 18.493 39.4264 18.493C39.3552 17.1576 39.3196 15.8924 39.2485 14.557C40.2092 15.7519 41.1699 16.9116 42.1307 18.1416C43.6963 18.1416 45.1908 18.1064 46.7209 18.1064H46.9699L46.792 18.247C45.8313 18.9499 44.8706 19.6527 43.9098 20.3556C45.1908 21.691 46.4362 22.921 47.7172 24.2564C45.8669 23.5184 44.1233 22.8155 42.3086 22.0776C41.4546 22.9913 40.6006 23.8698 39.7111 24.8187ZM50.1012 36.6266C49.1405 37.5052 48.2509 38.3135 47.2902 39.1569C47.3258 37.8566 47.3969 36.6266 47.4325 35.3264C45.9736 34.4126 44.6215 33.5341 43.1626 32.6204C44.6215 32.7258 46.0448 32.8312 47.5037 32.9367C47.5393 31.6364 47.6104 30.3712 47.646 29.071C48.5356 30.3361 49.354 31.5309 50.2436 32.7609C51.8804 32.8312 53.446 32.9366 55.0828 33.0069C53.9798 33.7098 52.9479 34.3424 51.8448 35.0452C53.019 36.4158 54.1577 37.7161 55.3319 39.0866C53.5528 38.2432 51.8448 37.4701 50.1012 36.6266Z" fill="#005067"/>
<path d="M197.806 42.4955H198.126L198.874 43.866H199.692L198.838 42.4252C199.265 42.39 199.621 42.1792 199.621 41.5817C199.621 40.8438 199.123 40.5977 198.269 40.5977H197.023V43.866H197.735V42.4955H197.806ZM197.806 41.16H198.304C198.553 41.16 198.945 41.1952 198.945 41.5115C198.945 41.8629 198.767 41.9332 198.447 41.9332H197.806V41.16Z" fill="#0D4991"/>
<path d="M198.303 39.192C196.666 39.192 195.207 40.3166 195.207 42.2143C195.207 44.1472 196.666 45.2366 198.303 45.2366C199.94 45.2366 201.363 44.1472 201.363 42.2143C201.398 40.3166 199.94 39.192 198.303 39.192ZM198.303 44.5689C197.093 44.5689 196.097 43.62 196.097 42.2495C196.097 40.8438 197.093 39.93 198.303 39.93C199.477 39.93 200.509 40.8438 200.509 42.2495C200.509 43.62 199.477 44.5689 198.303 44.5689Z" fill="#0D4991"/>
</svg>
