<svg width="224" height="34" viewBox="0 0 224 34" fill="none" xmlns="http://www.w3.org/2000/svg">
<g clip-path="url(#clip0_1238_921)">
<path d="M14.3437 17.0711C14.3437 9.80246 9.28467 3.6542 2.32471 1.62352L0.0742188 1.62222V32.5293H2.28869C9.26716 30.509 14.3437 24.3523 14.3437 17.0711Z" fill="white"/>
<path d="M17.9765 17.0711C17.9765 24.3649 12.8821 30.4916 5.88477 32.5012L24.874 32.52V1.63417H5.9938C12.9349 3.67584 17.9765 9.81538 17.9765 17.0711V17.0711ZM148.086 9.01785C150.924 9.01785 153.224 7.15908 153.224 4.86665C153.224 2.5739 150.924 0.715454 148.086 0.715454C145.248 0.715454 142.948 2.5739 142.948 4.86665C142.948 7.15876 145.248 9.01785 148.086 9.01785ZM184.576 10.5053C185.247 10.3896 185.366 9.65575 184.813 9.65575H175.611C175.098 9.65575 174.901 10.3896 175.611 10.4669C179.087 10.6601 178.652 14.4064 178.218 15.4877L173.716 23.7529L167.318 13.4405C165.936 11.2392 167.871 10.6598 168.306 10.4665C168.74 10.2733 168.858 9.65542 168.266 9.65542H153.576C152.983 9.65542 153.141 10.3121 153.576 10.4278C154.602 10.737 155.313 11.7798 155.826 12.5134L168.622 33.0603C169.096 33.8717 170.043 33.6397 170.399 33.0218L181.535 14.0199C182.601 12.2435 183.707 10.6986 184.576 10.5053V10.5053Z" fill="white"/>
<path d="M152.825 27.8081V9.26958L142.12 10.4061C141.444 10.4998 141.396 10.9684 141.768 11.3164C142.676 12.166 143.585 12.8999 143.585 15.6037V27.8081C143.585 29.4471 143.213 30.0614 141.926 31.409C140.639 30.0614 140.267 29.4474 140.267 27.8081V17.3028C140.267 9.73298 134.659 8.4197 130.868 8.4197C127.077 8.4197 124.708 9.96468 123.128 12.2048V9.26958L112.422 10.4061C111.747 10.4998 111.699 10.9684 112.071 11.3164C112.979 12.166 113.887 12.8999 113.887 15.6037V27.8081C113.887 29.662 113.414 30.2027 111.676 31.9793C111.439 32.1726 111.4 32.52 111.834 32.52H125.182C125.616 32.52 125.577 32.1726 125.34 31.9793C123.602 30.2027 123.129 29.662 123.129 27.8081V16.9939C123.129 13.286 125.419 11.1232 127.472 11.1232C129.526 11.1232 131.027 13.3633 131.027 15.6033V27.8078C131.027 29.6617 130.553 30.2023 128.816 31.979C128.578 32.1723 128.539 32.5196 128.973 32.5196H154.88C155.314 32.5196 155.275 32.1723 155.038 31.979C153.299 30.2027 152.825 29.662 152.825 27.8081ZM101.645 13.0543V9.26958L90.9391 10.4061C90.2641 10.4998 90.2155 10.9684 90.5876 11.3164C91.4959 12.166 92.4042 12.8999 92.4042 15.6037V27.8081C92.4042 29.5279 91.9945 30.1193 90.5483 31.6142C89.102 30.1193 88.692 29.5279 88.692 27.8081V16.0671C88.692 9.65575 80.8726 8.65172 75.9757 8.65172C71.0789 8.65172 67.0508 9.34682 64.0496 11.4321L65.3759 16.757C65.511 17.0714 65.7635 17.0601 65.8936 16.7761C68.3229 12.1117 70.9451 10.3528 74.7912 10.3896C77.9507 10.4281 79.4514 12.9002 79.4514 15.6037V18.1139C76.0633 18.1139 63.1647 18.691 63.1032 25.8262L61.7574 23.3809C61.3163 22.5184 60.8904 22.7873 60.6938 23.6757C59.7858 26.8739 57.724 29.2041 54.9458 31.026C53.15 32.1341 48.6979 32.8518 45.7255 31.3615C41.6022 29.2933 39.4862 24.4092 39.4733 18.925C39.4604 13.4408 41.3025 8.65172 44.0668 6.64334C46.8311 4.63495 51.2541 4.55772 53.9106 6.30338C57.1296 8.17669 58.2246 10.5218 59.2691 13.467C59.3893 13.8273 59.6583 13.7963 59.7607 13.445L61.4654 6.91834C58.7186 5.18463 55.0281 3.53462 48.4898 3.54141C36.2474 3.55401 28.6523 10.4455 28.6523 18.7712C28.6523 27.0968 34.4307 34.0252 48.7267 34.0006C55.5211 33.989 60.0366 31.9616 63.3606 28.3077C64.4973 33.134 69.1228 33.3705 71.9473 33.3705C75.1854 33.3705 78.3449 33.0612 79.9246 30.1261C80.1618 30.8212 80.4777 32.0575 80.8722 32.5206H103.698C104.132 32.5206 104.093 32.1732 103.856 31.98C102.119 30.2033 101.645 29.6627 101.645 27.8088V19.2343C101.645 15.2175 103.619 13.4408 105.436 13.5953C107.253 13.7497 107.095 16.6849 107.016 17.2256C106.937 17.7665 107.49 17.921 107.647 17.5348L111.518 9.96468C108.595 7.10641 102.672 10.8142 101.645 13.0543V13.0543ZM79.4511 26.9585C79.3721 29.5076 77.4762 31.3615 76.0547 31.2839C74.7932 31.2157 72.9745 29.9713 73.0535 26.3404C73.1328 22.7101 74.7515 20.1223 79.4511 19.7749V26.9585ZM223.751 31.9793C222.013 30.2027 221.54 29.662 221.54 27.8081V0L210.834 1.13684C210.159 1.23056 210.11 1.6988 210.482 2.04716C211.391 2.89672 212.299 3.6306 212.299 6.33408V27.8081C212.299 29.3951 211.949 30.022 210.759 31.2833C209.569 30.022 209.219 29.3951 209.219 27.8081V16.0671C209.219 9.65575 201.399 8.65172 196.503 8.65172C191.606 8.65172 187.578 9.34682 184.577 11.4321L185.903 16.757C186.038 17.0714 186.29 17.0601 186.421 16.7761C188.85 12.1117 191.472 10.3528 195.318 10.3896C198.478 10.4281 199.978 12.9002 199.978 15.6037V18.1139C196.582 18.1139 183.629 18.6936 183.629 25.877C183.629 33.0603 189.237 33.3699 192.475 33.3699C195.713 33.3699 198.872 33.0606 200.452 30.1254C200.689 30.8205 201.005 32.0569 201.4 32.52H223.594C224.028 32.52 223.988 32.1726 223.751 31.9793V31.9793ZM199.978 26.9585C199.899 29.5076 198.003 31.3615 196.581 31.2839C195.32 31.2157 193.501 29.9713 193.58 26.3404C193.659 22.7101 195.278 20.1223 199.978 19.7749V26.9585Z" fill="white"/>
</g>
<defs>
<clipPath id="clip0_1238_921">
<rect width="224" height="34" fill="white"/>
</clipPath>
</defs>
</svg>
