<svg width="132" height="132" viewBox="0 0 132 132" fill="none" xmlns="http://www.w3.org/2000/svg">
<path d="M132 66C132 102.451 102.451 132 66 132C29.5492 132 0 102.451 0 66C0 29.5492 29.5492 0 66 0C102.451 0 132 29.5492 132 66Z" fill="white"/>
<path d="M127 66C127 99.6894 99.6894 127 66 127C32.3106 127 5 99.6894 5 66C5 32.3106 32.3106 5 66 5C99.6894 5 127 32.3106 127 66Z" fill="white"/>
<path d="M127 66C127 99.6894 99.6894 127 66 127C32.3106 127 5 99.6894 5 66C5 32.3106 32.3106 5 66 5C99.6894 5 127 32.3106 127 66Z" fill="url(#paint0_radial_1972_2092)"/>
<g clip-path="url(#clip0_1972_2092)">
<path d="M58 34C58 32.9391 58.4214 31.9217 59.1716 31.1716C59.9217 30.4214 60.9392 30 62 30H70C71.0609 30 72.0783 30.4214 72.8284 31.1716C73.5786 31.9217 74 32.9391 74 34V50C74 51.0609 73.5786 52.0783 72.8284 52.8284C72.0783 53.5786 71.0609 54 70 54H62C60.9392 54 59.9217 53.5786 59.1716 52.8284C58.4214 52.0783 58 51.0609 58 50V34ZM68 48C68 47.4696 67.7893 46.9609 67.4142 46.5858C67.0392 46.2107 66.5305 46 66 46C65.4696 46 64.9609 46.2107 64.5858 46.5858C64.2107 46.9609 64 47.4696 64 48C64 48.5304 64.2107 49.0391 64.5858 49.4142C64.9609 49.7893 65.4696 50 66 50C66.5305 50 67.0392 49.7893 67.4142 49.4142C67.7893 49.0391 68 48.5304 68 48ZM53.614 35.468C53.7381 35.2335 53.764 34.9594 53.686 34.7058C53.608 34.4523 53.4325 34.2401 53.198 34.116C52.9636 33.9919 52.6894 33.966 52.4359 34.044C52.1823 34.122 51.9701 34.2975 51.846 34.532C50.63 36.8332 49.9962 39.3973 50 42C50 44.694 50.668 47.236 51.846 49.468C51.9075 49.5841 51.9912 49.6869 52.0924 49.7707C52.1936 49.8544 52.3103 49.9174 52.4359 49.956C52.5614 49.9946 52.6933 50.0082 52.8241 49.9958C52.9549 49.9835 53.0819 49.9455 53.198 49.884C53.3141 49.8225 53.417 49.7388 53.5007 49.6376C53.5844 49.5364 53.6474 49.4197 53.686 49.2942C53.7247 49.1686 53.7382 49.0367 53.7258 48.9059C53.7135 48.7751 53.6755 48.6481 53.614 48.532C52.5505 46.5192 51.9964 44.2765 52 42C52 39.64 52.584 37.416 53.614 35.468ZM80.154 34.532C80.0299 34.2975 79.8177 34.122 79.5642 34.044C79.3106 33.966 79.0365 33.9919 78.802 34.116C78.5676 34.2401 78.392 34.4523 78.314 34.7058C78.236 34.9594 78.2619 35.2335 78.386 35.468C79.416 37.416 80 39.638 80 42C80 44.36 79.416 46.584 78.386 48.532C78.2619 48.7665 78.236 49.0406 78.314 49.2942C78.392 49.5477 78.5676 49.7599 78.802 49.884C79.0365 50.0081 79.3106 50.034 79.5642 49.956C79.8177 49.878 80.0299 49.7025 80.154 49.468C81.37 47.1668 82.0039 44.6027 82 42C82.0039 39.3973 81.37 36.8332 80.154 34.532V34.532ZM56.68 38.364C56.7358 38.2404 56.7659 38.1067 56.7684 37.9711C56.771 37.8355 56.7459 37.7008 56.6947 37.5753C56.6436 37.4497 56.5674 37.3358 56.4709 37.2405C56.3743 37.1453 56.2594 37.0707 56.1331 37.0213C56.0068 36.9718 55.8718 36.9486 55.7362 36.953C55.6007 36.9574 55.4674 36.9893 55.3446 37.0468C55.2218 37.1043 55.1119 37.1862 55.0218 37.2875C54.9316 37.3888 54.8629 37.5074 54.82 37.636C54.2769 39.0268 53.9988 40.5069 54 42C54 43.538 54.29 45.01 54.82 46.364C54.8629 46.4926 54.9316 46.6112 55.0218 46.7125C55.1119 46.8138 55.2218 46.8957 55.3446 46.9532C55.4674 47.0107 55.6007 47.0426 55.7362 47.047C55.8718 47.0514 56.0068 47.0282 56.1331 46.9787C56.2594 46.9293 56.3743 46.8547 56.4709 46.7595C56.5674 46.6642 56.6436 46.5503 56.6947 46.4247C56.7459 46.2992 56.771 46.1645 56.7684 46.0289C56.7659 45.8933 56.7358 45.7596 56.68 45.636C56.2286 44.477 55.9979 43.2438 56 42C56 40.716 56.24 39.49 56.68 38.364ZM77.18 37.636C77.0745 37.4023 76.8833 37.2181 76.6458 37.1214C76.4084 37.0247 76.1429 37.0229 75.9041 37.1163C75.6654 37.2098 75.4717 37.3913 75.363 37.6235C75.2542 37.8557 75.2389 38.1208 75.32 38.364C75.76 39.49 76 40.716 76 42C76 43.284 75.76 44.51 75.32 45.636C75.2389 45.8792 75.2542 46.1443 75.363 46.3765C75.4717 46.6087 75.6654 46.7902 75.9041 46.8837C76.1429 46.9771 76.4084 46.9753 76.6458 46.8786C76.8833 46.7819 77.0745 46.5977 77.18 46.364C77.712 45.01 78 43.538 78 42C78 40.462 77.71 38.99 77.18 37.636V37.636Z" fill="white"/>
</g>
<path d="M34.7414 70.7681V72.9601H30.1654V75.3281H33.5894V77.4561H30.1654V82.0001H27.4294V70.7681H34.7414Z" fill="white"/>
<path d="M41.9074 82.0001L39.5714 77.7601H38.9154V82.0001H36.1794V70.7681H40.7714C41.6568 70.7681 42.4088 70.9228 43.0274 71.2321C43.6568 71.5415 44.1261 71.9681 44.4354 72.5121C44.7448 73.0455 44.8994 73.6428 44.8994 74.3041C44.8994 75.0508 44.6861 75.7175 44.2594 76.3041C43.8434 76.8908 43.2248 77.3068 42.4034 77.5521L44.9954 82.0001H41.9074ZM38.9154 75.8241H40.6114C41.1128 75.8241 41.4861 75.7015 41.7314 75.4561C41.9874 75.2108 42.1154 74.8641 42.1154 74.4161C42.1154 73.9895 41.9874 73.6535 41.7314 73.4081C41.4861 73.1628 41.1128 73.0401 40.6114 73.0401H38.9154V75.8241Z" fill="white"/>
<path d="M49.3529 72.9601V75.2321H53.0169V77.3441H49.3529V79.8081H53.4969V82.0001H46.6169V70.7681H53.4969V72.9601H49.3529Z" fill="white"/>
<path d="M58.0092 72.9601V75.2321H61.6732V77.3441H58.0092V79.8081H62.1532V82.0001H55.2732V70.7681H62.1532V72.9601H58.0092Z" fill="white"/>
<path d="M66.8561 76.3681C66.8561 75.2588 67.0961 74.2721 67.5761 73.4081C68.0561 72.5335 68.7227 71.8561 69.5761 71.3761C70.4401 70.8855 71.4161 70.6401 72.5041 70.6401C73.8374 70.6401 74.9787 70.9921 75.9281 71.6961C76.8774 72.4001 77.5121 73.3601 77.8321 74.5761H74.8241C74.6001 74.1068 74.2801 73.7495 73.8641 73.5041C73.4587 73.2588 72.9947 73.1361 72.4721 73.1361C71.6294 73.1361 70.9467 73.4295 70.4241 74.0161C69.9014 74.6028 69.6401 75.3868 69.6401 76.3681C69.6401 77.3495 69.9014 78.1335 70.4241 78.7201C70.9467 79.3068 71.6294 79.6001 72.4721 79.6001C72.9947 79.6001 73.4587 79.4775 73.8641 79.2321C74.2801 78.9868 74.6001 78.6295 74.8241 78.1601H77.8321C77.5121 79.3761 76.8774 80.3361 75.9281 81.0401C74.9787 81.7335 73.8374 82.0801 72.5041 82.0801C71.4161 82.0801 70.4401 81.8401 69.5761 81.3601C68.7227 80.8695 68.0561 80.1921 67.5761 79.3281C67.0961 78.4641 66.8561 77.4775 66.8561 76.3681Z" fill="white"/>
<path d="M86.4996 80.0161H82.3076L81.6356 82.0001H78.7716L82.8356 70.7681H86.0036L90.0676 82.0001H87.1716L86.4996 80.0161ZM85.7956 77.9041L84.4036 73.7921L83.0276 77.9041H85.7956Z" fill="white"/>
<path d="M94.0404 79.8881H97.6244V82.0001H91.3044V70.7681H94.0404V79.8881Z" fill="white"/>
<path d="M101.665 79.8881H105.249V82.0001H98.9294V70.7681H101.665V79.8881Z" fill="white"/>
<path d="M50.9482 96.2401C51.5989 96.3788 52.1215 96.7041 52.5162 97.2161C52.9109 97.7175 53.1082 98.2935 53.1082 98.9441C53.1082 99.8828 52.7775 100.629 52.1162 101.184C51.4655 101.728 50.5535 102 49.3802 102H44.1482V90.7681H49.2042C50.3455 90.7681 51.2362 91.0295 51.8762 91.5521C52.5269 92.0748 52.8522 92.7841 52.8522 93.6801C52.8522 94.3415 52.6762 94.8908 52.3242 95.3281C51.9829 95.7655 51.5242 96.0695 50.9482 96.2401ZM46.8842 95.3121H48.6762C49.1242 95.3121 49.4655 95.2161 49.7002 95.0241C49.9455 94.8215 50.0682 94.5281 50.0682 94.1441C50.0682 93.7601 49.9455 93.4668 49.7002 93.2641C49.4655 93.0615 49.1242 92.9601 48.6762 92.9601H46.8842V95.3121ZM48.9002 99.7921C49.3589 99.7921 49.7109 99.6908 49.9562 99.4881C50.2122 99.2748 50.3402 98.9708 50.3402 98.5761C50.3402 98.1815 50.2069 97.8721 49.9402 97.6481C49.6842 97.4241 49.3269 97.3121 48.8682 97.3121H46.8842V99.7921H48.9002Z" fill="white"/>
<path d="M61.6871 100.016H57.4951L56.8231 102H53.9591L58.0231 90.7681H61.1911L65.2551 102H62.3591L61.6871 100.016ZM60.9831 97.9041L59.5911 93.7921L58.2151 97.9041H60.9831Z" fill="white"/>
<path d="M66.0279 96.3681C66.0279 95.2588 66.2679 94.2721 66.7479 93.4081C67.2279 92.5335 67.8946 91.8561 68.7479 91.3761C69.6119 90.8855 70.5879 90.6401 71.6759 90.6401C73.0093 90.6401 74.1506 90.9921 75.0999 91.6961C76.0493 92.4001 76.6839 93.3601 77.0039 94.5761H73.9959C73.7719 94.1068 73.4519 93.7495 73.0359 93.5041C72.6306 93.2588 72.1666 93.1361 71.6439 93.1361C70.8013 93.1361 70.1186 93.4295 69.5959 94.0161C69.0733 94.6028 68.8119 95.3868 68.8119 96.3681C68.8119 97.3495 69.0733 98.1335 69.5959 98.7201C70.1186 99.3068 70.8013 99.6001 71.6439 99.6001C72.1666 99.6001 72.6306 99.4775 73.0359 99.2321C73.4519 98.9868 73.7719 98.6295 73.9959 98.1601H77.0039C76.6839 99.3761 76.0493 100.336 75.0999 101.04C74.1506 101.733 73.0093 102.08 71.6759 102.08C70.5879 102.08 69.6119 101.84 68.7479 101.36C67.8946 100.869 67.2279 100.192 66.7479 99.3281C66.2679 98.4641 66.0279 97.4775 66.0279 96.3681Z" fill="white"/>
<path d="M85.1914 102L81.4154 97.0401V102H78.6794V90.7681H81.4154V95.6961L85.1594 90.7681H88.3754L84.0234 96.2721L88.5354 102H85.1914Z" fill="white"/>
<defs>
<radialGradient id="paint0_radial_1972_2092" cx="0" cy="0" r="1" gradientUnits="userSpaceOnUse" gradientTransform="translate(66 54.7037) rotate(90) scale(72.2963)">
<stop stop-color="#FFAAAD"/>
<stop offset="1" stop-color="#FF666B"/>
</radialGradient>
<clipPath id="clip0_1972_2092">
<rect width="32" height="32" fill="white" transform="translate(50 26)"/>
</clipPath>
</defs>
</svg>
