<svg width="24" height="25" viewBox="0 0 24 25" fill="none" xmlns="http://www.w3.org/2000/svg">
<path d="M14.9336 23.1666C12.5217 23.1631 10.1542 22.5182 8.07363 21.2981C5.99311 20.078 4.27449 18.3265 3.09396 16.2233C1.91344 14.12 1.31348 11.7407 1.35559 9.32914C1.3977 6.91761 2.08038 4.56066 3.33362 2.49993C3.45693 2.29572 3.63106 2.12696 3.83904 2.01012C4.04702 1.89328 4.28174 1.83234 4.52029 1.83326H7.72695C8.04407 1.83514 8.35229 1.93837 8.60656 2.12788C8.86084 2.31738 9.04785 2.58324 9.14029 2.8866L10.667 8.05993C10.7749 8.43649 10.7306 8.8404 10.5435 9.18459C10.3565 9.52878 10.0417 9.78569 9.66695 9.89993L7.48029 10.5666C7.29999 10.6178 7.14417 10.7323 7.04133 10.889C6.9385 11.0457 6.89553 11.2341 6.92029 11.4199C7.12816 12.7622 7.67163 14.0303 8.50029 15.1066C9.74561 16.6248 11.5113 17.6252 13.4536 17.9133C13.6354 17.9433 13.8219 17.9092 13.9813 17.8168C14.1406 17.7243 14.2629 17.5793 14.327 17.4066L15.1603 15.2333C15.2892 14.8999 15.5344 14.6245 15.8505 14.4579C16.1667 14.2912 16.5324 14.2446 16.8803 14.3266L21.547 15.4266C21.8649 15.5051 22.1476 15.6874 22.3505 15.9445C22.5533 16.2017 22.6647 16.5191 22.667 16.8466V19.9866C22.6674 20.2241 22.6062 20.4577 22.4893 20.6646C22.3725 20.8714 22.204 21.0444 22.0003 21.1666C19.8734 22.4703 17.4283 23.1623 14.9336 23.1666ZM4.52029 3.25326C3.10788 5.58682 2.51965 8.32694 2.84987 11.0346C3.18008 13.7422 4.40961 16.2607 6.34146 18.1864C8.27331 20.1121 10.7957 21.3336 13.5043 21.6551C16.213 21.9767 18.9512 21.3798 21.2803 19.9599L21.247 16.8466L16.5803 15.6933C16.568 15.6909 16.5552 15.6929 16.5442 15.699C16.5332 15.7051 16.5248 15.7149 16.5203 15.7266L15.6603 17.8999C15.4769 18.3839 15.1297 18.7884 14.6791 19.0429C14.2284 19.2975 13.7028 19.3861 13.1936 19.2933C10.9109 18.9428 8.8407 17.7544 7.38695 15.9599C6.4092 14.6935 5.76712 13.2007 5.52029 11.6199C5.43776 11.0903 5.55139 10.5488 5.83986 10.0971C6.12833 9.64538 6.57178 9.3145 7.08695 9.1666L9.27362 8.49993C9.28274 8.5052 9.29309 8.50797 9.30362 8.50797C9.31415 8.50797 9.3245 8.5052 9.33362 8.49993L7.80029 3.3266L4.52029 3.25326Z" fill="#263954"/>
</svg>
