<svg width="110" height="32" viewBox="0 0 110 32" fill="none" xmlns="http://www.w3.org/2000/svg">
<rect width="109.607" height="32" rx="4" fill="url(#paint0_radial_1972_7280)"/>
<g clip-path="url(#clip0_1972_7280)">
<path d="M12 10C12 9.20435 12.3161 8.44129 12.8787 7.87868C13.4413 7.31607 14.2044 7 15 7H21C21.7957 7 22.5587 7.31607 23.1213 7.87868C23.6839 8.44129 24 9.20435 24 10V22C24 22.7956 23.6839 23.5587 23.1213 24.1213C22.5587 24.6839 21.7957 25 21 25H15C14.2044 25 13.4413 24.6839 12.8787 24.1213C12.3161 23.5587 12 22.7956 12 22V10ZM19.5 20.5C19.5 20.1022 19.342 19.7206 19.0607 19.4393C18.7794 19.158 18.3978 19 18 19C17.6022 19 17.2207 19.158 16.9394 19.4393C16.658 19.7206 16.5 20.1022 16.5 20.5C16.5 20.8978 16.658 21.2794 16.9394 21.5607C17.2207 21.842 17.6022 22 18 22C18.3978 22 18.7794 21.842 19.0607 21.5607C19.342 21.2794 19.5 20.8978 19.5 20.5ZM8.71051 11.101C8.8036 10.9252 8.82303 10.7195 8.76452 10.5294C8.70601 10.3392 8.57435 10.1801 8.39851 10.087C8.22267 9.99391 8.01706 9.97448 7.8269 10.033C7.63673 10.0915 7.4776 10.2232 7.38451 10.399C6.47249 12.1249 5.99714 14.0479 6.00001 16C6.00001 18.0205 6.50101 19.927 7.38451 21.601C7.43061 21.6881 7.4934 21.7652 7.5693 21.828C7.64521 21.8908 7.73274 21.938 7.8269 21.967C7.92105 21.996 8.02 22.0061 8.11808 21.9969C8.21615 21.9876 8.31145 21.9591 8.39851 21.913C8.48558 21.8669 8.56271 21.8041 8.62551 21.7282C8.68831 21.6523 8.73555 21.5648 8.76452 21.4706C8.79349 21.3765 8.80363 21.2775 8.79437 21.1794C8.7851 21.0814 8.75661 20.9861 8.71051 20.899C7.91288 19.3894 7.49726 17.7074 7.50001 16C7.50001 14.23 7.93801 12.562 8.71051 11.101ZM28.6155 10.399C28.5224 10.2232 28.3633 10.0915 28.1731 10.033C27.983 9.97448 27.7774 9.99391 27.6015 10.087C27.4257 10.1801 27.294 10.3392 27.2355 10.5294C27.177 10.7195 27.1964 10.9252 27.2895 11.101C28.062 12.562 28.5 14.2285 28.5 16C28.5 17.77 28.062 19.438 27.2895 20.899C27.1964 21.0748 27.177 21.2805 27.2355 21.4706C27.294 21.6608 27.4257 21.8199 27.6015 21.913C27.7774 22.0061 27.983 22.0255 28.1731 21.967C28.3633 21.9085 28.5224 21.7768 28.6155 21.601C29.5275 19.8751 30.0029 17.9521 30 16C30.0029 14.0479 29.5275 12.1249 28.6155 10.399V10.399ZM11.01 13.273C11.0519 13.1803 11.0744 13.08 11.0763 12.9784C11.0782 12.8767 11.0594 12.7756 11.0211 12.6814C10.9827 12.5872 10.9256 12.5018 10.8531 12.4304C10.7807 12.359 10.6945 12.303 10.5998 12.266C10.5051 12.2289 10.4038 12.2115 10.3022 12.2148C10.2005 12.218 10.1006 12.242 10.0085 12.2851C9.91635 12.3282 9.83396 12.3897 9.76632 12.4656C9.69868 12.5416 9.6472 12.6305 9.61501 12.727C9.20771 13.7701 8.99913 14.8802 9.00001 16C9.00001 17.1535 9.21751 18.2575 9.61501 19.273C9.6472 19.3695 9.69868 19.4584 9.76632 19.5344C9.83396 19.6103 9.91635 19.6718 10.0085 19.7149C10.1006 19.758 10.2005 19.782 10.3022 19.7852C10.4038 19.7885 10.5051 19.7711 10.5998 19.734C10.6945 19.697 10.7807 19.641 10.8531 19.5696C10.9256 19.4982 10.9827 19.4128 11.0211 19.3186C11.0594 19.2244 11.0782 19.1233 11.0763 19.0216C11.0744 18.92 11.0519 18.8197 11.01 18.727C10.6714 17.8578 10.4985 16.9329 10.5 16C10.5 15.037 10.68 14.1175 11.01 13.273ZM26.385 12.727C26.3059 12.5517 26.1625 12.4136 25.9844 12.3411C25.8063 12.2685 25.6072 12.2671 25.4281 12.3372C25.249 12.4073 25.1037 12.5435 25.0222 12.7176C24.9407 12.8918 24.9292 13.0906 24.99 13.273C25.32 14.1175 25.5 15.037 25.5 16C25.5 16.963 25.32 17.8825 24.99 18.727C24.9292 18.9094 24.9407 19.1082 25.0222 19.2824C25.1037 19.4565 25.249 19.5927 25.4281 19.6628C25.6072 19.7329 25.8063 19.7315 25.9844 19.659C26.1625 19.5864 26.3059 19.4483 26.385 19.273C26.784 18.2575 27 17.1535 27 16C27 14.8465 26.7825 13.7425 26.385 12.727V12.727Z" fill="white"/>
</g>
<path d="M43.832 5.75781V7.40181H40.4V9.17781H42.968V10.7738H40.4V14.1818H38.348V5.75781H43.832Z" fill="white"/>
<path d="M49.2065 14.1818L47.4545 11.0018H46.9625V14.1818H44.9105V5.75781H48.3545C49.0185 5.75781 49.5825 5.87381 50.0465 6.10581C50.5185 6.33781 50.8705 6.65781 51.1025 7.06581C51.3345 7.46581 51.4505 7.91381 51.4505 8.40981C51.4505 8.96981 51.2905 9.46981 50.9705 9.90981C50.6585 10.3498 50.1945 10.6618 49.5785 10.8458L51.5225 14.1818H49.2065ZM46.9625 9.54981H48.2345C48.6105 9.54981 48.8905 9.45781 49.0745 9.27381C49.2665 9.08981 49.3625 8.82981 49.3625 8.49381C49.3625 8.17381 49.2665 7.92181 49.0745 7.73781C48.8905 7.55381 48.6105 7.46181 48.2345 7.46181H46.9625V9.54981Z" fill="white"/>
<path d="M54.7906 7.40181V9.10581H57.5386V10.6898H54.7906V12.5378H57.8986V14.1818H52.7386V5.75781H57.8986V7.40181H54.7906Z" fill="white"/>
<path d="M61.2828 7.40181V9.10581H64.0308V10.6898H61.2828V12.5378H64.3908V14.1818H59.2308V5.75781H64.3908V7.40181H61.2828Z" fill="white"/>
<path d="M38 21.9578C38 21.1258 38.18 20.3858 38.54 19.7378C38.9 19.0818 39.4 18.5738 40.04 18.2138C40.688 17.8458 41.42 17.6618 42.236 17.6618C43.236 17.6618 44.092 17.9258 44.804 18.4538C45.516 18.9818 45.992 19.7018 46.232 20.6138H43.976C43.808 20.2618 43.568 19.9938 43.256 19.8098C42.952 19.6258 42.604 19.5338 42.212 19.5338C41.58 19.5338 41.068 19.7538 40.676 20.1938C40.284 20.6338 40.088 21.2218 40.088 21.9578C40.088 22.6938 40.284 23.2818 40.676 23.7218C41.068 24.1618 41.58 24.3818 42.212 24.3818C42.604 24.3818 42.952 24.2898 43.256 24.1058C43.568 23.9218 43.808 23.6538 43.976 23.3018H46.232C45.992 24.2138 45.516 24.9338 44.804 25.4618C44.092 25.9818 43.236 26.2418 42.236 26.2418C41.42 26.2418 40.688 26.0618 40.04 25.7018C39.4 25.3338 38.9 24.8258 38.54 24.1778C38.18 23.5298 38 22.7898 38 21.9578Z" fill="white"/>
<path d="M52.7326 24.6938H49.5886L49.0846 26.1818H46.9366L49.9846 17.7578H52.3606L55.4086 26.1818H53.2366L52.7326 24.6938ZM52.2046 23.1098L51.1606 20.0258L50.1286 23.1098H52.2046Z" fill="white"/>
<path d="M58.3883 24.5978H61.0763V26.1818H56.3363V17.7578H58.3883V24.5978Z" fill="white"/>
<path d="M64.107 24.5978H66.795V26.1818H62.055V17.7578H64.107V24.5978Z" fill="white"/>
<path d="M75.4168 21.8618C75.9048 21.9658 76.2968 22.2098 76.5928 22.5938C76.8888 22.9698 77.0368 23.4018 77.0368 23.8898C77.0368 24.5938 76.7888 25.1538 76.2928 25.5698C75.8048 25.9778 75.1207 26.1818 74.2407 26.1818H70.3167V17.7578H74.1087C74.9647 17.7578 75.6328 17.9538 76.1128 18.3458C76.6008 18.7378 76.8447 19.2698 76.8447 19.9418C76.8447 20.4378 76.7127 20.8498 76.4487 21.1778C76.1927 21.5058 75.8488 21.7338 75.4168 21.8618ZM72.3688 21.1658H73.7127C74.0487 21.1658 74.3048 21.0938 74.4808 20.9498C74.6648 20.7978 74.7568 20.5778 74.7568 20.2898C74.7568 20.0018 74.6648 19.7818 74.4808 19.6298C74.3048 19.4778 74.0487 19.4018 73.7127 19.4018H72.3688V21.1658ZM73.8807 24.5258C74.2247 24.5258 74.4887 24.4498 74.6727 24.2978C74.8647 24.1378 74.9608 23.9098 74.9608 23.6138C74.9608 23.3178 74.8608 23.0858 74.6608 22.9178C74.4688 22.7498 74.2008 22.6658 73.8568 22.6658H72.3688V24.5258H73.8807Z" fill="white"/>
<path d="M83.4709 24.6938H80.3269L79.8229 26.1818H77.6749L80.7229 17.7578H83.0989L86.1469 26.1818H83.9749L83.4709 24.6938ZM82.9429 23.1098L81.8989 20.0258L80.8669 23.1098H82.9429Z" fill="white"/>
<path d="M86.7266 21.9578C86.7266 21.1258 86.9066 20.3858 87.2666 19.7378C87.6266 19.0818 88.1266 18.5738 88.7666 18.2138C89.4146 17.8458 90.1466 17.6618 90.9626 17.6618C91.9626 17.6618 92.8186 17.9258 93.5306 18.4538C94.2426 18.9818 94.7186 19.7018 94.9586 20.6138H92.7026C92.5346 20.2618 92.2946 19.9938 91.9826 19.8098C91.6786 19.6258 91.3306 19.5338 90.9386 19.5338C90.3066 19.5338 89.7946 19.7538 89.4026 20.1938C89.0106 20.6338 88.8146 21.2218 88.8146 21.9578C88.8146 22.6938 89.0106 23.2818 89.4026 23.7218C89.7946 24.1618 90.3066 24.3818 90.9386 24.3818C91.3306 24.3818 91.6786 24.2898 91.9826 24.1058C92.2946 23.9218 92.5346 23.6538 92.7026 23.3018H94.9586C94.7186 24.2138 94.2426 24.9338 93.5306 25.4618C92.8186 25.9818 91.9626 26.2418 90.9626 26.2418C90.1466 26.2418 89.4146 26.0618 88.7666 25.7018C88.1266 25.3338 87.6266 24.8258 87.2666 24.1778C86.9066 23.5298 86.7266 22.7898 86.7266 21.9578Z" fill="white"/>
<path d="M101.099 26.1818L98.2672 22.4618V26.1818H96.2152V17.7578H98.2672V21.4538L101.075 17.7578H103.487L100.223 21.8858L103.607 26.1818H101.099Z" fill="white"/>
<defs>
<radialGradient id="paint0_radial_1972_7280" cx="0" cy="0" r="1" gradientUnits="userSpaceOnUse" gradientTransform="translate(54.8036 13.037) rotate(90) scale(18.963 64.9524)">
<stop stop-color="#FFAAAD"/>
<stop offset="1" stop-color="#FF666B"/>
</radialGradient>
<clipPath id="clip0_1972_7280">
<rect width="24" height="24" fill="white" transform="translate(6 4)"/>
</clipPath>
</defs>
</svg>
