<svg width="224" height="33" viewBox="0 0 224 33" fill="none" xmlns="http://www.w3.org/2000/svg">
<g clip-path="url(#clip0_1238_1057)">
<path d="M97.2971 29.3726C97.2971 27.54 97.2906 19.8084 97.2906 17.9755C97.2906 16.14 98.3174 16.0071 98.3174 16.0071L98.4233 15.9059H92.9239L93.0249 16.0071C93.0249 16.0071 94.0546 16.14 94.0546 17.9755C94.0546 19.8084 94.0627 22.4487 94.0627 22.4487H86.4971V17.9755C86.4971 16.14 87.5294 16.0137 87.5294 16.0137L87.6294 15.9075H82.1346L82.2411 16.0137C82.2411 16.0137 83.2672 16.14 83.2672 17.9755V29.3726C83.2672 31.2094 82.2411 31.3669 82.2411 31.3669L82.1346 31.4708H87.6294L87.5294 31.3669C87.5294 31.3669 86.4971 31.2094 86.4971 29.3726V23.9748H94.0627V29.3726C94.0627 31.2094 93.0369 31.3669 93.0369 31.3669L92.9304 31.4708H98.432L98.3255 31.3669C98.3255 31.3669 97.2971 31.2094 97.2971 29.3726ZM68.4344 15.9075C66.6202 15.9075 66.3662 15.7316 66.3662 15.7316L66.3581 18.8299L66.4646 18.751C66.4646 18.751 67.292 17.408 69.1 17.408H71.6811V29.3726C71.6811 31.2094 70.6589 31.3669 70.6589 31.3669L70.5523 31.4708H76.0498L75.9475 31.3669C75.9475 31.3669 74.9174 31.2094 74.9174 29.3726L74.9311 17.408H77.4524C79.265 17.408 80.1355 18.751 80.1355 18.751L80.2421 18.8299L80.2486 15.7316C80.2486 15.7316 79.9923 15.9075 78.1778 15.9075H68.4344ZM104.824 25.5296L107.2 20.4794L109.365 25.5296H104.824ZM114.668 29.3647L107.902 15.1244L101.182 29.3647C100.177 31.313 99.0684 31.3544 99.0684 31.3544L98.9638 31.4626H103.56L103.46 31.3544C103.46 31.3544 102.173 31.0976 102.987 29.3647L104.193 26.8519H109.957L111.124 29.3647C111.943 31.0976 110.657 31.3544 110.657 31.3544L110.553 31.4626H116.887L116.78 31.3544C116.78 31.3544 115.612 31.3462 114.668 29.3647ZM125.521 15.9075L125.628 16.0137C125.628 16.0137 126.987 16.3994 125.964 18.013C125.46 18.7967 123.948 20.99 122.568 23.1085C121.184 20.99 119.693 18.7842 119.193 18.0005C118.169 16.3846 119.533 16.0137 119.533 16.0137L119.635 15.9075H113.301L113.404 16.0137C113.404 16.0137 114.321 16.1672 115.522 18.0005C116.026 18.7754 118.598 22.4116 119.983 24.5341V29.3726C119.983 31.2094 118.955 31.3669 118.955 31.3669L118.853 31.4708H124.349L124.243 31.3669C124.243 31.3669 123.22 31.2094 123.22 29.3726C123.22 28.598 123.211 26.653 123.211 24.5341C124.596 22.4116 127.172 18.7888 127.68 18.013C128.872 16.1814 130.24 16.0137 130.24 16.0137L130.347 15.9075H125.521ZM44.6947 29.9907C41.3866 29.9907 39.105 27.7971 39.105 23.792C39.105 19.7916 41.3239 17.1756 44.8158 17.1756C48.439 17.1756 49.7432 20.028 49.7432 20.028L49.829 20.1026V16.735C49.829 16.735 47.6588 15.6613 44.5677 15.6613C38.9864 15.6613 35.4844 19.1406 35.4844 23.8131C35.4844 27.5729 38.376 31.7229 44.3406 31.7229C46.5914 31.7229 49.215 30.8195 49.215 30.8195L50.4208 26.649L50.2883 26.7358C50.2883 26.7358 48.3325 29.9907 44.6947 29.9907ZM56.3874 25.5296L58.7612 20.4794L60.9259 25.5296H56.3874ZM66.2311 29.3647L59.4661 15.1244L52.7457 29.3647C51.7406 31.313 50.6284 31.3544 50.6284 31.3544L50.5277 31.4626H55.1299L55.0195 31.3544C55.0195 31.3544 53.7335 31.0976 54.5524 29.3647L55.7565 26.8519H61.5181L62.6872 29.3647C63.5005 31.0976 62.2165 31.3544 62.2165 31.3544L62.1161 31.4626H68.451L68.3425 31.3544C68.3425 31.3544 67.1734 31.3462 66.2311 29.3647Z" fill="white"/>
<path d="M151.768 25.5297L154.139 20.4795L156.307 25.5297H151.768ZM161.607 29.3645L154.844 15.1245L148.126 29.3645C147.119 31.3131 146.012 31.3545 146.012 31.3545L145.906 31.4624H150.502L150.404 31.3545C150.404 31.3545 149.113 31.0977 149.929 29.3645L151.141 26.8517H156.897L158.068 29.3645C158.883 31.0977 157.596 31.3545 157.596 31.3545L157.494 31.4624H163.827L163.721 31.3545C163.721 31.3545 162.553 31.346 161.607 29.3645Z" fill="white"/>
<path d="M206.535 16.0068L206.638 15.9055H201.141L201.243 16.0068C201.243 16.0068 202.271 16.1629 202.271 17.9962V29.3933C202.271 31.2258 201.243 31.3794 201.243 31.3794L201.141 31.4872H206.638L206.535 31.3794C206.535 31.3794 205.507 31.2258 205.507 29.3933V17.9962C205.507 16.1629 206.535 16.0068 206.535 16.0068Z" fill="white"/>
<path d="M172.263 29.9915C168.957 29.9915 166.676 27.798 166.676 23.7929C166.676 19.7928 168.892 17.1764 172.39 17.1764C176.007 17.1764 177.314 20.0288 177.314 20.0288L177.4 20.1034V16.7359C177.4 16.7359 175.228 15.6621 172.14 15.6621C166.557 15.6621 163.055 19.1415 163.055 23.8139C163.055 27.5737 165.947 31.7241 171.911 31.7241C174.164 31.7241 176.785 30.8203 176.785 30.8203L177.99 26.6499L177.859 26.737C177.859 26.737 175.901 29.9915 172.263 29.9915Z" fill="white"/>
<path d="M188.336 15.9062L188.434 16.0141C188.434 16.0141 189.462 16.1676 189.462 18.0008V29.3936C189.462 31.2265 188.434 31.3797 188.434 31.3797L188.336 31.4879H193.829L193.722 31.3797C193.722 31.3797 192.698 31.2265 192.698 29.3936V29.3897V23.8799H195.943C197.753 23.8799 197.905 24.6837 197.905 24.6837L198.011 24.7922V21.4463L197.905 21.5542C197.905 21.5542 197.753 22.354 195.943 22.354H192.698V17.3752H196.598C198.413 17.3752 199.167 18.4282 199.167 18.4282L199.273 18.5111V15.7303C199.273 15.7303 199.011 15.9062 197.196 15.9062H188.336Z" fill="white"/>
<path d="M185.375 16.0068L185.477 15.9055H179.977L180.083 16.0068C180.083 16.0068 181.111 16.1629 181.111 17.9962V29.3933C181.111 31.2258 180.083 31.3794 180.083 31.3794L179.977 31.4872H185.477L185.375 31.3794C185.375 31.3794 184.343 31.2258 184.343 29.3933V17.9962C184.343 16.1629 185.375 16.0068 185.375 16.0068Z" fill="white"/>
<path d="M222.995 26.7347C222.995 26.7347 221.046 29.9892 217.399 29.9892C214.098 29.9892 211.808 27.7957 211.808 23.7909C211.808 19.7905 214.029 17.1745 217.523 17.1745C221.148 17.1745 222.45 20.0269 222.45 20.0269L222.541 20.1012V16.7336C222.541 16.7336 220.361 15.6559 217.276 15.6559C211.698 15.6559 208.191 19.1392 208.191 23.8117C208.191 27.5718 211.083 31.7218 217.052 31.7218C219.3 31.7218 221.922 30.8184 221.922 30.8184L223.13 26.6476L222.995 26.7347Z" fill="white"/>
<path d="M140.091 17.9963V17.3947H140.812C141.697 17.3947 142.614 17.3947 143.163 17.5781C144.614 18.0131 145.347 19.1322 145.347 20.8941C145.347 22.3328 144.441 24.4724 141.943 24.4724C141.221 24.4724 140.468 24.1821 140.091 24.0079V17.9963ZM143.016 25.965C146.408 25.965 148.431 23.3651 148.431 20.8569C148.431 19.4682 147.923 16.9972 144.494 16.1214C143.728 15.9241 142.876 15.9119 141.759 15.9119L135.725 15.906L135.827 16.0069C135.827 16.0069 136.855 16.1631 136.855 17.9963V29.3934C136.855 31.226 135.827 31.3795 135.827 31.3795L135.725 31.4873H141.218L141.115 31.3795C141.115 31.3795 140.091 31.226 140.091 29.3934V25.4219C140.57 25.6376 141.537 25.965 143.016 25.965Z" fill="white"/>
<path d="M10.2308 15.4187C10.1298 15.4322 10.0164 15.2836 9.96802 15.2145C9.9534 15.1935 9.89786 15.0751 9.91247 15.0571C9.93326 15.0393 10.0486 15.0791 10.0798 15.1044C10.1548 15.1652 10.2162 15.2494 10.2516 15.3944C10.2542 15.4105 10.2396 15.4177 10.2308 15.4187ZM7.78385 14.0451C7.71466 14.0707 7.54444 13.8761 7.49767 13.8048C7.40996 13.671 7.32388 13.5243 7.23066 13.3955C7.14555 13.2784 7.05102 13.1962 7.02894 12.9947C7.02634 12.971 7.01237 12.9105 7.02699 12.9115C7.12086 12.9191 7.21019 13.0851 7.25664 13.1492C7.2901 13.1956 7.32941 13.2419 7.36059 13.2906C7.40574 13.3613 7.42523 13.4471 7.47298 13.5128C7.53113 13.594 7.60291 13.6696 7.66528 13.7509C7.69874 13.7949 7.74389 13.8334 7.76468 13.8922C7.77443 13.9225 7.80334 14.0356 7.78385 14.0451ZM7.08286 14.0178C7.03056 14.0139 7.00847 13.9807 6.97599 13.9563C6.88926 13.8919 6.81877 13.7887 6.81617 13.6384C6.81487 13.6223 6.82072 13.6184 6.83014 13.6184C6.93246 13.6177 7.03771 13.7775 7.07701 13.8515C7.08838 13.8745 7.11437 13.934 7.11112 13.9767C7.10949 14.0047 7.09845 14.0172 7.08286 14.0178ZM4.75316 14.4952C4.74991 14.506 4.74049 14.5205 4.72392 14.5215C4.61348 14.5192 4.58002 14.3502 4.53097 14.2739C4.49167 14.2108 4.45756 14.1414 4.41566 14.0773C4.38642 14.0329 4.34972 13.9863 4.32535 13.9356C4.29579 13.8702 4.28248 13.8018 4.2448 13.7439C4.22531 13.7134 4.19347 13.6867 4.17203 13.6581C4.11291 13.5759 4.05639 13.4888 4.01839 13.3849C4.00962 13.3481 3.99922 13.3113 3.99045 13.2741C3.96771 13.2113 3.93978 13.1443 3.91866 13.0775C3.90859 13.044 3.90242 12.9759 3.90859 12.9526C3.91249 12.9418 3.91704 12.9352 3.92451 12.9368C4.00962 12.9503 4.09147 13.1594 4.13338 13.235C4.17821 13.3165 4.25064 13.383 4.2906 13.4675C4.326 13.5434 4.33737 13.6401 4.37798 13.7147C4.40981 13.7716 4.46308 13.8176 4.49752 13.8718C4.54364 13.9429 4.57483 14.0352 4.61088 14.1138C4.65084 14.2023 4.70866 14.2706 4.74276 14.3561C4.75738 14.3929 4.76388 14.4557 4.75316 14.4952ZM4.32048 11.2805C4.30002 11.2423 4.27598 11.196 4.26071 11.1542C4.2435 11.1069 4.24122 11.0628 4.22141 11.0181C4.15612 10.8708 4.08303 10.7084 4.01709 10.5638C3.98915 10.5029 3.95245 10.3892 3.97843 10.3119C3.98233 10.3008 4.00442 10.309 4.01384 10.3182C4.03625 10.3382 4.05152 10.3511 4.07036 10.3731C4.08433 10.3941 4.08823 10.4171 4.10219 10.4385C4.13435 10.4888 4.17626 10.5391 4.20159 10.5953C4.25616 10.714 4.27013 10.8478 4.32406 10.9636C4.35979 11.0405 4.41858 11.1069 4.45626 11.1858C4.4751 11.2269 4.48712 11.2719 4.49979 11.317C4.50888 11.3502 4.50694 11.3962 4.50888 11.4225C4.51083 11.462 4.50629 11.4873 4.49102 11.4879C4.38902 11.4823 4.35914 11.3554 4.32048 11.2805ZM26.4617 21.2077C26.3321 20.7273 24.9422 20.9335 23.7984 20.8279C22.7577 20.7319 21.4236 20.5429 19.8186 19.979C18.3185 19.452 16.8652 18.8481 15.5993 18.1554C15.5993 18.1554 15.0867 17.8825 15.0328 17.8516C14.9276 17.7868 14.8451 17.7401 14.7411 17.6747C14.6794 17.6372 14.5849 17.5804 14.5147 17.5494C14.4263 17.512 14.3666 17.4636 14.2899 17.4156C14.212 17.3673 14.1054 17.3157 14.0268 17.2667C13.9099 17.194 13.8371 17.1372 13.728 17.057C13.6594 17.0073 13.6256 16.9925 13.5344 16.9363C13.4804 16.9031 13.3807 16.8488 13.332 16.816C13.2303 16.7482 13.1657 16.6914 13.0643 16.62C13.0013 16.576 12.9558 16.5483 12.8808 16.502C12.8074 16.456 12.7382 16.3974 12.6736 16.3498C12.6378 16.3228 12.5852 16.2919 12.5521 16.2584C12.478 16.1857 12.4043 16.12 12.327 16.0562C12.2545 16.0026 12.1879 15.9362 12.1171 15.8829C12.0726 15.8497 11.9966 15.784 11.9521 15.7517C11.8378 15.6682 11.7656 15.6058 11.652 15.5219C11.5782 15.467 11.5168 15.3944 11.4437 15.3398C11.3612 15.2777 11.2865 15.2073 11.2014 15.1465C11.1468 15.107 11.0841 15.0577 11.0429 15.0143C10.9877 14.9486 10.9357 14.9038 10.8798 14.8378C10.8386 14.7904 10.7561 14.7401 10.7106 14.6911C10.6401 14.6004 10.5404 14.5047 10.4465 14.433C10.3919 14.3808 10.3741 14.3568 10.3533 14.3292C10.3361 14.3052 10.3166 14.2789 10.2708 14.2312C10.225 14.1842 10.2107 14.1704 10.1902 14.1516C10.1704 14.1335 10.1464 14.1105 10.0856 14.0497C10.0651 14.0293 10.033 13.984 10.0012 13.9399C9.97257 13.8998 9.94593 13.8623 9.92742 13.8419C9.87284 13.7818 9.83484 13.7413 9.79553 13.6992C9.76695 13.6693 9.73771 13.6378 9.70101 13.598C9.67957 13.5746 9.66105 13.5464 9.64319 13.5191C9.6263 13.4931 9.60843 13.4661 9.58797 13.4435C9.55451 13.4063 9.52982 13.4191 9.52268 13.4241C9.50254 13.4379 9.49474 13.4773 9.51845 13.5253C9.54639 13.5806 9.58927 13.643 9.61525 13.6805C9.6211 13.6881 9.62565 13.695 9.62922 13.6999C9.64026 13.717 9.65033 13.7351 9.65975 13.7528C9.67502 13.7795 9.69029 13.8074 9.70945 13.8334C9.75168 13.8912 9.79748 13.9389 9.84199 13.9856C9.8566 14.0004 9.87187 14.0158 9.88584 14.0316C9.91605 14.0638 9.93911 14.0974 9.96315 14.1332C9.98784 14.169 10.0132 14.2065 10.0463 14.242C10.0616 14.2575 10.0749 14.2756 10.0869 14.293C10.1015 14.313 10.1158 14.3331 10.133 14.3502C10.1584 14.3749 10.1837 14.4018 10.2094 14.4278C10.2509 14.4718 10.2948 14.5172 10.3367 14.553C10.3685 14.5803 10.402 14.6152 10.4351 14.6484C10.5209 14.7503 10.6128 14.8529 10.6888 14.9505C10.7327 15.0071 10.8119 15.0482 10.8613 15.086C10.9159 15.1271 10.9591 15.1997 11.0023 15.2553C11.0354 15.2941 11.1075 15.3608 11.1426 15.4019C11.228 15.5127 11.2865 15.5722 11.3976 15.6557C11.4655 15.7064 11.5181 15.7527 11.5701 15.8195C11.6006 15.8596 11.6984 15.9549 11.7338 15.9996C11.8264 16.1186 11.8683 16.2294 11.855 16.2324C11.7916 16.2495 11.638 16.1124 11.548 16.0529C11.4723 16.0019 11.4609 15.9815 11.3905 15.9286C11.3745 15.9148 11.2625 15.8343 11.2232 15.7853C11.1926 15.7573 11.1082 15.6656 11.0828 15.6331C10.9552 15.4687 10.9117 15.4585 10.7652 15.3138C10.6583 15.2083 10.5264 15.1136 10.4218 15.0192C10.3913 14.9857 10.3601 14.9522 10.3299 14.918C10.2948 14.8835 10.2516 14.8509 10.222 14.8167C10.173 14.7546 10.1077 14.6329 10.0499 14.5892C9.98848 14.5429 9.94398 14.4991 9.88259 14.4524C9.86083 14.4373 9.84069 14.4084 9.81892 14.3913C9.78936 14.3693 9.75428 14.3436 9.73154 14.315C9.6604 14.223 9.58992 14.1299 9.51845 14.0369C9.48467 13.9928 9.43789 13.956 9.40476 13.9103C9.33427 13.8127 9.2771 13.7111 9.20629 13.617C9.10786 13.4869 8.96624 13.3941 8.87106 13.2623C8.77361 13.1275 8.71514 12.9694 8.62256 12.828C8.58261 12.7668 8.52024 12.7235 8.47801 12.6656C8.4517 12.6307 8.43838 12.5919 8.41435 12.5548C8.36562 12.4792 8.3078 12.4055 8.25778 12.3322C8.19249 12.2356 8.14798 12.13 8.08334 12.0288C8.0723 12.0143 8.04956 11.9459 8.00961 11.8953C7.9703 11.8447 7.93619 11.7874 7.89169 11.7154C7.84654 11.6438 7.82445 11.5961 7.79262 11.5468C7.76046 11.4971 7.73934 11.4505 7.71726 11.4156C7.69614 11.3808 7.64937 11.316 7.6328 11.2903C7.57303 11.197 7.55744 11.1536 7.49377 11.0678C7.45577 11.0152 7.41516 10.9718 7.38105 10.9849C7.35377 11.004 7.36319 11.0365 7.36936 11.0599C7.3973 11.1365 7.3973 11.123 7.42653 11.1776C7.47558 11.269 7.49312 11.3127 7.54639 11.3952C7.57108 11.4357 7.61363 11.5267 7.64872 11.5767C7.68282 11.6277 7.71726 11.6862 7.74064 11.7283C7.76533 11.7727 7.80269 11.889 7.84037 11.9374C7.867 11.9725 7.90436 12.0442 7.9297 12.0948C7.98102 12.1981 8.04631 12.2793 8.09926 12.3611C8.13532 12.4282 8.17007 12.4959 8.2058 12.563C8.27597 12.6705 8.35977 12.7721 8.43026 12.8816C8.47347 12.9588 8.51537 13.0364 8.55792 13.114C8.59918 13.1775 8.65667 13.2311 8.69793 13.2965C8.74762 13.3738 8.77588 13.4582 8.82558 13.5339C8.86489 13.5937 8.91621 13.6506 8.95552 13.7104C9.02276 13.8127 9.08383 13.9113 9.15464 14.0089C9.19362 14.0619 9.24559 14.1076 9.28425 14.1608C9.33817 14.2341 9.38072 14.3213 9.43659 14.3831C9.50319 14.4459 9.52203 14.4833 9.57367 14.5452C9.65163 14.6395 9.84458 14.9163 9.8121 14.918C9.69841 14.9331 9.48077 14.6826 9.38819 14.5918C9.31673 14.5205 9.2378 14.4689 9.18777 14.4015C9.11533 14.3015 9.06206 14.1904 8.98865 14.0931C8.96266 14.0583 8.92271 14.0303 8.89607 13.9968C8.84572 13.931 8.79895 13.8616 8.74048 13.8044C8.71644 13.7808 8.69045 13.7601 8.66804 13.7338C8.57936 13.6177 8.50465 13.4944 8.4176 13.3744C8.38154 13.3251 8.33379 13.2817 8.29838 13.2324C8.27045 13.1942 8.25518 13.1522 8.22984 13.1114C8.19476 13.0568 8.14993 13.0032 8.11485 12.9496C8.08821 12.9092 8.0723 12.8691 8.04566 12.8283C7.99889 12.7563 7.93619 12.6935 7.88974 12.6205C7.85174 12.5614 7.84167 12.4831 7.80334 12.4246C7.70686 12.2737 7.59967 12.1202 7.50449 11.9696C7.4798 11.9308 7.47038 11.8871 7.44635 11.8483C7.36871 11.726 7.29595 11.5908 7.21929 11.4692C7.1907 11.4238 7.17868 11.3725 7.1501 11.3282C7.11437 11.2729 7.06044 11.2305 7.02504 11.1759C6.9984 11.1339 6.98768 11.0878 6.96592 11.0398C6.93668 10.9764 6.89803 10.9129 6.86522 10.8528C6.84476 10.8156 6.83404 10.7775 6.81195 10.7416C6.71905 10.596 6.64303 10.4392 6.56702 10.2774C6.52772 10.1932 6.4686 10.114 6.42929 10.0292C6.38479 9.93549 6.34224 9.83916 6.30034 9.74711C6.27825 9.68464 6.25616 9.62283 6.2344 9.5607C6.18892 9.46239 6.12038 9.37889 6.07588 9.27763C6.04534 9.20891 6.02943 9.14415 6.00149 9.08661C5.9846 9.05143 5.95082 9.02217 5.92613 9.03795C5.90209 9.05308 5.89819 9.08464 5.91346 9.13823C5.94335 9.24146 5.99987 9.35916 6.02585 9.41801C6.07848 9.53505 6.10446 9.6567 6.15773 9.77604C6.18632 9.84179 6.22887 9.90492 6.25811 9.96837C6.31008 10.0795 6.35881 10.1946 6.40883 10.3011C6.43807 10.3639 6.46113 10.424 6.49459 10.4829C6.51245 10.5141 6.53779 10.549 6.55306 10.5835C6.58586 10.6591 6.59658 10.739 6.62972 10.8107C6.66512 10.886 6.72229 10.9491 6.75673 11.0227C6.93311 11.4028 7.11177 11.7661 7.32518 12.1037C7.38463 12.1974 7.41516 12.3128 7.47493 12.4065C7.53632 12.5032 7.62143 12.5788 7.68282 12.6748C7.73382 12.7534 7.74584 12.8625 7.79197 12.947C7.86051 13.0749 7.95179 13.1824 8.02747 13.3011C8.04826 13.3343 8.05411 13.3728 8.07555 13.407C8.10413 13.453 8.14019 13.498 8.17007 13.5434C8.20873 13.6055 8.22854 13.6775 8.2711 13.7351C8.31592 13.7975 8.38089 13.8495 8.42572 13.9126C8.48224 13.9909 8.52024 14.0816 8.57871 14.1602C8.61932 14.2151 8.68201 14.2526 8.72261 14.3071C8.78888 14.3943 9.01204 14.6924 9.07733 14.7769C9.17705 14.9045 9.35279 15.0926 9.43594 15.2609C9.46128 15.3132 9.54996 15.4358 9.53112 15.4601C9.48337 15.4927 9.26151 15.2468 9.22383 15.2099C9.1306 15.1192 9.05004 14.9959 8.96949 14.8923C8.95065 14.8697 8.73658 14.6573 8.71904 14.6339C8.69793 14.6063 8.67519 14.5761 8.65667 14.5481C8.59788 14.4587 8.5615 14.3505 8.4975 14.265C8.47152 14.2305 8.43091 14.2039 8.40493 14.169C8.35555 14.104 8.32112 14.028 8.27369 13.9613C8.19736 13.8564 8.10023 13.7627 8.02422 13.6581C7.94107 13.5431 7.8826 13.4083 7.79846 13.2942C7.75656 13.238 7.70329 13.1873 7.66333 13.1272C7.64612 13.0999 7.63865 13.0736 7.62143 13.046C7.5909 12.9993 7.55029 12.9464 7.52625 12.8947C7.50384 12.8471 7.48955 12.8017 7.46226 12.7583C7.37456 12.6196 7.28653 12.4723 7.19882 12.3339C7.15952 12.2717 7.13743 12.204 7.0978 12.1419C7.03251 12.0393 6.95 11.9472 6.88406 11.8433C6.8061 11.7214 6.7642 11.5731 6.68689 11.4501C6.63556 11.3696 6.57579 11.293 6.52512 11.2121C6.4686 11.1243 6.44066 11.0217 6.39064 10.9297C6.34744 10.8488 6.28637 10.7739 6.24836 10.692C6.20646 10.6042 6.17722 10.5161 6.135 10.425C6.11193 10.3764 6.07718 10.3284 6.05509 10.2781C6.02813 10.2156 6.02131 10.1522 5.99402 10.092C5.91736 9.92234 5.80237 9.76092 5.72376 9.59193C5.66724 9.47094 5.61786 9.34601 5.57141 9.21845C5.54608 9.14809 5.53471 9.08234 5.50417 9.01658C5.43433 8.8614 5.34825 8.69702 5.27971 8.5425C5.25113 8.45998 5.22189 8.37746 5.19201 8.29494C5.18649 8.27192 5.18389 8.24858 5.17512 8.22425C5.14328 8.15159 5.10073 8.07992 5.07279 8.00759C5.04681 7.9231 5.02082 7.83959 4.99418 7.75575C4.88569 7.48189 4.78857 7.17318 4.68657 6.88846C4.6726 6.83619 4.67 6.77208 4.65084 6.71652C4.59821 6.57087 4.54494 6.42424 4.49232 6.27794C4.46308 6.20397 4.39259 6.22928 4.40851 6.30424C4.43028 6.40583 4.44359 6.42983 4.45983 6.50873C4.46828 6.5495 4.47575 6.58961 4.4842 6.62972C4.49492 6.67805 4.5196 6.72967 4.53357 6.77602C4.56086 6.86315 4.56281 6.94961 4.59269 7.03312C4.63395 7.15148 4.67552 7.26457 4.71385 7.38622C4.72522 7.44638 4.73789 7.50721 4.74991 7.5677C4.76713 7.62392 4.78922 7.68211 4.80968 7.73373C4.86977 7.88266 4.92629 8.026 4.97892 8.17296C4.99971 8.2568 5.02147 8.34096 5.04226 8.4248C5.06337 8.47181 5.09553 8.52014 5.11665 8.56584C5.13484 8.60628 5.13874 8.64442 5.15595 8.68716C5.19331 8.78184 5.22774 8.87883 5.26964 8.97417C5.30505 9.0534 5.34695 9.13264 5.37814 9.2168C5.3921 9.25757 5.3921 9.29275 5.4064 9.33253C5.4967 9.58272 5.59512 9.84508 5.70102 10.0795C5.72701 10.139 5.73448 10.2005 5.76111 10.2606C5.78353 10.3106 5.81374 10.3639 5.83615 10.4122C5.84687 10.4441 5.85824 10.4763 5.86896 10.5079C5.90209 10.5782 5.95796 10.6361 5.99012 10.7051C6.08172 10.8998 6.16293 11.0839 6.27695 11.2506C6.38284 11.4041 6.42865 11.6073 6.5092 11.7904C6.54721 11.8769 6.59853 11.9518 6.64693 12.0278C6.67032 12.0682 6.68624 12.1119 6.70573 12.154C6.75803 12.2494 6.78629 12.3332 6.848 12.417C6.89738 12.4864 6.89316 12.5019 6.93506 12.5992C6.94708 12.6281 6.99385 12.8099 6.98508 12.8099C6.96852 12.8214 6.87984 12.7668 6.84995 12.7333C6.80935 12.6876 6.74536 12.6265 6.70215 12.5272C6.68039 12.4782 6.63556 12.3924 6.6125 12.3444C6.55663 12.2231 6.4621 12.1208 6.39259 12.011C6.35198 11.9462 6.32957 11.8749 6.29611 11.8039C6.23699 11.677 6.1704 11.5468 6.10901 11.415C6.08335 11.3607 6.04469 11.3071 6.01448 11.2585C5.982 11.2078 5.96673 11.1529 5.9336 11.1016C5.86344 10.9902 5.7845 10.8643 5.72831 10.7433C5.6864 10.6542 5.66529 10.5631 5.62403 10.476C5.61137 10.448 5.58798 10.4204 5.57141 10.3951C5.54283 10.3497 5.53146 10.2991 5.50742 10.2488C5.47559 10.1808 5.42816 10.1166 5.39633 10.0466C5.33428 9.90886 5.29693 9.76519 5.23261 9.62809C5.20273 9.56431 5.15205 9.51006 5.12217 9.44595C5.07669 9.34831 5.07214 9.22667 5.02667 9.12343C4.90843 8.85351 4.772 8.57472 4.67 8.29099C4.65408 8.24398 4.64954 8.19039 4.63492 8.13976C4.59139 8.01713 4.53162 7.90239 4.48842 7.7814C4.46893 7.72617 4.46308 7.67553 4.44359 7.61997C4.41371 7.53778 4.3757 7.45131 4.34517 7.36814C4.33737 7.33986 4.33445 7.3106 4.32308 7.28266C4.288 7.20474 4.26591 7.11203 4.22953 7.03016C4.21069 6.98808 4.18145 6.94435 4.16489 6.89898C4.1363 6.81811 4.14475 6.71553 4.11616 6.63728C4.07556 6.52156 4.02651 6.39827 3.98525 6.28419C3.96122 6.21876 3.95699 6.15399 3.93393 6.08758C3.90729 6.01098 3.87806 5.92649 3.85077 5.85054C3.82219 5.77065 3.82349 5.68747 3.7975 5.60363C3.77866 5.54084 3.75267 5.47541 3.73156 5.41722C3.69226 5.30643 3.67699 5.1884 3.63573 5.08451C3.62891 5.06577 3.62242 5.04571 3.6156 5.0273C3.60488 4.99903 3.58636 4.97141 3.55777 4.9793C3.52594 4.98818 3.52659 5.02993 3.52854 5.05689C3.53439 5.13875 3.56427 5.21437 3.58766 5.28013C3.613 5.34982 3.62567 5.42478 3.64483 5.49185C3.65555 5.53393 3.6536 5.58194 3.66432 5.62796C3.67894 5.69273 3.70233 5.75553 3.72084 5.81964C3.73546 5.88374 3.72766 5.94555 3.74163 5.99553C3.78288 6.13427 3.82869 6.29076 3.87514 6.42424C3.89463 6.49262 3.89787 6.5712 3.91736 6.63071C3.94303 6.70106 3.96836 6.77175 3.9937 6.84243C4.01514 6.90161 4.02099 6.95849 4.04502 7.01405C4.07036 7.07257 4.10025 7.13471 4.12103 7.20079C4.14767 7.28693 4.1454 7.37175 4.17431 7.45197C4.22141 7.58348 4.28118 7.70874 4.32665 7.83597C4.34127 7.88134 4.34582 7.93 4.36174 7.97669C4.40039 8.08715 4.42768 8.20485 4.46698 8.31466C4.5235 8.47116 4.59626 8.6237 4.65149 8.77855C4.70671 8.93143 4.71385 9.11489 4.7772 9.25757C4.80968 9.32826 4.87692 9.37067 4.90778 9.43938C4.92824 9.48343 4.9224 9.53439 4.93766 9.58568C4.95553 9.6442 4.98347 9.70207 5.0036 9.75664C5.01627 9.80596 5.02959 9.85461 5.04356 9.90327C5.06272 9.96146 5.10333 10.019 5.12867 10.0749C5.16992 10.166 5.19071 10.2616 5.24236 10.3422C5.28101 10.403 5.33104 10.4609 5.36287 10.5296C5.39828 10.6059 5.41094 10.6871 5.44538 10.7666C5.4967 10.882 5.55809 10.9938 5.6013 11.1145C5.64125 11.2236 5.65522 11.3413 5.70719 11.4373C5.75852 11.5326 5.82348 11.6185 5.87546 11.7148C5.90761 11.7855 5.9401 11.8562 5.97258 11.9268C5.99987 11.9847 6.05054 12.0353 6.08237 12.0939C6.12233 12.1659 6.16163 12.2428 6.19379 12.3158C6.21913 12.3717 6.22887 12.4246 6.25973 12.4723C6.30683 12.5472 6.34094 12.6074 6.38869 12.682C6.43059 12.7488 6.47802 12.8326 6.5079 12.9118C6.52999 12.9713 6.55436 13.0338 6.58781 13.0835C6.62354 13.1347 6.67162 13.1791 6.7028 13.235C6.73301 13.2902 6.77557 13.4698 6.759 13.4786C6.72099 13.4924 6.6125 13.3872 6.58294 13.3501C6.49718 13.2452 6.45463 13.1042 6.37667 12.9914C6.29416 12.8714 6.24024 12.8033 6.17625 12.6649C6.13857 12.585 6.07328 12.4414 6.02715 12.37C5.98395 12.303 5.92613 12.2434 5.89137 12.1678C5.86474 12.106 5.85077 12.0324 5.82478 11.9712C5.78353 11.8821 5.69972 11.8246 5.65782 11.7335C5.60942 11.6313 5.58798 11.5257 5.53795 11.4304C5.51392 11.3844 5.48013 11.3321 5.4587 11.2844C5.42946 11.2233 5.41614 11.1638 5.38756 11.1026C5.33039 10.979 5.24333 10.8728 5.18649 10.7492C5.12737 10.6216 5.09423 10.4845 5.03349 10.3557C5.00166 10.2869 4.94546 10.2284 4.91298 10.1584C4.86912 10.066 4.84704 9.96968 4.80383 9.87631C4.77785 9.81977 4.73919 9.76453 4.7132 9.70963C4.67552 9.62842 4.66221 9.5413 4.6255 9.45713C4.54169 9.26842 4.45496 9.07083 4.37181 8.88212C4.34062 8.80979 4.3325 8.73318 4.30002 8.6602C4.26786 8.59609 4.23603 8.53231 4.20419 8.4682C4.13078 8.30151 4.10544 8.10688 4.03171 7.93888C3.99435 7.85406 3.94725 7.77318 3.91379 7.68178C3.86182 7.53778 3.84135 7.39016 3.78938 7.2432C3.71012 7.01865 3.64613 6.78523 3.56655 6.56265C3.54316 6.49493 3.53991 6.42983 3.51587 6.36079C3.49183 6.29536 3.4678 6.22994 3.44408 6.16451C3.42784 6.11224 3.41745 6.03629 3.40283 5.96758C3.34404 5.77854 3.28362 5.58983 3.22417 5.39782C3.2115 5.35278 3.20826 5.27092 3.19299 5.21174C3.18357 5.17919 3.1657 5.14073 3.15498 5.11081C3.13907 5.06741 3.13972 5.03026 3.12575 4.98489C3.0819 4.84615 3.04454 4.68505 3.00134 4.54664C2.98867 4.50226 2.98477 4.44012 2.9708 4.39015C2.90941 4.19256 2.87952 3.95091 2.80156 3.76647C2.78695 3.73162 2.76486 3.69382 2.73043 3.70204C2.69567 3.71091 2.70314 3.75135 2.70704 3.78456C2.71711 3.8753 2.75024 3.95256 2.76486 4.02686C2.77103 4.06039 2.77038 4.10708 2.77363 4.14719C2.77818 4.18105 2.78175 4.22281 2.79279 4.25831C2.82885 4.37535 2.87075 4.51442 2.90486 4.63114C2.91623 4.68703 2.90681 4.77316 2.92143 4.83727C2.97145 5.02533 3.00848 5.24856 3.07572 5.41722C3.13712 5.57076 3.14849 5.75421 3.19234 5.92057C3.20631 5.99191 3.21085 6.06523 3.21962 6.1369C3.23034 6.20692 3.269 6.25525 3.29011 6.3141C3.30603 6.35717 3.30473 6.39465 3.32 6.43969C3.3567 6.55936 3.38334 6.67739 3.42654 6.79772C3.45578 6.88024 3.49995 6.95882 3.52919 7.04002C3.54186 7.07685 3.53699 7.10972 3.54771 7.15082C3.5672 7.23301 3.58181 7.31619 3.60553 7.3974C3.66302 7.56079 3.71889 7.73866 3.77671 7.90173C3.80887 7.99247 3.81927 8.08124 3.85077 8.16902C3.97843 8.52113 4.10772 8.87357 4.23473 9.22272C4.25552 9.30031 4.27663 9.37757 4.29742 9.4545C4.32535 9.53439 4.37181 9.6008 4.40429 9.67182C4.44522 9.76256 4.45854 9.85823 4.49297 9.95423C4.53357 10.067 4.58555 10.1541 4.6281 10.2722C4.64824 10.328 4.66805 10.3892 4.69339 10.4434C4.7132 10.4845 4.74796 10.5233 4.76778 10.5648C4.80058 10.6345 4.80773 10.7219 4.83924 10.7919C4.87302 10.8616 4.93149 10.9188 4.97145 10.9836C5.00815 11.0444 5.01205 11.122 5.04226 11.1907C5.09001 11.2982 5.15205 11.3956 5.19785 11.5086C5.21669 11.5563 5.22579 11.5987 5.24658 11.6444C5.27062 11.697 5.3096 11.747 5.33363 11.7999C5.33428 11.7999 5.33558 11.8013 5.33688 11.8065C5.33981 11.8137 5.34305 11.8236 5.345 11.8351C5.35085 11.8575 5.35767 11.8848 5.36482 11.9045C5.37554 11.9344 5.409 11.9906 5.42296 12.01C5.43141 12.0212 5.45545 12.0485 5.47559 12.0738C5.48468 12.0833 5.49345 12.0942 5.50157 12.107C5.54737 12.1797 5.55257 12.2832 5.58993 12.3641C5.62728 12.443 5.69387 12.5051 5.73123 12.5864C5.76111 12.6485 5.77703 12.802 5.73968 12.8079C5.58213 12.8076 5.57141 12.5854 5.51944 12.4687C5.47754 12.3782 5.41289 12.303 5.36579 12.2162C5.35637 12.1987 5.34111 12.1645 5.33104 12.1284C5.32097 12.0981 5.3083 12.0653 5.29628 12.0399C5.27581 11.9965 5.27581 12.0038 5.26185 11.9735C5.24723 11.9436 5.20403 11.8874 5.18941 11.8611C5.18908 11.8588 5.18843 11.8575 5.18778 11.8555C5.12802 11.7579 5.08741 11.6181 5.04486 11.5527C5.02082 11.5159 4.98964 11.4787 4.96625 11.4413C4.92629 11.3791 4.90713 11.3035 4.87497 11.2345C4.84509 11.1713 4.79799 11.1085 4.76908 11.0421C4.73399 10.9642 4.73204 10.8653 4.69534 10.7857C4.67682 10.7429 4.64142 10.6996 4.6216 10.6591C4.57742 10.5684 4.55209 10.4711 4.50759 10.3816C4.48712 10.3392 4.44977 10.2988 4.42898 10.2554C4.39389 10.1798 4.3757 10.0986 4.33672 10.0282C4.25389 9.87894 4.16554 9.71226 4.09635 9.55379C4.05639 9.46075 4.04308 9.36672 4.00312 9.27631C3.96836 9.19708 3.92061 9.11949 3.88586 9.0442C3.86247 8.99357 3.85597 8.9436 3.83583 8.88803C3.804 8.79992 3.76404 8.70853 3.73156 8.62075C3.71272 8.55992 3.69745 8.42677 3.67894 8.37384C3.6549 8.30743 3.62047 8.23576 3.59221 8.17165C3.54965 8.07367 3.53569 7.97176 3.49248 7.87444C3.46 7.79948 3.42329 7.71992 3.39536 7.64266C3.37197 7.5769 3.36547 7.51674 3.33884 7.45592C3.31935 7.40989 3.29206 7.35696 3.27485 7.30929C3.25438 7.25208 3.24009 7.15838 3.22222 7.08277C3.19429 6.9986 3.15921 6.91838 3.13387 6.83553C3.11925 6.77471 3.11698 6.63202 3.10171 6.59389C3.01595 6.33712 2.9354 6.06424 2.85549 5.8078C2.81878 5.68911 2.80156 5.57076 2.76843 5.4547C2.75706 5.409 2.75576 5.35015 2.74374 5.30347C2.72101 5.22949 2.68982 5.15322 2.66643 5.07695C2.65377 5.02599 2.64597 4.97273 2.6359 4.92045C2.62388 4.86752 2.59595 4.81295 2.57646 4.75936C2.52741 4.60516 2.50077 4.44111 2.45562 4.29086C2.44003 4.22839 2.44068 4.14686 2.42411 4.08932C2.36629 3.90291 2.35232 3.68593 2.29775 3.48998C2.28508 3.4331 2.27631 3.3759 2.26364 3.32395C2.16847 2.95803 2.12656 2.5474 2.02132 2.19529C2.00085 2.12822 2.02684 2.04175 2.00865 1.9691C1.98753 1.88723 1.96545 1.8149 1.94108 1.74192C1.93166 1.70476 1.93101 1.67518 1.92289 1.64131C1.90503 1.58181 1.87904 1.53512 1.84656 1.5417C1.80855 1.55452 1.817 1.5897 1.8183 1.64065C1.82122 1.72153 1.82902 1.78992 1.84558 1.85666C1.85955 1.91189 1.85046 1.95825 1.86572 2.00789C1.8995 2.1223 1.90957 2.28274 1.92841 2.38565C1.93556 2.42871 1.93036 2.48625 1.93881 2.53655C1.94888 2.5885 1.98883 2.65688 1.99955 2.7131C2.01092 2.78937 2.00962 2.88833 2.02229 2.96987C2.03691 3.03924 2.05672 3.10532 2.07459 3.17107C2.08986 3.22696 2.07816 3.28088 2.09473 3.3325C2.11195 3.38675 2.13988 3.43902 2.1506 3.49886C2.15937 3.56329 2.14995 3.65831 2.16262 3.71486C2.24448 4.03672 2.26851 4.41842 2.36174 4.72714C2.37344 4.77119 2.37506 4.81886 2.3861 4.86358C2.46341 5.13382 2.52253 5.42281 2.60309 5.68977C2.61251 5.73218 2.61121 5.77525 2.62193 5.82095C2.64792 5.91564 2.67196 6.0169 2.69177 6.1129C2.70119 6.15531 2.70054 6.1964 2.71159 6.23882C2.73952 6.33777 2.77428 6.43378 2.80546 6.53109C2.81748 6.57843 2.82235 6.62545 2.8308 6.67213C2.83827 6.70961 2.85874 6.75235 2.86945 6.78819C2.88602 6.84408 2.88082 6.898 2.89934 6.94961C2.91071 6.97953 2.9341 7.01307 2.94254 7.04529C2.95456 7.10249 2.96203 7.16035 2.97795 7.21657C3.00004 7.28463 3.03642 7.35104 3.06435 7.41844C3.08449 7.47433 3.08384 7.53121 3.10496 7.58479C3.14296 7.67981 3.18357 7.79192 3.21962 7.89219C3.25016 7.97537 3.25373 8.05954 3.28297 8.14436C3.30278 8.19959 3.32877 8.25746 3.34858 8.31072C3.35995 8.35444 3.36742 8.39685 3.38269 8.4419C3.39601 8.48233 3.43921 8.54611 3.4678 8.59872C3.49118 8.65691 3.48046 8.7368 3.49931 8.7996C3.51847 8.86469 3.55388 8.91664 3.57564 8.97614C3.59578 9.03631 3.59513 9.10042 3.61105 9.16256C3.62826 9.20957 3.66042 9.25593 3.68024 9.29932C3.69875 9.35127 3.71694 9.40322 3.73611 9.45516C3.75073 9.4887 3.77866 9.52322 3.79393 9.55642C3.82219 9.61659 3.8446 9.68135 3.86994 9.74283C3.9047 9.83094 3.90794 9.93944 3.93458 10.0404C3.94173 10.0686 3.94108 10.138 3.92321 10.1459C3.88326 10.1531 3.83811 10.0894 3.81082 10.0492C3.76404 9.98251 3.71889 9.90788 3.68413 9.827C3.67277 9.79576 3.66497 9.7665 3.65555 9.73626C3.62891 9.66919 3.6091 9.59324 3.57856 9.52453C3.56102 9.48343 3.53439 9.43774 3.51977 9.39335C3.49801 9.32891 3.5084 9.2533 3.48306 9.19708C3.46195 9.15006 3.42459 9.11291 3.40348 9.06557C3.38789 9.02283 3.38074 8.97746 3.36223 8.93505C3.33949 8.8831 3.3083 8.83675 3.28004 8.78809C3.25893 8.74075 3.26153 8.69275 3.24496 8.63653C3.22677 8.57077 3.20696 8.50568 3.17902 8.44518C3.15108 8.38436 3.11568 8.32157 3.08904 8.25844C3.07637 8.22359 3.06988 8.18776 3.05981 8.15258C3.04324 8.10524 3.0192 8.05362 3.00004 8.00628C2.98932 7.97143 2.9812 7.93395 2.96658 7.90074C2.94352 7.8488 2.91688 7.79093 2.89609 7.73373C2.88017 7.68704 2.87758 7.63806 2.86166 7.59269C2.8334 7.51181 2.80546 7.42041 2.77883 7.34085C2.76096 7.27904 2.75446 7.21657 2.73757 7.15411C2.71451 7.08178 2.68235 7.01011 2.65571 6.93712C2.6359 6.8786 2.63135 6.8158 2.61446 6.7563C2.58718 6.67838 2.54852 6.60605 2.52253 6.52386C2.50727 6.45975 2.50467 6.39465 2.4907 6.33251C2.44555 6.18095 2.39812 6.01361 2.35037 5.85876C2.29645 5.6855 2.29223 5.48988 2.24188 5.31498C2.20712 5.19004 2.16327 5.06938 2.12526 4.94675C2.1113 4.88297 2.10935 4.82314 2.09343 4.76034C2.05997 4.62259 2.00897 4.44078 1.96415 4.29678C1.94076 4.2205 1.94758 4.14291 1.92614 4.06039C1.90373 3.97886 1.90243 3.88056 1.87644 3.79343C1.85988 3.73919 1.83974 3.70039 1.82707 3.63201C1.81375 3.56329 1.81505 3.48209 1.80498 3.43047C1.79458 3.37951 1.70655 3.07376 1.69648 3.01721C1.68609 2.96066 1.68674 2.85776 1.67992 2.82126C1.67537 2.79595 1.62957 2.66411 1.62405 2.63025C1.61755 2.5954 1.61755 2.55628 1.60423 2.48888C1.59026 2.42115 1.55161 2.27025 1.54544 2.22685C1.53829 2.18312 1.53829 2.09468 1.52952 2.05063C1.52075 2.0069 1.49152 1.9063 1.4717 1.8343C1.44896 1.7475 1.46715 1.65413 1.44311 1.57227C1.42557 1.51178 1.40446 1.45161 1.38302 1.39408C1.36905 1.34312 1.35184 1.27506 1.34859 1.24416C1.34502 1.19846 1.34177 1.10147 1.33982 1.06662C1.33852 1.01632 1.31773 0.934131 1.31253 0.862459C1.30669 0.764486 1.2859 0.659609 1.27063 0.600102C1.26186 0.564266 1.26478 0.521526 1.25731 0.489307C1.23327 0.391991 1.20989 0.303552 1.16149 0.309487C1.12673 0.316046 1.11406 0.343662 1.129 0.407772C1.14622 0.482403 1.15401 0.540923 1.1722 0.614568C1.18195 0.654349 1.18357 0.75265 1.18487 0.785199C1.18747 0.83813 1.19007 0.850295 1.19657 0.900596C1.19949 0.92098 1.20794 0.969638 1.21411 0.990679C1.22255 1.02586 1.23327 1.07386 1.23197 1.09917C1.23067 1.13304 1.23002 1.1692 1.23002 1.21786C1.23002 1.24284 1.23197 1.25139 1.24139 1.29446C1.25081 1.33753 1.25601 1.34575 1.25926 1.38224C1.26121 1.41216 1.25731 1.44175 1.25991 1.46871C1.26056 1.50224 1.26413 1.53512 1.27388 1.5657C1.29337 1.62948 1.33462 1.71759 1.31773 1.81227C1.29921 1.91255 1.32975 2.00756 1.35184 2.09468C1.36256 2.15058 1.35119 2.21238 1.36191 2.26564C1.38237 2.34028 1.39991 2.41984 1.42038 2.49743C1.43629 2.56088 1.42492 2.61808 1.44117 2.67858C1.46488 2.7634 1.52172 2.87748 1.52952 2.91562C1.53569 2.95376 1.53472 3.056 1.54609 3.12209C1.55746 3.18718 1.57272 3.26149 1.57695 3.30291C1.58214 3.34433 1.57532 3.36307 1.57954 3.39365C1.58474 3.42423 1.626 3.57217 1.63217 3.61031C1.63931 3.64845 1.63736 3.66817 1.64549 3.70828C1.65328 3.74839 1.68609 3.90653 1.69324 3.95782C1.70136 4.00878 1.69876 4.03902 1.70785 4.08965C1.72312 4.16856 1.75398 4.23497 1.77055 4.31059C1.78127 4.36615 1.77769 4.401 1.78451 4.44637C1.80043 4.51705 1.82382 4.58083 1.83649 4.6479C1.84656 4.69919 1.84721 4.75179 1.8576 4.8044C1.88099 4.91815 1.89756 5.03355 1.92777 5.14665C1.94693 5.21339 1.98559 5.27454 2.00475 5.33832C2.02132 5.39782 2.02554 5.46161 2.04081 5.5198C2.05607 5.57076 2.09148 5.61678 2.1048 5.6707C2.11324 5.71772 2.11195 5.76473 2.11942 5.81174C2.13144 5.86501 2.15515 5.91859 2.16522 5.97317C2.17334 6.01492 2.16977 6.05569 2.17984 6.09876C2.1951 6.14643 2.21784 6.18884 2.22921 6.23487C2.24058 6.29339 2.23993 6.35224 2.25455 6.41109C2.27176 6.47882 2.2997 6.5449 2.32114 6.60769C2.3403 6.66654 2.33023 6.73032 2.34777 6.79411C2.38545 6.93186 2.43028 7.08408 2.47608 7.2123C2.4959 7.28266 2.49265 7.35367 2.51799 7.42929C2.53585 7.47959 2.55794 7.51345 2.57711 7.55521C2.59335 7.60058 2.57873 7.64989 2.59205 7.70118C2.61381 7.78403 2.62713 7.89647 2.65636 7.97833C2.68852 8.07072 2.7418 8.14633 2.77428 8.23576C2.80611 8.33044 2.80774 8.4248 2.83892 8.52277C2.86881 8.60595 2.91071 8.68321 2.94189 8.75981C2.96853 8.82721 2.95878 8.91598 2.98412 8.98666C3.01206 9.06458 3.06663 9.12409 3.09586 9.20365C3.129 9.29505 3.15108 9.38448 3.17902 9.47587C3.18779 9.51467 3.19559 9.55313 3.20306 9.59193C3.23619 9.70996 3.29888 9.80727 3.33884 9.92004C3.35475 9.97297 3.3593 10.017 3.37392 10.066C3.4025 10.1466 3.43466 10.2301 3.47137 10.3083C3.5032 10.3767 3.54706 10.4451 3.57824 10.5151C3.6065 10.5792 3.61235 10.645 3.63963 10.712C3.66497 10.7758 3.69615 10.8462 3.72084 10.9136C3.73546 10.9547 3.73741 10.9908 3.75462 11.0293C3.83323 11.2085 3.93036 11.3893 4.01189 11.5645C4.05574 11.6609 4.07621 11.7648 4.12103 11.8627C4.15677 11.9384 4.19997 12.0123 4.23343 12.0945C4.25454 12.1465 4.26071 12.1964 4.2828 12.2457C4.3273 12.3417 4.38902 12.4387 4.4319 12.5338C4.44359 12.5578 4.4764 12.6597 4.46308 12.6988C4.46178 12.7041 4.45984 12.7116 4.45366 12.7146C4.42378 12.7228 4.36466 12.6718 4.33185 12.6383C4.21881 12.5265 4.20127 12.3148 4.12168 12.1688C4.09895 12.1277 4.07231 12.0817 4.05217 12.038C4.04113 12.0074 4.0343 11.9778 4.01969 11.9469C3.97096 11.8532 3.90989 11.768 3.86604 11.6694C3.83453 11.5974 3.83063 11.5156 3.7988 11.4472C3.67017 11.1664 3.52172 10.8955 3.39796 10.6144C3.34079 10.4859 3.32877 10.3402 3.27939 10.2011C3.24951 10.1186 3.20046 10.0502 3.167 9.97363C3.13907 9.91314 3.13257 9.84903 3.10593 9.78722C3.06988 9.707 3.0192 9.63171 2.98802 9.54491C2.96918 9.4887 2.96138 9.43083 2.94059 9.37494C2.91526 9.31346 2.874 9.2625 2.84737 9.20234C2.80839 9.11357 2.80221 9.02612 2.77363 8.92486C2.75771 8.87028 2.73562 8.81307 2.71776 8.76343C2.70379 8.71609 2.69827 8.66809 2.683 8.62239C2.64467 8.51685 2.58198 8.42348 2.54267 8.31466C2.51734 8.24069 2.52188 8.14863 2.4907 8.07762C2.46536 8.0191 2.41891 7.97176 2.39552 7.91093C2.37019 7.84748 2.39358 7.77022 2.37344 7.6946C2.35427 7.6226 2.32504 7.55488 2.30165 7.48814C2.28833 7.44507 2.28443 7.40299 2.27241 7.36189C2.24123 7.27411 2.21037 7.18731 2.17854 7.09953C2.16327 7.05515 2.16262 7.01405 2.14475 6.97361C2.12137 6.922 2.08336 6.87334 2.06484 6.81712C2.04341 6.73197 2.03626 6.6432 2.01612 6.56068C1.98234 6.44956 1.94173 6.35915 1.90957 6.25197C1.90178 6.2181 1.90178 6.1849 1.89301 6.14709C1.86702 6.05208 1.8537 5.94457 1.82772 5.84988C1.81765 5.80353 1.81992 5.76407 1.80855 5.71903C1.78256 5.62895 1.75203 5.53755 1.72474 5.45141C1.71078 5.39651 1.70785 5.3393 1.69454 5.28539C1.65068 5.14467 1.61138 4.97897 1.56947 4.84221C1.55941 4.80177 1.56233 4.76659 1.55031 4.72122C1.5175 4.61404 1.47365 4.48385 1.44961 4.37305C1.43759 4.30894 1.43694 4.24713 1.42363 4.1873C1.40706 4.11168 1.38107 4.04001 1.3658 3.96538C1.36061 3.93053 1.3658 3.90423 1.36256 3.87497C1.35638 3.82598 1.35184 3.77732 1.34307 3.72899C1.29532 3.53436 1.21996 3.29469 1.1774 3.09907C1.16538 3.02872 1.16278 2.95803 1.15531 2.88768C1.14752 2.83935 1.14427 2.78181 1.1303 2.73151C1.11536 2.68055 1.0923 2.62762 1.08482 2.57502C1.07411 2.49052 1.07346 2.40899 1.06111 2.32811C1.06079 2.32219 1.05884 2.31562 1.05754 2.30937C1.04032 2.20942 0.990948 2.00526 0.979579 1.92537C0.966586 1.82772 0.954567 1.72942 0.943198 1.63441C0.941249 1.57227 0.930529 1.50717 0.921759 1.44076C0.908441 1.34016 0.885053 1.25172 0.873359 1.14816C0.865888 1.07846 0.869786 1.01632 0.86134 0.958131C0.856467 0.920323 0.854518 0.856541 0.809367 0.856541C0.763565 0.856541 0.769412 0.91046 0.766814 0.953857C0.760642 1.05873 0.780132 1.19484 0.787928 1.25961C0.802545 1.37961 0.791501 1.49633 0.804819 1.61863C0.811965 1.68635 0.833404 1.75507 0.8412 1.82016C0.857117 1.93523 0.868486 2.0526 0.883104 2.16274C0.883753 2.16471 0.883753 2.16636 0.884403 2.16833C0.887976 2.22093 0.894473 2.27189 0.903243 2.32055C0.903893 2.32548 0.905192 2.33041 0.905842 2.33501C0.906492 2.33764 0.907141 2.34028 0.907791 2.34258C0.908441 2.34521 0.908441 2.34784 0.90909 2.35047L0.90974 2.35145C0.913963 2.37381 0.91916 2.39617 0.925657 2.41819C0.938325 2.46258 0.932478 2.49841 0.944497 2.54411C0.979904 2.67726 0.972433 2.82225 1.00849 2.95146C1.06111 3.1451 1.08905 3.35913 1.14297 3.55113C1.15824 3.60702 1.14362 3.66225 1.15889 3.72242C1.17415 3.7839 1.19007 3.84275 1.20469 3.90357C1.21931 3.97689 1.20794 4.05053 1.22743 4.12483C1.24464 4.1919 1.26478 4.26193 1.28395 4.32702C1.30376 4.40527 1.30539 4.48779 1.32715 4.57327C1.35184 4.65908 1.38042 4.75311 1.39569 4.84056C1.41323 4.93952 1.42298 5.05393 1.44117 5.15782C1.45773 5.24495 1.50483 5.34982 1.52562 5.44484C1.53082 5.47706 1.52822 5.50829 1.53407 5.54084C1.54609 5.60922 1.56623 5.67695 1.58084 5.74237C1.58799 5.77262 1.58539 5.79925 1.59416 5.83279C1.62665 5.95838 1.66465 6.11618 1.70331 6.24013C1.71273 6.27498 1.71727 6.31082 1.72539 6.34632C1.75041 6.43509 1.77704 6.50052 1.78646 6.54852C1.79458 6.59027 1.79978 6.63926 1.81115 6.68528C1.82902 6.75334 1.84981 6.81186 1.86247 6.87104C1.87287 6.91739 1.87969 6.95948 1.89236 7.00616C1.90763 7.06238 1.93036 7.11433 1.95278 7.16824C1.99013 7.28167 1.99468 7.40101 2.03399 7.51082C2.05737 7.57592 2.08856 7.63871 2.11 7.70841C2.12721 7.77219 2.13144 7.8488 2.1519 7.91915C2.18796 8.02798 2.22921 8.15192 2.26851 8.26173C2.31432 8.39094 2.3429 8.53329 2.3861 8.65527C2.40364 8.70458 2.40072 8.75225 2.41631 8.8065C2.45269 8.92847 2.4946 9.06557 2.53325 9.18952C2.55469 9.2556 2.55534 9.31839 2.58003 9.38119C2.62128 9.48475 2.6817 9.5722 2.71971 9.67872C2.75219 9.77045 2.75901 9.86119 2.79344 9.94535C2.83827 10.0591 2.89089 10.1745 2.9341 10.2938C2.96398 10.3757 2.97275 10.4582 3.00718 10.5358C3.03642 10.6029 3.07442 10.6709 3.10366 10.7377C3.1238 10.7965 3.14426 10.8551 3.16375 10.9142C3.18032 10.9593 3.2271 11.0356 3.25958 11.096C3.29564 11.1769 3.30213 11.2654 3.33332 11.3531C3.38074 11.4863 3.44473 11.6221 3.5006 11.7463C3.52237 11.7947 3.52659 11.8407 3.54576 11.8927C3.57824 11.9817 3.63573 12.0482 3.67277 12.13C3.70752 12.2083 3.71694 12.2911 3.75073 12.3671C3.80075 12.4782 3.83876 12.5354 3.83811 12.6945C3.83681 12.709 3.83323 12.7198 3.81732 12.7251C3.78873 12.7369 3.75495 12.687 3.73611 12.6689C3.6523 12.586 3.63963 12.5058 3.58766 12.3907C3.5071 12.2162 3.40478 12.0518 3.32617 11.8811C3.28492 11.792 3.26835 11.696 3.2271 11.6037C3.20306 11.5481 3.167 11.4916 3.14231 11.437C3.10496 11.3571 3.08579 11.2739 3.04519 11.2003C2.98672 11.0951 2.94059 10.9705 2.89414 10.8514C2.87563 10.8071 2.874 10.7637 2.85484 10.7209C2.83405 10.6752 2.80092 10.6331 2.78045 10.5894C2.75089 10.5161 2.73173 10.427 2.70249 10.3524C2.63915 10.211 2.56736 10.0624 2.51344 9.91314C2.46406 9.7767 2.44003 9.64486 2.39033 9.50513C2.37084 9.44826 2.34355 9.38546 2.32439 9.32826C2.30717 9.27664 2.30652 9.2316 2.28963 9.18261C2.24448 9.05669 2.18536 8.92453 2.13273 8.8042C2.10675 8.74469 2.09993 8.68584 2.07686 8.62272C2.04958 8.54611 2.01677 8.46162 1.98948 8.38568C1.95278 8.28573 1.95148 8.16869 1.91347 8.06315C1.83259 7.83729 1.72929 7.60123 1.66075 7.36222C1.64808 7.30797 1.65133 7.25109 1.63542 7.19586C1.59806 7.07718 1.55941 6.94468 1.52302 6.81778C1.48242 6.67674 1.48697 6.52747 1.44376 6.38972C1.38854 6.21153 1.3265 6.02544 1.27128 5.85021C1.25471 5.79629 1.26186 5.74172 1.24529 5.68451C1.20794 5.54741 1.16213 5.38763 1.11698 5.26106C1.09424 5.19793 1.09424 5.12856 1.07086 5.06938C1.04292 4.99771 0.970484 5.02401 0.97698 5.10456C0.981853 5.17821 1.00686 5.27322 1.01434 5.31103C1.02246 5.36199 1.02246 5.41295 1.03415 5.46654C1.05559 5.56221 1.08677 5.64144 1.11276 5.72824C1.1407 5.81832 1.1407 5.90281 1.16668 5.99553C1.18 6.04123 1.19754 6.0935 1.21151 6.13657C1.24009 6.22928 1.24009 6.3289 1.26998 6.41339C1.29402 6.47816 1.31188 6.55904 1.33267 6.63005C1.34599 6.67739 1.34307 6.71553 1.35768 6.76156C1.38302 6.84539 1.40966 6.92956 1.43564 7.01339C1.44831 7.06205 1.44311 7.10446 1.45448 7.1495C1.47235 7.21559 1.48762 7.28463 1.50678 7.34578C1.52302 7.40562 1.52172 7.48945 1.54284 7.55192C1.57889 7.66797 1.6208 7.79093 1.65945 7.90008C1.70266 8.02173 1.70785 8.14929 1.75138 8.27291C1.82902 8.49121 1.90113 8.74239 1.97941 8.96365C1.99955 9.02053 1.99273 9.07839 2.01027 9.1402C2.03626 9.23489 2.05607 9.32826 2.08921 9.42228C2.10545 9.46733 2.13403 9.51237 2.1532 9.55346C2.17789 9.60705 2.18438 9.66492 2.20907 9.71982C2.22791 9.7642 2.2565 9.80924 2.27306 9.85626C2.29775 9.92629 2.28898 10.0121 2.31562 10.0778C2.3364 10.1311 2.36629 10.189 2.38545 10.2445C2.40754 10.305 2.40689 10.3695 2.43158 10.4257C2.45334 10.476 2.48875 10.5237 2.51149 10.5723C2.5326 10.619 2.53748 10.667 2.55599 10.7183C2.57516 10.7716 2.60407 10.8258 2.62583 10.8751C2.65052 10.9307 2.65182 10.9945 2.67715 11.0513C2.69892 11.101 2.73238 11.1493 2.75219 11.2029C2.77038 11.2591 2.77298 11.3206 2.79214 11.3791C2.8256 11.4643 2.87823 11.5399 2.91461 11.6211C2.94189 11.6826 2.94417 11.7506 2.97145 11.8131C3.00199 11.8848 3.04584 11.9548 3.078 12.0248C3.12055 12.1182 3.15238 12.2185 3.19169 12.3076C3.26218 12.4664 3.28557 12.6409 3.358 12.7964C3.41128 12.9125 3.48241 13.022 3.53309 13.1351C3.56167 13.1982 3.57044 13.2656 3.59968 13.3264C3.63216 13.3955 3.68771 13.4536 3.72019 13.5233C3.74423 13.5924 3.76404 13.6631 3.79263 13.7301C3.83258 13.8189 3.89008 13.8972 3.92971 13.9826C3.95245 14.0316 3.96187 14.0806 3.98461 14.1289C4.02846 14.2236 4.0996 14.3032 4.1428 14.3972C4.16554 14.459 4.1873 14.5212 4.20874 14.5836C4.25552 14.6839 4.3299 14.7691 4.37863 14.8713C4.41306 14.9463 4.43645 15.0255 4.4803 15.0935C4.54819 15.2007 4.59204 15.2714 4.65733 15.3792C4.70054 15.4496 4.75608 15.5528 4.79181 15.6291C4.82592 15.7041 4.88309 15.7669 4.91817 15.8412C4.95228 15.9138 4.99678 15.9924 5.03479 16.0614C5.07864 16.1397 5.12347 16.1976 5.17122 16.2709C5.24983 16.3909 5.2992 16.5191 5.37619 16.6404C5.43011 16.7249 5.4915 16.8104 5.55062 16.8919C5.70719 17.1102 5.93198 17.5001 6.02878 17.6316C6.10836 17.7378 6.1743 17.8638 6.24771 17.9752C6.30423 18.0613 6.37537 18.1465 6.43612 18.227C6.48711 18.2935 6.52772 18.3651 6.57709 18.4342L6.61575 18.4868C8.62581 21.0729 10.6914 22.7851 12.4406 23.9078L12.44 23.9082C13.3612 24.4914 13.8579 24.662 13.8579 24.662C13.9758 24.711 13.8952 24.7968 13.8358 24.8343L3.46455 31.5471C3.43142 31.5688 3.35151 31.6286 3.38334 31.6951C3.40803 31.746 3.51392 31.7171 3.54186 31.7075C11.865 28.7503 17.905 26.319 21.5973 24.5456C25.3407 22.7479 26.5988 21.7192 26.4617 21.2077Z" fill="white"/>
</g>
<defs>
<clipPath id="clip0_1238_1057">
<rect width="222.999" height="31.827" fill="white" transform="translate(0.765625 0.309326)"/>
</clipPath>
</defs>
</svg>
