<svg width="142" height="55" viewBox="0 0 142 55" fill="none" xmlns="http://www.w3.org/2000/svg">
<path fill-rule="evenodd" clip-rule="evenodd" d="M142 18C142 14.134 138.866 11 135 11H35C30.5817 11 27 14.5817 27 19V45C27 49.4183 30.5817 53 35 53H135C138.866 53 142 49.866 142 46V40C142 39.4477 141.552 39 141 39V39C137.134 39 134 35.866 134 32C134 28.134 137.134 25 141 25V25C141.552 25 142 24.5523 142 24V18Z" fill="#FFC93F"/>
<path d="M63.164 24.288C63.164 24.776 63.052 25.224 62.828 25.632C62.604 26.032 62.26 26.356 61.796 26.604C61.332 26.852 60.756 26.976 60.068 26.976L58.796 26.976L58.796 30L56.744 30L56.744 21.576L60.068 21.576C60.74 21.576 61.308 21.692 61.772 21.924C62.236 22.156 62.584 22.476 62.816 22.884C63.048 23.292 63.164 23.76 63.164 24.288ZM59.912 25.344C60.304 25.344 60.596 25.252 60.788 25.068C60.98 24.884 61.076 24.624 61.076 24.288C61.076 23.952 60.98 23.692 60.788 23.508C60.596 23.324 60.304 23.232 59.912 23.232L58.796 23.232L58.796 25.344L59.912 25.344ZM68.5283 30L66.7763 26.82L66.2843 26.82L66.2843 30L64.2323 30L64.2323 21.576L67.6763 21.576C68.3403 21.576 68.9043 21.692 69.3683 21.924C69.8403 22.156 70.1923 22.476 70.4243 22.884C70.6563 23.284 70.7723 23.732 70.7723 24.228C70.7723 24.788 70.6123 25.288 70.2923 25.728C69.9803 26.168 69.5163 26.48 68.9003 26.664L70.8443 30L68.5283 30ZM66.2843 25.368L67.5563 25.368C67.9323 25.368 68.2123 25.276 68.3963 25.092C68.5883 24.908 68.6843 24.648 68.6843 24.312C68.6843 23.992 68.5883 23.74 68.3963 23.556C68.2123 23.372 67.9323 23.28 67.5563 23.28L66.2843 23.28L66.2843 25.368ZM74.1124 21.576L74.1124 30L72.0604 30L72.0604 21.576L74.1124 21.576ZM75.2515 25.776C75.2515 24.944 75.4315 24.204 75.7915 23.556C76.1515 22.9 76.6515 22.392 77.2915 22.032C77.9395 21.664 78.6715 21.48 79.4875 21.48C80.4875 21.48 81.3435 21.744 82.0555 22.272C82.7675 22.8 83.2435 23.52 83.4835 24.432L81.2275 24.432C81.0595 24.08 80.8195 23.812 80.5075 23.628C80.2035 23.444 79.8555 23.352 79.4635 23.352C78.8315 23.352 78.3195 23.572 77.9275 24.012C77.5355 24.452 77.3395 25.04 77.3395 25.776C77.3395 26.512 77.5355 27.1 77.9275 27.54C78.3195 27.98 78.8315 28.2 79.4635 28.2C79.8555 28.2 80.2035 28.108 80.5075 27.924C80.8195 27.74 81.0595 27.472 81.2275 27.12L83.4835 27.12C83.2435 28.032 82.7675 28.752 82.0555 29.28C81.3435 29.8 80.4875 30.06 79.4875 30.06C78.6715 30.06 77.9395 29.88 77.2915 29.52C76.6515 29.152 76.1515 28.644 75.7915 27.996C75.4315 27.348 75.2515 26.608 75.2515 25.776ZM86.7921 23.22L86.7921 24.924L89.5401 24.924L89.5401 26.508L86.7921 26.508L86.7921 28.356L89.9001 28.356L89.9001 30L84.7401 30L84.7401 21.576L89.9001 21.576L89.9001 23.22L86.7921 23.22ZM56.396 39.776C56.396 38.944 56.576 38.204 56.936 37.556C57.296 36.9 57.796 36.392 58.436 36.032C59.084 35.664 59.816 35.48 60.632 35.48C61.632 35.48 62.488 35.744 63.2 36.272C63.912 36.8 64.388 37.52 64.628 38.432L62.372 38.432C62.204 38.08 61.964 37.812 61.652 37.628C61.348 37.444 61 37.352 60.608 37.352C59.976 37.352 59.464 37.572 59.072 38.012C58.68 38.452 58.484 39.04 58.484 39.776C58.484 40.512 58.68 41.1 59.072 41.54C59.464 41.98 59.976 42.2 60.608 42.2C61 42.2 61.348 42.108 61.652 41.924C61.964 41.74 62.204 41.472 62.372 41.12L64.628 41.12C64.388 42.032 63.912 42.752 63.2 43.28C62.488 43.8 61.632 44.06 60.632 44.06C59.816 44.06 59.084 43.88 58.436 43.52C57.796 43.152 57.296 42.644 56.936 41.996C56.576 41.348 56.396 40.608 56.396 39.776ZM73.1806 35.576L73.1806 44L71.1286 44L71.1286 40.532L67.9366 40.532L67.9366 44L65.8846 44L65.8846 35.576L67.9366 35.576L67.9366 38.876L71.1286 38.876L71.1286 35.576L73.1806 35.576ZM79.906 42.512L76.762 42.512L76.258 44L74.11 44L77.158 35.576L79.534 35.576L82.582 44L80.41 44L79.906 42.512ZM79.378 40.928L78.334 37.844L77.302 40.928L79.378 40.928ZM85.5616 42.416L88.2496 42.416L88.2496 44L83.5096 44L83.5096 35.576L85.5616 35.576L85.5616 42.416ZM91.2804 42.416L93.9684 42.416L93.9684 44L89.2284 44L89.2284 35.576L91.2804 35.576L91.2804 42.416ZM96.9991 37.22L96.9991 38.924L99.7471 38.924L99.7471 40.508L96.9991 40.508L96.9991 42.356L100.107 42.356L100.107 44L94.9471 44L94.9471 35.576L100.107 35.576L100.107 37.22L96.9991 37.22ZM108.975 44L106.923 44L103.491 38.804L103.491 44L101.439 44L101.439 35.576L103.491 35.576L106.923 40.796L106.923 35.576L108.975 35.576L108.975 44ZM116.055 38.24C115.903 37.96 115.683 37.748 115.395 37.604C115.115 37.452 114.783 37.376 114.399 37.376C113.735 37.376 113.203 37.596 112.803 38.036C112.403 38.468 112.203 39.048 112.203 39.776C112.203 40.552 112.411 41.16 112.827 41.6C113.251 42.032 113.831 42.248 114.567 42.248C115.071 42.248 115.495 42.12 115.839 41.864C116.191 41.608 116.447 41.24 116.607 40.76L114.003 40.76L114.003 39.248L118.467 39.248L118.467 41.156C118.315 41.668 118.055 42.144 117.687 42.584C117.327 43.024 116.867 43.38 116.307 43.652C115.747 43.924 115.115 44.06 114.411 44.06C113.579 44.06 112.835 43.88 112.179 43.52C111.531 43.152 111.023 42.644 110.655 41.996C110.295 41.348 110.115 40.608 110.115 39.776C110.115 38.944 110.295 38.204 110.655 37.556C111.023 36.9 111.531 36.392 112.179 36.032C112.827 35.664 113.567 35.48 114.399 35.48C115.407 35.48 116.255 35.724 116.943 36.212C117.639 36.7 118.099 37.376 118.323 38.24L116.055 38.24ZM121.655 37.22L121.655 38.924L124.403 38.924L124.403 40.508L121.655 40.508L121.655 42.356L124.763 42.356L124.763 44L119.603 44L119.603 35.576L124.763 35.576L124.763 37.22L121.655 37.22Z" fill="#263954"/>
<g clip-path="url(#clip0_1931_2299)">
<path d="M13.8965 21.8504L9.03158 16.7797C8.29156 16.0089 8.29156 14.7585 9.03158 13.9876C9.7716 13.2164 10.971 13.2164 11.7106 13.9876L16.5759 19.0578L13.8965 21.8504Z" fill="#F8696E"/>
<path d="M23.7812 55.0002C21.7987 55.0002 20.1914 53.3255 20.1914 51.2589L20.1914 46.375L27.371 46.375L27.371 51.2589C27.371 53.3255 25.7637 55.0002 23.7812 55.0002Z" fill="#F8696E"/>
<path d="M39.3281 49.3091C37.3456 49.3091 35.7383 47.6344 35.7383 45.5682L35.7383 40.6838L42.9175 40.6838L42.9175 45.5682C42.9175 47.6344 41.3106 49.3091 39.3281 49.3091Z" fill="#F8696E"/>
<path d="M12.066 47.7916C10.0834 47.7916 8.47656 46.1165 8.47656 44.0503L8.47656 36.3848L15.6557 36.3848L15.6557 44.0503C15.6557 46.1165 14.0485 47.7916 12.066 47.7916Z" fill="#F8696E"/>
<path d="M8.47111 20.6672C3.57481 29.5056 7.59903 41.4806 17.4593 47.414C27.3195 53.3474 39.2823 50.9921 44.179 42.1537C49.0753 33.3153 45.0511 21.3403 35.1908 15.4069C25.3302 9.47397 13.3674 11.8289 8.47111 20.6672Z" fill="#FF8F93"/>
<path d="M23.4464 29.117C24.5938 27.7117 25.9773 26.3946 27.5717 25.2406C27.9847 24.9418 28.4027 24.6624 28.8238 24.3989L27.9743 23.1547C27.006 21.7364 25.011 21.634 23.5188 22.9264C22.0263 24.2184 21.6019 26.4155 22.5703 27.8338L23.4464 29.117Z" fill="#FFADB0"/>
<path d="M41.9865 21.982L42.1926 20.2398C42.3859 18.6058 41.3125 17.4477 39.795 17.6533C38.2779 17.8589 36.8913 19.3502 36.698 20.9842L36.6328 21.5368C38.5565 21.3094 40.3845 21.4571 41.9865 21.982Z" fill="#FFADB0"/>
<path d="M40.9669 21.7076L41.0808 20.7463C41.1988 19.7459 40.5417 19.0368 39.6128 19.1627C38.684 19.2886 37.8349 20.2016 37.7165 21.202L37.6875 21.4479C38.8354 21.3942 39.9378 21.4819 40.9669 21.7076Z" fill="white"/>
<path d="M24.3839 28.0467C25.324 27.0421 26.3905 26.0963 27.573 25.2407C27.6089 25.2147 27.6447 25.1904 27.6809 25.1648L27.1422 24.3763C26.5496 23.5077 25.328 23.4452 24.4145 24.2366C23.5009 25.0276 23.2408 26.3729 23.8335 27.241L24.3839 28.0467Z" fill="white"/>
<path d="M46.4849 35.9471C46.4849 38.7967 44.2129 42.4738 41.4106 44.1602C38.6079 45.8467 36.3359 44.9034 36.3359 42.0537C36.3359 39.2037 38.6079 35.5266 41.4106 33.8402C44.2129 32.1542 46.4849 33.097 46.4849 35.9471Z" fill="#F8696E"/>
<path d="M39.3858 43.3028L39.2638 43.3762C38.8117 43.6482 38.4453 43.3595 38.4453 42.7313L38.4453 38.8331C38.4453 38.2049 38.8117 37.4752 39.2638 37.2033L39.3858 37.1294C39.838 36.8575 40.2044 37.1462 40.2044 37.7744L40.2044 41.673C40.2044 42.3012 39.838 43.0309 39.3858 43.3028Z" fill="#263954"/>
<path d="M43.5499 40.7972L43.4279 40.8706C42.9758 41.143 42.6094 40.8538 42.6094 40.2261L42.6094 36.3274C42.6094 35.6993 42.9758 34.9696 43.4279 34.6977L43.5499 34.6238C44.0021 34.3519 44.3684 34.6406 44.3684 35.2688L44.3684 39.1674C44.3684 39.7956 44.0021 40.5253 43.5499 40.7972Z" fill="#263954"/>
<path d="M35.1739 33.5163C35.1739 34.3731 34.5072 35.0684 33.6846 35.0684C32.8621 35.0684 32.1953 34.3731 32.1953 33.5163C32.1953 32.659 32.8621 31.9641 33.6846 31.9641C34.5072 31.9641 35.1739 32.659 35.1739 33.5163Z" fill="#263954"/>
<path d="M44.9821 29.29C44.9821 30.1472 44.3154 30.8421 43.4928 30.8421C42.6707 30.8421 42.0039 30.1472 42.0039 29.29C42.0039 28.4327 42.6707 27.7378 43.4928 27.7378C44.3154 27.7378 44.9821 28.4327 44.9821 29.29Z" fill="#263954"/>
<path d="M31.7593 22.6539C31.374 22.6539 30.9891 22.497 30.7012 22.1848C30.671 22.152 27.6207 18.9051 22.3266 16.8829C21.5653 16.5921 21.1743 15.713 21.4533 14.9195C21.7324 14.126 22.5759 13.7186 23.3372 14.0094C29.3049 16.2887 32.6789 19.9121 32.8198 20.0653C33.3807 20.6758 33.3605 21.6447 32.7747 22.2293C32.4905 22.5129 32.1245 22.6539 31.7593 22.6539Z" fill="#263954"/>
<path d="M34.1842 11.3351C34.1842 7.22409 31.7861 2.44844 28.8276 0.668427C27.592 -0.0751332 26.4546 -0.176261 25.5483 0.255525L25.5475 0.253426L23.1591 1.70404C23.1591 1.70404 21.1758 2.53572 21.1758 6.29297C21.1758 10.4035 23.5738 15.1796 26.5323 16.9596C27.9962 17.8404 29.3225 17.8215 30.2896 17.0805L30.29 17.0813L32.3317 15.8481C33.4659 15.1653 34.1842 13.5838 34.1842 11.3351Z" fill="#FFAC0E"/>
<path d="M31.8892 12.7391C31.8892 16.8501 29.4908 18.7396 26.5327 16.9596C23.5742 15.1796 21.1758 10.404 21.1758 6.29298C21.1758 2.18199 23.5742 0.292461 26.5327 2.07247C29.4908 3.85249 31.8892 8.62814 31.8892 12.7391Z" fill="#FFEDCB"/>
<path d="M30.2098 11.7287C30.2098 14.5506 28.5635 15.8477 26.5326 14.6257C24.5018 13.4038 22.8555 10.1254 22.8555 7.30343C22.8555 4.48151 24.5018 3.18448 26.5326 4.4064C28.5635 5.62833 30.2098 8.90679 30.2098 11.7287Z" fill="#FFAC0E"/>
<path d="M29.07 11.0426C29.07 12.9896 27.9342 13.8842 26.533 13.0412C25.1319 12.1982 23.9961 9.93647 23.9961 7.98945C23.9961 6.04285 25.1319 5.14781 26.533 5.99082C27.9342 6.83383 29.07 9.09556 29.07 11.0426Z" fill="#FFEDCB"/>
</g>
<defs>
<clipPath id="clip0_1931_2299">
<rect width="54" height="55" fill="white"/>
</clipPath>
</defs>
</svg>
