<svg width="107" height="90" viewBox="0 0 107 90" fill="none" xmlns="http://www.w3.org/2000/svg">
<path d="M0 45C0 20.1472 20.1472 0 45 0H107V90H45C20.1472 90 0 69.8528 0 45V45Z" fill="white"/>
<path d="M3 45C3 21.804 21.804 3 45 3H104V87H45C21.804 87 3 68.196 3 45V45Z" fill="url(#paint0_radial_1974_2088)"/>
<g clip-path="url(#clip0_1974_2088)">
<path d="M53.6779 41.2061V31.2861H47.5979C45.8379 31.2861 44.3979 32.7261 44.3979 34.4861V44.0861C44.3979 45.8461 45.8379 47.2861 47.5979 47.2861H49.1979V52.0861L53.9979 47.2861H61.9979C63.7579 47.2861 65.198 45.8461 65.198 44.0861V41.1741C65.0928 41.1967 64.9855 41.208 64.878 41.2077H53.6779V41.2061V41.2061ZM73.198 23.2861H58.7979C57.0379 23.2861 55.5979 24.7261 55.5979 26.4861V39.2861H66.7979L71.5979 44.0861V39.2861H73.198C74.958 39.2861 76.3979 37.8477 76.3979 36.0861V26.4861C76.3979 24.7261 74.958 23.2861 73.198 23.2861Z" fill="white"/>
</g>
<path d="M27 66.006C27 65.174 27.18 64.434 27.54 63.786C27.9 63.13 28.4 62.622 29.04 62.262C29.688 61.894 30.42 61.71 31.236 61.71C32.236 61.71 33.092 61.974 33.804 62.502C34.516 63.03 34.992 63.75 35.232 64.662H32.976C32.808 64.31 32.568 64.042 32.256 63.858C31.952 63.674 31.604 63.582 31.212 63.582C30.58 63.582 30.068 63.802 29.676 64.242C29.284 64.682 29.088 65.27 29.088 66.006C29.088 66.742 29.284 67.33 29.676 67.77C30.068 68.21 30.58 68.43 31.212 68.43C31.604 68.43 31.952 68.338 32.256 68.154C32.568 67.97 32.808 67.702 32.976 67.35H35.232C34.992 68.262 34.516 68.982 33.804 69.51C33.092 70.03 32.236 70.29 31.236 70.29C30.42 70.29 29.688 70.11 29.04 69.75C28.4 69.382 27.9 68.874 27.54 68.226C27.18 67.578 27 66.838 27 66.006Z" fill="white"/>
<path d="M43.7846 61.806V70.23H41.7326V66.762H38.5406V70.23H36.4886V61.806H38.5406V65.106H41.7326V61.806H43.7846Z" fill="white"/>
<path d="M50.51 68.742H47.366L46.862 70.23H44.714L47.762 61.806H50.138L53.186 70.23H51.014L50.51 68.742ZM49.982 67.158L48.938 64.074L47.906 67.158H49.982Z" fill="white"/>
<path d="M60.1736 61.806V63.45H57.9416V70.23H55.8896V63.45H53.6576V61.806H60.1736Z" fill="white"/>
<path d="M71.2824 70.23H69.2304L65.7984 65.034V70.23H63.7464V61.806H65.7984L69.2304 67.026V61.806H71.2824V70.23Z" fill="white"/>
<path d="M76.7539 70.314C75.9619 70.314 75.2339 70.13 74.5699 69.762C73.9139 69.394 73.3899 68.882 72.9979 68.226C72.6139 67.562 72.4219 66.818 72.4219 65.994C72.4219 65.17 72.6139 64.43 72.9979 63.774C73.3899 63.118 73.9139 62.606 74.5699 62.238C75.2339 61.87 75.9619 61.686 76.7539 61.686C77.5459 61.686 78.2699 61.87 78.9259 62.238C79.5899 62.606 80.1099 63.118 80.4859 63.774C80.8699 64.43 81.0619 65.17 81.0619 65.994C81.0619 66.818 80.8699 67.562 80.4859 68.226C80.1019 68.882 79.5819 69.394 78.9259 69.762C78.2699 70.13 77.5459 70.314 76.7539 70.314ZM76.7539 68.442C77.4259 68.442 77.9619 68.218 78.3619 67.77C78.7699 67.322 78.9739 66.73 78.9739 65.994C78.9739 65.25 78.7699 64.658 78.3619 64.218C77.9619 63.77 77.4259 63.546 76.7539 63.546C76.0739 63.546 75.5299 63.766 75.1219 64.206C74.7219 64.646 74.5219 65.242 74.5219 65.994C74.5219 66.738 74.7219 67.334 75.1219 67.782C75.5299 68.222 76.0739 68.442 76.7539 68.442Z" fill="white"/>
<path d="M93.7955 61.806L91.5995 70.23H89.1155L87.7715 64.686L86.3795 70.23H83.8955L81.7595 61.806H83.9555L85.1675 67.938L86.6675 61.806H88.9235L90.3635 67.938L91.5875 61.806H93.7955Z" fill="white"/>
<defs>
<radialGradient id="paint0_radial_1974_2088" cx="0" cy="0" r="1" gradientUnits="userSpaceOnUse" gradientTransform="translate(53.5 37.2222) rotate(90) scale(49.7778 59.8519)">
<stop stop-color="#699CE8"/>
<stop offset="1" stop-color="#2364C6"/>
</radialGradient>
<clipPath id="clip0_1974_2088">
<rect width="32" height="32" fill="white" transform="translate(44.3979 21.686)"/>
</clipPath>
</defs>
</svg>
