<svg width="42" height="42" viewBox="0 0 42 42" fill="none" xmlns="http://www.w3.org/2000/svg">
<g clip-path="url(#clip0_1951_1748)">
<rect x="0.5" y="0.5" width="41" height="41" rx="20.5" fill="url(#paint0_radial_1951_1748)"/>
<g clip-path="url(#clip1_1951_1748)">
<path d="M21.0006 13.5C16.8615 13.5 13.5006 16.8611 13.5006 21.0005C13.5031 22.3251 13.863 23.6215 14.5299 24.7642L13.5133 27.814C13.4481 28.0095 13.6342 28.1955 13.8297 28.1304L16.7467 27.1582C17.9969 28.0237 19.4771 28.4977 21.0001 28.5C25.1393 28.4999 28.5001 25.1392 28.5001 21C28.5001 16.8608 25.1396 13.5001 21.0006 13.5V13.5ZM18.4942 20.25C18.9055 20.25 19.2442 20.5888 19.2442 21C19.2442 21.4113 18.9054 21.75 18.4942 21.75C18.083 21.75 17.7447 21.4113 17.7447 21C17.7447 20.5888 18.083 20.25 18.4942 20.25V20.25ZM21.0006 20.25C21.4118 20.25 21.7506 20.5888 21.7506 21C21.7506 21.4113 21.4118 21.75 21.0006 21.75C20.5893 21.75 20.2506 21.4113 20.2506 21C20.2506 20.5888 20.5893 20.25 21.0006 20.25V20.25ZM23.4942 20.25C23.9055 20.25 24.2442 20.5888 24.2442 21C24.2442 21.4113 23.9054 21.75 23.4942 21.75C23.083 21.75 22.7442 21.4113 22.7442 21C22.7442 20.5888 23.083 20.25 23.4942 20.25V20.25Z" fill="white"/>
</g>
<rect x="0.5" y="0.5" width="41" height="41" rx="20.5" stroke="white"/>
</g>
<defs>
<radialGradient id="paint0_radial_1951_1748" cx="0" cy="0" r="1" gradientUnits="userSpaceOnUse" gradientTransform="translate(21 17.2963) rotate(90) scale(23.7037)">
<stop stop-color="#699CE8"/>
<stop offset="1" stop-color="#2364C6"/>
</radialGradient>
<clipPath id="clip0_1951_1748">
<rect width="42" height="42" fill="white"/>
</clipPath>
<clipPath id="clip1_1951_1748">
<rect width="16" height="16" fill="white" transform="translate(13 13)"/>
</clipPath>
</defs>
</svg>
