<svg width="24" height="24" viewBox="0 0 24 24" fill="none" xmlns="http://www.w3.org/2000/svg">
<g clip-path="url(#clip0_1953_1747)">
<path d="M23.9411 7.9533C24.1512 6.39537 23.7981 5.27187 22.8916 4.61406C20.9029 3.17114 16.453 4.1498 9.28733 7.60612C5.77565 9.29998 3.56519 10.8031 2.32925 11.7657C1.2107 12.637 -0.100387 13.8319 0.006086 14.5773C0.108082 15.2911 1.10071 15.4113 1.83856 15.4397C2.28507 15.4569 2.72141 15.4372 2.99174 15.4195L3.15939 16.5723C3.20048 16.8545 3.35017 17.1022 3.58091 17.2698C3.76237 17.4015 3.97542 17.4703 4.19486 17.4703C4.25487 17.4703 4.3153 17.4651 4.37573 17.4548C5.16996 17.3182 6.69937 17.1014 8.15109 17.1536C10.7408 19.0616 14.5452 20.0295 19.4633 20.0295C20.1477 20.0295 20.7275 20.0122 21.1933 19.9984C21.4823 19.9898 21.7106 19.983 21.8775 19.983C22.5644 19.983 22.8373 19.6837 22.9453 19.4326C23.301 18.6057 22.2169 17.2382 21.467 16.4297L21.2076 12.6966C21.7266 12.1317 23.6792 9.89581 23.9411 7.9533ZM3.11372 13.8707C2.92263 13.9267 2.80187 14.1148 2.8306 14.3118L2.87621 14.6256C2.65762 14.6386 2.34779 14.6513 2.02539 14.6454C1.1654 14.6292 0.883979 14.4964 0.807456 14.4456C0.877105 14.2315 1.35804 13.5149 2.95972 12.2888C4.15698 11.3724 6.28691 9.94084 9.63467 8.32606C18.0804 4.25228 21.2503 4.41082 22.4222 5.26105C23.0813 5.73938 23.3191 6.58509 23.149 7.8465C22.9274 9.48926 21.1981 11.5137 20.665 12.1042C20.6018 12.0911 20.5279 12.0765 20.4431 12.0608C20.5069 11.8178 20.5449 11.5583 20.5556 11.2858C20.5848 10.5402 20.3972 9.84401 20.0274 9.32567C19.6173 8.75072 18.9994 8.41868 18.2877 8.39081C16.8027 8.33235 15.5767 9.52497 15.5167 11.0553C15.5073 11.2935 15.5274 11.5283 15.5744 11.7553C11.7855 11.8465 7.59698 12.5571 3.11372 13.8707ZM19.7568 11.2544C19.7025 12.6398 18.87 13.1314 18.1737 13.1313C18.15 13.1313 18.1259 13.1309 18.1018 13.13C17.6074 13.1106 17.1496 12.8897 16.8127 12.5081C16.4712 12.1212 16.2945 11.6164 16.3153 11.0867C16.3571 10.0221 17.1787 9.18818 18.1858 9.18818C18.2092 9.18818 18.2327 9.1886 18.2563 9.18951C19.0423 9.22031 19.8111 9.87077 19.7568 11.2544ZM8.30168 16.3601V16.3596C6.7411 16.288 5.0872 16.5213 4.24016 16.667C4.17318 16.6786 4.1056 16.6629 4.05045 16.6229C3.99567 16.5831 3.96012 16.5242 3.95032 16.4572L3.67167 14.5412C8.07142 13.2776 12.1716 12.608 15.8691 12.5488C15.9655 12.7222 16.0802 12.8861 16.2134 13.0371C16.6963 13.584 17.3558 13.9007 18.0704 13.9287C18.1051 13.93 18.1396 13.9307 18.1737 13.9307C18.1737 13.9307 18.1737 13.9307 18.1737 13.9307C18.8691 13.9307 19.4667 13.656 19.9019 13.1364C19.9852 13.0369 20.0605 12.93 20.1285 12.8168C20.2406 12.8359 20.3371 12.8538 20.4183 12.8699L20.552 14.7939C20.0873 14.7681 19.061 14.7233 17.5487 14.7233C17.5077 14.7233 17.4664 14.7233 17.4247 14.7234C15.4432 14.7266 12.2583 14.8123 8.33723 15.2023C8.11757 15.2242 7.95722 15.42 7.97907 15.6396C7.99959 15.8458 8.17336 15.9998 8.37629 15.9998C8.38951 15.9998 8.40288 15.9991 8.41631 15.9977C15.0833 15.3345 19.6941 15.5451 20.6079 15.5981L20.6543 16.2659C19.4125 16.4578 17.5444 16.555 15.0913 16.555C11.688 16.555 8.34517 16.362 8.31181 16.36C8.30845 16.3597 8.30509 16.3603 8.30168 16.3601ZM9.74791 17.2301C11.055 17.2862 13.0622 17.3543 15.0913 17.3543C17.0004 17.3543 18.5676 17.2952 19.7748 17.1784L20.6986 19.2127C20.3357 19.2221 19.9233 19.2301 19.4631 19.2301C15.3974 19.2301 12.1384 18.5583 9.74791 17.2301ZM22.211 19.1167C22.2062 19.1277 22.1292 19.1836 21.8774 19.1836C21.7876 19.1836 21.6839 19.1854 21.5655 19.1882L20.6083 17.0805C20.7211 17.0645 20.8299 17.0479 20.9338 17.0305C21.9769 18.1702 22.2841 18.9467 22.211 19.1167Z" fill="#263954" stroke="#263954" stroke-width="0.2"/>
<path d="M18.0928 12.012C17.3721 11.7598 17.6033 10.5392 17.6066 10.5229C17.6499 10.3069 17.5103 10.0965 17.2944 10.0526C17.0776 10.0084 16.867 10.1482 16.8231 10.3645C16.8193 10.3832 16.7309 10.8268 16.7913 11.3249C16.829 11.6363 16.9167 11.9083 17.0518 12.1336C17.2338 12.4368 17.4952 12.6497 17.8288 12.7665C17.8724 12.7818 17.9169 12.789 17.9608 12.789C18.1259 12.789 18.2804 12.6859 18.338 12.5213C18.4109 12.313 18.3012 12.085 18.0928 12.012Z" fill="#263954" stroke="#263954" stroke-width="0.2"/>
</g>
<defs>
<clipPath id="clip0_1953_1747">
<rect width="24" height="24" fill="white"/>
</clipPath>
</defs>
</svg>
