<svg width="22" height="22" viewBox="0 0 22 22" fill="none" xmlns="http://www.w3.org/2000/svg">
<path fill-rule="evenodd" clip-rule="evenodd" d="M18.7782 3.22183C18.3877 2.83131 17.7545 2.83131 17.364 3.22183L11 9.58589L4.63594 3.22188C4.24542 2.83135 3.61225 2.83135 3.22173 3.22188C2.8312 3.6124 2.8312 4.24557 3.22173 4.63609L9.58574 11.0001L3.22188 17.364C2.83135 17.7545 2.83135 18.3877 3.22188 18.7782C3.6124 19.1687 4.24557 19.1687 4.63609 18.7782L11 12.4143L17.3639 18.7782C17.7544 19.1687 18.3876 19.1688 18.7781 18.7782C19.1686 18.3877 19.1686 17.7545 18.7781 17.364L12.4142 11.0001L18.7782 4.63604C19.1688 4.24552 19.1688 3.61235 18.7782 3.22183Z" fill="#728196"/>
</svg>
