<svg width="57" height="52" viewBox="0 0 57 52" fill="none" xmlns="http://www.w3.org/2000/svg">
<g clip-path="url(#clip0_1220_17156)">
<path d="M46.2633 8.48203C46.0903 7.40299 47.6505 6.84712 48.2959 7.05965C48.9413 7.27219 49.2207 9.92075 48.2959 9.92075C47.3711 9.92075 46.4163 9.4172 46.2633 8.48203Z" fill="url(#paint0_linear_1220_17156)"/>
<g style="mix-blend-mode:multiply" opacity="0.18">
<path d="M46.2651 8.48199C46.4182 9.41716 47.3763 9.92072 48.2978 9.92072C49.2193 9.92072 48.9465 7.30486 48.2978 7.05962C48.1438 7.01384 47.9819 6.99937 47.822 7.01711C48.7169 7.09886 48.5073 8.94304 47.7389 8.5899C47.2602 8.36496 46.8724 7.98837 46.6377 7.52066C46.4974 7.6364 46.3895 7.78547 46.3243 7.95373C46.2591 8.12198 46.2387 8.30383 46.2651 8.48199V8.48199Z" fill="#900040"/>
</g>
<path d="M54.2881 21.1099C55.2428 20.6979 57.1723 23.0718 56.986 23.8043C56.7998 24.5367 55.7851 25.1514 55.0466 25.1907C54.308 25.2299 53.5096 21.4434 54.2881 21.1099Z" fill="url(#paint1_linear_1220_17156)"/>
<path d="M1.25385 26.502C0.362285 26.502 -0.176643 24.3047 0.0529005 23.8698C0.282444 23.4349 2.3816 22.3559 2.76085 23.2518C3.1401 24.1478 2.08553 26.502 1.25385 26.502Z" fill="url(#paint2_linear_1220_17156)"/>
<g style="mix-blend-mode:multiply" opacity="0.18">
<path d="M1.25493 26.5018C2.08661 26.5018 3.15116 24.1377 2.76193 23.232C2.63884 22.9541 2.32946 22.8691 1.97682 22.8887C1.94023 23.0652 1.90696 23.2385 1.86704 23.4217C1.26823 26.1356 0.536354 25.5863 0.117188 24.9454C0.303484 25.6942 0.71267 26.5018 1.25493 26.5018Z" fill="#900040"/>
</g>
<path d="M54.9367 20.3678C52.1024 12.0102 44.6239 2.32169 29.6903 1.83775C14.7566 1.35382 6.07057 11.0423 3.20959 18.1869C0.488337 24.9783 -5.20036 47.7395 26.3469 51.6175C57.8942 55.4956 57.7711 28.7255 54.9367 20.3678Z" fill="url(#paint3_linear_1220_17156)"/>
<path style="mix-blend-mode:multiply" opacity="0.39" d="M54.9367 20.3677C54.1569 18.0688 53.0933 15.8725 51.7697 13.828C51.7697 13.828 56.7232 22.735 50.7484 26.9073C44.7736 31.0796 35.2193 25.5732 28.7921 24.8473C22.3648 24.1214 11.6827 30.3014 7.12181 25.1776C2.56088 20.0538 5.93085 13.2885 5.96412 13.2166C4.85167 14.763 3.9272 16.4322 3.20959 18.19C0.488337 24.9781 -5.20036 47.7393 26.3469 51.6174C57.8942 55.4954 57.7711 28.7253 54.9367 20.3677Z" fill="url(#paint4_linear_1220_17156)"/>
<path style="mix-blend-mode:multiply" opacity="0.39" d="M26.3475 51.6174C49.2519 54.4327 55.4596 41.0951 56.0584 30.3636C55.5328 34.2481 54.395 38.512 51.9499 40.5229C46.8667 44.7017 43.3537 44.0805 43.3537 44.0805C43.3537 44.0805 44.4614 47.4255 41.0449 47.88C37.6284 48.3345 35.6822 45.0647 35.6822 45.0647C35.6822 45.0647 33.0009 48.9721 26.903 48.9721C20.8051 48.9721 19.2017 44.0674 19.2017 44.0674C19.2017 44.0674 16.9195 47.0495 15.9049 44.6462C14.8902 42.2428 18.0307 39.1594 18.0307 39.1594C18.0307 39.1594 9.52757 41.445 3.99191 33.4209C1.17418 29.3434 1.6 24.8049 2.16221 21.3225C-0.332828 30.2687 -1.33084 48.2168 26.3475 51.6174Z" fill="url(#paint5_linear_1220_17156)"/>
<g style="mix-blend-mode:multiply" opacity="0.18">
<path d="M19.2011 42.9427C20.3355 43.2893 20.6183 40.5819 19.6469 40.4446C18.6755 40.3072 18.1532 42.6256 19.2011 42.9427Z" fill="#900040"/>
</g>
<g style="mix-blend-mode:multiply" opacity="0.08">
<path d="M41.7852 43.4429C40.245 43.5083 36.2862 39.627 38.7912 38.9469C41.2962 38.2668 45.0654 43.3056 41.7852 43.4429Z" fill="#900040"/>
</g>
<g style="mix-blend-mode:multiply" opacity="0.08">
<path d="M38.0539 43.1617C38.9355 43.8778 36.9295 45.3394 35.7751 44.1133C34.6207 42.8871 37.6081 42.8086 38.0539 43.1617Z" fill="#900040"/>
</g>
<g style="mix-blend-mode:multiply" opacity="0.08">
<path d="M51.7176 30.0825C48.0349 33.1005 50.6098 37.2761 51.9039 37.4396C53.198 37.6031 55.3237 27.1396 51.7176 30.0825Z" fill="#900040"/>
</g>
<g style="mix-blend-mode:multiply" opacity="0.08">
<path d="M54.2554 29.9973C53.2375 28.9935 52.4757 26.0114 54.2554 26.2272C56.0352 26.443 55.4597 31.1777 54.2554 29.9973Z" fill="#900040"/>
</g>
<g style="mix-blend-mode:multiply" opacity="0.18">
<path d="M3.66098 30.1478C2.16063 29.726 4.49266 25.06 5.55721 25.3347C6.62176 25.6093 5.5306 30.6775 3.66098 30.1478Z" fill="#900040"/>
</g>
<path style="mix-blend-mode:screen" opacity="0.36" d="M7.77372 19.0468C11.9288 19.279 8.00992 5.9675 23.4359 2.25952C19.9326 2.86241 16.5853 4.14102 13.5871 6.02161C10.589 7.9022 7.99926 10.3476 5.96731 13.2167C5.96731 13.2167 3.61532 18.8146 7.77372 19.0468Z" fill="url(#paint6_linear_1220_17156)"/>
<path style="mix-blend-mode:screen" opacity="0.36" d="M28.7861 2.47205C40.4297 3.20122 48.0478 9.33868 48.5269 9.74087C44.3352 5.40835 38.234 2.11564 29.691 1.83771C18.0475 1.45841 10.2164 7.25907 5.96484 13.2167C5.96484 13.2167 15.4892 1.63498 28.7861 2.47205Z" fill="url(#paint7_linear_1220_17156)"/>
<path style="mix-blend-mode:screen" opacity="0.36" d="M10.4533 18.1509C11.102 17.098 16.9205 19.5504 17.6324 21.8687C18.3443 24.187 8.78663 20.842 10.4533 18.1509Z" fill="url(#paint8_linear_1220_17156)"/>
<path style="mix-blend-mode:screen" opacity="0.36" d="M41.2688 21.7837C40.9694 20.5869 46.8478 18.2784 49.0068 19.4327C51.1658 20.5869 42.024 24.8508 41.2688 21.7837Z" fill="url(#paint9_linear_1220_17156)"/>
<path style="mix-blend-mode:multiply" opacity="0.39" d="M26.3468 51.6176C57.0191 55.3877 57.7543 30.1937 55.1661 21.1101C55.1661 21.1101 57.4948 40.9023 33.0934 43.443C8.69188 45.9837 0.707758 35.5398 1.27995 25.459C-0.0806745 34.9055 2.4443 48.6813 26.3468 51.6176Z" fill="url(#paint10_linear_1220_17156)"/>
<path style="mix-blend-mode:screen" opacity="0.36" d="M7.12329 25.1778C11.6842 30.3016 22.353 24.1249 28.7869 24.8508C35.2208 25.5767 44.7718 31.0897 50.7432 26.9108C53.1085 25.253 53.7572 22.8562 53.6807 20.5674C53.6142 22.6437 52.879 24.7429 50.7432 26.2372C44.7551 30.4161 35.2141 24.9064 28.7869 24.1772C22.3597 23.4481 11.6842 29.628 7.12329 24.5042C5.62438 22.8111 4.78508 20.6502 4.75467 18.406C4.6275 20.8789 5.47596 23.3046 7.12329 25.1778Z" fill="url(#paint11_linear_1220_17156)"/>
<g style="mix-blend-mode:multiply" opacity="0.36">
<path d="M7.64984 19.0926C8.16548 18.37 5.76692 14.9072 4.7689 14.7045C3.77088 14.5018 2.52004 17.0032 3.12217 18.079C3.72431 19.1547 7.00446 20.0016 7.64984 19.0926Z" fill="#900040"/>
</g>
<g style="mix-blend-mode:multiply" opacity="0.36">
<path d="M9.94982 17.3661C8.92519 16.8037 10.7482 16.0026 11.0709 16.4571C11.3936 16.9116 10.8647 17.8664 9.94982 17.3661Z" fill="#900040"/>
</g>
<g style="mix-blend-mode:multiply" opacity="0.36">
<path d="M8.34642 13.4062C7.48147 12.9778 9.08495 12.0982 9.45421 12.2879C9.82348 12.4775 9.31449 13.8737 8.34642 13.4062Z" fill="#900040"/>
</g>
<g style="mix-blend-mode:multiply" opacity="0.36">
<path d="M13.1769 8.24651C12.2388 8.1713 12.5548 6.50696 13.1769 5.63065C13.799 4.75433 14.5641 4.25405 15.4158 5.63065C16.3007 7.05629 16.1576 8.48193 13.1769 8.24651Z" fill="#900040"/>
</g>
<g style="mix-blend-mode:multiply" opacity="0.36">
<path d="M30.9937 2.8317C29.7228 2.30853 31.659 0.771714 32.2811 0.28778C32.83 -0.134027 31.1833 1.78209 33.6118 1.71342C34.3137 1.6938 34.1906 4.14944 30.9937 2.8317Z" fill="#900040"/>
</g>
<g style="mix-blend-mode:multiply" opacity="0.36">
<path d="M49.5386 19.475C49.0629 18.1148 49.1494 17.5131 50.5367 16.9148C51.9239 16.3164 53.4841 19.8576 53.3976 20.4494C53.3111 21.0413 49.9445 20.6293 49.5386 19.475Z" fill="#900040"/>
</g>
<g style="mix-blend-mode:multiply" opacity="0.36">
<path d="M34.066 17.1987C33.5903 15.8384 33.6768 15.2368 35.064 14.6384C36.4512 14.04 38.0115 17.5812 37.925 18.1731C37.8385 18.7649 34.4718 18.3529 34.066 17.1987Z" fill="#900040"/>
</g>
<g style="mix-blend-mode:multiply" opacity="0.36">
<path d="M44.2954 26.201C45.2335 26.989 47.2528 26.1323 47.346 25.1775C47.4391 24.2228 45.5229 22.7088 45.0007 22.8233C44.4784 22.9377 43.1876 25.2724 44.2954 26.201Z" fill="#900040"/>
</g>
<g style="mix-blend-mode:multiply" opacity="0.36">
<path d="M47.5338 27.0874C47.8432 26.7113 49.7261 27.2705 49.1971 28.0193C48.6682 28.7681 46.7487 28.0422 47.5338 27.0874Z" fill="#900040"/>
</g>
<g style="mix-blend-mode:multiply" opacity="0.36">
<path d="M49.5419 22.8888C48.9997 22.1269 51.3583 21.3127 51.3417 22.4016C51.3251 23.4904 50.2106 23.837 49.5419 22.8888Z" fill="#900040"/>
</g>
<g style="mix-blend-mode:multiply" opacity="0.36">
<path d="M37.643 25.0893C36.7714 24.1378 39.4428 23.4544 39.639 24.504C39.8353 25.5536 38.4747 25.995 37.643 25.0893Z" fill="#900040"/>
</g>
<g style="mix-blend-mode:multiply" opacity="0.36">
<path d="M28.9907 16.0058C28.1191 15.0543 30.7904 14.3709 30.9867 15.4205C31.183 16.4701 29.8223 16.9116 28.9907 16.0058Z" fill="#900040"/>
</g>
<g style="mix-blend-mode:multiply" opacity="0.36">
<path d="M47.7757 14.7142C48.6706 14.8875 49.1364 13.1806 48.3113 13.0073C47.4863 12.834 46.4484 14.4526 47.7757 14.7142Z" fill="#900040"/>
</g>
<g style="mix-blend-mode:multiply" opacity="0.36">
<path d="M13.0117 28.6372C14.0862 27.5712 13.5439 23.7553 12.5825 23.4447C11.6211 23.1341 10.2172 25.7107 10.4567 26.9663C10.6963 28.2219 12.2698 29.3696 13.0117 28.6372Z" fill="#900040"/>
</g>
<g style="mix-blend-mode:multiply" opacity="0.36">
<path d="M23.6843 14.4764C25.2068 14.5868 27.806 11.7026 27.4216 10.7824C27.0373 9.86216 24.1324 10.4871 23.3168 11.4818C22.5013 12.4765 22.6358 14.3979 23.6843 14.4764Z" fill="#900040"/>
</g>
<g style="mix-blend-mode:multiply" opacity="0.36">
<path d="M15.2318 23.4186C14.7129 22.6371 17.3277 21.4926 17.85 22.2905C18.3723 23.0883 16.303 25.0208 15.2318 23.4186Z" fill="#900040"/>
</g>
<g style="mix-blend-mode:multiply" opacity="0.36">
<path d="M7.568 23.6964C6.27391 23.6244 7.01909 21.898 8.1036 22.1236C9.18811 22.3492 8.90867 23.7716 7.568 23.6964Z" fill="#900040"/>
</g>
<g style="mix-blend-mode:multiply" opacity="0.36">
<path d="M11.8122 34.4903C11.2367 34.1633 11.1169 32.5807 12.2713 32.7867C13.4257 32.9927 12.6872 34.9873 11.8122 34.4903Z" fill="#900040"/>
</g>
<g style="mix-blend-mode:multiply" opacity="0.36">
<path d="M24.9177 31.3272C24.3422 31.0002 24.2224 29.4176 25.3768 29.6236C26.5312 29.8296 25.7926 31.8242 24.9177 31.3272Z" fill="#900040"/>
</g>
<g style="mix-blend-mode:multiply" opacity="0.36">
<path d="M24.0505 33.66C23.6278 33.7251 22.9167 32.9804 23.5793 32.6246C24.242 32.2688 24.6931 33.561 24.0505 33.66Z" fill="#900040"/>
</g>
<g style="mix-blend-mode:multiply" opacity="0.36">
<path d="M48.3141 38.3975C49.2888 38.1687 48.7666 36.7005 47.9415 36.8444C47.1165 36.9882 47.3361 38.6232 48.3141 38.3975Z" fill="#900040"/>
</g>
<path d="M7.44937 18.9159C7.96169 18.1933 5.56645 14.7273 4.56511 14.5278C3.56377 14.3284 2.32955 16.8396 2.91838 17.899C3.50721 18.9584 6.80066 19.8249 7.44937 18.9159Z" fill="url(#paint12_linear_1220_17156)"/>
<path d="M9.74448 17.1893C8.71652 16.6269 10.5396 15.8258 10.8656 16.2803C11.1916 16.7348 10.6427 17.6896 9.74448 17.1893Z" fill="#4B2119"/>
<path d="M8.13938 13.2166C7.27444 12.7916 8.87792 11.9087 9.24718 12.1016C9.61645 12.2946 9.11079 13.6973 8.13938 13.2166Z" fill="#4B2119"/>
<path d="M12.9724 8.07007C12.0376 7.99486 12.3503 6.33052 12.9724 5.45421C13.5945 4.5779 14.6125 3.8847 15.2113 5.45421C15.8101 7.02373 15.9665 8.3055 12.9724 8.07007Z" fill="url(#paint13_linear_1220_17156)"/>
<path d="M30.7915 2.65525C29.5173 2.12881 31.4302 0.565833 32.0789 0.111327C32.7276 -0.343178 34.0051 0.699895 34.0583 1.38329C34.1115 2.06668 33.9851 3.97299 30.7915 2.65525Z" fill="url(#paint14_linear_1220_17156)"/>
<path d="M49.3355 19.2919C48.8598 17.9317 48.9463 17.33 50.3335 16.7317C51.7208 16.1333 53.2777 19.6745 53.1912 20.2663C53.1047 20.8582 49.7414 20.4527 49.3355 19.2919Z" fill="url(#paint15_linear_1220_17156)"/>
<path d="M33.8629 17.0156C33.3871 15.6553 33.4736 15.0537 34.8609 14.4553C36.2481 13.8569 37.805 17.3981 37.7185 17.99C37.632 18.5818 34.2687 18.1763 33.8629 17.0156Z" fill="url(#paint16_linear_1220_17156)"/>
<path d="M44.0928 26.0245C45.031 26.8092 47.0503 25.9558 47.1434 25.001C47.2366 24.0462 45.3237 22.5323 44.7981 22.6435C44.2725 22.7547 42.985 25.0959 44.0928 26.0245Z" fill="url(#paint17_linear_1220_17156)"/>
<path d="M47.3265 26.9106C47.6359 26.5346 49.5155 27.0937 48.9899 27.8425C48.4643 28.5913 46.5414 27.8621 47.3265 26.9106Z" fill="#4B2119"/>
<path d="M49.3341 22.7188C48.7951 21.957 51.1505 21.1428 51.1338 22.2316C51.1172 23.3205 50.0027 23.6605 49.3341 22.7188Z" fill="#4B2119"/>
<path d="M37.4397 24.9097C36.5681 23.9614 39.2428 23.2747 39.4358 24.3276C39.6287 25.3805 38.2581 25.8317 37.4397 24.9097Z" fill="#4B2119"/>
<path d="M28.7835 15.8262C27.9119 14.8779 30.5866 14.1912 30.7795 15.2441C30.9725 16.297 29.6018 16.7482 28.7835 15.8262Z" fill="#4B2119"/>
<path d="M47.5741 14.5278C48.4723 14.7011 48.9347 12.9943 48.1097 12.821C47.2847 12.6477 46.2434 14.2761 47.5741 14.5278Z" fill="#4B2119"/>
<path d="M12.8058 28.4475C13.8837 27.3783 13.3381 23.5656 12.38 23.255C11.4219 22.9444 10.0114 25.521 10.2542 26.7766C10.4971 28.0322 12.0673 29.193 12.8058 28.4475Z" fill="url(#paint18_linear_1220_17156)"/>
<path d="M23.6942 14.1989C25.2215 14.3097 27.8159 11.4251 27.4337 10.5074C27.0516 9.58971 24.1423 10.2096 23.3289 11.2068C22.5155 12.204 22.6378 14.1314 23.6942 14.1989Z" fill="url(#paint19_linear_1220_17156)"/>
<path d="M15.0288 23.2418C14.5098 22.4603 17.1213 21.3159 17.6469 22.1137C18.1725 22.9115 16.09 24.8505 15.0288 23.2418Z" fill="url(#paint20_linear_1220_17156)"/>
<path d="M7.3674 23.5199C6.06998 23.4479 6.81516 21.7215 7.89967 21.9471C8.98418 22.1727 8.70474 23.5951 7.3674 23.5199Z" fill="#4B2119"/>
<path d="M11.6035 34.3136C11.0313 33.9866 10.9082 32.404 12.0659 32.61C13.2236 32.816 12.4818 34.8138 11.6035 34.3136Z" fill="#4B2119"/>
<path d="M24.7051 31.1505C24.1329 30.8235 24.0098 29.2409 25.1675 29.4469C26.3252 29.6529 25.5833 31.6508 24.7051 31.1505Z" fill="#4B2119"/>
<path d="M23.8739 33.6536C23.4529 33.7173 22.74 32.974 23.4044 32.6169C24.0687 32.2598 24.5195 33.5549 23.8739 33.6536Z" fill="#4B2119"/>
<path d="M48.105 38.221C49.0831 37.9921 48.5608 36.524 47.7358 36.6679C46.9107 36.8117 47.127 38.4466 48.105 38.221Z" fill="#4B2119"/>
<g style="mix-blend-mode:multiply" opacity="0.18">
<path d="M2.91657 17.899C3.51871 18.9617 6.79885 19.825 7.44756 18.916C7.95988 18.1933 5.56464 14.7273 4.5633 14.5279C4.49057 14.5164 4.41646 14.5164 4.34373 14.5279C4.88266 14.4821 5.18539 15.4107 5.79751 17.3301C6.40963 19.2495 4.16409 17.7356 3.57526 17.3301C2.98643 16.9246 3.06295 15.9273 3.06627 15.911C2.76021 16.6107 2.64045 17.4086 2.91657 17.899Z" fill="#900040"/>
</g>
<g style="mix-blend-mode:multiply" opacity="0.18">
<path d="M12.9759 8.07003C15.97 8.30546 15.8169 7.01388 15.2148 5.45417C15.118 5.1302 14.9202 4.84426 14.6493 4.63672C14.7 5.04024 14.7089 5.4478 14.6759 5.85309C14.6759 7.04658 13.8442 7.20353 13.1988 7.05312C12.5534 6.90271 12.7397 5.86944 12.7397 5.85636C12.2873 6.75883 12.1642 8.00464 12.9759 8.07003Z" fill="#900040"/>
</g>
<g style="mix-blend-mode:multiply" opacity="0.18">
<path d="M30.7899 2.6551C33.9835 3.96303 34.1166 2.06326 34.0567 1.38314C34.0101 0.810916 33.1086 0 32.4333 0C33.2583 0.173301 33.2151 0.752059 33.1851 1.80494C33.1552 2.85783 31.9542 2.24637 31.1891 1.90631C30.6369 1.6578 30.6502 1.45834 30.7034 1.36679C30.3108 1.88669 30.1611 2.39678 30.7899 2.6551Z" fill="#900040"/>
</g>
<g style="mix-blend-mode:multiply" opacity="0.18">
<path d="M53.1905 20.2731C53.277 19.678 51.7168 16.1433 50.3329 16.7384C51.271 16.4408 51.9796 18.3112 52.3489 19.4C52.7181 20.4889 50.8718 19.5831 50.1965 19.279C49.7261 19.0188 49.3398 18.6335 49.082 18.1673C49.1095 18.5524 49.1947 18.9314 49.3349 19.2921C49.7407 20.4529 53.104 20.8682 53.1905 20.2731Z" fill="#900040"/>
</g>
<g style="mix-blend-mode:multiply" opacity="0.18">
<path d="M37.7179 17.9962C37.8044 17.4011 36.2441 13.8664 34.8602 14.4615C35.7984 14.164 36.5069 16.0343 36.8762 17.1232C37.2455 18.212 35.3992 17.3063 34.7238 17.0022C34.2534 16.742 33.8671 16.3566 33.6094 15.8904C33.6369 16.2756 33.7221 16.6546 33.8622 17.0153C34.2681 18.176 37.6314 18.5913 37.7179 17.9962Z" fill="#900040"/>
</g>
<g style="mix-blend-mode:multiply" opacity="0.18">
<path d="M47.1448 25.0012C47.2279 24.1543 45.7276 22.866 45.0223 22.6665C45.162 22.8365 45.325 23.1406 45.6045 23.5788C46.2199 24.5597 45.9372 25.3641 44.9624 25.4557C43.9877 25.5472 43.6683 24.926 43.6617 24.9129C43.6431 25.1183 43.6724 25.3252 43.7473 25.5178C43.8222 25.7105 43.9409 25.8838 44.0942 26.0246C45.0323 26.8126 47.0516 25.9559 47.1448 25.0012Z" fill="#900040"/>
</g>
<g style="mix-blend-mode:multiply" opacity="0.18">
<path d="M10.2571 26.7898C10.4966 28.0454 12.0701 29.1931 12.8086 28.4606C13.8865 27.3914 13.3409 23.5788 12.3828 23.2682C12.3371 23.2568 12.2903 23.2502 12.2431 23.2485C12.5924 23.3336 12.6589 23.7815 12.6623 25.0339C12.6623 26.5968 11.9969 27.6497 11.1852 26.9107C10.9452 26.6626 10.7657 26.3642 10.6602 26.0379C10.5547 25.7116 10.5261 25.3661 10.5764 25.0273C10.3098 25.5756 10.1995 26.1847 10.2571 26.7898V26.7898Z" fill="#900040"/>
</g>
<g style="mix-blend-mode:multiply" opacity="0.18">
<path d="M23.3215 11.2157C22.5059 12.2104 22.6405 14.1318 23.6868 14.2079C25.214 14.3186 27.8085 11.4341 27.4263 10.5163C27.4054 10.4748 27.38 10.4355 27.3507 10.3992C27.5119 10.7154 27.2086 11.0562 26.2421 11.8723C25.0332 12.8876 23.7866 13.0745 23.8309 11.9879C23.8668 11.6474 23.981 11.3193 24.1649 11.0285C24.3487 10.7378 24.5974 10.4919 24.8921 10.3094C24.2948 10.4664 23.752 10.7796 23.3215 11.2157V11.2157Z" fill="#900040"/>
</g>
<g style="mix-blend-mode:multiply" opacity="0.18">
<path d="M15.0288 23.242C16.09 24.8442 18.1692 22.915 17.6469 22.1139C17.573 22.0233 17.4777 21.9518 17.3693 21.9057C17.2609 21.8595 17.1426 21.8401 17.0248 21.8491C18.2424 21.9406 16.2131 23.3041 15.6276 23.0099C15.0421 22.7156 15.4713 22.3559 15.4812 22.3395C15.0754 22.6109 14.8359 22.951 15.0288 23.242Z" fill="#900040"/>
</g>
<path style="mix-blend-mode:screen" opacity="0.17" d="M5.76731 17.2417C5.17516 15.3877 4.87243 14.482 4.34348 14.5278C4.2026 14.5616 4.07091 14.6252 3.95758 14.7142C3.54839 15.1425 6.16985 19.3737 5.76731 17.2417Z" fill="url(#paint21_linear_1220_17156)"/>
<path style="mix-blend-mode:screen" opacity="0.17" d="M12.9729 5.44755C12.8843 5.57574 12.8053 5.71017 12.7367 5.84974C12.6786 6.17017 12.7192 6.50035 12.8532 6.79799C12.9659 6.93769 13.1269 7.03191 13.3056 7.06285C14.2105 7.1871 14.44 4.53854 13.7148 4.68242C13.4184 4.88662 13.1662 5.14671 12.9729 5.44755V5.44755Z" fill="url(#paint22_linear_1220_17156)"/>
<path style="mix-blend-mode:screen" opacity="0.17" d="M33.1952 1.4224C33.2119 0.618024 33.1487 0.163518 32.4334 2.70544e-05C32.307 -0.00639597 32.182 0.0280602 32.0774 0.0981218L31.9943 0.156979C31.4321 0.712849 33.1786 3.15868 33.1952 1.4224Z" fill="url(#paint23_linear_1220_17156)"/>
<path style="mix-blend-mode:screen" opacity="0.17" d="M49.0828 18.1671C49.3406 18.6333 49.7269 19.0186 50.1973 19.2788L50.4002 19.3704C51.9272 19.802 51.9738 19.6614 50.8626 18.6085C49.7515 17.5556 49.4787 17.124 49.1261 17.7878C49.0929 17.9115 49.0783 18.0393 49.0828 18.1671Z" fill="url(#paint24_linear_1220_17156)"/>
<path style="mix-blend-mode:screen" opacity="0.17" d="M33.6102 15.8907C33.8679 16.3569 34.2542 16.7422 34.7246 17.0025L34.9276 17.094C36.4545 17.5256 36.5011 17.385 35.39 16.3322C34.2789 15.2793 34.0061 14.8477 33.6534 15.5114C33.6202 15.6351 33.6057 15.7629 33.6102 15.8907Z" fill="url(#paint25_linear_1220_17156)"/>
<path style="mix-blend-mode:screen" opacity="0.17" d="M45.7927 25.0108C45.8719 24.8868 45.9177 24.745 45.9258 24.5988C45.9275 24.5814 45.9275 24.5639 45.9258 24.5465C45.9127 24.195 45.7973 23.8545 45.5931 23.5656C45.3137 23.1274 45.1507 22.8233 45.011 22.6533C44.939 22.6308 44.8632 22.623 44.7881 22.6304C44.6889 22.6654 44.6006 22.7251 44.5319 22.8037C44.1959 23.631 45.3802 25.2659 45.7927 25.0108Z" fill="url(#paint26_linear_1220_17156)"/>
<path style="mix-blend-mode:screen" opacity="0.17" d="M12.5064 26.2273C12.6119 25.8381 12.6633 25.4366 12.6594 25.0339C12.6594 23.7815 12.5895 23.3336 12.2402 23.2485C12.056 23.2507 11.8774 23.3115 11.7312 23.4218C11.2555 23.8894 11.9308 27.6399 12.5064 26.2273Z" fill="url(#paint27_linear_1220_17156)"/>
<path style="mix-blend-mode:screen" opacity="0.17" d="M25.2182 12.5328C25.5878 12.3588 25.9317 12.1364 26.2407 11.8718C27.2094 11.0582 27.5105 10.715 27.3493 10.3988C27.2279 10.2625 27.0649 10.1685 26.8846 10.131C26.2139 10.0793 23.7517 13.0205 25.2182 12.5328Z" fill="url(#paint28_linear_1220_17156)"/>
<path style="mix-blend-mode:screen" opacity="0.17" d="M15.6349 23.0097C15.668 23.0233 15.7026 23.0332 15.738 23.0391H15.7746C16.929 22.6336 16.6761 22.0385 16.1073 22.032C15.8833 22.1142 15.6709 22.2241 15.4752 22.359C15.4752 22.359 15.046 22.7154 15.6349 23.0097Z" fill="url(#paint29_linear_1220_17156)"/>
</g>
<defs>
<linearGradient id="paint0_linear_1220_17156" x1="46.25" y1="8.46568" x2="48.8914" y2="8.46568" gradientUnits="userSpaceOnUse">
<stop stop-color="#8B3032"/>
<stop offset="0.01" stop-color="#8A3032"/>
<stop offset="0.44" stop-color="#622722"/>
<stop offset="0.79" stop-color="#492119"/>
<stop offset="1" stop-color="#401F15"/>
</linearGradient>
<linearGradient id="paint1_linear_1220_17156" x1="53.9687" y1="23.1274" x2="56.9994" y2="23.1274" gradientUnits="userSpaceOnUse">
<stop stop-color="#8B3032"/>
<stop offset="0.01" stop-color="#8A3032"/>
<stop offset="0.44" stop-color="#622722"/>
<stop offset="0.79" stop-color="#492119"/>
<stop offset="1" stop-color="#401F15"/>
</linearGradient>
<linearGradient id="paint2_linear_1220_17156" x1="-0.000326993" y1="24.6971" x2="2.84402" y2="24.6971" gradientUnits="userSpaceOnUse">
<stop stop-color="#8B3032"/>
<stop offset="0.01" stop-color="#8A3032"/>
<stop offset="0.44" stop-color="#622722"/>
<stop offset="0.79" stop-color="#492119"/>
<stop offset="1" stop-color="#401F15"/>
</linearGradient>
<linearGradient id="paint3_linear_1220_17156" x1="21.6762" y1="6.83077" x2="34.8379" y2="49.8793" gradientUnits="userSpaceOnUse">
<stop stop-color="#E59540"/>
<stop offset="1" stop-color="#D64531"/>
</linearGradient>
<linearGradient id="paint4_linear_1220_17156" x1="25.5152" y1="4.73136" x2="30.8048" y2="48.1834" gradientUnits="userSpaceOnUse">
<stop stop-color="#900040"/>
<stop offset="0.2" stop-color="#A9386A"/>
<stop offset="0.6" stop-color="#D7A2B9"/>
<stop offset="0.87" stop-color="#F4E5EC"/>
<stop offset="1" stop-color="white"/>
</linearGradient>
<linearGradient id="paint5_linear_1220_17156" x1="13.2568" y1="10.1986" x2="38.7447" y2="49.8751" gradientUnits="userSpaceOnUse">
<stop stop-color="#900040"/>
<stop offset="0.12" stop-color="#920443"/>
<stop offset="0.24" stop-color="#97114D"/>
<stop offset="0.37" stop-color="#A0265C"/>
<stop offset="0.5" stop-color="#AD4372"/>
<stop offset="0.63" stop-color="#BE698F"/>
<stop offset="0.76" stop-color="#D297B1"/>
<stop offset="0.89" stop-color="#E9CDDA"/>
<stop offset="1" stop-color="white"/>
</linearGradient>
<linearGradient id="paint6_linear_1220_17156" x1="10.9474" y1="4.67919" x2="17.7009" y2="15.1872" gradientUnits="userSpaceOnUse">
<stop stop-color="#FFFFB1"/>
<stop offset="0.08" stop-color="#DBDB98"/>
<stop offset="0.22" stop-color="#A2A270"/>
<stop offset="0.36" stop-color="#70704E"/>
<stop offset="0.5" stop-color="#484832"/>
<stop offset="0.64" stop-color="#29291C"/>
<stop offset="0.77" stop-color="#12120D"/>
<stop offset="0.89" stop-color="#050503"/>
<stop offset="1"/>
</linearGradient>
<linearGradient id="paint7_linear_1220_17156" x1="20.9484" y1="2.00774" x2="30.5916" y2="17.0182" gradientUnits="userSpaceOnUse">
<stop stop-color="#FFFFB1"/>
<stop offset="0.11" stop-color="#D4D493"/>
<stop offset="0.28" stop-color="#959567"/>
<stop offset="0.45" stop-color="#606042"/>
<stop offset="0.61" stop-color="#363626"/>
<stop offset="0.75" stop-color="#181811"/>
<stop offset="0.87" stop-color="#060604"/>
<stop offset="0.95"/>
</linearGradient>
<linearGradient id="paint8_linear_1220_17156" x1="16.8373" y1="16.964" x2="12.1626" y2="22.5989" gradientUnits="userSpaceOnUse">
<stop stop-color="#FFFFB1"/>
<stop offset="0.08" stop-color="#DBDB98"/>
<stop offset="0.22" stop-color="#A2A270"/>
<stop offset="0.36" stop-color="#70704E"/>
<stop offset="0.5" stop-color="#484832"/>
<stop offset="0.64" stop-color="#29291C"/>
<stop offset="0.77" stop-color="#12120D"/>
<stop offset="0.89" stop-color="#050503"/>
<stop offset="1"/>
</linearGradient>
<linearGradient id="paint9_linear_1220_17156" x1="44.9261" y1="16.5087" x2="45.5285" y2="23.7497" gradientUnits="userSpaceOnUse">
<stop stop-color="#FFFFB1"/>
<stop offset="0.08" stop-color="#DBDB98"/>
<stop offset="0.22" stop-color="#A2A270"/>
<stop offset="0.36" stop-color="#70704E"/>
<stop offset="0.5" stop-color="#484832"/>
<stop offset="0.64" stop-color="#29291C"/>
<stop offset="0.77" stop-color="#12120D"/>
<stop offset="0.89" stop-color="#050503"/>
<stop offset="1"/>
</linearGradient>
<linearGradient id="paint10_linear_1220_17156" x1="22.3481" y1="8.96925" x2="35.5066" y2="52.0079" gradientUnits="userSpaceOnUse">
<stop offset="0.59" stop-color="white"/>
<stop offset="0.64" stop-color="#FDFAFB"/>
<stop offset="0.69" stop-color="#F6EBF0"/>
<stop offset="0.74" stop-color="#ECD3DE"/>
<stop offset="0.8" stop-color="#DDB2C5"/>
<stop offset="0.86" stop-color="#CA86A5"/>
<stop offset="0.92" stop-color="#B3517D"/>
<stop offset="0.98" stop-color="#99144F"/>
<stop offset="1" stop-color="#900040"/>
</linearGradient>
<linearGradient id="paint11_linear_1220_17156" x1="27.1834" y1="3.85529" x2="30.1224" y2="27.9859" gradientUnits="userSpaceOnUse">
<stop offset="0.47" stop-color="#FFFFB1"/>
<stop offset="0.51" stop-color="#DBDB98"/>
<stop offset="0.59" stop-color="#A2A270"/>
<stop offset="0.66" stop-color="#70704E"/>
<stop offset="0.74" stop-color="#484832"/>
<stop offset="0.81" stop-color="#29291C"/>
<stop offset="0.88" stop-color="#12120D"/>
<stop offset="0.94" stop-color="#050503"/>
<stop offset="1"/>
</linearGradient>
<linearGradient id="paint12_linear_1220_17156" x1="3.11466" y1="15.4957" x2="6.9594" y2="19.4073" gradientUnits="userSpaceOnUse">
<stop stop-color="#8B3032"/>
<stop offset="0.01" stop-color="#8A3032"/>
<stop offset="0.44" stop-color="#622722"/>
<stop offset="0.79" stop-color="#492119"/>
<stop offset="1" stop-color="#401F15"/>
</linearGradient>
<linearGradient id="paint13_linear_1220_17156" x1="12.8427" y1="5.49018" x2="15.1182" y2="7.80196" gradientUnits="userSpaceOnUse">
<stop stop-color="#8B3032"/>
<stop offset="0.01" stop-color="#8A3032"/>
<stop offset="0.44" stop-color="#622722"/>
<stop offset="0.79" stop-color="#492119"/>
<stop offset="1" stop-color="#401F15"/>
</linearGradient>
<linearGradient id="paint14_linear_1220_17156" x1="31.2705" y1="0.758752" x2="33.4414" y2="2.96736" gradientUnits="userSpaceOnUse">
<stop stop-color="#8B3032"/>
<stop offset="0.01" stop-color="#8A3032"/>
<stop offset="0.44" stop-color="#622722"/>
<stop offset="0.79" stop-color="#492119"/>
<stop offset="1" stop-color="#401F15"/>
</linearGradient>
<linearGradient id="paint15_linear_1220_17156" x1="48.5105" y1="17.196" x2="52.0317" y2="19.2992" gradientUnits="userSpaceOnUse">
<stop stop-color="#8B3032"/>
<stop offset="0.01" stop-color="#8A3032"/>
<stop offset="0.44" stop-color="#622722"/>
<stop offset="0.79" stop-color="#492119"/>
<stop offset="1" stop-color="#401F15"/>
</linearGradient>
<linearGradient id="paint16_linear_1220_17156" x1="33.0378" y1="14.9196" x2="36.5591" y2="17.0228" gradientUnits="userSpaceOnUse">
<stop stop-color="#8B3032"/>
<stop offset="0.01" stop-color="#8A3032"/>
<stop offset="0.44" stop-color="#622722"/>
<stop offset="0.79" stop-color="#492119"/>
<stop offset="1" stop-color="#401F15"/>
</linearGradient>
<linearGradient id="paint17_linear_1220_17156" x1="43.4541" y1="23.0588" x2="45.9388" y2="25.5867" gradientUnits="userSpaceOnUse">
<stop stop-color="#8B3032"/>
<stop offset="0.01" stop-color="#8A3032"/>
<stop offset="0.44" stop-color="#622722"/>
<stop offset="0.79" stop-color="#492119"/>
<stop offset="1" stop-color="#401F15"/>
</linearGradient>
<linearGradient id="paint18_linear_1220_17156" x1="9.94483" y1="23.9253" x2="13.0115" y2="27.0453" gradientUnits="userSpaceOnUse">
<stop stop-color="#8B3032"/>
<stop offset="0.01" stop-color="#8A3032"/>
<stop offset="0.44" stop-color="#622722"/>
<stop offset="0.79" stop-color="#492119"/>
<stop offset="1" stop-color="#401F15"/>
</linearGradient>
<linearGradient id="paint19_linear_1220_17156" x1="25.3333" y1="9.12328" x2="24.9999" y2="13.4484" gradientUnits="userSpaceOnUse">
<stop stop-color="#8B3032"/>
<stop offset="0.01" stop-color="#8A3032"/>
<stop offset="0.44" stop-color="#622722"/>
<stop offset="0.79" stop-color="#492119"/>
<stop offset="1" stop-color="#401F15"/>
</linearGradient>
<linearGradient id="paint20_linear_1220_17156" x1="15.7008" y1="22.0712" x2="17.0869" y2="23.4848" gradientUnits="userSpaceOnUse">
<stop stop-color="#8B3032"/>
<stop offset="0.01" stop-color="#8A3032"/>
<stop offset="0.44" stop-color="#622722"/>
<stop offset="0.79" stop-color="#492119"/>
<stop offset="1" stop-color="#401F15"/>
</linearGradient>
<linearGradient id="paint21_linear_1220_17156" x1="3.74467" y1="14.8711" x2="7.59268" y2="18.7861" gradientUnits="userSpaceOnUse">
<stop stop-color="#FFFFB1"/>
<stop offset="0.01" stop-color="#F8F8AC"/>
<stop offset="0.13" stop-color="#BEBE84"/>
<stop offset="0.25" stop-color="#8C8C61"/>
<stop offset="0.37" stop-color="#616143"/>
<stop offset="0.49" stop-color="#3E3E2B"/>
<stop offset="0.62" stop-color="#232318"/>
<stop offset="0.74" stop-color="#0F0F0B"/>
<stop offset="0.87" stop-color="#040403"/>
<stop offset="1"/>
</linearGradient>
<linearGradient id="paint22_linear_1220_17156" x1="12.9763" y1="5.356" x2="15.2517" y2="7.67105" gradientUnits="userSpaceOnUse">
<stop stop-color="#FFFFB1"/>
<stop offset="0.01" stop-color="#F8F8AC"/>
<stop offset="0.13" stop-color="#BEBE84"/>
<stop offset="0.25" stop-color="#8C8C61"/>
<stop offset="0.37" stop-color="#616143"/>
<stop offset="0.49" stop-color="#3E3E2B"/>
<stop offset="0.62" stop-color="#232318"/>
<stop offset="0.74" stop-color="#0F0F0B"/>
<stop offset="0.87" stop-color="#040403"/>
<stop offset="1"/>
</linearGradient>
<linearGradient id="paint23_linear_1220_17156" x1="31.8612" y1="0.176598" x2="34.0321" y2="2.38521" gradientUnits="userSpaceOnUse">
<stop stop-color="#FFFFB1"/>
<stop offset="0.01" stop-color="#F8F8AC"/>
<stop offset="0.13" stop-color="#BEBE84"/>
<stop offset="0.25" stop-color="#8C8C61"/>
<stop offset="0.37" stop-color="#616143"/>
<stop offset="0.49" stop-color="#3E3E2B"/>
<stop offset="0.62" stop-color="#232318"/>
<stop offset="0.74" stop-color="#0F0F0B"/>
<stop offset="0.87" stop-color="#040403"/>
<stop offset="1"/>
</linearGradient>
<linearGradient id="paint24_linear_1220_17156" x1="48.3343" y1="17.487" x2="51.8556" y2="19.5902" gradientUnits="userSpaceOnUse">
<stop stop-color="#FFFFB1"/>
<stop offset="0.01" stop-color="#F8F8AC"/>
<stop offset="0.13" stop-color="#BEBE84"/>
<stop offset="0.25" stop-color="#8C8C61"/>
<stop offset="0.37" stop-color="#616143"/>
<stop offset="0.49" stop-color="#3E3E2B"/>
<stop offset="0.62" stop-color="#232318"/>
<stop offset="0.74" stop-color="#0F0F0B"/>
<stop offset="0.87" stop-color="#040403"/>
<stop offset="1"/>
</linearGradient>
<linearGradient id="paint25_linear_1220_17156" x1="32.8617" y1="15.2106" x2="36.3829" y2="17.3138" gradientUnits="userSpaceOnUse">
<stop stop-color="#FFFFB1"/>
<stop offset="0.01" stop-color="#F8F8AC"/>
<stop offset="0.13" stop-color="#BEBE84"/>
<stop offset="0.25" stop-color="#8C8C61"/>
<stop offset="0.37" stop-color="#616143"/>
<stop offset="0.49" stop-color="#3E3E2B"/>
<stop offset="0.62" stop-color="#232318"/>
<stop offset="0.74" stop-color="#0F0F0B"/>
<stop offset="0.87" stop-color="#040403"/>
<stop offset="1"/>
</linearGradient>
<linearGradient id="paint26_linear_1220_17156" x1="43.9564" y1="22.565" x2="46.4411" y2="25.0897" gradientUnits="userSpaceOnUse">
<stop stop-color="#FFFFB1"/>
<stop offset="0.01" stop-color="#F8F8AC"/>
<stop offset="0.13" stop-color="#BEBE84"/>
<stop offset="0.25" stop-color="#8C8C61"/>
<stop offset="0.37" stop-color="#616143"/>
<stop offset="0.49" stop-color="#3E3E2B"/>
<stop offset="0.62" stop-color="#232318"/>
<stop offset="0.74" stop-color="#0F0F0B"/>
<stop offset="0.87" stop-color="#040403"/>
<stop offset="1"/>
</linearGradient>
<linearGradient id="paint27_linear_1220_17156" x1="10.6002" y1="23.2812" x2="13.6668" y2="26.4012" gradientUnits="userSpaceOnUse">
<stop stop-color="#FFFFB1"/>
<stop offset="0.01" stop-color="#F8F8AC"/>
<stop offset="0.13" stop-color="#BEBE84"/>
<stop offset="0.25" stop-color="#8C8C61"/>
<stop offset="0.37" stop-color="#616143"/>
<stop offset="0.49" stop-color="#3E3E2B"/>
<stop offset="0.62" stop-color="#232318"/>
<stop offset="0.74" stop-color="#0F0F0B"/>
<stop offset="0.87" stop-color="#040403"/>
<stop offset="1"/>
</linearGradient>
<linearGradient id="paint28_linear_1220_17156" x1="26.2585" y1="9.19451" x2="25.9251" y2="13.5197" gradientUnits="userSpaceOnUse">
<stop stop-color="#FFFFB1"/>
<stop offset="0.01" stop-color="#F8F8AC"/>
<stop offset="0.13" stop-color="#BEBE84"/>
<stop offset="0.25" stop-color="#8C8C61"/>
<stop offset="0.37" stop-color="#616143"/>
<stop offset="0.49" stop-color="#3E3E2B"/>
<stop offset="0.62" stop-color="#232318"/>
<stop offset="0.74" stop-color="#0F0F0B"/>
<stop offset="0.87" stop-color="#040403"/>
<stop offset="1"/>
</linearGradient>
<linearGradient id="paint29_linear_1220_17156" x1="15.6049" y1="22.166" x2="16.9911" y2="23.5764" gradientUnits="userSpaceOnUse">
<stop stop-color="#FFFFB1"/>
<stop offset="0.01" stop-color="#F8F8AC"/>
<stop offset="0.13" stop-color="#BEBE84"/>
<stop offset="0.25" stop-color="#8C8C61"/>
<stop offset="0.37" stop-color="#616143"/>
<stop offset="0.49" stop-color="#3E3E2B"/>
<stop offset="0.62" stop-color="#232318"/>
<stop offset="0.74" stop-color="#0F0F0B"/>
<stop offset="0.87" stop-color="#040403"/>
<stop offset="1"/>
</linearGradient>
<clipPath id="clip0_1220_17156">
<rect width="57" height="52" fill="white"/>
</clipPath>
</defs>
</svg>
