<svg width="32" height="32" viewBox="0 0 32 32" fill="none" xmlns="http://www.w3.org/2000/svg">
<path d="M13.793 6.06894L14.2991 0.50175C14.3249 0.217562 14.5632 0 14.8485 0H17.1512C17.4366 0 17.6748 0.217563 17.7007 0.501813L18.2067 6.069" fill="#95A6C8"/>
<path d="M16.5037 0H14.8485C14.5631 0 14.3249 0.217562 14.299 0.50175L13.793 6.069H15.4482L15.9542 0.50175C15.98 0.217562 16.2183 0 16.5037 0Z" fill="#818FAC"/>
<path d="M22.705 6.52915C22.6573 5.95721 22.1792 5.51733 21.6054 5.51733H10.3946C9.82076 5.51733 9.34264 5.95721 9.29502 6.52915L9.10352 8.82771H22.8966L22.705 6.52915Z" fill="#E4EAF8"/>
<path d="M13.4291 5.51733H10.3946C9.82076 5.51733 9.34264 5.95721 9.29502 6.52915L9.10352 8.82771H12.138L12.3295 6.52915C12.3771 5.95721 12.8553 5.51733 13.4291 5.51733Z" fill="#D5DCED"/>
<path d="M22.7088 7.72412H9.29119C8.71731 7.72412 8.23919 8.16406 8.19156 8.73593L8 11.0345H24L23.8085 8.73593C23.7608 8.164 23.2827 7.72412 22.7088 7.72412Z" fill="#E4EAF8"/>
<path d="M12.3256 7.72412H9.29113C8.71725 7.72412 8.23912 8.164 8.1915 8.73593L8 11.0345H11.0345L11.226 8.73593C11.2736 8.164 11.7518 7.72412 12.3256 7.72412Z" fill="#D5DCED"/>
<path d="M23.8121 9.93115H8.18761C7.61373 9.93115 7.13561 10.3711 7.08798 10.943L6.89648 13.2415H25.1034L24.9119 10.943C24.864 10.371 24.386 9.93115 23.8121 9.93115Z" fill="#E4EAF8"/>
<path d="M11.2221 9.93115H8.18761C7.61373 9.93115 7.13561 10.371 7.08798 10.943L6.89648 13.2415H9.93098L10.1225 10.943C10.1701 10.371 10.6483 9.93115 11.2221 9.93115Z" fill="#D5DCED"/>
<path d="M24.9417 12.1379H7.055C6.49275 12.1379 6.02038 12.5607 5.95831 13.1195L5.51562 17.1034H26.4811L26.0384 13.1195C25.9764 12.5607 25.504 12.1379 24.9417 12.1379Z" fill="#E4EAF8"/>
<path d="M10.3654 12.1379H7.055C6.49275 12.1379 6.02038 12.5607 5.95831 13.1195L5.51562 17.1034H8.826L9.26862 13.1195C9.33081 12.5607 9.80313 12.1379 10.3654 12.1379Z" fill="#D5DCED"/>
<path d="M27.8938 16.9992C25.4377 16.6238 20.1072 15.4643 15.9998 12.1379C11.8924 15.4643 6.56186 16.6238 4.10579 16.9992C3.41604 17.1046 3.00117 17.8279 3.24342 18.4901L8.03836 31.5959C8.09767 31.758 8.23342 31.8793 8.40092 31.9133C8.65804 31.9653 8.96617 32 9.37736 32C11.0321 32 11.0321 31.4415 12.6869 31.4415C14.3407 31.4415 14.3407 32 15.9945 32C17.6497 32 17.6497 31.4415 19.305 31.4415C20.9615 31.4415 20.9615 32 22.6179 32C23.0314 32 23.3408 31.9649 23.599 31.9126C23.7664 31.8786 23.902 31.7573 23.9614 31.5953L28.7561 18.4902C28.9984 17.828 28.5835 17.1046 27.8938 16.9992Z" fill="#95A6C8"/>
<path d="M9.37735 32C11.0321 32 11.0321 31.4415 12.6869 31.4415C14.3424 31.4415 14.3407 32.0011 15.9996 32C15.9997 31.9999 15.9997 31.9999 15.9997 31.9999L15.9998 12.1379C11.8924 15.4643 6.56185 16.6238 4.10579 16.9992C3.41604 17.1046 3.00117 17.8279 3.24342 18.4901L8.03835 31.5959C8.09767 31.758 8.23342 31.8793 8.40092 31.9132C8.65804 31.9652 8.96629 32 9.37735 32Z" fill="#818FAC"/>
<path d="M6.98828 12.1379H25.0112L24.9193 11.0344H7.08022L6.98828 12.1379Z" fill="#95A6C8"/>
<path d="M10.1147 11.0344H7.08022L6.98828 12.1379H10.0227L10.1147 11.0344Z" fill="#818FAC"/>
<path d="M8.0918 9.93114H23.9079L23.8159 8.82764H8.18373L8.0918 9.93114Z" fill="#95A6C8"/>
<path d="M8.0918 9.93114H11.1263L11.2182 8.82764H8.18373L8.0918 9.93114Z" fill="#818FAC"/>
<path d="M9.19531 7.72404H22.8045L22.7126 6.62061H9.28725L9.19531 7.72404Z" fill="#95A6C8"/>
<path d="M9.19531 7.72404H12.2298L12.3217 6.62061H9.28725L9.19531 7.72404Z" fill="#818FAC"/>
<path d="M7.37891 29.7932L8.03847 31.596C8.09778 31.7582 8.23353 31.8795 8.40103 31.9133C8.65816 31.9653 8.96628 32.0001 9.37747 32.0001C11.0322 32.0001 11.0322 31.4415 12.687 31.4415C14.3408 31.4415 14.3408 32.0001 15.9946 32.0001C17.6498 32.0001 17.6498 31.4415 19.3052 31.4415C20.9616 31.4415 20.9616 32.0001 22.618 32.0001C23.0315 32.0001 23.3409 31.965 23.5991 31.9127C23.7665 31.8787 23.9022 31.7574 23.9615 31.5953L24.6208 29.7932H7.37891V29.7932Z" fill="#FFC93F"/>
<path d="M7.37891 29.7932L8.03847 31.596C8.09778 31.7582 8.23353 31.8795 8.40103 31.9133C8.65816 31.9653 8.96628 32.0001 9.37747 32.0001C11.0322 32.0001 11.0322 31.4415 12.687 31.4415C14.3425 31.4415 14.3408 32.0012 15.9998 32.0001C15.9998 32 15.9998 32 15.9998 32V29.7932H7.37891Z" fill="#DDB54C"/>
<path d="M14.8502 0C14.5648 0 14.3267 0.217562 14.3008 0.50175L14.2461 1.1035H17.757L17.7023 0.50175C17.6765 0.217562 17.4383 0 17.1529 0H14.8502Z" fill="#FFC93F"/>
<path d="M14.3008 0.50175L14.2461 1.1035H15.9013L15.956 0.50175C15.9818 0.217562 16.2201 0 16.5054 0H14.8502C14.5649 0 14.3267 0.217562 14.3008 0.50175Z" fill="#DDB54C"/>
</svg>
