<svg width="22" height="23" viewBox="0 0 22 23" fill="none" xmlns="http://www.w3.org/2000/svg">
<path d="M18.75 0.5C20.5449 0.5 22 1.95507 22 3.75V19.25C22 21.0449 20.5449 22.5 18.75 22.5H3.25C1.45507 22.5 0 21.0449 0 19.25V3.75C0 1.95507 1.45507 0.5 3.25 0.5H18.75ZM20.5 7.003H1.5V19.25C1.5 20.2165 2.2835 21 3.25 21H18.75C19.7165 21 20.5 20.2165 20.5 19.25V7.003ZM13.9941 9.73438C14.7949 9.73438 15.4297 9.94726 15.8984 10.373C16.3672 10.7988 16.6016 11.375 16.6016 12.1016C16.6016 12.5195 16.4941 12.8916 16.2793 13.2178C16.0645 13.5439 15.7715 13.8008 15.4004 13.9883C15.8457 14.1953 16.1885 14.4785 16.4287 14.8379C16.6689 15.1973 16.7891 15.6035 16.7891 16.0566C16.7891 16.8066 16.5352 17.4014 16.0273 17.8408C15.5195 18.2803 14.8438 18.5 14 18.5C13.1523 18.5 12.4736 18.2793 11.9639 17.8379C11.4541 17.3965 11.1992 16.8027 11.1992 16.0566C11.1992 15.5996 11.3203 15.1895 11.5625 14.8262C11.8047 14.4629 12.1445 14.1836 12.582 13.9883C12.2148 13.8008 11.9248 13.5439 11.7119 13.2178C11.499 12.8916 11.3926 12.5195 11.3926 12.1016C11.3926 11.375 11.627 10.7988 12.0957 10.373C12.5645 9.94726 13.1973 9.73438 13.9941 9.73438ZM8.96367 9.82227V18.3828H7.5457V11.5332L5.45391 12.248V11.0469L8.78203 9.82227H8.96367ZM13.9883 14.5742C13.5742 14.5742 13.2432 14.7031 12.9951 14.9609C12.7471 15.2188 12.623 15.5605 12.623 15.9863C12.623 16.4043 12.7451 16.7383 12.9893 16.9883C13.2334 17.2383 13.5703 17.3633 14 17.3633C14.4297 17.3633 14.7646 17.2422 15.0049 17C15.2451 16.7578 15.3652 16.4199 15.3652 15.9863C15.3652 15.5645 15.2393 15.2236 14.9873 14.9639C14.7354 14.7041 14.4023 14.5742 13.9883 14.5742ZM13.9941 10.877C13.6309 10.877 13.3438 10.9912 13.1328 11.2197C12.9219 11.4482 12.8164 11.7598 12.8164 12.1543C12.8164 12.5449 12.9229 12.8555 13.1357 13.0859C13.3486 13.3164 13.6367 13.4316 14 13.4316C14.3633 13.4316 14.6514 13.3164 14.8643 13.0859C15.0771 12.8555 15.1836 12.5449 15.1836 12.1543C15.1836 11.7832 15.0762 11.4775 14.8613 11.2373C14.6465 10.9971 14.3574 10.877 13.9941 10.877ZM18.75 2H3.25C2.2835 2 1.5 2.7835 1.5 3.75V5.503H20.5V3.75C20.5 2.7835 19.7165 2 18.75 2Z" fill="#14CDCD"/>
</svg>
