<svg width="28" height="29" viewBox="0 0 28 29" fill="none" xmlns="http://www.w3.org/2000/svg">
<g clip-path="url(#clip0_1220_22248)">
<path d="M22.1673 15.6667C22.0332 15.6667 21.9002 15.6212 21.7917 15.529C21.5688 15.3423 16.334 10.8763 16.334 6.33333C16.334 3.11683 18.9508 0.5 22.1673 0.5C25.3838 0.5 28.0007 3.11683 28.0007 6.33333C28.0007 10.8763 22.7658 15.3423 22.543 15.529C22.4345 15.6212 22.3015 15.6667 22.1673 15.6667ZM22.1673 1.66667C19.5937 1.66667 17.5007 3.75967 17.5007 6.33333C17.5007 9.67933 20.9972 13.212 22.1673 14.2993C23.3375 13.2108 26.834 9.67933 26.834 6.33333C26.834 3.75967 24.741 1.66667 22.1673 1.66667Z" fill="#14CDCD"/>
<path d="M22.1673 8.66667C20.8805 8.66667 19.834 7.62017 19.834 6.33333C19.834 5.0465 20.8805 4 22.1673 4C23.4542 4 24.5007 5.0465 24.5007 6.33333C24.5007 7.62017 23.4542 8.66667 22.1673 8.66667ZM22.1673 5.16667C21.5245 5.16667 21.0007 5.68933 21.0007 6.33333C21.0007 6.97733 21.5245 7.5 22.1673 7.5C22.8102 7.5 23.334 6.97733 23.334 6.33333C23.334 5.68933 22.8102 5.16667 22.1673 5.16667Z" fill="#14CDCD"/>
<path d="M3.5 27.3333C3.36233 27.3333 3.2235 27.2843 3.11267 27.1863C2.98667 27.0743 0 24.3992 0 21.6458C0 19.6357 1.57033 18 3.5 18C5.42967 18 7 19.6357 7 21.6458C7 24.3992 4.01333 27.0743 3.88733 27.1863C3.7765 27.2843 3.63767 27.3333 3.5 27.3333ZM3.5 19.1667C2.21317 19.1667 1.16667 20.2785 1.16667 21.6458C1.16667 23.3527 2.74867 25.1703 3.5 25.938C4.25133 25.1715 5.83333 23.3527 5.83333 21.6458C5.83333 20.2785 4.78683 19.1667 3.5 19.1667Z" fill="#14CDCD"/>
<path d="M18.5657 28.5001H3.49935C3.17735 28.5001 2.91602 28.2387 2.91602 27.9167C2.91602 27.5947 3.17735 27.3334 3.49935 27.3334H18.5657C18.9367 27.3334 19.0755 27.0487 19.1093 26.9612C19.1432 26.8737 19.2318 26.5681 18.9577 26.3184L10.5903 18.7117C10.0513 18.2206 9.87285 17.4646 10.1353 16.7856C10.3978 16.1054 11.0384 15.6667 11.7663 15.6667H22.166C22.488 15.6667 22.7493 15.9281 22.7493 16.2501C22.7493 16.5721 22.488 16.8334 22.166 16.8334H11.7663C11.3954 16.8334 11.2565 17.1181 11.2227 17.2056C11.1888 17.2931 11.1002 17.5987 11.3743 17.8484L19.7417 25.4551C20.2807 25.9462 20.4592 26.7022 20.1967 27.3812C19.9342 28.0614 19.2937 28.5001 18.5657 28.5001Z" fill="#14CDCD"/>
<path d="M3.50065 22.6666C2.85782 22.6666 2.33398 22.1439 2.33398 21.4999C2.33398 20.8559 2.85782 20.3333 3.50065 20.3333C4.14348 20.3333 4.66732 20.8559 4.66732 21.4999C4.66732 22.1439 4.14348 22.6666 3.50065 22.6666ZM3.50065 21.4988C3.50065 21.4988 3.50065 21.4999 3.50065 21.4988L4.08398 21.4999L3.50065 21.4988Z" fill="#14CDCD"/>
</g>
<defs>
<clipPath id="clip0_1220_22248">
<rect width="28" height="28" fill="white" transform="translate(0 0.5)"/>
</clipPath>
</defs>
</svg>
