<svg width="24" height="24" viewBox="0 0 24 24" fill="none" xmlns="http://www.w3.org/2000/svg">
<g clip-path="url(#clip0_1688_1346)">
<path d="M19 13C18.885 13 18.771 12.961 18.678 12.882C18.487 12.722 14 8.894 14 5C14 2.243 16.243 0 19 0C21.757 0 24 2.243 24 5C24 8.894 19.513 12.722 19.322 12.882C19.229 12.961 19.115 13 19 13ZM19 1C16.794 1 15 2.794 15 5C15 7.868 17.997 10.896 19 11.828C20.003 10.895 23 7.868 23 5C23 2.794 21.206 1 19 1Z" fill="#263954"/>
<path d="M19 7C17.897 7 17 6.103 17 5C17 3.897 17.897 3 19 3C20.103 3 21 3.897 21 5C21 6.103 20.103 7 19 7ZM19 4C18.449 4 18 4.448 18 5C18 5.552 18.449 6 19 6C19.551 6 20 5.552 20 5C20 4.448 19.551 4 19 4Z" fill="#263954"/>
<path d="M3 23C2.882 23 2.763 22.958 2.668 22.874C2.56 22.778 0 20.485 0 18.125C0 16.402 1.346 15 3 15C4.654 15 6 16.402 6 18.125C6 20.485 3.44 22.778 3.332 22.874C3.237 22.958 3.118 23 3 23ZM3 16C1.897 16 1 16.953 1 18.125C1 19.588 2.356 21.146 3 21.804C3.644 21.147 5 19.588 5 18.125C5 16.953 4.103 16 3 16Z" fill="#263954"/>
<path d="M15.914 24H3C2.724 24 2.5 23.776 2.5 23.5C2.5 23.224 2.724 23 3 23H15.914C16.232 23 16.351 22.756 16.38 22.681C16.409 22.606 16.485 22.344 16.25 22.13L9.078 15.61C8.616 15.189 8.463 14.541 8.688 13.959C8.913 13.376 9.462 13 10.086 13H19C19.276 13 19.5 13.224 19.5 13.5C19.5 13.776 19.276 14 19 14H10.086C9.768 14 9.649 14.244 9.62 14.319C9.591 14.394 9.515 14.656 9.75 14.87L16.922 21.39C17.384 21.811 17.537 22.459 17.312 23.041C17.087 23.624 16.538 24 15.914 24Z" fill="#263954"/>
<path d="M3 19C2.449 19 2 18.552 2 18C2 17.448 2.449 17 3 17C3.551 17 4 17.448 4 18C4 18.552 3.551 19 3 19ZM3 17.999C3 17.999 3 18 3 17.999L3.5 18L3 17.999Z" fill="#263954"/>
</g>
<defs>
<clipPath id="clip0_1688_1346">
<rect width="24" height="24" fill="white"/>
</clipPath>
</defs>
</svg>
