<svg width="22" height="19" viewBox="0 0 22 19" fill="none" xmlns="http://www.w3.org/2000/svg">
<path d="M3.25 0.5H18.75C20.483 0.5 21.8992 1.85646 21.9949 3.56558L22 3.75V15.25C22 16.983 20.6435 18.3992 18.9344 18.4949L18.75 18.5H3.25C1.51697 18.5 0.100754 17.1435 0.00514483 15.4344L0 15.25V3.75C0 2.01697 1.35645 0.600754 3.06558 0.505145L3.25 0.5H18.75H3.25ZM20.5 6.405L11.346 11.1654C11.1653 11.2594 10.9558 11.2751 10.7655 11.2124L10.654 11.1654L1.5 6.405V15.25C1.5 16.1682 2.20711 16.9212 3.10647 16.9942L3.25 17H18.75C19.6682 17 20.4212 16.2929 20.4942 15.3935L20.5 15.25V6.405ZM18.75 2H3.25C2.33183 2 1.57881 2.70711 1.5058 3.60647L1.5 3.75V4.714L11 9.65466L20.5 4.714V3.75C20.5 2.83183 19.7929 2.07881 18.8935 2.0058L18.75 2Z" fill="#14CDCD"/>
</svg>
