<svg width="185" height="162" viewBox="0 0 185 162" fill="none" xmlns="http://www.w3.org/2000/svg">
<path fill-rule="evenodd" clip-rule="evenodd" d="M178.741 50.6435C175.652 53.7991 170.59 53.8529 167.435 50.7645C164.28 47.6761 164.225 42.6141 167.314 39.4585C170.403 36.303 175.465 36.2492 178.62 39.3376C181.775 42.426 181.829 47.488 178.741 50.6435Z" fill="#89DFFD"/>
<path fill-rule="evenodd" clip-rule="evenodd" d="M158.173 23.961C156.681 25.4847 154.237 25.5107 152.713 24.0194C151.19 22.5281 151.164 20.0838 152.655 18.5601C154.146 17.0364 156.591 17.0104 158.114 18.5017C159.638 19.993 159.664 22.4373 158.173 23.961Z" fill="#89DFFD"/>
<path fill-rule="evenodd" clip-rule="evenodd" d="M170.218 8.15974C168.726 9.68345 166.282 9.70945 164.758 8.21815C163.235 6.72686 163.208 4.28255 164.7 2.75883C166.191 1.23512 168.636 1.20916 170.159 2.70045C171.683 4.19175 171.709 6.63602 170.218 8.15974Z" fill="#89DFFD"/>
<g clip-path="url(#clip0_1590_776)">
<path d="M85.4053 122.5C86.8348 121.454 88.4649 120.721 90.1909 120.349C90.4186 120.336 90.6468 120.336 90.8745 120.349C91.4539 120.342 92.0271 120.47 92.5496 120.723C93.0721 120.976 93.53 121.348 93.8877 121.809C94.0649 122.039 94.1915 122.27 94.3435 122.5C95.0703 123.901 95.5177 125.433 95.6601 127.009C95.6601 127.649 95.7867 128.29 95.7867 128.956C95.7867 129.622 95.7867 129.647 95.7867 130.032V130.262V130.749C95.7867 131.184 95.7867 131.645 95.7867 132.132C95.7867 132.619 95.7867 133.695 95.7867 134.514C95.7867 135.821 95.7867 137.076 95.7867 138.51C95.7867 139.1 95.7867 139.586 95.7867 140.175C95.7867 140.765 95.7867 141.251 95.7867 141.789C95.7623 142.045 95.7623 142.302 95.7867 142.558C95.7867 143.096 95.7867 143.582 95.7867 144.12C95.9174 145.75 96.2404 147.358 96.7489 148.91C97.415 150.89 98.2627 152.803 99.281 154.623L99.914 155.699L100.522 156.595C100.724 156.928 100.952 157.21 101.155 157.517L101.762 158.286C102.884 159.863 104.37 161.139 106.092 162C106.092 162 106.953 160.796 108.346 158.542L108.903 157.697C110.498 155.135 112.625 151.523 114.802 147.271L115.486 145.939C116.398 144.197 117.259 142.353 118.018 140.432L119.006 138.203C119.512 137.05 119.968 135.898 120.449 134.719C120.93 133.541 121.133 132.824 121.512 131.85C121.892 130.877 122.247 129.955 122.551 128.956C122.854 127.957 123.057 127.239 123.31 126.394C123.319 126.3 123.319 126.206 123.31 126.112C123.69 124.678 124.044 123.32 124.298 121.937L124.601 120.323C124.906 118.683 125.092 117.022 125.159 115.354C125.298 112.89 125.187 110.418 124.829 107.976C124.829 107.618 124.829 107.208 124.601 106.875C124.403 105.71 124.09 104.569 123.665 103.468C123.058 101.357 121.776 99.5098 120.018 98.2168C119.462 98.0133 118.853 98.0133 118.297 98.2168C118.144 98.4583 118.041 98.7283 117.993 99.0108C117.935 99.2943 117.964 99.589 118.078 99.8548C118.191 100.121 118.382 100.345 118.626 100.497C118.835 100.628 119.055 100.739 119.284 100.83V101.137C119.252 101.569 119.184 101.997 119.082 102.418C118.41 104.933 116.816 107.094 114.625 108.463C113.661 109.053 112.654 109.566 111.612 110L110.852 110.307L109.738 110.794L106.751 111.896L103.332 113.151L99.3822 114.508L98.0656 114.944L96.521 115.533L95.255 116.02C94.3435 116.378 93.5585 116.66 92.9255 116.993C92.533 117.163 92.1523 117.36 91.7861 117.582L91.5582 117.71L91.229 117.915L90.1656 118.607L89.6592 118.966C89.5368 119.045 89.4185 119.13 89.3047 119.222C87.9169 120.203 86.6125 121.3 85.4053 122.5Z" fill="url(#paint0_linear_1590_776)"/>
<path style="mix-blend-mode:multiply" opacity="0.5" d="M95.7613 144.146C95.892 145.776 96.215 147.384 96.7235 148.936C97.3896 150.916 98.2373 152.828 99.2556 154.648L99.8886 155.724L100.496 156.621C100.699 156.954 100.927 157.235 101.129 157.543L101.737 158.311C102.869 159.883 104.364 161.149 106.092 162C106.092 162 106.953 160.796 108.346 158.542L108.903 157.697C110.498 155.135 112.625 151.523 114.802 147.271L115.486 145.939C116.398 144.197 117.258 142.353 118.018 140.432L119.006 138.203C119.512 137.05 119.968 135.898 120.449 134.719C120.93 133.541 121.132 132.824 121.512 131.85C121.892 130.877 122.247 129.955 122.55 128.956C122.854 127.957 123.057 127.239 123.285 126.394V126.112C123.665 124.678 124.019 123.32 124.272 121.937L124.576 120.323C124.881 118.683 125.067 117.022 125.133 115.354C125.272 112.89 125.162 110.418 124.804 107.976C124.804 107.618 124.804 107.208 124.576 106.875C124.378 105.71 124.064 104.569 123.639 103.468C123.639 104.313 123.639 105.184 123.639 106.158C123.639 106.542 123.639 106.926 123.639 107.336C123.639 107.746 123.639 108.104 123.639 108.54C122.917 113.05 121.39 117.39 119.132 121.348C118.803 121.911 118.499 122.5 118.17 123.038C117.841 123.576 117.208 124.703 116.676 125.6C116.144 126.497 115.765 126.906 115.334 127.547C112.213 132.176 108.394 136.282 104.016 139.714C102.078 141.238 99.9494 142.495 97.6857 143.454C97.0605 143.729 96.4176 143.96 95.7613 144.146Z" fill="url(#paint1_linear_1590_776)"/>
<path style="mix-blend-mode:multiply" opacity="0.5" d="M106.675 132.747C109.145 130.945 111.412 128.875 113.436 126.573C114.069 125.856 114.651 125.113 115.259 124.37C115.349 124.27 115.425 124.158 115.487 124.037C118.579 119.569 120.772 114.53 121.943 109.206C121.943 108.822 122.095 108.412 122.197 108.028C122.387 107.234 122.53 106.43 122.627 105.62C122.627 105.927 122.399 106.824 122.07 108.181C122.07 108.54 121.867 108.95 121.766 109.36C120.439 114.371 118.122 119.059 114.955 123.141C114.374 123.848 113.739 124.507 113.056 125.113C112.798 125.359 112.528 125.59 112.246 125.805C111.112 126.656 109.89 127.378 108.599 127.957C105.699 129.25 102.629 130.113 99.484 130.518C98.1927 130.672 96.952 130.774 95.7619 130.826C95.7619 133.387 95.61 135.949 95.5593 138.51C99.5546 137.226 103.311 135.278 106.675 132.747Z" fill="url(#paint2_linear_1590_776)"/>
<path style="mix-blend-mode:multiply" opacity="0.5" d="M90.8755 120.272C91.4549 120.265 92.028 120.393 92.5506 120.646C93.0731 120.899 93.531 121.271 93.8887 121.732C95.0515 120.98 96.2609 120.304 97.5095 119.708C100.362 118.437 103.277 117.316 106.245 116.353C108.464 115.598 110.622 114.673 112.702 113.586L114.373 112.536L115.816 111.409C116.304 111 116.769 110.564 117.209 110.102C117.699 109.595 118.155 109.056 118.576 108.489C117.986 109.166 117.323 109.776 116.601 110.307C115.798 110.9 114.951 111.431 114.069 111.896C114.045 111.884 114.019 111.878 113.993 111.878C113.967 111.878 113.941 111.884 113.917 111.896L112.449 112.536C110.155 113.471 107.793 114.225 105.384 114.79C102.293 115.409 99.2407 116.213 96.2435 117.198C95.3771 117.54 94.5316 117.933 93.7114 118.376C92.9012 118.94 91.863 119.58 90.8755 120.272Z" fill="url(#paint3_linear_1590_776)"/>
<path style="mix-blend-mode:multiply" opacity="0.5" d="M85.4057 122.501C86.8352 121.454 88.4653 120.721 90.1912 120.349C90.419 120.336 90.6472 120.336 90.8749 120.349C91.4542 120.342 92.0274 120.47 92.5499 120.723C93.0725 120.976 93.5303 121.348 93.888 121.809C94.0653 122.039 94.1919 122.27 94.3438 122.501C95.0707 123.901 95.518 125.433 95.6605 127.009C95.6605 127.649 95.7871 128.29 95.7871 128.956C95.7871 129.622 95.7871 129.647 95.7871 130.032V130.262V130.749C95.7871 131.184 95.7871 131.645 95.7871 132.132C95.7871 132.619 95.7871 133.695 95.7871 134.514C95.7871 135.821 95.7871 137.076 95.7871 138.51C95.7871 139.1 95.7871 139.586 95.7871 140.175C95.7871 140.765 95.7871 141.251 95.7871 141.789C95.7627 142.045 95.7627 142.302 95.7871 142.558C95.7871 143.096 95.7871 143.582 95.7871 144.12C95.9178 145.75 96.2408 147.358 96.7493 148.91C97.4153 150.89 98.2631 152.803 99.2813 154.623L99.9143 155.699L100.522 156.595C100.725 156.928 100.952 157.21 101.155 157.517L101.763 158.286C102.884 159.863 104.371 161.139 106.093 162C106.093 162 106.953 160.796 108.346 158.542L108.903 157.697C110.498 155.135 112.625 151.523 114.803 147.271L115.486 145.939C116.398 144.197 117.259 142.353 118.018 140.432L119.006 138.203C119.512 137.05 119.968 135.898 120.449 134.719C120.93 133.541 121.133 132.824 121.513 131.85C121.893 130.877 122.247 129.955 122.551 128.956C122.855 127.957 123.057 127.239 123.285 126.394C123.032 127.188 122.703 128.034 122.374 128.956C119.639 136.051 115.031 146.169 111.739 145.939C111.453 145.978 111.164 145.978 110.878 145.939C109.352 145.493 107.943 144.711 106.752 143.648C105.561 142.585 104.618 141.267 103.991 139.791C103.451 138.837 103.22 137.734 103.333 136.64C104.174 135.12 105.311 133.786 106.675 132.721C107.51 131.978 108.346 131.287 108.979 130.774C107.492 131.88 105.747 132.577 103.915 132.798C103.435 132.849 102.951 132.849 102.472 132.798C102.178 132.748 101.89 132.671 101.611 132.568C100.682 132.169 99.9394 131.427 99.5345 130.493C99.4096 130.243 99.2997 129.987 99.2054 129.724C98.9631 129.19 98.7765 128.632 98.6483 128.059L98.4457 127.368C97.9773 125.366 97.6891 123.325 97.5848 121.271C97.5612 121.007 97.5612 120.741 97.5848 120.477C97.5848 120.067 97.5848 119.76 97.5848 119.632L99.4079 118.812L100.471 118.351H97.4329C96.2935 118.351 95.0275 118.351 93.9387 118.351C93.077 118.345 92.2219 118.198 91.4066 117.915L90.3432 118.607L89.8368 118.966C89.7144 119.045 89.5961 119.13 89.4823 119.222C88.0332 120.195 86.6693 121.292 85.4057 122.501Z" fill="url(#paint4_linear_1590_776)"/>
<path style="mix-blend-mode:screen" d="M103.333 113.202C103.68 113.322 104.012 113.486 104.32 113.689C104.417 113.729 104.498 113.801 104.548 113.894C104.661 113.929 104.759 114.001 104.827 114.099C105.062 114.307 105.266 114.549 105.434 114.816C105.779 115.284 106.052 115.802 106.245 116.353C106.599 117.044 106.878 117.864 107.257 118.709C107.243 118.76 107.243 118.813 107.257 118.863C107.46 119.401 107.738 119.939 107.992 120.528C108.245 121.117 108.473 121.399 108.726 121.835C108.86 122.142 109.04 122.427 109.258 122.68L109.587 123.167C109.815 123.448 110.093 123.807 110.372 124.089C110.934 124.684 111.534 125.24 112.17 125.754C112.534 126.025 112.914 126.273 113.309 126.497C113.9 126.874 114.518 127.208 115.157 127.496C117.015 128.295 118.992 128.771 121.006 128.904H122.551C122.804 128.085 123.057 127.188 123.311 126.343C122.853 126.654 122.348 126.888 121.817 127.034C120.917 127.32 119.954 127.327 119.051 127.053C118.148 126.779 117.348 126.237 116.753 125.498C116.424 125.125 116.12 124.731 115.841 124.319L115.613 123.909L115.233 123.243V123.038C115.008 122.618 114.813 122.181 114.651 121.732C113.726 119.092 113.073 116.362 112.701 113.586C112.701 113.253 112.575 112.895 112.499 112.613C112.423 112.331 112.499 112.459 112.499 112.408C112.499 112.357 112.372 111.921 112.296 111.716C112.127 111.159 111.907 110.618 111.638 110.102L110.878 110.41L109.764 110.897L106.776 111.998L103.333 113.202Z" fill="url(#paint5_linear_1590_776)"/>
<path style="mix-blend-mode:multiply" opacity="0.5" d="M85.4053 122.5C86.8348 121.454 88.4649 120.721 90.1909 120.349C90.4186 120.336 90.6468 120.336 90.8745 120.349C91.4539 120.342 92.0271 120.47 92.5496 120.723C93.0721 120.976 93.53 121.348 93.8877 121.809C94.0649 122.039 94.1915 122.27 94.3435 122.5C95.0703 123.901 95.5177 125.433 95.6601 127.009C95.6601 127.649 95.7867 128.29 95.7867 128.956C95.7867 129.622 95.7867 129.647 95.7867 130.032V130.262V130.749C95.7867 131.184 95.7867 131.645 95.7867 132.132C95.7867 132.619 95.7867 133.695 95.7867 134.514C95.7867 135.821 95.7867 137.076 95.7867 138.51C95.7867 139.1 95.7867 139.586 95.7867 140.175C95.7867 140.765 95.7867 141.251 95.7867 141.789C95.7623 142.045 95.7623 142.302 95.7867 142.558C95.7867 143.096 95.7867 143.582 95.7867 144.12C95.9174 145.75 96.2404 147.358 96.7489 148.91C97.415 150.89 98.2627 152.803 99.281 154.623L99.914 155.699L100.522 156.595C100.724 156.928 100.952 157.21 101.155 157.517L101.762 158.286C102.884 159.863 104.37 161.139 106.092 162C106.092 162 106.953 160.796 108.346 158.542L108.903 157.697C110.498 155.135 112.625 151.523 114.802 147.271L115.486 145.939C116.398 144.197 117.259 142.353 118.018 140.432L119.006 138.203C119.512 137.05 119.968 135.898 120.449 134.719C120.93 133.541 121.133 132.824 121.512 131.85C121.892 130.877 122.247 129.955 122.551 128.956C122.854 127.957 123.057 127.239 123.31 126.394C123.319 126.3 123.319 126.206 123.31 126.112C123.69 124.678 124.044 123.32 124.298 121.937L124.601 120.323C124.906 118.683 125.092 117.022 125.159 115.354C125.298 112.89 125.187 110.418 124.829 107.976C124.829 107.618 124.829 107.208 124.601 106.875C124.403 105.71 124.09 104.569 123.665 103.468C123.058 101.357 121.776 99.5098 120.018 98.2168C119.462 98.0133 118.853 98.0133 118.297 98.2168C118.144 98.4583 118.041 98.7283 117.993 99.0108C117.935 99.2943 117.964 99.589 118.078 99.8548C118.191 100.121 118.382 100.345 118.626 100.497C118.835 100.628 119.055 100.739 119.284 100.83V101.034C119.289 101.077 119.289 101.12 119.284 101.163C119.252 101.594 119.184 102.023 119.082 102.443C118.404 104.949 116.811 107.1 114.625 108.463C113.661 109.053 112.654 109.566 111.612 110L110.852 110.307L109.738 110.794L106.751 111.896L103.332 113.151L99.3822 114.508L98.0656 114.944L96.521 115.533L95.255 116.02C94.3435 116.378 93.5585 116.66 92.9255 116.993C92.533 117.163 92.1523 117.36 91.7861 117.582L91.5582 117.71L91.229 117.915L90.1656 118.607L89.6592 118.966C89.5368 119.045 89.4185 119.13 89.3047 119.222C87.9169 120.203 86.6125 121.3 85.4053 122.5Z" fill="url(#paint6_linear_1590_776)"/>
<path style="mix-blend-mode:multiply" opacity="0.5" d="M120.854 119.76L121.031 119.939L120.854 119.76Z" fill="url(#paint7_linear_1590_776)"/>
<path d="M61.783 67.9389C61.783 68.5281 61.9603 69.1429 62.0615 69.7064C62.1628 70.27 62.0615 70.2443 62.2894 70.5261C62.342 70.7888 62.4183 71.046 62.5173 71.2946C62.5173 71.5764 62.6946 71.8069 62.7452 72.0374C63.2609 73.2542 64.0601 74.3264 65.0747 75.1626L65.2772 75.3163C65.4067 75.4305 65.5516 75.5254 65.7077 75.598L66.1635 75.8286C67.2063 76.3489 68.3442 76.6454 69.5058 76.6995H71.1516H71.7846H72.2657C72.2856 76.7087 72.3072 76.7135 72.329 76.7135C72.3509 76.7135 72.3724 76.7087 72.3923 76.6995C72.6844 76.6836 72.9734 76.632 73.2532 76.5458C73.3869 76.5727 73.5246 76.5727 73.6583 76.5458C73.8179 76.5689 73.9799 76.5689 74.1394 76.5458L74.975 76.3409H75.4308L76.5449 75.9566C78.6639 75.2184 80.7214 74.3105 82.6978 73.2414L83.0522 72.601C83.2562 72.5189 83.4514 72.4159 83.6346 72.2936H83.8372L85.6603 71.269L86.0654 71.0384C86.6478 70.6798 87.2808 70.2443 87.9391 69.7576L88.3442 69.4759C88.7747 69.1172 89.2558 68.7842 89.6862 68.4L90.3446 67.8108C90.7497 67.4778 91.1295 67.1192 91.5853 66.7862C93.2564 65.1724 95.0035 63.3793 96.6494 61.4837C97.2571 60.869 97.8141 60.1773 98.3965 59.4857C98.9788 58.7941 99.7638 57.9488 100.27 57.2315C100.777 56.5143 100.979 56.3862 101.308 55.9507C101.638 55.5153 102.321 54.6443 102.828 54.0039C102.818 53.9618 102.818 53.918 102.828 53.8759L104.828 51.4167C105.663 50.3153 106.398 49.3163 107.056 48.3941L108.347 46.4729L109.259 45.1665C110.069 43.9626 110.55 43.1429 110.601 43.0916C110.652 43.0404 109.943 43.0916 108.955 42.1438C107.968 41.1961 105.663 37.7123 103.309 30.335C103.309 30.1044 103.131 29.8483 103.03 29.5921C102.219 27.3207 101.21 25.1263 100.017 23.0345C96.3035 16.9218 91.9761 11.2134 87.1035 6C87.8564 7.16865 88.4685 8.4242 88.9266 9.7399C89.3038 10.6759 89.3038 11.7241 88.9266 12.6601C88.5411 13.394 87.8866 13.9457 87.1035 14.197L85.9641 14.6325C85.0272 14.9655 83.8372 15.4266 82.2167 16.1438C80.5925 16.9457 79.0119 17.835 77.4817 18.8079C76.0003 19.7449 74.7038 20.9523 73.6583 22.3685C71.5449 25.2199 69.84 28.3589 68.5942 31.6926C67.5813 34.2075 66.694 36.7723 65.9356 39.3773C65.2519 41.7084 64.6696 44.0138 64.1378 46.3448C63.834 47.7537 63.5301 49.1626 63.2769 50.5714C62.0569 56.2737 61.5549 62.1092 61.783 67.9389Z" fill="url(#paint8_linear_1590_776)"/>
<path style="mix-blend-mode:multiply" opacity="0.5" d="M61.7826 67.9389C61.7826 68.5281 61.9599 69.1429 62.0611 69.7064C62.1624 70.27 62.0611 70.2443 62.289 70.5261C62.3416 70.7888 62.4179 71.046 62.5169 71.2946C62.5169 71.5764 62.6941 71.8069 62.7448 72.0374C63.2604 73.2542 64.0597 74.3264 65.0743 75.1626L65.2768 75.3163C65.4063 75.4305 65.5512 75.5254 65.7073 75.598L66.1631 75.8286C67.2059 76.3489 68.3438 76.6455 69.5054 76.6995H71.1512H71.7842H72.2653C72.2852 76.7087 72.3068 76.7135 72.3286 76.7135C72.3505 76.7135 72.372 76.7087 72.3919 76.6995C72.6839 76.6836 72.973 76.632 73.2528 76.5458H73.6833C73.8428 76.5689 74.0048 76.5689 74.1643 76.5458L74.9999 76.3409H75.4557L76.4432 75.1626H76.7977L77.7598 74.5222L83.1278 70.9104L87.0778 68.3488H87.2044L88.9009 67.1961L89.3313 66.8887H89.5339C89.8922 66.6682 90.2387 66.4288 90.572 66.1714L90.8252 66.0434L91.1544 65.7872L92.2432 64.7626L93.4839 63.5074L98.6746 58.3842L100.7 56.3862L101.814 55.2847L102.675 54.3882L105.207 52.0059L108.119 48.7783C107.715 48.7048 107.323 48.5755 106.954 48.3941H106.752C106.029 47.9439 105.379 47.3821 104.827 46.7291L104.549 46.4473C104.08 45.8997 103.64 45.3268 103.232 44.731C102.342 43.4468 101.538 42.1032 100.827 40.7094C97.9403 35.2532 95.231 28.2345 91.6861 22.2148L91.3823 21.7281C91.2876 21.5398 91.1775 21.3599 91.0531 21.1902C90.7493 20.6522 90.4201 20.1655 90.0909 19.6788C89.7618 19.1921 89.3313 18.5517 88.9262 18.0138C88.5211 17.4759 88.0147 16.8611 87.5842 16.3232L86.1916 14.8118C85.2547 15.1448 84.0647 15.6059 82.4441 16.3232C84.5691 18.6798 86.5559 21.1603 88.3945 23.7517C93.6611 31.2571 97.6618 37.3537 100.32 41.6828C101.232 43.1172 101.941 44.2443 102.574 45.3458C102.903 45.935 103.207 46.4729 103.511 46.9084C103.815 47.3438 103.688 47.2158 103.789 47.3438C104.473 48.5222 104.802 49.1882 104.802 49.1882L100.194 50.136L99.814 49.265C99.814 49.265 99.814 49.265 99.814 49.1113C99.814 48.9576 99.4849 48.3941 99.2316 47.9074C98.9784 47.4207 98.4467 46.1655 97.8897 45.1153C94.6993 38.8906 88.1413 28.5163 78.2156 23.931C77.9202 23.758 77.6058 23.6204 77.2788 23.5212H77.0762C75.9805 23.0378 74.8452 22.6521 73.6833 22.3685C71.5698 25.2199 69.865 28.3589 68.6191 31.6926C69.48 31.5133 70.3156 31.4108 71.1512 31.3084H71.531C72.3044 31.2172 73.0819 31.1659 73.8605 31.1547C77.296 30.8313 80.7576 31.3624 83.9439 32.7018C87.1302 34.0412 89.9445 36.1482 92.1419 38.8394C94.3195 41.5547 95.9147 43.9626 97.206 45.7557C97.7631 46.6778 98.2695 47.4719 98.6493 48.3172C98.8856 48.6823 99.089 49.0681 99.257 49.47C99.7294 50.4027 100.152 51.3604 100.523 52.3389C100.851 53.1642 101.088 54.0231 101.232 54.9005L99.5102 52.7488L98.0922 51.0325C98.0093 50.9054 97.9161 50.7855 97.8137 50.6739L97.6111 50.469L96.9781 49.7773C96.5477 49.3163 96.0159 48.7783 95.3576 48.1635C89.178 42.2903 81.0474 38.9728 72.5691 38.865H70.5435C69.6573 38.865 68.7204 39.0187 67.7583 39.1468L65.8845 39.4798C65.2009 41.8108 64.6185 44.1163 64.0868 46.4473C64.6185 46.4473 65.0743 46.2168 65.5807 46.1399C67.6063 45.7044 69.5813 45.3714 71.4297 45.1665C71.9361 45.1665 72.4679 45.1665 72.949 45.0384C76.4167 44.6554 79.923 44.8457 83.3304 45.602C87.064 46.3801 90.6642 47.7092 94.0156 49.5468C94.6103 49.8983 95.1852 50.2831 95.7374 50.6995C95.9251 50.8216 96.1029 50.9587 96.2691 51.1094L96.6996 51.468C97.2666 51.9344 97.7766 52.4676 98.2188 53.0562C98.4015 53.2495 98.5474 53.4753 98.6493 53.7222L97.839 53.2099C97.4239 52.9281 96.9927 52.6715 96.5477 52.4414C96.3687 52.3193 96.1827 52.2081 95.9906 52.1084L95.2563 51.7241L94.8512 51.5448C94.2941 51.2631 93.6865 51.0069 93.0281 50.7251C86.8676 48.0723 80.1362 47.0667 73.4807 47.8049C73.0705 47.8378 72.6639 47.9064 72.2653 48.0099C69.6609 48.3808 67.1103 49.0689 64.6691 50.0591C64.2387 50.2384 63.7323 50.3921 63.2765 50.597C62.0586 56.291 61.5566 62.1177 61.7826 67.9389Z" fill="url(#paint9_linear_1590_776)"/>
<path style="mix-blend-mode:multiply" opacity="0.5" d="M71.7332 83.4364L82.4944 73.4207L100.599 56.5399L102.295 54.3881C103.89 52.3389 105.283 50.4177 106.448 48.7783C108.701 45.6019 110.094 43.399 110.094 43.399C110.094 43.399 107.081 44.1931 102.624 30.5911C102.624 30.3349 102.472 30.0788 102.371 29.8226C104.574 37.5074 100.396 42.2463 91.863 52.1852C83.33 62.1241 75.9617 69.1428 73.379 77.5704C72.2143 81.1566 71.7332 83.4364 71.7332 83.4364Z" fill="url(#paint10_linear_1590_776)"/>
<path style="mix-blend-mode:screen" d="M87.1036 6C87.8565 7.16865 88.4686 8.4242 88.9267 9.7399C93.1745 13.6203 96.8497 18.0975 99.8398 23.0345C96.1822 16.9301 91.9144 11.222 87.1036 6V6Z" fill="url(#paint11_linear_1590_776)"/>
<path style="mix-blend-mode:screen" d="M86.1147 14.6325C86.6038 15.1122 87.0686 15.6167 87.5074 16.1438C87.9884 16.6817 88.4189 17.2453 88.8493 17.8345C89.2798 18.4236 89.609 18.9359 90.0141 19.4995C90.4192 20.063 90.6724 20.4729 90.9763 21.0108C91.1006 21.1805 91.2107 21.3605 91.3054 21.5487L91.6093 22.0354C93.1285 24.597 94.1413 26.6975 94.3945 27.1586C92.5486 22.6011 90.141 18.2977 87.2288 14.3507L86.1147 14.6325Z" fill="url(#paint12_linear_1590_776)"/>
<path style="mix-blend-mode:multiply" opacity="0.5" d="M82.3936 69.4502C54.7942 24.2896 84.166 20.7803 84.166 20.7803C84.166 20.7803 78.3676 19.6788 72.7971 28.465C65.8846 39.3261 60.9977 59.9212 63.9602 70.8591C66.8468 81.3616 82.3936 69.4502 82.3936 69.4502Z" fill="url(#paint13_linear_1590_776)"/>
<path d="M141.821 68.067C143.897 70.3468 145.518 72.0886 146.885 73.4719C149.24 75.8798 150.405 76.9044 150.405 76.9044C150.959 75.8504 151.408 74.7435 151.747 73.6C152.418 71.7828 152.707 69.8435 152.593 67.9069C152.48 65.9702 151.967 64.079 151.088 62.3547C149.722 60.2973 147.808 58.6736 145.568 57.6717C143.327 56.6698 140.851 56.3307 138.428 56.6936C138.301 57.2315 135.947 61.5093 141.821 68.067Z" fill="url(#paint14_radial_1590_776)"/>
<path d="M138.884 59.7931C147.594 58.1537 151.038 67.6315 147.67 72.9084C144.303 78.1852 138.884 59.7931 138.884 59.7931Z" fill="url(#paint15_radial_1590_776)"/>
<path d="M44.8418 97.0384C45.4222 96.1259 46.0832 95.2685 46.8168 94.4768L47.1207 94.1951C47.809 93.3354 48.6663 92.6297 49.6383 92.1226C50.6102 91.6156 51.6757 91.3181 52.7671 91.2492C55.2992 91.4542 61.3761 102.597 75.1505 111.742C76.1633 112.433 77.2014 113.074 78.2902 113.714L80.088 114.713C81.2527 115.354 82.4428 115.968 83.6582 116.532L84.6963 116.993C86.2902 117.736 87.9213 118.395 89.5832 118.965C89.7456 119.063 89.927 119.124 90.1149 119.145C90.2044 119.18 90.3039 119.18 90.3934 119.145L90.8239 119.324L91.6341 119.58C92.8543 120.008 94.0969 120.367 95.3562 120.656C95.812 120.81 96.2425 120.912 96.6729 121.015C96.9531 121.104 97.2415 121.164 97.5338 121.194H97.9389C98.4037 121.344 98.8772 121.463 99.3569 121.553H99.5848C100.116 121.681 100.674 121.783 101.205 121.86L103.864 122.296H104.244C104.902 122.296 105.56 122.5 106.269 122.577H107.206H107.358H108.219C108.514 122.604 108.81 122.604 109.105 122.577H109.612H110.473C111.941 122.577 113.359 122.577 114.726 122.577H115.891C116.6 122.577 117.309 122.577 118.018 122.372H118.347H118.98C120.373 122.193 121.74 121.937 123.057 121.63C123.462 121.63 123.867 121.45 124.222 121.322C125.151 121.102 126.064 120.819 126.956 120.477C127.387 120.477 127.817 120.169 128.222 120.016H128.45H128.703C137.979 115.974 145.672 108.94 150.58 100.01C157.366 89.0719 159.037 77.5704 157.442 76.5458C156.829 76.4397 156.228 76.2768 155.644 76.0591H155.467C154.307 75.6695 153.226 75.0707 152.277 74.2916L151.846 73.8049C151.239 73.0364 150.2 71.5507 148.808 69.5783C146.442 66.1715 143.907 62.8885 141.212 59.7419C140.376 58.7941 139.49 57.8207 138.68 56.8729C137.869 55.9251 137.059 55.2591 136.148 54.465C132.7 51.1694 128.728 48.4849 124.399 46.5241C119.675 44.3404 114.346 43.8964 109.333 45.269H109.055C108.067 45.5763 107.029 45.935 105.991 46.3448C105.679 46.4528 105.375 46.5811 105.079 46.729L104.446 46.9852L104.016 47.1901C102.699 47.7537 101.484 48.3941 100.041 49.1113L99.5088 49.3675L97.863 50.2896L96.5969 51.0325C96.2171 51.2118 95.8626 51.468 95.5335 51.6473C95.2043 51.8266 94.2928 52.3901 93.7104 52.8L92.4697 53.6197C91.0518 54.5419 89.6085 55.5153 88.1905 56.5655L86.8992 57.4877C86.6108 57.6693 86.3319 57.866 86.0636 58.0768C85.2533 58.666 84.4937 59.2552 83.7088 59.8699L82.2149 60.997L80.9995 61.9448L79.303 63.3281C74.8973 66.9143 70.6941 70.5005 67.0479 73.7793L66.5162 74.2404L65.9085 74.7527C65.7393 74.8782 65.5862 75.0245 65.4527 75.1882L61.5027 78.6719L60.3633 79.6965C56.6918 82.9497 54.0838 85.0502 53.1469 85.0759C52.1319 85.0416 51.1404 84.7579 50.258 84.2491C49.3757 83.7403 48.6291 83.0218 48.0828 82.1556C47.8338 81.7847 47.6056 81.3998 47.3992 81.0029L47.0953 83.2827L44.8418 97.0384Z" fill="url(#paint16_radial_1590_776)"/>
<path style="mix-blend-mode:multiply" opacity="0.5" d="M155.037 83.1547C155.07 83.3926 155.07 83.634 155.037 83.8719C155.12 83.6402 155.12 83.3863 155.037 83.1547Z" fill="url(#paint17_linear_1590_776)"/>
<path style="mix-blend-mode:multiply" opacity="0.5" d="M140.782 92.2739C142.48 92.5439 144.217 92.3945 145.846 91.8384C147.693 90.5663 149.248 88.9063 150.404 86.9715C151.371 85.5061 152.52 84.1719 153.822 83.001C153.921 82.9711 154.027 82.9711 154.126 83.001C154.349 82.9318 154.587 82.9318 154.809 83.001C154.987 83.001 155.088 83.1547 155.113 83.2572C155.113 82.3606 154.683 80.9005 153.164 80.9005C152.201 80.9005 150.632 83.9744 148.91 86.869L148.125 87.9705C147.471 89.3531 146.52 90.5699 145.34 91.5311C143.905 92.1594 142.339 92.4148 140.782 92.2739Z" fill="url(#paint18_linear_1590_776)"/>
<path d="M-0.000244141 61.4325C-0.00888824 61.5604 -0.00888824 61.6888 -0.000244141 61.8167C0.491665 63.4676 1.06634 65.092 1.72155 66.6837C2.02539 67.3497 2.32925 68.0926 2.68373 68.8867C3.31675 70.2955 4.12701 71.8069 5.01323 73.3694C5.19047 73.6768 5.34239 73.9842 5.54495 74.2916C8.38194 79.17 12.1318 83.4422 16.5847 86.8689C28.9158 96.065 31.777 96.3468 31.777 96.3724L31.4225 96.5517C31.3222 96.5317 31.219 96.5317 31.1187 96.5517C30.4857 96.8591 29.4475 97.397 28.2574 98.0887C28.0608 98.1897 27.8742 98.3098 27.7004 98.4473C27.0027 98.846 26.3265 99.2821 25.6748 99.7537L24.9911 100.215L24.3075 100.676C21.7929 102.34 19.8682 104.772 18.8129 107.618C18.8129 107.746 18.8129 107.848 18.8129 107.951C18.2001 112.365 18.132 116.84 18.6103 121.271H18.7369C19.1674 121.117 20.0283 120.81 21.269 120.323C21.5547 120.212 21.8337 120.083 22.1046 119.939C22.3325 119.939 22.5857 119.734 22.8389 119.657L23.5478 119.299C24.51 118.837 25.5735 118.299 26.6876 117.633H26.9661C27.3416 117.374 27.7304 117.134 28.1308 116.916L29.3969 116.097L30.9161 115.072C31.2959 114.79 31.701 114.534 32.0555 114.227C32.41 113.919 33.3722 113.228 34.0558 112.69L35.0687 111.793C35.4232 111.511 35.7523 111.23 36.1068 110.897L37.4741 109.565L38.6389 108.232C41.4837 104.78 43.8831 100.975 45.7792 96.9103C46.2097 96.0906 46.5642 95.2453 46.8933 94.4768C47.9654 92.2835 49.8345 90.5946 52.1094 89.7635C50.296 87.4962 48.7257 85.0403 47.4251 82.4374C45.7793 77.7754 42.8421 71.8581 38.4616 69.2453C33.3701 67.0104 27.9906 65.5183 22.4844 64.8138C11.8751 62.6108 -0.000244141 61.4325 -0.000244141 61.4325Z" fill="url(#paint19_linear_1590_776)"/>
<g style="mix-blend-mode:multiply" opacity="0.4">
<path d="M56.5405 85.4089C58.0738 83.3071 59.8315 81.3829 61.7818 79.671C62.1616 79.3636 62.5161 78.9793 62.8706 78.6463C62.9357 78.6206 63.008 78.6206 63.0732 78.6463C63.6429 78.8783 64.2621 78.9577 64.8709 78.8769C65.2318 78.8299 65.5686 78.6685 65.8331 78.4158C66.1391 78.0346 66.2846 77.547 66.2382 77.0582C66.2382 76.9045 66.2382 76.6995 66.2382 76.4946C66.2261 76.2899 66.2261 76.0846 66.2382 75.8798C66.2382 75.8798 66.2382 75.6493 66.2382 75.5468L67.1245 74.7527L67.5296 74.3941L69.9097 72.2424C69.8367 73.2174 69.8792 74.1978 70.0363 75.1626C70.0668 75.561 70.1346 75.9555 70.2389 76.3409C70.2276 76.4944 70.2276 76.6485 70.2389 76.802C70.216 76.9634 70.216 77.1273 70.2389 77.2887V77.4168C70.5317 78.6905 71.1619 79.8594 72.062 80.7981C72.2048 80.9611 72.4044 81.062 72.619 81.0798C73.3533 81.0798 73.7584 79.005 74.6953 75.9567C74.7218 75.7464 74.7728 75.5401 74.8472 75.3419C74.9738 74.9064 75.1257 74.5222 75.2777 74.0355C75.4296 73.5488 75.2777 73.7793 75.2777 73.6C75.2777 73.4207 75.2777 73.6 75.2777 73.6C75.2894 73.5151 75.2894 73.4288 75.2777 73.3439C75.7954 71.7481 76.4215 70.1903 77.1514 68.6818C77.7724 67.4405 78.4744 66.2424 79.253 65.0956C79.77 64.2591 80.3365 63.455 80.9495 62.6877L81.785 62.0473L82.7725 61.3301L83.6334 60.6897C83.8333 60.574 84.0201 60.4365 84.1905 60.2798L87.1023 58.7941L87.8366 58.2818C88.1405 58.0769 88.4443 57.9232 88.6975 57.7183C90.481 56.5555 92.3521 55.5363 94.2934 54.67C94.3724 54.6172 94.4574 54.5743 94.5466 54.5419L96.4456 53.7734C96.9002 53.577 97.3651 53.406 97.8382 53.2611L98.2687 53.1074C98.6645 52.944 99.0705 52.8071 99.4841 52.6976L100.497 52.3646C101.773 51.961 103.089 51.7032 104.422 51.5961C104.504 51.5719 104.592 51.5719 104.675 51.5961H104.827C105.003 51.5682 105.182 51.5682 105.358 51.5961C107.257 51.5961 107.688 52.5951 107.713 53.466C107.713 55.1567 98.9777 61.868 99.3575 65.07C99.3839 65.2826 99.3839 65.4977 99.3575 65.7104C99.0789 69.0148 93.9642 75.1626 93.9642 75.1626L96.8507 75.3675C96.1962 78.6775 95.8067 82.0355 95.686 85.4089C95.9392 87.4069 97.3065 91.9153 105.688 95.9114L107.46 96.6798C116.094 100.266 115.968 98.3961 117.917 98.7547C118.279 98.7724 118.633 98.8685 118.956 99.0365C120.475 99.6256 119.842 100.01 118.55 100.24C117.943 100.368 117.183 100.445 116.449 100.522H115.537H114.651H114.043H113.841C113.139 100.46 112.458 100.251 111.84 99.9074C111.557 99.8112 111.285 99.6823 111.03 99.5232C110.22 99.0877 109.41 98.601 108.777 98.2168L109.182 98.5498L110.676 99.7281C111.787 100.61 112.836 101.568 113.815 102.597C114.955 103.801 115.79 104.928 115.664 105.748C115.309 107.771 106.27 102.828 99.9652 107.515C98.2424 107.312 96.6126 106.617 95.2671 105.51C93.9216 104.402 92.9162 102.93 92.369 101.265C91.6854 99.2158 91.7866 97.4995 91.4828 97.4739C91.1789 97.4483 89.5838 98.7291 88.6469 100.497C88.2314 101.219 87.9775 102.024 87.9031 102.856C87.8288 103.688 87.9357 104.527 88.2164 105.312C90.016 108.94 92.1887 112.366 94.6985 115.533C94.8504 115.738 95.0277 115.917 95.1289 116.071L96.0911 117.249V117.403H95.686H94.2934C93.7432 117.383 93.1982 117.288 92.6729 117.121C91.4997 116.844 90.4389 116.21 89.6344 115.302C88.0053 113.124 85.8877 111.368 83.4562 110.179V114.995V115.584C83.3201 115.39 83.2174 115.173 83.1523 114.944C81.6584 111.332 82.8991 104.057 80.8482 102.136C79.2277 100.701 79.5062 105.415 79.7847 108.361C75.1435 106.048 70.6298 103.483 66.2636 100.676C56.5405 94.1695 55.5023 88.1754 56.5405 85.4089ZM85.0261 61.9705C84.4545 61.9253 83.8796 61.986 83.3296 62.1498C83.113 62.2209 82.9081 62.3246 82.7219 62.4572C82.3425 62.6954 82.0425 63.0434 81.861 63.4562C81.7409 63.7929 81.6809 64.1485 81.6838 64.5064C81.6838 64.5064 85.2539 62.9951 85.5071 62.3291C85.6084 62.1498 85.4565 62.0217 85.0261 61.9705ZM87.6847 64.9163C87.0517 62.867 83.76 65.6335 81.4559 67.8877C80.1898 69.1173 79.2277 70.1931 79.2277 70.1931C78.4885 70.7368 77.9459 71.5106 77.6831 72.3961C77.6831 72.3961 77.6831 72.3961 77.6831 72.5242C77.6719 72.5482 77.666 72.5744 77.666 72.601C77.666 72.6276 77.6719 72.6538 77.6831 72.6779C77.4805 73.1389 77.3286 73.6769 77.1514 74.2148C76.9741 74.7527 77.1514 74.6247 76.9741 74.8296C76.9938 74.9826 76.9938 75.1376 76.9741 75.2907C76.6417 76.622 76.3964 77.974 76.2398 79.338C75.8249 80.9238 75.9225 82.6024 76.5184 84.1281C77.4805 84.999 82.9498 77.1094 85.9882 71.0128C86.2161 70.5517 86.444 70.0907 86.6466 69.604C86.9237 69.0641 87.1689 68.5082 87.3809 67.9389C87.5517 67.6003 87.6712 67.2377 87.7354 66.8631C87.8564 66.5761 87.9415 66.2749 87.9886 65.9665C87.9999 65.873 87.9999 65.7783 87.9886 65.6848C87.9479 65.4081 87.8438 65.145 87.6847 64.9163ZM82.3674 95.2966C81.3293 96.6286 85.6844 101.06 87.0517 99.6C87.1023 99.6513 83.4309 93.9902 82.3674 95.3478V95.2966Z" fill="#C74CBD"/>
</g>
<path style="mix-blend-mode:multiply" opacity="0.5" d="M102.016 81.5921C102.016 81.5921 112.828 94.5537 124.526 91.3261C136.224 88.0985 136.173 71.0128 133.591 66.4788C132.676 65.412 131.649 64.45 130.527 63.6098C128.34 61.891 125.837 60.6299 123.163 59.8998C120.49 59.1698 117.699 58.9854 114.955 59.3576C112.328 59.7613 109.872 60.9235 107.882 62.7048C105.893 64.486 104.454 66.8105 103.738 69.399C103.732 69.4414 103.732 69.4846 103.738 69.5271C103.738 69.5271 103.738 69.5271 103.738 69.6551C102.47 73.4996 101.887 77.5414 102.016 81.5921Z" fill="url(#paint20_linear_1590_776)"/>
<path d="M131.413 67.4778C134.856 71.7557 136.249 89.4305 121.892 91.7103C107.536 93.9901 102.699 84.666 102.142 82.3862C101.205 78.467 102.927 62.1498 115.41 61.1507C118.37 60.9788 121.333 61.455 124.094 62.547C126.856 63.6389 129.352 65.3208 131.413 67.4778Z" fill="url(#paint21_radial_1590_776)"/>
<path d="M104.422 76.4434C104.272 78.4335 104.71 80.4237 105.678 82.1625C106.646 83.9012 108.103 85.3105 109.863 86.2121C111.623 87.1136 113.608 87.4671 115.566 87.2276C117.525 86.9882 119.369 86.1667 120.866 84.867C122.363 83.5672 123.446 81.8476 123.977 79.9255C124.508 78.0034 124.464 75.9651 123.851 74.0683C123.237 72.1715 122.081 70.5014 120.529 69.269C118.978 68.0367 117.099 67.2975 115.132 67.1449C113.826 67.0434 112.512 67.2036 111.266 67.6161C110.02 68.0285 108.867 68.6853 107.873 69.5489C106.878 70.4124 106.061 71.4658 105.469 72.6488C104.877 73.8317 104.521 75.1212 104.422 76.4434Z" fill="url(#paint22_radial_1590_776)"/>
<path style="mix-blend-mode:screen" d="M107.511 76.2128C107.419 77.4502 107.692 78.6872 108.295 79.7676C108.899 80.848 109.805 81.7233 110.899 82.2828C111.994 82.8423 113.228 83.061 114.446 82.9112C115.663 82.7614 116.81 82.2498 117.74 81.4411C118.67 80.6324 119.343 79.5629 119.672 78.3677C120.002 77.1726 119.974 75.9054 119.592 74.7263C119.21 73.5472 118.491 72.5092 117.526 71.7434C116.561 70.9775 115.393 70.5183 114.17 70.4237C113.356 70.3573 112.537 70.4548 111.761 70.7104C110.985 70.9661 110.266 71.3749 109.647 71.9132C109.028 72.4516 108.52 73.1087 108.153 73.8467C107.787 74.5847 107.568 75.3889 107.511 76.2128Z" fill="url(#paint23_radial_1590_776)"/>
<path d="M108.828 75.9823C108.751 76.9935 108.972 78.0052 109.463 78.8892C109.954 79.7733 110.694 80.4899 111.588 80.9484C112.483 81.4068 113.491 81.5864 114.486 81.4644C115.482 81.3424 116.419 80.9244 117.179 80.2631C117.939 79.6019 118.488 78.7273 118.757 77.7501C119.025 76.7729 119.001 75.7371 118.687 74.7739C118.373 73.8108 117.783 72.9635 116.993 72.3396C116.202 71.7156 115.247 71.343 114.247 71.269C112.911 71.1701 111.591 71.6105 110.576 72.4938C109.56 73.3771 108.932 74.6315 108.828 75.9823Z" fill="#1C1249"/>
<path style="mix-blend-mode:screen" d="M103.966 72.934C103.637 77.3143 107.46 77.8266 111.79 78.0571C116.12 78.2877 125.21 74.6502 125.514 70.3724C125.818 66.0946 120.019 61.5606 112.854 62.3034C108.651 62.7901 104.295 68.5537 103.966 72.934Z" fill="url(#paint24_radial_1590_776)"/>
<path d="M121.589 76.9044C121.589 77.9034 122.602 78.8256 124.121 78.9281C125.64 79.0305 126.653 78.3133 126.83 77.2886C127.007 76.264 125.817 75.3675 124.298 75.265C122.779 75.1625 121.665 75.9054 121.589 76.9044Z" fill="white"/>
<path d="M145.948 64.0197C145.948 64.7882 147.037 65.2493 148.125 65.07C149.214 64.8907 149.948 64.1478 149.822 63.3793C149.695 62.6109 148.733 62.1498 147.67 62.3291C146.606 62.5084 145.846 63.2513 145.948 64.0197Z" fill="white"/>
<path d="M150.404 86.9714C151.835 86.1658 153.451 85.7592 155.088 85.7931C155.137 85.1879 155.137 84.5796 155.088 83.9744C155.108 83.5678 154.982 83.1676 154.734 82.8473C154.511 82.7781 154.273 82.7781 154.05 82.8473C153.951 82.8174 153.846 82.8174 153.746 82.8473C152.461 84.0704 151.338 85.4567 150.404 86.9714Z" fill="#1C1249"/>
<path d="M153.975 82.8473L153.747 83.0266C153.846 82.9967 153.952 82.9967 154.051 83.0266C154.273 82.9574 154.512 82.9574 154.734 83.0266C154.646 82.9152 154.523 82.837 154.385 82.8045C154.247 82.772 154.103 82.7871 153.975 82.8473Z" fill="#1C1249"/>
<path d="M122.172 48.266C122.172 48.266 116.576 49.6493 114.145 46.8828C114.145 46.9852 119.766 44.4237 122.172 48.266Z" fill="white"/>
<path style="mix-blend-mode:screen" d="M78.3426 113.766L80.1404 114.765C81.3051 115.405 82.4952 116.02 83.7106 116.583L84.7487 117.044C86.3426 117.788 87.9737 118.446 89.6356 119.017C89.798 119.114 89.9794 119.176 90.1673 119.196C90.2568 119.232 90.3563 119.232 90.4458 119.196L90.8763 119.375L91.6865 119.632C92.9067 120.059 94.1493 120.418 95.4086 120.707C95.8644 120.861 96.2948 120.964 96.7253 121.066C97.0055 121.155 97.2939 121.215 97.5862 121.245H97.9913C98.4561 121.395 98.9296 121.515 99.4093 121.604H99.6372C100.169 121.732 100.726 121.834 101.258 121.911L103.916 122.347H104.296C104.954 122.347 105.613 122.552 106.322 122.629H107.259H107.36H108.221C108.516 122.655 108.812 122.655 109.107 122.629H109.613H110.474C111.943 122.629 113.361 122.629 114.728 122.629H115.893C116.602 122.629 117.311 122.629 118.02 122.424H118.349H118.982C120.375 122.244 121.742 121.988 123.059 121.681C123.464 121.681 123.869 121.501 124.223 121.373C125.152 121.153 126.066 120.871 126.958 120.528C127.388 120.528 127.819 120.221 128.224 120.067H128.452H128.705C137.981 116.025 145.674 108.991 150.582 100.061C145.518 107.029 137.922 115.431 127.616 119.068H127.414L126.983 119.222L125.743 119.58H125.388L124.527 119.785C124.135 119.892 123.738 119.978 123.337 120.041C122.831 120.195 122.299 120.272 121.793 120.374C121.109 120.528 120.451 120.631 119.767 120.733H118.982H118.425C117.969 120.733 117.463 120.733 117.007 120.887C116.67 120.911 116.331 120.911 115.994 120.887H114.298C113.082 120.887 111.766 120.887 110.677 120.887H109.563C109.285 120.914 109.005 120.914 108.727 120.887H107.031H104.954C104.846 120.86 104.733 120.86 104.625 120.887L102.777 120.682H102.169L99.4852 120.272C98.9451 120.272 98.4133 120.169 97.89 119.965H97.4343H96.7759C96.6042 119.962 96.4371 119.908 96.2948 119.811C95.0292 119.63 93.783 119.33 92.5727 118.914C92.517 118.94 92.4566 118.953 92.3955 118.953C92.3344 118.953 92.2739 118.94 92.2183 118.914C91.5852 118.761 90.9775 118.581 90.3699 118.376H90.066C88.5974 117.941 87.2301 117.48 85.8628 116.942C85.483 116.763 85.0779 116.634 84.6727 116.43C83.1776 115.864 81.7151 115.214 80.2923 114.483C79.6593 114.457 79.0009 114.124 78.3426 113.766Z" fill="url(#paint25_linear_1590_776)"/>
<path style="mix-blend-mode:multiply" opacity="0.5" d="M99.6101 120.861C99.5159 121.808 99.6018 122.765 99.8633 123.679C99.6866 122.75 99.6018 121.807 99.6101 120.861Z" fill="url(#paint26_linear_1590_776)"/>
<path style="mix-blend-mode:multiply" opacity="0.5" d="M97.4081 143.198C97.4081 143.198 97.6613 143.582 98.0664 144.069L97.4081 143.198Z" fill="url(#paint27_linear_1590_776)"/>
<path style="mix-blend-mode:multiply" opacity="0.5" d="M18.6108 121.271H18.7374C19.1679 121.117 20.0288 120.81 21.2695 120.323C21.5552 120.212 21.8342 120.083 22.1051 119.939C22.3329 119.939 22.5861 119.734 22.8393 119.657L23.5483 119.299C24.5105 118.837 25.574 118.3 26.6881 117.634H26.9666C27.3421 117.374 27.7309 117.134 28.1313 116.916L29.3974 116.097L30.9166 115.072C31.2964 114.79 31.7015 114.534 32.056 114.227C32.4105 113.919 33.3727 113.228 34.0563 112.69L35.0692 111.793C35.4236 111.511 35.7528 111.23 36.1073 110.897L37.4746 109.565C29.7265 116.353 20.915 119.196 20.3833 118.325C19.8515 117.454 29.3214 109.18 30.1823 108.463C27.3639 110.371 24.3809 112.017 21.2695 113.381C18.94 114.201 18.7374 109.795 18.7374 107.746C18.7374 107.874 18.7374 107.976 18.7374 108.079C18.1604 112.454 18.1178 116.885 18.6108 121.271Z" fill="url(#paint28_linear_1590_776)"/>
<path style="mix-blend-mode:multiply" opacity="0.5" d="M0.101196 61.8168C0.593109 63.4676 1.16778 65.092 1.82299 66.6838C2.12684 67.3498 2.43069 68.0926 2.78518 68.8867C3.41819 70.2956 4.22844 71.8069 5.11466 73.3695C5.2919 73.6769 5.44383 73.9843 5.6464 74.2916C8.48338 79.1701 12.2332 83.4422 16.6861 86.869C29.0172 96.065 31.8784 96.3468 31.8784 96.3724L31.524 96.5517C31.4236 96.5317 31.3204 96.5317 31.2201 96.5517C30.5871 96.8591 29.549 97.3971 28.3589 98.0887C28.1622 98.1898 27.9757 98.3099 27.8018 98.4473C27.1042 98.846 26.428 99.2821 25.7762 99.7537L25.0925 100.215L24.4089 100.676C30.6799 97.5721 37.1219 94.8352 43.7031 92.4788C40.569 92.9891 37.406 93.2972 34.2332 93.401C27.7512 93.401 15.0656 85.1527 15.9012 84.8197C19.4461 83.4109 36.3349 84.6916 36.3349 84.6916C36.3349 84.6916 14.1794 80.7724 7.69735 75.2138C7.34286 74.932 7.01369 74.6759 6.73517 74.4197L27.7259 79.5429C23.8772 78.3646 7.72268 73.3182 3.9246 68.938C16.4076 72.601 32.2329 74.8552 34.1573 75.1626C31.7772 74.4966 8.60889 68.2976 0.101196 61.8168Z" fill="url(#paint29_linear_1590_776)"/>
<path style="mix-blend-mode:screen" d="M60.9714 88.6365C61.5031 91.198 73.7836 97.3714 88.5961 100.778C89.8283 101.052 91.069 101.308 92.3182 101.547C99.3456 102.996 106.54 103.436 113.689 102.853C111.906 101.085 109.983 99.4654 107.941 98.0118C109.283 98.9084 112.676 101.086 114.018 100.855C115.36 100.625 122.196 100.42 119.082 99.1389C115.968 97.8581 117.487 100.906 107.561 96.7823C97.6355 92.6581 94.673 89.0975 94.4198 87.0739C94.5549 83.7017 94.9443 80.3448 95.5845 77.0325L94.0653 75.2394C94.0653 75.2394 99.1294 68.9892 99.5092 65.5823C91.0814 66.1997 82.9493 68.9861 75.8852 73.6769C73.9861 74.8552 72.239 76.0847 70.6185 77.2887C64.3137 81.8739 60.5156 86.536 60.9714 88.6365Z" fill="url(#paint30_linear_1590_776)"/>
<path d="M135.49 75.1625C135.49 75.1625 135.11 86.6896 128.172 90.3783C124.057 92.5781 119.343 93.352 114.752 92.5813C119.521 93.9378 124.568 93.9378 129.337 92.5813C136.705 90.2502 135.49 75.1625 135.49 75.1625Z" fill="url(#paint31_radial_1590_776)"/>
<path d="M68.9978 145.708C68.8553 147.81 68.9146 149.92 69.175 152.01C69.1976 152.423 69.2484 152.834 69.327 153.239C69.327 153.598 69.4536 153.957 69.5295 154.315C69.6055 154.674 69.7068 155.032 69.7827 155.391C69.8569 155.712 69.9499 156.029 70.0613 156.339C70.4875 158.227 71.3559 159.984 72.5933 161.462C72.5933 161.462 73.8593 160.694 76.0116 159.157L76.9738 158.516C79.5058 156.723 82.7722 154.238 86.393 151.216L87.5577 150.242C89.0263 148.962 90.5456 147.681 92.0648 146.169L93.8372 144.504L95.7363 142.583L96.4706 141.815C97.1542 141.098 97.8632 140.355 98.5215 139.586C99.1799 138.818 99.8382 138.1 100.471 137.332C100.838 136.932 101.185 136.513 101.509 136.077C101.737 135.821 101.965 135.513 102.168 135.257C102.243 135.17 102.311 135.075 102.37 134.975C102.927 134.232 103.484 133.541 103.991 132.798C104.928 131.492 105.789 130.236 106.523 128.828C107.257 127.419 107.637 126.778 108.143 125.754C108.65 124.729 108.928 123.986 109.232 123.192C109.302 123.052 109.361 122.906 109.409 122.757L109.713 121.963C110.068 120.835 110.372 119.811 110.599 118.863C110.7 118.501 110.776 118.133 110.827 117.762C111.046 116.629 111.181 115.482 111.232 114.329C111.232 113.919 111.232 113.561 111.232 113.202C111.19 112.281 111.08 111.365 110.903 110.461C110.743 109.524 110.351 108.642 109.764 107.899C109.339 107.482 108.784 107.228 108.194 107.182C107.959 107.332 107.765 107.54 107.63 107.786C107.496 108.033 107.425 108.31 107.425 108.591C107.425 108.873 107.496 109.149 107.63 109.396C107.765 109.642 107.959 109.85 108.194 110C107.994 110.398 107.757 110.776 107.485 111.127C107.349 111.327 107.196 111.516 107.029 111.691C106.397 112.449 105.654 113.106 104.826 113.637C103.704 114.389 102.434 114.887 101.104 115.098C99.9982 115.266 98.8804 115.343 97.7619 115.328H96.7997C96.268 115.328 95.6856 115.328 95.1033 115.328C93.5081 115.328 91.7863 115.328 90.0392 115.098H88.925L84.7725 114.841H83.9369C83.8371 114.866 83.7328 114.866 83.6331 114.841H83.4052H80.6452H80.4174C79.1444 114.753 77.8669 114.753 76.594 114.841H75.9609C73.5207 115.199 71.1319 115.853 68.8459 116.788C70.7702 116.268 72.7959 116.268 74.7202 116.788C75.2716 116.996 75.7635 117.339 76.1522 117.786C76.5409 118.233 76.8145 118.77 76.9485 119.35C77.0275 119.618 77.0867 119.892 77.1257 120.169C77.2328 123.018 76.6229 125.847 75.3533 128.392C74.4164 130.646 73.2517 133.054 72.1882 135.539C71.4266 137.204 70.767 138.915 70.2132 140.662C69.5939 142.284 69.1853 143.98 68.9978 145.708Z" fill="url(#paint32_linear_1590_776)"/>
<path style="mix-blend-mode:multiply" opacity="0.5" d="M69.175 152.01C69.1976 152.423 69.2484 152.834 69.327 153.239C69.327 153.598 69.4536 153.957 69.5295 154.315C69.6055 154.674 69.7068 155.032 69.7827 155.391C69.8569 155.712 69.9499 156.029 70.0613 156.339C70.4875 158.227 71.3559 159.984 72.5933 161.462C72.5933 161.462 73.8593 160.694 76.0116 159.157L76.9738 158.516C79.5058 156.723 82.7722 154.238 86.393 151.216L87.5577 150.242C89.0263 148.962 90.5456 147.681 92.0648 146.169L93.8372 144.504L95.7363 142.583L96.4706 141.815C97.1542 141.098 97.8632 140.355 98.5215 139.586C99.1799 138.818 99.8382 138.1 100.471 137.332C100.838 136.932 101.185 136.513 101.509 136.077C101.737 135.821 101.965 135.513 102.168 135.257C102.243 135.17 102.311 135.075 102.37 134.975C102.927 134.232 103.484 133.541 103.991 132.798C104.928 131.492 105.789 130.236 106.523 128.828C107.257 127.419 107.637 126.778 108.143 125.754C108.65 124.729 108.928 123.986 109.232 123.192C109.302 123.052 109.361 122.906 109.409 122.757L109.713 121.963C110.068 120.835 110.372 119.811 110.599 118.863C110.7 118.501 110.776 118.133 110.827 117.762C111.046 116.629 111.181 115.482 111.232 114.329C110.964 115.152 110.643 115.956 110.27 116.737C110.093 117.07 109.916 117.429 109.764 117.787C109.612 118.146 109.384 118.504 109.156 118.863C108.928 119.222 108.498 119.965 108.093 120.554L107.206 121.86L106.371 122.91C104.493 125.152 102.379 127.179 100.066 128.956L99.2052 129.647C98.7998 129.977 98.3772 130.285 97.9392 130.569C97.3821 131.031 96.7744 131.415 96.2174 131.825L95.7869 132.106C95.3024 132.48 94.795 132.822 94.2677 133.131C89.5966 136.216 84.4677 138.525 79.0754 139.97C76.0748 140.839 72.9438 141.151 69.8334 140.893C69.3297 142.445 69.0151 144.053 68.8965 145.683C68.7859 147.796 68.8792 149.915 69.175 152.01Z" fill="url(#paint33_linear_1590_776)"/>
<path style="mix-blend-mode:multiply" opacity="0.5" d="M71.9102 135.693C76.0748 136.018 80.264 135.663 84.3172 134.642C87.2867 133.907 90.172 132.86 92.9262 131.517C93.7618 131.107 94.6227 130.672 95.4583 130.211C95.5584 130.128 95.6691 130.059 95.7874 130.006C96.7721 129.399 97.7192 128.732 98.6233 128.008C100.683 126.406 102.575 124.594 104.27 122.603C104.546 122.318 104.808 122.019 105.055 121.706C105.941 120.682 106.65 119.708 107.283 118.863C107.283 118.863 107.739 118.171 107.967 117.89C108.701 116.814 109.131 116.071 109.309 115.789C109.131 116.071 108.6 116.839 107.84 117.89C107.637 118.146 107.41 118.428 107.182 118.761C106.523 119.606 105.688 120.579 104.65 121.604C104.396 121.911 104.093 122.219 103.814 122.526C102.14 124.259 100.309 125.828 98.3448 127.214C97.4839 127.777 96.623 128.315 95.6862 128.828H95.5596C94.751 129.266 93.9032 129.626 93.0275 129.903C92.723 130.052 92.399 130.156 92.0653 130.211C90.6911 130.573 89.2814 130.779 87.8621 130.826C84.7129 130.858 81.5754 130.435 78.5442 129.57C77.3352 129.239 76.1436 128.846 74.974 128.392C74.1384 130.8 72.9737 133.208 71.9102 135.693Z" fill="url(#paint34_linear_1590_776)"/>
<path style="mix-blend-mode:multiply" opacity="0.5" d="M74.4428 116.993C74.9941 117.201 75.486 117.544 75.8748 117.991C76.2635 118.438 76.537 118.975 76.671 119.555C78.0365 119.318 79.4147 119.164 80.7983 119.094C83.6277 119.003 86.46 119.08 89.2806 119.324H90.4454C91.0277 119.324 91.6354 119.324 92.2178 119.324C92.3687 119.35 92.5227 119.35 92.6736 119.324C94.1936 119.413 95.7184 119.37 97.2313 119.196C97.8643 119.196 98.5226 119.017 99.1556 118.914H99.3076C99.3916 118.926 99.4767 118.926 99.5608 118.914C100.017 118.834 100.466 118.714 100.903 118.556C101.515 118.372 102.116 118.15 102.701 117.89C103.064 117.739 103.419 117.568 103.764 117.377C104.044 117.252 104.315 117.107 104.574 116.942C103.765 117.346 102.916 117.663 102.042 117.89C101.084 118.114 100.111 118.268 99.1303 118.351H98.9024C98.3798 118.389 97.8552 118.389 97.3326 118.351C96.3436 118.359 95.3548 118.316 94.3701 118.223C93.4079 118.223 92.4457 118.018 91.5088 117.89L89.9643 117.685C88.1159 117.429 86.3181 117.096 84.6976 116.839C84.352 116.814 84.0051 116.814 83.6595 116.839C82.6573 116.53 81.633 116.298 80.5957 116.148C79.7078 116.142 78.8203 116.184 77.937 116.276C76.7599 116.448 75.5933 116.688 74.4428 116.993Z" fill="url(#paint35_linear_1590_776)"/>
<path style="mix-blend-mode:multiply" opacity="0.5" d="M68.9987 145.708C68.8561 147.81 68.9155 149.92 69.1759 152.01C69.1984 152.423 69.2492 152.834 69.3278 153.239C69.3278 153.598 69.4544 153.957 69.5304 154.315C69.6064 154.674 69.7076 155.033 69.7836 155.391C69.8578 155.712 69.9508 156.029 70.0621 156.339C70.4883 158.227 71.3567 159.984 72.5942 161.462C72.5942 161.462 73.8602 160.694 76.0124 159.157L76.9746 158.516C79.5067 156.723 82.773 154.238 86.3938 151.216L87.5586 150.242C89.0272 148.962 90.5464 147.681 92.0656 146.169L93.8381 144.504L95.7371 142.583L96.4714 141.815C97.1551 141.098 97.864 140.355 98.5224 139.586C99.1807 138.818 99.839 138.101 100.472 137.332C100.839 136.932 101.185 136.513 101.51 136.077C101.738 135.821 101.966 135.513 102.169 135.257C102.244 135.17 102.312 135.075 102.371 134.975L102.118 135.257C101.839 135.539 101.536 135.846 101.257 136.179C100.953 136.512 100.675 136.845 100.32 137.178C98.9781 138.613 97.383 140.201 95.7371 141.764C91.2301 146.016 86.2419 149.833 84.0897 148.757L83.3047 148.296C82.0775 147.282 81.0837 146.01 80.3927 144.567C79.7017 143.125 79.3302 141.547 79.3041 139.945C79.1872 138.901 79.3905 137.845 79.8865 136.922C81.217 135.814 82.7735 135.018 84.4442 134.591C85.5076 134.207 86.5205 133.9 87.3054 133.669C86.0288 134.051 84.6839 134.139 83.3694 133.926C82.0549 133.713 80.8043 133.205 79.7092 132.439C79.0355 131.688 78.6572 130.713 78.6458 129.699C78.678 126.031 79.4087 122.404 80.798 119.017H83.9884C83.7858 119.017 80.3676 117.634 77.9368 116.455C77.1064 116.13 76.3424 115.652 75.6833 115.046C73.243 115.404 70.8542 116.058 68.5682 116.993C70.4925 116.473 72.5183 116.473 74.4426 116.993C74.9939 117.201 75.4858 117.544 75.8745 117.991C76.2633 118.438 76.5368 118.975 76.6708 119.555C76.7498 119.823 76.8091 120.097 76.848 120.374C76.9551 123.223 76.3452 126.052 75.0756 128.597C74.1387 130.851 72.974 133.259 71.9105 135.744C71.1489 137.409 70.4893 139.12 69.9355 140.867C69.4277 142.436 69.1131 144.062 68.9987 145.708Z" fill="url(#paint36_linear_1590_776)"/>
<path style="mix-blend-mode:screen" d="M88.6466 115.251C88.9336 115.509 89.1887 115.802 89.4062 116.122C89.5319 116.295 89.6341 116.485 89.7101 116.686C89.8406 116.962 89.9343 117.255 89.9886 117.557C90.115 118.137 90.1745 118.73 90.1658 119.324C89.9497 122.305 90.2758 125.3 91.128 128.162C91.4025 128.936 91.7501 129.683 92.1662 130.39C92.3959 130.781 92.6496 131.158 92.9258 131.517C93.3246 132.11 93.7737 132.668 94.2678 133.182C95.6821 134.606 97.3262 135.776 99.1293 136.64L100.193 137.127H100.421C101.003 136.435 101.56 135.744 102.092 135.027C101.554 135.105 101.009 135.105 100.471 135.027C99.5094 134.953 98.5924 134.585 97.8418 133.972C97.0912 133.359 96.5424 132.53 96.2681 131.594C96.1415 131.159 96.0149 130.698 95.9136 130.185C95.9015 130.032 95.9015 129.878 95.9136 129.724C95.848 129.386 95.8057 129.044 95.787 128.699C95.7967 125.378 96.3091 122.078 97.3062 118.914C97.3062 118.607 97.4328 118.274 97.5088 117.966C97.4965 117.89 97.4965 117.812 97.5088 117.736C97.5211 117.506 97.5211 117.275 97.5088 117.044C97.5725 116.465 97.5725 115.881 97.5088 115.302C94.9261 115.61 91.761 115.456 88.6466 115.251Z" fill="url(#paint37_linear_1590_776)"/>
<path style="mix-blend-mode:multiply" opacity="0.5" d="M83.1783 148.347C86.7975 146.696 90.1997 144.597 93.3065 142.097C94.0408 141.482 94.8004 140.893 95.5347 140.227C96.269 139.561 97.4084 138.51 98.3199 137.665C98.5478 137.383 98.801 137.127 99.0542 136.845C99.5167 136.407 99.9482 135.936 100.346 135.436C101.055 134.591 101.738 133.771 102.422 132.875L103.106 131.978C103.739 131.107 104.346 130.262 104.853 129.417C106.143 127.439 107.269 125.357 108.22 123.192C108.402 122.809 108.563 122.415 108.701 122.014C109.132 120.938 109.436 119.965 109.714 119.017C109.714 118.658 109.866 118.274 109.942 117.941C110.032 117.596 110.099 117.245 110.145 116.891C110.262 116.214 110.321 115.528 110.322 114.841C110.373 114.407 110.373 113.969 110.322 113.535C110.343 112.636 110.115 111.748 109.664 110.973C109.575 110.799 109.45 110.647 109.297 110.528C109.144 110.408 108.966 110.324 108.777 110.282C108.47 110.202 108.148 110.202 107.84 110.282C107.605 110.132 107.411 109.924 107.277 109.678C107.142 109.431 107.072 109.154 107.072 108.873C107.072 108.591 107.142 108.315 107.277 108.068C107.411 107.822 107.605 107.614 107.84 107.464C108.431 107.51 108.986 107.764 109.41 108.181C109.998 108.924 110.39 109.805 110.55 110.743C110.726 111.647 110.836 112.563 110.879 113.484C110.879 113.842 110.879 114.201 110.879 114.611C110.828 115.764 110.692 116.911 110.474 118.043C110.422 118.415 110.346 118.783 110.246 119.145C110.018 120.093 109.714 121.117 109.36 122.244L109.056 123.038C109.008 123.188 108.948 123.333 108.879 123.474C108.575 124.294 108.22 125.165 107.79 126.035C107.359 126.906 106.752 128.085 106.169 129.109C105.587 130.134 104.523 131.671 103.637 133.08C103.131 133.823 102.574 134.514 102.017 135.257C101.958 135.357 101.89 135.451 101.814 135.539C101.612 135.795 101.384 136.102 101.156 136.359C100.831 136.795 100.485 137.214 100.118 137.614C99.4847 138.382 98.8263 139.125 98.168 139.868C97.5097 140.611 96.8007 141.379 96.117 142.097L95.3828 142.865L93.4837 144.786L91.7113 146.451C90.192 147.86 88.6728 149.243 87.2042 150.524L86.0395 151.498C82.6972 154.238 79.5068 156.723 76.9747 158.516L76.1898 159.105C74.0376 160.642 72.7715 161.411 72.7715 161.411C71.5341 159.933 70.6657 158.176 70.2395 156.288C70.1282 155.978 70.0352 155.661 69.961 155.34C69.961 154.981 69.7837 154.648 69.7078 154.264C69.6318 153.88 69.5812 153.547 69.5052 153.188C69.4266 152.782 69.3758 152.372 69.3533 151.959C74.1513 151.685 78.8491 150.458 83.1783 148.347ZM108.752 107.669C108.779 107.929 108.829 108.187 108.904 108.437C109.056 108.847 110.018 109.59 110.018 109.59C110.018 109.59 110.55 108.156 108.752 107.669Z" fill="url(#paint38_linear_1590_776)"/>
<path style="mix-blend-mode:screen" d="M112.574 51.1094C112.574 51.1094 129.387 54.1577 137.541 64.404C142.386 70.3281 145.131 77.7227 145.339 85.4089C146.695 82.3891 148.478 79.5847 150.631 77.0838C152.129 76.1031 153.94 75.7367 155.695 76.0591H155.467C154.307 75.6696 153.226 75.0708 152.277 74.2917L151.847 73.805C151.239 73.0365 150.201 71.5508 148.808 69.5784C146.442 66.1715 143.907 62.8885 141.212 59.7419C140.376 58.7941 139.49 57.8207 138.68 56.8729C137.87 55.9252 137.059 55.2591 136.148 54.4651C132.7 51.1694 128.728 48.4849 124.399 46.5242L121.741 47.6L119.031 48.7015L112.574 51.1094Z" fill="url(#paint39_linear_1590_776)"/>
<path style="mix-blend-mode:screen" d="M1.51921 62.6365C9.69774 67.7596 42.8423 77.6985 43.0195 76.7764C42.629 74.9894 41.8333 73.3187 40.6952 71.8961C39.5571 70.4736 38.1077 69.3381 36.4615 68.5793C32.0051 66.5301 1.51921 62.6365 1.51921 62.6365Z" fill="url(#paint40_linear_1590_776)"/>
<path style="mix-blend-mode:screen" d="M34.7656 79.2098C31.0891 79.7964 27.3267 79.4711 23.8018 78.2621C19.232 77.0443 14.8699 75.1357 10.8631 72.601C10.8884 71.9862 34.7656 79.2098 34.7656 79.2098Z" fill="url(#paint41_linear_1590_776)"/>
<path d="M91.1289 67.4778C87.736 68.6306 87.9892 70.9104 87.9892 70.9104C88.4441 70.5088 88.8674 70.072 89.2552 69.604L91.1289 67.4778Z" fill="white"/>
<path d="M94.4707 60.6896C91.2297 61.0739 89.4066 66.6069 89.5332 66.5813C90.5689 66.4189 91.5504 66.0059 92.3944 65.3773C93.2416 63.8899 93.9372 62.3193 94.4707 60.6896Z" fill="white"/>
<path style="mix-blend-mode:screen" d="M39.5254 95.9113C39.5254 95.9113 21.801 109.923 20.3831 108.719C18.9651 107.515 22.5353 103.109 26.1308 100.445C29.7263 97.7813 39.5254 95.9113 39.5254 95.9113Z" fill="url(#paint42_linear_1590_776)"/>
<path style="mix-blend-mode:screen" d="M154.556 86.6896C153.921 87.2565 153.177 87.6835 152.371 87.9437C151.564 88.2039 150.713 88.2915 149.872 88.201C149.872 88.201 152.733 85.6394 153.746 85.6394C153.88 85.6113 154.019 85.6217 154.148 85.6695C154.276 85.7173 154.389 85.8005 154.473 85.9098C154.558 86.019 154.61 86.15 154.625 86.2878C154.639 86.4256 154.615 86.5648 154.556 86.6896Z" fill="url(#paint43_linear_1590_776)"/>
<path style="mix-blend-mode:screen" d="M0.000198364 61.4325C-0.00843811 61.5604 -0.00843811 61.6888 0.000198364 61.8167C0.492111 63.4676 1.06679 65.092 1.722 66.6837C2.02585 67.3498 2.3297 68.0926 2.68417 68.8867C3.31718 70.2956 4.12746 71.8069 5.01367 73.3695C5.19092 73.6768 5.34283 73.9842 5.54539 74.2916C8.38239 79.1701 12.1322 83.4422 16.5851 86.869C28.9162 96.065 31.7775 96.3468 31.7775 96.3724L31.423 96.5517C31.3226 96.5317 31.2194 96.5317 31.1191 96.5517C30.4861 96.8591 29.448 97.397 28.2579 98.0887C28.0612 98.1898 27.8747 98.3098 27.7009 98.4473C27.0032 98.846 26.327 99.2821 25.6752 99.7537L24.9915 100.215L24.3079 100.676C21.7933 102.34 19.8686 104.772 18.8133 107.618C18.8133 107.746 18.8133 107.848 18.8133 107.951C18.2005 112.365 18.1325 116.84 18.6108 121.271H18.7374C19.1678 121.117 20.0287 120.81 21.2694 120.323C21.5551 120.212 21.8341 120.083 22.105 119.939C22.3329 119.939 22.5861 119.734 22.8393 119.657L23.5483 119.299C24.5105 118.837 25.5739 118.3 26.688 117.633H26.9666C27.3421 117.374 27.7309 117.134 28.1313 116.916L29.3973 116.097L30.9166 115.072C31.2964 114.79 31.7015 114.534 32.056 114.227C32.4105 113.919 33.3726 113.228 34.0563 112.69L35.0691 111.793C35.4236 111.511 35.7528 111.23 36.1073 110.897L37.4746 109.565L38.6393 108.233C41.4842 104.78 43.8835 100.975 45.7797 96.9103C46.2101 96.0906 46.5646 95.2453 46.8938 94.4769C47.5822 93.6172 48.4395 92.9115 49.4114 92.4044C50.3834 91.8973 51.4488 91.5999 52.5403 91.531C55.0723 91.736 61.1492 102.879 74.9236 112.024C75.9364 112.715 76.9746 113.356 78.0633 113.996L79.8611 114.995C78.5881 114.907 77.3107 114.907 76.0377 114.995H75.4047C72.9645 115.353 70.5756 116.007 68.2896 116.942C70.2139 116.421 72.2397 116.421 74.164 116.942C74.7153 117.15 75.2072 117.493 75.596 117.94C75.9847 118.387 76.2582 118.924 76.3922 119.503C76.4712 119.772 76.5305 120.046 76.5694 120.323C76.6765 123.172 76.0666 126.001 74.797 128.546C73.8601 130.8 72.6954 133.208 71.6319 135.693C70.8703 137.358 70.2107 139.069 69.6569 140.816C69.1532 142.368 68.8386 143.977 68.7201 145.606C68.6631 147.751 68.8157 149.896 69.1758 152.01C69.1984 152.423 69.2492 152.834 69.3278 153.239C69.3278 153.598 69.4544 153.957 69.5303 154.315C69.6063 154.674 69.7076 155.033 69.7835 155.391C69.8577 155.712 69.9507 156.029 70.0621 156.339C70.4883 158.227 71.3567 159.984 72.5941 161.462C72.5941 161.462 73.8601 160.694 76.0124 159.157L76.9746 158.516C79.5066 156.723 82.773 154.238 86.3938 151.216L87.5585 150.242C89.0271 148.962 90.5464 147.681 92.0656 146.169L93.838 144.504L95.7371 142.583C95.7371 143.121 95.7371 143.608 95.7371 144.146C95.8677 145.776 96.1908 147.384 96.6992 148.936C97.3653 150.916 98.213 152.828 99.2313 154.648L99.8643 155.724L100.472 156.621C100.675 156.954 100.902 157.235 101.105 157.543L101.713 158.311C102.851 159.886 104.356 161.153 106.093 162C106.093 162 106.954 160.796 108.347 158.542L108.904 157.697C110.499 155.135 112.626 151.523 114.803 147.271L115.487 145.939C116.399 144.197 117.26 142.353 118.019 140.432L119.007 138.203C119.513 137.05 119.969 135.898 120.45 134.719C120.931 133.541 121.134 132.824 121.513 131.85C121.893 130.877 122.248 129.955 122.551 128.956C122.855 127.957 123.058 127.239 123.311 126.394C123.319 126.3 123.319 126.206 123.311 126.112C123.691 124.678 124.045 123.32 124.299 121.937C125.228 121.717 126.141 121.434 127.033 121.092C127.464 121.092 127.894 120.784 128.299 120.631H128.527H128.78C138.056 116.589 145.749 109.554 150.657 100.625C157.367 89.0719 159.038 77.5704 157.443 76.5458C156.83 76.4397 156.229 76.2768 155.645 76.0591H155.468C154.308 75.6696 153.227 75.0707 152.278 74.2916L151.847 73.8049C152.533 71.9515 152.82 69.9714 152.689 67.9969C152.558 66.0223 152.012 64.0987 151.088 62.3547C149.722 60.2973 147.808 58.6737 145.567 57.6717C143.326 56.6698 140.851 56.3307 138.427 56.6936C137.643 55.8739 136.807 55.0798 135.895 54.2857C132.448 50.9901 128.476 48.3056 124.147 46.3448C119.423 44.1611 114.094 43.7171 109.081 45.0897C109.891 43.8857 110.372 43.066 110.423 43.0148C110.474 42.9635 109.765 43.0148 108.777 42.067C107.79 41.1192 105.485 37.6355 103.131 30.2581C103.131 30.0276 102.953 29.7714 102.852 29.5153C102.041 27.2438 101.032 25.0494 99.839 22.9576C96.1771 16.88 91.9094 11.1978 87.1028 6C87.8557 7.16865 88.4677 8.4242 88.9258 9.7399C89.303 10.6759 89.303 11.7241 88.9258 12.6601C88.5403 13.394 87.8858 13.9457 87.1028 14.197L85.9633 14.6325C85.0265 14.9655 83.8364 15.4266 82.2159 16.1438C80.5917 16.9457 79.0112 17.835 77.481 18.8079C75.9995 19.7449 74.703 20.9523 73.6576 22.3685C71.5441 25.2199 69.8393 28.3589 68.5935 31.6926C67.5806 34.2075 66.6932 36.7723 65.9348 39.3773C65.2512 41.7084 64.6688 44.0138 64.1371 46.3448C63.8332 47.7537 63.5294 49.1626 63.2762 50.5714C62.0561 56.2737 61.5541 62.1092 61.7823 67.9389C61.7823 68.5281 61.9595 69.1429 62.0608 69.7064C62.1621 70.27 62.0608 70.2443 62.2887 70.5261C62.3412 70.7888 62.4175 71.046 62.5166 71.2946C62.5166 71.5764 62.6938 71.8069 62.7444 72.0374C63.2601 73.2542 64.0594 74.3264 65.0739 75.1626L61.1239 78.6463L59.9845 79.6709C56.313 82.9241 53.705 85.0246 52.7682 85.0502C51.7531 85.016 50.7616 84.7323 49.8793 84.2235C48.9969 83.7147 48.2503 82.9962 47.704 82.1301C46.0582 77.468 43.121 71.5507 38.7406 68.9379C33.6491 66.703 28.2696 65.2109 22.7634 64.5064C11.8755 62.6108 0.000198364 61.4325 0.000198364 61.4325Z" fill="url(#paint44_linear_1590_776)"/>
</g>
<defs>
<linearGradient id="paint0_linear_1590_776" x1="135.008" y1="100.906" x2="92.2895" y2="144.881" gradientUnits="userSpaceOnUse">
<stop offset="0.01" stop-color="#FF3B59"/>
<stop offset="0.22" stop-color="#FC3959"/>
<stop offset="0.39" stop-color="#F23359"/>
<stop offset="0.54" stop-color="#E22A58"/>
<stop offset="0.68" stop-color="#CA1C58"/>
<stop offset="0.81" stop-color="#AD0B57"/>
<stop offset="0.88" stop-color="#9A0057"/>
<stop offset="0.99" stop-color="#9A00AE"/>
</linearGradient>
<linearGradient id="paint1_linear_1590_776" x1="111.232" y1="62.9182" x2="110.066" y2="169.479" gradientUnits="userSpaceOnUse">
<stop stop-color="#CA528D"/>
<stop offset="1" stop-color="#8E7090"/>
</linearGradient>
<linearGradient id="paint2_linear_1590_776" x1="109.562" y1="82.5655" x2="108.888" y2="142.89" gradientUnits="userSpaceOnUse">
<stop stop-color="#CA528D"/>
<stop offset="1" stop-color="#8E7090"/>
</linearGradient>
<linearGradient id="paint3_linear_1590_776" x1="104.903" y1="98.9083" x2="104.644" y2="123.576" gradientUnits="userSpaceOnUse">
<stop stop-color="#CA528D"/>
<stop offset="1" stop-color="#8E7090"/>
</linearGradient>
<linearGradient id="paint4_linear_1590_776" x1="104.751" y1="87.9192" x2="103.869" y2="167.533" gradientUnits="userSpaceOnUse">
<stop stop-color="#CA528D"/>
<stop offset="1" stop-color="#8E7090"/>
</linearGradient>
<linearGradient id="paint5_linear_1590_776" x1="110.498" y1="154.213" x2="115.551" y2="94.0254" gradientUnits="userSpaceOnUse">
<stop/>
<stop offset="0.1" stop-color="#090503"/>
<stop offset="0.26" stop-color="#21110C"/>
<stop offset="0.47" stop-color="#49251A"/>
<stop offset="0.71" stop-color="#80402D"/>
<stop offset="0.98" stop-color="#C56346"/>
<stop offset="0.99" stop-color="#CA6648"/>
</linearGradient>
<linearGradient id="paint6_linear_1590_776" x1="186.08" y1="184.081" x2="81.6872" y2="108.77" gradientUnits="userSpaceOnUse">
<stop stop-color="#CA528D"/>
<stop offset="1" stop-color="#8E7090"/>
</linearGradient>
<linearGradient id="paint7_linear_1590_776" x1="121.356" y1="120.105" x2="120.749" y2="119.68" gradientUnits="userSpaceOnUse">
<stop stop-color="#CA528D"/>
<stop offset="1" stop-color="#8E7090"/>
</linearGradient>
<linearGradient id="paint8_linear_1590_776" x1="106.322" y1="22.5478" x2="53.3272" y2="64.8791" gradientUnits="userSpaceOnUse">
<stop offset="0.01" stop-color="#FF3B59"/>
<stop offset="0.22" stop-color="#FC3959"/>
<stop offset="0.39" stop-color="#F23359"/>
<stop offset="0.54" stop-color="#E22A58"/>
<stop offset="0.68" stop-color="#CA1C58"/>
<stop offset="0.81" stop-color="#AD0B57"/>
<stop offset="0.88" stop-color="#9A0057"/>
<stop offset="0.99" stop-color="#9A00AE"/>
</linearGradient>
<linearGradient id="paint9_linear_1590_776" x1="101.916" y1="27.9271" x2="54.4404" y2="65.8383" gradientUnits="userSpaceOnUse">
<stop stop-color="#CA528D"/>
<stop offset="1" stop-color="#8E7090"/>
</linearGradient>
<linearGradient id="paint10_linear_1590_776" x1="209.934" y1="1.03661" x2="51.5461" y2="70.8705" gradientUnits="userSpaceOnUse">
<stop stop-color="#CA528D"/>
<stop offset="1" stop-color="#8E7090"/>
</linearGradient>
<linearGradient id="paint11_linear_1590_776" x1="101.182" y1="10.3547" x2="91.1792" y2="15.6883" gradientUnits="userSpaceOnUse">
<stop/>
<stop offset="0.1" stop-color="#090503"/>
<stop offset="0.26" stop-color="#21110C"/>
<stop offset="0.47" stop-color="#49251A"/>
<stop offset="0.71" stop-color="#80402D"/>
<stop offset="0.98" stop-color="#C56346"/>
<stop offset="0.99" stop-color="#CA6648"/>
</linearGradient>
<linearGradient id="paint12_linear_1590_776" x1="94.5718" y1="18.5261" x2="89.1761" y2="21.3941" gradientUnits="userSpaceOnUse">
<stop/>
<stop offset="0.1" stop-color="#090503"/>
<stop offset="0.26" stop-color="#21110C"/>
<stop offset="0.47" stop-color="#49251A"/>
<stop offset="0.71" stop-color="#80402D"/>
<stop offset="0.98" stop-color="#C56346"/>
<stop offset="0.99" stop-color="#CA6648"/>
</linearGradient>
<linearGradient id="paint13_linear_1590_776" x1="96.2283" y1="56.9221" x2="54.0373" y2="38.6888" gradientUnits="userSpaceOnUse">
<stop stop-color="#CA528D"/>
<stop offset="1" stop-color="#8E7090"/>
</linearGradient>
<radialGradient id="paint14_radial_1590_776" cx="0" cy="0" r="1" gradientUnits="userSpaceOnUse" gradientTransform="translate(141.213 59.5369) rotate(180) scale(23.9532 24.2325)">
<stop offset="0.01" stop-color="#F0E6DB"/>
<stop offset="0.23" stop-color="#EEE3D9"/>
<stop offset="0.42" stop-color="#E7D8D3"/>
<stop offset="0.59" stop-color="#DCC7C8"/>
<stop offset="0.76" stop-color="#CDAEB9"/>
<stop offset="0.82" stop-color="#C7A4B3"/>
<stop offset="0.86" stop-color="#CEA4B4"/>
<stop offset="0.93" stop-color="#E1A3B8"/>
<stop offset="1" stop-color="#FFA2BD"/>
</radialGradient>
<radialGradient id="paint15_radial_1590_776" cx="0" cy="0" r="1" gradientUnits="userSpaceOnUse" gradientTransform="translate(144.947 52.6218) rotate(-175.64) scale(18.3586 18.5702)">
<stop offset="0.01" stop-color="#F4D956"/>
<stop offset="0.17" stop-color="#F3D655"/>
<stop offset="0.31" stop-color="#F1CB53"/>
<stop offset="0.44" stop-color="#ECBA4F"/>
<stop offset="0.56" stop-color="#E6A149"/>
<stop offset="0.68" stop-color="#DE8142"/>
<stop offset="0.8" stop-color="#D55A3A"/>
<stop offset="0.82" stop-color="#D35338"/>
<stop offset="0.84" stop-color="#D2523F"/>
<stop offset="0.88" stop-color="#CF5052"/>
<stop offset="0.93" stop-color="#CA4C72"/>
<stop offset="0.98" stop-color="#C3479D"/>
<stop offset="1" stop-color="#BF44B5"/>
</radialGradient>
<radialGradient id="paint16_radial_1590_776" cx="0" cy="0" r="1" gradientUnits="userSpaceOnUse" gradientTransform="translate(102.446 39.4798) rotate(180) scale(82.1904 83.1488)">
<stop offset="0.01" stop-color="#FFE360"/>
<stop offset="0.17" stop-color="#FEE05F"/>
<stop offset="0.31" stop-color="#FCD55D"/>
<stop offset="0.44" stop-color="#F9C459"/>
<stop offset="0.56" stop-color="#F4AB53"/>
<stop offset="0.69" stop-color="#EE8B4C"/>
<stop offset="0.8" stop-color="#E66443"/>
<stop offset="0.82" stop-color="#E55E42"/>
<stop offset="0.84" stop-color="#E35D49"/>
<stop offset="0.88" stop-color="#DF5A5C"/>
<stop offset="0.93" stop-color="#D7567C"/>
<stop offset="0.98" stop-color="#CC4FA7"/>
<stop offset="1" stop-color="#C74CBD"/>
</radialGradient>
<linearGradient id="paint17_linear_1590_776" x1="155.138" y1="83.5645" x2="155.037" y2="83.5645" gradientUnits="userSpaceOnUse">
<stop stop-color="#CA528D"/>
<stop offset="1" stop-color="#8E7090"/>
</linearGradient>
<linearGradient id="paint18_linear_1590_776" x1="155.037" y1="86.5872" x2="140.782" y2="86.5872" gradientUnits="userSpaceOnUse">
<stop stop-color="#CA528D"/>
<stop offset="1" stop-color="#8E7090"/>
</linearGradient>
<linearGradient id="paint19_linear_1590_776" x1="87.153" y1="-6.09066" x2="1.07078" y2="106.838" gradientUnits="userSpaceOnUse">
<stop offset="0.01" stop-color="#FF3B59"/>
<stop offset="0.22" stop-color="#FC3959"/>
<stop offset="0.39" stop-color="#F23359"/>
<stop offset="0.54" stop-color="#E22A58"/>
<stop offset="0.68" stop-color="#CA1C58"/>
<stop offset="0.81" stop-color="#AD0B57"/>
<stop offset="0.88" stop-color="#9A0057"/>
<stop offset="0.99" stop-color="#9A00AE"/>
</linearGradient>
<linearGradient id="paint20_linear_1590_776" x1="131.876" y1="58.9979" x2="118.293" y2="75.7021" gradientUnits="userSpaceOnUse">
<stop stop-color="#CA528D"/>
<stop offset="1" stop-color="#8E7090"/>
</linearGradient>
<radialGradient id="paint21_radial_1590_776" cx="0" cy="0" r="1" gradientUnits="userSpaceOnUse" gradientTransform="translate(110.58 64.6698) rotate(-175.64) scale(31.045 31.4028)">
<stop offset="0.01" stop-color="#F0E6DB"/>
<stop offset="0.23" stop-color="#EEE3D9"/>
<stop offset="0.42" stop-color="#E7D8D3"/>
<stop offset="0.59" stop-color="#DCC7C8"/>
<stop offset="0.76" stop-color="#CDAEB9"/>
<stop offset="0.82" stop-color="#C7A4B3"/>
<stop offset="0.86" stop-color="#CEA4B4"/>
<stop offset="0.93" stop-color="#E1A3B8"/>
<stop offset="1" stop-color="#FFA2BD"/>
</radialGradient>
<radialGradient id="paint22_radial_1590_776" cx="0" cy="0" r="1" gradientUnits="userSpaceOnUse" gradientTransform="translate(114.463 74.933) rotate(-175.64) scale(11.5722 11.7056)">
<stop offset="0.01" stop-color="#F4D956"/>
<stop offset="0.15" stop-color="#F3D555"/>
<stop offset="0.29" stop-color="#F0CA53"/>
<stop offset="0.43" stop-color="#ECB74E"/>
<stop offset="0.56" stop-color="#E59C48"/>
<stop offset="0.69" stop-color="#DD7A41"/>
<stop offset="0.81" stop-color="#D35338"/>
<stop offset="0.84" stop-color="#D2523F"/>
<stop offset="0.88" stop-color="#CF5052"/>
<stop offset="0.92" stop-color="#CA4C72"/>
<stop offset="0.97" stop-color="#C3479D"/>
<stop offset="1" stop-color="#BF44B5"/>
</radialGradient>
<radialGradient id="paint23_radial_1590_776" cx="0" cy="0" r="1" gradientUnits="userSpaceOnUse" gradientTransform="translate(113.126 75.4989) rotate(-175.64) scale(9.74904 9.86142)">
<stop stop-color="#FF4000"/>
<stop offset="0.25" stop-color="#FD3F00"/>
<stop offset="0.38" stop-color="#F53D00"/>
<stop offset="0.49" stop-color="#E73A00"/>
<stop offset="0.59" stop-color="#D33500"/>
<stop offset="0.68" stop-color="#BA2F00"/>
<stop offset="0.76" stop-color="#9B2700"/>
<stop offset="0.83" stop-color="#751D00"/>
<stop offset="0.9" stop-color="#4A1300"/>
<stop offset="0.97" stop-color="#1B0700"/>
<stop offset="1"/>
</radialGradient>
<radialGradient id="paint24_radial_1590_776" cx="0" cy="0" r="1" gradientUnits="userSpaceOnUse" gradientTransform="translate(110.751 67.5085) rotate(-175.64) scale(14.1551 14.3183)">
<stop stop-color="#FF4000"/>
<stop offset="0.25" stop-color="#FD3F00"/>
<stop offset="0.38" stop-color="#F53D00"/>
<stop offset="0.49" stop-color="#E73A00"/>
<stop offset="0.59" stop-color="#D33500"/>
<stop offset="0.68" stop-color="#BA2F00"/>
<stop offset="0.76" stop-color="#9B2700"/>
<stop offset="0.83" stop-color="#751D00"/>
<stop offset="0.9" stop-color="#4A1300"/>
<stop offset="0.97" stop-color="#1B0700"/>
<stop offset="1"/>
</radialGradient>
<linearGradient id="paint25_linear_1590_776" x1="114.247" y1="105.697" x2="117.82" y2="122.433" gradientUnits="userSpaceOnUse">
<stop/>
<stop offset="0.1" stop-color="#090503"/>
<stop offset="0.26" stop-color="#21110C"/>
<stop offset="0.47" stop-color="#49251A"/>
<stop offset="0.71" stop-color="#80402D"/>
<stop offset="0.98" stop-color="#C56346"/>
<stop offset="0.99" stop-color="#CA6648"/>
</linearGradient>
<linearGradient id="paint26_linear_1590_776" x1="99.9882" y1="118.912" x2="99.5529" y2="123.94" gradientUnits="userSpaceOnUse">
<stop stop-color="#CA528D"/>
<stop offset="1" stop-color="#8E7090"/>
</linearGradient>
<linearGradient id="paint27_linear_1590_776" x1="97.7939" y1="142.584" x2="97.681" y2="144.065" gradientUnits="userSpaceOnUse">
<stop stop-color="#CA528D"/>
<stop offset="1" stop-color="#8E7090"/>
</linearGradient>
<linearGradient id="paint28_linear_1590_776" x1="77.2531" y1="83.001" x2="10.5174" y2="118.626" gradientUnits="userSpaceOnUse">
<stop stop-color="#CA528D"/>
<stop offset="1" stop-color="#8E7090"/>
</linearGradient>
<linearGradient id="paint29_linear_1590_776" x1="79.0252" y1="46.0375" x2="4.32334" y2="85.8889" gradientUnits="userSpaceOnUse">
<stop stop-color="#CA528D"/>
<stop offset="1" stop-color="#8E7090"/>
</linearGradient>
<linearGradient id="paint30_linear_1590_776" x1="58.9059" y1="93.6624" x2="134.916" y2="78.4231" gradientUnits="userSpaceOnUse">
<stop/>
<stop offset="0.1" stop-color="#090503"/>
<stop offset="0.26" stop-color="#21110C"/>
<stop offset="0.47" stop-color="#49251A"/>
<stop offset="0.71" stop-color="#80402D"/>
<stop offset="0.98" stop-color="#C56346"/>
<stop offset="0.99" stop-color="#CA6648"/>
</linearGradient>
<radialGradient id="paint31_radial_1590_776" cx="0" cy="0" r="1" gradientUnits="userSpaceOnUse" gradientTransform="translate(130.094 80.1835) rotate(-175.64) scale(28.4875 28.8158)">
<stop offset="0.01" stop-color="#FFE360"/>
<stop offset="0.17" stop-color="#FEE05F"/>
<stop offset="0.31" stop-color="#FCD55D"/>
<stop offset="0.44" stop-color="#F9C459"/>
<stop offset="0.56" stop-color="#F4AB53"/>
<stop offset="0.69" stop-color="#EE8B4C"/>
<stop offset="0.8" stop-color="#E66443"/>
<stop offset="0.82" stop-color="#E55E42"/>
<stop offset="0.84" stop-color="#E35D49"/>
<stop offset="0.88" stop-color="#DF5A5C"/>
<stop offset="0.93" stop-color="#D7567C"/>
<stop offset="0.98" stop-color="#CC4FA7"/>
<stop offset="1" stop-color="#C74CBD"/>
</radialGradient>
<linearGradient id="paint32_linear_1590_776" x1="112.726" y1="97.4739" x2="63.9083" y2="147.756" gradientUnits="userSpaceOnUse">
<stop offset="0.01" stop-color="#FF3B59"/>
<stop offset="0.22" stop-color="#FC3959"/>
<stop offset="0.39" stop-color="#F23359"/>
<stop offset="0.54" stop-color="#E22A58"/>
<stop offset="0.68" stop-color="#CA1C58"/>
<stop offset="0.81" stop-color="#AD0B57"/>
<stop offset="0.88" stop-color="#9A0057"/>
<stop offset="0.99" stop-color="#9A00AE"/>
</linearGradient>
<linearGradient id="paint33_linear_1590_776" x1="90.5962" y1="81.2591" x2="89.6633" y2="167.61" gradientUnits="userSpaceOnUse">
<stop stop-color="#CA528D"/>
<stop offset="1" stop-color="#8E7090"/>
</linearGradient>
<linearGradient id="paint34_linear_1590_776" x1="90.9006" y1="101.47" x2="90.5119" y2="138.562" gradientUnits="userSpaceOnUse">
<stop stop-color="#CA528D"/>
<stop offset="1" stop-color="#8E7090"/>
</linearGradient>
<linearGradient id="paint35_linear_1590_776" x1="89.5592" y1="114.073" x2="89.4814" y2="120.067" gradientUnits="userSpaceOnUse">
<stop stop-color="#CA528D"/>
<stop offset="1" stop-color="#8E7090"/>
</linearGradient>
<linearGradient id="paint36_linear_1590_776" x1="85.8874" y1="83.1035" x2="84.9804" y2="167.405" gradientUnits="userSpaceOnUse">
<stop stop-color="#CA528D"/>
<stop offset="1" stop-color="#8E7090"/>
</linearGradient>
<linearGradient id="paint37_linear_1590_776" x1="88.9021" y1="166.156" x2="100.094" y2="96.6956" gradientUnits="userSpaceOnUse">
<stop/>
<stop offset="0.1" stop-color="#090503"/>
<stop offset="0.26" stop-color="#21110C"/>
<stop offset="0.47" stop-color="#49251A"/>
<stop offset="0.71" stop-color="#80402D"/>
<stop offset="0.98" stop-color="#C56346"/>
<stop offset="0.99" stop-color="#CA6648"/>
</linearGradient>
<linearGradient id="paint38_linear_1590_776" x1="96.7141" y1="141.063" x2="85.9262" y2="128.661" gradientUnits="userSpaceOnUse">
<stop stop-color="#CA528D"/>
<stop offset="1" stop-color="#8E7090"/>
</linearGradient>
<linearGradient id="paint39_linear_1590_776" x1="113.967" y1="71.6788" x2="167.023" y2="57.2893" gradientUnits="userSpaceOnUse">
<stop/>
<stop offset="0.1" stop-color="#090503"/>
<stop offset="0.26" stop-color="#21110C"/>
<stop offset="0.47" stop-color="#49251A"/>
<stop offset="0.71" stop-color="#80402D"/>
<stop offset="0.98" stop-color="#C56346"/>
<stop offset="0.99" stop-color="#CA6648"/>
</linearGradient>
<linearGradient id="paint40_linear_1590_776" x1="19.9687" y1="86.9945" x2="24.2162" y2="55.1363" gradientUnits="userSpaceOnUse">
<stop/>
<stop offset="0.1" stop-color="#090503"/>
<stop offset="0.26" stop-color="#21110C"/>
<stop offset="0.47" stop-color="#49251A"/>
<stop offset="0.71" stop-color="#80402D"/>
<stop offset="0.98" stop-color="#C56346"/>
<stop offset="0.99" stop-color="#CA6648"/>
</linearGradient>
<linearGradient id="paint41_linear_1590_776" x1="39.8458" y1="64.2344" x2="6.64508" y2="86.1292" gradientUnits="userSpaceOnUse">
<stop/>
<stop offset="0.1" stop-color="#090503"/>
<stop offset="0.26" stop-color="#21110C"/>
<stop offset="0.47" stop-color="#49251A"/>
<stop offset="0.71" stop-color="#80402D"/>
<stop offset="0.98" stop-color="#C56346"/>
<stop offset="0.99" stop-color="#CA6648"/>
</linearGradient>
<linearGradient id="paint42_linear_1590_776" x1="34.3217" y1="107.021" x2="22.5046" y2="94.4256" gradientUnits="userSpaceOnUse">
<stop/>
<stop offset="0.1" stop-color="#090503"/>
<stop offset="0.26" stop-color="#21110C"/>
<stop offset="0.47" stop-color="#49251A"/>
<stop offset="0.71" stop-color="#80402D"/>
<stop offset="0.98" stop-color="#C56346"/>
<stop offset="0.99" stop-color="#CA6648"/>
</linearGradient>
<linearGradient id="paint43_linear_1590_776" x1="167.773" y1="102.11" x2="147.909" y2="83.4615" gradientUnits="userSpaceOnUse">
<stop/>
<stop offset="0.1" stop-color="#090503"/>
<stop offset="0.26" stop-color="#21110C"/>
<stop offset="0.47" stop-color="#49251A"/>
<stop offset="0.71" stop-color="#80402D"/>
<stop offset="0.98" stop-color="#C56346"/>
<stop offset="0.99" stop-color="#CA6648"/>
</linearGradient>
<linearGradient id="paint44_linear_1590_776" x1="158" y1="84" x2="0.000187026" y2="84" gradientUnits="userSpaceOnUse">
<stop offset="0.01" stop-color="#1304C5"/>
<stop offset="0.25" stop-color="#0D0387"/>
<stop offset="0.51" stop-color="#07024D"/>
<stop offset="0.73" stop-color="#030123"/>
<stop offset="0.9" stop-color="#01000A"/>
<stop offset="1"/>
</linearGradient>
<clipPath id="clip0_1590_776">
<rect width="158" height="156" fill="white" transform="matrix(-1 0 0 1 158 6)"/>
</clipPath>
</defs>
</svg>
