<svg width="199" height="133" viewBox="0 0 199 133" fill="none" xmlns="http://www.w3.org/2000/svg">
<g clip-path="url(#clip0_1590_713)">
<path d="M129.809 101.35C128.651 100.511 127.33 99.9237 125.932 99.6256C125.748 99.6156 125.563 99.6156 125.378 99.6256C124.909 99.62 124.445 99.7226 124.021 99.9255C123.598 100.128 123.227 100.426 122.937 100.796C122.794 100.98 122.691 101.165 122.568 101.35C121.979 102.472 121.617 103.7 121.501 104.962C121.501 105.475 121.399 105.989 121.399 106.522C121.399 107.056 121.399 107.076 121.399 107.384V107.569V107.959C121.399 108.308 121.399 108.677 121.399 109.067C121.399 109.457 121.399 110.319 121.399 110.976C121.399 112.023 121.399 113.029 121.399 114.178C121.399 114.65 121.399 115.04 121.399 115.512C121.399 115.984 121.399 116.374 121.399 116.805C121.418 117.01 121.418 117.216 121.399 117.421C121.399 117.852 121.399 118.242 121.399 118.673C121.293 119.979 121.031 121.268 120.619 122.511C120.08 124.098 119.393 125.63 118.568 127.089L118.055 127.951L117.563 128.669C117.399 128.936 117.214 129.162 117.05 129.408L116.558 130.024C115.649 131.288 114.445 132.31 113.05 133C113.05 133 112.353 132.035 111.224 130.229L110.773 129.552C109.481 127.499 107.758 124.605 105.994 121.198L105.44 120.131C104.701 118.735 104.004 117.257 103.388 115.718L102.588 113.932C102.178 113.008 101.809 112.085 101.419 111.14C101.029 110.196 100.865 109.622 100.558 108.842C100.25 108.062 99.9628 107.323 99.7167 106.522C99.4705 105.722 99.3064 105.147 99.1013 104.47C99.0945 104.395 99.0945 104.319 99.1013 104.244C98.7936 103.094 98.5064 102.007 98.3013 100.898L98.0551 99.6051C97.8082 98.2905 97.6574 96.9597 97.6039 95.6232C97.4911 93.6488 97.5804 91.668 97.8705 89.7118C97.8705 89.4245 97.8705 89.0961 98.0551 88.8292C98.2156 87.896 98.4699 86.9814 98.8141 86.0993C99.3052 84.4079 100.344 82.9277 101.768 81.8916C102.219 81.7286 102.712 81.7286 103.163 81.8916C103.286 82.0852 103.37 82.3015 103.409 82.5279C103.456 82.755 103.432 82.9911 103.34 83.2042C103.249 83.4172 103.094 83.5967 102.896 83.7184C102.727 83.8235 102.548 83.9129 102.363 83.9852V84.2315C102.389 84.5776 102.444 84.9209 102.527 85.2578C103.071 87.273 104.362 89.0051 106.137 90.1018C106.918 90.5742 107.734 90.9859 108.578 91.3333L109.194 91.5796L110.096 91.9696L112.517 92.8522L115.286 93.858L118.486 94.9458L119.553 95.2947L120.804 95.7668L121.829 96.1568C122.568 96.4442 123.204 96.67 123.717 96.9368C124.035 97.0731 124.343 97.2308 124.64 97.4089L124.824 97.5115L125.091 97.6757L125.953 98.2299L126.363 98.5172C126.462 98.5808 126.558 98.6493 126.65 98.7225C127.774 99.5087 128.831 100.387 129.809 101.35Z" fill="url(#paint0_linear_1590_713)"/>
<path style="mix-blend-mode:multiply" opacity="0.5" d="M121.42 118.694C121.314 120 121.053 121.288 120.641 122.532C120.101 124.118 119.414 125.651 118.589 127.109L118.077 127.971L117.584 128.69C117.42 128.956 117.236 129.182 117.071 129.429L116.579 130.044C115.662 131.303 114.451 132.318 113.051 133C113.051 133 112.354 132.035 111.225 130.229L110.774 129.552C109.482 127.499 107.759 124.605 105.995 121.198L105.441 120.131C104.702 118.735 104.005 117.257 103.389 115.718L102.589 113.932C102.179 113.008 101.81 112.085 101.42 111.14C101.03 110.196 100.866 109.622 100.559 108.842C100.251 108.062 99.9638 107.323 99.7176 106.522C99.4715 105.722 99.3074 105.147 99.1228 104.47V104.244C98.8151 103.094 98.5279 102.007 98.3228 100.898L98.0766 99.6051C97.8297 98.2905 97.6789 96.9597 97.6253 95.6231C97.5126 93.6488 97.6019 91.668 97.892 89.7118C97.892 89.4245 97.892 89.0961 98.0766 88.8292C98.2371 87.896 98.4914 86.9814 98.8356 86.0993C98.8356 86.7767 98.8356 87.4745 98.8356 88.2545C98.8356 88.5624 98.8356 88.8703 98.8356 89.1987C98.8356 89.5271 98.8356 89.8144 98.8356 90.1634C99.4208 93.7775 100.658 97.255 102.487 100.426C102.754 100.878 103 101.35 103.266 101.781C103.533 102.212 104.046 103.115 104.477 103.833C104.907 104.552 105.215 104.88 105.564 105.393C108.092 109.103 111.186 112.393 114.733 115.143C116.303 116.363 118.027 117.371 119.861 118.14C120.368 118.359 120.889 118.545 121.42 118.694Z" fill="url(#paint1_linear_1590_713)"/>
<path style="mix-blend-mode:multiply" opacity="0.5" d="M112.579 109.56C110.578 108.117 108.742 106.458 107.102 104.613C106.59 104.039 106.118 103.443 105.625 102.848C105.552 102.768 105.49 102.678 105.441 102.581C102.936 99.001 101.159 94.9631 100.21 90.6971C100.21 90.3892 100.087 90.0608 100.005 89.7529C99.8509 89.1172 99.7345 88.4729 99.6562 87.8235C99.6562 88.0698 99.8409 88.7882 100.108 89.876C100.108 90.1634 100.272 90.4918 100.354 90.8202C101.429 94.8361 103.306 98.5926 105.872 101.863C106.342 102.429 106.857 102.958 107.41 103.443C107.619 103.64 107.838 103.825 108.067 103.998C108.984 104.68 109.975 105.258 111.02 105.722C113.37 106.758 115.857 107.449 118.405 107.774C119.451 107.897 120.456 107.979 121.42 108.021C121.42 110.073 121.543 112.126 121.584 114.178C118.348 113.149 115.305 111.588 112.579 109.56Z" fill="url(#paint2_linear_1590_713)"/>
<path style="mix-blend-mode:multiply" opacity="0.5" d="M125.379 99.564C124.909 99.5584 124.445 99.661 124.022 99.8639C123.598 100.067 123.227 100.365 122.937 100.734C121.995 100.131 121.016 99.5895 120.004 99.1125C117.694 98.0934 115.331 97.1959 112.927 96.4236C111.13 95.8191 109.381 95.078 107.696 94.2069L106.343 93.3653L105.173 92.4622C104.778 92.1348 104.401 91.7853 104.045 91.4154C103.648 91.0087 103.278 90.5768 102.938 90.1223C103.416 90.6653 103.952 91.154 104.538 91.5796C105.188 92.0548 105.874 92.4802 106.589 92.8522C106.608 92.8431 106.629 92.8383 106.65 92.8383C106.672 92.8383 106.693 92.8431 106.712 92.8522L107.902 93.3653C109.76 94.1149 111.673 94.7188 113.625 95.1716C116.129 95.6677 118.602 96.312 121.03 97.101C121.732 97.3748 122.417 97.69 123.081 98.0451C123.737 98.4967 124.579 99.0098 125.379 99.564Z" fill="url(#paint3_linear_1590_713)"/>
<path style="mix-blend-mode:multiply" opacity="0.5" d="M129.81 101.35C128.652 100.511 127.332 99.9237 125.933 99.6256C125.749 99.6155 125.564 99.6155 125.379 99.6256C124.91 99.62 124.446 99.7226 124.022 99.9255C123.599 100.128 123.228 100.426 122.938 100.796C122.795 100.98 122.692 101.165 122.569 101.35C121.98 102.472 121.618 103.7 121.503 104.962C121.503 105.475 121.4 105.988 121.4 106.522C121.4 107.056 121.4 107.076 121.4 107.384V107.569V107.959C121.4 108.308 121.4 108.677 121.4 109.067C121.4 109.457 121.4 110.319 121.4 110.976C121.4 112.023 121.4 113.029 121.4 114.178C121.4 114.65 121.4 115.04 121.4 115.512C121.4 115.984 121.4 116.374 121.4 116.805C121.42 117.01 121.42 117.216 121.4 117.421C121.4 117.852 121.4 118.242 121.4 118.673C121.294 119.979 121.032 121.268 120.62 122.511C120.081 124.098 119.394 125.63 118.569 127.089L118.056 127.951L117.564 128.669C117.4 128.936 117.215 129.162 117.051 129.408L116.559 130.024C115.65 131.288 114.446 132.31 113.051 133C113.051 133 112.354 132.035 111.226 130.229L110.774 129.552C109.482 127.499 107.759 124.605 105.995 121.198L105.441 120.131C104.703 118.735 104.005 117.257 103.39 115.718L102.59 113.932C102.179 113.008 101.81 112.085 101.42 111.14C101.031 110.196 100.867 109.622 100.559 108.842C100.251 108.062 99.9641 107.323 99.7179 106.522C99.4718 105.722 99.3077 105.147 99.123 104.47C99.3282 105.106 99.5948 105.783 99.8615 106.522C102.077 112.208 105.81 120.315 108.477 120.131C108.708 120.162 108.943 120.162 109.174 120.131C110.411 119.774 111.552 119.147 112.517 118.295C113.482 117.443 114.246 116.387 114.754 115.204C115.191 114.44 115.378 113.556 115.287 112.68C114.605 111.461 113.684 110.393 112.579 109.539C111.903 108.944 111.226 108.39 110.713 107.979C111.917 108.865 113.331 109.424 114.815 109.601C115.204 109.642 115.596 109.642 115.985 109.601C116.222 109.561 116.456 109.499 116.682 109.416C117.434 109.097 118.036 108.502 118.364 107.754C118.465 107.554 118.554 107.348 118.631 107.138C118.827 106.71 118.978 106.263 119.082 105.804L119.246 105.25C119.626 103.646 119.859 102.011 119.944 100.365C119.963 100.153 119.963 99.9399 119.944 99.7282C119.944 99.3998 119.944 99.1535 119.944 99.0509L118.467 98.3941L117.605 98.0246H120.067C120.99 98.0246 122.015 98.0246 122.897 98.0246C123.596 98.02 124.288 97.9021 124.949 97.6757L125.81 98.2299L126.22 98.5172C126.32 98.5808 126.415 98.6493 126.508 98.7225C127.682 99.5021 128.787 100.381 129.81 101.35Z" fill="url(#paint4_linear_1590_713)"/>
<path style="mix-blend-mode:screen" d="M115.286 93.899C115.004 93.9955 114.736 94.1265 114.486 94.289C114.408 94.3209 114.342 94.3789 114.302 94.4532C114.21 94.4814 114.131 94.5391 114.076 94.6174C113.886 94.7848 113.72 94.9783 113.584 95.1921C113.304 95.5673 113.083 95.9825 112.927 96.4237C112.64 96.9778 112.414 97.6346 112.107 98.312C112.118 98.3522 112.118 98.3949 112.107 98.4351C111.943 98.8662 111.717 99.2972 111.512 99.7693C111.307 100.241 111.122 100.467 110.917 100.816C110.808 101.062 110.663 101.29 110.486 101.493L110.22 101.883C110.035 102.109 109.809 102.397 109.584 102.622C109.128 103.099 108.642 103.545 108.127 103.956C107.832 104.174 107.524 104.373 107.204 104.552C106.725 104.854 106.224 105.122 105.707 105.352C104.202 105.992 102.6 106.374 100.968 106.481H99.7169C99.5118 105.824 99.3067 105.106 99.1016 104.429C99.4721 104.678 99.8809 104.865 100.312 104.983C101.04 105.212 101.821 105.217 102.552 104.997C103.284 104.778 103.932 104.344 104.414 103.751C104.68 103.452 104.927 103.137 105.153 102.807L105.337 102.479L105.645 101.945V101.781C105.828 101.444 105.985 101.094 106.117 100.734C106.866 98.6183 107.395 96.4311 107.696 94.2069C107.696 93.9401 107.799 93.6527 107.861 93.4269C107.922 93.2011 107.861 93.3038 107.861 93.2627C107.861 93.2217 107.963 92.8727 108.025 92.7085C108.161 92.2616 108.34 91.8287 108.558 91.4154L109.173 91.6617L110.076 92.0517L112.496 92.9343L115.286 93.899Z" fill="url(#paint5_linear_1590_713)"/>
<path style="mix-blend-mode:multiply" opacity="0.5" d="M129.809 101.35C128.651 100.511 127.33 99.9237 125.932 99.6256C125.748 99.6156 125.563 99.6156 125.378 99.6256C124.909 99.62 124.445 99.7226 124.021 99.9255C123.598 100.128 123.227 100.426 122.937 100.796C122.794 100.98 122.691 101.165 122.568 101.35C121.979 102.472 121.617 103.7 121.501 104.962C121.501 105.475 121.399 105.989 121.399 106.522C121.399 107.056 121.399 107.076 121.399 107.384V107.569V107.959C121.399 108.308 121.399 108.677 121.399 109.067C121.399 109.457 121.399 110.319 121.399 110.976C121.399 112.023 121.399 113.029 121.399 114.178C121.399 114.65 121.399 115.04 121.399 115.512C121.399 115.984 121.399 116.374 121.399 116.805C121.418 117.01 121.418 117.216 121.399 117.421C121.399 117.852 121.399 118.242 121.399 118.673C121.293 119.979 121.031 121.268 120.619 122.511C120.08 124.098 119.393 125.63 118.568 127.089L118.055 127.951L117.563 128.669C117.399 128.936 117.214 129.162 117.05 129.408L116.558 130.024C115.649 131.288 114.445 132.31 113.05 133C113.05 133 112.353 132.035 111.224 130.229L110.773 129.552C109.481 127.499 107.758 124.605 105.994 121.198L105.44 120.131C104.701 118.735 104.004 117.257 103.388 115.718L102.588 113.932C102.178 113.008 101.809 112.085 101.419 111.14C101.029 110.196 100.865 109.622 100.558 108.842C100.25 108.062 99.9628 107.323 99.7167 106.522C99.4705 105.722 99.3064 105.147 99.1013 104.47C99.0945 104.395 99.0945 104.319 99.1013 104.244C98.7936 103.094 98.5064 102.007 98.3013 100.898L98.0551 99.6051C97.8082 98.2905 97.6574 96.9597 97.6039 95.6232C97.4911 93.6488 97.5804 91.668 97.8705 89.7118C97.8705 89.4245 97.8705 89.0961 98.0551 88.8292C98.2156 87.896 98.4699 86.9814 98.8141 86.0993C99.3052 84.4079 100.344 82.9277 101.768 81.8916C102.219 81.7286 102.712 81.7286 103.163 81.8916C103.286 82.0852 103.37 82.3015 103.409 82.5279C103.456 82.755 103.432 82.9911 103.34 83.2042C103.249 83.4172 103.094 83.5967 102.896 83.7184C102.727 83.8235 102.548 83.9129 102.363 83.9852V84.1494C102.359 84.1835 102.359 84.218 102.363 84.2521C102.389 84.5981 102.444 84.9414 102.527 85.2783C103.076 87.2859 104.366 89.01 106.137 90.1018C106.918 90.5742 107.734 90.9859 108.578 91.3333L109.194 91.5796L110.096 91.9696L112.517 92.8522L115.286 93.858L118.486 94.9458L119.553 95.2947L120.804 95.7668L121.829 96.1568C122.568 96.4442 123.204 96.67 123.717 96.9368C124.035 97.0731 124.343 97.2308 124.64 97.4089L124.824 97.5115L125.091 97.6757L125.953 98.2299L126.363 98.5172C126.462 98.5808 126.558 98.6493 126.65 98.7225C127.774 99.5087 128.831 100.387 129.809 101.35Z" fill="url(#paint6_linear_1590_713)"/>
<path style="mix-blend-mode:multiply" opacity="0.5" d="M101.091 99.1535L100.947 99.2972L101.091 99.1535Z" fill="url(#paint7_linear_1590_713)"/>
<path d="M148.947 57.6305C148.947 58.1026 148.804 58.5952 148.722 59.0468C148.64 59.4984 148.722 59.4778 148.537 59.7036C148.494 59.9141 148.433 60.1202 148.352 60.3194C148.352 60.5452 148.209 60.7299 148.168 60.9146C147.75 61.8896 147.103 62.7487 146.281 63.4187L146.116 63.5419C146.012 63.6334 145.894 63.7094 145.768 63.7677L145.399 63.9524C144.554 64.3693 143.632 64.6069 142.691 64.6502H141.358H140.845H140.455C140.439 64.6576 140.421 64.6614 140.404 64.6614C140.386 64.6614 140.368 64.6576 140.352 64.6502C140.116 64.6375 139.882 64.5962 139.655 64.5271C139.547 64.5487 139.435 64.5487 139.327 64.5271C139.198 64.5456 139.066 64.5456 138.937 64.5271L138.26 64.3629H137.891L136.988 64.055C135.272 63.4635 133.605 62.736 132.004 61.8793L131.716 61.3662C131.551 61.3004 131.393 61.2179 131.245 61.1199H131.081L129.604 60.2988L129.275 60.1141C128.804 59.8268 128.291 59.4778 127.758 59.0878L127.429 58.8621C127.081 58.5747 126.691 58.3079 126.342 58L125.809 57.5279C125.481 57.2611 125.173 56.9737 124.804 56.7069C123.45 55.4138 122.034 53.977 120.701 52.4581C120.209 51.9655 119.758 51.4113 119.286 50.8571C118.814 50.303 118.178 49.6256 117.768 49.0509C117.358 48.4762 117.193 48.3736 116.927 48.0246C116.66 47.6757 116.106 46.9778 115.696 46.4647C115.704 46.4309 115.704 46.3958 115.696 46.3621L114.075 44.3916C113.399 43.509 112.804 42.7085 112.27 41.9696L111.224 40.4302L110.486 39.3834C109.829 38.4187 109.44 37.7619 109.399 37.7209C109.358 37.6798 109.932 37.7209 110.732 36.9614C111.532 36.202 113.399 33.4105 115.306 27.4992C115.306 27.3144 115.45 27.1092 115.532 26.9039C116.189 25.0839 117.006 23.3255 117.973 21.6494C120.981 16.7515 124.487 12.1774 128.434 8C127.825 8.93642 127.329 9.94247 126.958 10.9967C126.652 11.7467 126.652 12.5866 126.958 13.3366C127.27 13.9247 127.8 14.3668 128.434 14.5681L129.358 14.9171C130.117 15.1839 131.081 15.5534 132.393 16.1281C133.709 16.7706 134.99 17.4832 136.229 18.2627C137.429 19.0136 138.48 19.981 139.327 21.1158C141.039 23.4006 142.42 25.9158 143.429 28.587C144.25 30.6022 144.969 32.6573 145.583 34.7447C146.137 36.6125 146.609 38.4598 147.04 40.3276C147.286 41.4565 147.532 42.5854 147.737 43.7143C148.725 48.2834 149.132 52.9593 148.947 57.6305Z" fill="url(#paint8_linear_1590_713)"/>
<path style="mix-blend-mode:multiply" opacity="0.5" d="M148.949 57.6305C148.949 58.1026 148.805 58.5952 148.723 59.0468C148.641 59.4984 148.723 59.4778 148.538 59.7036C148.496 59.9141 148.434 60.1202 148.354 60.3194C148.354 60.5452 148.21 60.7299 148.169 60.9146C147.751 61.8896 147.104 62.7488 146.282 63.4187L146.118 63.5419C146.013 63.6334 145.896 63.7094 145.769 63.7677L145.4 63.9524C144.555 64.3693 143.633 64.6069 142.692 64.6502H141.359H140.846H140.456C140.44 64.6576 140.423 64.6614 140.405 64.6614C140.387 64.6614 140.37 64.6576 140.354 64.6502C140.117 64.6375 139.883 64.5962 139.656 64.5271H139.308C139.178 64.5456 139.047 64.5456 138.918 64.5271L138.241 64.3629H137.872L137.072 63.4187H136.785L136.005 62.9056L131.656 60.0115L128.456 57.959H128.354L126.979 57.0353L126.631 56.789H126.467C126.176 56.6124 125.896 56.4205 125.626 56.2143L125.42 56.1117L125.154 55.9064L124.272 55.0854L123.267 54.0796L119.061 49.9746L117.42 48.3736L116.518 47.491L115.82 46.7726L113.769 44.8637L111.41 42.2775C111.737 42.2186 112.055 42.115 112.354 41.9696H112.518C113.104 41.6089 113.63 41.1587 114.077 40.6355L114.302 40.4097C114.683 39.9709 115.039 39.5119 115.369 39.0345C116.091 38.0055 116.742 36.9289 117.318 35.812C119.656 31.4401 121.851 25.8161 124.723 20.9926L124.969 20.6026C125.046 20.4518 125.135 20.3076 125.236 20.1716C125.482 19.7406 125.749 19.3506 126.015 18.9606C126.282 18.5706 126.631 18.0575 126.959 17.6264C127.287 17.1954 127.697 16.7028 128.046 16.2718L129.174 15.0608C129.933 15.3276 130.897 15.697 132.21 16.2718C130.489 18.1601 128.879 20.1477 127.39 22.2241C123.123 28.2381 119.882 33.1232 117.728 36.592C116.99 37.7414 116.415 38.6445 115.902 39.5271C115.636 39.9992 115.39 40.4302 115.143 40.7792C114.897 41.1281 115 41.0255 114.918 41.1281C114.364 42.0723 114.097 42.6059 114.097 42.6059L117.831 43.3654L118.138 42.6675C118.138 42.6675 118.138 42.6675 118.138 42.5443C118.138 42.4212 118.405 41.9696 118.61 41.5796C118.815 41.1897 119.246 40.1839 119.697 39.3424C122.282 34.3547 127.595 26.0419 135.636 22.3678C135.875 22.2291 136.13 22.1189 136.395 22.0394H136.559C137.446 21.6521 138.366 21.343 139.308 21.1158C141.02 23.4006 142.401 25.9158 143.41 28.587C142.713 28.4434 142.036 28.3613 141.359 28.2792H141.051C140.425 28.2061 139.795 28.165 139.164 28.156C136.381 27.8969 133.576 28.3224 130.995 29.3957C128.414 30.4689 126.134 32.1572 124.354 34.3136C122.59 36.4893 121.297 38.4187 120.251 39.8555C119.8 40.5944 119.39 41.2307 119.082 41.9081C118.89 42.2005 118.726 42.5097 118.59 42.8317C118.207 43.5791 117.865 44.3465 117.564 45.1305C117.299 45.7918 117.106 46.4801 116.99 47.1831L118.385 45.459L119.533 44.0837C119.6 43.9819 119.676 43.8858 119.759 43.7964L119.923 43.6322L120.436 43.078C120.785 42.7085 121.215 42.2775 121.749 41.7849C126.755 37.0788 133.342 34.4205 140.21 34.3342H141.851C142.569 34.3342 143.328 34.4573 144.108 34.5599L145.626 34.8268C146.179 36.6946 146.651 38.5419 147.082 40.4097C146.651 40.4097 146.282 40.225 145.872 40.1634C144.231 39.8145 142.631 39.5476 141.133 39.3834C140.723 39.3834 140.292 39.3834 139.902 39.2808C137.093 38.9739 134.253 39.1264 131.492 39.7324C128.468 40.3558 125.551 41.4208 122.836 42.8933C122.354 43.1749 121.888 43.4833 121.441 43.8169C121.289 43.9148 121.145 44.0246 121.01 44.1453L120.661 44.4327C120.202 44.8064 119.789 45.2336 119.431 45.7053C119.283 45.8602 119.164 46.0411 119.082 46.2389L119.738 45.8284C120.075 45.6027 120.424 45.3971 120.785 45.2126C120.929 45.1148 121.08 45.0257 121.236 44.9458L121.831 44.6379L122.159 44.4943C122.61 44.2685 123.102 44.0632 123.636 43.8374C128.627 41.7117 134.08 40.906 139.472 41.4975C139.804 41.5239 140.133 41.5788 140.456 41.6617C142.566 41.959 144.632 42.5103 146.61 43.3038C146.959 43.4475 147.369 43.5706 147.738 43.7348C148.725 48.2972 149.132 52.9661 148.949 57.6305Z" fill="url(#paint9_linear_1590_713)"/>
<path style="mix-blend-mode:multiply" opacity="0.5" d="M140.886 70.0485L132.168 62.023L117.501 48.4967L116.127 46.7726C114.834 45.1306 113.706 43.5911 112.762 42.2775C110.937 39.7324 109.809 37.9672 109.809 37.9672C109.809 37.9672 112.25 38.6035 115.86 27.7044C115.86 27.4992 115.983 27.2939 116.065 27.0887C114.28 33.2463 117.665 37.0435 124.578 45.0074C131.491 52.9713 137.46 58.5952 139.552 65.3481C140.496 68.2217 140.886 70.0485 140.886 70.0485Z" fill="url(#paint10_linear_1590_713)"/>
<path style="mix-blend-mode:screen" d="M128.435 8C127.825 8.93642 127.329 9.94247 126.958 10.9967C123.517 14.106 120.54 17.6935 118.117 21.6494C121.08 16.7581 124.538 12.1843 128.435 8V8Z" fill="url(#paint11_linear_1590_713)"/>
<path style="mix-blend-mode:screen" d="M129.235 14.9171C128.839 15.3015 128.462 15.7057 128.107 16.1281C127.717 16.5591 127.368 17.0107 127.02 17.4827C126.671 17.9548 126.404 18.3653 126.076 18.8169C125.748 19.2685 125.543 19.5969 125.297 20.0279C125.196 20.1639 125.107 20.3081 125.03 20.4589L124.784 20.8489C123.553 22.9015 122.732 24.5846 122.527 24.954C124.023 21.3021 125.973 17.8539 128.332 14.6913L129.235 14.9171Z" fill="url(#paint12_linear_1590_713)"/>
<path style="mix-blend-mode:multiply" opacity="0.5" d="M132.25 58.8415C154.609 22.6552 130.814 19.8432 130.814 19.8432C130.814 19.8432 135.512 18.9606 140.025 26.0008C145.625 34.7036 149.584 51.2061 147.184 59.9704C144.845 68.3859 132.25 58.8415 132.25 58.8415Z" fill="url(#paint13_linear_1590_713)"/>
<path d="M84.1076 57.7332C82.4256 59.5599 81.1127 60.9557 80.005 62.0641C78.0974 63.9934 77.1538 64.8145 77.1538 64.8145C76.705 63.9699 76.3409 63.083 76.0666 62.1667C75.5226 60.7106 75.289 59.1567 75.3808 57.6049C75.4727 56.0531 75.8879 54.5377 76.5999 53.156C77.7065 51.5075 79.2572 50.2065 81.0725 49.4037C82.8877 48.6008 84.8931 48.3291 86.8563 48.6199C86.9589 49.0509 88.8666 52.4787 84.1076 57.7332Z" fill="url(#paint14_radial_1590_713)"/>
<path d="M86.4873 51.1034C79.4308 49.7898 76.6411 57.3842 79.3693 61.6125C82.0975 65.8407 86.4873 51.1034 86.4873 51.1034Z" fill="url(#paint15_radial_1590_713)"/>
<path d="M162.67 80.9474C162.2 80.2162 161.664 79.5292 161.07 78.8949L160.824 78.6691C160.266 77.9803 159.572 77.4148 158.784 77.0085C157.997 76.6022 157.134 76.3639 156.25 76.3087C154.198 76.4729 149.275 85.4015 138.116 92.729C137.296 93.2832 136.455 93.7964 135.573 94.3095L134.116 95.11C133.173 95.6231 132.209 96.1158 131.224 96.5673L130.383 96.9368C129.092 97.5323 127.77 98.0598 126.424 98.5172C126.292 98.5955 126.145 98.6445 125.993 98.6609C125.921 98.6895 125.84 98.6895 125.768 98.6609L125.419 98.8046L124.762 99.0098C123.774 99.3526 122.767 99.6404 121.747 99.8719C121.378 99.9951 121.029 100.077 120.68 100.159C120.453 100.231 120.22 100.279 119.983 100.303H119.655C119.278 100.423 118.895 100.519 118.506 100.59H118.321C117.891 100.693 117.439 100.775 117.009 100.837L114.855 101.186H114.547C114.014 101.186 113.48 101.35 112.906 101.411H112.147H112.024H111.327C111.088 101.432 110.847 101.432 110.609 101.411H110.198H109.501C108.311 101.411 107.162 101.411 106.055 101.411H105.111C104.537 101.411 103.962 101.411 103.388 101.247H103.121H102.609C101.48 101.103 100.373 100.898 99.306 100.652C98.9778 100.652 98.6496 100.508 98.3624 100.406C97.6098 100.229 96.8697 100.003 96.1471 99.7282C95.7983 99.7282 95.4496 99.4819 95.1214 99.3588H94.9368H94.7317C87.2169 96.1203 80.985 90.4836 77.0086 83.3284C71.5112 74.564 70.1573 65.3481 71.4496 64.5271C71.946 64.4421 72.4336 64.3115 72.906 64.1371H73.0496C73.9895 63.825 74.8652 63.3451 75.6342 62.7208L75.983 62.3309C76.4753 61.7151 77.3163 60.5246 78.4445 58.9442C80.3611 56.2143 82.415 53.5837 84.5983 51.0624C85.2753 50.3029 85.9932 49.523 86.6496 48.7635C87.306 48.0041 87.9624 47.4704 88.7009 46.8341C91.494 44.1934 94.7116 42.0424 98.2189 40.4713C102.045 38.7215 106.363 38.3657 110.424 39.4655H110.65C111.45 39.7118 112.291 39.9992 113.132 40.3276C113.384 40.4141 113.631 40.5169 113.87 40.6355L114.383 40.8407L114.732 41.0049C115.798 41.4565 116.783 41.9696 117.952 42.5443L118.383 42.7496L119.716 43.4885L120.742 44.0837C121.05 44.2274 121.337 44.4327 121.603 44.5763C121.87 44.72 122.609 45.1716 123.08 45.5L124.086 46.1568C125.234 46.8957 126.403 47.6757 127.552 48.5172L128.598 49.2562C128.832 49.4017 129.058 49.5593 129.275 49.7282C129.932 50.2003 130.547 50.6724 131.183 51.165L132.393 52.0681L133.378 52.8276L134.752 53.936C138.321 56.8095 141.727 59.6831 144.68 62.3103L145.111 62.6798L145.603 63.0903C145.741 63.1909 145.865 63.3081 145.973 63.4392L149.173 66.2307L150.096 67.0517C153.07 69.6584 155.183 71.3415 155.942 71.3621C156.764 71.3347 157.568 71.1073 158.282 70.6996C158.997 70.2919 159.602 69.7162 160.044 69.0222C160.246 68.7249 160.431 68.4165 160.598 68.0985L160.844 69.9253L162.67 80.9474Z" fill="url(#paint16_radial_1590_713)"/>
<path style="mix-blend-mode:multiply" opacity="0.5" d="M73.3982 69.8227C73.3713 70.0133 73.3713 70.2067 73.3982 70.3974C73.3308 70.2117 73.3308 70.0083 73.3982 69.8227Z" fill="url(#paint17_linear_1590_713)"/>
<path style="mix-blend-mode:multiply" opacity="0.5" d="M84.9481 77.1297C83.5725 77.3461 82.165 77.2264 80.8456 76.7808C79.349 75.7615 78.0896 74.4313 77.1533 72.881C76.3693 71.7068 75.4387 70.6377 74.384 69.6995C74.3037 69.6755 74.2182 69.6755 74.1379 69.6995C73.9574 69.6441 73.7645 69.6441 73.584 69.6995C73.4405 69.6995 73.3584 69.8227 73.3379 69.9048C73.3379 69.1864 73.6866 68.0164 74.9174 68.0164C75.6969 68.0164 76.9687 70.4795 78.3635 72.7988L78.9994 73.6814C79.5289 74.7893 80.2999 75.7643 81.2558 76.5345C82.4177 77.038 83.687 77.2426 84.9481 77.1297Z" fill="url(#paint18_linear_1590_713)"/>
<path d="M198.999 52.4171C199.006 52.5196 199.006 52.6225 198.999 52.725C198.6 54.0478 198.135 55.3494 197.604 56.6248C197.358 57.1585 197.111 57.7537 196.824 58.39C196.311 59.5189 195.655 60.7299 194.937 61.9819C194.793 62.2282 194.67 62.4746 194.506 62.7209C192.208 66.6299 189.17 70.053 185.563 72.7989C175.573 80.1675 173.255 80.3933 173.255 80.4138L173.542 80.5575C173.623 80.5414 173.707 80.5414 173.788 80.5575C174.301 80.8038 175.142 81.2348 176.106 81.789C176.266 81.87 176.417 81.9662 176.558 82.0764C177.123 82.3959 177.671 82.7453 178.199 83.1232L178.752 83.4926L179.306 83.8621C181.343 85.1954 182.903 87.1439 183.758 89.4245C183.758 89.5271 183.758 89.6092 183.758 89.6913C184.254 93.2285 184.309 96.8137 183.922 100.365H183.819C183.47 100.241 182.773 99.9951 181.768 99.6051C181.536 99.5157 181.31 99.4129 181.091 99.2972C180.906 99.2972 180.701 99.133 180.496 99.0714L179.922 98.7841C179.142 98.4146 178.281 97.9836 177.378 97.4499H177.152C176.848 97.2419 176.533 97.0501 176.209 96.8752L175.183 96.2184L173.952 95.3974C173.645 95.1716 173.317 94.9663 173.029 94.72C172.742 94.4737 171.963 93.9195 171.409 93.4885L170.588 92.7701C170.301 92.5443 170.034 92.3186 169.747 92.0517L168.64 90.9844L167.696 89.9171C165.391 87.1506 163.448 84.102 161.911 80.8448C161.563 80.188 161.276 79.5107 161.009 78.8949C160.14 77.1374 158.626 75.7841 156.783 75.1182C158.252 73.3014 159.524 71.3336 160.578 69.248C161.911 65.5123 164.291 60.7709 167.84 58.6773C171.964 56.8865 176.322 55.691 180.783 55.1264C189.378 53.3613 198.999 52.4171 198.999 52.4171Z" fill="url(#paint19_linear_1590_713)"/>
<g style="mix-blend-mode:multiply" opacity="0.4">
<path d="M153.194 71.6289C151.952 69.9448 150.528 68.4029 148.948 67.0312C148.64 66.7849 148.353 66.477 148.066 66.2102C148.013 66.1896 147.955 66.1896 147.902 66.2102C147.44 66.3961 146.939 66.4597 146.445 66.3949C146.153 66.3572 145.88 66.2279 145.666 66.0254C145.418 65.72 145.3 65.3293 145.338 64.9376C145.338 64.8144 145.338 64.6502 145.338 64.486C145.348 64.322 145.348 64.1575 145.338 63.9934C145.338 63.9934 145.338 63.8087 145.338 63.7266L144.62 63.0903L144.292 62.8029L142.363 61.0788C142.423 61.8601 142.388 62.6456 142.261 63.4187C142.236 63.7379 142.181 64.0541 142.097 64.3629C142.106 64.4859 142.106 64.6094 142.097 64.7323C142.115 64.8617 142.115 64.993 142.097 65.1223V65.2249C141.86 66.2455 141.349 67.1822 140.62 67.9343C140.504 68.065 140.342 68.1458 140.169 68.1601C139.574 68.1601 139.245 66.4975 138.486 64.055C138.465 63.8865 138.424 63.7212 138.363 63.5624C138.261 63.2135 138.138 62.9056 138.015 62.5156C137.892 62.1256 138.015 62.3103 138.015 62.1667C138.015 62.023 138.015 62.1667 138.015 62.1667C138.005 62.0986 138.005 62.0295 138.015 61.9614C137.595 60.6827 137.088 59.4345 136.497 58.2258C135.994 57.2311 135.425 56.2711 134.794 55.3522C134.375 54.6819 133.916 54.0376 133.42 53.4228L132.743 52.9097L131.943 52.335L131.245 51.8218C131.084 51.7291 130.932 51.619 130.794 51.4934L128.435 50.3029L127.84 49.8924C127.594 49.7282 127.348 49.6051 127.143 49.4409C125.698 48.5092 124.182 47.6925 122.61 46.9983C122.546 46.9561 122.477 46.9216 122.404 46.8957L120.866 46.28C120.498 46.1226 120.121 45.9855 119.738 45.8695L119.389 45.7463C119.068 45.6153 118.739 45.5056 118.404 45.4179L117.584 45.1511C116.55 44.8277 115.484 44.6211 114.404 44.5353C114.337 44.5159 114.266 44.5159 114.199 44.5353H114.076C113.934 44.513 113.788 44.513 113.645 44.5353C112.107 44.5353 111.758 45.3358 111.738 46.0337C111.738 47.3883 118.815 52.766 118.507 55.3317C118.486 55.5021 118.486 55.6744 118.507 55.8448C118.733 58.4926 122.876 63.4187 122.876 63.4187L120.538 63.5829C121.068 66.2352 121.384 68.9259 121.481 71.6289C121.276 73.2299 120.169 76.8424 113.379 80.0443L111.943 80.6601C104.948 83.5337 105.051 82.0353 103.471 82.3227C103.178 82.3368 102.891 82.4138 102.63 82.5484C101.399 83.0205 101.912 83.3284 102.958 83.5131C103.451 83.6158 104.066 83.6773 104.661 83.7389H105.399H106.117H106.61H106.774C107.342 83.6893 107.894 83.5215 108.394 83.2463C108.624 83.1692 108.844 83.0659 109.051 82.9384C109.707 82.5895 110.363 82.1995 110.876 81.8916L110.548 82.1585L109.338 83.1026C108.438 83.8091 107.588 84.5772 106.794 85.4015C105.871 86.3662 105.194 87.2693 105.297 87.9261C105.584 89.5476 112.907 85.5862 118.015 89.3424C119.41 89.1799 120.731 88.6223 121.821 87.7352C122.911 86.8481 123.725 85.6682 124.169 84.3341C124.722 82.6921 124.64 81.3169 124.886 81.2964C125.133 81.2759 126.425 82.3021 127.184 83.7184C127.521 84.2969 127.726 84.9423 127.786 85.609C127.847 86.2758 127.76 86.9476 127.533 87.5772C126.075 90.4842 124.315 93.2292 122.281 95.7668C122.158 95.931 122.015 96.0747 121.933 96.1979L121.153 97.142V97.2652H121.481H122.61C123.055 97.2488 123.497 97.1729 123.922 97.0394C124.873 96.8177 125.732 96.3089 126.384 95.5821C127.704 93.8362 129.419 92.4292 131.389 91.477V95.3358V95.8079C131.499 95.6518 131.583 95.4784 131.635 95.2947C132.845 92.4006 131.84 86.5714 133.502 85.032C134.815 83.8826 134.589 87.6593 134.363 90.0197C138.123 88.167 141.78 86.1114 145.317 83.8621C153.194 78.6486 154.035 73.8456 153.194 71.6289ZM130.117 52.8481C130.58 52.8119 131.046 52.8606 131.492 52.9918C131.667 53.0488 131.833 53.1318 131.984 53.2381C132.291 53.429 132.534 53.7078 132.681 54.0386C132.779 54.3084 132.827 54.5933 132.825 54.8801C132.825 54.8801 129.933 53.6691 129.728 53.1355C129.645 52.9918 129.769 52.8892 130.117 52.8481ZM127.963 55.2085C128.476 53.5665 131.143 55.7832 133.01 57.5895C134.035 58.5747 134.815 59.4368 134.815 59.4368C135.414 59.8724 135.853 60.4925 136.066 61.202C136.066 61.202 136.066 61.202 136.066 61.3046C136.075 61.3238 136.08 61.3449 136.08 61.3662C136.08 61.3875 136.075 61.4085 136.066 61.4277C136.23 61.7972 136.353 62.2282 136.497 62.6593C136.64 63.0903 136.497 62.9877 136.64 63.1519C136.624 63.2745 136.624 63.3987 136.64 63.5213C136.91 64.5881 137.108 65.6714 137.235 66.7644C137.571 68.0351 137.492 69.3801 137.01 70.6026C136.23 71.3005 131.799 64.9786 129.338 60.0936C129.153 59.7241 128.969 59.3547 128.804 58.9647C128.58 58.5321 128.381 58.0866 128.21 57.6305C128.071 57.3592 127.974 57.0686 127.922 56.7685C127.824 56.5385 127.755 56.2972 127.717 56.0501C127.708 55.9751 127.708 55.8993 127.717 55.8243C127.75 55.6026 127.835 55.3918 127.963 55.2085ZM132.271 79.5517C133.112 80.619 129.584 84.1699 128.476 83C128.435 83.041 131.41 78.5049 132.271 79.5928V79.5517Z" fill="#C74CBD"/>
</g>
<path style="mix-blend-mode:multiply" opacity="0.5" d="M116.354 68.5706C116.354 68.5706 107.595 78.9565 98.118 76.3703C88.6411 73.7841 88.6821 60.0936 90.7745 56.4606C91.5153 55.6058 92.3477 54.8349 93.2565 54.1617C95.0281 52.7845 97.0559 51.774 99.2218 51.189C101.388 50.604 103.648 50.4563 105.872 50.7545C108 51.078 109.989 52.0093 111.601 53.4365C113.213 54.8638 114.379 56.7263 114.959 58.8005C114.964 58.8345 114.964 58.8691 114.959 58.9031C114.959 58.9031 114.959 58.9031 114.959 59.0057C115.986 62.0862 116.459 65.3248 116.354 68.5706Z" fill="url(#paint20_linear_1590_713)"/>
<path d="M92.5379 57.2611C89.7481 60.6888 88.6199 74.8514 100.251 76.6782C111.881 78.5049 115.799 71.0337 116.251 69.2069C117.01 66.0665 115.615 52.9918 105.502 52.1913C103.104 52.0535 100.704 52.4351 98.4668 53.3101C96.2295 54.185 94.2071 55.5327 92.5379 57.2611Z" fill="url(#paint21_radial_1590_713)"/>
<path d="M114.405 64.445C114.526 66.0396 114.171 67.6344 113.387 69.0276C112.602 70.4209 111.423 71.5501 109.997 72.2725C108.571 72.9949 106.963 73.2781 105.376 73.0862C103.789 72.8944 102.295 72.2361 101.082 71.1947C99.8696 70.1532 98.9925 68.7753 98.5622 67.2352C98.1318 65.695 98.1675 64.0618 98.6647 62.5419C99.1618 61.022 100.098 59.6838 101.355 58.6963C102.613 57.7089 104.134 57.1166 105.728 56.9943C106.786 56.913 107.851 57.0413 108.86 57.3718C109.869 57.7024 110.803 58.2286 111.609 58.9206C112.415 59.6125 113.076 60.4565 113.556 61.4044C114.036 62.3524 114.324 63.3856 114.405 64.445Z" fill="url(#paint22_radial_1590_713)"/>
<path style="mix-blend-mode:screen" d="M111.902 64.2603C111.977 65.2517 111.755 66.243 111.267 67.1087C110.778 67.9744 110.044 68.6757 109.157 69.124C108.27 69.5724 107.27 69.7476 106.284 69.6276C105.298 69.5075 104.369 69.0976 103.615 68.4496C102.862 67.8016 102.317 66.9446 102.05 65.987C101.783 65.0293 101.806 64.0139 102.115 63.0692C102.425 62.1244 103.007 61.2926 103.789 60.679C104.571 60.0653 105.517 59.6973 106.508 59.6215C107.167 59.5683 107.83 59.6464 108.459 59.8513C109.088 60.0562 109.67 60.3837 110.172 60.8151C110.674 61.2464 111.085 61.773 111.382 62.3643C111.679 62.9557 111.856 63.6001 111.902 64.2603Z" fill="url(#paint23_radial_1590_713)"/>
<path d="M110.835 64.0755C110.898 64.8858 110.719 65.6964 110.321 66.4048C109.923 67.1132 109.324 67.6874 108.6 68.0548C107.875 68.4221 107.058 68.566 106.252 68.4683C105.445 68.3705 104.686 68.0355 104.07 67.5057C103.455 66.9759 103.01 66.2751 102.792 65.4921C102.575 64.7091 102.595 63.8791 102.849 63.1073C103.103 62.3355 103.581 61.6567 104.221 61.1567C104.861 60.6567 105.636 60.3582 106.446 60.2989C107.528 60.2196 108.597 60.5725 109.42 61.2803C110.243 61.9881 110.752 62.9932 110.835 64.0755Z" fill="#1C1249"/>
<path style="mix-blend-mode:screen" d="M114.774 61.633C115.041 65.1428 111.943 65.5534 108.436 65.7381C104.928 65.9228 97.564 63.0082 97.3178 59.5804C97.0717 56.1527 101.769 52.5197 107.574 53.1149C110.979 53.5049 114.508 58.1231 114.774 61.633Z" fill="url(#paint24_radial_1590_713)"/>
<path d="M100.497 64.8145C100.497 65.6149 99.6762 66.3539 98.4454 66.436C97.2146 66.5181 96.3941 65.9434 96.2505 65.1223C96.1069 64.3013 97.071 63.5829 98.3018 63.5008C99.5326 63.4187 100.435 64.014 100.497 64.8145Z" fill="white"/>
<path d="M80.7632 54.4901C80.7632 55.1059 79.8812 55.4754 78.9991 55.3317C78.1171 55.188 77.5222 54.5928 77.6248 53.977C77.7273 53.3613 78.5068 52.9918 79.3684 53.1355C80.2299 53.2791 80.8453 53.8744 80.7632 54.4901Z" fill="white"/>
<path d="M77.1526 72.881C75.9936 72.2354 74.684 71.9096 73.3578 71.9368C73.3182 71.4518 73.3182 70.9645 73.3578 70.4795C73.3417 70.1537 73.4437 69.833 73.6449 69.5764C73.8254 69.5209 74.0183 69.5209 74.1988 69.5764C74.2791 69.5524 74.3646 69.5524 74.4449 69.5764C75.4861 70.5565 76.3963 71.6672 77.1526 72.881Z" fill="#1C1249"/>
<path d="M74.2599 69.5764L74.4445 69.72C74.3642 69.6961 74.2787 69.6961 74.1984 69.72C74.0179 69.6646 73.825 69.6646 73.6445 69.72C73.7163 69.6308 73.816 69.5681 73.9275 69.5421C74.039 69.516 74.156 69.5281 74.2599 69.5764Z" fill="#1C1249"/>
<path d="M100.025 41.867C100.025 41.867 104.559 42.9754 106.528 40.7586C106.528 40.8407 101.974 38.7882 100.025 41.867Z" fill="white"/>
<path style="mix-blend-mode:screen" d="M135.533 94.3506L134.076 95.1511C133.133 95.6642 132.169 96.1568 131.184 96.6084L130.343 96.9778C129.052 97.5733 127.73 98.1008 126.384 98.5583C126.253 98.6365 126.106 98.6855 125.953 98.702C125.881 98.7305 125.8 98.7305 125.728 98.702L125.379 98.8456L124.723 99.0509C123.734 99.3936 122.727 99.6814 121.707 99.913C121.338 100.036 120.989 100.118 120.641 100.2C120.414 100.272 120.18 100.32 119.943 100.344H119.615C119.238 100.464 118.855 100.56 118.466 100.631H118.282C117.851 100.734 117.4 100.816 116.969 100.878L114.815 101.227H114.507C113.974 101.227 113.441 101.391 112.866 101.452H112.107H112.025H111.328C111.089 101.473 110.849 101.473 110.61 101.452H110.2H109.502C108.312 101.452 107.164 101.452 106.056 101.452H105.112C104.538 101.452 103.964 101.452 103.389 101.288H103.123H102.61C101.482 101.144 100.374 100.939 99.3072 100.693C98.979 100.693 98.6508 100.549 98.3636 100.447C97.611 100.27 96.8709 100.044 96.1482 99.7693C95.7995 99.7693 95.4508 99.523 95.1226 99.3998H94.938H94.7328C87.2181 96.1614 80.9862 90.5247 77.0098 83.3694C81.1123 88.9524 87.2662 95.6847 95.6149 98.5993H95.779L96.1277 98.7225L97.1328 99.0098H97.42L98.1175 99.174C98.4348 99.26 98.7567 99.3285 99.0816 99.3793C99.4918 99.5024 99.9226 99.564 100.333 99.6461C100.887 99.7693 101.42 99.8514 101.974 99.9335H102.61H103.061C103.43 99.9335 103.841 99.9335 104.21 100.057C104.483 100.076 104.757 100.076 105.03 100.057H106.405C107.389 100.057 108.456 100.057 109.338 100.057H110.241C110.466 100.078 110.692 100.078 110.917 100.057H112.292H113.974C114.061 100.035 114.153 100.035 114.241 100.057L115.738 99.8924H116.23L118.405 99.564C118.842 99.564 119.273 99.4819 119.697 99.3177H120.066H120.6C120.739 99.3153 120.874 99.2725 120.989 99.1946C122.015 99.05 123.024 98.8095 124.005 98.4762C124.05 98.4966 124.099 98.5071 124.148 98.5071C124.198 98.5071 124.247 98.4966 124.292 98.4762C124.805 98.353 125.297 98.2093 125.789 98.0451H126.035C127.225 97.6962 128.333 97.3268 129.441 96.8957C129.748 96.752 130.076 96.6494 130.405 96.4852C131.616 96.0324 132.801 95.5116 133.953 94.9253C134.466 94.9047 135 94.6379 135.533 94.3506Z" fill="url(#paint25_linear_1590_713)"/>
<path style="mix-blend-mode:multiply" opacity="0.5" d="M118.301 100.036C118.377 100.795 118.308 101.561 118.096 102.294C118.239 101.55 118.308 100.794 118.301 100.036Z" fill="url(#paint26_linear_1590_713)"/>
<path style="mix-blend-mode:multiply" opacity="0.5" d="M120.086 117.934C120.086 117.934 119.881 118.242 119.553 118.632L120.086 117.934Z" fill="url(#paint27_linear_1590_713)"/>
<path style="mix-blend-mode:multiply" opacity="0.5" d="M183.923 100.365H183.82C183.471 100.241 182.774 99.9951 181.769 99.6051C181.537 99.5157 181.311 99.4129 181.092 99.2972C180.907 99.2972 180.702 99.133 180.497 99.0714L179.923 98.7841C179.143 98.4146 178.282 97.9836 177.379 97.4499H177.153C176.849 97.2419 176.534 97.05 176.21 96.8752L175.184 96.2184L173.953 95.3974C173.646 95.1716 173.318 94.9663 173.03 94.72C172.743 94.4737 171.964 93.9195 171.41 93.4885L170.589 92.7701C170.302 92.5443 170.035 92.3186 169.748 92.0517L168.641 90.9844C174.918 96.4236 182.056 98.702 182.487 98.0041C182.918 97.3062 175.246 90.6765 174.548 90.1018C176.832 91.6305 179.248 92.9495 181.769 94.0427C183.656 94.6995 183.82 91.1691 183.82 89.5271C183.82 89.6297 183.82 89.7118 183.82 89.7939C184.288 93.2999 184.322 96.8501 183.923 100.365Z" fill="url(#paint28_linear_1590_713)"/>
<path style="mix-blend-mode:multiply" opacity="0.5" d="M198.917 52.725C198.518 54.0478 198.053 55.3494 197.522 56.6248C197.276 57.1585 197.03 57.7537 196.742 58.39C196.23 59.5189 195.573 60.7299 194.855 61.982C194.712 62.2283 194.589 62.4746 194.425 62.7209C192.126 66.6299 189.088 70.053 185.481 72.7989C175.491 80.1675 173.173 80.3933 173.173 80.4138L173.46 80.5575C173.542 80.5414 173.625 80.5414 173.707 80.5575C174.219 80.8038 175.06 81.2348 176.025 81.789C176.184 81.87 176.335 81.9662 176.476 82.0764C177.041 82.3959 177.589 82.7453 178.117 83.1232L178.671 83.4926L179.225 83.8621C174.144 81.375 168.925 79.182 163.594 77.2939C166.133 77.7028 168.695 77.9496 171.266 78.0329C176.517 78.0329 186.794 71.4237 186.117 71.1568C183.245 70.0279 169.563 71.0542 169.563 71.0542C169.563 71.0542 187.512 67.9138 192.763 63.4598C193.05 63.234 193.317 63.0287 193.542 62.8235L176.537 66.9286C179.655 65.9844 192.742 61.9409 195.819 58.431C185.707 61.3662 172.886 63.1724 171.327 63.4187C173.255 62.8851 192.025 57.9179 198.917 52.725Z" fill="url(#paint29_linear_1590_713)"/>
<path style="mix-blend-mode:screen" d="M149.604 74.2151C149.173 76.2676 139.224 81.2143 127.224 83.9442C126.226 84.1631 125.221 84.3683 124.209 84.5599C118.516 85.7214 112.688 86.0738 106.896 85.6067C108.341 84.1895 109.898 82.8921 111.553 81.7274C110.465 82.4458 107.717 84.1905 106.63 84.0057C105.542 83.821 100.004 83.6568 102.527 82.6305C105.05 81.6043 103.819 84.0468 111.86 80.7422C119.901 77.4376 122.301 74.5846 122.506 72.963C122.397 70.2609 122.082 67.5711 121.563 64.9171L122.794 63.4803C122.794 63.4803 118.691 58.4721 118.383 55.7422C125.211 56.2369 131.799 58.4696 137.522 62.2282C139.06 63.1724 140.476 64.1576 141.788 65.1223C146.896 68.7964 149.973 72.532 149.604 74.2151Z" fill="url(#paint30_linear_1590_713)"/>
<path d="M89.2344 63.4187C89.2344 63.4187 89.5421 72.6552 95.1626 75.6108C98.496 77.3735 102.315 77.9936 106.034 77.376C102.171 78.463 98.0826 78.463 94.219 77.376C88.2498 75.5082 89.2344 63.4187 89.2344 63.4187Z" fill="url(#paint31_radial_1590_713)"/>
<path d="M143.102 119.946C143.218 121.63 143.169 123.321 142.959 124.995C142.94 125.326 142.899 125.655 142.835 125.98C142.835 126.268 142.733 126.555 142.671 126.842C142.61 127.13 142.528 127.417 142.466 127.704C142.406 127.962 142.331 128.215 142.241 128.464C141.895 129.977 141.192 131.385 140.189 132.569C140.189 132.569 139.164 131.953 137.42 130.722L136.641 130.209C134.589 128.772 131.943 126.781 129.01 124.359L128.066 123.579C126.876 122.553 125.646 121.526 124.415 120.315L122.979 118.981L121.441 117.442L120.846 116.826C120.292 116.251 119.717 115.656 119.184 115.04C118.651 114.424 118.117 113.85 117.605 113.234C117.307 112.913 117.027 112.578 116.764 112.228C116.579 112.023 116.394 111.777 116.23 111.571C116.169 111.501 116.114 111.426 116.066 111.346C115.615 110.75 115.164 110.196 114.753 109.601C113.994 108.554 113.297 107.548 112.702 106.42C112.107 105.291 111.8 104.778 111.389 103.956C110.979 103.135 110.753 102.54 110.507 101.904C110.451 101.791 110.403 101.675 110.364 101.555L110.117 100.919C109.83 100.016 109.584 99.1946 109.4 98.4351C109.318 98.1454 109.257 97.8505 109.215 97.5525C109.038 96.6451 108.928 95.7258 108.887 94.8021C108.887 94.4737 108.887 94.1864 108.887 93.899C108.921 93.1613 109.01 92.4273 109.153 91.7028C109.283 90.9516 109.601 90.2455 110.076 89.6502C110.42 89.3158 110.87 89.1125 111.348 89.0755C111.539 89.1957 111.696 89.3623 111.805 89.5597C111.914 89.7571 111.971 89.9789 111.971 90.2044C111.971 90.4299 111.914 90.6517 111.805 90.8492C111.696 91.0466 111.539 91.2132 111.348 91.3333C111.51 91.6523 111.702 91.9547 111.923 92.2365C112.033 92.3968 112.157 92.5478 112.292 92.688C112.804 93.296 113.406 93.822 114.076 94.2479C114.986 94.8502 116.014 95.2492 117.092 95.4179C117.988 95.5532 118.893 95.6149 119.8 95.6026H120.579C121.01 95.6026 121.482 95.6026 121.953 95.6026C123.246 95.6026 124.641 95.6026 126.056 95.4179H126.959L130.323 95.2126H131C131.08 95.2326 131.165 95.2326 131.246 95.2126H131.43H133.666H133.851C134.882 95.1422 135.917 95.1422 136.948 95.2126H137.461C139.438 95.4996 141.373 96.0233 143.225 96.7726C141.666 96.3554 140.025 96.3554 138.466 96.7726C138.02 96.9393 137.621 97.214 137.306 97.5721C136.991 97.9302 136.77 98.3606 136.661 98.8251C136.597 99.0402 136.549 99.2597 136.517 99.4819C136.431 101.764 136.925 104.032 137.953 106.071C138.712 107.877 139.656 109.806 140.517 111.797C141.135 113.131 141.669 114.502 142.117 115.902C142.619 117.202 142.95 118.561 143.102 119.946Z" fill="url(#paint32_linear_1590_713)"/>
<path style="mix-blend-mode:multiply" opacity="0.5" d="M142.959 124.995C142.94 125.326 142.899 125.655 142.835 125.98C142.835 126.268 142.733 126.555 142.671 126.842C142.61 127.13 142.528 127.417 142.466 127.704C142.406 127.962 142.331 128.215 142.241 128.464C141.895 129.977 141.192 131.385 140.189 132.569C140.189 132.569 139.164 131.953 137.42 130.722L136.641 130.209C134.589 128.772 131.943 126.781 129.01 124.359L128.066 123.579C126.876 122.553 125.646 121.526 124.415 120.315L122.979 118.981L121.441 117.442L120.846 116.826C120.292 116.251 119.717 115.656 119.184 115.04C118.651 114.424 118.117 113.85 117.605 113.234C117.307 112.913 117.027 112.578 116.764 112.228C116.579 112.023 116.394 111.777 116.23 111.571C116.169 111.501 116.114 111.426 116.066 111.346C115.615 110.75 115.164 110.196 114.753 109.601C113.994 108.554 113.297 107.548 112.702 106.42C112.107 105.291 111.8 104.777 111.389 103.956C110.979 103.135 110.753 102.54 110.507 101.904C110.451 101.791 110.403 101.675 110.364 101.555L110.117 100.919C109.83 100.016 109.584 99.1946 109.4 98.4351C109.318 98.1454 109.257 97.8505 109.215 97.5525C109.038 96.6451 108.928 95.7258 108.887 94.8021C109.104 95.4617 109.364 96.1062 109.666 96.7315C109.81 96.9983 109.953 97.2857 110.076 97.5731C110.2 97.8604 110.384 98.1478 110.569 98.4351C110.753 98.7225 111.102 99.3177 111.43 99.7898L112.148 100.837L112.825 101.678C114.346 103.474 116.059 105.098 117.933 106.522L118.63 107.076C118.959 107.341 119.301 107.588 119.656 107.815C120.107 108.185 120.6 108.493 121.051 108.821L121.4 109.047C121.792 109.346 122.203 109.62 122.63 109.868C126.414 112.34 130.57 114.19 134.938 115.348C137.369 116.044 139.905 116.294 142.425 116.087C142.833 117.331 143.088 118.62 143.184 119.925C143.274 121.619 143.198 123.316 142.959 124.995Z" fill="url(#paint33_linear_1590_713)"/>
<path style="mix-blend-mode:multiply" opacity="0.5" d="M140.743 111.92C137.369 112.181 133.975 111.897 130.691 111.079C128.286 110.489 125.948 109.65 123.717 108.575C123.04 108.246 122.343 107.897 121.666 107.528C121.585 107.461 121.495 107.406 121.399 107.364C120.601 106.877 119.834 106.343 119.102 105.763C117.433 104.479 115.901 103.028 114.527 101.432C114.303 101.203 114.091 100.964 113.891 100.713C113.174 99.8924 112.599 99.1125 112.086 98.4351C112.086 98.4351 111.717 97.8809 111.532 97.6552C110.938 96.7931 110.589 96.1979 110.445 95.9721C110.589 96.1979 111.02 96.8136 111.635 97.6552C111.799 97.8604 111.984 98.0862 112.168 98.353C112.702 99.0304 113.379 99.8103 114.22 100.631C114.425 100.878 114.671 101.124 114.897 101.37C116.253 102.758 117.736 104.016 119.327 105.126C120.025 105.578 120.722 106.009 121.481 106.42H121.584C122.239 106.771 122.926 107.06 123.635 107.282C123.882 107.401 124.144 107.484 124.415 107.528C125.528 107.818 126.67 107.983 127.82 108.021C130.371 108.046 132.913 107.707 135.368 107.015C136.348 106.749 137.313 106.434 138.261 106.071C138.938 108 139.881 109.929 140.743 111.92Z" fill="url(#paint34_linear_1590_713)"/>
<path style="mix-blend-mode:multiply" opacity="0.5" d="M138.692 96.9368C138.245 97.1036 137.846 97.3782 137.531 97.7363C137.216 98.0944 136.995 98.5248 136.886 98.9893C135.78 98.7998 134.664 98.6764 133.543 98.6199C131.251 98.5475 128.956 98.6092 126.671 98.8046H125.727C125.256 98.8046 124.763 98.8046 124.292 98.8046C124.169 98.8253 124.044 98.8253 123.922 98.8046C122.691 98.8756 121.456 98.8413 120.23 98.702C119.717 98.702 119.184 98.5583 118.671 98.4762H118.548C118.48 98.4852 118.411 98.4852 118.343 98.4762C117.973 98.4119 117.609 98.3157 117.256 98.1888C116.759 98.0418 116.273 97.8635 115.799 97.6552C115.504 97.5348 115.217 97.3977 114.938 97.2447C114.711 97.1445 114.491 97.0279 114.281 96.8957C114.937 97.2193 115.624 97.4739 116.333 97.6552C117.109 97.8346 117.897 97.958 118.692 98.0246H118.876C119.299 98.0554 119.725 98.0554 120.148 98.0246C120.949 98.031 121.75 97.9967 122.548 97.922C123.327 97.922 124.107 97.7578 124.866 97.6552L126.117 97.491C127.615 97.2857 129.071 97.0189 130.384 96.8136C130.664 96.7936 130.945 96.7936 131.225 96.8136C132.037 96.5653 132.867 96.3801 133.707 96.2594C134.426 96.2546 135.145 96.2888 135.861 96.3621C136.814 96.5003 137.759 96.6922 138.692 96.9368Z" fill="url(#paint35_linear_1590_713)"/>
<path style="mix-blend-mode:multiply" opacity="0.5" d="M143.102 119.946C143.218 121.63 143.17 123.321 142.959 124.995C142.94 125.326 142.899 125.655 142.836 125.98C142.836 126.268 142.733 126.555 142.672 126.842C142.61 127.13 142.528 127.417 142.466 127.704C142.406 127.962 142.331 128.215 142.241 128.464C141.895 129.977 141.192 131.385 140.189 132.569C140.189 132.569 139.164 131.953 137.42 130.722L136.641 130.209C134.589 128.772 131.943 126.781 129.01 124.359L128.066 123.579C126.877 122.553 125.646 121.526 124.415 120.315L122.979 118.981L121.441 117.442L120.846 116.826C120.292 116.251 119.718 115.656 119.184 115.04C118.651 114.424 118.118 113.85 117.605 113.234C117.308 112.913 117.027 112.578 116.764 112.228C116.579 112.023 116.395 111.777 116.231 111.571C116.169 111.501 116.114 111.426 116.066 111.346L116.272 111.571C116.497 111.797 116.743 112.044 116.969 112.31C117.215 112.577 117.441 112.844 117.728 113.111C118.815 114.26 120.107 115.533 121.441 116.785C125.092 120.192 129.133 123.25 130.877 122.388L131.513 122.019C132.507 121.207 133.312 120.187 133.872 119.031C134.431 117.876 134.732 116.612 134.754 115.328C134.848 114.491 134.684 113.645 134.282 112.906C133.204 112.018 131.943 111.38 130.589 111.038C129.728 110.73 128.907 110.484 128.272 110.299C129.306 110.605 130.395 110.675 131.46 110.505C132.525 110.334 133.538 109.927 134.425 109.314C134.971 108.712 135.278 107.93 135.287 107.117C135.261 104.179 134.669 101.273 133.543 98.5583H130.959C131.123 98.5583 133.892 97.4499 135.861 96.5057C136.534 96.245 137.153 95.8623 137.687 95.3768C139.664 95.6638 141.599 96.1875 143.451 96.9368C141.892 96.5196 140.251 96.5196 138.692 96.9368C138.245 97.1036 137.847 97.3782 137.532 97.7363C137.217 98.0944 136.995 98.5248 136.887 98.9893C136.823 99.2044 136.775 99.424 136.743 99.6461C136.657 101.929 137.151 104.196 138.179 106.235C138.938 108.041 139.882 109.97 140.743 111.961C141.36 113.296 141.895 114.667 142.343 116.067C142.755 117.323 143.01 118.626 143.102 119.946Z" fill="url(#paint36_linear_1590_713)"/>
<path style="mix-blend-mode:screen" d="M127.183 95.541C126.951 95.748 126.744 95.9823 126.568 96.2389C126.466 96.3778 126.383 96.5296 126.322 96.6905C126.216 96.9121 126.14 97.1467 126.096 97.3883C125.994 97.8533 125.946 98.3285 125.953 98.8046C126.128 101.193 125.863 103.593 125.173 105.886C124.951 106.507 124.669 107.105 124.332 107.672C124.146 107.985 123.94 108.287 123.717 108.575C123.394 109.05 123.03 109.496 122.629 109.909C121.484 111.05 120.152 111.987 118.691 112.68L117.829 113.07H117.645C117.173 112.516 116.722 111.961 116.291 111.387C116.726 111.45 117.168 111.45 117.604 111.387C118.383 111.327 119.126 111.033 119.734 110.542C120.342 110.05 120.787 109.386 121.009 108.636C121.112 108.287 121.214 107.918 121.296 107.507C121.306 107.384 121.306 107.261 121.296 107.138C121.349 106.867 121.384 106.593 121.399 106.317C121.391 103.656 120.976 101.012 120.168 98.4762C120.168 98.2299 120.065 97.963 120.004 97.7167C120.014 97.6556 120.014 97.5932 120.004 97.532C119.994 97.3474 119.994 97.1624 120.004 96.9778C119.952 96.514 119.952 96.0459 120.004 95.5821C122.096 95.8284 124.66 95.7052 127.183 95.541Z" fill="url(#paint37_linear_1590_713)"/>
<path style="mix-blend-mode:multiply" opacity="0.5" d="M131.615 122.06C128.683 120.738 125.927 119.055 123.41 117.052C122.815 116.559 122.199 116.087 121.605 115.553C121.01 115.02 120.087 114.178 119.348 113.501C119.164 113.275 118.958 113.07 118.753 112.844C118.379 112.493 118.029 112.115 117.707 111.715C117.133 111.038 116.579 110.381 116.025 109.663L115.471 108.944C114.958 108.246 114.466 107.569 114.056 106.892C113.011 105.307 112.098 103.639 111.328 101.904C111.18 101.597 111.05 101.282 110.938 100.96C110.589 100.098 110.343 99.3177 110.117 98.5583C110.117 98.2709 109.994 97.9631 109.933 97.6962C109.86 97.4195 109.805 97.1384 109.769 96.8547C109.673 96.3125 109.625 95.7631 109.625 95.2127C109.584 94.8649 109.584 94.5136 109.625 94.1659C109.608 93.4453 109.793 92.7342 110.158 92.1133C110.23 91.9738 110.332 91.8519 110.456 91.7561C110.58 91.6603 110.723 91.5931 110.876 91.5591C111.125 91.4948 111.386 91.4948 111.635 91.5591C111.826 91.439 111.983 91.2724 112.092 91.075C112.201 90.8775 112.258 90.6557 112.258 90.4302C112.258 90.2047 112.201 89.9829 112.092 89.7855C111.983 89.5881 111.826 89.4215 111.635 89.3013C111.157 89.3383 110.707 89.5416 110.364 89.876C109.888 90.4713 109.57 91.1774 109.44 91.9286C109.297 92.6531 109.208 93.3871 109.174 94.1248C109.174 94.4122 109.174 94.6995 109.174 95.0279C109.215 95.9516 109.325 96.8709 109.502 97.7783C109.544 98.0763 109.606 98.3712 109.687 98.6609C109.871 99.4204 110.117 100.241 110.405 101.145L110.651 101.781C110.69 101.901 110.738 102.017 110.794 102.13C111.04 102.787 111.328 103.484 111.676 104.182C112.025 104.88 112.517 105.824 112.989 106.645C113.461 107.466 114.323 108.698 115.04 109.827C115.451 110.422 115.902 110.976 116.353 111.571C116.401 111.651 116.456 111.727 116.517 111.797C116.682 112.002 116.866 112.249 117.051 112.454C117.314 112.803 117.595 113.139 117.892 113.46C118.405 114.076 118.938 114.671 119.471 115.266C120.005 115.861 120.579 116.477 121.133 117.052L121.728 117.668L123.266 119.207L124.702 120.541C125.933 121.67 127.164 122.778 128.353 123.805L129.297 124.585C132.005 126.781 134.589 128.772 136.64 130.209L137.276 130.681C139.02 131.912 140.046 132.528 140.046 132.528C141.048 131.344 141.752 129.936 142.097 128.423C142.187 128.174 142.262 127.921 142.323 127.663C142.323 127.376 142.466 127.109 142.528 126.801C142.589 126.493 142.63 126.227 142.692 125.939C142.755 125.614 142.797 125.285 142.815 124.954C138.928 124.735 135.122 123.751 131.615 122.06ZM110.897 89.4655C110.875 89.6742 110.834 89.8804 110.774 90.0813C110.651 90.4097 109.871 91.0049 109.871 91.0049C109.871 91.0049 109.44 89.8555 110.897 89.4655Z" fill="url(#paint38_linear_1590_713)"/>
<path style="mix-blend-mode:screen" d="M107.799 44.1453C107.799 44.1453 94.1781 46.5878 87.5729 54.798C83.6477 59.5449 81.4235 65.47 81.255 71.6289C80.1565 69.2092 78.7124 66.9621 76.9678 64.9581C75.7544 64.1723 74.2873 63.8787 72.8652 64.1371H73.0498C73.9897 63.825 74.8654 63.3451 75.6345 62.7208L75.9832 62.3309C76.4755 61.7151 77.3165 60.5246 78.4447 58.9442C80.3613 56.2143 82.4152 53.5837 84.5986 51.0624C85.2755 50.3029 85.9934 49.523 86.6498 48.7635C87.3063 48.0041 87.9627 47.4704 88.7011 46.8341C91.4942 44.1934 94.7119 42.0424 98.2191 40.4713L100.373 41.3333L102.568 42.2159L107.799 44.1453Z" fill="url(#paint39_linear_1590_713)"/>
<path style="mix-blend-mode:screen" d="M197.769 53.3818C191.143 57.4869 164.292 65.4507 164.148 64.7118C164.465 63.2799 165.109 61.9412 166.031 60.8014C166.953 59.6615 168.128 58.7517 169.461 58.1437C173.072 56.5016 197.769 53.3818 197.769 53.3818Z" fill="url(#paint40_linear_1590_713)"/>
<path style="mix-blend-mode:screen" d="M170.836 66.6617C173.814 67.1317 176.862 66.8711 179.718 65.9023C183.42 64.9265 186.954 63.3972 190.2 61.3662C190.18 60.8736 170.836 66.6617 170.836 66.6617Z" fill="url(#paint41_linear_1590_713)"/>
<path d="M125.174 57.2611C127.923 58.1847 127.717 60.0115 127.717 60.0115C127.349 59.6897 127.006 59.3397 126.692 58.9647L125.174 57.2611Z" fill="white"/>
<path d="M122.465 51.8218C125.09 52.1297 126.567 56.5632 126.465 56.5427C125.626 56.4126 124.831 56.0816 124.147 55.578C123.461 54.3861 122.897 53.1276 122.465 51.8218Z" fill="white"/>
<path style="mix-blend-mode:screen" d="M166.979 80.0443C166.979 80.0443 181.337 91.2717 182.486 90.307C183.635 89.3423 180.743 85.812 177.83 83.6773C174.917 81.5427 166.979 80.0443 166.979 80.0443Z" fill="url(#paint42_linear_1590_713)"/>
<path style="mix-blend-mode:screen" d="M73.7896 72.6552C74.3036 73.1094 74.9064 73.4516 75.5597 73.66C76.213 73.8685 76.9026 73.9387 77.5844 73.8662C77.5844 73.8662 75.2665 71.8136 74.446 71.8136C74.3373 71.7911 74.2245 71.7995 74.1203 71.8377C74.0161 71.876 73.9247 71.9427 73.8564 72.0303C73.7881 72.1178 73.7457 72.2228 73.7338 72.3332C73.722 72.4436 73.7413 72.5552 73.7896 72.6552Z" fill="url(#paint43_linear_1590_713)"/>
<path style="mix-blend-mode:screen" d="M198.999 52.4171C199.006 52.5196 199.006 52.6225 198.999 52.725C198.601 54.0477 198.135 55.3494 197.604 56.6248C197.358 57.1585 197.112 57.7537 196.825 58.39C196.312 59.5189 195.656 60.7299 194.938 61.9819C194.794 62.2282 194.671 62.4745 194.507 62.7209C192.208 66.6298 189.171 70.053 185.563 72.7989C175.573 80.1675 173.256 80.3933 173.256 80.4138L173.543 80.5575C173.624 80.5414 173.708 80.5414 173.789 80.5575C174.302 80.8038 175.143 81.2348 176.107 81.789C176.266 81.87 176.417 81.9662 176.558 82.0764C177.123 82.3958 177.671 82.7453 178.199 83.1231L178.753 83.4926L179.307 83.8621C181.344 85.1954 182.903 87.1439 183.758 89.4245C183.758 89.5271 183.758 89.6092 183.758 89.6913C184.255 93.2285 184.31 96.8137 183.922 100.365H183.82C183.471 100.241 182.773 99.9951 181.768 99.6051C181.537 99.5157 181.311 99.4129 181.091 99.2972C180.907 99.2972 180.702 99.133 180.497 99.0714L179.922 98.7841C179.143 98.4146 178.281 97.9836 177.379 97.4499H177.153C176.849 97.2419 176.534 97.05 176.209 96.8752L175.184 96.2184L173.953 95.3974C173.645 95.1716 173.317 94.9663 173.03 94.72C172.743 94.4737 171.963 93.9195 171.409 93.4885L170.589 92.7701C170.302 92.5443 170.035 92.3186 169.748 92.0517L168.64 90.9844L167.697 89.9171C165.392 87.1505 163.448 84.102 161.912 80.8448C161.563 80.188 161.276 79.5107 161.009 78.8949C160.452 78.2061 159.757 77.6406 158.97 77.2343C158.182 76.828 157.319 76.5897 156.435 76.5345C154.384 76.6987 149.461 85.6273 138.302 92.9548C137.481 93.509 136.64 94.0222 135.758 94.5353L134.302 95.3358C135.333 95.2653 136.368 95.2653 137.399 95.3358H137.912C139.889 95.6227 141.824 96.1465 143.676 96.8957C142.117 96.4786 140.476 96.4786 138.917 96.8957C138.47 97.0625 138.072 97.3372 137.757 97.6953C137.442 98.0533 137.22 98.4838 137.112 98.9483C137.048 99.1634 137 99.3829 136.968 99.6051C136.882 101.888 137.376 104.155 138.404 106.194C139.163 108 140.107 109.929 140.968 111.92C141.585 113.255 142.12 114.626 142.568 116.025C142.976 117.269 143.231 118.558 143.327 119.864C143.373 121.582 143.25 123.301 142.958 124.995C142.94 125.326 142.899 125.655 142.835 125.98C142.835 126.268 142.732 126.555 142.671 126.842C142.609 127.13 142.527 127.417 142.466 127.704C142.406 127.962 142.33 128.215 142.24 128.464C141.895 129.977 141.191 131.385 140.189 132.569C140.189 132.569 139.163 131.953 137.42 130.722L136.64 130.209C134.589 128.772 131.943 126.781 129.009 124.359L128.066 123.579C126.876 122.553 125.645 121.526 124.414 120.315L122.979 118.981L121.44 117.442C121.44 117.873 121.44 118.263 121.44 118.694C121.334 120 121.073 121.288 120.661 122.532C120.121 124.118 119.434 125.651 118.609 127.109L118.097 127.971L117.604 128.69C117.44 128.956 117.256 129.182 117.091 129.429L116.599 130.044C115.677 131.306 114.458 132.321 113.05 133C113.05 133 112.353 132.035 111.225 130.229L110.773 129.552C109.481 127.499 107.758 124.605 105.994 121.198L105.44 120.131C104.702 118.735 104.004 117.257 103.389 115.718L102.589 113.932C102.179 113.008 101.809 112.085 101.42 111.14C101.03 110.196 100.866 109.622 100.558 108.842C100.25 108.062 99.9632 107.323 99.717 106.522C99.4709 105.722 99.3068 105.147 99.1017 104.47C99.0949 104.395 99.0949 104.319 99.1017 104.244C98.794 103.094 98.5068 102.007 98.3017 100.898C97.549 100.722 96.8089 100.495 96.0863 100.221C95.7376 100.221 95.3888 99.9745 95.0606 99.8514H94.876H94.6709C87.1561 96.6129 80.9242 90.9762 76.9478 83.821C71.5119 74.564 70.1581 65.3481 71.4504 64.5271C71.9468 64.4421 72.4343 64.3116 72.9068 64.1371H73.0504C73.9903 63.825 74.8659 63.3451 75.635 62.7209L75.9837 62.3309C75.4281 60.8458 75.1956 59.2591 75.3017 57.677C75.4078 56.0948 75.8501 54.5535 76.5991 53.156C77.7057 51.5075 79.2564 50.2065 81.0716 49.4036C82.8869 48.6008 84.8923 48.3291 86.8555 48.6199C87.4914 47.9631 88.1683 47.3268 88.9068 46.6905C91.6998 44.0498 94.9175 41.8987 98.4247 40.3276C102.251 38.5778 106.569 38.222 110.63 39.3218C109.973 38.3571 109.584 37.7003 109.543 37.6593C109.502 37.6182 110.076 37.6593 110.876 36.8998C111.676 36.1404 113.543 33.3489 115.45 27.4376C115.45 27.2529 115.594 27.0476 115.676 26.8424C116.333 25.0223 117.15 23.264 118.117 21.5878C121.084 16.7179 124.541 12.1649 128.435 8C127.825 8.93642 127.329 9.94247 126.958 10.9967C126.653 11.7467 126.653 12.5866 126.958 13.3366C127.27 13.9247 127.801 14.3668 128.435 14.5681L129.358 14.9171C130.117 15.1839 131.081 15.5534 132.394 16.1281C133.71 16.7706 134.99 17.4832 136.23 18.2627C137.43 19.0136 138.48 19.981 139.327 21.1158C141.039 23.4006 142.421 25.9158 143.43 28.587C144.25 30.6022 144.969 32.6573 145.584 34.7447C146.138 36.6125 146.609 38.4598 147.04 40.3276C147.286 41.4565 147.532 42.5854 147.738 43.7143C148.726 48.2834 149.133 52.9593 148.948 57.6305C148.948 58.1026 148.804 58.5952 148.722 59.0468C148.64 59.4984 148.722 59.4778 148.538 59.7036C148.495 59.9141 148.433 60.1202 148.353 60.3194C148.353 60.5452 148.209 60.7299 148.168 60.9146C147.751 61.8896 147.103 62.7487 146.281 63.4187L149.481 66.2102L150.404 67.0312C153.379 69.6379 155.491 71.321 156.25 71.3415C157.073 71.3141 157.876 71.0868 158.591 70.6791C159.306 70.2714 159.91 69.6957 160.353 69.0016C161.686 65.266 164.066 60.5246 167.614 58.431C171.739 56.6402 176.097 55.4446 180.558 54.8801C189.379 53.3612 198.999 52.4171 198.999 52.4171Z" fill="url(#paint44_linear_1590_713)"/>
</g>
<path fill-rule="evenodd" clip-rule="evenodd" d="M59 10C59 4.50698 63.4823 0 69 0C74.5177 0 79 4.50698 79 10C79 15.493 74.5177 20 69 20C63.4823 20 59 15.493 59 10Z" fill="#AAE1F4"/>
<path fill-rule="evenodd" clip-rule="evenodd" d="M61 46C61 44.3521 62.3447 43 64 43C65.6553 43 67 44.3521 67 46C67 47.6479 65.6553 49 64 49C62.3447 49 61 47.6479 61 46Z" fill="#AAE1F4"/>
<path fill-rule="evenodd" clip-rule="evenodd" d="M0 48.7043C0 43.7433 4.02923 39.7043 9 39.7043C13.9708 39.7043 18 43.7433 18 48.7043C18 53.6652 13.9708 57.7043 9 57.7043C4.02923 57.7043 0 53.6652 0 48.7043Z" fill="#AAE1F4"/>
<path fill-rule="evenodd" clip-rule="evenodd" d="M71 111.704C71 109.502 72.7893 107.704 75 107.704C77.2106 107.704 79 109.502 79 111.704C79 113.907 77.2106 115.704 75 115.704C72.7893 115.704 71 113.907 71 111.704Z" fill="#AAE1F4"/>
<path fill-rule="evenodd" clip-rule="evenodd" d="M15 83.7044C15 74.8676 22.1642 67.7043 31 67.7043C39.8358 67.7043 47 74.8676 47 83.7044C47 92.5413 39.8358 99.7043 31 99.7043C22.1642 99.7043 15 92.5413 15 83.7044Z" fill="#AAE1F4"/>
<defs>
<linearGradient id="paint0_linear_1590_713" x1="89.6244" y1="84.0468" x2="123.841" y2="119.658" gradientUnits="userSpaceOnUse">
<stop offset="0.01" stop-color="#FF3B59"/>
<stop offset="0.22" stop-color="#FC3959"/>
<stop offset="0.39" stop-color="#F23359"/>
<stop offset="0.54" stop-color="#E22A58"/>
<stop offset="0.68" stop-color="#CA1C58"/>
<stop offset="0.81" stop-color="#AD0B57"/>
<stop offset="0.88" stop-color="#9A0057"/>
<stop offset="0.99" stop-color="#9A00AE"/>
</linearGradient>
<linearGradient id="paint1_linear_1590_713" x1="108.887" y1="53.6075" x2="109.811" y2="138.993" gradientUnits="userSpaceOnUse">
<stop stop-color="#CA528D"/>
<stop offset="1" stop-color="#8E7090"/>
</linearGradient>
<linearGradient id="paint2_linear_1590_713" x1="110.241" y1="69.3506" x2="110.775" y2="117.688" gradientUnits="userSpaceOnUse">
<stop stop-color="#CA528D"/>
<stop offset="1" stop-color="#8E7090"/>
</linearGradient>
<linearGradient id="paint3_linear_1590_713" x1="114.014" y1="82.4458" x2="114.22" y2="102.212" gradientUnits="userSpaceOnUse">
<stop stop-color="#CA528D"/>
<stop offset="1" stop-color="#8E7090"/>
</linearGradient>
<linearGradient id="paint4_linear_1590_713" x1="114.138" y1="73.6404" x2="114.837" y2="137.433" gradientUnits="userSpaceOnUse">
<stop stop-color="#CA528D"/>
<stop offset="1" stop-color="#8E7090"/>
</linearGradient>
<linearGradient id="paint5_linear_1590_713" x1="109.481" y1="126.76" x2="105.476" y2="78.5259" gradientUnits="userSpaceOnUse">
<stop/>
<stop offset="0.1" stop-color="#090503"/>
<stop offset="0.26" stop-color="#21110C"/>
<stop offset="0.47" stop-color="#49251A"/>
<stop offset="0.71" stop-color="#80402D"/>
<stop offset="0.98" stop-color="#C56346"/>
<stop offset="0.99" stop-color="#CA6648"/>
</linearGradient>
<linearGradient id="paint6_linear_1590_713" x1="48.25" y1="150.693" x2="132.183" y2="89.4737" gradientUnits="userSpaceOnUse">
<stop stop-color="#CA528D"/>
<stop offset="1" stop-color="#8E7090"/>
</linearGradient>
<linearGradient id="paint7_linear_1590_713" x1="100.684" y1="99.4303" x2="101.173" y2="99.085" gradientUnits="userSpaceOnUse">
<stop stop-color="#CA528D"/>
<stop offset="1" stop-color="#8E7090"/>
</linearGradient>
<linearGradient id="paint8_linear_1590_713" x1="112.865" y1="21.2594" x2="155.429" y2="55.6345" gradientUnits="userSpaceOnUse">
<stop offset="0.01" stop-color="#FF3B59"/>
<stop offset="0.22" stop-color="#FC3959"/>
<stop offset="0.39" stop-color="#F23359"/>
<stop offset="0.54" stop-color="#E22A58"/>
<stop offset="0.68" stop-color="#CA1C58"/>
<stop offset="0.81" stop-color="#AD0B57"/>
<stop offset="0.88" stop-color="#9A0057"/>
<stop offset="0.99" stop-color="#9A00AE"/>
</linearGradient>
<linearGradient id="paint9_linear_1590_713" x1="116.436" y1="25.5698" x2="154.567" y2="56.3555" gradientUnits="userSpaceOnUse">
<stop stop-color="#CA528D"/>
<stop offset="1" stop-color="#8E7090"/>
</linearGradient>
<linearGradient id="paint10_linear_1590_713" x1="28.9257" y1="4.02296" x2="156.778" y2="61.0158" gradientUnits="userSpaceOnUse">
<stop stop-color="#CA528D"/>
<stop offset="1" stop-color="#8E7090"/>
</linearGradient>
<linearGradient id="paint11_linear_1590_713" x1="117.03" y1="11.4893" x2="125.094" y2="15.8366" gradientUnits="userSpaceOnUse">
<stop/>
<stop offset="0.1" stop-color="#090503"/>
<stop offset="0.26" stop-color="#21110C"/>
<stop offset="0.47" stop-color="#49251A"/>
<stop offset="0.71" stop-color="#80402D"/>
<stop offset="0.98" stop-color="#C56346"/>
<stop offset="0.99" stop-color="#CA6648"/>
</linearGradient>
<linearGradient id="paint12_linear_1590_713" x1="122.384" y1="18.0369" x2="126.734" y2="20.3746" gradientUnits="userSpaceOnUse">
<stop/>
<stop offset="0.1" stop-color="#090503"/>
<stop offset="0.26" stop-color="#21110C"/>
<stop offset="0.47" stop-color="#49251A"/>
<stop offset="0.71" stop-color="#80402D"/>
<stop offset="0.98" stop-color="#C56346"/>
<stop offset="0.99" stop-color="#CA6648"/>
</linearGradient>
<linearGradient id="paint13_linear_1590_713" x1="121.042" y1="48.803" x2="155.104" y2="33.9207" gradientUnits="userSpaceOnUse">
<stop stop-color="#CA528D"/>
<stop offset="1" stop-color="#8E7090"/>
</linearGradient>
<radialGradient id="paint14_radial_1590_713" cx="0" cy="0" r="1" gradientUnits="userSpaceOnUse" gradientTransform="translate(84.5999 50.8982) scale(19.4051 19.4171)">
<stop offset="0.01" stop-color="#F0E6DB"/>
<stop offset="0.23" stop-color="#EEE3D9"/>
<stop offset="0.42" stop-color="#E7D8D3"/>
<stop offset="0.59" stop-color="#DCC7C8"/>
<stop offset="0.76" stop-color="#CDAEB9"/>
<stop offset="0.82" stop-color="#C7A4B3"/>
<stop offset="0.86" stop-color="#CEA4B4"/>
<stop offset="0.93" stop-color="#E1A3B8"/>
<stop offset="1" stop-color="#FFA2BD"/>
</radialGradient>
<radialGradient id="paint15_radial_1590_713" cx="0" cy="0" r="1" gradientUnits="userSpaceOnUse" gradientTransform="translate(81.5756 45.3573) rotate(-4.31264) scale(14.8718 14.8809)">
<stop offset="0.01" stop-color="#F4D956"/>
<stop offset="0.17" stop-color="#F3D655"/>
<stop offset="0.31" stop-color="#F1CB53"/>
<stop offset="0.44" stop-color="#ECBA4F"/>
<stop offset="0.56" stop-color="#E6A149"/>
<stop offset="0.68" stop-color="#DE8142"/>
<stop offset="0.8" stop-color="#D55A3A"/>
<stop offset="0.82" stop-color="#D35338"/>
<stop offset="0.84" stop-color="#D2523F"/>
<stop offset="0.88" stop-color="#CF5052"/>
<stop offset="0.93" stop-color="#CA4C72"/>
<stop offset="0.98" stop-color="#C3479D"/>
<stop offset="1" stop-color="#BF44B5"/>
</radialGradient>
<radialGradient id="paint16_radial_1590_713" cx="0" cy="0" r="1" gradientUnits="userSpaceOnUse" gradientTransform="translate(116.003 34.8268) scale(66.5846 66.6256)">
<stop offset="0.01" stop-color="#FFE360"/>
<stop offset="0.17" stop-color="#FEE05F"/>
<stop offset="0.31" stop-color="#FCD55D"/>
<stop offset="0.44" stop-color="#F9C459"/>
<stop offset="0.56" stop-color="#F4AB53"/>
<stop offset="0.69" stop-color="#EE8B4C"/>
<stop offset="0.8" stop-color="#E66443"/>
<stop offset="0.82" stop-color="#E55E42"/>
<stop offset="0.84" stop-color="#E35D49"/>
<stop offset="0.88" stop-color="#DF5A5C"/>
<stop offset="0.93" stop-color="#D7567C"/>
<stop offset="0.98" stop-color="#CC4FA7"/>
<stop offset="1" stop-color="#C74CBD"/>
</radialGradient>
<linearGradient id="paint17_linear_1590_713" x1="73.3162" y1="70.1511" x2="73.3982" y2="70.1511" gradientUnits="userSpaceOnUse">
<stop stop-color="#CA528D"/>
<stop offset="1" stop-color="#8E7090"/>
</linearGradient>
<linearGradient id="paint18_linear_1590_713" x1="73.3994" y1="72.5731" x2="84.9481" y2="72.5731" gradientUnits="userSpaceOnUse">
<stop stop-color="#CA528D"/>
<stop offset="1" stop-color="#8E7090"/>
</linearGradient>
<linearGradient id="paint19_linear_1590_713" x1="128.393" y1="-1.68801" x2="197.165" y2="89.5275" gradientUnits="userSpaceOnUse">
<stop offset="0.01" stop-color="#FF3B59"/>
<stop offset="0.22" stop-color="#FC3959"/>
<stop offset="0.39" stop-color="#F23359"/>
<stop offset="0.54" stop-color="#E22A58"/>
<stop offset="0.68" stop-color="#CA1C58"/>
<stop offset="0.81" stop-color="#AD0B57"/>
<stop offset="0.88" stop-color="#9A0057"/>
<stop offset="0.99" stop-color="#9A00AE"/>
</linearGradient>
<linearGradient id="paint20_linear_1590_713" x1="92.1637" y1="50.4663" x2="103.022" y2="63.9677" gradientUnits="userSpaceOnUse">
<stop stop-color="#CA528D"/>
<stop offset="1" stop-color="#8E7090"/>
</linearGradient>
<radialGradient id="paint21_radial_1590_713" cx="0" cy="0" r="1" gradientUnits="userSpaceOnUse" gradientTransform="translate(109.415 55.0111) rotate(-4.31264) scale(25.1488 25.1641)">
<stop offset="0.01" stop-color="#F0E6DB"/>
<stop offset="0.23" stop-color="#EEE3D9"/>
<stop offset="0.42" stop-color="#E7D8D3"/>
<stop offset="0.59" stop-color="#DCC7C8"/>
<stop offset="0.76" stop-color="#CDAEB9"/>
<stop offset="0.82" stop-color="#C7A4B3"/>
<stop offset="0.86" stop-color="#CEA4B4"/>
<stop offset="0.93" stop-color="#E1A3B8"/>
<stop offset="1" stop-color="#FFA2BD"/>
</radialGradient>
<radialGradient id="paint22_radial_1590_713" cx="0" cy="0" r="1" gradientUnits="userSpaceOnUse" gradientTransform="translate(106.27 63.2347) rotate(-4.31264) scale(9.37439 9.3801)">
<stop offset="0.01" stop-color="#F4D956"/>
<stop offset="0.15" stop-color="#F3D555"/>
<stop offset="0.29" stop-color="#F0CA53"/>
<stop offset="0.43" stop-color="#ECB74E"/>
<stop offset="0.56" stop-color="#E59C48"/>
<stop offset="0.69" stop-color="#DD7A41"/>
<stop offset="0.81" stop-color="#D35338"/>
<stop offset="0.84" stop-color="#D2523F"/>
<stop offset="0.88" stop-color="#CF5052"/>
<stop offset="0.92" stop-color="#CA4C72"/>
<stop offset="0.97" stop-color="#C3479D"/>
<stop offset="1" stop-color="#BF44B5"/>
</radialGradient>
<radialGradient id="paint23_radial_1590_713" cx="0" cy="0" r="1" gradientUnits="userSpaceOnUse" gradientTransform="translate(107.353 63.6882) rotate(-4.31264) scale(7.89746 7.90227)">
<stop stop-color="#FF4000"/>
<stop offset="0.25" stop-color="#FD3F00"/>
<stop offset="0.38" stop-color="#F53D00"/>
<stop offset="0.49" stop-color="#E73A00"/>
<stop offset="0.59" stop-color="#D33500"/>
<stop offset="0.68" stop-color="#BA2F00"/>
<stop offset="0.76" stop-color="#9B2700"/>
<stop offset="0.83" stop-color="#751D00"/>
<stop offset="0.9" stop-color="#4A1300"/>
<stop offset="0.97" stop-color="#1B0700"/>
<stop offset="1"/>
</radialGradient>
<radialGradient id="paint24_radial_1590_713" cx="0" cy="0" r="1" gradientUnits="userSpaceOnUse" gradientTransform="translate(109.278 57.2856) rotate(-4.31264) scale(11.4667 11.4737)">
<stop stop-color="#FF4000"/>
<stop offset="0.25" stop-color="#FD3F00"/>
<stop offset="0.38" stop-color="#F53D00"/>
<stop offset="0.49" stop-color="#E73A00"/>
<stop offset="0.59" stop-color="#D33500"/>
<stop offset="0.68" stop-color="#BA2F00"/>
<stop offset="0.76" stop-color="#9B2700"/>
<stop offset="0.83" stop-color="#751D00"/>
<stop offset="0.9" stop-color="#4A1300"/>
<stop offset="0.97" stop-color="#1B0700"/>
<stop offset="1"/>
</radialGradient>
<linearGradient id="paint25_linear_1590_713" x1="106.446" y1="87.885" x2="103.612" y2="101.308" gradientUnits="userSpaceOnUse">
<stop/>
<stop offset="0.1" stop-color="#090503"/>
<stop offset="0.26" stop-color="#21110C"/>
<stop offset="0.47" stop-color="#49251A"/>
<stop offset="0.71" stop-color="#80402D"/>
<stop offset="0.98" stop-color="#C56346"/>
<stop offset="0.99" stop-color="#CA6648"/>
</linearGradient>
<linearGradient id="paint26_linear_1590_713" x1="117.995" y1="98.4748" x2="118.34" y2="102.504" gradientUnits="userSpaceOnUse">
<stop stop-color="#CA528D"/>
<stop offset="1" stop-color="#8E7090"/>
</linearGradient>
<linearGradient id="paint27_linear_1590_713" x1="119.773" y1="117.442" x2="119.863" y2="118.629" gradientUnits="userSpaceOnUse">
<stop stop-color="#CA528D"/>
<stop offset="1" stop-color="#8E7090"/>
</linearGradient>
<linearGradient id="paint28_linear_1590_713" x1="136.415" y1="69.6995" x2="190.215" y2="98.7359" gradientUnits="userSpaceOnUse">
<stop stop-color="#CA528D"/>
<stop offset="1" stop-color="#8E7090"/>
</linearGradient>
<linearGradient id="paint29_linear_1590_713" x1="134.978" y1="40.0813" x2="195.2" y2="72.5626" gradientUnits="userSpaceOnUse">
<stop stop-color="#CA528D"/>
<stop offset="1" stop-color="#8E7090"/>
</linearGradient>
<linearGradient id="paint30_linear_1590_713" x1="151.277" y1="78.2423" x2="89.7522" y2="65.771" gradientUnits="userSpaceOnUse">
<stop/>
<stop offset="0.1" stop-color="#090503"/>
<stop offset="0.26" stop-color="#21110C"/>
<stop offset="0.47" stop-color="#49251A"/>
<stop offset="0.71" stop-color="#80402D"/>
<stop offset="0.98" stop-color="#C56346"/>
<stop offset="0.99" stop-color="#CA6648"/>
</linearGradient>
<radialGradient id="paint31_radial_1590_713" cx="0" cy="0" r="1" gradientUnits="userSpaceOnUse" gradientTransform="translate(93.6053 67.4419) rotate(-4.31264) scale(23.077 23.091)">
<stop offset="0.01" stop-color="#FFE360"/>
<stop offset="0.17" stop-color="#FEE05F"/>
<stop offset="0.31" stop-color="#FCD55D"/>
<stop offset="0.44" stop-color="#F9C459"/>
<stop offset="0.56" stop-color="#F4AB53"/>
<stop offset="0.69" stop-color="#EE8B4C"/>
<stop offset="0.8" stop-color="#E66443"/>
<stop offset="0.82" stop-color="#E55E42"/>
<stop offset="0.84" stop-color="#E35D49"/>
<stop offset="0.88" stop-color="#DF5A5C"/>
<stop offset="0.93" stop-color="#D7567C"/>
<stop offset="0.98" stop-color="#CC4FA7"/>
<stop offset="1" stop-color="#C74CBD"/>
</radialGradient>
<linearGradient id="paint32_linear_1590_713" x1="107.676" y1="81.2964" x2="146.778" y2="122.015" gradientUnits="userSpaceOnUse">
<stop offset="0.01" stop-color="#FF3B59"/>
<stop offset="0.22" stop-color="#FC3959"/>
<stop offset="0.39" stop-color="#F23359"/>
<stop offset="0.54" stop-color="#E22A58"/>
<stop offset="0.68" stop-color="#CA1C58"/>
<stop offset="0.81" stop-color="#AD0B57"/>
<stop offset="0.88" stop-color="#9A0057"/>
<stop offset="0.99" stop-color="#9A00AE"/>
</linearGradient>
<linearGradient id="paint33_linear_1590_713" x1="125.605" y1="68.3038" x2="126.344" y2="137.495" gradientUnits="userSpaceOnUse">
<stop stop-color="#CA528D"/>
<stop offset="1" stop-color="#8E7090"/>
</linearGradient>
<linearGradient id="paint34_linear_1590_713" x1="125.358" y1="84.4983" x2="125.666" y2="114.219" gradientUnits="userSpaceOnUse">
<stop stop-color="#CA528D"/>
<stop offset="1" stop-color="#8E7090"/>
</linearGradient>
<linearGradient id="paint35_linear_1590_713" x1="126.445" y1="94.5969" x2="126.507" y2="99.3998" gradientUnits="userSpaceOnUse">
<stop stop-color="#CA528D"/>
<stop offset="1" stop-color="#8E7090"/>
</linearGradient>
<linearGradient id="paint36_linear_1590_713" x1="129.42" y1="69.7816" x2="130.139" y2="137.331" gradientUnits="userSpaceOnUse">
<stop stop-color="#CA528D"/>
<stop offset="1" stop-color="#8E7090"/>
</linearGradient>
<linearGradient id="paint37_linear_1590_713" x1="126.976" y1="136.33" x2="118.102" y2="80.6422" gradientUnits="userSpaceOnUse">
<stop/>
<stop offset="0.1" stop-color="#090503"/>
<stop offset="0.26" stop-color="#21110C"/>
<stop offset="0.47" stop-color="#49251A"/>
<stop offset="0.71" stop-color="#80402D"/>
<stop offset="0.98" stop-color="#C56346"/>
<stop offset="0.99" stop-color="#CA6648"/>
</linearGradient>
<linearGradient id="paint38_linear_1590_713" x1="120.649" y1="116.224" x2="129.28" y2="106.192" gradientUnits="userSpaceOnUse">
<stop stop-color="#CA528D"/>
<stop offset="1" stop-color="#8E7090"/>
</linearGradient>
<linearGradient id="paint39_linear_1590_713" x1="106.67" y1="60.6272" x2="63.7538" y2="48.8591" gradientUnits="userSpaceOnUse">
<stop/>
<stop offset="0.1" stop-color="#090503"/>
<stop offset="0.26" stop-color="#21110C"/>
<stop offset="0.47" stop-color="#49251A"/>
<stop offset="0.71" stop-color="#80402D"/>
<stop offset="0.98" stop-color="#C56346"/>
<stop offset="0.99" stop-color="#CA6648"/>
</linearGradient>
<linearGradient id="paint40_linear_1590_713" x1="182.823" y1="72.8994" x2="179.455" y2="47.3623" gradientUnits="userSpaceOnUse">
<stop/>
<stop offset="0.1" stop-color="#090503"/>
<stop offset="0.26" stop-color="#21110C"/>
<stop offset="0.47" stop-color="#49251A"/>
<stop offset="0.71" stop-color="#80402D"/>
<stop offset="0.98" stop-color="#C56346"/>
<stop offset="0.99" stop-color="#CA6648"/>
</linearGradient>
<linearGradient id="paint41_linear_1590_713" x1="166.72" y1="54.6622" x2="193.437" y2="72.4757" gradientUnits="userSpaceOnUse">
<stop/>
<stop offset="0.1" stop-color="#090503"/>
<stop offset="0.26" stop-color="#21110C"/>
<stop offset="0.47" stop-color="#49251A"/>
<stop offset="0.71" stop-color="#80402D"/>
<stop offset="0.98" stop-color="#C56346"/>
<stop offset="0.99" stop-color="#CA6648"/>
</linearGradient>
<linearGradient id="paint42_linear_1590_713" x1="171.194" y1="88.9465" x2="180.656" y2="78.7501" gradientUnits="userSpaceOnUse">
<stop/>
<stop offset="0.1" stop-color="#090503"/>
<stop offset="0.26" stop-color="#21110C"/>
<stop offset="0.47" stop-color="#49251A"/>
<stop offset="0.71" stop-color="#80402D"/>
<stop offset="0.98" stop-color="#C56346"/>
<stop offset="0.99" stop-color="#CA6648"/>
</linearGradient>
<linearGradient id="paint43_linear_1590_713" x1="63.0819" y1="85.0115" x2="79.0091" y2="69.894" gradientUnits="userSpaceOnUse">
<stop/>
<stop offset="0.1" stop-color="#090503"/>
<stop offset="0.26" stop-color="#21110C"/>
<stop offset="0.47" stop-color="#49251A"/>
<stop offset="0.71" stop-color="#80402D"/>
<stop offset="0.98" stop-color="#C56346"/>
<stop offset="0.99" stop-color="#CA6648"/>
</linearGradient>
<linearGradient id="paint44_linear_1590_713" x1="70.9991" y1="70.5" x2="198.999" y2="70.5" gradientUnits="userSpaceOnUse">
<stop offset="0.01" stop-color="#1304C5"/>
<stop offset="0.25" stop-color="#0D0387"/>
<stop offset="0.51" stop-color="#07024D"/>
<stop offset="0.73" stop-color="#030123"/>
<stop offset="0.9" stop-color="#01000A"/>
<stop offset="1"/>
</linearGradient>
<clipPath id="clip0_1590_713">
<rect width="128" height="125" fill="white" transform="translate(71 8)"/>
</clipPath>
</defs>
</svg>
