<svg width="144" height="53" viewBox="0 0 144 53" fill="none" xmlns="http://www.w3.org/2000/svg">
<rect width="144" height="53" rx="26.5" fill="white"/>
<path d="M35.4026 36.7955L28.7908 27.7413V36.7955H24V16.2921H28.7908V25.2879L35.3465 16.2921H40.9778L33.3574 26.3394L41.2579 36.7955H35.4026Z" fill="#3775D1"/>
<path d="M52.836 37C50.9869 37 49.2873 36.5522 47.7371 35.6565C46.2055 34.7608 44.9822 33.5146 44.067 31.9179C43.1705 30.3018 42.7222 28.491 42.7222 26.4854C42.7222 24.4798 43.1705 22.6787 44.067 21.0821C44.9822 19.4854 46.2055 18.2392 47.7371 17.3435C49.2873 16.4478 50.9869 16 52.836 16C54.6851 16 56.3754 16.4478 57.9069 17.3435C59.4571 18.2392 60.6712 19.4854 61.549 21.0821C62.4455 22.6787 62.8938 24.4798 62.8938 26.4854C62.8938 28.491 62.4455 30.3018 61.549 31.9179C60.6525 33.5146 59.4385 34.7608 57.9069 35.6565C56.3754 36.5522 54.6851 37 52.836 37ZM52.836 32.4437C54.4049 32.4437 55.6563 31.8985 56.5902 30.8081C57.5427 29.7177 58.019 28.2768 58.019 26.4854C58.019 24.6745 57.5427 23.2337 56.5902 22.1627C55.6563 21.0723 54.4049 20.5271 52.836 20.5271C51.2484 20.5271 49.9784 21.0626 49.0258 22.1335C48.0919 23.2045 47.625 24.6551 47.625 26.4854C47.625 28.2962 48.0919 29.7469 49.0258 30.8373C49.9784 31.9082 51.2484 32.4437 52.836 32.4437Z" fill="#3775D1"/>
<path d="M82.4247 16.2921L75.6168 30.0195V36.7955H70.8261V30.0195L64.0182 16.2921H69.4533L73.2635 24.879L77.0456 16.2921H82.4247Z" fill="#3775D1"/>
<path d="M96.598 33.1739H89.2578L88.0811 36.7955H83.0662L90.1823 16.2921H95.7295L102.846 36.7955H97.7747L96.598 33.1739ZM95.3653 29.3185L92.9279 21.8122L90.5185 29.3185H95.3653Z" fill="#3775D1"/>
<path d="M120 22.8929C120 24.0807 119.739 25.1711 119.216 26.1641C118.693 27.1377 117.889 27.9263 116.806 28.5299C115.723 29.1335 114.378 29.4353 112.772 29.4353H109.802V36.7955H105.011V16.2921H112.772C114.341 16.2921 115.667 16.5744 116.75 17.1391C117.833 17.7038 118.646 18.4826 119.188 19.4757C119.729 20.4687 120 21.6078 120 22.8929ZM112.408 25.4631C113.323 25.4631 114.005 25.2392 114.453 24.7914C114.901 24.3435 115.125 23.7107 115.125 22.8929C115.125 22.0751 114.901 21.4423 114.453 20.9944C114.005 20.5466 113.323 20.3227 112.408 20.3227H109.802V25.4631H112.408Z" fill="#3775D1"/>
</svg>
