<svg width="28" height="21" viewBox="0 0 28 21" fill="none" xmlns="http://www.w3.org/2000/svg">
<path d="M27.4235 19.8068H0.910156V20.9595H27.4235V19.8068Z" fill="#14CDCD"/>
<path d="M27.0222 1.64711C25.0966 0.524849 22.9087 1.121 21.4126 1.81864L16.9527 3.89832L9.2823 0.0404053L4.71435 0.236661L11.0483 6.65795L7.01167 8.5755L2.81191 6.97715L0 8.28829L2.54118 11.4439C2.27271 11.7642 2.02942 12.2151 2.25029 12.6888C2.53876 13.3074 3.3914 13.6191 4.78997 13.6191C5.07678 13.6191 5.38658 13.606 5.71909 13.5797C7.25433 13.4584 8.91879 13.0666 9.95955 12.5813L25.9019 5.14721C27.2788 4.50507 27.9647 3.83083 27.9987 3.0858C28.0164 2.6994 27.8613 2.13599 27.0222 1.64711ZM25.4146 4.10242L9.47234 11.5365C8.58564 11.95 7.12989 12.2965 5.76364 12.4191C4.3672 12.5445 3.62056 12.3871 3.37168 12.2534C3.42292 12.1833 3.5186 12.0731 3.69515 11.9177L4.10921 11.5532L1.82054 8.71123L2.85721 8.22777L7.06147 9.82796L13.0079 7.0032L7.3594 1.27679L9.0321 1.20492L16.9336 5.17897L21.8996 2.86332C23.7133 2.01761 25.2414 1.9436 26.4417 2.64297L26.4417 2.64303C26.7441 2.81923 26.8498 2.97295 26.8471 3.03324C26.847 3.03739 26.8123 3.45076 25.4146 4.10242Z" fill="#14CDCD"/>
</svg>
