<svg width="24" height="24" viewBox="0 0 24 24" fill="none" xmlns="http://www.w3.org/2000/svg">
<g clip-path="url(#clip0_1688_1727)">
<path d="M23.506 19.9771H0.780273V20.9651H23.506V19.9771Z" fill="#E71D36"/>
<path d="M23.1619 4.41184C21.5114 3.44991 19.636 3.96089 18.3537 4.55887L14.5309 6.34145L7.95626 3.03467L4.04087 3.20289L9.46999 8.70685L6.01 10.3505L2.41021 8.98045L0 10.1043L2.17816 12.8091C1.94804 13.0836 1.7395 13.4702 1.92882 13.8762C2.17608 14.4064 2.90691 14.6736 4.10569 14.6735C4.35152 14.6735 4.61707 14.6623 4.90208 14.6398C6.21799 14.5358 7.64467 14.1999 8.53675 13.784L22.2016 7.41193C23.3819 6.86152 23.9698 6.2836 23.9989 5.64501C24.014 5.31381 23.8811 4.83089 23.1619 4.41184ZM21.7839 6.51639L8.11914 12.8885C7.35912 13.2429 6.11133 13.5399 4.94027 13.645C3.74331 13.7524 3.10334 13.6175 2.89001 13.503C2.93393 13.4428 3.01594 13.3484 3.16727 13.2152L3.52218 12.9028L1.56046 10.4668L2.44904 10.0524L6.05269 11.424L11.1496 9.00278L6.30806 4.09443L7.7418 4.03282L14.5145 7.43915L18.7711 5.45431C20.3257 4.72941 21.6355 4.66598 22.6643 5.26544L22.6643 5.26549C22.9235 5.41652 23.0141 5.54828 23.0118 5.59995C23.0117 5.60351 22.982 5.95783 21.7839 6.51639Z" fill="#E71D36"/>
</g>
<defs>
<clipPath id="clip0_1688_1727">
<rect width="24" height="24" fill="white"/>
</clipPath>
</defs>
</svg>
