<svg width="213" height="38" viewBox="0 0 213 38" fill="none" xmlns="http://www.w3.org/2000/svg">
<g clip-path="url(#clip0_1238_1079)">
<path d="M211.897 30.8898V19.3509C211.897 14.506 209.097 12.7983 204.016 12.7983C198.867 12.7983 196.378 14.7853 196.171 18.5158H201.251C201.321 17.5391 201.874 16.8071 204.016 16.8071C205.917 16.8071 206.816 17.4341 206.816 18.3761C206.816 19.2131 206.297 19.5262 205.018 19.6668L201.7 20.0135C197.207 20.5028 195.168 22.3839 195.168 25.8003C195.168 28.9721 197.104 31.4128 201.217 31.4128C204.015 31.4128 205.676 30.5074 207.127 28.6938V30.8898H211.897V30.8898ZM206.919 24.0579C206.919 25.9747 205.122 27.4041 202.357 27.4041C201.009 27.4041 200.214 26.7761 200.214 25.5913C200.214 24.6859 200.768 23.9183 202.53 23.6746L205.537 23.2556C206.055 23.1863 206.609 23.0822 206.919 22.9772V24.0579V24.0579ZM183.486 18.2364C183.486 17.4697 184.144 16.8774 185.872 16.8774C187.634 16.8774 188.187 17.5044 188.36 18.5158H193.441C193.198 14.715 190.642 12.7983 185.872 12.7983C180.722 12.7983 178.268 15.2737 178.268 18.6198C178.268 22.1065 180.48 23.6052 184.317 24.1273L186.148 24.3719C187.946 24.6166 188.637 25.0337 188.637 25.94C188.637 26.9167 187.807 27.4041 185.768 27.4041C183.763 27.4041 182.865 26.7761 182.727 25.4873H177.577C177.681 29.0078 179.789 31.4128 185.768 31.4128C191.263 31.4128 193.856 29.2168 193.856 25.521C193.856 21.8619 191.643 20.4672 187.22 19.8748L185.387 19.6311C183.902 19.4212 183.487 19.0031 183.487 18.2364H183.486ZM170.992 30.8898H176.21V20.6068C176.21 14.82 173.895 12.7983 169.367 12.7983C166.568 12.7983 165.083 13.983 164.357 15.343V13.3203H159.448V30.8889H164.667V20.8515C164.667 18.5167 165.842 17.4707 167.813 17.4707C169.99 17.4707 170.993 18.5167 170.993 20.8515V30.8908L170.992 30.8898ZM152.53 30.8898H157.3V19.3509C157.3 14.506 154.5 12.7983 149.42 12.7983C144.271 12.7983 141.783 14.7853 141.575 18.5158H146.655C146.724 17.5391 147.278 16.8071 149.42 16.8071C151.32 16.8071 152.22 17.4341 152.22 18.3761C152.22 19.2131 151.701 19.5262 150.423 19.6668L147.105 20.0135C142.612 20.5019 140.573 22.3839 140.573 25.8003C140.573 28.9721 142.508 31.4128 146.62 31.4128C149.42 31.4128 151.08 30.5074 152.53 28.6938V30.8898V30.8898ZM152.324 24.0579C152.324 25.9747 150.526 27.4041 147.761 27.4041C146.414 27.4041 145.618 26.7761 145.618 25.5913C145.618 24.6859 146.171 23.9183 147.934 23.6746L150.941 23.2556C151.46 23.1853 152.013 23.0822 152.324 22.9772V24.0579V24.0579ZM133.797 30.8898H139.017V20.6068C139.017 14.82 136.701 12.7983 132.278 12.7983C129.824 12.7983 128.407 13.7393 127.509 15.029V6.5241H122.255V30.8898H127.474V20.8496C127.474 18.5148 128.648 17.4688 130.618 17.4688C132.796 17.4688 133.798 18.5148 133.798 20.8496V30.8889L133.797 30.8898ZM118.235 31.2029C119.515 31.2029 120.724 30.9245 120.724 30.9245V26.7067C120.724 26.7067 119.859 26.8117 119.238 26.8117C117.716 26.8117 116.748 26.3234 116.748 24.4423V17.6084H120.724V13.3213H116.748V8.19715H111.53V13.3213H108.904V17.6084H111.53V25.0346C111.53 29.2861 114.053 31.2029 118.234 31.2029H118.235ZM103.719 17.6084H107.555V13.3213H103.718V12.624C103.718 11.0906 104.584 10.5329 106.208 10.5329C106.831 10.5329 107.555 10.6022 107.555 10.6022V6.34976C107.555 6.34976 106.692 6.14075 105.344 6.14075C101.162 6.14075 98.5013 8.40616 98.5013 12.6586V13.3213H95.8751V17.6084H98.5013V30.8898H103.718V17.6084H103.719ZM89.5837 30.8898H94.4913V13.3213H89.2733V23.3606C89.2733 25.6963 88.0987 26.7414 86.1973 26.7414C84.0887 26.7414 83.086 25.6954 83.086 23.3606V13.3213H77.868V23.6043C77.868 29.3901 80.1838 31.4119 84.6417 31.4119C87.3729 31.4119 88.8579 30.2272 89.5837 28.8671V30.8889V30.8898ZM60.6908 30.8898H76.6934V25.9737H66.2898V6.48942H60.6908V30.8898V30.8898ZM36.4982 18.7017C36.4982 8.56316 28.4057 0.401123 18.3536 0.401123C8.33778 0.401123 0.208984 8.56316 0.208984 18.7017C0.208984 28.8036 8.33778 37.0022 18.3536 37.0022C28.4057 37.0022 36.4982 28.8036 36.4982 18.7017ZM35.1918 18.7017C35.1918 28.0349 27.6437 35.6846 18.3536 35.6846C9.09985 35.6846 1.5154 28.0359 1.5154 18.7017C1.5154 9.33179 9.09985 1.71876 18.3536 1.71876C27.6437 1.71876 35.1918 9.33179 35.1918 18.7017V18.7017ZM24.7768 17.6036C24.3776 17.6036 23.8696 17.6036 23.2164 17.6402L23.6881 16.835H24.4502C27.1719 16.835 29.2041 16.9814 31.0549 17.3108L31.8895 16.5056C29.821 16.1396 27.3171 15.92 24.7768 15.92H24.1599L24.5591 15.1514H25.2486C27.8977 15.1514 30.2928 15.371 32.6153 15.8102L33.4862 14.9684C30.8734 14.4559 28.0791 14.2007 25.0671 14.2007C23.7829 14.2048 22.4994 14.2659 21.2205 14.3837C19.7689 17.5304 17.4464 19.3614 14.8336 19.3248C13.8175 19.2873 12.5464 18.849 10.9143 17.9696L9.39017 17.0912L9.86193 16.652L13.382 18.1892L14.1441 17.6036L7.03136 14.3461L5.94269 15.188L3.40244 14.1265L3.43873 15.188C6.84992 16.7618 8.2652 17.6402 11.8578 20.2389C16.5391 23.6062 20.7124 25.4363 26.5187 26.6075L28.0428 25.1435H27.68C23.8333 25.1435 20.3858 23.8624 18.3899 21.703C20.0592 20.6781 22.1267 20.2033 24.9945 20.2033C25.7566 20.2033 26.8453 20.2755 27.8614 20.3853L28.7323 19.5435C27.3717 19.3762 26.0024 19.2906 24.6317 19.2873C23.7112 19.2858 22.7911 19.3224 21.8737 19.3971L22.5269 18.5919C23.3002 18.5456 24.0747 18.5212 24.8494 18.5187C26.7727 18.5187 28.0428 18.5919 29.4944 18.8115L30.3291 18.0062C28.8049 17.751 26.7001 17.6036 24.7768 17.6036V17.6036Z" fill="white"/>
</g>
<defs>
<clipPath id="clip0_1238_1079">
<rect width="212.006" height="36.6011" fill="white" transform="translate(0.208984 0.401123)"/>
</clipPath>
</defs>
</svg>
