<svg width="343" height="281" viewBox="0 0 343 281" fill="none" xmlns="http://www.w3.org/2000/svg">
<g clip-path="url(#clip0_1260_4545)">
<rect width="343" height="281" fill="#1FEDED"/>
<path d="M66.5117 116.815L204.611 100.649V245.605L77.8779 240.216L66.5117 116.815Z" fill="#17B2B2"/>
<path d="M-47.7188 130.287L90.3806 146.453V291.409H-47.7188V130.287Z" fill="#48E7E7"/>
<ellipse rx="126.793" ry="18.8973" transform="matrix(0.98413 0.177447 -0.196634 0.980477 78.5029 281.783)" fill="#8FF6F6"/>
<rect x="185.676" y="13" width="144.413" height="86.976" rx="16" fill="white"/>
<rect x="136" y="52.1284" width="25.1629" height="17.1" rx="8.55001" fill="white"/>
<rect x="116" y="75" width="16.9576" height="16.0637" rx="8.03183" fill="white"/>
<rect x="165.539" y="39" width="8.20529" height="7.77274" rx="3.88637" fill="white"/>
<rect x="215.76" y="22.8467" width="86.976" height="6.56423" rx="3.28211" fill="#2B69C5"/>
<rect x="215.76" y="80.2834" width="50.3257" height="6.56423" rx="3.28211" fill="#2B69C5"/>
<rect x="215.76" y="51.8384" width="86.976" height="6.56423" rx="3.28211" fill="#FDAB5F"/>
<rect x="215.76" y="32.6929" width="50.3257" height="6.56423" rx="3.28211" fill="#2B69C5"/>
<rect x="258.975" y="61.6851" width="43.7615" height="6.56423" rx="3.28211" fill="#FDAB5F"/>
<rect x="194.973" y="22.8203" width="16.4106" height="16.4106" rx="8.20529" fill="#2B69C5"/>
<path d="M201.744 31.8619C202.86 33.2409 205.58 34.5625 206.237 34.2656C206.894 33.9688 207.034 33.3271 207.006 33.0303C206.978 32.7334 205.487 31.8236 205.111 31.6512C204.736 31.4788 204.305 32.0342 204.098 32.2736C203.883 32.5035 203.057 31.8044 202.701 31.45C202.701 31.45 201.763 30.3775 201.978 30.1476C202.194 29.9177 202.729 29.4581 202.541 29.0846C202.354 28.7111 201.406 27.2171 201.106 27.1979C200.815 27.1788 200.196 27.3512 199.933 28.0311C199.671 28.7111 200.928 31.3064 202.325 32.3886" fill="white"/>
<rect x="194.973" y="75.3601" width="16.4106" height="16.4106" rx="8.20529" fill="#2B69C5"/>
<path d="M201.744 84.4017C202.86 85.7807 205.58 87.1023 206.237 86.8054C206.894 86.5086 207.034 85.8669 207.006 85.5701C206.978 85.2732 205.487 84.3634 205.111 84.191C204.736 84.0186 204.305 84.574 204.098 84.8134C203.883 85.0433 203.057 84.3442 202.701 83.9898C202.701 83.9898 201.763 82.9173 201.978 82.6874C202.194 82.4575 202.729 81.9979 202.541 81.6244C202.354 81.2509 201.406 79.7569 201.106 79.7377C200.815 79.7186 200.196 79.891 199.933 80.5709C199.671 81.2509 200.928 83.8462 202.325 84.9283" fill="white"/>
<rect x="307.111" y="51.8384" width="16.4106" height="16.4106" rx="8.20529" fill="#FDAB5F"/>
<path d="M313.882 60.8799C314.999 62.259 317.719 63.5806 318.376 63.2837C319.032 62.9868 319.173 62.3452 319.145 62.0483C319.117 61.7515 317.625 60.8417 317.25 60.6693C316.875 60.4969 316.443 61.0523 316.237 61.2917C316.021 61.5216 315.196 60.8224 314.839 60.4681C314.839 60.4681 313.901 59.3955 314.117 59.1657C314.333 58.9358 314.867 58.4761 314.68 58.1026C314.492 57.7292 313.545 56.2352 313.245 56.216C312.954 56.1968 312.335 56.3692 312.072 57.0492C311.809 57.7292 313.066 60.3244 314.464 61.4066" fill="white"/>
<path d="M99.3019 168.201C100.24 170.936 104.951 175.922 109.535 180.294H109.57C114.275 184.782 118.816 188.6 118.816 188.6C118.816 188.6 127.441 198.122 129.718 197.257C131.995 196.391 129.918 182.242 129.918 182.242C129.918 182.242 128.58 179.039 128.58 177.048C128.58 175.057 136.249 144.819 136.249 144.819C136.249 144.819 131.561 111.058 130.07 111.058C128.58 111.058 126.303 112.028 126.303 112.028L102 130.159C102 130.159 100.158 143.092 99.2889 154.017C98.7848 160.44 98.6023 166.149 99.3019 168.201Z" fill="url(#paint0_linear_1260_4545)"/>
<path style="mix-blend-mode:multiply" opacity="0.91" fill-rule="evenodd" clip-rule="evenodd" d="M99.3019 168.2C100.24 170.936 104.951 175.922 109.535 180.293L104.203 174.909L121.024 171.174L131.504 147.273L127.116 131.959L111.512 146.013L99.2889 154.055C98.7848 160.439 98.6023 166.148 99.3019 168.2Z" fill="url(#paint1_linear_1260_4545)"/>
<path d="M128.575 177.073C128.575 177.073 122.439 175.398 121.401 169.282C120.362 163.167 130.5 148.567 130.5 148.567V146.568C130.5 146.568 127.219 137.279 128.066 131.094L129.605 126.952L138.113 149.892C138.113 149.892 130.039 167.936 128.575 177.073Z" fill="url(#paint2_linear_1260_4545)"/>
<path fill-rule="evenodd" clip-rule="evenodd" d="M75.2167 282H128.302C126.421 280.386 125.291 279.481 125.291 279.481L75.082 276.594L75.5817 281.385C75.5817 281.385 75.4557 281.602 75.2167 282Z" fill="url(#paint3_linear_1260_4545)"/>
<path fill-rule="evenodd" clip-rule="evenodd" d="M103.188 105.249L103.109 105.566L100.5 119.198L99.9945 121.923L99.918 122.363L97.5162 134.809L96.1949 141.711L95.9975 142.798L94.7197 149.431L92.6938 160.022L92.7183 160.071L93.7303 161.833L97.0366 162.187L107.455 163.312L113.687 163.959L121.727 164.831L121.784 164.71L121.76 164.66L123.44 156.344L124.379 151.643L124.436 151.522L125.307 147.039L125.282 146.989L125.617 145.525C125.617 145.525 125.57 145.548 125.592 145.475L127.547 135.693L127.523 135.643L128.046 133.312C128.021 133.262 128.021 133.262 128.021 133.262L128.475 131.089L128.451 131.039L129.379 126.436L131.002 118.241L131.08 117.924C131.08 117.924 131.08 117.924 131.103 117.851L131.257 117.032L131.977 113.614L132.263 112.111L132.617 110.328L132.462 109.538L131.918 107.299L131.633 107.315L127.128 106.963L125.69 106.897L123.931 106.772L119.616 106.45L116.822 106.246L111.687 105.864L106.991 105.482L106.849 105.49L103.188 105.249Z" fill="url(#paint4_linear_1260_4545)"/>
<path fill-rule="evenodd" clip-rule="evenodd" d="M131.658 107.363L131.637 107.559L131.172 109.769L130.698 112.2L130.722 112.249L130.291 114.35L129.716 117.17L129.551 118.087L128.081 125.34L127.208 129.7L126.458 133.535L126.216 134.769L125.939 136.112L124.666 142.278L124.124 144.927L123.96 145.844L122.325 154.014L122.248 154.454L120.614 162.624L115.798 162.177L110.268 161.648L97.9266 160.54L92.73 160.033L93.742 161.795L97.0483 162.149L107.467 163.274L113.699 163.922L121.739 164.794L121.796 164.672L121.772 164.623L123.464 156.331L123.439 156.282L124.378 151.58L124.436 151.459L125.306 146.976L125.282 146.926L125.616 145.462C125.616 145.462 125.569 145.485 125.592 145.412L127.547 135.63L128.045 133.249C128.021 133.2 128.021 133.2 128.021 133.2L128.475 131.026L128.45 130.977L129.379 126.373L131.001 118.178L131.08 117.861C131.08 117.861 131.08 117.861 131.102 117.788L131.256 116.969L131.977 113.551L132.263 112.048L132.616 110.265L132.462 109.475L131.918 107.236L131.658 107.363Z" fill="url(#paint5_linear_1260_4545)"/>
<path fill-rule="evenodd" clip-rule="evenodd" d="M94.0795 158.562L119.196 161.121L129.348 110.478L118.398 109.521L103.655 108.234L94.6727 155.361L94.0795 158.562Z" fill="url(#paint6_linear_1260_4545)"/>
<path fill-rule="evenodd" clip-rule="evenodd" d="M116.525 108.62C116.858 108.642 117.151 108.405 117.181 108.049L117.19 107.829C117.197 107.485 116.954 107.171 116.609 107.124C116.277 107.102 115.983 107.339 115.953 107.694L115.944 107.915C115.914 108.271 116.192 108.598 116.525 108.62Z" fill="url(#paint7_linear_1260_4545)"/>
<path opacity="0.13" fill-rule="evenodd" clip-rule="evenodd" d="M94.675 155.361C101.51 148.718 112.355 123.668 118.377 109.533L103.646 108.27L94.675 155.361Z" fill="url(#paint8_linear_1260_4545)"/>
<g style="mix-blend-mode:multiply" opacity="0.5">
<path fill-rule="evenodd" clip-rule="evenodd" d="M73.9844 282H127.665C125.545 280.17 124.254 279.139 124.254 279.139L74.0452 276.252L74.5492 281.04C74.5492 281.04 74.345 281.386 73.9844 282Z" fill="#523E7A"/>
</g>
<path d="M94.3797 178.16L64.0949 186.782L69.3648 259.356L47.2364 257.116L33.8101 195.405L26.625 121.104L52.4051 82.2227L70.7332 73.5315L95.327 77.6391C95.327 77.6391 107.65 100.081 105.638 126.951C103.626 153.822 98.5816 173.97 94.3797 178.16Z" fill="url(#paint9_linear_1260_4545)"/>
<path d="M47.5723 146.014C47.5723 146.014 51.2744 164.093 49.7927 176.312C49.7927 176.312 71.5839 196.33 80.6784 196.33C89.7729 196.33 85.1235 179.052 85.1235 179.052C85.1235 179.052 75.7248 175.918 71.8142 171.997C67.9035 168.075 66.9606 156.982 66.9606 156.982L47.5723 146.014Z" fill="url(#paint10_linear_1260_4545)"/>
<path d="M45.7797 141.581C46.0491 142.447 46.3012 143.282 46.5315 144.018C48.678 150.714 66.0632 158.894 76.1614 162.158C76.5612 162.275 76.9479 162.392 77.3172 162.509C78.3938 162.8 79.4903 163.012 80.5979 163.145C82.9443 163.478 85.5384 163.625 86.3596 163.361C87.6327 162.928 90.2312 158.037 93.3119 155.003C96.3927 151.969 103.228 143.776 103.228 138.802C103.228 136.301 102.237 133.609 101.233 131.081C100.229 128.553 99.2388 126.242 99.1736 124.424C98.8694 116.101 102.289 105.306 102.289 102.782C102.289 102.116 101.75 100.094 100.629 97.4109C100.464 97.0084 100.277 96.5756 100.095 96.1124C100.095 96.1124 100.095 96.0778 100.06 96.0648C96.6447 88.5206 89.3578 77.0895 77.717 73.6918C71.9429 72.6858 66.0164 72.9711 60.3666 74.5272L46.5315 93.4419C46.5315 93.4419 43.3855 117.066 45.5103 125.61C46.7817 130.849 46.8737 136.303 45.7797 141.581Z" fill="url(#paint11_linear_1260_4545)"/>
<path style="mix-blend-mode:multiply" opacity="0.8" fill-rule="evenodd" clip-rule="evenodd" d="M45.7765 141.581C46.0459 142.447 46.2979 143.282 46.5282 144.018C48.6747 150.714 66.0599 158.894 76.1581 162.158L80.5946 163.145C80.5946 163.145 59.4682 154.999 55.3011 140.716C51.573 127.986 57.2869 118.914 57.2869 118.914C65.9469 124.203 78.5784 125.9 78.5784 125.9C79.9689 119.745 78.5784 96.7876 78.5784 96.7876L63.8047 100.142C64.7954 93.7189 68.2107 85.6942 68.2107 85.6942C77.3965 79.2147 85.37 80.985 85.37 80.985C92.8394 84.0581 98.2318 92.8316 100.022 96.0865C96.6414 88.5206 89.3545 77.0895 77.7137 73.6918C71.9396 72.6858 66.0131 72.9711 60.3633 74.5272L46.5282 93.4419C46.5282 93.4419 43.3214 118.412 45.4506 126.952C47.5797 135.491 45.7765 141.581 45.7765 141.581Z" fill="url(#paint12_linear_1260_4545)"/>
<path d="M16.2865 145.996L16.3691 147.598L16.6385 153.155L16.6863 154.19C17.5249 170.854 18.5938 188.323 19.1674 197.161C19.2152 198.096 19.2673 198.892 19.3151 199.65L22.3713 259.356L38.4905 254.13V223.523V118.767C38.4905 118.767 57.8701 97.0821 61.1203 91.8578C63.3451 88.3432 67.4686 81.682 69.8933 77.7952C70.4799 76.8776 70.7971 76.3452 70.7971 76.3452C71.4184 75.3454 71.7878 74.7437 71.7878 74.7437C71.7878 74.7437 83.811 76.0768 86.0227 77.8298C86.0227 77.8298 99.4059 88.0229 102.252 102.769C105.098 117.516 106.119 150.814 94.3785 178.16H98.1805C98.1805 178.16 109.617 138.335 106.141 110.508C102.665 82.6818 93.844 71.2075 91.8018 69.1559C89.7595 67.1043 73.1782 71.2724 65.2396 72.3285C57.3009 73.3846 42.701 74.5273 35.9312 77.912C29.1613 81.2968 17.2077 106.99 15.7303 114.564C15.1785 117.416 15.5826 130.613 16.2865 145.996Z" fill="url(#paint13_linear_1260_4545)"/>
<path d="M52.4079 102.813C52.4079 102.813 47.5717 115.728 47.5717 125.844L46.5289 126.952C46.5289 126.952 42.2184 122.472 38.4902 118.763L52.4079 102.813Z" fill="url(#paint14_linear_1260_4545)"/>
<path fill-rule="evenodd" clip-rule="evenodd" d="M98.4863 177.073L99.7073 189.92L99.9898 193.006L100.559 199.027L123.089 225.252C123.089 225.252 125.018 226.589 127.899 228.554C135.112 233.463 148.291 242.301 152.636 244.223C158.663 246.906 169.096 248.893 169.096 248.893L129.285 198.395C125.631 196.741 120.825 193.707 116.119 190.435C107.142 184.181 98.4863 177.073 98.4863 177.073Z" fill="#2B3579"/>
<path fill-rule="evenodd" clip-rule="evenodd" d="M118.834 188.634C119.016 188.885 120.907 191.387 123.614 195.023C129.845 203.48 140.312 218.045 143.258 224.455C143.258 224.455 151.666 239.301 162.451 246.261C162.451 246.261 172.819 250.897 177.794 250.897C179.684 250.897 184.49 232.38 176.703 217.634C175.819 215.91 174.765 214.278 173.557 212.76C173.557 212.76 137.54 191.906 129.919 182.267C129.919 182.267 130.071 190.859 128.059 192.859C126.047 194.858 119.234 188.968 118.834 188.634Z" fill="url(#paint15_linear_1260_4545)"/>
<path d="M102.058 101.826L97.6037 104.033L92.6328 111.517C92.6328 111.517 95.8743 101.086 100.68 97.3027C100.68 97.3027 102.058 98.8609 102.058 101.826Z" fill="url(#paint16_linear_1260_4545)"/>
<path d="M102.058 101.826L97.6037 104.033L92.6328 111.517C92.6328 111.517 95.8743 101.086 100.68 97.3027C100.68 97.3027 102.058 98.8609 102.058 101.826Z" fill="url(#paint17_linear_1260_4545)"/>
<path d="M78.5735 96.792L75.445 102.994V101.696C75.445 101.696 65.7117 102.189 63.2784 102.994C60.8451 103.8 57.5645 105.929 57.5645 105.929C57.5645 105.929 61.9835 100.99 63.7738 100.146C65.564 99.3024 78.5735 96.792 78.5735 96.792Z" fill="url(#paint18_linear_1260_4545)"/>
<path d="M78.5735 96.792L75.445 102.994V101.696C75.445 101.696 65.7117 102.189 63.2784 102.994C60.8451 103.8 57.5645 105.929 57.5645 105.929C57.5645 105.929 61.9835 100.99 63.7738 100.146C65.564 99.3024 78.5735 96.792 78.5735 96.792Z" fill="url(#paint19_linear_1260_4545)"/>
<path d="M59.4785 116.477L59.913 118.75C59.913 118.75 66.7785 124.472 76.1424 122.9C76.1424 122.9 76.2945 122.217 76.4292 121.134C76.7464 118.382 76.9984 112.976 74.5694 109.206C73.5876 109.072 72.5958 109.028 71.606 109.071C69.3591 109.102 67.1507 109.656 65.1577 110.69C62.7119 111.991 60.7286 114.012 59.4785 116.477Z" fill="url(#paint20_linear_1260_4545)"/>
<path d="M90.8828 122.056C90.8828 123.355 93.4291 126.891 95.1194 127.51C96.8097 128.129 98.8345 127.51 98.8345 127.51L98.9388 126.458C99.4907 120.251 99.4559 113.681 99.4559 113.681C98.7129 113.614 97.9646 113.636 97.2268 113.746C95.9648 113.888 94.7808 114.426 93.8462 115.282C92.8251 116.317 90.8828 120.736 90.8828 122.056Z" fill="url(#paint21_linear_1260_4545)"/>
<path d="M68.9082 114.949C68.9082 118.702 71.285 121.736 74.218 121.736C74.9921 121.734 75.7508 121.522 76.4124 121.121C76.7296 118.368 76.9816 112.962 74.5526 109.192C73.5709 109.059 72.579 109.014 71.5892 109.058C69.9815 110.21 68.9082 112.43 68.9082 114.949Z" fill="url(#paint22_linear_1260_4545)"/>
<path d="M70.7969 115.062C70.7969 117.84 72.535 120.087 74.7076 120.087C75.2787 120.092 75.8405 119.943 76.3327 119.654C76.5673 117.615 76.7672 113.594 74.9552 110.824C74.2354 110.727 73.5084 110.693 72.7826 110.725C71.5877 111.556 70.7969 113.2 70.7969 115.062Z" fill="#522F30"/>
<path d="M95.5527 119.684C95.5527 123.437 97.0084 126.476 98.8334 126.476C98.8676 126.484 98.9034 126.484 98.9377 126.476C99.4895 120.269 100.15 113.698 100.15 113.698C99.1752 113.634 98.1966 113.656 97.2256 113.763C96.2219 114.915 95.5527 117.135 95.5527 119.684Z" fill="url(#paint23_linear_1260_4545)"/>
<path d="M96.7285 119.507C96.7285 122.069 97.7236 124.143 98.9706 124.143C98.9934 124.149 99.0174 124.149 99.0402 124.143C99.4182 119.905 99.8701 115.417 99.8701 115.417C99.2053 115.372 98.5378 115.386 97.8757 115.46C97.1891 116.261 96.7285 117.776 96.7285 119.507Z" fill="#522F30"/>
<path fill-rule="evenodd" clip-rule="evenodd" d="M76.3257 121.736V123.16L76.4995 124.406C76.4995 124.406 66.9401 124.341 59.8965 118.736C59.8965 118.736 65.3845 122.887 76.1258 122.887L76.3257 121.736Z" fill="#D2726C"/>
<path fill-rule="evenodd" clip-rule="evenodd" d="M98.9376 126.458L99.0853 128.644C97.3731 128.614 95.7089 128.076 94.305 127.099C92.9011 126.122 91.8212 124.751 91.2031 123.16C91.2031 123.16 92.6327 126.952 98.464 127.385L98.9376 126.458Z" fill="#D2726C"/>
<path d="M76.065 112.885L79.5151 110.288H76.2128L75.2351 107.435C75.2351 107.435 63.8637 107.089 59.4707 116.477C59.4707 116.477 63.7551 109.734 74.8614 109.734C75.3801 110.736 75.7838 111.793 76.065 112.885Z" fill="#522F30"/>
<path d="M99.4207 117.152L102.575 115.044H100.998L100.663 111.517C98.3012 111.513 96.0155 112.352 94.2195 113.88C91.6124 116.126 90.8867 121.758 90.8867 121.758C91.3338 119.177 92.6951 116.841 94.7235 115.174C96.6398 113.638 99.4641 113.703 99.4641 113.703L99.4207 117.152Z" fill="#522F30"/>
<path d="M67.5586 116.105C67.5595 116.37 67.6392 116.629 67.7877 116.849C67.9363 117.069 68.1469 117.241 68.3931 117.341C68.6393 117.442 68.9101 117.468 69.1711 117.416C69.4321 117.364 69.6717 117.236 69.8596 117.048C70.0476 116.86 70.1754 116.621 70.2271 116.361C70.2787 116.101 70.2518 115.831 70.1497 115.586C70.0476 115.341 69.8749 115.132 69.6535 114.985C69.4321 114.837 69.1718 114.759 68.9056 114.759C68.7284 114.759 68.5528 114.794 68.3891 114.861C68.2254 114.929 68.0767 115.028 67.9516 115.153C67.8265 115.278 67.7273 115.427 67.6599 115.59C67.5924 115.753 67.558 115.928 67.5586 116.105Z" fill="#F5F5F5"/>
<path d="M93.9727 120.087C93.9727 120.317 94.0412 120.543 94.1696 120.734C94.2981 120.925 94.4806 121.075 94.6942 121.163C94.9078 121.251 95.1428 121.274 95.3695 121.229C95.5963 121.184 95.8045 121.073 95.968 120.91C96.1315 120.748 96.2428 120.54 96.2879 120.314C96.333 120.088 96.3099 119.854 96.2214 119.642C96.1329 119.429 95.9831 119.247 95.7909 119.119C95.5987 118.991 95.3727 118.923 95.1415 118.923C94.8315 118.923 94.5342 119.046 94.315 119.264C94.0958 119.482 93.9727 119.778 93.9727 120.087Z" fill="#F5F5F5"/>
<path fill-rule="evenodd" clip-rule="evenodd" d="M97.852 134.167C95.1572 134.55 92.4213 134.55 89.7265 134.167C85.1771 133.535 85.3813 132.696 85.3813 132.696L80.6016 133.959L83.2434 134.449C83.2434 134.449 86.5067 138.067 89.2398 138.595C89.1964 138.595 94.7104 137.773 97.852 134.167Z" fill="#D2726C"/>
<path d="M85.3679 136.469C85.3679 136.469 83.7471 133.591 83.217 133.591C82.5624 133.691 81.9201 133.859 81.3008 134.093C81.3008 134.093 83.8688 134.976 85.3679 136.469Z" fill="#A64A4C"/>
<g style="mix-blend-mode:soft-light" opacity="0.6">
<path d="M71.8145 74.7439L64.0279 74.0601C64.0279 74.0601 42.7799 95.0956 33.668 117.456L38.4911 118.776C38.4911 118.776 63.3327 93.0786 71.8145 74.7439Z" fill="#FFF1B6"/>
</g>
<g style="mix-blend-mode:soft-light" opacity="0.6">
<path d="M38.4335 140.439L38.49 182.921L28.1875 193.144L34.8791 137.417L38.4335 140.439Z" fill="#FFF1B6"/>
</g>
<path fill-rule="evenodd" clip-rule="evenodd" d="M90.7227 147.113C91.1286 148.904 91.1286 150.763 90.7227 152.554C90.7227 152.554 84.3483 151.779 81.2588 149.87C77.4133 147.498 73.4766 139.811 73.4766 139.811C73.4766 139.811 79.0124 144.282 80.694 144.802C82.3755 145.321 90.7227 147.113 90.7227 147.113Z" fill="#D2726C"/>
<path fill-rule="evenodd" clip-rule="evenodd" d="M90.9834 148.381C90.9834 148.381 92.6302 145.299 92.6302 144.408C90.5342 143.739 88.384 143.253 86.2037 142.953C83.0621 142.581 79.4252 142.741 78.2259 142.495C77.0266 142.248 73.4766 139.811 73.4766 139.811C73.4766 139.811 76.918 143.386 80.694 144.802C82.9361 145.641 90.7227 147.113 90.7227 147.113L90.9834 148.381Z" fill="#B14D63"/>
<path style="mix-blend-mode:multiply" opacity="0.5" fill-rule="evenodd" clip-rule="evenodd" d="M76.8519 139.447C76.8519 139.447 71.6376 139.729 70.2559 141.114C71.3009 139.715 72.8202 138.741 74.5315 138.374L76.8519 139.447Z" fill="url(#paint24_linear_1260_4545)"/>
<path style="mix-blend-mode:multiply" opacity="0.8" fill-rule="evenodd" clip-rule="evenodd" d="M92.6369 111.513C91.1071 115.23 90.142 119.154 89.7734 123.156C93.8275 130.747 101.197 131.081 101.197 131.081C100.211 128.579 99.2025 126.242 99.1374 124.424C98.8332 116.101 102.253 105.306 102.253 102.782C102.253 102.116 101.714 100.094 100.593 97.4109C99.9586 98.3328 95.0485 105.488 92.6369 111.513Z" fill="url(#paint25_linear_1260_4545)"/>
<path style="mix-blend-mode:multiply" opacity="0.91" fill-rule="evenodd" clip-rule="evenodd" d="M67.1387 158.709L68.3988 165.045C68.3988 165.045 54.1205 163.262 47.8069 147.23L47.5723 146.014C47.5723 146.014 53.9163 153.584 67.1387 158.709Z" fill="url(#paint26_linear_1260_4545)"/>
<path fill-rule="evenodd" clip-rule="evenodd" d="M71.8125 74.7437C71.8125 74.7437 88.5415 74.1117 92.6695 75.3756C96.7974 76.6395 101.69 100.229 101.69 100.229C101.69 100.229 92.1741 82.0499 87.2554 78.8166C82.3366 75.5834 71.8125 74.7437 71.8125 74.7437Z" fill="url(#paint27_linear_1260_4545)"/>
<g style="mix-blend-mode:multiply" opacity="0.5">
<path fill-rule="evenodd" clip-rule="evenodd" d="M16.2852 145.996L16.3677 147.598L16.6371 153.155L16.6849 154.19L24.7235 130.181L24.5584 139.794L19.0617 195.46L19.166 197.192L19.3138 199.68L19.531 203.082L28.9427 142.841L32.8143 144.092L25.019 196.335L28.1867 193.145L38.4891 147.079V118.767C38.4891 118.767 57.8687 97.0823 61.119 91.8581C63.3437 88.3435 67.4673 81.6822 69.8919 77.7954C67.4673 81.6173 60.4324 92.239 52.4068 100.233C42.4433 110.158 35.5083 114.88 35.5083 114.88V112.063L55.657 81.4182L33.5356 110.695L28.2084 116.101L29.412 107.388L32.0409 97.381C30.4027 103.493 22.6292 131.865 16.2852 145.996Z" fill="url(#paint28_linear_1260_4545)" style="mix-blend-mode:multiply"/>
<path fill-rule="evenodd" clip-rule="evenodd" d="M16.2852 145.996L16.3677 147.598L16.6371 153.155L16.6849 154.19L24.7235 130.181L24.5584 139.794L19.0617 195.46L19.166 197.192L19.3138 199.68L19.531 203.082L28.9427 142.841L32.8143 144.092L25.019 196.335L28.1867 193.145L38.4891 147.079V118.767C38.4891 118.767 57.8687 97.0823 61.119 91.8581C63.3437 88.3435 67.4673 81.6822 69.8919 77.7954C67.4673 81.6173 60.4324 92.239 52.4068 100.233C42.4433 110.158 35.5083 114.88 35.5083 114.88V112.063L55.657 81.4182L33.5356 110.695L28.2084 116.101L29.412 107.388L32.0409 97.381C30.4027 103.493 22.6292 131.865 16.2852 145.996Z" fill="url(#paint29_linear_1260_4545)"/>
</g>
<path d="M47.5706 139.755C47.5706 139.755 44.555 143.217 42.969 143.217C41.383 143.217 31.6367 135.037 30.7503 133.102C27.9998 127.095 30.255 118.784 30.7503 118.291C31.2457 117.797 35.2737 117.139 35.2737 117.139C35.2737 117.139 42.4128 119.827 45.5066 125.597C45.5066 125.61 47.5706 133.492 47.5706 139.755Z" fill="url(#paint30_linear_1260_4545)"/>
<path style="mix-blend-mode:multiply" opacity="0.8" fill-rule="evenodd" clip-rule="evenodd" d="M43.1753 132.695C43.1753 132.695 40.4812 123.372 34.7673 120.71C34.7673 120.71 31.1738 124.259 31.1738 126.476C31.1738 128.692 32.6512 133.591 32.6512 133.591L39.2211 138.374C39.2211 138.374 34.5674 134.591 33.5072 132.695C32.447 130.799 32.3427 126.532 32.3427 126.532L34.6196 124.74C34.0626 126.286 34.026 127.971 34.5153 129.54C35.3061 132.323 40.4117 136.465 40.4117 136.465H42.0759C42.0759 136.465 39.6774 131.808 40.4117 131.072C41.1461 130.336 43.1753 132.695 43.1753 132.695Z" fill="url(#paint31_linear_1260_4545)"/>
<g style="mix-blend-mode:soft-light" opacity="0.6">
<path d="M62.2073 74.0601L54.0209 83.0673V80.7473L36.3533 82.1194L31.1738 82.5522C32.6449 80.615 34.4467 78.9506 36.4967 77.6352C39.6557 75.7438 62.2073 74.0601 62.2073 74.0601Z" fill="#FFF1B6"/>
</g>
<g style="mix-blend-mode:soft-light" opacity="0.6">
<path d="M71.8129 74.7435C71.8129 74.7435 90.4061 74.1332 93.1522 75.6481C95.8984 77.163 104.219 98.9603 104.219 98.9603C104.219 98.9603 98.5664 72.1898 90.8797 68C90.8797 68 77.5356 68.7575 65.873 73.5316L71.8129 74.7435Z" fill="#FFF1B6"/>
</g>
<path fill-rule="evenodd" clip-rule="evenodd" d="M-8.30431 258.385C-3.69839 264.631 3.42774 273.911 10.7538 282H44.0554C45.1881 278.869 46.016 275.637 46.5278 272.348C48.8395 257.333 46.5278 236.748 46.5278 236.748L49.161 231.891C49.161 231.891 50.4342 233.393 52.4938 236.099C57.4473 242.639 66.9459 256.234 73.9113 272.664L72.3209 274.395L78.9865 281.52C78.9865 281.52 79.2298 281.697 79.6687 281.996H122.843C123.733 280.649 124.355 279.144 124.676 277.564C124.676 277.564 125.949 270.457 125.159 269.656C124.368 268.855 118.897 269.106 118.897 269.106C119.149 268.375 126.684 246.837 127.892 228.567C128.167 224.939 128.093 221.292 127.67 217.677L113.418 205.558L110.537 203.104L109.703 201.805L103.185 191.53L98.4834 177.074C98.4834 177.074 87.3944 176.541 79.0212 174.606C76.1751 173.953 73.6462 173.139 71.969 172.118L72.0385 172.187L79.5253 177.273C82.2793 182.063 83.4228 187.605 82.7885 193.088C82.7669 193.091 82.745 193.091 82.7234 193.088C81.3981 192.725 60.0805 186.596 49.7954 176.342L50.13 171.321V171.204C50.13 171.204 48.8264 172.537 46.6799 174.667C43.3645 178.021 38.0547 183.376 32.7752 188.647C29.2078 192.201 26.7789 194.556 25.0886 196.257C22.677 198.706 21.7906 199.845 21.2387 201.412C20.3002 204.065 23.2462 223.33 24.0023 230.29C24.7583 237.25 22.6292 252.109 22.6292 252.109C22.6292 252.109 20.4001 250.841 19.127 252.109C19.127 252.109 3.40167 245.002 -4.63696 238.929C-5.58078 238.234 -6.47648 237.476 -7.31795 236.661C-7.31795 236.661 -5.25832 252.944 -7.31795 254.996C-8.94305 256.615 -11.8891 253.265 -13.0449 251.828C-12.3106 252.892 -10.616 255.264 -8.30431 258.415V258.385Z" fill="url(#paint32_linear_1260_4545)"/>
<path fill-rule="evenodd" clip-rule="evenodd" d="M44.7207 177.891C44.7207 177.891 63.4312 195.707 83.0584 198.234L82.789 193.088H82.7238C81.4985 192.655 61.7539 185.829 50.1131 174.234V171.317V168.962L46.663 174.667L44.7207 177.891Z" fill="url(#paint33_linear_1260_4545)"/>
<path fill-rule="evenodd" clip-rule="evenodd" d="M70.75 170.65C71.0981 171.175 71.5017 171.661 71.9536 172.1L72.0232 172.17C73.4549 173.511 75.0807 174.63 76.8463 175.489C82.3387 182.644 82.7906 193.088 82.7906 193.088L89.7733 197.343C89.7733 182.813 79.0233 174.624 79.0233 174.624L70.75 170.65Z" fill="url(#paint34_linear_1260_4545)"/>
<path fill-rule="evenodd" clip-rule="evenodd" d="M129.917 182.267L133.78 186.163C133.78 186.163 130.973 196.027 129.721 197.274C128.47 198.52 122.682 193.789 122.682 193.789L118.811 188.617C118.811 188.617 124.025 192.227 127.101 192.227C127.101 192.222 129.917 189.625 129.917 182.267Z" fill="url(#paint35_linear_1260_4545)"/>
<path d="M129.917 182.267C129.917 182.267 129.678 190.573 125.528 191.275C123.043 191.707 118.811 188.626 118.811 188.626C118.811 188.626 123.412 192.222 127.101 192.222C127.101 192.222 129.721 192.222 129.917 182.267Z" fill="#A64A4C"/>
<g style="mix-blend-mode:multiply" opacity="0.6">
<path fill-rule="evenodd" clip-rule="evenodd" d="M25.0312 196.325L44.7237 198.226L79.5114 209.289L102.571 214.976C90.4613 211.189 74.7621 200.961 74.7621 200.961L100.568 199.026L110.562 203.082L100.164 193.127L99.9947 192.993L91.8909 186.418L99.7123 189.907L103.188 191.473L109.706 201.749L113.421 205.523L116.137 190.435C107.143 184.18 98.4869 177.073 98.4869 177.073C98.4869 177.073 87.3979 176.541 79.0247 174.606L70.7689 170.667C71.117 171.192 71.5205 171.678 71.9725 172.117L72.042 172.187C73.4737 173.527 75.0996 174.647 76.8652 175.506C82.3401 182.644 82.792 193.088 82.792 193.088H82.7268C81.5015 192.655 61.7569 185.829 50.1161 174.234V171.317V168.962L46.666 174.667C43.3506 178.021 38.0408 183.375 32.7614 188.647C29.194 192.201 26.765 194.555 25.0747 196.256L25.0312 196.325Z" fill="#8B689A"/>
</g>
<path style="mix-blend-mode:multiply" opacity="0.5" fill-rule="evenodd" clip-rule="evenodd" d="M73.9124 272.664C77.7133 275.816 81.8674 278.521 86.2919 280.723C86.2919 280.723 77.9317 278.62 72.322 274.399L78.9876 281.524C78.9876 281.524 79.2309 281.701 79.6698 282H105.837C108.296 281.169 110.586 280.325 111.464 279.788C113.671 278.403 118.898 269.11 118.898 269.11C119.198 268.245 130.196 236.864 127.671 217.681L110.96 247.391L117.525 229.073L107.531 247.555L75.9937 230.459L82.2421 252.347L72.3612 232.359V239.132L52.4949 225.117L49.1621 231.904C58.0997 242.943 65.6848 255.003 71.7572 267.829C72.4915 269.413 73.2085 271.032 73.9124 272.664Z" fill="url(#paint36_linear_1260_4545)"/>
<path style="mix-blend-mode:multiply" opacity="0.5" fill-rule="evenodd" clip-rule="evenodd" d="M125.158 269.66C125.158 269.66 119.284 278.936 113.787 281.991H122.86C123.75 280.645 124.373 279.14 124.694 277.559C124.694 277.559 125.949 270.461 125.158 269.66Z" fill="url(#paint37_linear_1260_4545)"/>
<path style="mix-blend-mode:multiply" opacity="0.5" fill-rule="evenodd" clip-rule="evenodd" d="M49.1621 231.891C58.1 242.929 65.6851 254.989 71.7572 267.816L66.2344 248.871L52.4949 225.117L49.1621 231.891Z" fill="url(#paint38_linear_1260_4545)"/>
<path style="mix-blend-mode:multiply" opacity="0.5" fill-rule="evenodd" clip-rule="evenodd" d="M127.687 217.664L117.541 235.7L122.616 257.013C122.616 257.013 129.251 236.834 127.687 217.664Z" fill="url(#paint39_linear_1260_4545)"/>
<path style="mix-blend-mode:multiply" opacity="0.5" fill-rule="evenodd" clip-rule="evenodd" d="M73.9124 272.664L86.2919 280.723C86.2919 280.723 78.6704 278.71 72.3221 274.399L78.9876 281.524C78.9876 281.524 79.2309 281.701 79.6741 282H94.9649L91.0542 278.515L72.3698 232.358V239.132L52.4949 225.117L49.1621 231.904L61.8501 248.39L73.9124 272.664Z" fill="url(#paint40_linear_1260_4545)"/>
<path style="mix-blend-mode:multiply" opacity="0.5" fill-rule="evenodd" clip-rule="evenodd" d="M-8.30558 258.385C-3.69966 264.631 3.42647 273.91 10.7525 282H44.0541C45.1868 278.869 46.0148 275.637 46.5265 272.348C48.8382 257.333 46.5265 236.748 46.5265 236.748L49.1597 231.891C49.1597 231.891 50.4329 233.393 52.4925 236.098V225.117L44.7711 236.531C44.7711 236.531 39.3092 255.026 30.4319 260.618C30.4319 260.618 41.7294 238.76 43.0765 222.663C42.6419 224.481 35.2247 253.541 26.6342 258.065C26.6342 258.065 24.1314 253.065 22.6149 252.091C20.464 250.715 19.1387 252.126 19.1387 252.126C19.8253 252.728 30.9273 262.717 33.3215 276.265L17.5788 272.209C17.5788 272.209 1.6797 259.186 -4.6643 238.899L-7.34528 236.631C-7.34528 236.631 -5.28566 252.914 -7.34528 254.965C-8.97039 256.584 -11.9164 253.234 -13.0723 251.797C-12.3379 252.862 -10.6433 255.234 -8.33165 258.385H-8.30558Z" fill="url(#paint41_linear_1260_4545)"/>
<path style="mix-blend-mode:multiply" opacity="0.5" fill-rule="evenodd" clip-rule="evenodd" d="M123.604 195.023C129.835 203.48 140.302 218.045 143.248 224.455C143.248 224.455 151.656 239.301 162.441 246.261C162.441 246.261 172.809 250.897 177.784 250.897C179.674 250.897 184.48 232.381 176.693 217.634C180.604 231.814 174.955 240.254 174.955 240.254C159.512 238.237 138.747 213.747 138.112 212.985L146.116 217.664C136.756 211.492 124.946 195.46 124.946 195.46L123.604 195.023Z" fill="url(#paint42_linear_1260_4545)"/>
<path style="mix-blend-mode:multiply" opacity="0.5" fill-rule="evenodd" clip-rule="evenodd" d="M19.1484 252.113C19.1484 252.113 20.1087 250.849 22.6246 252.078C25.1405 253.308 31.7104 270.344 31.7104 270.344C31.7104 270.344 25.7879 257.393 19.1484 252.113Z" fill="url(#paint43_linear_1260_4545)"/>
</g>
<defs>
<linearGradient id="paint0_linear_1260_4545" x1="125.356" y1="198.057" x2="110.667" y2="114.432" gradientUnits="userSpaceOnUse">
<stop stop-color="#FF957C"/>
<stop offset="0.98" stop-color="#F47867"/>
</linearGradient>
<linearGradient id="paint1_linear_1260_4545" x1="115.171" y1="180.293" x2="115.171" y2="131.955" gradientUnits="userSpaceOnUse">
<stop offset="0.02" stop-color="#D1A1D6"/>
<stop offset="0.99" stop-color="#BD89C4"/>
</linearGradient>
<linearGradient id="paint2_linear_1260_4545" x1="132.729" y1="176.346" x2="124.22" y2="127.897" gradientUnits="userSpaceOnUse">
<stop stop-color="#FF957C"/>
<stop offset="0.98" stop-color="#FFAE78"/>
</linearGradient>
<linearGradient id="paint3_linear_1260_4545" x1="101.688" y1="469.052" x2="101.688" y2="276.594" gradientUnits="userSpaceOnUse">
<stop offset="0.01" stop-color="#442145"/>
<stop offset="0.98" stop-color="#5B454C"/>
</linearGradient>
<linearGradient id="paint4_linear_1260_4545" x1="152.868" y1="59.5521" x2="73.1509" y2="191.656" gradientUnits="userSpaceOnUse">
<stop offset="0.0108" stop-color="#EDD7C0"/>
<stop offset="1" stop-color="#877BB0"/>
</linearGradient>
<linearGradient id="paint5_linear_1260_4545" x1="119.861" y1="248.649" x2="117.038" y2="125.123" gradientUnits="userSpaceOnUse">
<stop offset="0.0108" stop-color="#E9CBAC"/>
<stop offset="1" stop-color="#7A6BAB"/>
</linearGradient>
<linearGradient id="paint6_linear_1260_4545" x1="109.719" y1="112.378" x2="112.244" y2="161.654" gradientUnits="userSpaceOnUse">
<stop stop-color="#59355C"/>
<stop offset="0.9829" stop-color="#361545"/>
</linearGradient>
<linearGradient id="paint7_linear_1260_4545" x1="116.507" y1="107.243" x2="116.578" y2="108.626" gradientUnits="userSpaceOnUse">
<stop stop-color="#59355C"/>
<stop offset="0.9829" stop-color="#361545"/>
</linearGradient>
<linearGradient id="paint8_linear_1260_4545" x1="125.675" y1="229.621" x2="116.771" y2="176.377" gradientUnits="userSpaceOnUse">
<stop offset="0.0108" stop-color="#EDD7C0"/>
<stop offset="1" stop-color="#877BB0"/>
</linearGradient>
<linearGradient id="paint9_linear_1260_4545" x1="73.8402" y1="73.4743" x2="56.1586" y2="255.869" gradientUnits="userSpaceOnUse">
<stop stop-color="#F4B73C"/>
<stop offset="1" stop-color="#7E5517"/>
</linearGradient>
<linearGradient id="paint10_linear_1260_4545" x1="66.9432" y1="196.335" x2="66.9432" y2="146.014" gradientUnits="userSpaceOnUse">
<stop stop-color="#FF7459"/>
<stop offset="0.98" stop-color="#C75659"/>
</linearGradient>
<linearGradient id="paint11_linear_1260_4545" x1="81.4756" y1="164.231" x2="65.528" y2="73.4239" gradientUnits="userSpaceOnUse">
<stop offset="0.02" stop-color="#FFAE78"/>
<stop offset="1" stop-color="#FF957C"/>
</linearGradient>
<linearGradient id="paint12_linear_1260_4545" x1="72.3691" y1="163.145" x2="72.3691" y2="73.1032" gradientUnits="userSpaceOnUse">
<stop stop-color="#FFEADB"/>
<stop offset="0.99" stop-color="#B060F4"/>
</linearGradient>
<linearGradient id="paint13_linear_1260_4545" x1="61.1356" y1="68.5959" x2="60.3172" y2="194.847" gradientUnits="userSpaceOnUse">
<stop stop-color="#FFE296"/>
<stop offset="0.444719" stop-color="#F8CB58"/>
</linearGradient>
<linearGradient id="paint14_linear_1260_4545" x1="46.7836" y1="102.801" x2="45.2736" y2="157.831" gradientUnits="userSpaceOnUse">
<stop stop-color="#F4B73C"/>
<stop offset="1" stop-color="#754C0F"/>
</linearGradient>
<linearGradient id="paint15_linear_1260_4545" x1="149.909" y1="250.897" x2="149.909" y2="182.272" gradientUnits="userSpaceOnUse">
<stop stop-color="#4360AC"/>
<stop offset="1" stop-color="#6781CB"/>
</linearGradient>
<linearGradient id="paint16_linear_1260_4545" x1="97.343" y1="111.517" x2="97.343" y2="97.3027" gradientUnits="userSpaceOnUse">
<stop offset="0.01" stop-color="#772438"/>
<stop offset="0.99" stop-color="#994540"/>
</linearGradient>
<linearGradient id="paint17_linear_1260_4545" x1="97.3452" y1="97.3027" x2="97.3012" y2="106.71" gradientUnits="userSpaceOnUse">
<stop stop-color="#FFE296"/>
<stop offset="0.444719" stop-color="#F8CB58"/>
</linearGradient>
<linearGradient id="paint18_linear_1260_4545" x1="68.0755" y1="105.929" x2="68.0755" y2="96.792" gradientUnits="userSpaceOnUse">
<stop offset="0.01" stop-color="#772438"/>
<stop offset="0.99" stop-color="#994540"/>
</linearGradient>
<linearGradient id="paint19_linear_1260_4545" x1="68.069" y1="96.792" x2="68.0608" y2="102.839" gradientUnits="userSpaceOnUse">
<stop stop-color="#FFE296"/>
<stop offset="0.444719" stop-color="#F8CB58"/>
</linearGradient>
<linearGradient id="paint20_linear_1260_4545" x1="68.0429" y1="123.16" x2="68.0429" y2="109.046" gradientUnits="userSpaceOnUse">
<stop stop-color="#E1DBFB"/>
<stop offset="1" stop-color="white"/>
</linearGradient>
<linearGradient id="paint21_linear_1260_4545" x1="95.1672" y1="127.778" x2="95.1672" y2="113.642" gradientUnits="userSpaceOnUse">
<stop stop-color="#E1DBFB"/>
<stop offset="1" stop-color="white"/>
</linearGradient>
<linearGradient id="paint22_linear_1260_4545" x1="72.758" y1="121.736" x2="72.758" y2="109.045" gradientUnits="userSpaceOnUse">
<stop offset="0.02" stop-color="#224476"/>
<stop offset="0.99" stop-color="#4776BB"/>
</linearGradient>
<linearGradient id="paint23_linear_1260_4545" x1="97.8504" y1="126.482" x2="97.8504" y2="113.666" gradientUnits="userSpaceOnUse">
<stop offset="0.02" stop-color="#224476"/>
<stop offset="0.99" stop-color="#4776BB"/>
</linearGradient>
<linearGradient id="paint24_linear_1260_4545" x1="76.8519" y1="139.746" x2="70.2559" y2="139.746" gradientUnits="userSpaceOnUse">
<stop offset="0.01" stop-color="#B060F4"/>
<stop offset="1" stop-color="#FFEADB"/>
</linearGradient>
<linearGradient id="paint25_linear_1260_4545" x1="96.0132" y1="131.081" x2="96.0132" y2="97.3979" gradientUnits="userSpaceOnUse">
<stop stop-color="#FFEADB"/>
<stop offset="0.99" stop-color="#B060F4"/>
</linearGradient>
<linearGradient id="paint26_linear_1260_4545" x1="57.9834" y1="165.045" x2="57.9834" y2="146.014" gradientUnits="userSpaceOnUse">
<stop offset="0.02" stop-color="#D1A1D6"/>
<stop offset="0.99" stop-color="#BD89C4"/>
</linearGradient>
<linearGradient id="paint27_linear_1260_4545" x1="89.6162" y1="74.573" x2="88.1732" y2="122.244" gradientUnits="userSpaceOnUse">
<stop stop-color="#F4B73C"/>
<stop offset="1" stop-color="#754C0F"/>
</linearGradient>
<linearGradient id="paint28_linear_1260_4545" x1="43.0864" y1="203.082" x2="43.0864" y2="77.7954" gradientUnits="userSpaceOnUse">
<stop offset="0.01" stop-color="#BE6888"/>
<stop offset="1" stop-color="#8E81F4"/>
</linearGradient>
<linearGradient id="paint29_linear_1260_4545" x1="43.0885" y1="77.7954" x2="41.878" y2="195.429" gradientUnits="userSpaceOnUse">
<stop stop-color="#FFE296"/>
<stop offset="0.444719" stop-color="#F8CB58"/>
</linearGradient>
<linearGradient id="paint30_linear_1260_4545" x1="40.5444" y1="143.676" x2="35.8697" y2="117.047" gradientUnits="userSpaceOnUse">
<stop offset="0.02" stop-color="#FFAE78"/>
<stop offset="1" stop-color="#FF957C"/>
</linearGradient>
<linearGradient id="paint31_linear_1260_4545" x1="37.1746" y1="138.374" x2="37.1746" y2="120.71" gradientUnits="userSpaceOnUse">
<stop stop-color="#FFEADB"/>
<stop offset="0.99" stop-color="#B060F4"/>
</linearGradient>
<linearGradient id="paint32_linear_1260_4545" x1="57.4856" y1="282.001" x2="57.4856" y2="171.213" gradientUnits="userSpaceOnUse">
<stop stop-color="#4360AC"/>
<stop offset="1" stop-color="#6781CB"/>
</linearGradient>
<linearGradient id="paint33_linear_1260_4545" x1="63.8874" y1="198.226" x2="63.8874" y2="168.932" gradientUnits="userSpaceOnUse">
<stop offset="0.01" stop-color="#EFEDFF"/>
<stop offset="1" stop-color="#EBE8FF"/>
</linearGradient>
<linearGradient id="paint34_linear_1260_4545" x1="80.2616" y1="197.326" x2="80.2616" y2="170.65" gradientUnits="userSpaceOnUse">
<stop offset="0.01" stop-color="#EFEDFF"/>
<stop offset="1" stop-color="#EBE8FF"/>
</linearGradient>
<linearGradient id="paint35_linear_1260_4545" x1="126.293" y1="197.49" x2="126.293" y2="182.267" gradientUnits="userSpaceOnUse">
<stop offset="0.01" stop-color="#EFEDFF"/>
<stop offset="1" stop-color="#EBE8FF"/>
</linearGradient>
<linearGradient id="paint36_linear_1260_4545" x1="88.6122" y1="290.215" x2="88.6122" y2="217.664" gradientUnits="userSpaceOnUse">
<stop offset="0.01" stop-color="#BE6888"/>
<stop offset="1" stop-color="#8E81F4"/>
</linearGradient>
<linearGradient id="paint37_linear_1260_4545" x1="119.592" y1="290.215" x2="119.592" y2="217.664" gradientUnits="userSpaceOnUse">
<stop offset="0.01" stop-color="#BE6888"/>
<stop offset="1" stop-color="#8E81F4"/>
</linearGradient>
<linearGradient id="paint38_linear_1260_4545" x1="60.464" y1="267.825" x2="60.464" y2="225.104" gradientUnits="userSpaceOnUse">
<stop stop-color="#8E81F4"/>
<stop offset="0.99" stop-color="#BE6888"/>
</linearGradient>
<linearGradient id="paint39_linear_1260_4545" x1="122.734" y1="257.013" x2="122.734" y2="217.664" gradientUnits="userSpaceOnUse">
<stop stop-color="white"/>
<stop offset="0.98" stop-color="#A77CBB"/>
</linearGradient>
<linearGradient id="paint40_linear_1260_4545" x1="72.0613" y1="290.224" x2="72.0613" y2="225.104" gradientUnits="userSpaceOnUse">
<stop stop-color="white"/>
<stop offset="0.98" stop-color="#A77CBB"/>
</linearGradient>
<linearGradient id="paint41_linear_1260_4545" x1="19.7166" y1="298.742" x2="19.7166" y2="222.65" gradientUnits="userSpaceOnUse">
<stop offset="0.01" stop-color="#BE6888"/>
<stop offset="1" stop-color="#8E81F4"/>
</linearGradient>
<linearGradient id="paint42_linear_1260_4545" x1="152.295" y1="250.91" x2="152.295" y2="195.023" gradientUnits="userSpaceOnUse">
<stop offset="0.01" stop-color="#BE6888"/>
<stop offset="1" stop-color="#8E81F4"/>
</linearGradient>
<linearGradient id="paint43_linear_1260_4545" x1="25.4229" y1="270.344" x2="25.4229" y2="251.542" gradientUnits="userSpaceOnUse">
<stop offset="0.01" stop-color="#BE6888"/>
<stop offset="1" stop-color="#8E81F4"/>
</linearGradient>
<clipPath id="clip0_1260_4545">
<rect width="343" height="281" fill="white"/>
</clipPath>
</defs>
</svg>
