<svg width="131" height="119" viewBox="0 0 131 119" fill="none" xmlns="http://www.w3.org/2000/svg">
<g clip-path="url(#clip0_710_4290)">
<path fill-rule="evenodd" clip-rule="evenodd" d="M120.023 87.7766C120.023 87.7766 110.821 109.729 97.0394 119.022H93.1395L100.152 110.084C100.152 110.084 94.8602 114.459 78.0577 119H63.4937C63.4937 119 78.8237 102.785 80.5012 97.775L120.023 87.7766Z" fill="url(#paint0_linear_710_4290)"/>
<g style="mix-blend-mode:multiply">
<path fill-rule="evenodd" clip-rule="evenodd" d="M113.89 99.5904L105.147 105.435L100.13 110.063C100.13 110.063 93.9755 114.873 78.0577 119C78.0577 119 85.987 116.129 91.3325 112.045L69.6214 113.306L75.7544 105.435L120.023 87.7766C120.023 87.7766 115.897 96.4282 113.89 99.5904Z" fill="#DECAD4"/>
</g>
<path fill-rule="evenodd" clip-rule="evenodd" d="M60.2793 102.688L46.6863 119H35.2671L47.7759 105.629C47.7759 105.629 35.4559 116.312 21.345 119H0.000743866C0.000743866 119 33.2713 104.767 55.991 91.6284L60.2793 102.688Z" fill="url(#paint1_linear_710_4290)"/>
<path d="M60.2793 102.688L41.4001 119H35.2725L47.7813 105.629C47.7813 105.629 36.4538 115.865 21.3504 119H10.3088L53.1376 97.775L60.2793 102.688Z" fill="url(#paint2_linear_710_4290)"/>
<path style="mix-blend-mode:multiply" fill-rule="evenodd" clip-rule="evenodd" d="M38.7031 100.98L58.7744 104.493L60.2793 102.688L51.7891 96.7137L47.4199 96.3851L38.7031 100.98Z" fill="url(#paint3_linear_710_4290)"/>
<path d="M105.146 102.435C105.146 102.435 103.582 106.825 101.074 108.048C98.5657 109.271 95.1081 107.283 95.1081 107.283L105.146 102.435Z" fill="url(#paint4_linear_710_4290)"/>
<path d="M51.7888 96.7138C54.4129 98.9821 57.2571 100.983 60.279 102.688C64.8801 105.188 81.5855 108.991 92.3089 107.838C99.1755 107.089 107.925 101.417 114.565 94.4889C119.899 88.9241 123.875 82.5404 124.468 77.2504C125.008 72.165 121.55 60.6097 121.55 60.6097L127.041 45.6768C127.041 45.6768 130.893 38.5121 130.871 32.3223C130.871 27.571 124.101 14.8036 109.063 9.69671C109.063 9.69671 102.66 6.25977 102.002 2.46729C102.002 2.46729 100.988 7.85434 102.746 10.2516C102.746 10.2516 97.7353 12.4064 94.952 16.3174C92.1687 20.2284 80.469 39.2824 76.0135 49.0222C72.4534 56.8011 67.6527 74.7777 59.0546 87.9329C57.0076 91.1502 54.5669 94.0999 51.7888 96.7138Z" fill="url(#paint5_linear_710_4290)"/>
<path fill-rule="evenodd" clip-rule="evenodd" d="M84.9136 32.5162C87.0514 38.2154 90.5511 43.3065 95.1084 47.3468C102.471 53.6496 122.181 58.8697 122.181 58.8697C122.181 58.8697 125.418 73.3124 124.468 77.2396C123.519 81.1667 120.94 85.9989 115.466 87.6689L116.005 86.279C116.005 86.279 113.119 88.2022 103.377 91.6284C103.377 91.6284 104.036 88.8487 103.113 86.78C101.522 83.2407 94.0997 73.8834 89.628 64.0089C89.5036 66.3119 89.7866 68.6187 90.4641 70.8236C90.4641 70.8236 83.9642 60.8198 82.6966 49.7063C81.429 38.5928 82.6966 36.3572 82.6966 36.3572L84.9136 32.5162Z" fill="url(#paint6_linear_710_4290)"/>
<path style="mix-blend-mode:multiply" opacity="0.6" d="M130.87 32.3224C130.87 32.3224 128.411 32.8611 115.357 25.6478L108.345 17.8689C108.345 17.8689 97.5999 25.6532 100.13 36.5943C100.13 36.5943 93.7216 40.6831 84.9131 32.5163C84.9131 32.5163 88.3491 45.2836 103.393 52.2491C103.393 52.2491 93.9266 48.5482 87.1031 37.4885C87.1031 37.4885 96.3377 55.2335 109.429 66.9019C113.701 70.8452 118.157 74.3414 118.157 74.3414C118.157 74.3414 125.304 74.9447 124.193 69.9078L122.181 58.8913L127.035 45.6984C127.035 45.6984 131.841 36.3626 130.87 32.3224Z" fill="url(#paint7_linear_710_4290)"/>
<path fill-rule="evenodd" clip-rule="evenodd" d="M111.36 62.075C111.36 62.075 103.954 45.6768 105.648 40.3005L115.648 56.521L111.36 62.075Z" fill="url(#paint8_linear_710_4290)"/>
<path fill-rule="evenodd" clip-rule="evenodd" d="M109.424 66.9018C124.651 64.0305 128.843 54.2961 128.843 54.2961C129.29 47.7132 125.671 41.8736 125.671 41.8736C118.119 41.448 116.01 43.2096 112.871 43.0318C112.66 43.0318 112.45 43.0318 112.223 42.9833C109.852 42.5791 107.598 41.6596 105.621 40.2898C105.254 43.9907 111.938 54.3716 112.213 57.4314C112.488 60.4912 109.424 66.9018 109.424 66.9018Z" fill="url(#paint9_linear_710_4290)"/>
<path d="M115.179 30.0759C116.193 34.2454 112.423 39.5894 108.064 37.9625C103.474 36.244 102.881 30.5284 106.36 27.3123C109.839 24.0962 114.149 25.8201 115.179 30.0759Z" fill="url(#paint10_linear_710_4290)"/>
<path d="M114.544 30.7816C115.461 34.5525 111.847 39.4009 107.877 37.9302C103.707 36.3734 103.378 31.3257 106.533 28.4059C109.689 25.4861 113.61 26.9353 114.544 30.7816Z" fill="url(#paint11_linear_710_4290)"/>
<path d="M105.486 29.7043C104.871 30.5044 104.588 31.5102 104.695 32.5131C104.803 33.516 105.292 34.4392 106.063 35.0913C106.44 35.3952 106.876 35.6186 107.343 35.7478C107.81 35.8771 108.299 35.9094 108.779 35.8428C109.259 35.7761 109.721 35.612 110.135 35.3605C110.549 35.1089 110.907 34.7753 111.187 34.3802C111.8 33.5791 112.081 32.574 111.974 31.5718C111.866 30.5697 111.378 29.6468 110.61 28.9932C110.233 28.6893 109.797 28.4659 109.33 28.3367C108.863 28.2074 108.374 28.1751 107.894 28.2417C107.414 28.3084 106.952 28.4725 106.538 28.724C106.124 28.9756 105.766 29.3092 105.486 29.7043Z" fill="url(#paint12_linear_710_4290)"/>
<path d="M110.259 33.3297C110.08 33.4871 109.965 33.7061 109.939 33.9435C109.913 34.1809 109.978 34.4194 110.119 34.6119C110.189 34.7035 110.276 34.7799 110.376 34.8362C110.477 34.8926 110.587 34.9276 110.702 34.9393C110.816 34.9509 110.932 34.9388 111.041 34.9038C111.151 34.8688 111.252 34.8116 111.338 34.7358C111.518 34.5784 111.632 34.3594 111.658 34.122C111.684 33.8846 111.62 33.6461 111.479 33.4536C111.409 33.362 111.322 33.2856 111.222 33.2293C111.121 33.1729 111.01 33.1379 110.896 33.1262C110.782 33.1146 110.666 33.1267 110.557 33.1617C110.447 33.1967 110.346 33.2539 110.259 33.3297Z" fill="white"/>
<path style="mix-blend-mode:multiply" opacity="0.6" fill-rule="evenodd" clip-rule="evenodd" d="M51.7874 96.7138C54.4115 98.9822 57.2557 100.983 60.2776 102.688C64.8787 105.188 81.5841 108.991 92.3075 107.838C99.1741 107.089 107.923 101.417 114.563 94.489C114.607 94.4405 114.655 94.3974 114.687 94.3543C114.72 94.3112 102.47 96.3852 78.2074 87.7767C80.25 79.3718 80.9939 70.7045 80.4136 62.0751L59.0532 87.9329L51.7874 96.7138Z" fill="url(#paint13_linear_710_4290)"/>
<path fill-rule="evenodd" clip-rule="evenodd" d="M115.648 12.6865C115.648 12.6865 105.254 11.7492 102.951 8.75935C100.648 5.76953 102.19 0 102.19 0C102.19 0 102.902 4.39584 105.61 6.88465C108.318 9.37347 115.648 12.6865 115.648 12.6865Z" fill="url(#paint14_linear_710_4290)"/>
<path style="mix-blend-mode:multiply" fill-rule="evenodd" clip-rule="evenodd" d="M80.4144 62.0751C80.4144 62.0751 81.7251 86.974 74.2058 94.7583C66.6865 102.543 55.4399 99.6067 55.4399 99.6067L51.7881 96.7246L80.4144 62.0751Z" fill="url(#paint15_linear_710_4290)"/>
<path fill-rule="evenodd" clip-rule="evenodd" d="M80.4911 40.3005C80.4911 40.3005 82.7943 72.3751 74.9945 83.6825C67.1947 94.9899 46.2226 97.775 46.2226 97.775C51.5046 91.6739 56.4614 85.2994 61.0725 78.6779C68.6835 67.7368 80.4911 40.3005 80.4911 40.3005Z" fill="url(#paint16_linear_710_4290)"/>
<path d="M101.759 107.612L105.147 115.105L118.713 118.165L105.147 117.61L98.4798 119L102.746 115.294L99.3159 108.436L101.759 107.612Z" fill="#FFCE5C"/>
<path d="M70.6128 108.528L68.8652 114.367L78.0566 119L66.1466 116.775L59.8625 117.702L66.7345 114.367L67.8942 108.048L70.6128 108.528Z" fill="#FFCE5C"/>
<g style="mix-blend-mode:multiply">
<path fill-rule="evenodd" clip-rule="evenodd" d="M80.7487 55.2657C80.7487 55.2657 79.3571 73.21 74.0655 79.7284C68.7739 86.2467 52.6241 91.6122 52.6241 91.6122L63.9031 79.2974L57.2415 83.9895L46.2214 97.7588C46.2214 97.7588 66.7566 94.672 73.9361 85.0454C81.3745 75.0686 80.7487 55.2657 80.7487 55.2657Z" fill="#DECAD4"/>
</g>
<g style="mix-blend-mode:multiply" opacity="0.6">
<path fill-rule="evenodd" clip-rule="evenodd" d="M109.423 66.9018C124.651 64.0305 128.842 54.2961 128.842 54.2961C128.842 54.2961 120.972 52.68 117.25 50.3366L112.881 43.0318C112.67 43.0318 112.46 43.0318 112.234 42.9833C109.862 42.5791 107.608 41.6596 105.631 40.2898C105.264 43.9907 111.948 54.3716 112.223 57.4314C112.498 60.4912 109.423 66.9018 109.423 66.9018Z" fill="#FFCAD4"/>
</g>
<path d="M77.3242 107.202C77.3242 107.202 72.6745 108.937 69.2655 108.463C65.8565 107.989 63.9038 104.153 63.9038 104.153C63.9038 104.153 70.97 99.4396 77.3242 107.202Z" fill="url(#paint17_linear_710_4290)"/>
</g>
<defs>
<linearGradient id="paint0_linear_710_4290" x1="91.7662" y1="119.022" x2="91.7662" y2="87.7766" gradientUnits="userSpaceOnUse">
<stop stop-color="#00AE8F"/>
<stop offset="1" stop-color="#00FFD1"/>
</linearGradient>
<linearGradient id="paint1_linear_710_4290" x1="30.1481" y1="119" x2="30.1481" y2="91.6284" gradientUnits="userSpaceOnUse">
<stop stop-color="#00AE8F"/>
<stop offset="1" stop-color="#00FFD1"/>
</linearGradient>
<linearGradient id="paint2_linear_710_4290" x1="35.2886" y1="119" x2="35.2886" y2="97.775" gradientUnits="userSpaceOnUse">
<stop stop-color="#3989E8"/>
<stop offset="1" stop-color="#5142D8"/>
</linearGradient>
<linearGradient id="paint3_linear_710_4290" x1="49.4912" y1="104.493" x2="49.4912" y2="96.3851" gradientUnits="userSpaceOnUse">
<stop offset="0.02" stop-color="#F0C2D6"/>
<stop offset="0.99" stop-color="#BD89C4"/>
</linearGradient>
<linearGradient id="paint4_linear_710_4290" x1="100.13" y1="108.441" x2="100.13" y2="102.435" gradientUnits="userSpaceOnUse">
<stop stop-color="#3D2CBF"/>
<stop offset="1" stop-color="#1B4A97"/>
</linearGradient>
<linearGradient id="paint5_linear_710_4290" x1="91.3326" y1="108.048" x2="91.3326" y2="2.48344" gradientUnits="userSpaceOnUse">
<stop stop-color="#5142D8"/>
<stop offset="1" stop-color="#3989E8"/>
</linearGradient>
<linearGradient id="paint6_linear_710_4290" x1="103.394" y1="91.6284" x2="103.394" y2="32.5162" gradientUnits="userSpaceOnUse">
<stop stop-color="#00AE8F"/>
<stop offset="1" stop-color="#00FFD1"/>
</linearGradient>
<linearGradient id="paint7_linear_710_4290" x1="98.4037" y1="64.3484" x2="119.122" y2="23.3151" gradientUnits="userSpaceOnUse">
<stop offset="0.02" stop-color="#F0C2D6"/>
<stop offset="0.99" stop-color="#BD89C4"/>
</linearGradient>
<linearGradient id="paint8_linear_710_4290" x1="110.513" y1="62.075" x2="110.513" y2="40.3005" gradientUnits="userSpaceOnUse">
<stop offset="0.01" stop-color="#FF5A55"/>
<stop offset="1" stop-color="#FF9536"/>
</linearGradient>
<linearGradient id="paint9_linear_710_4290" x1="117.24" y1="66.9018" x2="117.24" y2="40.306" gradientUnits="userSpaceOnUse">
<stop stop-color="#FF9D31"/>
<stop offset="1" stop-color="#FFCC1B"/>
</linearGradient>
<linearGradient id="paint10_linear_710_4290" x1="105.13" y1="35.7532" x2="114.483" y2="28.1909" gradientUnits="userSpaceOnUse">
<stop stop-color="#3D2CBF"/>
<stop offset="1" stop-color="#1B4A97"/>
</linearGradient>
<linearGradient id="paint11_linear_710_4290" x1="105.305" y1="36.0284" x2="113.899" y2="29.0796" gradientUnits="userSpaceOnUse">
<stop stop-color="white"/>
<stop offset="1" stop-color="#D0C7F8"/>
</linearGradient>
<linearGradient id="paint12_linear_710_4290" x1="106.574" y1="35.2559" x2="111.245" y2="29.2344" gradientUnits="userSpaceOnUse">
<stop offset="0.01" stop-color="#934A1A"/>
<stop offset="0.98" stop-color="#33112F"/>
</linearGradient>
<linearGradient id="paint13_linear_710_4290" x1="83.2401" y1="108.048" x2="83.2401" y2="62.0751" gradientUnits="userSpaceOnUse">
<stop offset="0.02" stop-color="#F0C2D6"/>
<stop offset="0.99" stop-color="#BD89C4"/>
</linearGradient>
<linearGradient id="paint14_linear_710_4290" x1="108.668" y1="12.6865" x2="108.668" y2="0" gradientUnits="userSpaceOnUse">
<stop stop-color="#00AE8F"/>
<stop offset="1" stop-color="#00FFD1"/>
</linearGradient>
<linearGradient id="paint15_linear_710_4290" x1="66.1471" y1="100.145" x2="66.1471" y2="62.0751" gradientUnits="userSpaceOnUse">
<stop offset="0.02" stop-color="#F0C2D6"/>
<stop offset="0.99" stop-color="#BD89C4"/>
</linearGradient>
<linearGradient id="paint16_linear_710_4290" x1="63.5203" y1="97.775" x2="63.5203" y2="40.3005" gradientUnits="userSpaceOnUse">
<stop stop-color="#00AE8F"/>
<stop offset="1" stop-color="#00FFD1"/>
</linearGradient>
<linearGradient id="paint17_linear_710_4290" x1="70.614" y1="108.528" x2="70.614" y2="102.731" gradientUnits="userSpaceOnUse">
<stop stop-color="#3989E8"/>
<stop offset="1" stop-color="#5142D8"/>
</linearGradient>
<clipPath id="clip0_710_4290">
<rect width="131" height="119" fill="white" transform="matrix(-1 0 0 1 131 0)"/>
</clipPath>
</defs>
</svg>
