<svg width="53" height="47" viewBox="0 0 53 47" fill="none" xmlns="http://www.w3.org/2000/svg">
<g clip-path="url(#clip0_1220_24509)">
<path fill-rule="evenodd" clip-rule="evenodd" d="M48.5586 34.6681C48.5586 34.6681 44.8355 43.3383 39.2597 47.0085H37.6819L40.5189 43.4787C40.5189 43.4787 38.378 45.2064 31.5801 47H25.6878C25.6878 47 31.89 40.5957 32.5687 38.617L48.5586 34.6681Z" fill="url(#paint0_linear_1220_24509)"/>
<g style="mix-blend-mode:multiply">
<path fill-rule="evenodd" clip-rule="evenodd" d="M46.0773 39.334L42.5397 41.6426L40.5102 43.4702C40.5102 43.4702 38.0201 45.3702 31.5801 47C31.5801 47 34.7881 45.866 36.9508 44.2532L28.1669 44.7511L30.6482 41.6426L48.5586 34.6681C48.5586 34.6681 46.8891 38.0851 46.0773 39.334Z" fill="#DECAD4"/>
</g>
<path fill-rule="evenodd" clip-rule="evenodd" d="M24.3867 40.5574L18.8873 47H14.2673L19.3281 41.7191C19.3281 41.7191 14.3436 45.9383 8.63468 47H-0.000789642C-0.000789642 47 13.4598 41.3787 22.6518 36.1893L24.3867 40.5574Z" fill="url(#paint1_linear_1220_24509)"/>
<path d="M24.3867 40.5575L16.7486 47H14.2694L19.3303 41.7192C19.3303 41.7192 14.7474 45.7617 8.63686 47H4.16964L21.4973 38.6171L24.3867 40.5575Z" fill="url(#paint2_linear_1220_24509)"/>
<path style="mix-blend-mode:multiply" fill-rule="evenodd" clip-rule="evenodd" d="M15.6574 39.883L23.7779 41.2702L24.3867 40.5575L20.9517 38.1979L19.1841 38.0681L15.6574 39.883Z" fill="url(#paint3_linear_1220_24509)"/>
<path d="M42.5391 40.4574C42.5391 40.4574 41.9062 42.1914 40.8914 42.6744C39.8766 43.1574 38.4778 42.3723 38.4778 42.3723L42.5391 40.4574Z" fill="url(#paint4_linear_1220_24509)"/>
<path d="M20.9541 38.1979C22.0158 39.0938 23.1665 39.8842 24.3891 40.5575C26.2506 41.5447 33.0093 43.0468 37.3477 42.5915C40.1258 42.2958 43.6656 40.0553 46.352 37.3192C48.5103 35.1213 50.1187 32.6 50.3588 30.5107C50.577 28.5021 49.1781 23.9383 49.1781 23.9383L51.3997 18.0404C51.3997 18.0404 52.9579 15.2107 52.9492 12.766C52.9492 10.8894 50.2104 5.84683 44.126 3.82981C44.126 3.82981 41.5356 2.47236 41.2694 0.974487C41.2694 0.974487 40.8591 3.10215 41.5705 4.04896C41.5705 4.04896 39.5431 4.90002 38.4171 6.4447C37.291 7.98938 32.5575 15.5149 30.7549 19.3617C29.3146 22.4341 27.3723 29.5341 23.8937 34.7298C23.0655 36.0005 22.078 37.1655 20.9541 38.1979Z" fill="url(#paint5_linear_1220_24509)"/>
<path fill-rule="evenodd" clip-rule="evenodd" d="M34.3561 12.8425C35.221 15.0934 36.637 17.1042 38.4807 18.7C41.4596 21.1893 49.4338 23.251 49.4338 23.251C49.4338 23.251 50.7432 28.9553 50.3591 30.5064C49.975 32.0574 48.9319 33.9659 46.7168 34.6255L46.9351 34.0766C46.9351 34.0766 45.7675 34.8361 41.8262 36.1893C41.8262 36.1893 42.0925 35.0915 41.7193 34.2744C41.0755 32.8766 38.0726 29.1808 36.2635 25.2808C36.2132 26.1904 36.3277 27.1015 36.6017 27.9723C36.6017 27.9723 33.972 24.0213 33.4592 19.6319C32.9463 15.2425 33.4592 14.3596 33.4592 14.3596L34.3561 12.8425Z" fill="url(#paint6_linear_1220_24509)"/>
<path style="mix-blend-mode:multiply" opacity="0.6" d="M52.9476 12.766C52.9476 12.766 51.9525 12.9788 46.6712 10.1298L43.8342 7.0575C43.8342 7.0575 39.487 10.132 40.5105 14.4532C40.5105 14.4532 37.9179 16.0681 34.3542 12.8426C34.3542 12.8426 35.7443 17.8852 41.8308 20.6362C41.8308 20.6362 38.0008 19.1745 35.2402 14.8064C35.2402 14.8064 38.9763 21.8149 44.2728 26.4235C46.0012 27.9809 47.8039 29.3618 47.8039 29.3618C47.8039 29.3618 50.6954 29.6 50.2459 27.6107L49.4319 23.2596L51.396 18.049C51.396 18.049 53.3404 14.3618 52.9476 12.766Z" fill="url(#paint7_linear_1220_24509)"/>
<path fill-rule="evenodd" clip-rule="evenodd" d="M45.0541 24.517C45.0541 24.517 42.0578 18.0404 42.743 15.917L46.7891 22.3234L45.0541 24.517Z" fill="url(#paint8_linear_1220_24509)"/>
<path fill-rule="evenodd" clip-rule="evenodd" d="M44.2726 26.4234C50.4333 25.2893 52.129 21.4446 52.129 21.4446C52.3101 18.8446 50.8458 16.5383 50.8458 16.5383C47.7905 16.3702 46.9373 17.0659 45.6671 16.9957C45.582 16.9957 45.4969 16.9957 45.4053 16.9765C44.4457 16.8169 43.5339 16.4537 42.7341 15.9127C42.5857 17.3744 45.2896 21.4744 45.4009 22.6829C45.5122 23.8914 44.2726 26.4234 44.2726 26.4234Z" fill="url(#paint9_linear_1220_24509)"/>
<path d="M46.6006 11.8787C47.0109 13.5255 45.4854 15.6361 43.7221 14.9936C41.8649 14.3149 41.6249 12.0574 43.0325 10.7872C44.4401 9.51699 46.1837 10.1978 46.6006 11.8787Z" fill="url(#paint10_linear_1220_24509)"/>
<path d="M46.3402 12.1574C46.7112 13.6468 45.2491 15.5617 43.6429 14.9808C41.9559 14.3659 41.8228 12.3723 43.0995 11.2191C44.3761 10.0659 45.9627 10.6383 46.3402 12.1574Z" fill="url(#paint11_linear_1220_24509)"/>
<path d="M42.6785 11.732C42.4298 12.048 42.3152 12.4452 42.3587 12.8413C42.4022 13.2374 42.6003 13.6021 42.9121 13.8596C43.0647 13.9796 43.241 14.0679 43.43 14.1189C43.619 14.17 43.8167 14.1827 44.011 14.1564C44.2052 14.1301 44.3919 14.0653 44.5594 13.9659C44.727 13.8666 44.8719 13.7348 44.9853 13.5788C45.233 13.2623 45.3469 12.8654 45.3034 12.4696C45.26 12.0737 45.0626 11.7092 44.7518 11.4511C44.5991 11.3311 44.4228 11.2428 44.2338 11.1918C44.0448 11.1408 43.8471 11.128 43.6528 11.1543C43.4586 11.1806 43.2719 11.2455 43.1044 11.3448C42.9368 11.4441 42.7919 11.5759 42.6785 11.732Z" fill="url(#paint12_linear_1220_24509)"/>
<path d="M44.6075 13.1639C44.5347 13.226 44.4885 13.3125 44.478 13.4063C44.4675 13.5 44.4935 13.5942 44.5508 13.6702C44.5788 13.7064 44.6142 13.7366 44.6548 13.7589C44.6953 13.7811 44.7401 13.795 44.7864 13.7996C44.8327 13.8041 44.8795 13.7994 44.9238 13.7855C44.9681 13.7717 45.009 13.7491 45.044 13.7192C45.1168 13.657 45.163 13.5705 45.1735 13.4768C45.184 13.383 45.158 13.2888 45.1007 13.2128C45.0727 13.1766 45.0373 13.1464 44.9967 13.1242C44.9562 13.1019 44.9114 13.0881 44.8651 13.0835C44.8188 13.0789 44.772 13.0837 44.7277 13.0975C44.6834 13.1113 44.6425 13.1339 44.6075 13.1639Z" fill="white"/>
<path style="mix-blend-mode:multiply" opacity="0.6" fill-rule="evenodd" clip-rule="evenodd" d="M20.9542 38.1978C22.0159 39.0937 23.1666 39.8842 24.3892 40.5574C26.2507 41.5446 33.0094 43.0468 37.3478 42.5914C40.1259 42.2957 43.6657 40.0553 46.3521 37.3191C46.3696 37.2999 46.3892 37.2829 46.4023 37.2659C46.4154 37.2489 41.4593 38.068 31.6432 34.668C32.4696 31.3485 32.7706 27.9252 32.5358 24.517L23.8938 34.7297L20.9542 38.1978Z" fill="url(#paint13_linear_1220_24509)"/>
<path fill-rule="evenodd" clip-rule="evenodd" d="M46.7891 5.01064C46.7891 5.01064 42.5837 4.64043 41.6519 3.45957C40.72 2.27872 41.3442 0 41.3442 0C41.3442 0 41.6322 1.73617 42.7278 2.71915C43.8233 3.70213 46.7891 5.01064 46.7891 5.01064Z" fill="url(#paint14_linear_1220_24509)"/>
<path style="mix-blend-mode:multiply" fill-rule="evenodd" clip-rule="evenodd" d="M32.5349 24.517C32.5349 24.517 33.0652 34.351 30.023 37.4255C26.9809 40.4999 22.4307 39.3404 22.4307 39.3404L20.9533 38.2021L32.5349 24.517Z" fill="url(#paint15_linear_1220_24509)"/>
<path fill-rule="evenodd" clip-rule="evenodd" d="M32.5629 15.917C32.5629 15.917 33.4948 28.5851 30.3391 33.051C27.1835 37.517 18.6986 38.617 18.6986 38.617C20.8356 36.2073 22.841 33.6896 24.7066 31.0744C27.7858 26.7532 32.5629 15.917 32.5629 15.917Z" fill="url(#paint16_linear_1220_24509)"/>
<path d="M41.1683 42.5021L42.5388 45.4617L48.0273 46.6702L42.5388 46.451L39.8414 46.9999L41.5677 45.5361L40.1797 42.8276L41.1683 42.5021Z" fill="#FFCE5C"/>
<path d="M28.5704 42.8638L27.8633 45.1702L31.582 47L26.7635 46.1212L24.221 46.4872L27.0013 45.1702L27.4705 42.6744L28.5704 42.8638Z" fill="#FFCE5C"/>
<g style="mix-blend-mode:multiply">
<path fill-rule="evenodd" clip-rule="evenodd" d="M32.6705 21.8276C32.6705 21.8276 32.1075 28.9149 29.9666 31.4893C27.8258 34.0638 21.2919 36.183 21.2919 36.183L25.8551 31.3191L23.1599 33.1723L18.7015 38.6106C18.7015 38.6106 27.0096 37.3915 29.9143 33.5893C32.9237 29.6489 32.6705 21.8276 32.6705 21.8276Z" fill="#DECAD4"/>
</g>
<g style="mix-blend-mode:multiply" opacity="0.6">
<path fill-rule="evenodd" clip-rule="evenodd" d="M44.2725 26.4234C50.4332 25.2893 52.1289 21.4446 52.1289 21.4446C52.1289 21.4446 48.9449 20.8063 47.4391 19.8808L45.6714 16.9957C45.5863 16.9957 45.5012 16.9957 45.4095 16.9765C44.45 16.8169 43.5381 16.4537 42.7384 15.9127C42.59 17.3744 45.2939 21.4744 45.4052 22.6829C45.5165 23.8914 44.2725 26.4234 44.2725 26.4234Z" fill="#FFCAD4"/>
</g>
<path d="M31.2852 42.3405C31.2852 42.3405 29.404 43.0256 28.0248 42.8384C26.6455 42.6511 25.8555 41.1362 25.8555 41.1362C25.8555 41.1362 28.7144 39.2745 31.2852 42.3405Z" fill="url(#paint17_linear_1220_24509)"/>
</g>
<defs>
<linearGradient id="paint0_linear_1220_24509" x1="37.1263" y1="47.0085" x2="37.1263" y2="34.6681" gradientUnits="userSpaceOnUse">
<stop stop-color="#00AE8F"/>
<stop offset="1" stop-color="#00FFD1"/>
</linearGradient>
<linearGradient id="paint1_linear_1220_24509" x1="12.1962" y1="47" x2="12.1962" y2="36.1893" gradientUnits="userSpaceOnUse">
<stop stop-color="#00AE8F"/>
<stop offset="1" stop-color="#00FFD1"/>
</linearGradient>
<linearGradient id="paint2_linear_1220_24509" x1="14.276" y1="47" x2="14.276" y2="38.6171" gradientUnits="userSpaceOnUse">
<stop stop-color="#3989E8"/>
<stop offset="1" stop-color="#5142D8"/>
</linearGradient>
<linearGradient id="paint3_linear_1220_24509" x1="20.0221" y1="41.2702" x2="20.0221" y2="38.0681" gradientUnits="userSpaceOnUse">
<stop offset="0.02" stop-color="#F0C2D6"/>
<stop offset="0.99" stop-color="#BD89C4"/>
</linearGradient>
<linearGradient id="paint4_linear_1220_24509" x1="40.5095" y1="42.8297" x2="40.5095" y2="40.4574" gradientUnits="userSpaceOnUse">
<stop stop-color="#3D2CBF"/>
<stop offset="1" stop-color="#1B4A97"/>
</linearGradient>
<linearGradient id="paint5_linear_1220_24509" x1="36.9527" y1="42.6745" x2="36.9527" y2="0.980869" gradientUnits="userSpaceOnUse">
<stop stop-color="#5142D8"/>
<stop offset="1" stop-color="#3989E8"/>
</linearGradient>
<linearGradient id="paint6_linear_1220_24509" x1="41.8328" y1="36.1893" x2="41.8328" y2="12.8425" gradientUnits="userSpaceOnUse">
<stop stop-color="#00AE8F"/>
<stop offset="1" stop-color="#00FFD1"/>
</linearGradient>
<linearGradient id="paint7_linear_1220_24509" x1="39.8122" y1="25.4149" x2="47.8776" y2="9.05227" gradientUnits="userSpaceOnUse">
<stop offset="0.02" stop-color="#F0C2D6"/>
<stop offset="0.99" stop-color="#BD89C4"/>
</linearGradient>
<linearGradient id="paint8_linear_1220_24509" x1="44.7115" y1="24.517" x2="44.7115" y2="15.917" gradientUnits="userSpaceOnUse">
<stop offset="0.01" stop-color="#FF5A55"/>
<stop offset="1" stop-color="#FF9536"/>
</linearGradient>
<linearGradient id="paint9_linear_1220_24509" x1="47.4348" y1="26.4234" x2="47.4348" y2="15.9191" gradientUnits="userSpaceOnUse">
<stop stop-color="#FF9D31"/>
<stop offset="1" stop-color="#FFCC1B"/>
</linearGradient>
<linearGradient id="paint10_linear_1220_24509" x1="42.5347" y1="14.121" x2="46.2465" y2="11.0468" gradientUnits="userSpaceOnUse">
<stop stop-color="#3D2CBF"/>
<stop offset="1" stop-color="#1B4A97"/>
</linearGradient>
<linearGradient id="paint11_linear_1220_24509" x1="42.6023" y1="14.2297" x2="46.0129" y2="11.4049" gradientUnits="userSpaceOnUse">
<stop stop-color="white"/>
<stop offset="1" stop-color="#D0C7F8"/>
</linearGradient>
<linearGradient id="paint12_linear_1220_24509" x1="43.1189" y1="13.9246" x2="44.9522" y2="11.5036" gradientUnits="userSpaceOnUse">
<stop offset="0.01" stop-color="#934A1A"/>
<stop offset="0.98" stop-color="#33112F"/>
</linearGradient>
<linearGradient id="paint13_linear_1220_24509" x1="33.6794" y1="42.6744" x2="33.6794" y2="24.517" gradientUnits="userSpaceOnUse">
<stop offset="0.02" stop-color="#F0C2D6"/>
<stop offset="0.99" stop-color="#BD89C4"/>
</linearGradient>
<linearGradient id="paint14_linear_1220_24509" x1="43.9651" y1="5.01064" x2="43.9651" y2="0" gradientUnits="userSpaceOnUse">
<stop stop-color="#00AE8F"/>
<stop offset="1" stop-color="#00FFD1"/>
</linearGradient>
<linearGradient id="paint15_linear_1220_24509" x1="26.7626" y1="39.5531" x2="26.7626" y2="24.517" gradientUnits="userSpaceOnUse">
<stop offset="0.02" stop-color="#F0C2D6"/>
<stop offset="0.99" stop-color="#BD89C4"/>
</linearGradient>
<linearGradient id="paint16_linear_1220_24509" x1="25.6969" y1="38.617" x2="25.6969" y2="15.917" gradientUnits="userSpaceOnUse">
<stop stop-color="#00AE8F"/>
<stop offset="1" stop-color="#00FFD1"/>
</linearGradient>
<linearGradient id="paint17_linear_1220_24509" x1="28.5703" y1="42.8639" x2="28.5703" y2="40.5745" gradientUnits="userSpaceOnUse">
<stop stop-color="#3989E8"/>
<stop offset="1" stop-color="#5142D8"/>
</linearGradient>
<clipPath id="clip0_1220_24509">
<rect width="53" height="47" fill="white" transform="matrix(-1 0 0 1 53 0)"/>
</clipPath>
</defs>
</svg>
