<svg width="14" height="25" viewBox="0 0 14 25" fill="none" xmlns="http://www.w3.org/2000/svg">
<path d="M11.375 0.5C12.8247 0.5 14 1.70883 14 3.2V21.8C14 23.2912 12.8247 24.5 11.375 24.5H2.625C1.17525 24.5 0 23.2912 0 21.8V3.2C0 1.70883 1.17525 0.5 2.625 0.5H11.375ZM11.375 2.3H2.625C2.14175 2.3 1.75 2.70294 1.75 3.2V21.8C1.75 22.2971 2.14175 22.7 2.625 22.7H11.375C11.8582 22.7 12.25 22.2971 12.25 21.8V3.2C12.25 2.70294 11.8582 2.3 11.375 2.3ZM8.45702 19.1C8.94026 19.0993 9.3326 19.5016 9.33333 19.9986C9.33406 20.4957 8.9429 20.8993 8.45965 20.9L5.54298 20.9045C5.05974 20.9053 4.66739 20.5029 4.66667 20.0059C4.66594 19.5088 5.0571 19.1053 5.54035 19.1045L8.45702 19.1Z" fill="#14CDCD"/>
</svg>
