<svg width="26" height="27" viewBox="0 0 26 27" fill="none" xmlns="http://www.w3.org/2000/svg">
<path d="M25.4324 24.6441C25.2084 24.4201 24.8724 24.4201 24.6484 24.6441C24.2844 25.0081 23.6124 25.0081 23.2484 24.6441C22.7164 24.1121 21.9884 23.9441 21.3164 24.0841C22.6324 22.2921 23.4444 20.1081 23.6124 17.8121C23.6684 17.0841 23.2204 16.3841 22.4924 16.1321L20.5604 15.4041V10.4761C20.5604 9.55205 19.8044 8.79605 18.8804 8.79605H18.3204V5.99605H20.0004C20.3084 5.99605 20.5604 5.74405 20.5604 5.43605C20.5604 5.12805 20.3084 4.87606 20.0004 4.87606H17.7604H14.9604V2.91605C14.9604 1.82405 14.0924 0.956055 13.0004 0.956055C11.9084 0.956055 11.0404 1.82405 11.0404 2.91605V4.87606H8.24039H6.00039C5.69239 4.87606 5.44039 5.12805 5.44039 5.43605C5.44039 5.74405 5.69239 5.99605 6.00039 5.99605H7.68039V8.79605H7.12039C6.19639 8.79605 5.44039 9.55205 5.44039 10.4761V15.4041L3.50839 16.1041C2.80839 16.3561 2.36039 17.0561 2.38839 17.7841C2.55639 20.0801 3.36839 22.2641 4.68439 24.0561C4.54439 24.0281 4.40439 24.0001 4.23639 24.0001C3.67639 24.0001 3.14439 24.2241 2.75239 24.6161C2.38839 24.9801 1.71639 24.9801 1.35239 24.6161C1.12839 24.3921 0.792391 24.3921 0.568391 24.6161C0.344391 24.8401 0.344391 25.1761 0.568391 25.4001C0.960391 25.7921 1.49239 26.0161 2.05239 26.0161C2.61239 26.0161 3.14439 25.7921 3.53639 25.4001C3.90039 25.0361 4.57239 25.0361 4.93639 25.4001C5.41239 25.8761 6.08439 26.1001 6.75639 25.9881H6.81239H6.84039H6.86839C7.26039 25.9041 7.62439 25.7081 7.90439 25.4281C8.26839 25.0641 8.94039 25.0641 9.30439 25.4281C9.69639 25.8201 10.2284 26.0441 10.7884 26.0441C11.3484 26.0441 11.8804 25.8201 12.2724 25.4281C12.6644 25.0361 13.2804 25.0361 13.6724 25.4281C14.4844 26.2401 15.8284 26.2401 16.6404 25.4281C17.0324 25.0361 17.6484 25.0361 18.0404 25.4281C18.3204 25.7081 18.7124 25.9041 19.1044 25.9881H19.1324C19.2724 26.0161 19.4124 26.0161 19.5244 26.0161C20.0844 26.0161 20.6164 25.7921 21.0084 25.4001C21.4004 25.0081 22.0164 25.0081 22.4084 25.4001C22.8004 25.7921 23.3324 26.0161 23.8924 26.0161C24.4524 26.0161 24.9844 25.7921 25.3764 25.4001C25.6564 25.2041 25.6564 24.8681 25.4324 24.6441ZM12.1604 2.91605C12.1604 2.44005 12.5244 2.07605 13.0004 2.07605C13.4764 2.07605 13.8404 2.44005 13.8404 2.91605V4.87606H12.1604V2.91605ZM8.80039 5.99605H11.6004H14.4004H17.2004V8.79605H8.80039V5.99605ZM6.56039 10.4761C6.56039 10.1681 6.81239 9.91605 7.12039 9.91605H18.8804C19.1884 9.91605 19.4404 10.1681 19.4404 10.4761V15.0121L13.1964 12.7441C13.1684 12.7441 13.1684 12.7441 13.1404 12.7441H13.1124C13.0564 12.7441 12.9724 12.7441 12.9164 12.7441H12.8884C12.8604 12.7441 12.8604 12.7441 12.8324 12.7441L6.56039 15.0121V10.4761ZM15.8844 24.6441C15.4924 25.0361 14.8764 25.0361 14.4844 24.6441C13.6724 23.8321 12.3284 23.8321 11.5164 24.6441C11.1524 25.0081 10.4804 25.0081 10.1164 24.6441C9.72439 24.2521 9.19239 24.0281 8.63239 24.0281C8.07239 24.0281 7.54039 24.2521 7.14839 24.6441C7.06439 24.7281 6.98039 24.7841 6.86839 24.8401C4.93639 23.0481 3.70439 20.4721 3.50839 17.7281C3.48039 17.5041 3.64839 17.2521 3.87239 17.1681L12.4404 14.0601V21.6761C12.4404 21.9841 12.6924 22.2361 13.0004 22.2361C13.3084 22.2361 13.5604 21.9841 13.5604 21.6761V14.0601L22.1284 17.1401C22.3524 17.2241 22.5204 17.4481 22.4924 17.7001C22.2964 20.4441 21.0924 23.0201 19.1324 24.8121C19.0484 24.7561 18.9364 24.7001 18.8524 24.6161C18.0404 23.8041 16.6964 23.8041 15.8844 24.6441Z" fill="#263954"/>
</svg>
