<svg width="1181" height="637" viewBox="0 0 1181 637" fill="none" xmlns="http://www.w3.org/2000/svg">
<g filter="url(#filter0_d_18_4298)">
<path d="M539.34 215.858L530.098 216.051L522.705 216.217L508.166 216.52L469.378 217.375L464.439 129.873L479.558 129.101L486.896 128.715L501.462 202.35L522.539 213.57L519.118 155.346L525.988 155.126L530.485 154.96L539.34 215.858Z" fill="white"/>
<path opacity="0.26" d="M465.984 160.17L492.855 158.902L496.524 177.456L466.84 177.015L465.984 160.17Z" fill="#A4C9F9"/>
<path opacity="0.85" d="M530.374 217.871L470.592 229.78L469.267 224.598L464.439 129.873L479.558 129.101L466.122 130.976L477.461 215.886L508.166 216.52L522.732 216.851L522.705 216.217L519.118 155.346L525.988 155.126L520.967 156.146L530.098 216.051L530.374 217.871Z" fill="#A4C9F9"/>
<path d="M951.059 387.085L950.314 408.175L948.879 408.147L948.162 392.268L948.024 388.601L947.941 386.975L951.059 387.085Z" fill="white"/>
<path d="M1006.35 392.847L1003.84 396.127L991.091 389.925C991.091 389.925 991.063 389.925 991.008 389.925C990.98 389.925 990.98 389.925 990.953 389.925C990.925 389.925 990.897 389.925 990.87 389.925C990.842 389.925 990.815 389.925 990.787 389.925C990.759 389.925 990.732 389.925 990.677 389.925C990.649 389.925 990.621 389.925 990.594 389.925C987.118 389.98 965.71 390.421 950.895 391.965C949.957 392.047 949.047 392.158 948.192 392.268C942.784 392.929 938.619 393.729 937.129 394.777C931.225 398.884 936.605 410.105 936.605 410.105L933.736 409.994C933.736 409.994 927.032 398.802 915.61 386.341C914.7 385.348 913.762 384.356 912.796 383.363C908.162 378.566 902.865 373.714 897.016 369.359C896.023 368.614 895.03 367.897 894.009 367.181C889.264 363.9 884.188 360.95 878.836 358.634C877.622 358.111 876.436 357.614 875.249 357.173C873.953 356.677 872.684 356.236 871.47 355.823C844.213 347.001 833.123 360.868 833.123 360.868C833.123 360.868 827.661 346.78 805.425 331.204C803.218 329.66 800.845 328.089 798.28 326.517C797.59 326.104 796.873 325.663 796.128 325.249C768.181 309.342 711.902 298.646 707.35 297.819C707.323 297.819 707.295 297.791 707.24 297.791C707.212 297.791 707.185 297.791 707.157 297.764C707.13 297.764 707.13 297.764 707.102 297.764C707.074 297.764 707.047 297.764 707.047 297.764L704.398 291.285C867.028 324.036 1006.35 392.847 1006.35 392.847Z" fill="white"/>
<path d="M818.528 413.468L815.659 413.358L800.816 346.56L796.099 325.332L795.299 321.693L804.513 325.856L805.368 331.287L808.458 350.53L818.528 413.468Z" fill="white"/>
<path d="M878.669 410.518L876.986 410.463L874.365 384.769L871.413 355.878L871.082 352.487L874.917 352.625L875.22 357.229L877.096 386.175L878.669 410.518Z" fill="white"/>
<path d="M900.987 411.29L899.553 411.235L897.732 396.899L893.952 367.208L892.932 359.158L896.408 363.349L896.987 369.386L899.691 397.919L900.987 411.29Z" fill="white"/>
<path d="M916.657 409.415L915.471 409.388L915.085 405.914L912.768 383.391L911.664 372.998L911.802 372.942L914.864 371.316L915.085 376.278L915.554 386.368L916.52 406.658L916.657 409.415Z" fill="white"/>
<path opacity="0.85" d="M990.593 389.925C987.117 389.98 965.709 390.421 950.894 391.965L950.343 408.202L948.908 408.147L948.191 392.268C942.784 392.93 938.618 393.729 937.128 394.777C931.224 398.884 936.604 410.105 936.604 410.105L933.735 409.994C933.735 409.994 927.031 398.802 915.61 386.341L916.575 406.631L915.141 405.887L912.796 383.336C908.161 378.539 902.864 373.687 897.016 369.331L899.747 397.892L897.76 396.872L894.008 367.181C889.263 363.9 884.187 360.95 878.835 358.635C877.621 358.111 876.435 357.615 875.249 357.173L877.125 386.148L874.394 384.742L871.442 355.85C844.185 347.028 833.095 360.895 833.095 360.895C833.095 360.895 827.632 346.808 805.397 331.232L808.486 350.502L800.845 346.532L796.127 325.304C768.181 309.398 711.902 298.701 707.35 297.874C712.453 298.729 782.444 310.528 805.728 324.284C829.894 338.565 826.253 341.956 835.412 345.788C844.571 349.62 861.951 347.332 883.525 352.9C895.608 356.016 904.161 365.003 911.858 372.915C912.961 374.073 914.065 375.176 915.141 376.251C919.969 381.075 924.603 385.045 929.762 386.313C933.818 387.306 940.549 388.05 948.053 388.546C949.046 388.601 950.039 388.684 951.032 388.739C967.778 389.814 987.31 389.897 990.593 389.925Z" fill="#A4C9F9"/>
<path d="M333.674 167.476L318.445 51L336.212 167.559L333.674 167.476Z" fill="white"/>
<path d="M324.239 162.348C323.301 161.356 316.266 124.635 316.266 124.635L326.528 160.832L324.239 162.348Z" fill="white"/>
<path d="M287.739 185.092L282.746 162.845L335.908 153.168L338.335 166.208L381.234 162.403L421.071 176.739L287.739 185.092Z" fill="url(#paint0_linear_18_4298)"/>
<path opacity="0.85" d="M335.908 153.168L288.512 163.286L294.802 184.651L319.272 183.107L338.335 166.208L376.517 162.817L350.75 166.621L342.391 182.666L287.739 185.092L282.746 162.845L335.908 153.168Z" fill="#A4C9F9"/>
<path d="M278.305 184.761L267.436 128.384L279.905 184.817L278.305 184.761Z" fill="white"/>
<path d="M564.996 219.332L266.607 235.873L255.6 184.293C256.482 184.072 312.541 170.26 405.843 173.486C467.915 175.636 517.407 194.906 543.864 207.781C557.465 214.397 564.996 219.332 564.996 219.332Z" fill="url(#paint1_linear_18_4298)"/>
<g style="mix-blend-mode:lighten" opacity="0.63">
<path d="M543.837 207.781L515.669 209.628C515.669 209.628 454.894 180.957 411.139 177.373C367.634 173.817 256.869 184.182 255.6 184.293C256.482 184.072 312.541 170.26 405.843 173.486C467.887 175.636 517.38 194.934 543.837 207.781Z" fill="url(#paint2_linear_18_4298)"/>
</g>
<path opacity="0.64" d="M284.097 227.685L275.959 185.175L279.904 184.817L292.263 227.961L308.402 226.748L302.498 182.473L305.147 182.556L316.816 227.051L401.566 220.711L396.904 182.142C396.904 182.142 467.17 178.503 523.228 209.876C579.286 241.249 284.097 227.685 284.097 227.685Z" fill="#A4C9F9"/>
<path opacity="0.64" d="M306.692 227.024L306.912 228.733C299.519 228.457 293.615 228.237 289.67 228.071L278.938 190.578L277.007 190.744L275.959 185.313L279.904 184.954L292.263 228.099L306.692 227.024Z" fill="#A4C9F9"/>
<path opacity="0.64" d="M399.883 220.959L400.545 226.445L352.598 230.029C338.473 229.725 325.534 229.339 314.803 228.981L304.126 188.318L303.216 188.29L302.443 182.611L305.092 182.694L316.761 227.189L399.883 220.959Z" fill="#A4C9F9"/>
<path opacity="0.64" d="M528.36 220.352C527.284 218.891 525.27 217.319 522.236 215.638C471.198 187.077 408.409 187.518 397.539 187.849L396.877 182.28C396.877 182.28 467.143 178.641 523.201 210.014C530.733 214.204 531.919 217.623 528.36 220.352Z" fill="#A4C9F9"/>
<path d="M957.847 433.786L426.672 486.441L45.4922 425.24C48.113 377.326 68.2797 322.355 68.2797 322.355L122.241 317.503L123.152 291.616L180.948 286.902L182.879 231.297L587.288 204.969L629.829 280.368L646.133 280.92L679.431 345.429L775.575 343.003L812.653 409.581L954.04 404.867L957.847 433.786Z" fill="url(#paint3_linear_18_4298)"/>
<path opacity="0.79" d="M646.104 280.92L175.678 313.781L122.24 317.503L123.123 291.616L180.947 286.902L182.851 231.297L587.26 204.969L629.8 280.368L646.104 280.92Z" fill="url(#paint4_linear_18_4298)"/>
<path d="M57.6291 370.572L49.6562 415.48L341.397 472.85L726.826 442.139L682.409 349.702L57.6291 370.572Z" fill="url(#paint5_linear_18_4298)"/>
<path d="M57.6291 370.572L49.6562 415.48L341.397 472.85L726.826 442.139L682.409 349.702L57.6291 370.572Z" fill="url(#paint6_linear_18_4298)"/>
<path opacity="0.62" d="M182.189 404.536L540.913 393.343L546.072 409.608L617.028 431.112L689.032 430.588L661.113 352.404L682.411 349.702L726.827 442.139L243.517 462.981L183.541 415.949L182.189 404.536Z" fill="#17A3AE"/>
<g style="mix-blend-mode:screen" opacity="0.63">
<path d="M717.143 435.412L679.844 356.291L410.395 377.298L502.538 433.593L717.143 435.412Z" fill="url(#paint7_linear_18_4298)"/>
<path d="M717.143 435.412L679.844 356.291L410.395 377.298L502.538 433.593L717.143 435.412Z" fill="url(#paint8_linear_18_4298)"/>
</g>
<path opacity="0.62" d="M215.432 270.692L613.992 252.304L601.385 234.026L215.652 264.875L215.432 270.692Z" fill="#17A3AE"/>
<path d="M110.13 369.883L101.385 482.527L98.7637 482.168L107.978 369.607L110.13 369.883Z" fill="url(#paint9_linear_18_4298)"/>
<path d="M84.1425 370.268L72.0039 482.389L70.459 482.196L82.8735 370.131L84.1425 370.268Z" fill="url(#paint10_linear_18_4298)"/>
<path d="M67.0107 371.013L49.1062 482.251L48.1406 482.141L66.2106 370.903L67.0107 371.013Z" fill="url(#paint11_linear_18_4298)"/>
<path d="M676.534 350.226L715.985 455.758L715.074 456.144L675.762 350.53L676.534 350.226Z" fill="url(#paint12_linear_18_4298)"/>
<path d="M662.631 351.908L700.895 458.046L699.046 458.68L661.113 352.404L662.631 351.908Z" fill="url(#paint13_linear_18_4298)"/>
<path d="M644.12 352.129L676.922 458.653L676.011 459.038L643.375 352.459L644.12 352.129Z" fill="url(#paint14_linear_18_4298)"/>
<path d="M617.691 353.176L646.023 461.961L643.43 462.539L615.566 353.645L617.691 353.176Z" fill="url(#paint15_linear_18_4298)"/>
<path d="M589.798 353.7L610.02 464.883L607.399 465.214L587.646 353.976L589.798 353.7Z" fill="url(#paint16_linear_18_4298)"/>
<path d="M564.5 354.61L580.97 466.179L579.26 466.399L563.121 354.775L564.5 354.61Z" fill="url(#paint17_linear_18_4298)"/>
<path d="M474.869 357.063L485.821 469.211L484.497 469.376L473.793 357.174L474.869 357.063Z" fill="url(#paint18_linear_18_4298)"/>
<path d="M443.032 357.559L451.529 470.011L449.874 470.121L441.652 357.642L443.032 357.559Z" fill="url(#paint19_linear_18_4298)"/>
<path d="M382.863 359.875L391.056 472.547L388.408 472.602L380.711 359.903L382.863 359.875Z" fill="url(#paint20_linear_18_4298)"/>
<path d="M353.924 360.316L357.869 472.96L356.545 473.043L352.82 360.372L353.924 360.316Z" fill="url(#paint21_linear_18_4298)"/>
<path d="M325.039 362.108L329.205 474.477H326.529L322.859 362.108H325.039Z" fill="url(#paint22_linear_18_4298)"/>
<path d="M232.758 365.113L232.73 477.564L230.082 477.454L230.606 365.058L232.758 365.113Z" fill="url(#paint23_linear_18_4298)"/>
<path d="M202.245 366.822L200.783 479.77L198.135 479.604L200.094 366.657L202.245 366.822Z" fill="url(#paint24_linear_18_4298)"/>
<path d="M54.707 387.03L382.119 380.496L686.522 367.126L382.56 377.877L54.707 387.03Z" fill="url(#paint25_linear_18_4298)"/>
<path d="M54.127 406.19L381.539 399.656L695.625 388.022L381.98 397.037L54.127 406.19Z" fill="url(#paint26_linear_18_4298)"/>
<path d="M66.5977 428.686L393.982 422.152L708.096 410.546L394.451 419.533L66.5977 428.686Z" fill="url(#paint27_linear_18_4298)"/>
<path d="M75.7832 449.197L403.195 442.663L717.282 431.057L403.636 440.044L75.7832 449.197Z" fill="url(#paint28_linear_18_4298)"/>
<path d="M731.074 435.054L703.928 358.745L775.077 357.697L784.788 372.557L722.963 373.604L728.564 392.02L792.926 389.787L805.451 409.415L733.585 408.643L739.682 426.646L813.424 424.716L827.135 444.813L734.854 445.999L731.074 435.054Z" fill="url(#paint29_linear_18_4298)"/>
<path d="M731.074 435.054L703.928 358.745L775.077 357.697L784.788 372.557L722.963 373.604L728.564 392.02L792.926 389.787L805.451 409.415L733.585 408.643L739.682 426.646L813.424 424.716L827.135 444.813L734.854 445.999L731.074 435.054Z" fill="url(#paint30_linear_18_4298)"/>
<path opacity="0.53" d="M776.594 372.694L772.401 361.061L704.7 360.923L703.928 358.745L775.077 357.697L784.788 372.557L776.594 372.694Z" fill="#0E5498"/>
<path opacity="0.53" d="M728.565 392.02L792.927 389.787L805.452 409.415L797.452 409.333L789.672 393.343L726.385 394.832L721.889 377.078L722.965 373.604L728.565 392.02Z" fill="#0E5498"/>
<path opacity="0.53" d="M733.586 408.644L731.379 412.448L736.952 431.718L810.142 431.029L817.453 444.482L827.136 444.813L813.425 424.716L739.683 426.646L733.586 408.644Z" fill="#0E5498"/>
<path opacity="0.62" d="M494.592 268.734L174.767 295.393L175.678 313.781L122.24 317.503L123.123 291.616L180.947 286.902L182.851 231.297L590.129 210.042L211.9 243.592L210.494 283.925L494.592 268.734Z" fill="url(#paint31_linear_18_4298)"/>
<g style="mix-blend-mode:screen" opacity="0.63">
<path d="M500.882 268.321L534.374 269.865L545.823 293.298L630.903 284.862L587.011 212.082L432.271 231.049L500.882 268.321Z" fill="url(#paint32_linear_18_4298)"/>
<path d="M500.882 268.321L534.374 269.865L545.823 293.298L630.903 284.862L587.011 212.082L432.271 231.049L500.882 268.321Z" fill="url(#paint33_linear_18_4298)"/>
</g>
<path d="M171.844 232.592L620.283 208.58L625.138 197.25L171.982 228.705L171.844 232.592Z" fill="url(#paint34_linear_18_4298)"/>
<g opacity="0.76">
<path d="M204.839 229.863L204.039 252.91L205.363 274.855L206.136 252.386L204.839 229.863Z" fill="url(#paint35_linear_18_4298)"/>
<path d="M229.447 228.788L228.646 251.835L229.998 273.807L230.771 251.339L229.447 228.788Z" fill="url(#paint36_linear_18_4298)"/>
<path d="M258.359 226.996L258.746 250.071L261.201 271.905L260.842 249.437L258.359 226.996Z" fill="url(#paint37_linear_18_4298)"/>
<path d="M288.43 227.933L289.064 250.98L291.74 272.815L291.133 250.346L288.43 227.933Z" fill="url(#paint38_linear_18_4298)"/>
<path d="M312.955 225.369L313.562 248.416L316.238 270.251L315.659 247.782L312.955 225.369Z" fill="url(#paint39_linear_18_4298)"/>
<path d="M341.701 221.813L343.494 244.805L347.274 266.474L345.536 244.061L341.701 221.813Z" fill="url(#paint40_linear_18_4298)"/>
<path d="M369.594 221.703L371.939 244.667L376.242 266.226L373.953 243.868L369.594 221.703Z" fill="url(#paint41_linear_18_4298)"/>
<path d="M398.34 221.317L400.685 244.281L404.961 265.84L402.699 243.482L398.34 221.317Z" fill="url(#paint42_linear_18_4298)"/>
<path d="M426.369 216.906L429.873 239.705L435.28 261.015L431.859 238.795L426.369 216.906Z" fill="url(#paint43_linear_18_4298)"/>
<path d="M451.859 217.761L455.722 240.505L461.46 261.732L457.68 239.567L451.859 217.761Z" fill="url(#paint44_linear_18_4298)"/>
<path d="M479.061 215.39L482.923 238.134L488.661 259.389L484.882 237.224L479.061 215.39Z" fill="url(#paint45_linear_18_4298)"/>
<path d="M510.871 212.247L515.892 234.77L522.679 255.695L517.796 233.75L510.871 212.247Z" fill="url(#paint46_linear_18_4298)"/>
<path d="M533.906 211.42L538.927 233.916L545.714 254.84L540.831 232.896L533.906 211.42Z" fill="url(#paint47_linear_18_4298)"/>
<path d="M553.023 208.746L558.044 231.269L564.859 252.193L559.976 230.249L553.023 208.746Z" fill="url(#paint48_linear_18_4298)"/>
<path d="M569.77 207.781L576.722 229.781L585.301 250.043L578.542 228.595L569.77 207.781Z" fill="url(#paint49_linear_18_4298)"/>
<path d="M583.316 207.312L591.317 228.953L600.89 248.747L593.082 227.658L583.316 207.312Z" fill="url(#paint50_linear_18_4298)"/>
</g>
<g opacity="0.76">
<path d="M231.019 280.644L230.219 303.691L231.571 325.663L232.343 303.195L231.019 280.644Z" fill="url(#paint51_linear_18_4298)"/>
<path d="M255.656 279.569L254.855 302.643L256.18 324.588L256.952 302.12L255.656 279.569Z" fill="url(#paint52_linear_18_4298)"/>
<path d="M284.566 277.777L284.925 300.852L287.38 322.713L287.022 300.217L284.566 277.777Z" fill="url(#paint53_linear_18_4298)"/>
<path d="M148.615 286.709L146.684 309.701L146.959 331.673L148.835 309.287L148.615 286.709Z" fill="url(#paint54_linear_18_4298)"/>
<path d="M173.279 286.847L171.348 309.839L171.596 331.838L173.472 309.425L173.279 286.847Z" fill="url(#paint55_linear_18_4298)"/>
<path d="M202.245 286.461L201.473 309.535L202.852 331.48L203.597 309.012L202.245 286.461Z" fill="url(#paint56_linear_18_4298)"/>
<path d="M314.639 278.714L315.246 301.789L317.922 323.623L317.315 301.127L314.639 278.714Z" fill="url(#paint57_linear_18_4298)"/>
<path d="M339.137 276.15L339.771 299.225L342.447 321.031L341.84 298.563L339.137 276.15Z" fill="url(#paint58_linear_18_4298)"/>
<path d="M367.883 272.594L369.676 295.586L373.483 317.255L371.718 294.842L367.883 272.594Z" fill="url(#paint59_linear_18_4298)"/>
<path d="M395.801 272.511L398.118 295.448L402.422 317.034L400.16 294.649L395.801 272.511Z" fill="url(#paint60_linear_18_4298)"/>
<path d="M424.547 272.125L426.864 295.062L431.168 316.648L428.906 294.263L424.547 272.125Z" fill="url(#paint61_linear_18_4298)"/>
<path d="M452.576 267.687L456.052 290.486L461.459 311.824L458.039 289.576L452.576 267.687Z" fill="url(#paint62_linear_18_4298)"/>
<path d="M478.041 268.542L481.903 291.285L487.642 312.513L483.89 290.348L478.041 268.542Z" fill="url(#paint63_linear_18_4298)"/>
<path d="M505.27 266.198L509.104 288.942L514.842 310.17L511.091 288.005L505.27 266.198Z" fill="url(#paint64_linear_18_4298)"/>
<path d="M537.051 263.055L542.072 285.578L548.886 306.475L544.003 284.531L537.051 263.055Z" fill="url(#paint65_linear_18_4298)"/>
<path d="M560.086 262.201L565.107 284.724L571.921 305.621L567.038 283.676L560.086 262.201Z" fill="url(#paint66_linear_18_4298)"/>
<path d="M579.232 259.554L584.253 282.077L591.04 302.974L586.157 281.03L579.232 259.554Z" fill="url(#paint67_linear_18_4298)"/>
<path d="M595.979 258.562L602.903 280.589L611.483 300.824L604.724 279.376L595.979 258.562Z" fill="url(#paint68_linear_18_4298)"/>
<path d="M609.523 258.093L617.524 279.734L627.069 299.556L619.289 278.466L609.523 258.093Z" fill="url(#paint69_linear_18_4298)"/>
</g>
<path d="M123.15 291.258L123.702 275.048L613.357 252.304L618.516 259.416L123.15 291.258Z" fill="url(#paint70_linear_18_4298)"/>
<g opacity="0.79">
<path d="M679.43 345.429L656.036 346.229L653.47 346.312L619.951 347.469L617.468 347.552L589.136 348.517L586.68 348.6L558.32 349.565L555.865 349.647L529.077 350.557L526.649 350.64L498.013 351.632L495.585 351.715L466.673 352.68L464.273 352.762L437.127 353.7L434.727 353.783L405.842 354.775L403.442 354.858L374.227 355.85L371.827 355.933L340.184 357.008L337.783 357.091L308.982 358.056L306.526 358.138L277.67 359.131L275.297 359.213L247.323 360.178L244.951 360.261L215.79 361.254L213.307 361.336L188.534 362.191L186.161 362.246L158.518 363.211L156.146 363.294L131.427 364.121L129.054 364.203L104.198 365.058L101.798 365.141L90.4039 365.527L77.7135 365.968L75.3134 366.05L57.7676 366.629L68.7199 327.207L68.7751 327.014L81.8517 326.076L84.0587 325.911L105.798 324.34L107.977 324.202L130.82 322.548L132.999 322.41L157.801 320.618L159.953 320.48L186.299 318.578L188.451 318.44L212.121 316.731L214.383 316.565L242.771 314.525L244.923 314.387L272.621 312.403L274.773 312.237L303.602 310.169L305.837 310.032L333.259 308.047L335.411 307.909L367.164 305.621L369.344 305.483L398.67 303.388L400.849 303.222L429.844 301.127L432.023 300.989L459.308 299.032L461.459 298.866L487.337 297.019L489.516 296.854L518.235 294.814L520.414 294.649L544.802 292.912L546.981 292.746L575.397 290.706L577.576 290.568L603.454 288.694L605.661 288.556L633.331 286.571L635.593 286.406L648.477 285.496L649.856 288.17L679.43 345.429Z" fill="url(#paint71_linear_18_4298)"/>
<path d="M679.43 345.429L656.036 346.229L653.47 346.312L619.951 347.469L617.468 347.552L589.136 348.517L586.68 348.6L558.32 349.565L555.865 349.647L529.077 350.557L526.649 350.64L498.013 351.632L495.585 351.715L466.673 352.68L464.273 352.762L437.127 353.7L434.727 353.783L405.842 354.775L403.442 354.858L374.227 355.85L371.827 355.933L340.184 357.008L337.783 357.091L308.982 358.056L306.526 358.138L277.67 359.131L275.297 359.213L247.323 360.178L244.951 360.261L215.79 361.254L213.307 361.336L188.534 362.191L186.161 362.246L158.518 363.211L156.146 363.294L131.427 364.121L129.054 364.203L104.198 365.058L101.798 365.141L90.4039 365.527L77.7135 365.968L75.3134 366.05L57.7676 366.629L68.7199 327.207L68.7751 327.014L81.8517 326.076L84.0587 325.911L105.798 324.34L107.977 324.202L130.82 322.548L132.999 322.41L157.801 320.618L159.953 320.48L186.299 318.578L188.451 318.44L212.121 316.731L214.383 316.565L242.771 314.525L244.923 314.387L272.621 312.403L274.773 312.237L303.602 310.169L305.837 310.032L333.259 308.047L335.411 307.909L367.164 305.621L369.344 305.483L398.67 303.388L400.849 303.222L429.844 301.127L432.023 300.989L459.308 299.032L461.459 298.866L487.337 297.019L489.516 296.854L518.235 294.814L520.414 294.649L544.802 292.912L546.981 292.746L575.397 290.706L577.576 290.568L603.454 288.694L605.661 288.556L633.331 286.571L635.593 286.406L648.477 285.496L649.856 288.17L679.43 345.429Z" fill="url(#paint72_linear_18_4298)"/>
</g>
<path d="M106.322 324.202L102.294 364.975L101.107 365.058L105.218 324.34L106.322 324.202Z" fill="url(#paint73_linear_18_4298)"/>
<path d="M132.338 321.859L132.31 322.382L130.793 364.093L129.055 364.204L130.738 322.548L130.765 322.052L132.338 321.859Z" fill="url(#paint74_linear_18_4298)"/>
<path d="M158.519 363.211L156.146 363.294L157.802 320.618L159.954 320.48L158.519 363.211Z" fill="url(#paint75_linear_18_4298)"/>
<path d="M341.728 356.374L340.514 356.567L335.824 307.854L336.9 307.578L341.728 356.374Z" fill="url(#paint76_linear_18_4298)"/>
<path d="M374.227 355.85L371.826 355.933L367.164 305.621L369.343 305.483L374.227 355.85Z" fill="url(#paint77_linear_18_4298)"/>
<path d="M405.843 354.775L403.443 354.858L398.67 303.388L400.849 303.222L405.843 354.775Z" fill="url(#paint78_linear_18_4298)"/>
<path d="M498.012 351.632L495.585 351.715L487.336 297.02L489.515 296.854L498.012 351.632Z" fill="url(#paint79_linear_18_4298)"/>
<path d="M529.076 350.557L526.649 350.64L518.234 294.814L520.414 294.649L529.076 350.557Z" fill="url(#paint80_linear_18_4298)"/>
<path d="M640.449 346.394L639.98 346.698L621.883 291.12L622.297 290.789L640.449 346.394Z" fill="url(#paint81_linear_18_4298)"/>
<path d="M612.005 347.69L611.508 347.966L597.08 291.341L597.494 291.037L612.005 347.69Z" fill="url(#paint82_linear_18_4298)"/>
<path d="M663.182 344.465L662.299 344.823L641.746 288.887L642.519 288.473L663.182 344.465Z" fill="url(#paint83_linear_18_4298)"/>
<path d="M254.523 360.289L253.337 360.399L252.785 313.643L253.861 313.478L254.523 360.289Z" fill="url(#paint84_linear_18_4298)"/>
<path d="M307.74 359.214L306.499 359.434L302.692 311.686L302.664 311.521L303.768 310.997L303.795 311.41L307.74 359.214Z" fill="url(#paint85_linear_18_4298)"/>
<path d="M467.419 351.522L466.232 351.77L460.053 299.198L461.129 298.894L467.419 351.522Z" fill="url(#paint86_linear_18_4298)"/>
<path d="M432.769 354.582L431.527 354.803L427.582 303.167L427.555 302.974L428.658 302.423L428.713 302.864L432.769 354.582Z" fill="url(#paint87_linear_18_4298)"/>
<path d="M63.0645 347.58L663.181 313.947L371.937 332.335L63.0645 347.58Z" fill="url(#paint88_linear_18_4298)"/>
<path d="M85.4109 325.856L80.7209 365.858L80.0312 365.968L84.7763 326.049L85.4109 325.856Z" fill="url(#paint89_linear_18_4298)"/>
<path d="M73.2441 326.821L66.0713 366.437L65.2988 366.519L72.5268 326.959L73.2441 326.821Z" fill="url(#paint90_linear_18_4298)"/>
<g opacity="0.62">
<path d="M649.856 288.005L165.884 328.365L163.842 363.321L77.7133 365.802L75.3132 365.885L62.4297 365.444L68.7197 327.041L648.477 285.331L649.856 288.005Z" fill="#17A3AE"/>
<path d="M649.856 288.005L165.884 328.365L163.842 363.321L77.7133 365.802L75.3132 365.885L62.4297 365.444L68.7197 327.041L648.477 285.331L649.856 288.005Z" fill="url(#paint91_linear_18_4298)"/>
</g>
<g style="mix-blend-mode:screen" opacity="0.63">
<path d="M674.244 342.948L649.388 290.238L409.705 311.052L483.585 347.607L674.244 342.948Z" fill="url(#paint92_linear_18_4298)"/>
<path d="M674.244 342.948L649.388 290.238L409.705 311.052L483.585 347.607L674.244 342.948Z" fill="url(#paint93_linear_18_4298)"/>
</g>
<g opacity="0.62">
<path d="M51.8086 418.072L57.6296 370.572L682.41 349.702L684.175 353.424L154.766 381.654L154.628 428.493L51.8086 418.072Z" fill="#17A3AE"/>
<path d="M51.8086 418.072L57.6296 370.572L682.41 349.702L684.175 353.424L154.766 381.654L154.628 428.493L51.8086 418.072Z" fill="url(#paint94_linear_18_4298)"/>
</g>
<path d="M1113 420.057C1113 420.057 1077.27 450.327 1039.97 482.582C1002.76 514.726 963.971 548.828 957.46 556.768C944.411 572.647 933.817 601.07 933.817 601.07C933.817 601.07 901.236 601.346 848.93 601.539C708.177 602.035 108.088 606.115 98.7906 598.175C62.4024 567.161 16.0273 416.666 16.0273 416.666L35.0905 416.004L59.5884 415.15L457.514 401.228C457.514 401.228 470.922 433.62 502.676 446.219C502.703 446.219 502.731 446.247 502.758 446.247C511.835 449.83 522.373 451.788 534.539 450.933C589.439 447.046 1113 420.057 1113 420.057Z" fill="url(#paint95_linear_18_4298)"/>
<path d="M179.733 500.336L179.457 486.496C179.374 482.389 175.76 479.108 171.401 479.191L123.123 479.907C118.764 479.963 115.288 483.354 115.371 487.461L115.646 501.273C115.729 505.381 119.343 508.661 123.702 508.579L171.981 507.862C176.34 507.807 179.816 504.443 179.733 500.336ZM153.828 499.977L146.572 499.481C142.213 499.536 126.709 502.486 126.626 498.378L116.64 491.9C116.557 487.792 120.033 484.429 124.392 484.346L135.868 484.181L136.282 492.947L136.861 484.153L156.752 483.85C157.221 483.85 157.663 483.877 158.104 483.932L159.373 496.917L159.235 484.181C162.408 485.09 164.753 487.875 164.835 491.155L165.001 499.564C165.029 503.699 158.187 499.922 153.828 499.977Z" fill="#A4C9F9"/>
<path d="M117.66 495.208C117.66 506.097 173.939 505.601 175.181 503.727C176.422 501.824 178.27 495.814 177.608 494.601C176.946 493.388 117.743 492.313 117.743 492.313L117.66 495.208Z" fill="#FFDD9A"/>
<path d="M175.181 503.727C174.133 505.353 132.889 505.932 120.916 499.288C137.607 502.624 167.815 502.073 168.67 500.749C169.526 499.426 170.684 496.118 171.098 493.802C176.698 494.078 177.471 494.298 177.609 494.602C178.271 495.815 176.423 501.852 175.181 503.727Z" fill="#FF7D48"/>
<path d="M269.036 499.316L268.76 485.476C268.677 481.369 265.063 478.088 260.704 478.171L212.425 478.888C208.067 478.943 204.591 482.334 204.673 486.441L204.949 500.253C205.032 504.361 208.646 507.641 213.005 507.559L261.283 506.842C265.642 506.787 269.118 503.423 269.036 499.316ZM243.131 498.957L235.875 498.461C231.516 498.516 216.012 501.466 215.929 497.358L205.942 490.88C205.86 486.772 209.336 483.409 213.695 483.326L225.171 483.161L225.585 491.927L226.164 483.133L246.055 482.83C246.524 482.83 246.965 482.857 247.407 482.912L248.676 495.897L248.538 483.161C251.71 484.07 254.055 486.855 254.138 490.135L254.304 498.544C254.359 502.679 247.49 498.902 243.131 498.957Z" fill="#A4C9F9"/>
<path d="M206.99 494.188C206.99 505.077 263.269 504.581 264.511 502.706C265.752 500.804 267.601 494.794 266.938 493.581C266.276 492.368 207.073 491.293 207.073 491.293L206.99 494.188Z" fill="#FFDD9A"/>
<path d="M264.484 502.707C263.436 504.333 222.192 504.912 210.219 498.268C226.909 501.604 257.118 501.052 257.973 499.729C258.828 498.406 259.987 495.098 260.401 492.782C266.001 493.058 266.774 493.278 266.912 493.581C267.574 494.794 265.725 500.832 264.484 502.707Z" fill="#FF7D48"/>
<path d="M357.674 497.717L357.398 483.877C357.316 479.77 353.702 476.489 349.343 476.572L301.064 477.289C296.705 477.344 293.229 480.735 293.312 484.842L293.588 498.654C293.671 502.762 297.285 506.042 301.644 505.96L349.922 505.243C354.281 505.188 357.757 501.797 357.674 497.717ZM331.742 497.358L324.486 496.862C320.127 496.917 304.623 499.867 304.54 495.759L294.553 489.281C294.471 485.173 297.947 481.81 302.306 481.727L313.782 481.562L314.196 490.328L314.775 481.534L334.666 481.231C335.135 481.231 335.576 481.258 336.018 481.314L337.287 494.298L337.149 481.562C340.322 482.471 342.667 485.256 342.749 488.537L342.915 496.945C342.97 501.08 336.128 497.276 331.742 497.358Z" fill="#A4C9F9"/>
<path d="M295.602 492.589C295.602 503.478 351.881 502.982 353.122 501.108C354.364 499.205 356.212 493.196 355.55 491.983C354.888 490.77 295.684 489.694 295.684 489.694L295.602 492.589Z" fill="#FFDD9A"/>
<path d="M353.123 501.108C352.074 502.734 310.831 503.313 298.857 496.669C315.548 500.005 345.757 499.454 346.612 498.13C347.467 496.807 348.626 493.499 349.04 491.183C354.64 491.459 355.412 491.679 355.55 491.983C356.185 493.196 354.336 499.205 353.123 501.108Z" fill="#FF7D48"/>
<path d="M446.977 496.697L446.701 482.857C446.618 478.75 443.004 475.469 438.645 475.552L390.367 476.269C386.008 476.324 382.532 479.715 382.615 483.822L382.891 497.634C382.973 501.742 386.587 505.022 390.946 504.94L439.225 504.223C443.584 504.168 447.06 500.777 446.977 496.697ZM421.072 496.338L413.816 495.842C409.458 495.897 393.953 498.847 393.871 494.739L383.884 488.261C383.801 484.153 387.277 480.79 391.636 480.707L403.112 480.542L403.526 489.308L404.106 480.514L423.996 480.211C424.465 480.211 424.907 480.238 425.348 480.294L426.617 493.278L426.479 480.542C429.652 481.451 431.997 484.236 432.08 487.516L432.245 495.925C432.273 500.06 425.431 496.256 421.072 496.338Z" fill="#A4C9F9"/>
<path d="M384.904 491.569C384.904 502.458 441.183 501.962 442.425 500.088C443.666 498.213 445.515 492.175 444.853 490.962C444.19 489.749 384.987 488.674 384.987 488.674L384.904 491.569Z" fill="#FFDD9A"/>
<path d="M442.425 500.088C441.377 501.714 400.133 502.293 388.16 495.649C404.851 498.985 435.059 498.434 435.915 497.11C436.77 495.787 437.928 492.479 438.342 490.163C443.943 490.439 444.715 490.659 444.853 490.963C445.515 492.176 443.667 498.185 442.425 500.088Z" fill="#FF7D48"/>
<path opacity="0.25" d="M120.089 529.503C117.579 529.475 115.206 528.483 113.413 526.746C111.51 524.927 110.461 522.473 110.406 519.827L102.268 474.725C102.157 469.294 106.516 464.8 111.923 464.69L445.211 458.597C447.832 458.542 450.343 459.535 452.219 461.354C454.122 463.174 455.17 465.627 455.226 468.274L456.053 513.127C456.108 515.746 455.115 518.255 453.294 520.13C451.474 522.032 449.018 523.08 446.37 523.135V522.501V523.135L120.393 529.475C120.282 529.503 120.172 529.503 120.089 529.503ZM445.515 459.866C445.432 459.866 445.322 459.866 445.239 459.866L111.951 465.958C107.206 466.041 103.426 469.956 103.509 474.697L111.096 520.406C111.151 522.694 112.061 524.844 113.717 526.443C115.372 528.042 117.551 528.897 119.841 528.841L446.453 522.749C448.742 522.694 450.894 521.784 452.494 520.13C454.094 518.476 454.867 515.443 454.812 513.155L453.984 468.301C453.929 466.013 453.019 463.863 451.363 462.264C449.763 460.748 447.694 459.893 445.515 459.866Z" fill="#17A3AE"/>
<path d="M502.675 446.192C472.632 434.834 461.266 416.694 450.783 409.167C440.299 401.641 22.7031 417.08 22.7031 417.08L35.0624 415.977L457.486 401.2C457.486 401.2 470.894 433.593 502.675 446.192Z" fill="white"/>
<g style="mix-blend-mode:screen">
<path d="M625.055 456.199L1097.63 430.946L1022.54 495.263C1022.54 495.263 1068.94 454.82 1065.36 448.039C1061.77 441.257 625.055 456.199 625.055 456.199Z" fill="url(#paint96_linear_18_4298)"/>
</g>
<path opacity="0.37" d="M934.535 549.38C926.921 549.986 455.059 587.424 244.537 586.432C161.25 582.71 105.274 584.805 95.9493 576.865C59.5611 545.823 16 416.638 16 416.638L35.0631 415.977L59.5611 415.122L186.52 413.192C168.947 414.461 140.752 416.363 138.6 428.934C129.717 480.817 157.608 553.184 175.485 560.49C206.218 573.061 924.824 549.766 934.535 549.38Z" fill="#A4C9F9"/>
<g style="mix-blend-mode:screen">
<path d="M1039.95 482.582C1002.73 514.726 963.944 548.828 957.433 556.768C944.384 572.647 933.791 601.07 933.791 601.07C933.791 601.07 901.209 601.346 848.903 601.539H848.875C848.875 601.539 917.679 594.619 924.769 593.158C931.859 591.725 942.536 560.986 942.012 557.319C941.488 553.653 791.852 562.116 791.852 562.116L958.344 547.836L1039.95 482.582Z" fill="url(#paint97_linear_18_4298)"/>
</g>
<path opacity="0.5" d="M974.151 471.251C995.09 476.765 961.405 524.899 943.418 517.538C925.403 510.205 953.212 465.737 974.151 471.251Z" fill="#A4C9F9"/>
<path opacity="0.5" d="M952.633 492.451C960.192 493.802 949.681 511.777 943.115 509.681C936.549 507.614 945.074 491.1 952.633 492.451Z" fill="#A4C9F9"/>
<path opacity="0.5" d="M945.045 518.062C969.929 514.644 975.005 479.797 959.584 475.717C958.949 475.552 958.315 475.414 957.652 475.359C963.004 471.72 968.798 469.873 974.15 471.279C994.482 476.627 963.363 522.087 945.045 518.062Z" fill="#A4C9F9"/>
<path d="M574.515 499.343C574.543 502.955 572.694 505.932 570.405 505.932C568.115 505.96 566.239 503.01 566.211 499.398C566.184 495.787 568.032 492.809 570.322 492.809C572.612 492.809 574.488 495.732 574.515 499.343Z" fill="url(#paint98_linear_18_4298)"/>
<path d="M590.599 499.26C590.627 502.872 588.778 505.849 586.489 505.849C584.199 505.877 582.295 502.927 582.295 499.316C582.268 495.704 584.116 492.727 586.406 492.727C588.696 492.699 590.599 495.621 590.599 499.26Z" fill="url(#paint99_linear_18_4298)"/>
<path d="M607.041 498.296C607.068 501.907 605.22 504.884 602.93 504.884C600.64 504.912 598.764 501.962 598.737 498.351C598.709 494.739 600.557 491.762 602.847 491.762C605.137 491.734 607.013 494.657 607.041 498.296Z" fill="url(#paint100_linear_18_4298)"/>
<path d="M623.457 497.33C623.484 500.942 621.636 503.919 619.346 503.919C617.056 503.947 615.18 500.997 615.153 497.386C615.125 493.774 616.973 490.797 619.263 490.797C621.553 490.769 623.457 493.691 623.457 497.33Z" fill="url(#paint101_linear_18_4298)"/>
<path d="M640.421 496.696C640.449 500.308 638.601 503.285 636.311 503.285C634.021 503.313 632.145 500.363 632.117 496.752C632.09 493.113 633.938 490.163 636.228 490.163C638.518 490.135 640.394 493.057 640.421 496.696Z" fill="url(#paint102_linear_18_4298)"/>
<path d="M656.617 495.897C656.644 499.536 654.796 502.486 652.506 502.486C650.216 502.513 648.34 499.563 648.313 495.952C648.285 492.341 650.134 489.363 652.423 489.363C654.713 489.336 656.589 492.258 656.617 495.897Z" fill="url(#paint103_linear_18_4298)"/>
<path d="M673.031 494.932C673.058 498.544 671.21 501.521 668.92 501.521C666.63 501.548 664.754 498.599 664.727 494.987C664.699 491.348 666.548 488.398 668.837 488.398C671.127 488.371 673.003 491.293 673.031 494.932Z" fill="url(#paint104_linear_18_4298)"/>
<path d="M689.998 494.27C690.025 497.882 688.177 500.859 685.887 500.859C683.597 500.887 681.721 497.937 681.694 494.326C681.666 490.714 683.514 487.737 685.804 487.737C688.094 487.737 689.97 490.659 689.998 494.27Z" fill="url(#paint105_linear_18_4298)"/>
<path d="M709.308 493.085C709.336 496.697 707.487 499.674 705.198 499.674C702.908 499.702 701.032 496.752 701.004 493.14C700.977 489.529 702.825 486.552 705.115 486.552C707.405 486.552 709.308 489.474 709.308 493.085Z" fill="url(#paint106_linear_18_4298)"/>
<path d="M725.419 492.975C725.447 496.586 723.599 499.564 721.309 499.564C719.019 499.591 717.143 496.642 717.116 493.03C717.088 489.419 718.936 486.441 721.226 486.441C723.516 486.441 725.392 489.364 725.419 492.975Z" fill="url(#paint107_linear_18_4298)"/>
<path d="M741.861 492.038C741.888 495.649 740.04 498.626 737.75 498.626C735.46 498.654 733.557 495.704 733.557 492.093C733.529 488.454 735.378 485.504 737.667 485.504C739.957 485.476 741.833 488.399 741.861 492.038Z" fill="url(#paint108_linear_18_4298)"/>
<path d="M758.277 491.073C758.304 494.684 756.456 497.662 754.166 497.662C751.877 497.689 750.001 494.739 749.973 491.128C749.945 487.516 751.794 484.539 754.084 484.539C756.373 484.511 758.249 487.434 758.277 491.073Z" fill="url(#paint109_linear_18_4298)"/>
<path d="M775.244 490.411C775.271 494.023 773.423 497 771.133 497C768.843 497.028 766.967 494.078 766.94 490.466C766.912 486.855 768.761 483.877 771.05 483.877C773.34 483.877 775.216 486.8 775.244 490.411Z" fill="url(#paint110_linear_18_4298)"/>
<path d="M791.437 489.612C791.465 493.223 789.616 496.201 787.326 496.201C785.037 496.228 783.133 493.278 783.133 489.667C783.106 486.055 784.954 483.078 787.244 483.078C789.533 483.078 791.409 486 791.437 489.612Z" fill="url(#paint111_linear_18_4298)"/>
<path d="M807.851 488.674C807.879 492.286 806.03 495.263 803.741 495.263C801.451 495.291 799.547 492.341 799.547 488.729C799.52 485.118 801.368 482.141 803.658 482.141C805.948 482.113 807.824 485.035 807.851 488.674Z" fill="url(#paint112_linear_18_4298)"/>
<path d="M824.818 488.013C824.845 491.624 822.997 494.602 820.707 494.602C818.418 494.629 816.514 491.679 816.514 488.068C816.486 484.429 818.335 481.479 820.625 481.479C822.914 481.479 824.79 484.401 824.818 488.013Z" fill="url(#paint113_linear_18_4298)"/>
<path d="M357.619 550.758C357.591 554.37 355.688 557.319 353.398 557.292C351.108 557.264 349.26 554.314 349.287 550.703C349.315 547.091 351.219 544.142 353.508 544.169C355.826 544.197 357.647 547.147 357.619 550.758Z" fill="url(#paint114_linear_18_4298)"/>
<path d="M373.73 550.896C373.703 554.507 371.799 557.457 369.509 557.43C367.22 557.402 365.371 554.452 365.399 550.841C365.426 547.229 367.33 544.28 369.62 544.307C371.909 544.335 373.758 547.284 373.73 550.896Z" fill="url(#paint115_linear_18_4298)"/>
<path d="M390.172 550.179C390.144 553.791 388.241 556.74 385.951 556.713C383.661 556.685 381.813 553.735 381.84 550.124C381.868 546.513 383.771 543.563 386.061 543.59C388.378 543.618 390.199 546.568 390.172 550.179Z" fill="url(#paint116_linear_18_4298)"/>
<path d="M406.615 549.462C406.587 553.074 404.684 556.024 402.394 555.996C400.104 555.968 398.256 553.019 398.284 549.407C398.311 545.796 400.215 542.846 402.504 542.873C404.794 542.901 406.643 545.851 406.615 549.462Z" fill="url(#paint117_linear_18_4298)"/>
<path d="M423.582 549.076C423.554 552.688 421.651 555.638 419.361 555.61C417.071 555.582 415.223 552.633 415.25 549.021C415.278 545.41 417.181 542.46 419.471 542.487C421.761 542.515 423.609 545.465 423.582 549.076Z" fill="url(#paint118_linear_18_4298)"/>
<path d="M439.775 548.525C439.748 552.136 437.844 555.086 435.554 555.059C433.264 555.031 431.416 552.081 431.444 548.47C431.471 544.858 433.375 541.909 435.665 541.936C437.982 541.936 439.803 544.914 439.775 548.525Z" fill="url(#paint119_linear_18_4298)"/>
<path d="M456.219 547.808C456.191 551.42 454.287 554.369 451.998 554.342C449.708 554.314 447.859 551.365 447.887 547.753C447.915 544.142 449.818 541.192 452.108 541.219C454.398 541.219 456.246 544.197 456.219 547.808Z" fill="url(#paint120_linear_18_4298)"/>
<path d="M473.183 547.422C473.156 551.034 471.252 553.984 468.962 553.956C466.673 553.928 464.824 550.979 464.852 547.367C464.879 543.756 466.783 540.806 469.073 540.833C471.363 540.861 473.211 543.783 473.183 547.422Z" fill="url(#paint121_linear_18_4298)"/>
<path d="M492.523 546.513C492.496 550.124 490.592 553.074 488.302 553.046C486.012 553.019 484.164 550.069 484.192 546.458C484.219 542.846 486.123 539.896 488.413 539.924C490.702 539.951 492.551 542.901 492.523 546.513Z" fill="url(#paint122_linear_18_4298)"/>
<path d="M508.635 546.651C508.607 550.262 506.703 553.212 504.414 553.184C502.124 553.157 500.275 550.207 500.303 546.595C500.331 542.984 502.234 540.034 504.524 540.062C506.814 540.089 508.662 543.039 508.635 546.651Z" fill="url(#paint123_linear_18_4298)"/>
<path d="M525.076 545.934C525.048 549.545 523.145 552.495 520.855 552.467C518.565 552.44 516.717 549.49 516.744 545.879C516.772 542.267 518.676 539.317 520.965 539.345C523.255 539.372 525.104 542.322 525.076 545.934Z" fill="url(#paint124_linear_18_4298)"/>
<path opacity="0.26" d="M35.918 446.164C35.918 446.164 71.6717 534.824 107.425 571.93C65.3265 500.611 66.7611 444.179 66.7611 444.179L35.918 446.164Z" fill="#A4C9F9"/>
</g>
<defs>
<filter id="filter0_d_18_4298" x="0" y="0" width="1181" height="636.026" filterUnits="userSpaceOnUse" color-interpolation-filters="sRGB">
<feFlood flood-opacity="0" result="BackgroundImageFix"/>
<feColorMatrix in="SourceAlpha" type="matrix" values="0 0 0 0 0 0 0 0 0 0 0 0 0 0 0 0 0 0 127 0" result="hardAlpha"/>
<feOffset dx="26" dy="-9"/>
<feGaussianBlur stdDeviation="21"/>
<feComposite in2="hardAlpha" operator="out"/>
<feColorMatrix type="matrix" values="0 0 0 0 0.215686 0 0 0 0 0.458824 0 0 0 0 0.819608 0 0 0 0.1 0"/>
<feBlend mode="normal" in2="BackgroundImageFix" result="effect1_dropShadow_18_4298"/>
<feBlend mode="normal" in="SourceGraphic" in2="effect1_dropShadow_18_4298" result="shape"/>
</filter>
<linearGradient id="paint0_linear_18_4298" x1="259.336" y1="171.455" x2="435.413" y2="163.616" gradientUnits="userSpaceOnUse">
<stop stop-color="#CFEEFA"/>
<stop offset="1" stop-color="white"/>
</linearGradient>
<linearGradient id="paint1_linear_18_4298" x1="260.908" y1="206.788" x2="436.985" y2="198.948" gradientUnits="userSpaceOnUse">
<stop stop-color="#CFEEFA"/>
<stop offset="1" stop-color="white"/>
</linearGradient>
<linearGradient id="paint2_linear_18_4298" x1="546.6" y1="133.031" x2="354.045" y2="215.746" gradientUnits="userSpaceOnUse">
<stop/>
<stop offset="1" stop-color="#D9FF5E"/>
</linearGradient>
<linearGradient id="paint3_linear_18_4298" x1="-20.2209" y1="408.91" x2="1080.83" y2="266.323" gradientUnits="userSpaceOnUse">
<stop stop-color="#CFEEFA"/>
<stop offset="1" stop-color="white"/>
</linearGradient>
<linearGradient id="paint4_linear_18_4298" x1="122.234" y1="261.252" x2="646.089" y2="261.252" gradientUnits="userSpaceOnUse">
<stop stop-color="#1261AA"/>
<stop offset="1" stop-color="#14CDCD"/>
</linearGradient>
<linearGradient id="paint5_linear_18_4298" x1="437.62" y1="305.469" x2="388.761" y2="414.2" gradientUnits="userSpaceOnUse">
<stop stop-color="#9FFF9A"/>
<stop offset="1" stop-color="#00A490"/>
</linearGradient>
<linearGradient id="paint6_linear_18_4298" x1="49.6485" y1="411.294" x2="726.806" y2="411.294" gradientUnits="userSpaceOnUse">
<stop stop-color="#1261AA"/>
<stop offset="1" stop-color="#14CDCD"/>
</linearGradient>
<linearGradient id="paint7_linear_18_4298" x1="469.389" y1="456.194" x2="710.022" y2="328.923" gradientUnits="userSpaceOnUse">
<stop/>
<stop offset="1" stop-color="#D9FF5E"/>
</linearGradient>
<linearGradient id="paint8_linear_18_4298" x1="410.391" y1="395.863" x2="717.134" y2="395.863" gradientUnits="userSpaceOnUse">
<stop stop-color="#1261AA"/>
<stop offset="1" stop-color="#14CDCD"/>
</linearGradient>
<linearGradient id="paint9_linear_18_4298" x1="100.711" y1="425.921" x2="108.174" y2="426.18" gradientUnits="userSpaceOnUse">
<stop stop-color="#CFEEFA"/>
<stop offset="1" stop-color="white"/>
</linearGradient>
<linearGradient id="paint10_linear_18_4298" x1="75.2136" y1="426.371" x2="79.3291" y2="426.721" gradientUnits="userSpaceOnUse">
<stop stop-color="#CFEEFA"/>
<stop offset="1" stop-color="white"/>
</linearGradient>
<linearGradient id="paint11_linear_18_4298" x1="55.4959" y1="427.043" x2="59.4603" y2="427.572" gradientUnits="userSpaceOnUse">
<stop stop-color="#CFEEFA"/>
<stop offset="1" stop-color="white"/>
</linearGradient>
<linearGradient id="paint12_linear_18_4298" x1="690.711" y1="403.119" x2="700.27" y2="400.403" gradientUnits="userSpaceOnUse">
<stop stop-color="#CFEEFA"/>
<stop offset="1" stop-color="white"/>
</linearGradient>
<linearGradient id="paint13_linear_18_4298" x1="671.31" y1="406.309" x2="690.415" y2="402.691" gradientUnits="userSpaceOnUse">
<stop stop-color="#CFEEFA"/>
<stop offset="1" stop-color="white"/>
</linearGradient>
<linearGradient id="paint14_linear_18_4298" x1="655.755" y1="405.414" x2="664.014" y2="403.482" gradientUnits="userSpaceOnUse">
<stop stop-color="#CFEEFA"/>
<stop offset="1" stop-color="white"/>
</linearGradient>
<linearGradient id="paint15_linear_18_4298" x1="621.441" y1="408.823" x2="640.159" y2="406.83" gradientUnits="userSpaceOnUse">
<stop stop-color="#CFEEFA"/>
<stop offset="1" stop-color="white"/>
</linearGradient>
<linearGradient id="paint16_linear_18_4298" x1="592.013" y1="409.97" x2="605.657" y2="408.906" gradientUnits="userSpaceOnUse">
<stop stop-color="#CFEEFA"/>
<stop offset="1" stop-color="white"/>
</linearGradient>
<linearGradient id="paint17_linear_18_4298" x1="567.722" y1="410.789" x2="576.344" y2="410.08" gradientUnits="userSpaceOnUse">
<stop stop-color="#CFEEFA"/>
<stop offset="1" stop-color="white"/>
</linearGradient>
<linearGradient id="paint18_linear_18_4298" x1="476.231" y1="413.239" x2="483.358" y2="412.929" gradientUnits="userSpaceOnUse">
<stop stop-color="#CFEEFA"/>
<stop offset="1" stop-color="white"/>
</linearGradient>
<linearGradient id="paint19_linear_18_4298" x1="440.925" y1="413.458" x2="452.283" y2="413.608" gradientUnits="userSpaceOnUse">
<stop stop-color="#CFEEFA"/>
<stop offset="1" stop-color="white"/>
</linearGradient>
<linearGradient id="paint20_linear_18_4298" x1="378.758" y1="415.988" x2="393.012" y2="416.482" gradientUnits="userSpaceOnUse">
<stop stop-color="#CFEEFA"/>
<stop offset="1" stop-color="white"/>
</linearGradient>
<linearGradient id="paint21_linear_18_4298" x1="351.658" y1="416.457" x2="359.048" y2="416.611" gradientUnits="userSpaceOnUse">
<stop stop-color="#CFEEFA"/>
<stop offset="1" stop-color="white"/>
</linearGradient>
<linearGradient id="paint22_linear_18_4298" x1="320.912" y1="418.127" x2="331.138" y2="418.481" gradientUnits="userSpaceOnUse">
<stop stop-color="#CFEEFA"/>
<stop offset="1" stop-color="white"/>
</linearGradient>
<linearGradient id="paint23_linear_18_4298" x1="228.649" y1="421.195" x2="234.677" y2="421.404" gradientUnits="userSpaceOnUse">
<stop stop-color="#CFEEFA"/>
<stop offset="1" stop-color="white"/>
</linearGradient>
<linearGradient id="paint24_linear_18_4298" x1="198.13" y1="423.143" x2="202.728" y2="423.302" gradientUnits="userSpaceOnUse">
<stop stop-color="#CFEEFA"/>
<stop offset="1" stop-color="white"/>
</linearGradient>
<linearGradient id="paint25_linear_18_4298" x1="55.4325" y1="366.171" x2="685.801" y2="388.01" gradientUnits="userSpaceOnUse">
<stop stop-color="#CFEEFA"/>
<stop offset="1" stop-color="white"/>
</linearGradient>
<linearGradient id="paint26_linear_18_4298" x1="54.8282" y1="386.031" x2="694.937" y2="408.208" gradientUnits="userSpaceOnUse">
<stop stop-color="#CFEEFA"/>
<stop offset="1" stop-color="white"/>
</linearGradient>
<linearGradient id="paint27_linear_18_4298" x1="67.2839" y1="408.541" x2="707.393" y2="430.718" gradientUnits="userSpaceOnUse">
<stop stop-color="#CFEEFA"/>
<stop offset="1" stop-color="white"/>
</linearGradient>
<linearGradient id="paint28_linear_18_4298" x1="76.4787" y1="429.052" x2="716.587" y2="451.229" gradientUnits="userSpaceOnUse">
<stop stop-color="#CFEEFA"/>
<stop offset="1" stop-color="white"/>
</linearGradient>
<linearGradient id="paint29_linear_18_4298" x1="754.125" y1="347.208" x2="782.656" y2="483.89" gradientUnits="userSpaceOnUse">
<stop stop-color="#9FFF9A"/>
<stop offset="1" stop-color="#00A490"/>
</linearGradient>
<linearGradient id="paint30_linear_18_4298" x1="703.926" y1="401.861" x2="827.131" y2="401.861" gradientUnits="userSpaceOnUse">
<stop stop-color="#1261AA"/>
<stop offset="1" stop-color="#14CDCD"/>
</linearGradient>
<linearGradient id="paint31_linear_18_4298" x1="122.235" y1="263.788" x2="590.115" y2="263.788" gradientUnits="userSpaceOnUse">
<stop stop-color="#1261AA"/>
<stop offset="1" stop-color="#14CDCD"/>
</linearGradient>
<linearGradient id="paint32_linear_18_4298" x1="431.696" y1="248.028" x2="631.941" y2="254.966" gradientUnits="userSpaceOnUse">
<stop/>
<stop offset="1" stop-color="#D9FF5E"/>
</linearGradient>
<linearGradient id="paint33_linear_18_4298" x1="432.269" y1="252.702" x2="630.898" y2="252.702" gradientUnits="userSpaceOnUse">
<stop stop-color="#1261AA"/>
<stop offset="1" stop-color="#14CDCD"/>
</linearGradient>
<linearGradient id="paint34_linear_18_4298" x1="172.739" y1="207.114" x2="624.264" y2="222.757" gradientUnits="userSpaceOnUse">
<stop stop-color="#CFEEFA"/>
<stop offset="1" stop-color="white"/>
</linearGradient>
<linearGradient id="paint35_linear_18_4298" x1="194.76" y1="252.959" x2="453.384" y2="237.886" gradientUnits="userSpaceOnUse">
<stop stop-color="#CFEEFA"/>
<stop offset="1" stop-color="white"/>
</linearGradient>
<linearGradient id="paint36_linear_18_4298" x1="194.78" y1="253.324" x2="453.405" y2="238.25" gradientUnits="userSpaceOnUse">
<stop stop-color="#CFEEFA"/>
<stop offset="1" stop-color="white"/>
</linearGradient>
<linearGradient id="paint37_linear_18_4298" x1="194.769" y1="253.235" x2="453.421" y2="238.159" gradientUnits="userSpaceOnUse">
<stop stop-color="#CFEEFA"/>
<stop offset="1" stop-color="white"/>
</linearGradient>
<linearGradient id="paint38_linear_18_4298" x1="194.93" y1="255.914" x2="453.56" y2="240.84" gradientUnits="userSpaceOnUse">
<stop stop-color="#CFEEFA"/>
<stop offset="1" stop-color="white"/>
</linearGradient>
<linearGradient id="paint39_linear_18_4298" x1="194.863" y1="254.774" x2="453.494" y2="239.7" gradientUnits="userSpaceOnUse">
<stop stop-color="#CFEEFA"/>
<stop offset="1" stop-color="white"/>
</linearGradient>
<linearGradient id="paint40_linear_18_4298" x1="194.801" y1="252.845" x2="453.344" y2="237.776" gradientUnits="userSpaceOnUse">
<stop stop-color="#CFEEFA"/>
<stop offset="1" stop-color="white"/>
</linearGradient>
<linearGradient id="paint41_linear_18_4298" x1="194.88" y1="254.33" x2="453.449" y2="239.26" gradientUnits="userSpaceOnUse">
<stop stop-color="#CFEEFA"/>
<stop offset="1" stop-color="white"/>
</linearGradient>
<linearGradient id="paint42_linear_18_4298" x1="194.973" y1="255.615" x2="453.526" y2="240.546" gradientUnits="userSpaceOnUse">
<stop stop-color="#CFEEFA"/>
<stop offset="1" stop-color="white"/>
</linearGradient>
<linearGradient id="paint43_linear_18_4298" x1="194.778" y1="252.694" x2="453.368" y2="237.622" gradientUnits="userSpaceOnUse">
<stop stop-color="#CFEEFA"/>
<stop offset="1" stop-color="white"/>
</linearGradient>
<linearGradient id="paint44_linear_18_4298" x1="194.92" y1="254.975" x2="453.503" y2="239.903" gradientUnits="userSpaceOnUse">
<stop stop-color="#CFEEFA"/>
<stop offset="1" stop-color="white"/>
</linearGradient>
<linearGradient id="paint45_linear_18_4298" x1="194.879" y1="254.209" x2="453.463" y2="239.137" gradientUnits="userSpaceOnUse">
<stop stop-color="#CFEEFA"/>
<stop offset="1" stop-color="white"/>
</linearGradient>
<linearGradient id="paint46_linear_18_4298" x1="194.773" y1="252.717" x2="453.379" y2="237.644" gradientUnits="userSpaceOnUse">
<stop stop-color="#CFEEFA"/>
<stop offset="1" stop-color="white"/>
</linearGradient>
<linearGradient id="paint47_linear_18_4298" x1="194.813" y1="253.205" x2="453.41" y2="238.133" gradientUnits="userSpaceOnUse">
<stop stop-color="#CFEEFA"/>
<stop offset="1" stop-color="white"/>
</linearGradient>
<linearGradient id="paint48_linear_18_4298" x1="194.725" y1="251.668" x2="453.322" y2="236.596" gradientUnits="userSpaceOnUse">
<stop stop-color="#CFEEFA"/>
<stop offset="1" stop-color="white"/>
</linearGradient>
<linearGradient id="paint49_linear_18_4298" x1="194.686" y1="251.189" x2="453.293" y2="236.115" gradientUnits="userSpaceOnUse">
<stop stop-color="#CFEEFA"/>
<stop offset="1" stop-color="white"/>
</linearGradient>
<linearGradient id="paint50_linear_18_4298" x1="194.681" y1="251.164" x2="453.292" y2="236.091" gradientUnits="userSpaceOnUse">
<stop stop-color="#CFEEFA"/>
<stop offset="1" stop-color="white"/>
</linearGradient>
<linearGradient id="paint51_linear_18_4298" x1="220.95" y1="303.751" x2="479.575" y2="288.677" gradientUnits="userSpaceOnUse">
<stop stop-color="#CFEEFA"/>
<stop offset="1" stop-color="white"/>
</linearGradient>
<linearGradient id="paint52_linear_18_4298" x1="220.973" y1="304.116" x2="479.599" y2="289.042" gradientUnits="userSpaceOnUse">
<stop stop-color="#CFEEFA"/>
<stop offset="1" stop-color="white"/>
</linearGradient>
<linearGradient id="paint53_linear_18_4298" x1="220.969" y1="304.026" x2="479.587" y2="288.953" gradientUnits="userSpaceOnUse">
<stop stop-color="#CFEEFA"/>
<stop offset="1" stop-color="white"/>
</linearGradient>
<linearGradient id="paint54_linear_18_4298" x1="137.429" y1="309.286" x2="396.486" y2="306.956" gradientUnits="userSpaceOnUse">
<stop stop-color="#CFEEFA"/>
<stop offset="1" stop-color="white"/>
</linearGradient>
<linearGradient id="paint55_linear_18_4298" x1="137.433" y1="309.65" x2="396.489" y2="307.32" gradientUnits="userSpaceOnUse">
<stop stop-color="#CFEEFA"/>
<stop offset="1" stop-color="white"/>
</linearGradient>
<linearGradient id="paint56_linear_18_4298" x1="137.427" y1="309.559" x2="396.499" y2="307.229" gradientUnits="userSpaceOnUse">
<stop stop-color="#CFEEFA"/>
<stop offset="1" stop-color="white"/>
</linearGradient>
<linearGradient id="paint57_linear_18_4298" x1="221.122" y1="306.706" x2="479.754" y2="291.632" gradientUnits="userSpaceOnUse">
<stop stop-color="#CFEEFA"/>
<stop offset="1" stop-color="white"/>
</linearGradient>
<linearGradient id="paint58_linear_18_4298" x1="221.055" y1="305.566" x2="479.687" y2="290.492" gradientUnits="userSpaceOnUse">
<stop stop-color="#CFEEFA"/>
<stop offset="1" stop-color="white"/>
</linearGradient>
<linearGradient id="paint59_linear_18_4298" x1="220.993" y1="303.637" x2="479.536" y2="288.568" gradientUnits="userSpaceOnUse">
<stop stop-color="#CFEEFA"/>
<stop offset="1" stop-color="white"/>
</linearGradient>
<linearGradient id="paint60_linear_18_4298" x1="221.07" y1="305.122" x2="479.64" y2="290.051" gradientUnits="userSpaceOnUse">
<stop stop-color="#CFEEFA"/>
<stop offset="1" stop-color="white"/>
</linearGradient>
<linearGradient id="paint61_linear_18_4298" x1="221.151" y1="306.408" x2="479.72" y2="291.338" gradientUnits="userSpaceOnUse">
<stop stop-color="#CFEEFA"/>
<stop offset="1" stop-color="white"/>
</linearGradient>
<linearGradient id="paint62_linear_18_4298" x1="220.968" y1="303.486" x2="479.558" y2="288.414" gradientUnits="userSpaceOnUse">
<stop stop-color="#CFEEFA"/>
<stop offset="1" stop-color="white"/>
</linearGradient>
<linearGradient id="paint63_linear_18_4298" x1="221.101" y1="305.767" x2="479.696" y2="290.695" gradientUnits="userSpaceOnUse">
<stop stop-color="#CFEEFA"/>
<stop offset="1" stop-color="white"/>
</linearGradient>
<linearGradient id="paint64_linear_18_4298" x1="221.06" y1="305.001" x2="479.654" y2="289.929" gradientUnits="userSpaceOnUse">
<stop stop-color="#CFEEFA"/>
<stop offset="1" stop-color="white"/>
</linearGradient>
<linearGradient id="paint65_linear_18_4298" x1="220.974" y1="303.509" x2="479.572" y2="288.436" gradientUnits="userSpaceOnUse">
<stop stop-color="#CFEEFA"/>
<stop offset="1" stop-color="white"/>
</linearGradient>
<linearGradient id="paint66_linear_18_4298" x1="220.994" y1="303.998" x2="479.599" y2="288.925" gradientUnits="userSpaceOnUse">
<stop stop-color="#CFEEFA"/>
<stop offset="1" stop-color="white"/>
</linearGradient>
<linearGradient id="paint67_linear_18_4298" x1="220.917" y1="302.46" x2="479.515" y2="287.388" gradientUnits="userSpaceOnUse">
<stop stop-color="#CFEEFA"/>
<stop offset="1" stop-color="white"/>
</linearGradient>
<linearGradient id="paint68_linear_18_4298" x1="220.877" y1="301.98" x2="479.485" y2="286.907" gradientUnits="userSpaceOnUse">
<stop stop-color="#CFEEFA"/>
<stop offset="1" stop-color="white"/>
</linearGradient>
<linearGradient id="paint69_linear_18_4298" x1="220.871" y1="301.956" x2="479.482" y2="286.883" gradientUnits="userSpaceOnUse">
<stop stop-color="#CFEEFA"/>
<stop offset="1" stop-color="white"/>
</linearGradient>
<linearGradient id="paint70_linear_18_4298" x1="124.108" y1="263.324" x2="617.792" y2="280.428" gradientUnits="userSpaceOnUse">
<stop stop-color="#CFEEFA"/>
<stop offset="1" stop-color="white"/>
</linearGradient>
<linearGradient id="paint71_linear_18_4298" x1="600.444" y1="261.563" x2="-36.9619" y2="472.098" gradientUnits="userSpaceOnUse">
<stop stop-color="#9FFF9A"/>
<stop offset="1" stop-color="#00A490"/>
</linearGradient>
<linearGradient id="paint72_linear_18_4298" x1="57.7605" y1="326.074" x2="679.412" y2="326.074" gradientUnits="userSpaceOnUse">
<stop stop-color="#1261AA"/>
<stop offset="1" stop-color="#14CDCD"/>
</linearGradient>
<linearGradient id="paint73_linear_18_4298" x1="102.52" y1="344.541" x2="104.888" y2="344.705" gradientUnits="userSpaceOnUse">
<stop stop-color="#CFEEFA"/>
<stop offset="1" stop-color="white"/>
</linearGradient>
<linearGradient id="paint74_linear_18_4298" x1="129.797" y1="342.996" x2="131.597" y2="343.058" gradientUnits="userSpaceOnUse">
<stop stop-color="#CFEEFA"/>
<stop offset="1" stop-color="white"/>
</linearGradient>
<linearGradient id="paint75_linear_18_4298" x1="156.886" y1="341.836" x2="159.25" y2="341.918" gradientUnits="userSpaceOnUse">
<stop stop-color="#CFEEFA"/>
<stop offset="1" stop-color="white"/>
</linearGradient>
<linearGradient id="paint76_linear_18_4298" x1="336.595" y1="332.146" x2="340.951" y2="332.008" gradientUnits="userSpaceOnUse">
<stop stop-color="#CFEEFA"/>
<stop offset="1" stop-color="white"/>
</linearGradient>
<linearGradient id="paint77_linear_18_4298" x1="366.305" y1="330.552" x2="375.082" y2="330.856" gradientUnits="userSpaceOnUse">
<stop stop-color="#CFEEFA"/>
<stop offset="1" stop-color="white"/>
</linearGradient>
<linearGradient id="paint78_linear_18_4298" x1="397.785" y1="328.882" x2="406.722" y2="329.192" gradientUnits="userSpaceOnUse">
<stop stop-color="#CFEEFA"/>
<stop offset="1" stop-color="white"/>
</linearGradient>
<linearGradient id="paint79_linear_18_4298" x1="486.412" y1="324.074" x2="498.938" y2="324.508" gradientUnits="userSpaceOnUse">
<stop stop-color="#CFEEFA"/>
<stop offset="1" stop-color="white"/>
</linearGradient>
<linearGradient id="paint80_linear_18_4298" x1="517.28" y1="322.435" x2="530.037" y2="322.877" gradientUnits="userSpaceOnUse">
<stop stop-color="#CFEEFA"/>
<stop offset="1" stop-color="white"/>
</linearGradient>
<linearGradient id="paint81_linear_18_4298" x1="629.218" y1="319.233" x2="633.109" y2="318.219" gradientUnits="userSpaceOnUse">
<stop stop-color="#CFEEFA"/>
<stop offset="1" stop-color="white"/>
</linearGradient>
<linearGradient id="paint82_linear_18_4298" x1="602.559" y1="319.873" x2="606.509" y2="319.112" gradientUnits="userSpaceOnUse">
<stop stop-color="#CFEEFA"/>
<stop offset="1" stop-color="white"/>
</linearGradient>
<linearGradient id="paint83_linear_18_4298" x1="647.964" y1="317.609" x2="656.946" y2="315.663" gradientUnits="userSpaceOnUse">
<stop stop-color="#CFEEFA"/>
<stop offset="1" stop-color="white"/>
</linearGradient>
<linearGradient id="paint84_linear_18_4298" x1="251.992" y1="336.878" x2="255.318" y2="336.993" gradientUnits="userSpaceOnUse">
<stop stop-color="#CFEEFA"/>
<stop offset="1" stop-color="white"/>
</linearGradient>
<linearGradient id="paint85_linear_18_4298" x1="303.416" y1="335.259" x2="306.987" y2="335.146" gradientUnits="userSpaceOnUse">
<stop stop-color="#CFEEFA"/>
<stop offset="1" stop-color="white"/>
</linearGradient>
<linearGradient id="paint86_linear_18_4298" x1="461.554" y1="325.444" x2="465.905" y2="325.194" gradientUnits="userSpaceOnUse">
<stop stop-color="#CFEEFA"/>
<stop offset="1" stop-color="white"/>
</linearGradient>
<linearGradient id="paint87_linear_18_4298" x1="428.378" y1="328.67" x2="431.948" y2="328.557" gradientUnits="userSpaceOnUse">
<stop stop-color="#CFEEFA"/>
<stop offset="1" stop-color="white"/>
</linearGradient>
<linearGradient id="paint88_linear_18_4298" x1="64.0009" y1="320.417" x2="662.229" y2="341.143" gradientUnits="userSpaceOnUse">
<stop stop-color="#CFEEFA"/>
<stop offset="1" stop-color="white"/>
</linearGradient>
<linearGradient id="paint89_linear_18_4298" x1="81.7129" y1="345.834" x2="83.7285" y2="346.002" gradientUnits="userSpaceOnUse">
<stop stop-color="#CFEEFA"/>
<stop offset="1" stop-color="white"/>
</linearGradient>
<linearGradient id="paint90_linear_18_4298" x1="68.1364" y1="346.502" x2="70.4155" y2="346.825" gradientUnits="userSpaceOnUse">
<stop stop-color="#CFEEFA"/>
<stop offset="1" stop-color="white"/>
</linearGradient>
<linearGradient id="paint91_linear_18_4298" x1="62.423" y1="325.62" x2="649.839" y2="325.62" gradientUnits="userSpaceOnUse">
<stop stop-color="#1261AA"/>
<stop offset="1" stop-color="#14CDCD"/>
</linearGradient>
<linearGradient id="paint92_linear_18_4298" x1="457.247" y1="371.758" x2="672.254" y2="258.041" gradientUnits="userSpaceOnUse">
<stop/>
<stop offset="1" stop-color="#D9FF5E"/>
</linearGradient>
<linearGradient id="paint93_linear_18_4298" x1="409.702" y1="318.931" x2="674.236" y2="318.931" gradientUnits="userSpaceOnUse">
<stop stop-color="#1261AA"/>
<stop offset="1" stop-color="#14CDCD"/>
</linearGradient>
<linearGradient id="paint94_linear_18_4298" x1="51.8014" y1="389.109" x2="684.157" y2="389.109" gradientUnits="userSpaceOnUse">
<stop stop-color="#1261AA"/>
<stop offset="1" stop-color="#14CDCD"/>
</linearGradient>
<linearGradient id="paint95_linear_18_4298" x1="565.827" y1="456.642" x2="569.03" y2="548.918" gradientUnits="userSpaceOnUse">
<stop stop-color="#CFEEFA"/>
<stop offset="1" stop-color="white"/>
</linearGradient>
<linearGradient id="paint96_linear_18_4298" x1="729.39" y1="483.519" x2="1089.72" y2="453.702" gradientUnits="userSpaceOnUse">
<stop/>
<stop offset="1" stop-color="#D0FFEE"/>
</linearGradient>
<linearGradient id="paint97_linear_18_4298" x1="915.829" y1="532.206" x2="915.073" y2="623.378" gradientUnits="userSpaceOnUse">
<stop/>
<stop offset="1" stop-color="#D0FFEE"/>
</linearGradient>
<linearGradient id="paint98_linear_18_4298" x1="831.369" y1="405.704" x2="497.299" y2="525.766" gradientUnits="userSpaceOnUse">
<stop stop-color="#9FFF9A"/>
<stop offset="1" stop-color="#00A490"/>
</linearGradient>
<linearGradient id="paint99_linear_18_4298" x1="833.178" y1="410.731" x2="499.105" y2="530.794" gradientUnits="userSpaceOnUse">
<stop stop-color="#9FFF9A"/>
<stop offset="1" stop-color="#00A490"/>
</linearGradient>
<linearGradient id="paint100_linear_18_4298" x1="834.75" y1="415.104" x2="500.677" y2="535.168" gradientUnits="userSpaceOnUse">
<stop stop-color="#9FFF9A"/>
<stop offset="1" stop-color="#00A490"/>
</linearGradient>
<linearGradient id="paint101_linear_18_4298" x1="836.321" y1="419.474" x2="502.25" y2="539.537" gradientUnits="userSpaceOnUse">
<stop stop-color="#9FFF9A"/>
<stop offset="1" stop-color="#00A490"/>
</linearGradient>
<linearGradient id="paint102_linear_18_4298" x1="838.051" y1="424.294" x2="503.98" y2="544.357" gradientUnits="userSpaceOnUse">
<stop stop-color="#9FFF9A"/>
<stop offset="1" stop-color="#00A490"/>
</linearGradient>
<linearGradient id="paint103_linear_18_4298" x1="839.65" y1="428.733" x2="505.577" y2="548.796" gradientUnits="userSpaceOnUse">
<stop stop-color="#9FFF9A"/>
<stop offset="1" stop-color="#00A490"/>
</linearGradient>
<linearGradient id="paint104_linear_18_4298" x1="841.22" y1="433.103" x2="507.148" y2="553.167" gradientUnits="userSpaceOnUse">
<stop stop-color="#9FFF9A"/>
<stop offset="1" stop-color="#00A490"/>
</linearGradient>
<linearGradient id="paint105_linear_18_4298" x1="842.953" y1="437.923" x2="508.881" y2="557.986" gradientUnits="userSpaceOnUse">
<stop stop-color="#9FFF9A"/>
<stop offset="1" stop-color="#00A490"/>
</linearGradient>
<linearGradient id="paint106_linear_18_4298" x1="844.781" y1="443.013" x2="510.711" y2="563.075" gradientUnits="userSpaceOnUse">
<stop stop-color="#9FFF9A"/>
<stop offset="1" stop-color="#00A490"/>
</linearGradient>
<linearGradient id="paint107_linear_18_4298" x1="846.588" y1="448.039" x2="512.517" y2="568.102" gradientUnits="userSpaceOnUse">
<stop stop-color="#9FFF9A"/>
<stop offset="1" stop-color="#00A490"/>
</linearGradient>
<linearGradient id="paint108_linear_18_4298" x1="848.161" y1="452.411" x2="514.084" y2="572.475" gradientUnits="userSpaceOnUse">
<stop stop-color="#9FFF9A"/>
<stop offset="1" stop-color="#00A490"/>
</linearGradient>
<linearGradient id="paint109_linear_18_4298" x1="849.733" y1="456.782" x2="515.659" y2="576.846" gradientUnits="userSpaceOnUse">
<stop stop-color="#9FFF9A"/>
<stop offset="1" stop-color="#00A490"/>
</linearGradient>
<linearGradient id="paint110_linear_18_4298" x1="851.465" y1="461.602" x2="517.396" y2="581.663" gradientUnits="userSpaceOnUse">
<stop stop-color="#9FFF9A"/>
<stop offset="1" stop-color="#00A490"/>
</linearGradient>
<linearGradient id="paint111_linear_18_4298" x1="853.062" y1="466.041" x2="518.984" y2="586.105" gradientUnits="userSpaceOnUse">
<stop stop-color="#9FFF9A"/>
<stop offset="1" stop-color="#00A490"/>
</linearGradient>
<linearGradient id="paint112_linear_18_4298" x1="854.632" y1="470.411" x2="520.554" y2="590.477" gradientUnits="userSpaceOnUse">
<stop stop-color="#9FFF9A"/>
<stop offset="1" stop-color="#00A490"/>
</linearGradient>
<linearGradient id="paint113_linear_18_4298" x1="856.365" y1="475.231" x2="522.288" y2="595.295" gradientUnits="userSpaceOnUse">
<stop stop-color="#9FFF9A"/>
<stop offset="1" stop-color="#00A490"/>
</linearGradient>
<linearGradient id="paint114_linear_18_4298" x1="381.752" y1="689.272" x2="376.636" y2="664.186" gradientUnits="userSpaceOnUse">
<stop stop-color="#9FFF9A"/>
<stop offset="1" stop-color="#00A490"/>
</linearGradient>
<linearGradient id="paint115_linear_18_4298" x1="397.189" y1="686.124" x2="392.074" y2="661.038" gradientUnits="userSpaceOnUse">
<stop stop-color="#9FFF9A"/>
<stop offset="1" stop-color="#00A490"/>
</linearGradient>
<linearGradient id="paint116_linear_18_4298" x1="413.116" y1="682.876" x2="408" y2="657.79" gradientUnits="userSpaceOnUse">
<stop stop-color="#9FFF9A"/>
<stop offset="1" stop-color="#00A490"/>
</linearGradient>
<linearGradient id="paint117_linear_18_4298" x1="429.035" y1="679.63" x2="423.92" y2="654.544" gradientUnits="userSpaceOnUse">
<stop stop-color="#9FFF9A"/>
<stop offset="1" stop-color="#00A490"/>
</linearGradient>
<linearGradient id="paint118_linear_18_4298" x1="445.4" y1="676.293" x2="440.284" y2="651.207" gradientUnits="userSpaceOnUse">
<stop stop-color="#9FFF9A"/>
<stop offset="1" stop-color="#00A490"/>
</linearGradient>
<linearGradient id="paint119_linear_18_4298" x1="461.061" y1="673.097" x2="455.946" y2="648.011" gradientUnits="userSpaceOnUse">
<stop stop-color="#9FFF9A"/>
<stop offset="1" stop-color="#00A490"/>
</linearGradient>
<linearGradient id="paint120_linear_18_4298" x1="476.981" y1="669.853" x2="471.865" y2="644.767" gradientUnits="userSpaceOnUse">
<stop stop-color="#9FFF9A"/>
<stop offset="1" stop-color="#00A490"/>
</linearGradient>
<linearGradient id="paint121_linear_18_4298" x1="493.344" y1="666.517" x2="488.228" y2="641.431" gradientUnits="userSpaceOnUse">
<stop stop-color="#9FFF9A"/>
<stop offset="1" stop-color="#00A490"/>
</linearGradient>
<linearGradient id="paint122_linear_18_4298" x1="512.085" y1="662.695" x2="506.97" y2="637.609" gradientUnits="userSpaceOnUse">
<stop stop-color="#9FFF9A"/>
<stop offset="1" stop-color="#00A490"/>
</linearGradient>
<linearGradient id="paint123_linear_18_4298" x1="527.523" y1="659.547" x2="522.408" y2="634.461" gradientUnits="userSpaceOnUse">
<stop stop-color="#9FFF9A"/>
<stop offset="1" stop-color="#00A490"/>
</linearGradient>
<linearGradient id="paint124_linear_18_4298" x1="543.45" y1="656.299" x2="538.335" y2="631.213" gradientUnits="userSpaceOnUse">
<stop stop-color="#9FFF9A"/>
<stop offset="1" stop-color="#00A490"/>
</linearGradient>
</defs>
</svg>
