<svg width="600" height="130" viewBox="0 0 600 130" fill="none" xmlns="http://www.w3.org/2000/svg">
<path fill-rule="evenodd" clip-rule="evenodd" d="M659.81 21L667 92.5025L666.907 98.413L666.868 123.722L666.245 149.518L665.888 170L318.703 152.692L208.116 137.407L-92.7636 128.283L-99 91.0736L-89.2813 85.8376L-84.8721 83.4575L-22.6937 86.2739L-13.3458 86.6838L17.5183 88.0853L23.1589 87.0937L-95.4444 91.2332L-18.7939 89.8193L-18.2643 89.7399V80.4578L-15.4308 81.0528L-3.95106 83.4461L-0.25687 84.1997L0.828846 84.4377L1.13339 84.0279L3.43727 80.9603L4.78783 79.1753L15.8041 64.5645L31.9048 69.0865L20.5735 67.4602L30.3054 67.3147L52.7219 61.7222L59.8322 60.6776L659.81 21Z" fill="url(#paint0_linear_1424_611)"/>
<path fill-rule="evenodd" clip-rule="evenodd" d="M689 10.1162L675.03 52.8076L673.661 57.0403L661.051 57.98L659.954 58.0646H659.852L659.274 58.1069L631.214 60.2149L609.956 61.8064L608.145 61.9418L600.195 62.5429H600.101L594.081 62.9915H594.022L592.985 63.0762L585.774 63.618L584.49 63.7111L581.659 63.9227L580.035 64.0412L559.058 65.6243H558.692L543.242 66.7756L537.409 67.2243L527.146 67.9861L515.616 68.8327L513.975 68.9597L508.542 69.366L487.284 70.9575L486.74 70.9998L458 66.5047L468.119 50.0309L468.161 49.9716H468.578H468.629L479.189 49.2521L486.91 48.7357H487.191L488.832 48.6256L490.957 48.4817L492.36 48.3886L495.209 48.1939V48.1346L496.059 45.8743L498.313 39.7707L498.457 39.3898L499.231 37.265L499.46 36.647L509.502 36.7316L509.604 36.0713L509.681 35.5803V35.4026L510.123 32.4227L510.217 31.8132H510.276L529.969 30.4249H530.071H530.581L539.543 29.79H540.003V30.0016V30.8481V31.8217V32.2365L539.901 35.538V36.6131L541.542 36.393L541.754 35.4788L542.604 31.6778L542.647 31.5L542.715 31.1952L542.792 30.8481V30.7212L543.557 27.462H544.127L546.312 27.5127L555.18 27.7667H555.946L567.416 28.0799L567.62 28.4185L567.79 28.7148L571.115 34.3275L571.532 35.0301L571.276 34.319L569.27 28.5963L569.134 28.2408L567.195 22.6959L565.452 17.7436L577.594 17.0071L596.148 15.7119L598.222 15.5934L602.805 15.3055L606.861 15.0685H607.057L613.06 14.713L632.37 13.5447L635.066 13.3754L657.284 12.0379L663.525 11.6569L689 10.1162Z" fill="url(#paint1_linear_1424_611)" style="mix-blend-mode:multiply"/>
<path fill-rule="evenodd" clip-rule="evenodd" d="M667.13 16.1777L665.957 17.1428L677.376 20.7068L668.814 28.0802L648.602 31.2717L582.39 38.2641C582.39 38.2641 574.499 38.6281 563.207 38.8652C556.677 39.0006 549.024 39.0937 541.099 39.026C537.647 39.026 534.153 38.9583 530.666 38.8736H529.569C526.653 38.789 523.753 38.6874 520.93 38.5435C519.434 38.4758 517.963 38.3996 516.509 38.3065C515.616 38.2472 514.723 38.1964 513.847 38.1287L512.589 38.0356C507.802 37.68 503.355 37.189 499.486 36.588L508.652 35.4705L509.375 35.3774H509.732L511.535 35.1658L517.266 34.4631L527.376 33.2356L528.226 33.1341L531.517 32.7362L540.02 31.7034L542.664 31.3817L543.31 31.2971L545.547 31.0346L549.305 30.569H549.398L554.798 29.9172L562.757 28.9437H562.808L567.612 28.3595L569.125 28.1733L573.53 27.64L588.886 25.7776L597.67 24.7194L600.986 24.313L612.524 22.9078L618.332 22.1967L626.894 21.1554H627.03L634.726 20.2242L662.53 16.838L667.13 16.1777Z" fill="#147EA3"/>
<path fill-rule="evenodd" clip-rule="evenodd" d="M602.806 24.8289L597.916 25.3538L589.345 26.2765L576.251 27.6902C576.251 27.6902 575.401 27.8172 573.904 27.995C572.731 28.1304 571.158 28.2998 569.338 28.4521C568.862 28.5029 568.369 28.5368 567.858 28.5707C566.319 28.6892 564.644 28.7907 562.884 28.8585H562.833C560.427 28.9516 557.884 28.977 555.359 28.8585C551.746 28.8031 548.15 28.369 544.628 27.5633C544.271 27.4701 543.914 27.3855 543.574 27.2839C543.574 27.2839 543.693 27.2839 543.931 27.1823L544.934 26.9199C546.057 26.6236 547.834 26.1749 550.079 25.6585C551.541 25.3199 553.208 24.9559 555.019 24.5834C558.641 23.8554 562.85 23.1104 567.221 22.5432C569.414 22.2723 571.659 22.0353 573.887 21.8745C575.426 21.7729 576.965 21.6967 578.479 21.6713C580.893 21.6205 583.13 21.6713 585.196 21.7729L586.437 21.8321C588.461 21.9676 590.306 22.1454 591.956 22.3655C593.954 22.6279 595.68 22.9326 597.134 23.212L597.372 23.2713H597.576C599.013 23.5845 600.127 23.8977 600.977 24.1178C601.599 24.3227 602.209 24.5601 602.806 24.8289V24.8289Z" fill="#147EA3"/>
<path fill-rule="evenodd" clip-rule="evenodd" d="M689 10.1164L683.277 14.7554L665.957 17.1427L662.437 17.6168L627.337 22.4336L622.362 23.1193C622.362 23.1193 620.968 23.1193 618.544 23.0262C616.963 23.0262 614.939 22.9077 612.592 22.8146C609.744 22.6876 606.419 22.5183 602.814 22.2897H602.304C601.02 22.2051 599.693 22.1204 598.341 22.0104C596.777 21.9003 595.204 21.7733 593.597 21.6379C591.658 21.4686 589.685 21.2823 587.704 21.0791L586.913 20.9945C582.985 20.5797 579.057 20.0802 575.307 19.4961C571.838 18.9459 568.505 18.3279 565.511 17.6083C570.809 14.8655 577.951 12.893 586.114 11.4793C589.966 10.7936 594.039 10.2349 598.265 9.78621C600.544 9.54918 602.848 9.32908 605.195 9.14284C606.487 9.03279 607.788 8.93967 609.098 8.84655C615.951 8.38941 623 8.13545 629.938 8.04233C632.472 8.04233 634.984 8.02822 637.472 8H641.018C648.101 8.05079 654.886 8.22857 660.991 8.48253L663.151 8.56718C678.397 9.16823 689 10.1164 689 10.1164Z" fill="#147EA3"/>
<path style="mix-blend-mode:multiply" opacity="0.7" fill-rule="evenodd" clip-rule="evenodd" d="M508.491 69.392L487.242 70.9835L490.558 57.4473L491.264 54.5605L493.33 54.7552L495.133 54.9161L508.236 56.1351L508.261 57.7266L508.491 69.392Z" fill="url(#paint2_linear_1424_611)"/>
<path fill-rule="evenodd" clip-rule="evenodd" d="M651.561 35.1064L626.903 43.5719L608.341 49.9125L607.193 50.048C603.52 50.4374 591.471 51.7411 576.217 53.1464L571.549 53.5781C560.962 54.5347 549.169 55.5167 537.732 56.304C532.911 56.6257 528.149 56.9219 523.558 57.1505C520.854 57.286 518.201 57.4214 515.642 57.5145H514.749C512.547 57.5992 510.421 57.6584 508.372 57.7092C504.817 57.7939 501.51 57.8193 498.534 57.7685H498.211C495.362 57.7177 492.837 57.6077 490.668 57.4299L489.503 57.3198C469.505 55.2119 468.246 50.2596 468.246 50.0057L468.756 49.9041C471.766 49.2861 475.142 48.702 478.832 48.1263C480.283 47.9006 481.786 47.6777 483.339 47.4576L487.65 46.8565C490.388 46.4925 493.245 46.1454 496.153 45.7899L500.957 45.2481C502.539 45.0618 504.154 44.8925 505.787 44.7232L508.014 44.4862C511.943 44.0798 515.976 43.6848 520.114 43.301L520.684 43.2587C521.117 43.2079 521.534 43.174 521.993 43.1317L525.752 42.7931L529.569 42.4629L533.719 42.1159L535.343 41.9804C537.596 41.7942 539.867 41.6248 542.145 41.4471C549.024 40.9053 551.626 41.5063 558.497 41.0323C596.318 38.4418 636.443 35.7414 647.871 35.2673L651.561 35.1064Z" fill="#147EA3"/>
<path style="mix-blend-mode:screen" fill-rule="evenodd" clip-rule="evenodd" d="M470.859 39.3521C471.659 39.154 472.505 38.9829 473.377 38.8298C479.915 37.7041 480.824 39.7303 490.869 38.1004C494.08 37.5691 497.516 36.9657 501.113 36.2993L500.034 36.5965C495.33 37.9113 492.147 39.0459 491.805 39.6673C491.616 40.0095 492.641 40.3877 494.593 40.7569C495.492 40.928 496.58 41.0991 497.839 41.2612C512.373 43.1433 549.229 44.323 566.28 38.6857C567.638 38.2445 566.874 36.8847 564.796 35.2727C563.855 34.5539 562.863 33.9038 561.829 33.3276C561.136 32.9404 560.399 32.5532 559.616 32.1749C558.018 31.3989 556.371 30.7251 554.688 30.1578C554.238 30.0077 553.779 29.8636 553.312 29.7255C550.709 28.9325 548.016 28.4726 545.298 28.3567C544.336 28.3567 543.167 28.3567 541.836 28.4648C551.162 26.6007 560.165 24.7997 567.989 23.2598H569.788C560.911 24.7997 554.643 26.8619 556.037 29.3833C556.286 29.6709 556.593 29.9039 556.936 30.0677L557.449 30.3649C558.348 30.8512 559.598 31.4545 560.956 32.0669L563.573 33.2286C565.372 33.985 567.009 34.6874 568.115 35.1467L569.365 35.66L573.961 36.8757C573.961 36.8757 598.1 35.4438 608.136 42.657L606.652 45.6467L571.739 55.6425H570.094C568.781 55.6425 567.468 55.6425 566.172 55.6425C563.852 55.6425 561.55 55.6425 559.265 55.6425L561.757 50.7167L557.844 55.6155C553.647 55.5255 549.525 55.3604 545.478 55.1202C542.852 54.9672 540.262 54.778 537.699 54.5709C536.395 54.4629 535.1 54.3548 533.814 54.2287L534.039 54.1747C550.227 49.8882 560.3 44.5571 561.919 42.8011C561.919 42.8011 521.232 44.5031 508.434 43.0442C504.747 42.63 500.726 42.0987 496.634 41.6214C494.989 41.4323 493.334 41.2432 491.679 41.0811C484.772 40.3967 477.937 40.0545 472.424 40.838C471.188 41.0061 469.966 41.2558 468.763 41.5854C467.318 42.0051 465.942 42.6363 464.68 43.4585L464.626 41.5404C466.617 40.5838 468.707 39.85 470.859 39.3521V39.3521ZM560.65 48.1682C565.255 50.3565 598.27 44.269 598.783 41.4773C599.592 37.0558 573.7 37.0918 571.91 37.8212C570.121 38.5506 556.046 46.016 560.65 48.1682ZM536.71 28.9691C538.562 28.7259 540.307 28.5458 541.764 28.4378L538.517 29.0861C525.782 31.6166 512.607 34.2011 501.086 36.2903C512.809 33.1708 524.704 30.7382 536.71 29.0051V28.9691Z" fill="url(#paint3_linear_1424_611)"/>
<path fill-rule="evenodd" clip-rule="evenodd" d="M644.841 25.1923L644.389 27.2684L643.405 31.7486L643.228 32.5249L642.701 34.9746L641.762 39.2534L635.771 40.1762L610.829 44.0212L609.657 44.1964L609.537 44.0103L609.237 43.4921L609.104 43.2677L609.021 43.2716L601.935 43.966L588.162 45.3117L587.488 43.8953L587.426 43.7644L585.918 43.8797L582.782 44.1127L568.835 45.1643L567.993 43.7859L564.706 38.3508L564.461 37.9406L564.334 37.7467L574.945 33.248L576.454 32.605L579.838 31.1691L586.667 28.2775L589.492 27.0736L588.824 26.0193L586.955 23.0507L586.111 21.7249L585.5 20.7485L585.545 20.7354L604.042 15.1249L604.918 14.8614L608.819 14.6693L640.505 13.1381L640.247 14.0616L638.441 20.4963L637.81 22.7153L642.324 24.3139L644.841 25.1923Z" fill="url(#paint4_linear_1424_611)"/>
<path fill-rule="evenodd" clip-rule="evenodd" d="M608.991 15.0156C608.991 15.0156 605.476 16.197 601.158 17.5168C594.86 19.4365 586.852 21.621 585.552 20.7503C585.304 20.5812 585.301 20.3097 585.59 19.8926C588.498 15.9182 601.491 5.91448 607.554 12.8197C608.046 13.3878 608.468 14.0136 608.81 14.6836C608.889 14.7775 608.937 14.8851 608.991 15.0156Z" fill="url(#paint5_linear_1424_611)"/>
<path style="mix-blend-mode:multiply" opacity="0.36" fill-rule="evenodd" clip-rule="evenodd" d="M603.724 31.0321L605.223 42.8273L613.638 42.5074L611.742 33.9366L625.575 22.4165L625.54 19.9423L594.467 28.0739L596.719 30.5465L603.724 31.0321Z" fill="url(#paint6_linear_1424_611)"/>
<path style="mix-blend-mode:multiply" opacity="0.36" fill-rule="evenodd" clip-rule="evenodd" d="M585.573 35.0748L587.559 43.3028L582.782 44.1127L575.853 33.4608L593.649 23.2515L595.39 33.4439L585.573 35.0748Z" fill="url(#paint7_linear_1424_611)"/>
<path fill-rule="evenodd" clip-rule="evenodd" d="M592.717 26.1731C592.104 26.8957 591.439 27.5722 590.728 28.1974C588.227 30.3892 585.391 32.1645 582.33 33.4557C581.84 33.6681 581.366 33.8661 580.884 34.0562C579.607 34.5585 578.326 34.9927 577.068 35.3979C572.918 36.6521 568.646 37.4569 564.325 37.7985C563.966 36.1608 564.186 34.4484 564.949 32.9558C565.254 32.3114 565.626 31.7009 566.058 31.1345C566.12 31.0445 566.19 30.9593 566.265 30.8797C566.913 30.0621 567.641 29.3109 568.436 28.6372C570.743 26.7295 573.348 25.2176 576.146 24.1631V24.1631C579.332 22.8998 582.682 22.0987 586.093 21.784C589.299 21.5088 591.899 21.8481 593.065 22.8412C593.256 22.995 593.416 23.1835 593.537 23.3969C593.953 24.0257 593.739 24.9737 592.717 26.1731Z" fill="url(#paint8_linear_1424_611)"/>
<path fill-rule="evenodd" clip-rule="evenodd" d="M640.247 14.062C638.636 16.5249 632.678 19.2659 625.568 21.7157C624.279 22.1496 622.953 22.5819 621.605 22.9907C614.478 25.2164 607.199 26.9154 599.825 28.0739C597.346 28.4183 595.493 28.5111 594.624 28.2848L594.496 28.2793C594.432 28.2643 594.37 28.2414 594.311 28.2109C594.246 28.1863 594.188 28.1431 594.147 28.0863C594.105 28.0296 594.081 27.962 594.077 27.8916C594.082 27.5494 594.145 27.2106 594.264 26.8896C594.808 25.3853 595.576 23.9725 596.543 22.6994C598.654 19.8336 601.184 17.3031 604.047 15.1933C605.175 14.3529 606.35 13.5785 607.567 12.8738C615.295 8.41515 624.392 6.97731 633.111 8.83641C639.887 10.0886 641.608 11.9727 640.247 14.062Z" fill="url(#paint9_linear_1424_611)"/>
<path fill-rule="evenodd" clip-rule="evenodd" d="M621.538 64.8017L597.367 126.862L594.995 133.016L576.274 133.37L574.646 133.406L574.495 133.397L573.636 133.412L531.978 134.226L500.418 134.834L497.73 134.886L485.926 135.122L485.788 135.114L476.85 135.283L476.762 135.279L475.222 135.319L464.517 135.528L462.611 135.56L458.407 135.641L455.996 135.683L424.852 136.301L424.312 136.271L401.375 136.705L392.714 136.89L377.478 137.174L360.362 137.479L357.925 137.532L349.858 137.687L318.299 138.296L317.491 138.313L275.37 129.295L291.687 105.735L291.755 105.651L292.371 105.686L292.446 105.69L308.119 105.493L319.576 105.363L319.991 105.386L322.426 105.358L325.581 105.32L327.663 105.297L331.89 105.243L331.895 105.156L333.338 101.879L337.172 93.0273L337.417 92.4751L338.736 89.3927L339.127 88.4966L353.966 89.4478L354.172 88.4785L354.325 87.7578L354.34 87.4946L355.239 83.119L355.427 82.2243L355.515 82.2292L384.745 81.793L384.896 81.8014L385.65 81.8433L398.952 81.6403L399.631 81.678L399.614 81.9914L399.544 83.2448L399.464 84.6862L399.43 85.3004L399.007 90.1802L398.918 91.772L401.363 91.5811L401.752 90.2449L403.323 84.6871L403.4 84.4274L403.526 83.9817L403.667 83.4741L403.678 83.2861L405.078 78.5235L405.92 78.5703L409.147 78.8252L422.238 79.9305L423.369 79.9935L440.302 81.4005L440.576 81.9186L440.803 82.3713L445.256 90.9547L445.814 92.0293L445.495 90.9555L443 82.3175L442.828 81.7799L440.418 73.4107L438.249 65.935L456.262 65.843L483.799 65.451L486.876 65.4462L493.675 65.3969L499.691 65.3795L499.981 65.3956L508.885 65.3628L537.531 65.2211L541.53 65.192L574.489 65.0388L583.747 64.988L621.538 64.8017Z" fill="url(#paint10_linear_1424_611)"/>
<path fill-rule="evenodd" clip-rule="evenodd" d="M588.705 71.9774L586.891 73.3098L603.481 79.5257L590.214 89.7387L560.07 92.8019L461.601 97.7101C461.601 97.7101 449.905 97.6002 433.191 97.0225C423.525 96.6861 412.203 96.1946 400.492 95.4427C395.388 95.1588 390.227 94.7711 385.08 94.3591L383.458 94.2689C379.153 93.9037 374.875 93.5149 370.713 93.0697C368.506 92.8463 366.338 92.6125 364.196 92.3551C362.88 92.1939 361.565 92.0453 360.275 91.873L358.423 91.6317C351.374 90.7116 344.84 89.6189 339.169 88.4108L352.813 87.5101L353.89 87.4317L354.417 87.461L357.1 87.2959L365.631 86.7269L380.679 85.7409L381.945 85.6604L386.843 85.3419L399.499 84.512L403.435 84.2531L404.397 84.1809L407.725 83.9763L413.32 83.596L413.458 83.6037L421.495 83.0826L433.342 82.2956L433.417 82.2998L440.568 81.83L442.821 81.6788L449.377 81.2513L472.234 79.7567L485.307 78.9122L490.244 78.5833L507.418 77.4515L516.063 76.8762L528.808 76.0387L529.009 76.0498L540.463 75.3039L581.85 72.5768L588.705 71.9774Z" fill="#147EA3"/>
<path fill-rule="evenodd" clip-rule="evenodd" d="M492.891 79.4974L485.62 79.8724L472.872 80.5338L453.396 81.5502C453.396 81.5502 452.128 81.6683 449.901 81.8084C448.155 81.9125 445.815 82.0338 443.112 82.1098C442.404 82.1458 441.672 82.1554 440.915 82.1636C438.63 82.2125 436.145 82.2252 433.537 82.1807L433.462 82.1765C429.897 82.1165 426.136 81.945 422.412 81.5619C417.075 81.1828 411.793 80.2443 406.654 78.7617C406.133 78.5945 405.612 78.4398 405.118 78.2614C405.118 78.2614 405.294 78.2712 405.654 78.1404L407.159 77.8343C408.843 77.4879 411.507 76.9698 414.869 76.3898C417.059 76.0087 419.553 75.6068 422.261 75.2042C427.676 74.4242 433.961 73.6673 440.469 73.1869C443.735 72.9663 447.073 72.7999 450.38 72.7449C452.664 72.7211 454.945 72.7349 457.185 72.8217C460.759 72.9451 464.062 73.2042 467.108 73.5245L468.938 73.7143C471.919 74.0813 474.633 74.4963 477.053 74.9578C479.986 75.5107 482.513 76.1038 484.639 76.637L484.987 76.7443L485.288 76.7611C487.387 77.343 489.008 77.8984 490.247 78.2942C491.149 78.6487 492.032 79.0503 492.891 79.4974V79.4974Z" fill="#147EA3"/>
<path fill-rule="evenodd" clip-rule="evenodd" d="M621.538 64.8011L612.695 71.1992L586.891 73.3094L581.648 73.7218L529.357 77.9673L521.946 78.5735C521.946 78.5735 519.884 78.4588 516.309 78.1216C513.971 77.9916 510.989 77.6497 507.527 77.3188C503.326 76.8966 498.424 76.3725 493.113 75.7376L492.359 75.6956C490.468 75.4647 488.513 75.2303 486.524 74.9562C484.22 74.6646 481.904 74.3472 479.54 74.0145C476.687 73.6044 473.786 73.1664 470.874 72.7027L469.711 72.5123C463.938 71.5751 458.171 70.5126 452.675 69.3394C447.591 68.2394 442.714 67.0503 438.348 65.7388C446.406 62.1134 457.129 59.7803 469.313 58.3584C475.065 57.6599 481.132 57.1676 487.417 56.8508C490.806 56.6872 494.231 56.5509 497.716 56.4681C499.636 56.4114 501.567 56.3805 503.51 56.3504C513.68 56.2371 524.123 56.4407 534.389 56.8734C538.135 57.0818 541.849 57.2674 545.53 57.4303L550.773 57.7219C561.24 58.3795 571.257 59.2007 580.263 60.0788L583.449 60.3817C605.94 62.5254 621.538 64.8011 621.538 64.8011Z" fill="#147EA3"/>
<path style="mix-blend-mode:multiply" opacity="0.2" fill-rule="evenodd" clip-rule="evenodd" d="M349.781 137.721L318.234 138.33L324.252 118.56L325.533 114.344L328.572 114.803L331.224 115.189L350.496 118.071L350.402 120.43L349.781 137.721Z" fill="url(#paint11_linear_1424_611)"/>
<path style="mix-blend-mode:multiply" opacity="0.47" fill-rule="evenodd" clip-rule="evenodd" d="M574.636 133.355L574.497 133.36L574.484 133.359L573.639 133.375L531.98 134.188L500.408 134.796L500.41 134.758L498.991 117.643L498.936 117.049L526.914 109.189L526.939 109.19L564.129 98.7234L571.747 123.853L574.636 133.355Z" fill="url(#paint12_linear_1424_611)"/>
<path fill-rule="evenodd" clip-rule="evenodd" d="M564.129 98.7232L526.975 109.229L499.009 117.091L497.301 117.197C491.838 117.472 473.917 118.411 451.249 119.237L444.312 119.493C428.582 120.038 411.064 120.522 394.091 120.748C386.937 120.827 379.873 120.875 373.065 120.835C369.056 120.814 365.123 120.796 361.331 120.723L360.011 120.65C356.749 120.594 353.601 120.507 350.567 120.414C345.305 120.247 340.413 120.013 336.017 119.693L335.539 119.666C331.332 119.357 327.608 118.986 324.417 118.544L322.703 118.286C293.309 113.52 291.857 106.084 291.878 105.708L292.64 105.6C297.141 104.932 302.18 104.345 307.684 103.796C309.848 103.581 312.087 103.375 314.401 103.177L320.825 102.641C324.902 102.327 329.155 102.048 333.484 101.761L340.631 101.354C342.985 101.208 345.387 101.091 347.815 100.974L351.128 100.806C356.969 100.528 362.965 100.275 369.114 100.047L369.96 100.031C370.606 99.9913 371.224 99.9754 371.907 99.9505L377.491 99.7582L383.163 99.5833L389.326 99.4107L391.738 99.3437C395.085 99.2532 398.456 99.1892 401.839 99.1134C412.054 98.8769 415.851 99.9808 426.048 99.8439C482.178 99.1186 541.724 98.42 558.659 98.6578L564.129 98.7232Z" fill="#147EA3"/>
<path style="mix-blend-mode:screen" fill-rule="evenodd" clip-rule="evenodd" d="M416.057 98.5901C416.857 98.392 417.701 98.2209 418.572 98.0678C425.101 96.9421 426.008 98.9684 436.04 97.3384C439.246 96.807 442.677 96.2037 446.269 95.5372L445.191 95.8344C440.494 97.1492 437.315 98.2839 436.974 98.9053C436.785 99.2476 437.809 99.6258 439.758 99.995C440.656 100.166 441.743 100.337 443 100.499C457.513 102.382 494.317 103.561 511.345 97.9237C512.701 97.4825 511.938 96.1226 509.863 94.5106C508.923 93.7917 507.933 93.1416 506.899 92.5654C506.208 92.1781 505.471 91.7909 504.69 91.4127C503.094 90.6365 501.45 89.9628 499.769 89.3954C499.319 89.2453 498.861 89.1012 498.394 88.9631C495.795 88.17 493.107 87.7101 490.392 87.5943C489.431 87.5943 488.264 87.5943 486.935 87.7023C496.248 85.8382 505.238 84.037 513.051 82.4971L514.848 82.4971C505.983 84.037 499.724 86.0993 501.116 88.6209C501.365 88.9085 501.671 89.1415 502.014 89.3053L502.526 89.6025C503.424 90.0888 504.672 90.6922 506.028 91.3046L508.642 92.4663C510.438 93.2228 512.072 93.9252 513.177 94.3845L514.425 94.8978L519.015 96.1136C519.015 96.1136 543.119 94.6817 553.142 101.895L551.66 104.885L516.796 114.881L515.153 114.881C513.842 114.881 512.53 114.881 511.237 114.881C508.92 114.881 506.621 114.881 504.34 114.881L506.828 109.955L502.921 114.854C498.73 114.764 494.613 114.599 490.572 114.359C487.95 114.206 485.363 114.017 482.804 113.81C481.501 113.702 480.208 113.594 478.924 113.467L479.148 113.413C495.314 109.127 505.373 103.795 506.989 102.039C506.989 102.039 466.359 103.741 453.58 102.282C449.897 101.868 445.883 101.337 441.797 100.86C440.153 100.67 438.501 100.481 436.848 100.319C429.951 99.6348 423.125 99.2926 417.62 100.076C416.386 100.244 415.165 100.494 413.965 100.824C412.521 101.243 411.147 101.874 409.887 102.697L409.833 100.779C411.822 99.8219 413.909 99.0881 416.057 98.5901V98.5901ZM505.723 107.407C510.321 109.595 543.29 103.507 543.802 100.715C544.61 96.2937 518.754 96.3297 516.967 97.0592C515.18 97.7886 501.125 105.254 505.723 107.407ZM481.816 88.2066C483.666 87.9635 485.408 87.7834 486.863 87.6753L483.621 88.3237C470.904 90.8543 457.747 93.4389 446.242 95.5282C457.949 92.4085 469.827 89.9759 481.816 88.2427L481.816 88.2066Z" fill="url(#paint13_linear_1424_611)"/>
<path style="mix-blend-mode:screen" fill-rule="evenodd" clip-rule="evenodd" d="M464.443 75.886C465.243 75.6879 466.087 75.5168 466.958 75.3637C473.487 74.238 474.394 76.2643 484.426 74.6343C487.632 74.1029 491.063 73.4996 494.655 72.8331L493.577 73.1303C488.88 74.4451 485.701 75.5798 485.36 76.2012C485.171 76.5435 486.195 76.9217 488.144 77.2909C489.042 77.462 490.129 77.6331 491.386 77.7952C505.899 79.6774 542.703 80.8572 559.731 75.2196C561.087 74.7783 560.324 73.4185 558.249 71.8065C557.309 71.0876 556.319 70.4375 555.285 69.8613C554.594 69.474 553.858 69.0868 553.076 68.7086C551.48 67.9324 549.836 67.2587 548.155 66.6913C547.706 66.5412 547.248 66.3971 546.781 66.259C544.182 65.4659 541.493 65.006 538.779 64.8902C537.818 64.8902 536.65 64.8902 535.321 64.9982C544.634 63.1341 553.624 61.3329 561.437 59.793L563.234 59.793C554.369 61.3329 548.11 63.3952 549.502 65.9168C549.751 66.2044 550.057 66.4374 550.4 66.6012L550.912 66.8984C551.81 67.3847 553.058 67.9881 554.414 68.6005L557.028 69.7622C558.824 70.5187 560.459 71.2211 561.563 71.6804L562.812 72.1937L567.401 73.4095C567.401 73.4095 591.506 71.9776 601.528 79.1911L600.046 82.181L565.182 92.1772L563.539 92.1772C562.228 92.1772 560.917 92.1772 559.623 92.1772C557.306 92.1772 555.007 92.1772 552.726 92.1772L555.214 87.2512L551.307 92.1502C547.116 92.0602 543 91.8951 538.958 91.6549C536.336 91.5018 533.749 91.3127 531.19 91.1056C529.887 90.9975 528.594 90.8894 527.31 90.7633L527.534 90.7093C543.7 86.4226 553.759 81.0913 555.375 79.3352C555.375 79.3352 514.746 81.0373 501.966 79.5783C498.284 79.1641 494.269 78.6328 490.183 78.1555C488.539 77.9663 486.887 77.7772 485.234 77.6151C478.337 76.9307 471.511 76.5885 466.006 77.372C464.773 77.5401 463.551 77.7898 462.351 78.1194C460.907 78.5392 459.533 79.1704 458.273 79.9926L458.22 78.0744C460.208 77.1178 462.295 76.384 464.443 75.886V75.886ZM554.109 84.7026C558.707 86.8909 591.676 80.8031 592.188 78.0114C592.996 73.5896 567.14 73.6256 565.353 74.3551C563.566 75.0845 549.511 82.5502 554.109 84.7026ZM530.202 65.5025C532.052 65.2594 533.794 65.0793 535.249 64.9712L532.007 65.6196C519.29 68.1502 506.133 70.7348 494.628 72.8241C506.335 69.7044 518.213 67.2718 530.202 65.5386L530.202 65.5025Z" fill="url(#paint14_linear_1424_611)"/>
<path style="mix-blend-mode:screen" fill-rule="evenodd" clip-rule="evenodd" d="M296.953 113.106C297.753 112.908 298.597 112.737 299.468 112.583C305.997 111.458 306.904 113.484 316.936 111.854C320.142 111.323 323.573 110.719 327.165 110.053L326.088 110.35C321.39 111.665 318.211 112.8 317.87 113.421C317.681 113.763 318.705 114.141 320.654 114.511C321.552 114.682 322.639 114.853 323.896 115.015C338.409 116.897 375.213 118.077 392.241 112.439C393.597 111.998 392.834 110.638 390.759 109.026C389.819 108.307 388.829 107.657 387.796 107.081C387.104 106.694 386.368 106.307 385.586 105.928C383.99 105.152 382.346 104.478 380.665 103.911C380.216 103.761 379.758 103.617 379.291 103.479C376.692 102.686 374.003 102.226 371.289 102.11C370.328 102.11 369.16 102.11 367.831 102.218C377.144 100.354 386.134 98.5527 393.947 97.0127L395.744 97.0127C386.879 98.5527 380.62 100.615 382.012 103.137C382.261 103.424 382.567 103.657 382.91 103.821L383.422 104.118C384.32 104.604 385.568 105.208 386.924 105.82L389.538 106.982C391.334 107.738 392.969 108.441 394.073 108.9L395.322 109.413L399.911 110.629C399.911 110.629 424.016 109.197 434.038 116.411L432.556 119.401L397.692 129.397L396.049 129.397C394.738 129.397 393.427 129.397 392.133 129.397C389.816 129.397 387.517 129.397 385.236 129.397L387.724 124.471L383.817 129.37C379.626 129.28 375.51 129.115 371.468 128.875C368.846 128.722 366.259 128.532 363.7 128.325C362.397 128.217 361.104 128.109 359.82 127.983L360.044 127.929C376.21 123.642 386.269 118.311 387.885 116.555C387.885 116.555 347.256 118.257 334.476 116.798C330.794 116.384 326.779 115.852 322.693 115.375C321.049 115.186 319.397 114.997 317.744 114.835C310.847 114.15 304.021 113.808 298.516 114.592C297.283 114.76 296.061 115.01 294.861 115.339C293.417 115.759 292.043 116.39 290.783 117.212L290.73 115.294C292.718 114.338 294.805 113.604 296.953 113.106V113.106ZM386.619 121.922C391.217 124.111 424.186 118.023 424.698 115.231C425.506 110.809 399.65 110.845 397.863 111.575C396.076 112.304 382.021 119.77 386.619 121.922ZM362.712 102.722C364.562 102.479 366.304 102.299 367.759 102.191L364.517 102.839C351.8 105.37 338.643 107.955 327.138 110.044C338.845 106.924 350.723 104.492 362.712 102.758L362.712 102.722Z" fill="url(#paint15_linear_1424_611)"/>
<path style="mix-blend-mode:screen" fill-rule="evenodd" clip-rule="evenodd" d="M345.339 90.4017C346.139 90.2035 346.983 90.0324 347.854 89.8793C354.383 88.7536 355.29 90.7799 365.322 89.1499C368.528 88.6186 371.959 88.0152 375.551 87.3488L374.473 87.6459C369.776 88.9608 366.597 90.0955 366.256 90.7169C366.067 91.0591 367.091 91.4373 369.04 91.8065C369.938 91.9777 371.025 92.1488 372.282 92.3109C386.795 94.193 423.599 95.3728 440.627 89.7353C441.983 89.294 441.22 87.9341 439.145 86.3221C438.205 85.6032 437.215 84.9532 436.181 84.3769C435.49 83.9897 434.754 83.6024 433.972 83.2242C432.376 82.4481 430.732 81.7743 429.051 81.2069C428.602 81.0568 428.144 80.9127 427.677 80.7746C425.078 79.9816 422.389 79.5216 419.675 79.4058C418.714 79.4058 417.546 79.4058 416.217 79.5138C425.53 77.6497 434.52 75.8486 442.333 74.3086L444.13 74.3086C435.265 75.8486 429.006 77.9109 430.398 80.4324C430.647 80.72 430.953 80.953 431.296 81.1169L431.808 81.414C432.706 81.9003 433.954 82.5037 435.31 83.1161L437.924 84.2778C439.72 85.0343 441.355 85.7367 442.459 86.196L443.708 86.7094L448.297 87.9251C448.297 87.9251 472.402 86.4932 482.424 93.7067L480.942 96.6966L446.078 106.693L444.435 106.693C443.124 106.693 441.813 106.693 440.519 106.693C438.202 106.693 435.903 106.693 433.622 106.693L436.11 101.767L432.203 106.666C428.012 106.576 423.896 106.411 419.854 106.171C417.232 106.017 414.645 105.828 412.086 105.621C410.783 105.513 409.49 105.405 408.206 105.279L408.43 105.225C424.596 100.938 434.655 95.6069 436.271 93.8508C436.271 93.8508 395.642 95.5529 382.862 94.094C379.18 93.6797 375.165 93.1484 371.079 92.6711C369.435 92.482 367.783 92.2929 366.13 92.1308C359.233 91.4463 352.407 91.1041 346.902 91.8876C345.669 92.0557 344.447 92.3054 343.247 92.6351C341.803 93.0548 340.429 93.686 339.169 94.5082L339.116 92.59C341.104 91.6335 343.191 90.8996 345.339 90.4017V90.4017ZM435.005 99.2182C439.603 101.407 472.572 95.3187 473.084 92.527C473.892 88.1052 448.036 88.1412 446.249 88.8707C444.462 89.6002 430.407 97.0658 435.005 99.2182ZM411.098 80.0182C412.948 79.775 414.69 79.5949 416.145 79.4868L412.903 80.1352C400.186 82.6658 387.029 85.2504 375.524 87.3397C387.231 84.22 399.109 81.7874 411.098 80.0542L411.098 80.0182Z" fill="url(#paint16_linear_1424_611)"/>
<path fill-rule="evenodd" clip-rule="evenodd" d="M573.54 69.4109L572.8 71.4022L571.191 75.698L570.907 76.4415L570.038 78.7919L568.504 82.8947L562.45 82.96L537.249 83.235L536.066 83.2424L535.974 83.0412L535.75 82.4857L535.651 82.2448L535.568 82.2369L528.465 81.921L514.661 81.3033L514.195 79.8056L514.152 79.6673L512.645 79.568L509.512 79.3546L495.576 78.421L494.94 76.9372L492.461 71.0915L492.277 70.6507L492.179 70.4407L503.306 67.4896L504.888 67.0666L508.437 66.1243L515.597 64.2286L518.561 63.4368L518.05 62.2986L516.623 59.0952L515.977 57.6633L515.511 56.6101L515.558 56.6036L534.638 53.6683L535.541 53.5315L539.424 53.8936L570.963 56.864L570.577 57.7417L567.879 63.856L566.942 65.9635L571.177 68.185L573.54 69.4109Z" fill="url(#paint17_linear_1424_611)"/>
<path fill-rule="evenodd" clip-rule="evenodd" d="M539.546 54.2615C539.546 54.2615 535.903 54.9332 531.447 55.6284C524.949 56.6371 516.724 57.6659 515.563 56.62C515.342 56.4174 515.377 56.1482 515.721 55.7761C519.16 52.2535 533.422 44.1899 538.436 51.8842C538.842 52.5162 539.171 53.1955 539.414 53.9072C539.478 54.0112 539.51 54.1246 539.546 54.2615Z" fill="url(#paint18_linear_1424_611)"/>
<path style="mix-blend-mode:multiply" opacity="0.36" fill-rule="evenodd" clip-rule="evenodd" d="M532.068 69.3702L531.877 81.2589L540.241 82.1336L539.582 73.3807L554.89 63.935L555.206 61.4808L523.337 65.1311L525.212 67.8976L532.068 69.3702Z" fill="url(#paint19_linear_1424_611)"/>
<path fill-rule="evenodd" clip-rule="evenodd" d="M573.54 69.4102C573.54 69.4102 571.017 69.9704 567.329 70.718C561.46 71.9138 552.654 73.554 546.545 74.1221C542.957 74.4594 540.295 74.4188 539.724 73.683C539.65 73.5945 539.606 73.4841 539.6 73.3685C539.628 73.0778 539.757 72.8061 539.965 72.6019C541.591 70.8156 543.451 69.2599 545.495 67.9779C547.739 66.4865 550.134 65.2387 552.64 64.2554C553.406 63.9548 554.165 63.6913 554.949 63.4555C559.342 62.1202 563.976 61.857 567.843 63.8483C569.955 64.9428 571.738 66.5849 573.005 68.6045C573.208 68.8649 573.378 69.1345 573.54 69.4102Z" fill="url(#paint20_linear_1424_611)"/>
<path style="mix-blend-mode:multiply" opacity="0.36" fill-rule="evenodd" clip-rule="evenodd" d="M513.553 70.8028L514.349 79.2291L509.512 79.3545L504.173 67.8288L523.212 60.2417L523.488 70.5782L513.553 70.8028Z" fill="url(#paint21_linear_1424_611)"/>
<path fill-rule="evenodd" clip-rule="evenodd" d="M521.876 63.0025C521.168 63.631 520.415 64.2066 519.623 64.7247C516.84 66.5404 513.785 67.8965 510.576 68.7413C510.062 68.8821 509.565 69.0109 509.061 69.1309C507.728 69.4474 506.4 69.6959 505.099 69.9189C500.819 70.5728 496.482 70.7647 492.162 70.4911C492.039 68.819 492.5 67.1551 493.466 65.7856C493.859 65.1907 494.313 64.639 494.82 64.1396C494.895 64.0593 494.975 63.9847 495.061 63.9165C495.817 63.199 496.643 62.5584 497.525 62.0041C500.076 60.4421 502.865 59.3143 505.781 58.6665V58.6665C509.11 57.867 512.534 57.5482 515.951 57.7197C519.159 57.9012 521.681 58.6052 522.693 59.7534C522.86 59.9327 522.991 60.142 523.081 60.3704C523.403 61.0516 523.056 61.9598 521.876 63.0025Z" fill="url(#paint22_linear_1424_611)"/>
<path fill-rule="evenodd" clip-rule="evenodd" d="M570.577 57.7413C568.636 59.9514 562.358 61.8214 554.982 63.2398C553.647 63.4869 552.274 63.7271 550.884 63.9409C543.524 65.1353 536.087 65.7865 528.634 65.8893C526.133 65.8792 524.289 65.7088 523.462 65.3617L523.337 65.3381C523.275 65.3142 523.217 65.2827 523.164 65.2443C523.102 65.2107 523.052 65.1597 523.019 65.0977C522.986 65.0356 522.971 64.9652 522.977 64.8951C523.031 64.5571 523.141 64.2305 523.304 63.9295C524.055 62.5174 525.015 61.2276 526.151 60.1042C528.645 57.5661 531.504 55.4193 534.633 53.736C535.867 53.0637 537.139 52.4635 538.441 51.9382C546.713 48.6186 555.91 48.4832 564.264 51.558C570.785 53.7569 572.219 55.8658 570.577 57.7413Z" fill="url(#paint23_linear_1424_611)"/>
<path fill-rule="evenodd" clip-rule="evenodd" d="M546.13 78.4363C545.824 74.1792 551.338 75.9742 553.024 77.1878C554.711 78.4015 546.13 78.4363 546.13 78.4363Z" fill="url(#paint24_linear_1424_611)"/>
<path fill-rule="evenodd" clip-rule="evenodd" d="M535.583 82.4849C534.902 73.1606 546.952 77.1115 550.634 79.758C554.317 82.4044 535.583 82.4849 535.583 82.4849Z" fill="url(#paint25_linear_1424_611)"/>
<path fill-rule="evenodd" clip-rule="evenodd" d="M82.9422 27.2296V27.975L82.4241 46.3737L82.3534 48.894L82.0944 59.7557L77.1371 68.2984L72.9804 75.3976C75.724 75.3976 73.7458 76.5098 68.2704 78.2372C66.775 78.7105 64.9969 79.2311 62.9951 79.7872C59.651 80.7101 55.6592 81.7395 51.1258 82.8517C45.8977 84.1296 39.9512 85.5021 33.4631 86.9219C18.9915 90.0692 1.7763 93.4058 -16.3338 96.3875C-21.5738 97.2394 -26.9314 98.044 -32.2302 98.7539L-33.2076 98.8958L-37.4584 99.4874C-45.3713 100.576 -53.3195 101.534 -61.1617 102.327C-82.4158 104.504 -102.775 105.451 -119.496 104.268C-132.166 103.368 -142.763 101.239 -150.111 97.4878C-159.331 92.7551 -163.323 85.4311 -159.637 74.6995C-159.241 73.5484 -158.785 72.4189 -158.271 71.3155C-158.106 70.9724 -152.925 65.5652 -146.049 58.4778C-132.024 44.0192 -110.923 22.5205 -110.923 22.5205L-55.3095 22.3075H-52.9544L24.7613 22.0117L24.8909 27.6674L25.0086 33.0036L26.7749 27.5727L28.023 23.751L47.558 22.8873L48.5 26.5552L50.855 35.4528L82.9422 27.2296Z" fill="url(#paint26_linear_1424_611)"/>
<path fill-rule="evenodd" clip-rule="evenodd" d="M74.264 43.4393C73.6216 44.1544 72.9333 44.8263 72.2033 45.4507C71.0282 46.4932 69.6761 47.3148 68.2115 47.8763C52.6919 53.4491 25.1146 59.9094 -8.16189 63.0449C-9.84573 63.2105 -11.5414 63.3525 -13.2487 63.4945C-16.6047 63.7666 -19.9959 64.0151 -23.4342 64.2162C-28.733 64.5317 -34.13 64.7487 -39.625 64.867H-41.4855C-44.4764 64.867 -47.4908 64.938 -50.5288 64.867C-52.2244 64.867 -53.9436 64.867 -55.6627 64.867H-57.8176L-103.517 51.7453L-105.46 47.8171L-110.888 36.908C-110.888 36.908 -95.5804 35.7248 -73.6669 34.1039L-57.429 32.9207C-51.5414 32.4947 -45.3948 32.0688 -39.0951 31.6428L-35.4919 31.3943C18.3321 27.7383 81.4939 24.1177 82.954 27.1112C83.4603 28.1642 79.7394 37.4996 74.264 43.4393Z" fill="#147EA3"/>
<path fill-rule="evenodd" clip-rule="evenodd" d="M24.8556 22C24.8556 22 6.01539 26.0465 -18.5711 29.0992C-23.4106 29.7026 -28.4739 30.2824 -33.655 30.7793L-38.365 31.2053C-62.1154 33.2285 -87.7616 33.477 -105.99 28.4129L-110.829 22.4969L-55.2152 22.284H-52.8602L24.8556 22Z" fill="#0C82DD"/>
<path fill-rule="evenodd" clip-rule="evenodd" d="M28.1173 23.7394C34.523 27.4073 47.6876 23.7394 47.6876 22.8756C47.6876 22.0119 28.1173 23.7394 28.1173 23.7394Z" fill="#0C82DD"/>
<g style="mix-blend-mode:multiply" opacity="0.5">
<path fill-rule="evenodd" clip-rule="evenodd" d="M54.0814 52.5384L53.7517 52.3373C49.5421 49.9446 45.1042 47.9824 40.5047 46.4804C39.9983 46.303 39.4684 46.1373 38.9386 45.9717C36.6895 45.2736 34.2285 44.611 31.6498 44.0667L31.0139 43.8301L43.2365 45.3091L47.0399 45.7705L67.2577 48.2316H67.5521V49.4739L68.0113 69.9078L68.188 78.1901V79.8584V80.0714L50.9256 83.5618L50.9963 82.8046L51.3378 79.468L52.2209 70.7242L54.0814 52.5384Z" fill="url(#paint27_linear_1424_611)" style="mix-blend-mode:multiply"/>
<path fill-rule="evenodd" clip-rule="evenodd" d="M54.0814 52.5384L53.7517 52.3373C49.5421 49.9446 45.1042 47.9824 40.5047 46.4804C39.9983 46.303 39.4684 46.1373 38.9386 45.9717C36.6895 45.2736 34.2285 44.611 31.6498 44.0667L31.0139 43.8301L43.2365 45.3091L47.0399 45.7705L67.2577 48.2316H67.5521V49.4739L68.0113 69.9078L68.188 78.1901V79.8584V80.0714L50.9256 83.5618L50.9963 82.8046L51.3378 79.468L52.2209 70.7242L54.0814 52.5384Z" fill="url(#paint28_linear_1424_611)" style="mix-blend-mode:multiply"/>
</g>
<path style="mix-blend-mode:multiply" opacity="0.7" fill-rule="evenodd" clip-rule="evenodd" d="M-12.0477 63.4596L-17.7351 105.723L32.368 90.8388L40.8579 56.1475L-12.0477 63.4596Z" fill="url(#paint29_linear_1424_611)"/>
<path style="mix-blend-mode:screen" fill-rule="evenodd" clip-rule="evenodd" d="M74.264 43.4396C73.216 43.1793 72.1091 42.9545 70.9669 42.7534C62.4064 41.2744 61.2171 43.9366 48.0643 41.795C43.8606 41.0969 39.3625 40.3042 34.6524 39.4286L36.0655 39.819C42.2238 41.5465 46.3922 43.0373 46.8397 43.8537C47.087 44.3034 45.7446 44.8003 43.1894 45.2854C42.0119 45.5102 40.5871 45.735 38.9386 45.948C19.91 48.4209 -28.3445 49.9709 -50.6701 42.5641C-52.4481 41.9843 -51.4472 40.1977 -48.7272 38.0797C-47.4946 37.1352 -46.196 36.2812 -44.8414 35.524C-43.9347 35.0153 -42.9692 34.5065 -41.9447 34.0096C-39.8517 32.9899 -37.6965 32.1046 -35.492 31.3592C-34.9032 31.162 -34.3027 30.9727 -33.6904 30.7913C-30.2827 29.7493 -26.7575 29.145 -23.1987 28.9928C-21.9388 28.9928 -20.408 28.9928 -18.6653 29.1348C-30.8761 26.6856 -42.663 24.3192 -52.9074 22.2959H-55.2624C-43.6403 24.3192 -35.4331 27.0287 -37.2582 30.3416C-37.5851 30.7195 -37.9859 31.0256 -38.4357 31.2409L-39.1069 31.6313C-40.2844 32.2702 -41.9212 33.063 -43.6992 33.8676L-47.1258 35.3939C-49.4808 36.3878 -51.6239 37.3107 -53.0722 37.9141L-54.709 38.5885L-60.726 40.1858C-60.726 40.1858 -92.3305 38.3046 -105.471 47.782L-103.529 51.7102L-57.8176 64.8437H-55.6627C-53.9436 64.8437 -52.2244 64.8437 -50.5288 64.8437C-47.4908 64.8437 -44.4764 64.8437 -41.4855 64.8437L-44.7472 58.3716L-39.625 64.8082C-34.13 64.6898 -28.733 64.4729 -23.4342 64.1574C-19.9959 63.9563 -16.6047 63.7078 -13.2488 63.4357C-11.5414 63.2937 -9.84574 63.1517 -8.1619 62.986L-8.45628 62.915C-29.6515 57.283 -42.8396 50.2785 -44.9592 47.9713C-44.9592 47.9713 8.31149 50.2075 25.0675 48.2907C29.8953 47.7465 35.1588 47.0484 40.5165 46.4213C42.6713 46.1728 44.8379 45.9243 47.0045 45.7114C56.0478 44.8121 64.9969 44.3625 72.2151 45.3919C73.8323 45.6128 75.4333 45.9408 77.0075 46.374C78.9004 46.9254 80.7018 47.7547 82.3535 48.835L82.4241 46.3148C79.8175 45.058 77.0809 44.0938 74.264 43.4396V43.4396ZM-43.2989 55.0231C-49.3277 57.8983 -92.5542 49.8999 -93.2254 46.232C-94.2851 40.4225 -60.3846 40.4698 -58.0413 41.4282C-55.6981 42.3866 -37.27 52.1953 -43.2989 55.0231ZM-11.9535 29.7974C-14.3792 29.4779 -16.6635 29.2413 -18.5711 29.0993L-14.3203 29.9512C2.35329 33.276 19.6038 36.6717 34.6878 39.4168C19.339 35.318 3.76551 32.1219 -11.9535 29.8447V29.7974Z" fill="url(#paint30_linear_1424_611)"/>
<path fill-rule="evenodd" clip-rule="evenodd" d="M73.4153 18.6734C71.0236 18.5811 69.4325 25.529 69.1994 26.6153C69.473 25.0781 71.8039 11.1721 68.1049 9.12256C65.4902 7.67765 64.7403 14.851 64.5072 19.7186C64.5072 16.8185 64.2842 13.4573 62.9465 13.2934C61.9331 13.1601 61.2034 15.1994 60.7575 17.4641C61.1426 13.7442 61.3858 9.55296 60.6359 9.26603C59.8859 8.9791 59.1968 13.2421 58.609 17.4641C59.1765 11.4078 59.5211 4.03973 58.0719 2.90225C55.5789 0.97569 54.0891 23.3975 54.0891 23.664C54.0891 22.9774 52.7615 1.35485 49.7618 0.811727C47.9173 0.473555 48.5355 9.90139 49.2956 17.3002C48.2821 9.89114 46.4782 0.41207 44.2284 0.483803C40.6409 0.617022 45.0493 25.3138 45.0797 26.1849C45.0399 26.097 45.0126 26.0038 44.9986 25.9082C44.3804 23.3463 40.8435 6.13025 37.1546 5.15672C35.1785 4.64434 35.6142 10.0244 36.5365 15.4863C36.5403 15.5546 36.5403 15.623 36.5365 15.6913C36.9114 17.8638 37.3573 20.026 37.7526 21.8399C38.2796 24.2788 38.7153 26.0517 38.766 26.2566C38.6647 26.0414 37.1344 23.1823 35.1582 19.8416C32.1179 14.7178 28.0642 8.45647 26.4427 9.00984C24.8212 9.56321 25.4292 17.0952 30.0606 24.0739C31.4655 26.2101 33.1727 28.1263 35.1278 29.7613C35.2658 29.8959 35.4113 30.0225 35.5636 30.1405C36.9587 31.2801 38.4746 32.2596 40.0835 33.061V33.061C40.1219 33.0856 40.1626 33.1062 40.2051 33.1225C41.505 33.7773 42.862 34.309 44.2588 34.7109C44.8871 34.9159 45.5357 35.0901 46.2046 35.2438L46.7417 35.3565C47.2991 35.4795 47.8565 35.5922 48.4038 35.6844C49.853 35.9611 51.2616 36.1558 52.6095 36.2891C55.302 36.5785 58.0131 36.6505 60.717 36.5043L61.852 36.4223C62.3993 36.4223 62.9161 36.33 63.4228 36.2686L64.791 36.0944C67.0675 35.806 69.3067 35.27 71.4695 34.4957C71.4695 34.4957 76.0097 18.7656 73.4153 18.6734ZM64.3856 23.2131C64.3856 23.6025 64.3856 23.8382 64.3856 23.8894C64.3856 23.9406 64.3754 23.6025 64.3856 23.2131V23.2131Z" fill="url(#paint31_linear_1424_611)"/>
<path fill-rule="evenodd" clip-rule="evenodd" d="M61.8419 36.443C61.6696 37.1501 61.4669 37.5498 61.244 37.4678C61.021 37.3858 60.869 37.0476 60.7068 36.5352C59.9164 34.1168 59.5921 27.8658 61.2744 26.7488C62.6932 25.7855 62.531 33.5942 61.8419 36.443Z" fill="url(#paint32_linear_1424_611)"/>
<path fill-rule="evenodd" clip-rule="evenodd" d="M64.7809 36.1143C64.4262 36.8521 64.0613 37.3235 63.6762 37.3747C63.5039 37.3747 63.4127 36.9853 63.4127 36.2885C63.4127 33.3167 64.6998 25.139 66.2402 23.4072C67.7806 21.6753 66.5645 32.3534 64.7809 36.1143Z" fill="url(#paint33_linear_1424_611)"/>
<path fill-rule="evenodd" clip-rule="evenodd" d="M52.5994 36.3095C52.3603 38.974 51.9506 41.62 51.3732 44.2309C47.3899 46.7549 42.943 48.4385 38.2999 49.1805C37.8439 49.2625 37.3574 49.3343 36.8811 49.3957C29.9506 50.2984 22.9081 49.2598 16.5212 46.3932C16.5212 46.3932 4.14722 28.1831 6.74161 26.2258C9.336 24.2685 17.4637 44.7331 18.2846 44.9483C19.1055 45.1635 3.41755 16.1729 7.18752 13.57C10.2278 11.5205 15.224 24.0738 17.0381 28.9415C15.6193 24.8424 12.5486 15.4658 13.9978 14.9022C15.447 14.3386 19.2778 29.751 20.6054 34.5879C20.8689 35.5512 21.031 36.0943 21.0715 36.0021C21.0368 35.5909 20.9552 35.1851 20.8283 34.7929C19.8149 30.8373 16.2071 18.1404 15.9841 11.0286C15.903 8.23097 16.3388 6.31466 17.6563 6.10971C20.4534 5.66906 22.9464 15.0251 24.7503 23.8996C26.3414 31.8825 27.3447 39.4555 27.4562 39.2096C27.6994 38.6972 24.6287 20.0772 27.2231 20.4872C28.6419 20.7126 30.0303 26.2258 30.9931 31.1652C30.6485 28.8697 30.3141 26.3488 30.1012 23.9918C29.7161 19.8928 29.6959 16.4906 30.6384 16.1012C32.199 15.4453 34.0029 23.5922 35.1177 29.6793C35.3914 31.1959 35.6143 32.5691 35.7967 33.6554C35.9791 34.7416 36.1109 35.6434 36.1514 35.9508C36.1514 35.6434 36.0197 34.7416 35.8778 33.4914C35.7765 32.5281 35.665 31.3496 35.5535 30.0584C35.2249 26.6533 35.1064 23.2308 35.1988 19.8108C35.3204 17.3719 35.7055 15.6093 36.5365 15.4556C36.573 15.445 36.6116 15.445 36.648 15.4556C36.8491 15.4579 37.0415 15.5387 37.1851 15.681V15.681C37.6275 16.2027 37.9464 16.8195 38.1175 17.4846C39.212 20.9483 39.7795 28.0602 40.0633 33.02C40.0633 33.1122 40.0633 33.2045 40.0633 33.2864C40.0633 34.2395 40.1545 35.09 40.1849 35.8279C40.1849 36.0738 40.1849 36.3095 40.1849 36.5247C40.1849 36.3505 40.1849 36.166 40.1849 35.9713C40.1849 35.1413 40.1849 34.137 40.1849 33.0713V32.1387C40.3166 27.517 40.9247 22.137 43.063 23.0388C43.813 23.3565 44.4312 24.4017 44.9278 25.8569L45.019 26.1131C45.8567 29.1024 46.4032 32.1674 46.6506 35.2642C47.0762 39.4965 47.1674 43.1754 47.1674 43.1754C47.1674 43.1754 47.664 39.2916 48.3126 35.5922C48.8801 32.2514 49.5794 29.0542 50.1469 28.9722C52.5994 28.7468 52.8933 32.4666 52.5994 36.3095Z" fill="url(#paint34_linear_1424_611)"/>
<path fill-rule="evenodd" clip-rule="evenodd" d="M24.7503 23.9403C24.6895 24.8524 24.5273 25.4057 24.2537 25.4467C21.6593 25.7747 16.653 17.0949 16.0044 11.1C15.9233 8.30243 16.3591 6.38612 17.6765 6.18117C20.4736 5.70977 22.9666 15.0659 24.7503 23.9403Z" fill="url(#paint35_linear_1424_611)"/>
<path fill-rule="evenodd" clip-rule="evenodd" d="M29.554 34.6185C27.5271 35.469 31.064 39.7423 32.493 39.9063C33.9219 40.0702 31.2971 33.8192 29.554 34.6185Z" fill="url(#paint36_linear_1424_611)"/>
<path fill-rule="evenodd" clip-rule="evenodd" d="M32.6753 36.2583C31.6618 36.3915 30.1822 30.3659 31.7936 29.1362C33.4049 27.9064 35.2494 35.9099 32.6753 36.2583Z" fill="url(#paint37_linear_1424_611)"/>
<path fill-rule="evenodd" clip-rule="evenodd" d="M42.5665 40.1116C40.2052 40.2141 38.6749 30.5916 41.8571 30.4891C45.0392 30.3866 44.8974 40.0092 42.5665 40.1116Z" fill="url(#paint38_linear_1424_611)"/>
<path fill-rule="evenodd" clip-rule="evenodd" d="M23.8584 41.1671C22.845 42.1919 15.8523 35.2235 17.3218 33.4096C17.8893 32.7128 19.2574 33.4096 20.6256 34.6291L20.8485 34.8341C22.9666 36.8221 24.9833 39.9989 23.8584 41.1671Z" fill="url(#paint39_linear_1424_611)"/>
<path fill-rule="evenodd" clip-rule="evenodd" d="M38.2998 49.1809C38.1887 49.5431 38.0284 49.888 37.8235 50.2057C37.5499 50.6053 37.2256 50.2057 36.881 49.4268C35.6548 46.3525 34.3677 36.853 35.7966 33.7684C35.8154 33.71 35.8427 33.6547 35.8777 33.6045L35.9385 33.4917C37.8944 30.2637 40.0125 44.1903 38.2998 49.1809Z" fill="url(#paint40_linear_1424_611)"/>
<path fill-rule="evenodd" clip-rule="evenodd" d="M37.2764 22.2086C36.263 22.4852 35.0874 16.2137 36.6785 15.6398C38.2696 15.066 39.1715 21.6654 37.2764 22.2086Z" fill="url(#paint41_linear_1424_611)"/>
<path fill-rule="evenodd" clip-rule="evenodd" d="M24.6286 36.463C23.22 36.5245 21.7403 31.2367 23.3922 31.1343C25.0441 31.0318 25.8042 36.4118 24.6286 36.463Z" fill="url(#paint42_linear_1424_611)"/>
<path fill-rule="evenodd" clip-rule="evenodd" d="M33.2935 24.8732C29.4931 25.6417 29.5235 16.0807 30.993 16.3881C32.4625 16.6955 34.0536 24.7195 33.2935 24.8732Z" fill="url(#paint43_linear_1424_611)"/>
<path style="mix-blend-mode:screen" fill-rule="evenodd" clip-rule="evenodd" d="M13.4809 48.2584C13.3897 49.6624 6.77198 41.8639 6.78212 39.384C6.79225 36.904 13.6431 45.5326 13.4809 48.2584Z" fill="url(#paint44_linear_1424_611)"/>
<path fill-rule="evenodd" clip-rule="evenodd" d="M194.942 76.2296V76.975L194.424 95.3737L194.353 97.894L194.094 108.756L189.137 117.298L184.98 124.398C187.724 124.398 185.746 125.51 180.27 127.237C178.775 127.711 176.997 128.231 174.995 128.787C171.651 129.71 167.659 130.739 163.126 131.852C157.898 133.13 151.951 134.502 145.463 135.922C130.992 139.069 113.776 142.406 95.6662 145.387C90.4262 146.239 85.0686 147.044 79.7698 147.754L78.7924 147.896L74.5416 148.487C66.6287 149.576 58.6805 150.534 50.8383 151.327C29.5842 153.504 9.22502 154.451 -7.49565 153.268C-20.1657 152.368 -30.7633 150.239 -38.111 146.488C-47.3309 141.755 -51.3226 134.431 -47.637 123.699C-47.2406 122.548 -46.7846 121.419 -46.2711 120.316C-46.1063 119.972 -40.9252 114.565 -34.0485 107.478C-20.0244 93.0192 1.07664 71.5205 1.07664 71.5205L56.6905 71.3075H59.0456L136.761 71.0117L136.891 76.6674L137.009 82.0036L138.775 76.5727L140.023 72.751L159.558 71.8873L160.5 75.5552L162.855 84.4528L194.942 76.2296Z" fill="url(#paint45_linear_1424_611)"/>
<path fill-rule="evenodd" clip-rule="evenodd" d="M186.264 92.4393C185.622 93.1544 184.933 93.8263 184.203 94.4507C183.028 95.4932 181.676 96.3148 180.212 96.8763C164.692 102.449 137.115 108.909 103.838 112.045C102.154 112.21 100.459 112.352 98.7513 112.494C95.3954 112.767 92.0042 113.015 88.5658 113.216C83.267 113.532 77.8701 113.749 72.375 113.867H70.5146C67.5237 113.867 64.5092 113.938 61.4713 113.867C59.7756 113.867 58.0565 113.867 56.3373 113.867H54.1825L8.48322 100.745L6.54033 96.8171L1.112 85.908C1.112 85.908 16.4197 84.7248 38.3332 83.1039L54.571 81.9207C60.4586 81.4947 66.6052 81.0688 72.9049 80.6428L76.5081 80.3943C130.332 76.7383 193.494 73.1177 194.954 76.1112C195.46 77.1642 191.739 86.4996 186.264 92.4393Z" fill="#147EA3"/>
<path fill-rule="evenodd" clip-rule="evenodd" d="M136.856 71C136.856 71 118.015 75.0465 93.4289 78.0992C88.5893 78.7026 83.526 79.2824 78.345 79.7793L73.6349 80.2053C49.8845 82.2285 24.2383 82.477 6.01041 77.4129L1.17084 71.4969L56.7847 71.284H59.1397L136.856 71Z" fill="#147EA3"/>
<path fill-rule="evenodd" clip-rule="evenodd" d="M140.117 72.7394C146.523 76.4073 159.687 72.7394 159.687 71.8756C159.687 71.0119 140.117 72.7394 140.117 72.7394Z" fill="#0C82DD"/>
<path style="mix-blend-mode:multiply" opacity="0.5" fill-rule="evenodd" clip-rule="evenodd" d="M166.081 101.538L165.752 101.337C161.542 98.9446 157.104 96.9824 152.505 95.4804C151.998 95.303 151.468 95.1373 150.939 94.9717C148.69 94.2736 146.229 93.611 143.65 93.0667L143.014 92.8301L155.236 94.3091L159.04 94.7705L179.258 97.2316H179.552V98.4739L180.011 118.908L180.188 127.19V128.858V129.071L162.926 132.562L162.996 131.805L163.338 128.468L164.221 119.724L166.081 101.538Z" fill="url(#paint46_linear_1424_611)"/>
<path style="mix-blend-mode:multiply" opacity="0.5" fill-rule="evenodd" clip-rule="evenodd" d="M-38.7704 147.553L1.11198 86.0029L8.47143 100.84L-9.55629 160L-38.7704 147.553Z" fill="url(#paint47_linear_1424_611)"/>
<path style="mix-blend-mode:multiply" opacity="0.7" fill-rule="evenodd" clip-rule="evenodd" d="M99.9523 112.46L94.2649 154.723L144.368 139.839L152.858 105.147L99.9523 112.46Z" fill="url(#paint48_linear_1424_611)"/>
<path style="mix-blend-mode:screen" fill-rule="evenodd" clip-rule="evenodd" d="M186.264 92.4396C185.216 92.1793 184.109 91.9545 182.967 91.7534C174.406 90.2744 173.217 92.9366 160.064 90.795C155.861 90.0969 151.363 89.3042 146.652 88.4286L148.066 88.819C154.224 90.5465 158.392 92.0373 158.84 92.8537C159.087 93.3034 157.745 93.8003 155.189 94.2854C154.012 94.5102 152.587 94.735 150.939 94.948C131.91 97.4209 83.6556 98.9709 61.33 91.5641C59.5519 90.9843 60.5528 89.1977 63.2729 87.0797C64.5054 86.1352 65.804 85.2812 67.1587 84.524C68.0653 84.0153 69.0309 83.5065 70.0553 83.0096C72.1483 81.9899 74.3036 81.1046 76.5081 80.3592C77.0969 80.162 77.6974 79.9727 78.3097 79.7913C81.7174 78.7493 85.2426 78.145 88.8013 77.9928C90.0613 77.9928 91.592 77.9928 93.3348 78.1348C81.124 75.6856 69.3371 73.3192 59.0927 71.2959H56.7377C68.3597 73.3192 76.567 76.0287 74.7418 79.3416C74.415 79.7195 74.0141 80.0256 73.5643 80.2409L72.8931 80.6313C71.7156 81.2702 70.0789 82.063 68.3008 82.8676L64.8743 84.3939C62.5193 85.3878 60.3762 86.3107 58.9279 86.9141L57.2911 87.5885L51.274 89.1858C51.274 89.1858 19.6696 87.3046 6.52856 96.782L8.47146 100.71L54.1825 113.844H56.3373C58.0565 113.844 59.7757 113.844 61.4713 113.844C64.5093 113.844 67.5237 113.844 70.5146 113.844L67.2529 107.372L72.375 113.808C77.8701 113.69 83.267 113.473 88.5658 113.157C92.0042 112.956 95.3954 112.708 98.7513 112.436C100.459 112.294 102.154 112.152 103.838 111.986L103.544 111.915C82.3486 106.283 69.1604 99.2785 67.0409 96.9713C67.0409 96.9713 120.312 99.2075 137.068 97.2907C141.895 96.7465 147.159 96.0484 152.517 95.4213C154.671 95.1728 156.838 94.9243 159.005 94.7114C168.048 93.8121 176.997 93.3625 184.215 94.3919C185.832 94.6128 187.433 94.9408 189.008 95.374C190.9 95.9254 192.702 96.7547 194.354 97.835L194.424 95.3148C191.818 94.058 189.081 93.0938 186.264 92.4396V92.4396ZM68.7012 104.023C62.6723 106.898 19.4459 98.8999 18.7747 95.232C17.7149 89.4225 51.6155 89.4698 53.9587 90.4282C56.302 91.3866 74.7301 101.195 68.7012 104.023ZM100.047 78.7974C97.6209 78.4779 95.3365 78.2413 93.429 78.0993L97.6798 78.9512C114.353 82.276 131.604 85.6717 146.688 88.4168C131.339 84.318 115.766 81.1219 100.047 78.8447V78.7974Z" fill="url(#paint49_linear_1424_611)"/>
<path style="mix-blend-mode:multiply" opacity="0.86" fill-rule="evenodd" clip-rule="evenodd" d="M107.206 75.5078L82.2073 85.21L83.8676 86.7245L49.8492 112.459L12.2631 102.284L12.5928 91.1142L55.0774 78.6433L107.206 75.5078Z" fill="url(#paint50_linear_1424_611)"/>
<path fill-rule="evenodd" clip-rule="evenodd" d="M71.5903 74.4932C73.3532 74.4248 74.526 79.5787 74.6978 80.3845C74.4961 79.2442 72.778 68.9288 75.5046 67.4085C77.4319 66.3366 77.9847 71.6578 78.1565 75.2686C78.1565 73.1173 78.3209 70.624 79.3069 70.5023C80.0539 70.4035 80.5918 71.9162 80.9205 73.5962C80.6366 70.8368 80.4573 67.7277 81.0101 67.5149C81.5629 67.3021 82.0709 70.4643 82.5042 73.5962C82.0858 69.1036 81.8318 63.6381 82.9001 62.7943C84.7377 61.3652 85.8359 77.9975 85.8359 78.1952C85.8359 77.6859 86.8144 61.6464 89.0256 61.2436C90.3852 60.9927 89.9295 67.9862 89.3692 73.4746C90.1163 67.9786 91.446 60.9471 93.1043 61.0003C95.7488 61.0991 92.4992 79.4191 92.4768 80.0652C92.5062 80 92.5263 79.9309 92.5366 79.8599C92.9923 77.9595 95.5994 65.1888 98.3185 64.4666C99.7752 64.0866 99.454 68.0774 98.7742 72.1291C98.7714 72.1797 98.7714 72.2305 98.7742 72.2811C98.4978 73.8927 98.1691 75.4966 97.8778 76.8421C97.4893 78.6513 97.1681 79.9664 97.1307 80.1184C97.2054 79.9588 98.3334 77.8379 99.7901 75.3598C102.031 71.559 105.019 66.9144 106.214 67.3249C107.41 67.7353 106.961 73.3225 103.548 78.4993C102.512 80.0839 101.254 81.5053 99.8125 82.7182C99.7108 82.818 99.6035 82.9119 99.4913 82.9994C98.4629 83.8448 97.3455 84.5714 96.1596 85.1659V85.1659C96.1313 85.1841 96.1013 85.1994 96.07 85.2115C95.1118 85.6972 94.1115 86.0916 93.0819 86.3897C92.6188 86.5418 92.1407 86.671 91.6476 86.785L91.2517 86.8686C90.8409 86.9599 90.43 87.0435 90.0266 87.1119C88.9584 87.3171 87.92 87.4616 86.9265 87.5604C84.9418 87.7751 82.9434 87.8285 80.9504 87.72L80.1137 87.6592C79.7103 87.6592 79.3293 87.5908 78.9558 87.5452L77.9474 87.416C76.2693 87.2021 74.6188 86.8045 73.0245 86.2301C73.0245 86.2301 69.6779 74.5616 71.5903 74.4932ZM78.2462 77.8607C78.2462 78.1496 78.2462 78.3244 78.2462 78.3624C78.2462 78.4004 78.2536 78.1496 78.2462 77.8607V77.8607Z" fill="url(#paint51_linear_1424_611)"/>
<path fill-rule="evenodd" clip-rule="evenodd" d="M80.1212 87.6746C80.2481 88.1992 80.3975 88.4956 80.5619 88.4348C80.7262 88.374 80.8383 88.1231 80.9578 87.7431C81.5405 85.9491 81.7795 81.3121 80.5395 80.4835C79.4937 79.769 79.6132 85.5614 80.1212 87.6746Z" fill="url(#paint52_linear_1424_611)"/>
<path fill-rule="evenodd" clip-rule="evenodd" d="M77.9548 87.431C78.2162 87.9784 78.4852 88.328 78.769 88.366C78.896 88.366 78.9633 88.0772 78.9633 87.5603C78.9633 85.3558 78.0145 79.2897 76.8791 78.005C75.7436 76.7203 76.64 84.6412 77.9548 87.431Z" fill="url(#paint53_linear_1424_611)"/>
<path fill-rule="evenodd" clip-rule="evenodd" d="M86.9339 87.5752C87.1102 89.5517 87.4122 91.5145 87.8378 93.4513C90.774 95.3236 94.0518 96.5725 97.4743 97.1229C97.8105 97.1837 98.1691 97.2369 98.5202 97.2825C103.629 97.9521 108.82 97.1817 113.528 95.0552C113.528 95.0552 122.649 81.5471 120.736 80.0952C118.824 78.6433 112.833 93.8238 112.228 93.9834C111.623 94.143 123.187 72.638 120.408 70.7072C118.167 69.1869 114.484 78.4989 113.147 82.1097C114.193 79.069 116.456 72.1135 115.388 71.6954C114.32 71.2773 111.496 82.7102 110.517 86.2982C110.323 87.0127 110.203 87.4156 110.174 87.3472C110.199 87.0422 110.259 86.7412 110.353 86.4502C111.1 83.516 113.759 74.0975 113.924 68.822C113.983 66.7468 113.662 65.3253 112.691 65.1732C110.629 64.8464 108.792 71.7866 107.462 78.3696C106.289 84.2913 105.55 89.9089 105.467 89.7265C105.288 89.3464 107.552 75.5343 105.639 75.8383C104.593 76.0056 103.57 80.0952 102.86 83.7592C103.114 82.0564 103.361 80.1864 103.518 78.4381C103.802 75.3974 103.816 72.8737 103.122 72.5848C101.971 72.0983 100.642 78.1416 99.82 82.657C99.6183 83.782 99.4539 84.8006 99.3195 85.6064C99.185 86.4122 99.0879 87.0811 99.058 87.3092C99.058 87.0811 99.1551 86.4122 99.2597 85.4848C99.3344 84.7702 99.4166 83.896 99.4987 82.9382C99.741 80.4123 99.8283 77.8736 99.7602 75.3366C99.6706 73.5274 99.3867 72.2199 98.7741 72.1059C98.7473 72.0981 98.7188 72.0981 98.692 72.1059C98.5437 72.1077 98.4019 72.1676 98.296 72.2732V72.2732C97.97 72.6601 97.7349 73.1177 97.6088 73.611C96.802 76.1804 96.3837 81.4559 96.1745 85.1351C96.1745 85.2035 96.1745 85.2719 96.1745 85.3327C96.1745 86.0397 96.1073 86.6706 96.0849 87.2179C96.0849 87.4004 96.0849 87.5752 96.0849 87.7349C96.0849 87.6056 96.0849 87.4688 96.0849 87.3244C96.0849 86.7086 96.0849 85.9637 96.0849 85.1731V84.4814C95.9878 81.053 95.5396 77.0622 93.9634 77.7311C93.4106 77.9668 92.9549 78.7421 92.5888 79.8216L92.5216 80.0116C91.9041 82.229 91.5013 84.5026 91.3189 86.7999C91.0052 89.9393 90.9379 92.6683 90.9379 92.6683C90.9379 92.6683 90.5719 89.7873 90.0938 87.0431C89.6755 84.565 89.16 82.1933 88.7417 82.1325C86.9339 81.9652 86.7173 84.7246 86.9339 87.5752Z" fill="url(#paint54_linear_1424_611)"/>
<path fill-rule="evenodd" clip-rule="evenodd" d="M107.462 78.4002C107.507 79.0767 107.626 79.4872 107.828 79.5176C109.74 79.7609 113.431 73.3223 113.909 68.8753C113.969 66.8001 113.647 65.3786 112.676 65.2266C110.614 64.8769 108.777 71.8172 107.462 78.4002Z" fill="url(#paint55_linear_1424_611)"/>
<path fill-rule="evenodd" clip-rule="evenodd" d="M103.921 86.321C105.415 86.9519 102.808 90.1218 101.755 90.2434C100.701 90.365 102.636 85.728 103.921 86.321Z" fill="url(#paint56_linear_1424_611)"/>
<path fill-rule="evenodd" clip-rule="evenodd" d="M101.62 87.5375C102.367 87.6363 103.458 83.1666 102.27 82.2544C101.083 81.3422 99.7229 87.2791 101.62 87.5375Z" fill="url(#paint57_linear_1424_611)"/>
<path fill-rule="evenodd" clip-rule="evenodd" d="M94.3294 90.3954C96.0699 90.4714 97.1979 83.3335 94.8523 83.2574C92.5066 83.1814 92.6112 90.3194 94.3294 90.3954Z" fill="url(#paint58_linear_1424_611)"/>
<path fill-rule="evenodd" clip-rule="evenodd" d="M108.119 91.1785C108.866 91.9387 114.021 86.7696 112.938 85.4241C112.519 84.9072 111.511 85.4241 110.502 86.3287L110.338 86.4807C108.777 87.9554 107.29 90.3119 108.119 91.1785Z" fill="url(#paint59_linear_1424_611)"/>
<path fill-rule="evenodd" clip-rule="evenodd" d="M97.4744 97.1231C97.5563 97.3918 97.6744 97.6476 97.8255 97.8833C98.0272 98.1797 98.2662 97.8832 98.5202 97.3055C99.4241 95.025 100.373 87.9783 99.3195 85.6902C99.3057 85.6469 99.2855 85.6059 99.2597 85.5686L99.2149 85.485C97.7732 83.0905 96.2119 93.4211 97.4744 97.1231Z" fill="url(#paint60_linear_1424_611)"/>
<path fill-rule="evenodd" clip-rule="evenodd" d="M98.2288 77.1157C98.9758 77.3209 99.8423 72.6687 98.6695 72.243C97.4967 71.8173 96.8319 76.7128 98.2288 77.1157Z" fill="url(#paint61_linear_1424_611)"/>
<path fill-rule="evenodd" clip-rule="evenodd" d="M107.552 87.6893C108.59 87.7349 109.681 83.8124 108.463 83.7364C107.245 83.6604 106.685 87.6513 107.552 87.6893Z" fill="url(#paint62_linear_1424_611)"/>
<path fill-rule="evenodd" clip-rule="evenodd" d="M101.165 79.0925C103.966 79.6626 103.943 72.5703 102.86 72.7984C101.777 73.0264 100.604 78.9785 101.165 79.0925Z" fill="url(#paint63_linear_1424_611)"/>
<path style="mix-blend-mode:screen" fill-rule="evenodd" clip-rule="evenodd" d="M115.769 96.4387C115.836 97.4801 120.714 91.6952 120.707 89.8556C120.699 88.016 115.649 94.4166 115.769 96.4387Z" fill="url(#paint64_linear_1424_611)"/>
<path fill-rule="evenodd" clip-rule="evenodd" d="M94.4097 81.8579C92.6468 81.7876 91.474 87.0808 91.3022 87.9084C91.5039 86.7373 93.222 76.1431 90.4954 74.5817C88.5681 73.4809 88.0153 78.9458 87.8435 82.6542C87.8435 80.4448 87.6791 77.8841 86.6931 77.7592C85.9461 77.6577 85.4082 79.2113 85.0795 80.9366C85.3634 78.1027 85.5427 74.9096 84.9899 74.691C84.4371 74.4724 83.9291 77.7201 83.4958 80.9366C83.9142 76.3226 84.1682 70.7094 83.0999 69.8428C81.2623 68.375 80.1641 85.4569 80.1641 85.6599C80.1641 85.1368 79.1856 68.6639 76.9744 68.2501C75.6148 67.9925 76.0705 75.175 76.6308 80.8117C75.8837 75.1672 74.554 67.9457 72.8957 68.0003C70.2512 68.1018 73.5008 86.9169 73.5232 87.5805C73.4938 87.5135 73.4737 87.4425 73.4634 87.3697C73.0077 85.4179 70.4006 72.302 67.6815 71.5603C66.2248 71.17 66.546 75.2687 67.2258 79.4299C67.2286 79.4819 67.2286 79.534 67.2258 79.586C67.5022 81.2411 67.8309 82.8884 68.1222 84.2703C68.5107 86.1283 68.8319 87.479 68.8693 87.6351C68.7946 87.4712 67.6666 85.293 66.2099 82.7479C63.9688 78.8443 60.9808 74.0742 59.7855 74.4958C58.5903 74.9174 59.0385 80.6556 62.4524 85.9722C63.4879 87.5997 64.7463 89.0595 66.1875 90.3051C66.2892 90.4077 66.3965 90.5041 66.5087 90.594C67.5371 91.4622 68.6545 92.2084 69.8404 92.819V92.819C69.8687 92.8377 69.8987 92.8534 69.93 92.8658C70.8882 93.3647 71.8885 93.7698 72.9181 94.076C73.3812 94.2321 73.8593 94.3648 74.3524 94.4819L74.7483 94.5678C75.1591 94.6615 75.57 94.7474 75.9734 94.8176C77.0416 95.0284 78.08 95.1768 79.0735 95.2782C81.0582 95.4988 83.0566 95.5536 85.0496 95.4422L85.8863 95.3797C86.2897 95.3797 86.6707 95.3095 87.0442 95.2626L88.0526 95.1299C89.7307 94.9102 91.3812 94.5019 92.9755 93.912C92.9755 93.912 96.3221 81.9281 94.4097 81.8579ZM87.7538 85.3164C87.7538 85.6131 87.7538 85.7926 87.7538 85.8317C87.7538 85.8707 87.7464 85.6131 87.7538 85.3164V85.3164Z" fill="url(#paint65_linear_1424_611)"/>
<path fill-rule="evenodd" clip-rule="evenodd" d="M85.8788 95.3951C85.7519 95.9337 85.6025 96.2382 85.4381 96.1758C85.2738 96.1133 85.1617 95.8557 85.0422 95.4653C84.4595 93.6228 84.2205 88.8605 85.4605 88.0096C86.5063 87.2757 86.3868 93.2247 85.8788 95.3951Z" fill="url(#paint66_linear_1424_611)"/>
<path fill-rule="evenodd" clip-rule="evenodd" d="M88.0452 95.1456C87.7838 95.7077 87.5148 96.0669 87.231 96.1059C87.104 96.1059 87.0367 95.8092 87.0367 95.2784C87.0367 93.0143 87.9855 86.7842 89.1209 85.4648C90.2564 84.1454 89.36 92.2804 88.0452 95.1456Z" fill="url(#paint67_linear_1424_611)"/>
<path fill-rule="evenodd" clip-rule="evenodd" d="M79.0661 95.2943C78.8898 97.3242 78.5878 99.34 78.1622 101.329C75.226 103.252 71.9482 104.535 68.5257 105.1C68.1895 105.162 67.8309 105.217 67.4798 105.264C62.3713 105.952 57.1801 105.16 52.4723 102.976C52.4723 102.976 43.3512 89.1033 45.2636 87.6121C47.1759 86.1209 53.167 101.712 53.7721 101.876C54.3772 102.04 42.8134 79.9534 45.5923 77.9704C47.8333 76.4089 51.5161 85.9726 52.8533 89.681C51.8074 86.5582 49.544 79.4147 50.6122 78.9853C51.6804 78.5559 54.5042 90.2977 55.4828 93.9827C55.677 94.7165 55.7965 95.1303 55.8264 95.0601C55.8008 94.7468 55.7406 94.4377 55.6471 94.1388C54.9001 91.1253 52.2407 81.4523 52.0764 76.0342C52.0166 73.9029 52.3378 72.4429 53.3089 72.2868C55.3707 71.9511 57.2084 79.079 58.5381 85.8399C59.7109 91.9216 60.4504 97.691 60.5326 97.5037C60.7119 97.1133 58.4484 82.9279 60.3608 83.2401C61.4066 83.4119 62.43 87.6121 63.1397 91.3751C62.8857 89.6263 62.6392 87.7058 62.4823 85.9102C62.1984 82.7873 62.1835 80.1954 62.8782 79.8987C64.0286 79.3991 65.3583 85.6057 66.18 90.2431C66.3817 91.3985 66.5461 92.4447 66.6805 93.2722C66.815 94.0998 66.9121 94.7868 66.942 95.021C66.942 94.7868 66.8449 94.0998 66.7403 93.1473C66.6656 92.4135 66.5834 91.5156 66.5013 90.532C66.259 87.9378 66.1717 85.3304 66.2398 82.7249C66.3294 80.8668 66.6133 79.524 67.2259 79.4069C67.2527 79.3988 67.2812 79.3988 67.308 79.4069C67.4563 79.4087 67.5981 79.4702 67.704 79.5786V79.5786C68.03 79.9761 68.2651 80.446 68.3912 80.9527C69.198 83.5915 69.6163 89.0096 69.8255 92.7882C69.8255 92.8585 69.8255 92.9287 69.8255 92.9912C69.8255 93.7172 69.8927 94.3652 69.9151 94.9273C69.9151 95.1147 69.9151 95.2943 69.9151 95.4582C69.9151 95.3255 69.9151 95.185 69.9151 95.0366C69.9151 94.4043 69.9151 93.6392 69.9151 92.8272V92.1168C70.0122 88.5958 70.4604 84.4971 72.0366 85.1841C72.5894 85.4261 73.0451 86.2224 73.4112 87.331L73.4784 87.5262C74.0959 89.8036 74.4987 92.1386 74.6811 94.498C74.9948 97.7223 75.0621 100.525 75.0621 100.525C75.0621 100.525 75.4281 97.5661 75.9062 94.7478C76.3245 92.2027 76.84 89.7669 77.2583 89.7044C79.0661 89.5327 79.2827 92.3666 79.0661 95.2943Z" fill="url(#paint68_linear_1424_611)"/>
<path fill-rule="evenodd" clip-rule="evenodd" d="M58.538 85.8708C58.4932 86.5657 58.3737 86.9872 58.172 87.0185C56.2596 87.2683 52.5693 80.6557 52.0913 76.0886C52.0315 73.9572 52.3527 72.4973 53.3238 72.3412C55.3856 71.982 57.2233 79.1099 58.538 85.8708Z" fill="url(#paint69_linear_1424_611)"/>
<path fill-rule="evenodd" clip-rule="evenodd" d="M62.079 94.006C60.5849 94.654 63.192 97.9095 64.2453 98.0344C65.2986 98.1593 63.3638 93.397 62.079 94.006Z" fill="url(#paint70_linear_1424_611)"/>
<path fill-rule="evenodd" clip-rule="evenodd" d="M64.3796 95.2552C63.6326 95.3566 62.542 90.7661 63.7297 89.8292C64.9175 88.8924 66.2771 94.9897 64.3796 95.2552Z" fill="url(#paint71_linear_1424_611)"/>
<path fill-rule="evenodd" clip-rule="evenodd" d="M71.6706 98.1899C69.9301 98.2679 68.8021 90.9371 71.1477 90.859C73.4934 90.7809 73.3888 98.1118 71.6706 98.1899Z" fill="url(#paint72_linear_1424_611)"/>
<path fill-rule="evenodd" clip-rule="evenodd" d="M57.8807 98.9949C57.1336 99.7756 51.9792 94.4668 53.0624 93.0849C53.4807 92.554 54.4892 93.0849 55.4977 94.014L55.662 94.1701C57.2233 95.6847 58.7099 98.1049 57.8807 98.9949Z" fill="url(#paint73_linear_1424_611)"/>
<path fill-rule="evenodd" clip-rule="evenodd" d="M68.5256 105.1C68.4437 105.376 68.3256 105.638 68.1745 105.88C67.9728 106.185 67.7338 105.88 67.4798 105.287C66.5759 102.945 65.6272 95.7077 66.6805 93.3578C66.6943 93.3132 66.7145 93.2711 66.7403 93.2328L66.7851 93.147C68.2268 90.6877 69.7881 101.298 68.5256 105.1Z" fill="url(#paint74_linear_1424_611)"/>
<path fill-rule="evenodd" clip-rule="evenodd" d="M67.7712 84.5508C67.0242 84.7616 66.1577 79.9836 67.3305 79.5464C68.5033 79.1093 69.1681 84.137 67.7712 84.5508Z" fill="url(#paint75_linear_1424_611)"/>
<path fill-rule="evenodd" clip-rule="evenodd" d="M58.4483 95.4114C57.41 95.4582 56.3193 91.4298 57.537 91.3517C58.7546 91.2736 59.3149 95.3723 58.4483 95.4114Z" fill="url(#paint76_linear_1424_611)"/>
<path fill-rule="evenodd" clip-rule="evenodd" d="M64.8354 86.5811C62.0341 87.1667 62.0565 79.8826 63.1397 80.1169C64.2228 80.3511 65.3956 86.464 64.8354 86.5811Z" fill="url(#paint77_linear_1424_611)"/>
<path style="mix-blend-mode:screen" fill-rule="evenodd" clip-rule="evenodd" d="M50.2312 104.397C50.164 105.467 45.286 99.5253 45.2935 97.636C45.3009 95.7467 50.3508 102.32 50.2312 104.397Z" fill="url(#paint78_linear_1424_611)"/>
<defs>
<linearGradient id="paint0_linear_1424_611" x1="457.831" y1="16.6186" x2="468.449" y2="181.724" gradientUnits="userSpaceOnUse">
<stop stop-color="#09A3CF"/>
<stop offset="1" stop-color="#11638B"/>
</linearGradient>
<linearGradient id="paint1_linear_1424_611" x1="344.073" y1="53.3947" x2="600.451" y2="-228.131" gradientUnits="userSpaceOnUse">
<stop stop-color="#104360"/>
<stop offset="1" stop-color="#13817A"/>
</linearGradient>
<linearGradient id="paint2_linear_1424_611" x1="498.653" y1="107.14" x2="497.237" y2="38.8653" gradientUnits="userSpaceOnUse">
<stop stop-color="#2B33C4"/>
<stop offset="1" stop-color="white"/>
</linearGradient>
<linearGradient id="paint3_linear_1424_611" x1="526.421" y1="-8.95191" x2="546.608" y2="95.9582" gradientUnits="userSpaceOnUse">
<stop stop-color="#2A96C1"/>
<stop offset="0.04" stop-color="#278AB2"/>
<stop offset="0.16" stop-color="#1D6683"/>
<stop offset="0.29" stop-color="#14475B"/>
<stop offset="0.42" stop-color="#0D2D3A"/>
<stop offset="0.55" stop-color="#071920"/>
<stop offset="0.69" stop-color="#030B0E"/>
<stop offset="0.84" stop-color="#010304"/>
<stop offset="1"/>
</linearGradient>
<linearGradient id="paint4_linear_1424_611" x1="583.898" y1="2.6032" x2="592.397" y2="46.1671" gradientUnits="userSpaceOnUse">
<stop offset="0.01" stop-color="#FFFBB9"/>
<stop offset="0.19" stop-color="#FFF8B8"/>
<stop offset="0.33" stop-color="#FEEEB3"/>
<stop offset="0.45" stop-color="#FDDEAB"/>
<stop offset="0.57" stop-color="#FBC69F"/>
<stop offset="0.68" stop-color="#F9A891"/>
<stop offset="0.79" stop-color="#F7847F"/>
<stop offset="0.88" stop-color="#F4606E"/>
</linearGradient>
<linearGradient id="paint5_linear_1424_611" x1="597.524" y1="33.9699" x2="585.042" y2="10.9778" gradientUnits="userSpaceOnUse">
<stop offset="0.01" stop-color="#FFFBB9"/>
<stop offset="0.19" stop-color="#FFF8B8"/>
<stop offset="0.33" stop-color="#FEEEB3"/>
<stop offset="0.45" stop-color="#FDDEAB"/>
<stop offset="0.57" stop-color="#FBC69F"/>
<stop offset="0.68" stop-color="#F9A891"/>
<stop offset="0.79" stop-color="#F7847F"/>
<stop offset="0.88" stop-color="#F4606E"/>
<stop offset="0.99" stop-color="#F27F5F"/>
</linearGradient>
<linearGradient id="paint6_linear_1424_611" x1="611.039" y1="48.0611" x2="609.787" y2="19.3308" gradientUnits="userSpaceOnUse">
<stop stop-color="#1C33C4"/>
<stop offset="1" stop-color="white"/>
</linearGradient>
<linearGradient id="paint7_linear_1424_611" x1="607.472" y1="13.8869" x2="574.471" y2="45.0651" gradientUnits="userSpaceOnUse">
<stop stop-color="#1C33C4"/>
<stop offset="1" stop-color="white"/>
</linearGradient>
<linearGradient id="paint8_linear_1424_611" x1="579.052" y1="57.6858" x2="557.981" y2="26.531" gradientUnits="userSpaceOnUse">
<stop offset="0.01" stop-color="#FFFBB9"/>
<stop offset="0.19" stop-color="#FFF8B8"/>
<stop offset="0.33" stop-color="#FEEEB3"/>
<stop offset="0.45" stop-color="#FDDEAB"/>
<stop offset="0.57" stop-color="#FBC69F"/>
<stop offset="0.68" stop-color="#F9A891"/>
<stop offset="0.79" stop-color="#F7847F"/>
<stop offset="0.88" stop-color="#F4606E"/>
<stop offset="0.99" stop-color="#F27F5F"/>
</linearGradient>
<linearGradient id="paint9_linear_1424_611" x1="617.991" y1="53.712" x2="593.941" y2="8.82275" gradientUnits="userSpaceOnUse">
<stop offset="0.01" stop-color="#FFFBB9"/>
<stop offset="0.19" stop-color="#FFF8B8"/>
<stop offset="0.33" stop-color="#FEEEB3"/>
<stop offset="0.45" stop-color="#FDDEAB"/>
<stop offset="0.57" stop-color="#FBC69F"/>
<stop offset="0.68" stop-color="#F9A891"/>
<stop offset="0.79" stop-color="#F7847F"/>
<stop offset="0.88" stop-color="#F4606E"/>
<stop offset="0.99" stop-color="#F27F5F"/>
</linearGradient>
<linearGradient id="paint10_linear_1424_611" x1="448.166" y1="45.8518" x2="447.566" y2="92.4707" gradientUnits="userSpaceOnUse">
<stop stop-color="#1C7B9D"/>
<stop offset="0.37" stop-color="#036284"/>
<stop offset="0.99" stop-color="#024F6A"/>
</linearGradient>
<linearGradient id="paint11_linear_1424_611" x1="303.132" y1="130.437" x2="372.01" y2="108.959" gradientUnits="userSpaceOnUse">
<stop stop-color="#104360"/>
<stop offset="1" stop-color="#13817A"/>
</linearGradient>
<linearGradient id="paint12_linear_1424_611" x1="460.927" y1="121.144" x2="607.732" y2="49.3845" gradientUnits="userSpaceOnUse">
<stop stop-color="#104360"/>
<stop offset="1" stop-color="#13817A"/>
</linearGradient>
<linearGradient id="paint13_linear_1424_611" x1="471.541" y1="50.2839" x2="491.757" y2="155.188" gradientUnits="userSpaceOnUse">
<stop stop-color="#2A96C1"/>
<stop offset="0.04" stop-color="#278AB2"/>
<stop offset="0.16" stop-color="#1D6683"/>
<stop offset="0.29" stop-color="#14475B"/>
<stop offset="0.42" stop-color="#0D2D3A"/>
<stop offset="0.55" stop-color="#071920"/>
<stop offset="0.69" stop-color="#030B0E"/>
<stop offset="0.84" stop-color="#010304"/>
<stop offset="1"/>
</linearGradient>
<linearGradient id="paint14_linear_1424_611" x1="519.928" y1="27.5798" x2="540.143" y2="132.484" gradientUnits="userSpaceOnUse">
<stop stop-color="#2A96C1"/>
<stop offset="0.04" stop-color="#278AB2"/>
<stop offset="0.16" stop-color="#1D6683"/>
<stop offset="0.29" stop-color="#14475B"/>
<stop offset="0.42" stop-color="#0D2D3A"/>
<stop offset="0.55" stop-color="#071920"/>
<stop offset="0.69" stop-color="#030B0E"/>
<stop offset="0.84" stop-color="#010304"/>
<stop offset="1"/>
</linearGradient>
<linearGradient id="paint15_linear_1424_611" x1="352.438" y1="64.7995" x2="372.653" y2="169.704" gradientUnits="userSpaceOnUse">
<stop stop-color="#2A96C1"/>
<stop offset="0.04" stop-color="#278AB2"/>
<stop offset="0.16" stop-color="#1D6683"/>
<stop offset="0.29" stop-color="#14475B"/>
<stop offset="0.42" stop-color="#0D2D3A"/>
<stop offset="0.55" stop-color="#071920"/>
<stop offset="0.69" stop-color="#030B0E"/>
<stop offset="0.84" stop-color="#010304"/>
<stop offset="1"/>
</linearGradient>
<linearGradient id="paint16_linear_1424_611" x1="400.824" y1="42.0954" x2="421.039" y2="147" gradientUnits="userSpaceOnUse">
<stop stop-color="#2A96C1"/>
<stop offset="0.04" stop-color="#278AB2"/>
<stop offset="0.16" stop-color="#1D6683"/>
<stop offset="0.29" stop-color="#14475B"/>
<stop offset="0.42" stop-color="#0D2D3A"/>
<stop offset="0.55" stop-color="#071920"/>
<stop offset="0.69" stop-color="#030B0E"/>
<stop offset="0.84" stop-color="#010304"/>
<stop offset="1"/>
</linearGradient>
<linearGradient id="paint17_linear_1424_611" x1="543.081" y1="3.96387" x2="530.853" y2="87.2086" gradientUnits="userSpaceOnUse">
<stop offset="0.01" stop-color="#FFFBB9"/>
<stop offset="0.19" stop-color="#FFF8B8"/>
<stop offset="0.33" stop-color="#FEEEB3"/>
<stop offset="0.45" stop-color="#FDDEAB"/>
<stop offset="0.57" stop-color="#FBC69F"/>
<stop offset="0.68" stop-color="#F9A891"/>
<stop offset="0.79" stop-color="#F7847F"/>
<stop offset="0.88" stop-color="#F4606E"/>
</linearGradient>
<linearGradient id="paint18_linear_1424_611" x1="535.265" y1="61.4689" x2="529.39" y2="50.2143" gradientUnits="userSpaceOnUse">
<stop offset="0.01" stop-color="#FFFBB9"/>
<stop offset="0.19" stop-color="#FFF8B8"/>
<stop offset="0.33" stop-color="#FEEEB3"/>
<stop offset="0.45" stop-color="#FDDEAB"/>
<stop offset="0.57" stop-color="#FBC69F"/>
<stop offset="0.68" stop-color="#F9A891"/>
<stop offset="0.79" stop-color="#F7847F"/>
<stop offset="0.88" stop-color="#F4606E"/>
<stop offset="1" stop-color="#F27F5F"/>
</linearGradient>
<linearGradient id="paint19_linear_1424_611" x1="536.884" y1="87.2636" x2="539.717" y2="58.6446" gradientUnits="userSpaceOnUse">
<stop stop-color="#1C33C4"/>
<stop offset="1" stop-color="white"/>
</linearGradient>
<linearGradient id="paint20_linear_1424_611" x1="547.175" y1="99.4324" x2="537.309" y2="53.7184" gradientUnits="userSpaceOnUse">
<stop offset="0.01" stop-color="#FFFBB9"/>
<stop offset="0.19" stop-color="#FFF8B8"/>
<stop offset="0.33" stop-color="#FEEEB3"/>
<stop offset="0.45" stop-color="#FDDEAB"/>
<stop offset="0.57" stop-color="#FBC69F"/>
<stop offset="0.68" stop-color="#F9A891"/>
<stop offset="0.79" stop-color="#F7847F"/>
<stop offset="0.88" stop-color="#F4606E"/>
<stop offset="0.99" stop-color="#F27F5F"/>
</linearGradient>
<linearGradient id="paint21_linear_1424_611" x1="538.204" y1="52.9284" x2="501.123" y2="79.0669" gradientUnits="userSpaceOnUse">
<stop stop-color="#1C33C4"/>
<stop offset="1" stop-color="white"/>
</linearGradient>
<linearGradient id="paint22_linear_1424_611" x1="524.369" y1="-18.0238" x2="487.878" y2="163.695" gradientUnits="userSpaceOnUse">
<stop offset="0.01" stop-color="#FF3B59"/>
<stop offset="0.22" stop-color="#FC3959"/>
<stop offset="0.38" stop-color="#F23459"/>
<stop offset="0.53" stop-color="#E22A58"/>
<stop offset="0.67" stop-color="#CA1D58"/>
<stop offset="0.81" stop-color="#AD0B57"/>
<stop offset="0.88" stop-color="#990057"/>
</linearGradient>
<linearGradient id="paint23_linear_1424_611" x1="538.615" y1="103.341" x2="519.73" y2="35.0628" gradientUnits="userSpaceOnUse">
<stop offset="0.01" stop-color="#FFFBB9"/>
<stop offset="0.19" stop-color="#FFF8B8"/>
<stop offset="0.33" stop-color="#FEEEB3"/>
<stop offset="0.45" stop-color="#FDDEAB"/>
<stop offset="0.57" stop-color="#FBC69F"/>
<stop offset="0.68" stop-color="#F9A891"/>
<stop offset="0.79" stop-color="#F7847F"/>
<stop offset="0.88" stop-color="#F4606E"/>
<stop offset="0.99" stop-color="#F27F5F"/>
</linearGradient>
<linearGradient id="paint24_linear_1424_611" x1="549.781" y1="84.359" x2="544.209" y2="76.0635" gradientUnits="userSpaceOnUse">
<stop offset="0.01" stop-color="#FFFBB9"/>
<stop offset="0.19" stop-color="#FFF8B8"/>
<stop offset="0.33" stop-color="#FEEEB3"/>
<stop offset="0.45" stop-color="#FDDEAB"/>
<stop offset="0.57" stop-color="#FBC69F"/>
<stop offset="0.68" stop-color="#F9A891"/>
<stop offset="0.79" stop-color="#F7847F"/>
<stop offset="0.88" stop-color="#F4606E"/>
<stop offset="0.99" stop-color="#F27F5F"/>
</linearGradient>
<linearGradient id="paint25_linear_1424_611" x1="538.801" y1="89.5697" x2="535.475" y2="74.5685" gradientUnits="userSpaceOnUse">
<stop offset="0.01" stop-color="#FFFBB9"/>
<stop offset="0.19" stop-color="#FFF8B8"/>
<stop offset="0.33" stop-color="#FEEEB3"/>
<stop offset="0.45" stop-color="#FDDEAB"/>
<stop offset="0.57" stop-color="#FBC69F"/>
<stop offset="0.68" stop-color="#F9A891"/>
<stop offset="0.79" stop-color="#F7847F"/>
<stop offset="0.88" stop-color="#F4606E"/>
<stop offset="0.99" stop-color="#F27F5F"/>
</linearGradient>
<linearGradient id="paint26_linear_1424_611" x1="-41.2618" y1="13.4927" x2="-38.9197" y2="56.1457" gradientUnits="userSpaceOnUse">
<stop stop-color="#1C7B9D"/>
<stop offset="0.37" stop-color="#036284"/>
<stop offset="0.99" stop-color="#024F6A"/>
</linearGradient>
<linearGradient id="paint27_linear_1424_611" x1="12.6801" y1="72.073" x2="97.4699" y2="49.1129" gradientUnits="userSpaceOnUse">
<stop stop-color="#38327F"/>
<stop offset="1" stop-color="#7B92FF"/>
</linearGradient>
<linearGradient id="paint28_linear_1424_611" x1="12.6801" y1="72.073" x2="97.4699" y2="49.1129" gradientUnits="userSpaceOnUse">
<stop stop-color="#104360"/>
<stop offset="1" stop-color="#13817A"/>
</linearGradient>
<linearGradient id="paint29_linear_1424_611" x1="12.1855" y1="-181.237" x2="11.4127" y2="139.492" gradientUnits="userSpaceOnUse">
<stop stop-color="#2B33C4"/>
<stop offset="1" stop-color="white"/>
</linearGradient>
<linearGradient id="paint30_linear_1424_611" x1="1.51725" y1="-20.0271" x2="-25.0933" y2="117.78" gradientUnits="userSpaceOnUse">
<stop stop-color="#2A96C1"/>
<stop offset="0.04" stop-color="#278AB2"/>
<stop offset="0.16" stop-color="#1D6683"/>
<stop offset="0.29" stop-color="#14475B"/>
<stop offset="0.42" stop-color="#0D2D3A"/>
<stop offset="0.55" stop-color="#071920"/>
<stop offset="0.69" stop-color="#030B0E"/>
<stop offset="0.84" stop-color="#010304"/>
<stop offset="1"/>
</linearGradient>
<linearGradient id="paint31_linear_1424_611" x1="57.0281" y1="-30.4436" x2="47.4583" y2="31.4306" gradientUnits="userSpaceOnUse">
<stop offset="0.01" stop-color="#FFFBB9"/>
<stop offset="0.19" stop-color="#FFF8B8"/>
<stop offset="0.33" stop-color="#FEEEB3"/>
<stop offset="0.45" stop-color="#FDDEAB"/>
<stop offset="0.57" stop-color="#FBC69F"/>
<stop offset="0.68" stop-color="#F9A891"/>
<stop offset="0.79" stop-color="#F7847F"/>
<stop offset="0.88" stop-color="#F4606E"/>
</linearGradient>
<linearGradient id="paint32_linear_1424_611" x1="60.9298" y1="-11.6389" x2="61.365" y2="54.3968" gradientUnits="userSpaceOnUse">
<stop offset="0.01" stop-color="#FFFBB9"/>
<stop offset="0.19" stop-color="#FFF8B8"/>
<stop offset="0.33" stop-color="#FEEEB3"/>
<stop offset="0.45" stop-color="#FDDEAB"/>
<stop offset="0.57" stop-color="#FBC69F"/>
<stop offset="0.68" stop-color="#F9A891"/>
<stop offset="0.79" stop-color="#F7847F"/>
<stop offset="0.88" stop-color="#F4606E"/>
<stop offset="0.99" stop-color="#F27F5F"/>
</linearGradient>
<linearGradient id="paint33_linear_1424_611" x1="64.8923" y1="-14.5398" x2="65.369" y2="56.7632" gradientUnits="userSpaceOnUse">
<stop offset="0.01" stop-color="#FFFBB9"/>
<stop offset="0.19" stop-color="#FFF8B8"/>
<stop offset="0.33" stop-color="#FEEEB3"/>
<stop offset="0.45" stop-color="#FDDEAB"/>
<stop offset="0.57" stop-color="#FBC69F"/>
<stop offset="0.68" stop-color="#F9A891"/>
<stop offset="0.79" stop-color="#F7847F"/>
<stop offset="0.88" stop-color="#F4606E"/>
<stop offset="0.99" stop-color="#F27F5F"/>
</linearGradient>
<linearGradient id="paint34_linear_1424_611" x1="30.081" y1="-15.0107" x2="29.2416" y2="52.4288" gradientUnits="userSpaceOnUse">
<stop offset="0.01" stop-color="#FFFBB9"/>
<stop offset="0.19" stop-color="#FFF8B8"/>
<stop offset="0.33" stop-color="#FEEEB3"/>
<stop offset="0.45" stop-color="#FDDEAB"/>
<stop offset="0.57" stop-color="#FBC69F"/>
<stop offset="0.68" stop-color="#F9A891"/>
<stop offset="0.79" stop-color="#F7847F"/>
<stop offset="0.88" stop-color="#F4606E"/>
</linearGradient>
<linearGradient id="paint35_linear_1424_611" x1="22.1154" y1="3.24009" x2="16.5737" y2="45.2806" gradientUnits="userSpaceOnUse">
<stop offset="0.01" stop-color="#FFFBB9"/>
<stop offset="0.19" stop-color="#FFF8B8"/>
<stop offset="0.33" stop-color="#FEEEB3"/>
<stop offset="0.45" stop-color="#FDDEAB"/>
<stop offset="0.57" stop-color="#FBC69F"/>
<stop offset="0.68" stop-color="#F9A891"/>
<stop offset="0.79" stop-color="#F7847F"/>
<stop offset="0.88" stop-color="#F4606E"/>
<stop offset="0.99" stop-color="#F27F5F"/>
</linearGradient>
<linearGradient id="paint36_linear_1424_611" x1="15.6622" y1="17.8968" x2="39.1007" y2="46.8639" gradientUnits="userSpaceOnUse">
<stop offset="0.01" stop-color="#FFFBB9"/>
<stop offset="0.19" stop-color="#FFF8B8"/>
<stop offset="0.33" stop-color="#FEEEB3"/>
<stop offset="0.45" stop-color="#FDDEAB"/>
<stop offset="0.57" stop-color="#FBC69F"/>
<stop offset="0.68" stop-color="#F9A891"/>
<stop offset="0.79" stop-color="#F7847F"/>
<stop offset="0.88" stop-color="#F4606E"/>
<stop offset="0.99" stop-color="#F27F5F"/>
</linearGradient>
<linearGradient id="paint37_linear_1424_611" x1="36.1136" y1="10.509" x2="30.2203" y2="45.6705" gradientUnits="userSpaceOnUse">
<stop offset="0.01" stop-color="#FFFBB9"/>
<stop offset="0.19" stop-color="#FFF8B8"/>
<stop offset="0.33" stop-color="#FEEEB3"/>
<stop offset="0.45" stop-color="#FDDEAB"/>
<stop offset="0.57" stop-color="#FBC69F"/>
<stop offset="0.68" stop-color="#F9A891"/>
<stop offset="0.79" stop-color="#F7847F"/>
<stop offset="0.88" stop-color="#F4606E"/>
<stop offset="0.99" stop-color="#F27F5F"/>
</linearGradient>
<linearGradient id="paint38_linear_1424_611" x1="42.0395" y1="14.718" x2="42.2675" y2="50.4207" gradientUnits="userSpaceOnUse">
<stop offset="0.01" stop-color="#FFFBB9"/>
<stop offset="0.19" stop-color="#FFF8B8"/>
<stop offset="0.33" stop-color="#FEEEB3"/>
<stop offset="0.45" stop-color="#FDDEAB"/>
<stop offset="0.57" stop-color="#FBC69F"/>
<stop offset="0.68" stop-color="#F9A891"/>
<stop offset="0.79" stop-color="#F7847F"/>
<stop offset="0.88" stop-color="#F4606E"/>
<stop offset="0.99" stop-color="#F27F5F"/>
</linearGradient>
<linearGradient id="paint39_linear_1424_611" x1="20.5141" y1="15.0561" x2="20.742" y2="50.7793" gradientUnits="userSpaceOnUse">
<stop offset="0.01" stop-color="#FFFBB9"/>
<stop offset="0.19" stop-color="#FFF8B8"/>
<stop offset="0.33" stop-color="#FEEEB3"/>
<stop offset="0.45" stop-color="#FDDEAB"/>
<stop offset="0.57" stop-color="#FBC69F"/>
<stop offset="0.68" stop-color="#F9A891"/>
<stop offset="0.79" stop-color="#F7847F"/>
<stop offset="0.88" stop-color="#F4606E"/>
<stop offset="0.99" stop-color="#F27F5F"/>
</linearGradient>
<linearGradient id="paint40_linear_1424_611" x1="38.6241" y1="24.7812" x2="35.6819" y2="54.7186" gradientUnits="userSpaceOnUse">
<stop offset="0.01" stop-color="#FFFBB9"/>
<stop offset="0.19" stop-color="#FFF8B8"/>
<stop offset="0.33" stop-color="#FEEEB3"/>
<stop offset="0.45" stop-color="#FDDEAB"/>
<stop offset="0.57" stop-color="#FBC69F"/>
<stop offset="0.68" stop-color="#F9A891"/>
<stop offset="0.79" stop-color="#F7847F"/>
<stop offset="0.88" stop-color="#F4606E"/>
<stop offset="0.99" stop-color="#F27F5F"/>
</linearGradient>
<linearGradient id="paint41_linear_1424_611" x1="39.733" y1="14.0822" x2="31.0939" y2="29.806" gradientUnits="userSpaceOnUse">
<stop offset="0.01" stop-color="#FFFBB9"/>
<stop offset="0.19" stop-color="#FFF8B8"/>
<stop offset="0.33" stop-color="#FEEEB3"/>
<stop offset="0.45" stop-color="#FDDEAB"/>
<stop offset="0.57" stop-color="#FBC69F"/>
<stop offset="0.68" stop-color="#F9A891"/>
<stop offset="0.79" stop-color="#F7847F"/>
<stop offset="0.88" stop-color="#F4606E"/>
<stop offset="0.99" stop-color="#F27F5F"/>
</linearGradient>
<linearGradient id="paint42_linear_1424_611" x1="23.7976" y1="13.8465" x2="24.0359" y2="49.5492" gradientUnits="userSpaceOnUse">
<stop offset="0.01" stop-color="#FFFBB9"/>
<stop offset="0.19" stop-color="#FFF8B8"/>
<stop offset="0.33" stop-color="#FEEEB3"/>
<stop offset="0.45" stop-color="#FDDEAB"/>
<stop offset="0.57" stop-color="#FBC69F"/>
<stop offset="0.68" stop-color="#F9A891"/>
<stop offset="0.79" stop-color="#F7847F"/>
<stop offset="0.88" stop-color="#F4606E"/>
<stop offset="0.99" stop-color="#F27F5F"/>
</linearGradient>
<linearGradient id="paint43_linear_1424_611" x1="32.2801" y1="8.95858" x2="30.9227" y2="42.5389" gradientUnits="userSpaceOnUse">
<stop offset="0.01" stop-color="#FFFBB9"/>
<stop offset="0.19" stop-color="#FFF8B8"/>
<stop offset="0.33" stop-color="#FEEEB3"/>
<stop offset="0.45" stop-color="#FDDEAB"/>
<stop offset="0.57" stop-color="#FBC69F"/>
<stop offset="0.68" stop-color="#F9A891"/>
<stop offset="0.79" stop-color="#F7847F"/>
<stop offset="0.88" stop-color="#F4606E"/>
<stop offset="0.99" stop-color="#F27F5F"/>
</linearGradient>
<linearGradient id="paint44_linear_1424_611" x1="9.12315" y1="46.3421" x2="10.1045" y2="43.9004" gradientUnits="userSpaceOnUse">
<stop/>
<stop offset="0.21" stop-color="#010104"/>
<stop offset="0.41" stop-color="#03030F"/>
<stop offset="0.6" stop-color="#060722"/>
<stop offset="0.79" stop-color="#0B0D3C"/>
<stop offset="0.97" stop-color="#12155D"/>
<stop offset="1" stop-color="#131664"/>
</linearGradient>
<linearGradient id="paint45_linear_1424_611" x1="70.7382" y1="62.4927" x2="73.0803" y2="105.146" gradientUnits="userSpaceOnUse">
<stop stop-color="#1C7B9D"/>
<stop offset="0.37" stop-color="#036284"/>
<stop offset="0.99" stop-color="#024F6A"/>
</linearGradient>
<linearGradient id="paint46_linear_1424_611" x1="124.68" y1="121.073" x2="209.47" y2="98.1129" gradientUnits="userSpaceOnUse">
<stop stop-color="#104360"/>
<stop offset="1" stop-color="#13817A"/>
</linearGradient>
<linearGradient id="paint47_linear_1424_611" x1="1.64186" y1="78.6434" x2="-37.2073" y2="190.66" gradientUnits="userSpaceOnUse">
<stop stop-color="#38327F"/>
<stop offset="1" stop-color="#7B92FF"/>
</linearGradient>
<linearGradient id="paint48_linear_1424_611" x1="124.185" y1="-132.237" x2="123.413" y2="188.492" gradientUnits="userSpaceOnUse">
<stop stop-color="#2B33C4"/>
<stop offset="1" stop-color="white"/>
</linearGradient>
<linearGradient id="paint49_linear_1424_611" x1="113.517" y1="28.9729" x2="86.9068" y2="166.78" gradientUnits="userSpaceOnUse">
<stop stop-color="#2A96C1"/>
<stop offset="0.04" stop-color="#278AB2"/>
<stop offset="0.16" stop-color="#1D6683"/>
<stop offset="0.29" stop-color="#14475B"/>
<stop offset="0.42" stop-color="#0D2D3A"/>
<stop offset="0.55" stop-color="#071920"/>
<stop offset="0.69" stop-color="#030B0E"/>
<stop offset="0.84" stop-color="#010304"/>
<stop offset="1"/>
</linearGradient>
<linearGradient id="paint50_linear_1424_611" x1="77.0498" y1="43.6088" x2="47.7287" y2="110.818" gradientUnits="userSpaceOnUse">
<stop stop-color="#1E516D"/>
<stop offset="1" stop-color="#10ADCF" stop-opacity="0.47"/>
</linearGradient>
<linearGradient id="paint51_linear_1424_611" x1="83.6695" y1="38.0586" x2="90.8112" y2="83.9428" gradientUnits="userSpaceOnUse">
<stop offset="0.01" stop-color="#FFFBB9"/>
<stop offset="0.19" stop-color="#FFF8B8"/>
<stop offset="0.33" stop-color="#FEEEB3"/>
<stop offset="0.45" stop-color="#FDDEAB"/>
<stop offset="0.57" stop-color="#FBC69F"/>
<stop offset="0.68" stop-color="#F9A891"/>
<stop offset="0.79" stop-color="#F7847F"/>
<stop offset="0.88" stop-color="#F4606E"/>
</linearGradient>
<linearGradient id="paint52_linear_1424_611" x1="80.7935" y1="52.0078" x2="80.4686" y2="100.993" gradientUnits="userSpaceOnUse">
<stop offset="0.01" stop-color="#FFFBB9"/>
<stop offset="0.19" stop-color="#FFF8B8"/>
<stop offset="0.33" stop-color="#FEEEB3"/>
<stop offset="0.45" stop-color="#FDDEAB"/>
<stop offset="0.57" stop-color="#FBC69F"/>
<stop offset="0.68" stop-color="#F9A891"/>
<stop offset="0.79" stop-color="#F7847F"/>
<stop offset="0.88" stop-color="#F4606E"/>
<stop offset="0.99" stop-color="#F27F5F"/>
</linearGradient>
<linearGradient id="paint53_linear_1424_611" x1="77.8726" y1="49.8562" x2="77.5168" y2="102.748" gradientUnits="userSpaceOnUse">
<stop offset="0.01" stop-color="#FFFBB9"/>
<stop offset="0.19" stop-color="#FFF8B8"/>
<stop offset="0.33" stop-color="#FEEEB3"/>
<stop offset="0.45" stop-color="#FDDEAB"/>
<stop offset="0.57" stop-color="#FBC69F"/>
<stop offset="0.68" stop-color="#F9A891"/>
<stop offset="0.79" stop-color="#F7847F"/>
<stop offset="0.88" stop-color="#F4606E"/>
<stop offset="0.99" stop-color="#F27F5F"/>
</linearGradient>
<linearGradient id="paint54_linear_1424_611" x1="103.533" y1="49.5063" x2="104.159" y2="99.5323" gradientUnits="userSpaceOnUse">
<stop offset="0.01" stop-color="#FFFBB9"/>
<stop offset="0.19" stop-color="#FFF8B8"/>
<stop offset="0.33" stop-color="#FEEEB3"/>
<stop offset="0.45" stop-color="#FDDEAB"/>
<stop offset="0.57" stop-color="#FBC69F"/>
<stop offset="0.68" stop-color="#F9A891"/>
<stop offset="0.79" stop-color="#F7847F"/>
<stop offset="0.88" stop-color="#F4606E"/>
</linearGradient>
<linearGradient id="paint55_linear_1424_611" x1="109.404" y1="63.0449" x2="113.54" y2="94.2235" gradientUnits="userSpaceOnUse">
<stop offset="0.01" stop-color="#FFFBB9"/>
<stop offset="0.19" stop-color="#FFF8B8"/>
<stop offset="0.33" stop-color="#FEEEB3"/>
<stop offset="0.45" stop-color="#FDDEAB"/>
<stop offset="0.57" stop-color="#FBC69F"/>
<stop offset="0.68" stop-color="#F9A891"/>
<stop offset="0.79" stop-color="#F7847F"/>
<stop offset="0.88" stop-color="#F4606E"/>
<stop offset="0.99" stop-color="#F27F5F"/>
</linearGradient>
<linearGradient id="paint56_linear_1424_611" x1="114.161" y1="73.9169" x2="96.7517" y2="95.2968" gradientUnits="userSpaceOnUse">
<stop offset="0.01" stop-color="#FFFBB9"/>
<stop offset="0.19" stop-color="#FFF8B8"/>
<stop offset="0.33" stop-color="#FEEEB3"/>
<stop offset="0.45" stop-color="#FDDEAB"/>
<stop offset="0.57" stop-color="#FBC69F"/>
<stop offset="0.68" stop-color="#F9A891"/>
<stop offset="0.79" stop-color="#F7847F"/>
<stop offset="0.88" stop-color="#F4606E"/>
<stop offset="0.99" stop-color="#F27F5F"/>
</linearGradient>
<linearGradient id="paint57_linear_1424_611" x1="99.0859" y1="68.4369" x2="103.484" y2="94.5104" gradientUnits="userSpaceOnUse">
<stop offset="0.01" stop-color="#FFFBB9"/>
<stop offset="0.19" stop-color="#FFF8B8"/>
<stop offset="0.33" stop-color="#FEEEB3"/>
<stop offset="0.45" stop-color="#FDDEAB"/>
<stop offset="0.57" stop-color="#FBC69F"/>
<stop offset="0.68" stop-color="#F9A891"/>
<stop offset="0.79" stop-color="#F7847F"/>
<stop offset="0.88" stop-color="#F4606E"/>
<stop offset="0.99" stop-color="#F27F5F"/>
</linearGradient>
<linearGradient id="paint58_linear_1424_611" x1="94.7178" y1="71.5585" x2="94.5476" y2="98.0426" gradientUnits="userSpaceOnUse">
<stop offset="0.01" stop-color="#FFFBB9"/>
<stop offset="0.19" stop-color="#FFF8B8"/>
<stop offset="0.33" stop-color="#FEEEB3"/>
<stop offset="0.45" stop-color="#FDDEAB"/>
<stop offset="0.57" stop-color="#FBC69F"/>
<stop offset="0.68" stop-color="#F9A891"/>
<stop offset="0.79" stop-color="#F7847F"/>
<stop offset="0.88" stop-color="#F4606E"/>
<stop offset="0.99" stop-color="#F27F5F"/>
</linearGradient>
<linearGradient id="paint59_linear_1424_611" x1="110.584" y1="71.8096" x2="110.414" y2="98.3088" gradientUnits="userSpaceOnUse">
<stop offset="0.01" stop-color="#FFFBB9"/>
<stop offset="0.19" stop-color="#FFF8B8"/>
<stop offset="0.33" stop-color="#FEEEB3"/>
<stop offset="0.45" stop-color="#FDDEAB"/>
<stop offset="0.57" stop-color="#FBC69F"/>
<stop offset="0.68" stop-color="#F9A891"/>
<stop offset="0.79" stop-color="#F7847F"/>
<stop offset="0.88" stop-color="#F4606E"/>
<stop offset="0.99" stop-color="#F27F5F"/>
</linearGradient>
<linearGradient id="paint60_linear_1424_611" x1="97.2353" y1="79.0236" x2="99.4314" y2="101.228" gradientUnits="userSpaceOnUse">
<stop offset="0.01" stop-color="#FFFBB9"/>
<stop offset="0.19" stop-color="#FFF8B8"/>
<stop offset="0.33" stop-color="#FEEEB3"/>
<stop offset="0.45" stop-color="#FDDEAB"/>
<stop offset="0.57" stop-color="#FBC69F"/>
<stop offset="0.68" stop-color="#F9A891"/>
<stop offset="0.79" stop-color="#F7847F"/>
<stop offset="0.88" stop-color="#F4606E"/>
<stop offset="0.99" stop-color="#F27F5F"/>
</linearGradient>
<linearGradient id="paint61_linear_1424_611" x1="96.418" y1="71.0876" x2="102.848" y2="82.7171" gradientUnits="userSpaceOnUse">
<stop offset="0.01" stop-color="#FFFBB9"/>
<stop offset="0.19" stop-color="#FFF8B8"/>
<stop offset="0.33" stop-color="#FEEEB3"/>
<stop offset="0.45" stop-color="#FDDEAB"/>
<stop offset="0.57" stop-color="#FBC69F"/>
<stop offset="0.68" stop-color="#F9A891"/>
<stop offset="0.79" stop-color="#F7847F"/>
<stop offset="0.88" stop-color="#F4606E"/>
<stop offset="0.99" stop-color="#F27F5F"/>
</linearGradient>
<linearGradient id="paint62_linear_1424_611" x1="108.164" y1="70.9125" x2="107.986" y2="97.3965" gradientUnits="userSpaceOnUse">
<stop offset="0.01" stop-color="#FFFBB9"/>
<stop offset="0.19" stop-color="#FFF8B8"/>
<stop offset="0.33" stop-color="#FEEEB3"/>
<stop offset="0.45" stop-color="#FDDEAB"/>
<stop offset="0.57" stop-color="#FBC69F"/>
<stop offset="0.68" stop-color="#F9A891"/>
<stop offset="0.79" stop-color="#F7847F"/>
<stop offset="0.88" stop-color="#F4606E"/>
<stop offset="0.99" stop-color="#F27F5F"/>
</linearGradient>
<linearGradient id="paint63_linear_1424_611" x1="101.912" y1="67.2872" x2="102.925" y2="92.1963" gradientUnits="userSpaceOnUse">
<stop offset="0.01" stop-color="#FFFBB9"/>
<stop offset="0.19" stop-color="#FFF8B8"/>
<stop offset="0.33" stop-color="#FEEEB3"/>
<stop offset="0.45" stop-color="#FDDEAB"/>
<stop offset="0.57" stop-color="#FBC69F"/>
<stop offset="0.68" stop-color="#F9A891"/>
<stop offset="0.79" stop-color="#F7847F"/>
<stop offset="0.88" stop-color="#F4606E"/>
<stop offset="0.99" stop-color="#F27F5F"/>
</linearGradient>
<linearGradient id="paint64_linear_1424_611" x1="118.981" y1="95.0171" x2="118.25" y2="93.2091" gradientUnits="userSpaceOnUse">
<stop/>
<stop offset="0.21" stop-color="#010104"/>
<stop offset="0.41" stop-color="#03030F"/>
<stop offset="0.6" stop-color="#060722"/>
<stop offset="0.79" stop-color="#0B0D3C"/>
<stop offset="0.97" stop-color="#12155D"/>
<stop offset="1" stop-color="#131664"/>
</linearGradient>
<linearGradient id="paint65_linear_1424_611" x1="82.3305" y1="44.4385" x2="74.8073" y2="91.5019" gradientUnits="userSpaceOnUse">
<stop offset="0.01" stop-color="#FFFBB9"/>
<stop offset="0.19" stop-color="#FFF8B8"/>
<stop offset="0.33" stop-color="#FEEEB3"/>
<stop offset="0.45" stop-color="#FDDEAB"/>
<stop offset="0.57" stop-color="#FBC69F"/>
<stop offset="0.68" stop-color="#F9A891"/>
<stop offset="0.79" stop-color="#F7847F"/>
<stop offset="0.88" stop-color="#F4606E"/>
</linearGradient>
<linearGradient id="paint66_linear_1424_611" x1="85.2065" y1="58.7643" x2="85.5492" y2="109.073" gradientUnits="userSpaceOnUse">
<stop offset="0.01" stop-color="#FFFBB9"/>
<stop offset="0.19" stop-color="#FFF8B8"/>
<stop offset="0.33" stop-color="#FEEEB3"/>
<stop offset="0.45" stop-color="#FDDEAB"/>
<stop offset="0.57" stop-color="#FBC69F"/>
<stop offset="0.68" stop-color="#F9A891"/>
<stop offset="0.79" stop-color="#F7847F"/>
<stop offset="0.88" stop-color="#F4606E"/>
<stop offset="0.99" stop-color="#F27F5F"/>
</linearGradient>
<linearGradient id="paint67_linear_1424_611" x1="88.1274" y1="56.5552" x2="88.5027" y2="110.877" gradientUnits="userSpaceOnUse">
<stop offset="0.01" stop-color="#FFFBB9"/>
<stop offset="0.19" stop-color="#FFF8B8"/>
<stop offset="0.33" stop-color="#FEEEB3"/>
<stop offset="0.45" stop-color="#FDDEAB"/>
<stop offset="0.57" stop-color="#FBC69F"/>
<stop offset="0.68" stop-color="#F9A891"/>
<stop offset="0.79" stop-color="#F7847F"/>
<stop offset="0.88" stop-color="#F4606E"/>
<stop offset="0.99" stop-color="#F27F5F"/>
</linearGradient>
<linearGradient id="paint68_linear_1424_611" x1="62.4674" y1="56.1964" x2="61.8065" y2="107.574" gradientUnits="userSpaceOnUse">
<stop offset="0.01" stop-color="#FFFBB9"/>
<stop offset="0.19" stop-color="#FFF8B8"/>
<stop offset="0.33" stop-color="#FEEEB3"/>
<stop offset="0.45" stop-color="#FDDEAB"/>
<stop offset="0.57" stop-color="#FBC69F"/>
<stop offset="0.68" stop-color="#F9A891"/>
<stop offset="0.79" stop-color="#F7847F"/>
<stop offset="0.88" stop-color="#F4606E"/>
</linearGradient>
<linearGradient id="paint69_linear_1424_611" x1="56.5958" y1="70.1005" x2="52.2373" y2="102.091" gradientUnits="userSpaceOnUse">
<stop offset="0.01" stop-color="#FFFBB9"/>
<stop offset="0.19" stop-color="#FFF8B8"/>
<stop offset="0.33" stop-color="#FEEEB3"/>
<stop offset="0.45" stop-color="#FDDEAB"/>
<stop offset="0.57" stop-color="#FBC69F"/>
<stop offset="0.68" stop-color="#F9A891"/>
<stop offset="0.79" stop-color="#F7847F"/>
<stop offset="0.88" stop-color="#F4606E"/>
<stop offset="0.99" stop-color="#F27F5F"/>
</linearGradient>
<linearGradient id="paint70_linear_1424_611" x1="51.8391" y1="81.2667" x2="69.8095" y2="102.755" gradientUnits="userSpaceOnUse">
<stop offset="0.01" stop-color="#FFFBB9"/>
<stop offset="0.19" stop-color="#FFF8B8"/>
<stop offset="0.33" stop-color="#FEEEB3"/>
<stop offset="0.45" stop-color="#FDDEAB"/>
<stop offset="0.57" stop-color="#FBC69F"/>
<stop offset="0.68" stop-color="#F9A891"/>
<stop offset="0.79" stop-color="#F7847F"/>
<stop offset="0.88" stop-color="#F4606E"/>
<stop offset="0.99" stop-color="#F27F5F"/>
</linearGradient>
<linearGradient id="paint71_linear_1424_611" x1="66.9141" y1="75.6383" x2="62.2824" y2="102.376" gradientUnits="userSpaceOnUse">
<stop offset="0.01" stop-color="#FFFBB9"/>
<stop offset="0.19" stop-color="#FFF8B8"/>
<stop offset="0.33" stop-color="#FEEEB3"/>
<stop offset="0.45" stop-color="#FDDEAB"/>
<stop offset="0.57" stop-color="#FBC69F"/>
<stop offset="0.68" stop-color="#F9A891"/>
<stop offset="0.79" stop-color="#F7847F"/>
<stop offset="0.88" stop-color="#F4606E"/>
<stop offset="0.99" stop-color="#F27F5F"/>
</linearGradient>
<linearGradient id="paint72_linear_1424_611" x1="71.2822" y1="78.8439" x2="71.4617" y2="106.044" gradientUnits="userSpaceOnUse">
<stop offset="0.01" stop-color="#FFFBB9"/>
<stop offset="0.19" stop-color="#FFF8B8"/>
<stop offset="0.33" stop-color="#FEEEB3"/>
<stop offset="0.45" stop-color="#FDDEAB"/>
<stop offset="0.57" stop-color="#FBC69F"/>
<stop offset="0.68" stop-color="#F9A891"/>
<stop offset="0.79" stop-color="#F7847F"/>
<stop offset="0.88" stop-color="#F4606E"/>
<stop offset="0.99" stop-color="#F27F5F"/>
</linearGradient>
<linearGradient id="paint73_linear_1424_611" x1="55.4155" y1="79.1024" x2="55.595" y2="106.318" gradientUnits="userSpaceOnUse">
<stop offset="0.01" stop-color="#FFFBB9"/>
<stop offset="0.19" stop-color="#FFF8B8"/>
<stop offset="0.33" stop-color="#FEEEB3"/>
<stop offset="0.45" stop-color="#FDDEAB"/>
<stop offset="0.57" stop-color="#FBC69F"/>
<stop offset="0.68" stop-color="#F9A891"/>
<stop offset="0.79" stop-color="#F7847F"/>
<stop offset="0.88" stop-color="#F4606E"/>
<stop offset="0.99" stop-color="#F27F5F"/>
</linearGradient>
<linearGradient id="paint74_linear_1424_611" x1="68.7647" y1="86.5109" x2="66.4495" y2="109.304" gradientUnits="userSpaceOnUse">
<stop offset="0.01" stop-color="#FFFBB9"/>
<stop offset="0.19" stop-color="#FFF8B8"/>
<stop offset="0.33" stop-color="#FEEEB3"/>
<stop offset="0.45" stop-color="#FDDEAB"/>
<stop offset="0.57" stop-color="#FBC69F"/>
<stop offset="0.68" stop-color="#F9A891"/>
<stop offset="0.79" stop-color="#F7847F"/>
<stop offset="0.88" stop-color="#F4606E"/>
<stop offset="0.99" stop-color="#F27F5F"/>
</linearGradient>
<linearGradient id="paint75_linear_1424_611" x1="69.582" y1="78.3598" x2="62.8855" y2="90.1523" gradientUnits="userSpaceOnUse">
<stop offset="0.01" stop-color="#FFFBB9"/>
<stop offset="0.19" stop-color="#FFF8B8"/>
<stop offset="0.33" stop-color="#FEEEB3"/>
<stop offset="0.45" stop-color="#FDDEAB"/>
<stop offset="0.57" stop-color="#FBC69F"/>
<stop offset="0.68" stop-color="#F9A891"/>
<stop offset="0.79" stop-color="#F7847F"/>
<stop offset="0.88" stop-color="#F4606E"/>
<stop offset="0.99" stop-color="#F27F5F"/>
</linearGradient>
<linearGradient id="paint76_linear_1424_611" x1="57.8358" y1="78.1812" x2="58.0234" y2="105.381" gradientUnits="userSpaceOnUse">
<stop offset="0.01" stop-color="#FFFBB9"/>
<stop offset="0.19" stop-color="#FFF8B8"/>
<stop offset="0.33" stop-color="#FEEEB3"/>
<stop offset="0.45" stop-color="#FDDEAB"/>
<stop offset="0.57" stop-color="#FBC69F"/>
<stop offset="0.68" stop-color="#F9A891"/>
<stop offset="0.79" stop-color="#F7847F"/>
<stop offset="0.88" stop-color="#F4606E"/>
<stop offset="0.99" stop-color="#F27F5F"/>
</linearGradient>
<linearGradient id="paint77_linear_1424_611" x1="64.0884" y1="74.4567" x2="63.0197" y2="100.037" gradientUnits="userSpaceOnUse">
<stop offset="0.01" stop-color="#FFFBB9"/>
<stop offset="0.19" stop-color="#FFF8B8"/>
<stop offset="0.33" stop-color="#FEEEB3"/>
<stop offset="0.45" stop-color="#FDDEAB"/>
<stop offset="0.57" stop-color="#FBC69F"/>
<stop offset="0.68" stop-color="#F9A891"/>
<stop offset="0.79" stop-color="#F7847F"/>
<stop offset="0.88" stop-color="#F4606E"/>
<stop offset="0.99" stop-color="#F27F5F"/>
</linearGradient>
<linearGradient id="paint78_linear_1424_611" x1="47.0191" y1="102.937" x2="47.7846" y2="101.094" gradientUnits="userSpaceOnUse">
<stop/>
<stop offset="0.21" stop-color="#010104"/>
<stop offset="0.41" stop-color="#03030F"/>
<stop offset="0.6" stop-color="#060722"/>
<stop offset="0.79" stop-color="#0B0D3C"/>
<stop offset="0.97" stop-color="#12155D"/>
<stop offset="1" stop-color="#131664"/>
</linearGradient>
</defs>
</svg>
