<svg width="61" height="21" viewBox="0 0 61 21" fill="none" xmlns="http://www.w3.org/2000/svg">
<path d="M60.4297 0C54.4455 0.0926387 48.4747 0.598169 42.5594 1.51303C40.4902 2.50595 29.815 10.2602 29.815 10.2602L26.5702 10.9694C26.5184 11.5455 26.3343 12.1015 26.0323 12.5938C25.7304 13.0861 25.3189 13.5012 24.8302 13.8064C23.0431 15.2248 15.4248 7.99066 12.9323 9.50369C10.4399 11.0167 -0.0001297 15.7449 -0.0001297 15.7449C5.27641 15.2376 10.4903 14.2081 15.5658 12.6716C18.1523 11.1586 23.3253 18.1563 23.3253 18.1563L22.1967 20.3786C22.1967 20.3786 38.5621 7.61241 44.6286 4.11354C49.5843 1.73582 54.9489 0.33924 60.4297 0V0Z" fill="url(#paint0_linear_8_27668)"/>
<defs>
<linearGradient id="paint0_linear_8_27668" x1="30.289" y1="3.29195" x2="29.9412" y2="20.373" gradientUnits="userSpaceOnUse">
<stop stop-color="#ABC0ED"/>
<stop offset="1" stop-color="#ABC0ED" stop-opacity="0"/>
</linearGradient>
</defs>
</svg>
