<svg width="541" height="389" viewBox="0 0 541 389" fill="none" xmlns="http://www.w3.org/2000/svg">
<g filter="url(#filter0_d_8_28289)">
<path d="M321.69 46.0037L324.912 7.54565L320.266 47.1961L321.69 46.0037Z" fill="url(#paint0_linear_8_28289)"/>
<path d="M383.064 70.6518C383.064 70.6518 328.473 29.3641 285.078 28.9726C241.664 28.5633 223.9 34.2225 223.9 34.2225L196.044 49.1537L370.712 90.3524L383.064 70.6518Z" fill="url(#paint1_linear_8_28289)"/>
<path d="M381.604 72.9833C381.604 72.9833 312.185 30.2719 299.191 34.8811C281.231 41.2344 290.363 54.5996 290.363 54.5996L369.446 91.2246L381.604 72.9833Z" fill="#ADC7F6"/>
<path d="M215.428 54.9909L221.266 55.1155L225.93 55.2223L235.096 55.4181L259.553 55.9342L262.668 0.729653L253.145 0.231353L248.517 0L239.333 46.4487L226.036 53.5494L228.19 16.7998L223.847 16.6574L221.017 16.5507L215.428 54.9909Z" fill="white"/>
<path opacity="0.26" d="M261.689 19.8429L244.744 19.0598L242.43 30.7521L261.155 30.4673L261.689 19.8429Z" fill="#ADC7F6"/>
<path opacity="0.85" d="M221.088 56.2545L258.788 63.7823L259.642 60.5078L262.668 0.729623L253.145 0.231323L261.6 1.42368L254.462 54.9909L235.096 55.418L225.912 55.6138L225.93 55.2223L228.19 16.7998L223.847 16.6574L227.033 17.2981L221.266 55.1155L221.088 56.2545Z" fill="#ADC7F6"/>
<path opacity="0.7" d="M332.656 63.7825L337.053 54.5995C337.053 54.5995 308.378 38.8497 303.216 45.3632C298.072 51.8767 332.656 63.7825 332.656 63.7825Z" fill="#ADC7F6"/>
<path opacity="0.7" d="M364.305 81.2941L368.238 70.6519L366.868 69.2816L359.623 85.1916L356.152 83.5187L362.186 65.8113L360.976 63.7825L349.833 86.3839L361.154 94.5525L364.305 81.2941Z" fill="#ADC7F6"/>
<path d="M117.636 151.074L248.481 200.085L255.21 202.612L269.521 207.969L287.872 214.838L294.369 215.141L434.025 221.708C434.025 221.708 434.808 188.055 434.487 173.052C434.434 170.757 434.363 168.906 434.256 167.66C434.185 166.895 434.114 166.361 434.025 166.112C432.814 162.98 426.353 160.488 426.353 160.488V144.24L417.062 139.239L417.168 136.837L418.147 116.05L421.476 114.395L422.099 110.836L297.662 40.8606L180.878 48.0681L180.843 48.1215L175.45 56.8952L175.111 57.4469L173.759 59.6536L157.045 86.8643L155.514 89.3558L151.705 95.549L144.994 106.494L140.224 114.253L117.636 151.074Z" fill="url(#paint2_linear_8_28289)"/>
<path opacity="0.79" d="M145.013 106.494L273.775 106.156C279.774 106.138 285.754 106.69 291.664 107.811C297.983 109.003 304.213 110.836 310.3 113.31L426.354 160.488V144.24L417.062 139.239L417.169 136.837L418.273 113.132L296.665 51.1471L175.13 57.4114L157.063 86.8467L155.532 89.3382L151.723 95.5314L145.013 106.494Z" fill="url(#paint3_linear_8_28289)"/>
<path d="M407.22 133.864L407.416 145.752L407.22 165.221L407.078 145.77L407.22 133.864Z" fill="url(#paint4_linear_8_28289)"/>
<path d="M412.185 136.783L412.381 148.671L412.185 168.14L412.043 148.689L412.185 136.783Z" fill="url(#paint5_linear_8_28289)"/>
<path d="M417.738 138.402L417.951 150.308L417.738 169.759L417.613 150.308L417.738 138.402Z" fill="url(#paint6_linear_8_28289)"/>
<path d="M424.041 143.617L424.236 153.85L424.041 170.56L423.916 153.85L424.041 143.617Z" fill="url(#paint7_linear_8_28289)"/>
<path d="M402.058 130.519L402.449 143.296L402.004 161.769L401.506 143.368L402.058 130.519Z" fill="url(#paint8_linear_8_28289)"/>
<path d="M117.636 151.074L248.481 200.085L294.369 215.141L434.025 221.708C434.025 221.708 435.057 176.968 434.256 167.66L305.28 117.759C296.042 114.182 286.359 112.42 276.623 112.545L140.26 114.271L117.636 151.074Z" fill="url(#paint9_linear_8_28289)"/>
<path d="M297.682 40.8606L161.532 49.3139L163.739 57.4291L296.685 51.1647L297.682 40.8606Z" fill="white"/>
<path d="M397.589 99.7664L397.803 111.672L397.607 131.124L397.465 111.69L397.589 99.7664Z" fill="url(#paint10_linear_8_28289)"/>
<path d="M402.572 102.685L402.768 114.591L402.572 134.042L402.429 114.591L402.572 102.685Z" fill="url(#paint11_linear_8_28289)"/>
<path d="M408.126 104.304L408.322 116.21L408.126 135.68L408.002 116.228L408.126 104.304Z" fill="url(#paint12_linear_8_28289)"/>
<path d="M414.427 109.537L414.623 119.752L414.427 136.463L414.303 119.77L414.427 109.537Z" fill="url(#paint13_linear_8_28289)"/>
<path d="M392.427 96.4209L392.836 109.217L392.391 127.671L391.893 109.288L392.427 96.4209Z" fill="url(#paint14_linear_8_28289)"/>
<path d="M327.333 62.3945L327.689 81.2409L327.227 122.084L326.942 81.2765L327.333 62.3945Z" fill="url(#paint15_linear_8_28289)"/>
<path d="M337.338 62.3944L337.801 87.3628L337.338 128.206L337.053 87.3984L337.338 62.3944Z" fill="url(#paint16_linear_8_28289)"/>
<path d="M346.665 70.6519L347.182 89.8898L346.737 130.733L346.434 89.9254L346.665 70.6519Z" fill="url(#paint17_linear_8_28289)"/>
<path d="M356.597 79.1587L356.846 95.6382L356.472 136.463L356.223 95.656L356.597 79.1587Z" fill="url(#paint18_linear_8_28289)"/>
<path d="M374.575 89.9249L374.984 106.404L374.504 144.542L374.344 106.422L374.575 89.9249Z" fill="url(#paint19_linear_8_28289)"/>
<path d="M317.651 52.0369L318.559 78.8561L317.544 117.617L316.405 79.0162L317.651 52.0369Z" fill="url(#paint20_linear_8_28289)"/>
<path d="M214.412 50.0074L205.957 72.5021L194.049 109.092L207.132 72.3953L214.412 50.0074Z" fill="url(#paint21_linear_8_28289)"/>
<path d="M200.814 50.4884L190.651 72.2712L175.931 107.828L191.826 72.2534L200.814 50.4884Z" fill="url(#paint22_linear_8_28289)"/>
<path d="M290.043 46.021L288.227 69.975L287.017 108.451L289.331 69.5657L290.043 46.021Z" fill="url(#paint23_linear_8_28289)"/>
<path d="M305.656 50.0613L303.841 74.0331L302.63 112.509L304.944 73.6059L305.656 50.0613Z" fill="url(#paint24_linear_8_28289)"/>
<path d="M277.121 50.2751L273.454 74.0334L269.254 112.296L274.576 73.6952L277.121 50.2751Z" fill="url(#paint25_linear_8_28289)"/>
<path d="M260.104 48.5129L256.615 72.289L252.717 110.587L257.736 71.9508L260.104 48.5129Z" fill="url(#paint26_linear_8_28289)"/>
<path d="M243.426 52.0369L238.104 75.4748L231.233 113.346L239.243 75.2078L243.426 52.0369Z" fill="url(#paint27_linear_8_28289)"/>
<path d="M185.008 53.1044L174.844 74.8872L160.124 110.444L176.019 74.8872L185.008 53.1044Z" fill="url(#paint28_linear_8_28289)"/>
<path d="M227.568 51.8228L220.52 76.5776L213.186 111.743L223.118 76.1505L227.568 51.8228Z" fill="url(#paint29_linear_8_28289)"/>
<path d="M151.74 95.5487L292.428 93.1818L293.389 93.164L426.353 145.913L426.495 145.966L427.367 141.108L417.186 136.854L293.656 85.1912L292.838 85.209L155.549 89.3555H155.531L151.74 95.5487Z" fill="url(#paint30_linear_8_28289)"/>
<path d="M273.953 112.58L272.547 145.628L266.709 199.622L270.322 145.628L273.953 112.58Z" fill="url(#paint31_linear_8_28289)"/>
<path d="M256.402 113.789L255.192 145.627L250.831 191.453L252.771 145.627L256.402 113.789Z" fill="url(#paint32_linear_8_28289)"/>
<path d="M239.244 113.79L236.823 145.627L233.192 189.051L235.364 144.631L239.244 113.79Z" fill="url(#paint33_linear_8_28289)"/>
<path d="M223.9 113.79L221.088 145.628L216.834 179.886L219.059 145.628L223.9 113.79Z" fill="url(#paint34_linear_8_28289)"/>
<path d="M206.957 114.395L204.536 144.168L201.51 172.358L202.721 143.385L206.957 114.395Z" fill="url(#paint35_linear_8_28289)"/>
<path d="M193.498 114.288L189.386 147.034L179.134 200.12L187.179 146.785L193.498 114.288Z" fill="url(#paint36_linear_8_28289)"/>
<path d="M175.93 113.541L172.103 145.112L164.022 190.243L169.7 144.845L175.93 113.541Z" fill="url(#paint37_linear_8_28289)"/>
<path d="M158.844 111.636L153.824 143.065L146.651 185.883L152.454 141.926L158.844 111.636Z" fill="url(#paint38_linear_8_28289)"/>
<path d="M143.57 109.946L138.159 141.321L131.128 174.939L136.148 141.108L143.57 109.946Z" fill="url(#paint39_linear_8_28289)"/>
<path d="M327.762 123.578L328.848 156.626L329.275 210.656L328.012 156.679L327.762 123.578Z" fill="url(#paint40_linear_8_28289)"/>
<path d="M339.243 131.408L340.329 164.438L340.756 218.486L339.492 164.492L339.243 131.408Z" fill="url(#paint41_linear_8_28289)"/>
<path d="M349.834 134.505L350.92 167.535L351.365 221.583L350.084 167.589L349.834 134.505Z" fill="url(#paint42_linear_8_28289)"/>
<path d="M374.575 140.645L375.661 169.012L376.088 215.443L374.824 169.065L374.575 140.645Z" fill="url(#paint43_linear_8_28289)"/>
<path d="M414.625 157.089L415.07 185.474L415.088 231.852L414.625 185.492V157.089Z" fill="url(#paint44_linear_8_28289)"/>
<path d="M420.641 161.324L421.086 189.71L421.104 236.087L420.641 189.71V161.324Z" fill="url(#paint45_linear_8_28289)"/>
<path d="M426.498 163.513L426.943 191.916L426.961 238.294L426.498 191.916V163.513Z" fill="url(#paint46_linear_8_28289)"/>
<path d="M431.463 164.083L431.908 192.468L431.926 238.863L431.481 192.486L431.463 164.083Z" fill="url(#paint47_linear_8_28289)"/>
<path d="M316.923 118.221L318.561 153.689L318.311 205.014L316.158 153.956L316.923 118.221Z" fill="url(#paint48_linear_8_28289)"/>
<path d="M304.301 115.427L304.764 153.031L305.066 204.338L303.215 152.017L304.301 115.427Z" fill="url(#paint49_linear_8_28289)"/>
<path d="M287.695 113.345L288.193 152.604L287.535 194.959L286.182 152.835L287.695 113.345Z" fill="url(#paint50_linear_8_28289)"/>
<path d="M110.766 151.412L227.318 190.635L236.217 194.034L250.439 195.262L250.831 191.471V191.454L255.281 147.372C255.281 147.372 279.346 143.136 296.914 147.906C312.827 152.213 433.936 197.985 433.936 197.985V196.81C433.936 196.81 320.392 152.871 298.587 145.646C276.783 138.42 255.53 142.015 255.53 142.015L232.301 127.44H111.762L111.211 140.591L110.766 151.412Z" fill="url(#paint51_linear_8_28289)"/>
<path d="M110.267 146.838L179.757 170.757L210.781 127.422H111.762L110.267 146.838Z" fill="#ADC7F6"/>
<path opacity="0.85" d="M206.956 191.472L235.809 197.078L250.832 198.857L255.531 141.998L232.321 127.422L207.17 189.158L206.956 191.472Z" fill="#ADC7F6"/>
<path opacity="0.79" d="M234.402 139.933L229.668 148.974L248.838 155.452L247.325 168.141L224.719 161.093L220.376 173.035L246.114 181.417L244.69 193.963L248.339 195.956L252.771 149.33L234.402 139.933Z" fill="url(#paint52_linear_8_28289)"/>
<path d="M418.289 113.15L295.561 54.5995L173.793 59.6537L163.737 57.4291L296.682 51.1648L418.289 113.15Z" fill="url(#paint53_linear_8_28289)"/>
<path d="M295.562 54.5995L173.795 59.6537L163.738 57.4291L296.684 51.1648L295.562 54.5995Z" fill="#ADC7F6"/>
<g style="mix-blend-mode:multiply" opacity="0.39">
<path d="M250.458 195.262L255.228 202.594L258.628 207.827L269.539 207.951L434.274 209.82V172.946L434.506 173.035C434.452 170.739 434.381 168.888 434.274 167.642C434.203 166.877 434.132 166.343 434.043 166.094C432.833 162.962 426.371 160.47 426.371 160.47V145.877L426.514 145.931L427.404 141.09L417.205 136.837L418.184 116.05L421.512 114.395L422.135 110.836L297.698 40.8606L296.683 51.1647L294.992 54.6172L294.352 55.9342L292.839 85.2093L292.429 93.1821L291.682 107.811L291.379 113.808L293.746 186.578L281.233 189.514L276.107 156.858L255.548 141.998L250.458 195.262Z" fill="#5EA1AB"/>
</g>
<g style="mix-blend-mode:multiply" opacity="0.62">
<path d="M426.496 145.966L293.391 93.1638L388.209 134.505L388.619 143.617L348.445 128.205L426.354 160.505L426.496 145.966Z" fill="#5EA1AB"/>
</g>
<g style="mix-blend-mode:multiply" opacity="0.62">
<path d="M295.562 54.5995L388.013 101.831V124.433L414.428 135.68H414.445L417.187 136.855L418.148 116.051L421.494 114.395L414.445 110.836L414.41 110.801L296.683 51.1648L295.562 54.5995Z" fill="#5EA1AB"/>
</g>
<g style="mix-blend-mode:multiply" opacity="0.62">
<path d="M434.559 213.682L434.256 167.66L371.103 143.617L422.882 165.845L423.914 194.479L318.558 155.221L423.914 197.345L424.235 209.731L434.559 213.682Z" fill="#5EA1AB"/>
</g>
<path opacity="0.62" d="M279.008 112.544L140.242 114.271L137.999 116.495C137.999 116.495 278.314 113.292 287.018 115.588C295.722 117.883 295.722 117.883 295.722 117.883L361.26 139.435C361.26 139.417 303.215 112.295 279.008 112.544Z" fill="#5EA1AB"/>
<g style="mix-blend-mode:screen" opacity="0.63">
<path d="M285.682 59.6537L283.457 69.1392L188.229 127.138L139.155 126.657L175.929 62.8748L285.682 59.6537Z" fill="url(#paint54_linear_8_28289)"/>
</g>
<g style="mix-blend-mode:multiply" opacity="0.44">
<path d="M390.629 204.338L386.197 152.462L326.052 129.594V184.834L390.629 204.338Z" fill="#5EA1AB"/>
</g>
<path d="M161.334 169.12L161.53 168.639L162.972 164.866L170.003 112.794L170.163 111.548L170.412 109.715L165.98 111.513L165.606 111.655L165.517 112.901L161.37 168.746L161.334 169.12Z" fill="url(#paint55_linear_8_28289)"/>
<path d="M136.255 163.923L136.932 160.666L139.156 126.657L139.904 115.41L140.082 112.509L138.16 112.313L137.999 116.478L137.537 129.184L136.255 163.923Z" fill="url(#paint56_linear_8_28289)"/>
<path d="M126.021 166.824L126.679 163.567L128.922 129.451L129.456 121.389L129.848 115.428L127.908 115.214L127.676 121.55L127.445 128.099L126.021 166.824Z" fill="url(#paint57_linear_8_28289)"/>
<path d="M36.3458 140.966C36.3458 140.966 76.8044 162.98 101.475 144.134C101.973 143.742 102.489 143.333 102.97 142.923L113.525 147.372C113.525 147.372 117.334 132.174 122.834 128.063C124.454 126.853 126.02 127.12 127.444 128.117C127.96 128.473 128.459 128.935 128.939 129.451C131.538 132.317 133.318 136.962 133.318 136.962C133.318 136.962 134.76 133.705 137.554 129.185C138.053 128.384 138.587 127.529 139.174 126.657C140.99 123.952 143.233 120.945 145.867 118.026C148.964 114.591 156.867 113.239 165.535 112.901C167.013 112.847 196.863 105.409 197.61 105.515L198.002 104.519L197.61 100.07C197.61 100.07 188.39 100.337 174.489 100.87H174.471C132.855 102.437 49.3395 106.227 45.3168 111.655C40.5643 118.062 38.1435 123.899 36.9688 128.668C35.082 136.161 36.3458 140.966 36.3458 140.966Z" fill="url(#paint58_linear_8_28289)"/>
<path d="M99.9271 142.14L101.476 144.134C101.974 143.742 102.49 143.351 102.971 142.924L113.526 147.373C113.526 147.373 117.335 132.174 122.835 128.063C124.455 126.853 126.021 127.12 127.445 128.117L126.021 166.842L126.769 146.643L128.941 129.469C131.539 132.335 133.319 136.98 133.319 136.98C133.319 136.98 134.761 133.723 137.556 129.202L136.274 163.941L136.719 151.786L139.175 126.693C140.991 123.988 143.234 120.981 145.868 118.044C148.965 114.609 156.868 113.257 165.537 112.919L161.389 168.764C161.443 168.728 161.496 168.693 161.549 168.657L162.973 157.232L170.075 112.011C173.422 111.993 197.629 105.515 197.629 105.515L197.914 101.867C191.809 101.138 145.939 112.474 139.941 115.41C139.246 115.748 138.624 116.104 138.036 116.496C137.787 116.656 137.556 116.834 137.324 117.012C133.782 119.753 131.326 120.998 129.475 121.408C128.816 121.55 128.229 121.586 127.695 121.55C124.117 121.301 123.316 117.492 118.474 120.197C110.963 124.397 99.9271 142.14 99.9271 142.14Z" fill="#ADC7F6"/>
<path d="M36.9313 128.651L51.1176 131.142C51.1176 131.142 56.3685 116.353 60.8006 112.545C65.2505 108.719 174.451 100.871 174.451 100.871H174.433C132.818 102.437 49.302 106.227 45.2793 111.655C40.509 118.044 38.0883 123.899 36.9313 128.651Z" fill="url(#paint59_linear_8_28289)"/>
<path d="M36.9313 128.651L51.1176 131.142C51.1176 131.142 56.3685 116.353 60.8006 112.545C65.2505 108.719 174.451 100.871 174.451 100.871H174.433C132.818 102.437 49.302 106.227 45.2793 111.655C40.509 118.044 38.0883 123.899 36.9313 128.651Z" fill="url(#paint60_linear_8_28289)"/>
<path d="M13.7223 173.764C16.4813 182.556 18.8131 188.82 18.8131 188.82C18.8131 188.82 51.3151 253.19 58.168 293.57H412.22C432.814 269.758 448.354 214.66 448.354 214.66L311.688 178.142L299.976 180.153C299.976 180.153 293.515 199.124 277.78 202.755C273.259 203.805 251.454 196.312 222.014 185.385C148.893 158.246 28.7096 109.964 9.71742 118.791C-0.232568 123.418 7.72386 154.598 13.7223 173.764Z" fill="url(#paint61_linear_8_28289)"/>
<path d="M13.7225 173.764C13.7225 173.764 8.06227 144.916 13.7759 152.213C19.5074 159.51 36.1679 178.836 49.8914 210.674C63.6149 242.494 69.7202 286.184 69.7202 286.184L407.165 293.552C422.704 286.896 448.336 214.643 448.336 214.643L312.827 181.186L300.332 193.714C300.332 193.714 293.497 199.107 277.744 202.737C273.223 203.787 251.419 196.295 221.978 185.368C148.857 158.228 29.5998 113.274 10.6076 122.101C0.693224 126.746 7.72408 154.598 13.7225 173.764Z" fill="#ADC7F6"/>
<path d="M277.799 202.737C299.995 204.143 311.707 178.106 311.707 178.106L299.995 180.117C299.995 180.135 293.534 199.106 277.799 202.737Z" fill="white"/>
<path opacity="0.5" d="M84.1212 175.188C66.0012 173.23 77.9981 221.174 94.3382 220.818C110.696 220.444 102.241 177.146 84.1212 175.188Z" fill="#8FB3F3"/>
<path opacity="0.63" d="M94.6411 198.323C88.3045 197.113 91.1524 214.393 96.9373 214.732C102.722 215.07 100.996 199.533 94.6411 198.323Z" fill="#6392E2"/>
<path opacity="0.63" d="M92.9146 220.711C74.403 210.531 80.8821 181.63 94.2318 183.054C94.7836 183.107 95.3354 183.214 95.8516 183.338C92.7366 178.854 88.7495 175.668 84.1216 175.17C66.5534 173.301 77.3221 218.379 92.9146 220.711Z" fill="#6392E2"/>
<path opacity="0.3" d="M414.303 267.711C414.303 267.711 337.426 253.901 273.971 238.846C197.877 220.8 105.693 197.967 105.693 197.967C108.238 215.639 106.565 228.221 97.7543 232.866C97.7543 232.866 207.222 241.141 272.458 250.164C331.855 258.386 407.094 273.513 407.094 273.513L414.303 267.711Z" fill="url(#paint62_linear_8_28289)"/>
<path opacity="0.5" d="M404.192 253.99L407.289 254.506L416.082 255.948C417.453 256.179 418.805 255.45 419.624 254.062L422.063 249.933C422.597 249.043 422.223 247.744 421.369 247.477L409.87 243.74C408.588 243.33 407.253 243.775 406.31 244.861C406.079 245.128 405.883 245.43 405.705 245.768L403.053 250.912C402.394 252.14 403.017 253.795 404.192 253.99Z" fill="#729FEF"/>
<path opacity="0.63" d="M404.191 253.991L407.289 254.507C407.965 254.186 408.552 253.635 408.997 252.887L411.436 248.741C411.97 247.851 411.596 246.552 410.742 246.285L406.31 244.843C406.078 245.11 405.882 245.413 405.704 245.751L403.052 250.894C402.394 252.14 403.017 253.795 404.191 253.991Z" fill="#4A7ED8"/>
<path opacity="0.5" d="M381.07 250.218L386.765 251.054L396.751 252.514C397.552 252.638 398.353 252.229 398.798 251.464L402.376 245.235C403.123 243.936 402.518 242.192 401.148 241.8L385.715 237.173C384.754 236.888 383.722 237.387 383.295 238.365L383.17 238.632L379.45 246.926C378.827 248.331 379.646 250.004 381.07 250.218Z" fill="#729FEF"/>
<path opacity="0.63" d="M381.069 250.218L386.765 251.054C387.05 250.876 387.299 250.609 387.477 250.307L391.055 244.078C391.803 242.779 391.197 241.035 389.845 240.643L383.187 238.65L379.467 246.943C378.827 248.331 379.645 250.004 381.069 250.218Z" fill="#4A7ED8"/>
<path opacity="0.5" d="M353.908 246.837L361.206 247.798L371.583 249.168C373.078 249.364 374.538 248.563 375.178 247.192L378.525 239.896C379.415 237.956 378.329 235.696 376.264 235.162L359.034 230.66C357.486 230.25 355.884 230.962 355.136 232.315C355.065 232.439 355.011 232.564 354.958 232.706L351.167 242.192C350.33 244.256 351.683 246.552 353.908 246.837Z" fill="#729FEF"/>
<path opacity="0.63" d="M353.909 246.836L361.206 247.797C361.651 247.459 362.007 247.014 362.257 246.498L365.603 239.202C366.493 237.262 365.407 235.002 363.342 234.468L355.119 232.314C355.048 232.439 354.994 232.563 354.941 232.706L351.15 242.191C350.331 244.256 351.684 246.551 353.909 246.836Z" fill="#4A7ED8"/>
<path opacity="0.5" d="M317.348 239.7L332.958 241.836L341.662 243.028C343.317 243.259 344.919 242.352 345.578 240.821L349.245 232.243C350.152 230.125 348.889 227.705 346.628 227.225L321.602 221.815C320 221.476 318.416 222.206 317.633 223.541C317.472 223.808 317.348 224.11 317.259 224.431L314.322 235.073C313.699 237.226 315.141 239.397 317.348 239.7Z" fill="#729FEF"/>
<path opacity="0.63" d="M317.346 239.7L332.957 241.835C333.224 241.551 333.437 241.195 333.597 240.821L337.264 232.243C338.172 230.125 336.908 227.705 334.648 227.225L317.613 223.541C317.453 223.808 317.329 224.11 317.24 224.43L314.303 235.073C313.697 237.226 315.139 239.397 317.346 239.7Z" fill="#4A7ED8"/>
<path d="M343.941 274.297C343.691 275.525 343.976 276.646 344.617 276.77C345.24 276.895 345.952 276.005 346.219 274.777C346.468 273.549 346.183 272.428 345.543 272.303C344.92 272.161 344.208 273.069 343.941 274.297Z" fill="#789AD4"/>
<path d="M339.206 273.763C338.939 275.044 339.26 276.183 339.901 276.325C340.541 276.468 341.289 275.525 341.556 274.261C341.823 272.98 341.503 271.841 340.862 271.698C340.203 271.556 339.473 272.499 339.206 273.763Z" fill="#789AD4"/>
<path d="M334.4 273.336C334.116 274.724 334.454 275.97 335.148 276.112C335.86 276.254 336.661 275.258 336.946 273.87C337.231 272.481 336.892 271.236 336.198 271.093C335.504 270.933 334.703 271.948 334.4 273.336Z" fill="#789AD4"/>
<path d="M329.736 272.677C329.452 274.065 329.79 275.311 330.484 275.453C331.196 275.595 331.997 274.599 332.282 273.211C332.567 271.823 332.228 270.577 331.534 270.434C330.822 270.292 330.021 271.306 329.736 272.677Z" fill="#789AD4"/>
<path d="M324.326 272.036C324.023 273.478 324.379 274.759 325.109 274.902C325.839 275.062 326.676 274.012 326.96 272.57C327.263 271.129 326.907 269.847 326.177 269.705C325.465 269.563 324.629 270.613 324.326 272.036Z" fill="#789AD4"/>
<path d="M318.47 271.538C318.168 272.98 318.524 274.261 319.253 274.421C319.983 274.581 320.82 273.531 321.122 272.09C321.425 270.648 321.069 269.367 320.339 269.207C319.609 269.047 318.773 270.097 318.47 271.538Z" fill="#789AD4"/>
<path d="M312.701 270.897C312.381 272.463 312.755 273.869 313.556 274.029C314.357 274.189 315.264 273.05 315.585 271.484C315.905 269.918 315.531 268.512 314.73 268.352C313.929 268.192 313.022 269.331 312.701 270.897Z" fill="#789AD4"/>
<path d="M305.581 270.15C305.243 271.823 305.634 273.318 306.489 273.496C307.343 273.674 308.304 272.463 308.643 270.791C308.981 269.118 308.589 267.623 307.735 267.445C306.88 267.285 305.919 268.477 305.581 270.15Z" fill="#789AD4"/>
<path d="M298.782 269.385C298.444 271.057 298.836 272.552 299.69 272.73C300.544 272.908 301.506 271.698 301.844 270.025C302.182 268.352 301.79 266.857 300.936 266.679C300.099 266.502 299.138 267.712 298.782 269.385Z" fill="#789AD4"/>
<path d="M292.769 268.531C292.43 270.203 292.822 271.698 293.676 271.876C294.531 272.054 295.492 270.844 295.83 269.171C296.168 267.498 295.777 266.003 294.922 265.825C294.086 265.648 293.125 266.858 292.769 268.531Z" fill="#789AD4"/>
<path d="M286.644 267.623C286.305 269.296 286.697 270.791 287.551 270.969C288.406 271.146 289.367 269.936 289.705 268.263C290.043 266.591 289.652 265.096 288.797 264.918C287.961 264.74 287 265.95 286.644 267.623Z" fill="#789AD4"/>
<path d="M255.903 225.374C255.405 226.958 255.636 228.452 256.437 228.702C257.238 228.951 258.306 227.883 258.804 226.299C259.303 224.715 259.071 223.22 258.27 222.971C257.469 222.722 256.419 223.79 255.903 225.374Z" fill="#789AD5"/>
<path d="M249.762 224.039C249.246 225.676 249.495 227.225 250.314 227.492C251.15 227.759 252.236 226.637 252.77 225C253.286 223.363 253.037 221.815 252.218 221.548C251.382 221.281 250.296 222.402 249.762 224.039Z" fill="#789AD5"/>
<path d="M243.549 222.793C242.979 224.573 243.246 226.246 244.154 226.53C245.062 226.815 246.237 225.605 246.806 223.843C247.376 222.063 247.109 220.39 246.201 220.106C245.311 219.821 244.119 221.031 243.549 222.793Z" fill="#789AD5"/>
<path d="M237.516 221.316C236.946 223.096 237.213 224.768 238.121 225.053C239.029 225.338 240.221 224.128 240.773 222.366C241.343 220.586 241.076 218.913 240.168 218.629C239.278 218.326 238.085 219.536 237.516 221.316Z" fill="#789AD5"/>
<path d="M230.521 219.733C229.934 221.566 230.218 223.31 231.144 223.594C232.069 223.897 233.315 222.651 233.903 220.8C234.49 218.967 234.205 217.223 233.28 216.939C232.336 216.654 231.108 217.9 230.521 219.733Z" fill="#789AD5"/>
<path d="M222.921 218.273C222.334 220.124 222.619 221.85 223.544 222.153C224.488 222.455 225.716 221.192 226.303 219.359C226.891 217.508 226.606 215.782 225.68 215.479C224.755 215.177 223.526 216.422 222.921 218.273Z" fill="#789AD5"/>
<path d="M215.248 216.315C214.643 218.22 214.928 220.017 215.889 220.32C216.85 220.622 218.132 219.341 218.737 217.437C219.342 215.532 219.057 213.735 218.096 213.432C217.135 213.112 215.854 214.411 215.248 216.315Z" fill="#789AD5"/>
<path d="M206.331 214.589C205.672 216.636 205.992 218.575 207.025 218.914C208.075 219.252 209.445 217.846 210.104 215.799C210.763 213.753 210.442 211.813 209.41 211.475C208.36 211.154 206.989 212.542 206.331 214.589Z" fill="#789AD5"/>
<path d="M198.107 212.364C197.431 214.5 197.751 216.511 198.837 216.867C199.923 217.205 201.346 215.764 202.041 213.628C202.717 211.492 202.397 209.481 201.311 209.125C200.207 208.77 198.783 210.229 198.107 212.364Z" fill="#789AD5"/>
<path d="M189.689 210.549C189.013 212.685 189.333 214.696 190.419 215.052C191.505 215.39 192.929 213.948 193.623 211.813C194.299 209.677 193.979 207.666 192.893 207.31C191.807 206.972 190.365 208.414 189.689 210.549Z" fill="#789AD5"/>
<path d="M181.787 208.787C181.11 210.923 181.431 212.934 182.516 213.29C183.602 213.628 185.026 212.186 185.72 210.051C186.397 207.915 186.076 205.904 184.991 205.548C183.905 205.192 182.463 206.651 181.787 208.787Z" fill="#789AD5"/>
<path d="M173.935 206.634C173.205 208.93 173.561 211.083 174.718 211.457C175.875 211.831 177.406 210.282 178.153 207.987C178.901 205.691 178.545 203.538 177.37 203.182C176.195 202.808 174.665 204.356 173.935 206.634Z" fill="#789AD5"/>
<path d="M165.623 204.552C164.893 206.848 165.249 209.001 166.406 209.375C167.563 209.748 169.094 208.2 169.841 205.904C170.571 203.609 170.215 201.455 169.058 201.082C167.901 200.726 166.353 202.274 165.623 204.552Z" fill="#789AD5"/>
<path d="M157.168 202.399C156.438 204.694 156.794 206.848 157.951 207.221C159.108 207.595 160.639 206.047 161.386 203.751C162.116 201.455 161.76 199.302 160.603 198.928C159.428 198.554 157.897 200.103 157.168 202.399Z" fill="#789AD5"/>
<mask id="mask0_8_28289" style="mask-type:alpha" maskUnits="userSpaceOnUse" x="-8" y="256" width="517" height="172">
<rect x="-7.25781" y="256.737" width="515.942" height="170.786" fill="url(#paint63_linear_8_28289)"/>
</mask>
<g mask="url(#mask0_8_28289)">
<g opacity="0.5">
<g style="mix-blend-mode:overlay">
<path d="M434.254 372.212C434.183 372.693 434.112 373.031 434.023 373.173C432.812 375.131 426.351 376.679 426.351 376.679V386.823L417.06 389.938L417.166 391.45L417.451 395.152H130.005L117.634 382.57L248.479 351.96L255.208 350.394L269.519 347.048L287.87 342.759L294.367 342.564L434.023 338.453C434.023 338.453 434.806 359.488 434.486 368.849C434.432 370.273 434.361 371.429 434.254 372.212Z" fill="url(#paint64_linear_8_28289)"/>
<path opacity="0.79" d="M417.187 391.451L417.454 395.152H353.642L426.354 376.68V386.824L417.08 389.956L417.187 391.451Z" fill="url(#paint65_linear_8_28289)"/>
<path d="M407.22 393.319L407.416 385.88L407.22 373.725L407.078 385.88L407.22 393.319Z" fill="url(#paint66_linear_8_28289)"/>
<path d="M412.185 391.504L412.381 384.065L412.185 371.91L412.043 384.065L412.185 391.504Z" fill="url(#paint67_linear_8_28289)"/>
<path d="M417.738 390.489L417.951 383.05L417.738 370.895L417.613 383.032L417.738 390.489Z" fill="url(#paint68_linear_8_28289)"/>
<path d="M424.041 387.215L424.236 380.844L424.041 370.397L423.916 380.826L424.041 387.215Z" fill="url(#paint69_linear_8_28289)"/>
<path d="M402.04 395.152L401.506 387.375L402.004 375.879L402.449 387.428L402.058 395.152H402.04Z" fill="url(#paint70_linear_8_28289)"/>
<path d="M339.313 395.152H130.007L117.636 382.57L248.481 351.96L294.369 342.546L434.025 338.453C434.025 338.453 435.057 366.393 434.256 372.212L339.313 395.152Z" fill="url(#paint71_linear_8_28289)"/>
<path d="M374.45 395.152L374.504 386.645L374.682 395.152H374.45Z" fill="url(#paint72_linear_8_28289)"/>
<path d="M403.017 395.152H388.6L426.353 385.791L426.495 385.755L427.367 388.799L417.186 391.45L403.017 395.152Z" fill="url(#paint73_linear_8_28289)"/>
<path d="M271.943 395.152L270.324 385.969L266.71 352.245L272.549 385.969L273.189 395.152H271.943Z" fill="url(#paint74_linear_8_28289)"/>
<path d="M254.447 395.152L252.774 385.969L250.833 357.335L255.194 385.969L255.746 395.152H254.447Z" fill="url(#paint75_linear_8_28289)"/>
<path d="M237.093 395.152L235.366 386.592L233.195 358.847L236.826 385.969L237.947 395.152H237.093Z" fill="url(#paint76_linear_8_28289)"/>
<path d="M221.305 395.152L219.062 385.97L216.837 364.578L221.091 385.97L222.391 395.152H221.305Z" fill="url(#paint77_linear_8_28289)"/>
<path d="M204.537 395.152L202.722 387.375L201.512 369.276L204.537 386.877L205.605 395.152H204.537Z" fill="url(#paint78_linear_8_28289)"/>
<path d="M190.261 395.152L187.182 385.239L179.136 351.925L189.389 385.097L191.418 395.152H190.261Z" fill="url(#paint79_linear_8_28289)"/>
<path d="M172.462 395.152L169.703 386.468L164.025 358.1L172.106 386.29L173.814 395.152H172.462Z" fill="url(#paint80_linear_8_28289)"/>
<path d="M154.769 395.152L152.455 388.283L146.652 360.823L153.825 387.571L155.766 395.152H154.769Z" fill="url(#paint81_linear_8_28289)"/>
<path d="M138.569 395.152L136.148 388.799L131.129 367.657L138.159 388.657L139.939 395.152H138.569Z" fill="url(#paint82_linear_8_28289)"/>
<path d="M327.994 395.152H327.816L328.012 379.064L329.275 345.34L328.848 379.1L327.994 395.152Z" fill="url(#paint83_linear_8_28289)"/>
<path d="M339.243 394.85L340.329 374.224L340.756 340.446L339.492 374.188L339.243 394.85Z" fill="url(#paint84_linear_8_28289)"/>
<path d="M349.834 392.909L350.92 372.283L351.365 338.523L350.084 372.248L349.834 392.909Z" fill="url(#paint85_linear_8_28289)"/>
<path d="M374.575 389.084L375.661 371.359L376.088 342.35L374.824 371.323L374.575 389.084Z" fill="url(#paint86_linear_8_28289)"/>
<path d="M414.625 378.815L415.07 361.072L415.088 332.099L414.625 361.072V378.815Z" fill="url(#paint87_linear_8_28289)"/>
<path d="M420.641 376.163L421.086 358.438L421.104 329.466L420.641 358.42V376.163Z" fill="url(#paint88_linear_8_28289)"/>
<path d="M426.498 374.793L426.943 357.05L426.961 328.077L426.498 357.05V374.793Z" fill="url(#paint89_linear_8_28289)"/>
<path d="M431.463 374.437L431.908 356.694L431.926 327.721L431.481 356.694L431.463 374.437Z" fill="url(#paint90_linear_8_28289)"/>
<path d="M316.656 395.152L316.158 380.773L318.311 348.881L318.561 380.933L317.51 395.152H316.656Z" fill="url(#paint91_linear_8_28289)"/>
<path d="M304.497 395.152H303.838L303.215 381.983L305.066 349.291L304.764 381.342L304.497 395.152Z" fill="url(#paint92_linear_8_28289)"/>
<path d="M287.019 395.152L286.182 381.466L287.535 355.146L288.193 381.609L287.909 395.152H287.019Z" fill="url(#paint93_linear_8_28289)"/>
<path d="M255.53 388.229L237.89 395.152H111.62L111.228 389.119L110.783 382.339L227.335 357.833L236.235 355.697L250.457 354.932L250.848 357.299V357.317L255.298 384.866C255.298 384.866 279.363 387.5 296.932 384.528C312.845 381.84 433.953 353.242 433.953 353.242V353.971C433.953 353.971 320.409 381.413 298.605 385.934C276.8 390.489 255.53 388.229 255.53 388.229Z" fill="url(#paint94_linear_8_28289)"/>
<path d="M111.497 395.152L110.269 385.221L179.758 370.272L208.273 395.152H111.497Z" fill="#ADC7F6"/>
<path opacity="0.85" d="M230.875 395.152L207.166 358.776L206.952 357.334L235.805 353.829L250.828 352.707L255.527 388.229L237.888 395.152H230.875Z" fill="#ADC7F6"/>
<path opacity="0.79" d="M234.402 389.528L229.668 383.869L248.838 379.829L247.325 371.91L224.719 376.305L220.376 368.849L246.114 363.617L244.69 355.768L248.339 354.523L252.771 383.655L234.402 389.528Z" fill="url(#paint95_linear_8_28289)"/>
<path opacity="0.89" d="M434.025 373.174C432.815 375.131 426.353 376.679 426.353 376.679V385.791L426.496 385.756L427.386 388.781L417.187 391.45L417.471 395.152H291.948L293.764 360.396L281.251 358.563L276.125 378.975L255.566 388.265L250.475 354.986L255.246 350.412L258.645 347.137L269.557 347.066L434.292 345.892V368.938L434.523 368.885C434.47 370.308 434.399 371.483 434.292 372.248C434.203 372.693 434.114 373.013 434.025 373.174Z" fill="#5EA1AB"/>
<path opacity="0.62" d="M380.003 395.152L388.209 392.91L388.619 387.215L355.565 395.152H355.031L426.354 376.68L426.496 385.756L388.601 395.152H380.003Z" fill="#5EA1AB"/>
<path opacity="0.62" d="M434.559 343.454L434.256 372.213L371.103 387.215L422.882 373.334L423.914 355.449L318.558 379.99L423.914 353.669L424.235 345.927L434.559 343.454Z" fill="#5EA1AB"/>
<path opacity="0.44" d="M329.576 395.152H326.052V361.481L390.629 349.291L386.197 381.698L329.576 395.152Z" fill="#5EA1AB"/>
<path d="M164.183 395.152L161.37 371.536L161.335 371.287L161.531 371.59L162.972 373.956L167.547 395.152H164.183Z" fill="url(#paint96_linear_8_28289)"/>
<path d="M137.465 395.152L136.254 374.544L136.931 376.573L138.889 395.152H137.465Z" fill="url(#paint97_linear_8_28289)"/>
<path d="M127.337 395.152L126.02 372.728L126.678 374.757L128.832 395.152H127.337Z" fill="url(#paint98_linear_8_28289)"/>
<path d="M36.4535 395.152C35.35 391.29 36.3467 388.888 36.3467 388.888C36.3467 388.888 76.8053 375.131 101.476 386.912C101.974 387.161 102.49 387.411 102.971 387.678L113.526 384.901C113.526 384.901 116.178 391.486 120.236 395.17H36.4535V395.152Z" fill="url(#paint99_linear_8_28289)"/>
<path d="M127.338 395.152L126.751 385.346L128.744 395.152H127.338Z" fill="#ADC7F6"/>
<path d="M126.748 385.346L126.018 372.728L126.748 385.346Z" fill="#ADC7F6"/>
<path d="M107.759 395.152C103.398 391.629 99.927 388.141 99.927 388.141L101.476 386.895C101.974 387.144 102.49 387.393 102.971 387.66L113.526 384.884C113.526 384.884 116.178 391.468 120.236 395.152H107.759V395.152Z" fill="#ADC7F6"/>
<path d="M136.699 382.143L136.254 374.544L136.699 382.143Z" fill="#ADC7F6"/>
<path d="M137.465 395.152L136.699 382.143L138.746 395.152H137.465Z" fill="#ADC7F6"/>
<path d="M164.183 395.152L161.37 371.536C161.424 371.554 161.477 371.572 161.531 371.607L162.954 378.744L167.084 395.17H164.183V395.152Z" fill="#ADC7F6"/>
<path d="M299.994 364.418C299.994 364.418 293.532 352.565 277.798 350.305C273.276 349.647 251.472 354.327 222.031 361.161C178.493 371.252 118.277 386.023 72.6748 395.17H5.01838C4.89378 387.66 9.75305 376.377 13.7224 368.404C16.4813 362.905 18.8131 359.008 18.8131 359.008C18.8131 359.008 51.3152 318.788 58.168 293.57H412.22C432.814 308.448 448.354 342.866 448.354 342.866L311.688 365.681L299.994 364.418Z" fill="url(#paint100_linear_8_28289)"/>
<path d="M300.366 355.929C300.366 355.929 293.531 352.565 277.778 350.287C273.257 349.629 251.453 354.309 222.012 361.143C176.125 371.785 112.082 386.806 66.034 395.152H5.88907C4.6075 388.336 9.41342 376.982 13.7031 368.386C13.7031 368.386 8.04285 386.414 13.7565 381.84C19.488 377.284 36.1484 365.201 49.8719 345.322C63.5954 325.444 69.7007 298.144 69.7007 298.144L407.146 293.535C422.685 297.699 448.316 342.831 448.316 342.831L312.808 363.724L300.366 355.929Z" fill="#ADC7F6"/>
<path d="M277.799 350.287C299.995 349.397 311.707 365.663 311.707 365.663L299.995 364.4C299.995 364.418 293.534 352.565 277.799 350.287Z" fill="white"/>
<path opacity="0.5" d="M84.1212 367.496C66.0012 368.724 77.9981 338.773 94.3382 339.004C110.696 339.217 102.241 366.286 84.1212 367.496Z" fill="#ADC7F6"/>
<path opacity="0.5" d="M94.6411 353.045C88.3045 353.793 91.1524 343.008 96.9373 342.794C102.722 342.581 100.996 352.298 94.6411 353.045Z" fill="#ADC7F6"/>
<path opacity="0.5" d="M92.9146 339.057C74.403 345.41 80.8821 363.473 94.2318 362.584C94.7836 362.548 95.3354 362.495 95.8516 362.406C92.7366 365.2 88.7495 367.193 84.1216 367.513C66.5534 368.688 77.3221 340.516 92.9146 339.057Z" fill="#ADC7F6"/>
<path opacity="0.22" d="M414.305 309.694C414.305 309.694 337.428 318.325 273.972 327.722C197.879 338.987 105.695 353.259 105.695 353.259C108.24 342.208 106.567 334.36 97.7563 331.459C97.7563 331.459 207.224 326.298 272.46 320.656C331.857 315.513 407.096 306.063 407.096 306.063L414.305 309.694Z" fill="#ADC7F6"/>
<path opacity="0.5" d="M404.192 318.272L407.289 317.951L416.082 317.044C417.453 316.901 418.805 317.364 419.624 318.218L422.063 320.799C422.597 321.368 422.223 322.169 421.369 322.329L409.87 324.661C408.588 324.927 407.253 324.643 406.31 323.949C406.079 323.789 405.883 323.593 405.705 323.379L403.053 320.176C402.394 319.428 403.017 318.396 404.192 318.272Z" fill="#ADC7F6"/>
<path opacity="0.63" d="M404.191 318.272L407.289 317.952C407.965 318.147 408.552 318.503 408.997 318.966L411.436 321.546C411.97 322.116 411.596 322.917 410.742 323.077L406.31 323.985C406.078 323.824 405.882 323.629 405.704 323.415L403.052 320.212C402.394 319.429 403.017 318.396 404.191 318.272Z" fill="#ADC7F6"/>
<path opacity="0.5" d="M381.07 320.638L386.765 320.122L396.751 319.215C397.552 319.144 398.353 319.393 398.798 319.873L402.376 323.771C403.123 324.589 402.518 325.675 401.148 325.924L385.715 328.807C384.754 328.985 383.722 328.682 383.295 328.06L383.17 327.899L379.45 322.721C378.827 321.813 379.646 320.763 381.07 320.638Z" fill="#ADC7F6"/>
<path opacity="0.63" d="M381.069 320.638L386.765 320.122C387.05 320.229 387.299 320.389 387.477 320.585L391.055 324.482C391.803 325.301 391.197 326.387 389.845 326.636L383.187 327.881L379.467 322.703C378.827 321.813 379.645 320.763 381.069 320.638Z" fill="#ADC7F6"/>
<path opacity="0.5" d="M353.908 322.739L361.206 322.134L371.583 321.279C373.078 321.155 374.538 321.653 375.178 322.507L378.525 327.063C379.415 328.273 378.329 329.679 376.264 330.017L359.034 332.829C357.486 333.078 355.884 332.651 355.136 331.797C355.065 331.726 355.011 331.637 354.958 331.548L351.167 325.622C350.33 324.358 351.683 322.934 353.908 322.739Z" fill="#ADC7F6"/>
<path opacity="0.63" d="M353.907 322.739L361.204 322.134C361.649 322.347 362.005 322.614 362.255 322.952L365.601 327.508C366.491 328.718 365.405 330.124 363.34 330.462L355.117 331.815C355.046 331.744 354.992 331.655 354.939 331.566L351.148 325.64C350.329 324.358 351.682 322.935 353.907 322.739Z" fill="#ADC7F6"/>
<path opacity="0.5" d="M317.348 327.205L332.958 325.871L341.662 325.123C343.317 324.981 344.919 325.55 345.578 326.493L349.245 331.85C350.152 333.167 348.889 334.68 346.628 334.982L321.602 338.364C320 338.577 318.416 338.115 317.633 337.278C317.472 337.1 317.348 336.922 317.259 336.726L314.322 330.071C313.699 328.736 315.141 327.383 317.348 327.205Z" fill="#ADC7F6"/>
<path opacity="0.63" d="M317.346 327.205L332.957 325.871C333.224 326.049 333.437 326.262 333.597 326.494L337.264 331.85C338.172 333.167 336.908 334.68 334.648 334.982L317.613 337.278C317.453 337.1 317.329 336.922 317.24 336.727L314.303 330.071C313.697 328.736 315.139 327.383 317.346 327.205Z" fill="#ADC7F6"/>
<path d="M343.941 305.583C343.691 304.817 343.976 304.123 344.617 304.034C345.24 303.945 345.952 304.515 346.219 305.28C346.468 306.045 346.183 306.74 345.543 306.828C344.92 306.917 344.208 306.366 343.941 305.583Z" fill="#ADC7F6"/>
<path d="M339.206 305.921C338.939 305.12 339.26 304.408 339.901 304.319C340.541 304.23 341.289 304.818 341.556 305.618C341.823 306.419 341.503 307.131 340.862 307.22C340.203 307.291 339.473 306.722 339.206 305.921Z" fill="#ADC7F6"/>
<path d="M334.4 306.188C334.116 305.316 334.454 304.55 335.148 304.461C335.842 304.372 336.661 304.995 336.946 305.867C337.231 306.739 336.892 307.505 336.198 307.594C335.504 307.683 334.703 307.06 334.4 306.188Z" fill="#ADC7F6"/>
<path d="M329.736 306.597C329.452 305.725 329.79 304.96 330.484 304.871C331.196 304.782 331.997 305.405 332.282 306.277C332.567 307.149 332.228 307.914 331.534 308.003C330.822 308.092 330.021 307.469 329.736 306.597Z" fill="#ADC7F6"/>
<path d="M324.326 306.989C324.023 306.099 324.379 305.298 325.109 305.191C325.839 305.102 326.676 305.743 326.96 306.651C327.263 307.54 326.907 308.341 326.177 308.448C325.465 308.537 324.629 307.896 324.326 306.989Z" fill="#ADC7F6"/>
<path d="M318.47 307.309C318.168 306.401 318.524 305.6 319.253 305.511C319.983 305.422 320.82 306.063 321.122 306.971C321.425 307.878 321.069 308.679 320.339 308.768C319.609 308.857 318.773 308.216 318.47 307.309Z" fill="#ADC7F6"/>
<path d="M312.701 307.718C312.381 306.739 312.755 305.867 313.556 305.76C314.357 305.654 315.264 306.366 315.585 307.344C315.905 308.323 315.531 309.195 314.73 309.302C313.929 309.409 313.022 308.697 312.701 307.718Z" fill="#ADC7F6"/>
<path d="M305.581 308.181C305.243 307.131 305.634 306.205 306.489 306.099C307.343 305.992 308.304 306.739 308.643 307.789C308.981 308.839 308.589 309.765 307.735 309.871C306.88 309.978 305.919 309.213 305.581 308.181Z" fill="#ADC7F6"/>
<path d="M298.782 308.662C298.444 307.612 298.836 306.686 299.69 306.579C300.544 306.473 301.506 307.22 301.844 308.27C302.182 309.32 301.79 310.245 300.936 310.352C300.099 310.459 299.138 309.694 298.782 308.662Z" fill="#ADC7F6"/>
<path d="M292.767 309.196C292.428 308.146 292.82 307.22 293.674 307.113C294.529 307.007 295.49 307.754 295.828 308.804C296.166 309.854 295.775 310.779 294.92 310.886C294.084 310.993 293.123 310.228 292.767 309.196Z" fill="#ADC7F6"/>
<path d="M286.644 309.765C286.305 308.715 286.697 307.789 287.551 307.683C288.406 307.576 289.367 308.323 289.705 309.373C290.043 310.423 289.652 311.349 288.797 311.455C287.961 311.562 287 310.797 286.644 309.765Z" fill="#ADC7F6"/>
<path d="M255.907 336.157C255.409 335.161 255.64 334.235 256.441 334.075C257.242 333.915 258.31 334.591 258.808 335.57C259.307 336.567 259.075 337.492 258.274 337.652C257.473 337.812 256.423 337.136 255.907 336.157Z" fill="#ADC7F6"/>
<path d="M249.766 336.993C249.25 335.979 249.499 335 250.317 334.84C251.154 334.68 252.24 335.374 252.774 336.388C253.29 337.403 253.041 338.381 252.222 338.542C251.385 338.702 250.3 338.008 249.766 336.993Z" fill="#ADC7F6"/>
<path d="M243.553 337.759C242.983 336.656 243.25 335.606 244.158 335.428C245.066 335.25 246.241 335.997 246.81 337.118C247.38 338.222 247.113 339.272 246.205 339.45C245.315 339.628 244.123 338.862 243.553 337.759Z" fill="#ADC7F6"/>
<path d="M237.52 338.684C236.95 337.58 237.217 336.53 238.125 336.352C239.033 336.175 240.225 336.922 240.777 338.043C241.347 339.147 241.08 340.196 240.172 340.374C239.282 340.552 238.089 339.787 237.52 338.684Z" fill="#ADC7F6"/>
<path d="M230.525 339.681C229.937 338.524 230.222 337.456 231.148 337.261C232.073 337.083 233.319 337.848 233.907 339.005C234.494 340.161 234.209 341.229 233.284 341.425C232.358 341.621 231.112 340.82 230.525 339.681Z" fill="#ADC7F6"/>
<path d="M222.925 340.589C222.338 339.432 222.623 338.346 223.548 338.168C224.492 337.99 225.72 338.756 226.307 339.912C226.894 341.069 226.61 342.155 225.684 342.333C224.759 342.528 223.53 341.745 222.925 340.589Z" fill="#ADC7F6"/>
<path d="M215.252 341.817C214.647 340.625 214.932 339.503 215.893 339.308C216.854 339.112 218.136 339.931 218.741 341.105C219.346 342.297 219.061 343.419 218.1 343.614C217.139 343.81 215.857 343.009 215.252 341.817Z" fill="#ADC7F6"/>
<path d="M206.334 342.884C205.676 341.603 205.996 340.393 207.029 340.179C208.079 339.966 209.449 340.838 210.108 342.119C210.767 343.4 210.446 344.611 209.414 344.824C208.364 345.038 206.993 344.166 206.334 342.884Z" fill="#ADC7F6"/>
<path d="M198.111 344.273C197.434 342.938 197.755 341.674 198.841 341.461C199.926 341.247 201.35 342.155 202.045 343.489C202.721 344.824 202.401 346.088 201.315 346.301C200.211 346.515 198.787 345.607 198.111 344.273Z" fill="#ADC7F6"/>
<path d="M189.693 345.411C189.016 344.077 189.337 342.813 190.423 342.6C191.508 342.386 192.932 343.294 193.627 344.628C194.321 345.963 193.983 347.227 192.897 347.44C191.811 347.654 190.369 346.746 189.693 345.411Z" fill="#ADC7F6"/>
<path d="M181.791 346.515C181.114 345.18 181.435 343.916 182.52 343.703C183.606 343.489 185.03 344.397 185.724 345.732C186.401 347.066 186.08 348.33 184.995 348.544C183.909 348.757 182.467 347.849 181.791 346.515Z" fill="#ADC7F6"/>
<path d="M173.939 347.849C173.209 346.425 173.565 345.073 174.722 344.842C175.879 344.61 177.41 345.589 178.157 347.013C178.887 348.436 178.549 349.789 177.374 350.02C176.199 350.252 174.668 349.291 173.939 347.849Z" fill="#ADC7F6"/>
<path d="M165.627 349.149C164.897 347.725 165.253 346.373 166.41 346.142C167.567 345.91 169.098 346.889 169.845 348.313C170.575 349.736 170.219 351.089 169.062 351.32C167.905 351.552 166.356 350.591 165.627 349.149Z" fill="#ADC7F6"/>
<path d="M157.172 350.501C156.442 349.078 156.798 347.725 157.955 347.494C159.112 347.262 160.642 348.241 161.39 349.665C162.12 351.089 161.764 352.441 160.607 352.672C159.432 352.904 157.901 351.943 157.172 350.501Z" fill="#ADC7F6"/>
</g>
<g style="mix-blend-mode:overlay">
<path d="M434.452 353.793C434.523 357.442 434.577 361.232 434.559 364.471V364.489C434.559 365.77 434.541 366.981 434.505 368.048C434.505 368.048 434.505 368.048 434.505 368.066C434.505 368.333 434.488 368.6 434.488 368.849C434.488 368.903 434.488 368.956 434.488 369.009C434.488 369.134 434.47 369.258 434.47 369.365C434.47 369.561 434.452 369.775 434.452 369.97C434.452 370.13 434.434 370.255 434.434 370.397C434.434 370.54 434.416 370.682 434.416 370.825C434.399 371.038 434.381 371.216 434.363 371.412C434.363 371.465 434.363 371.536 434.345 371.572C434.327 371.803 434.292 372.017 434.274 372.195V372.213C434.203 372.693 434.132 373.031 434.043 373.174C432.832 375.131 426.371 376.68 426.371 376.68L426.513 385.756L427.403 388.781L417.204 391.451L417.489 395.152H5.05399C4.94719 389.386 7.75953 381.431 10.8923 374.437C11.8178 372.337 12.7968 370.308 13.758 368.404C16.517 362.905 18.8487 359.008 18.8487 359.008C18.8487 359.008 51.3508 318.788 58.2037 293.57H412.22C432.814 308.448 448.354 342.866 448.354 342.866L434.541 345.18L434.452 353.793Z" fill="url(#paint101_linear_8_28289)"/>
</g>
</g>
</g>
<path fill-rule="evenodd" clip-rule="evenodd" d="M374.021 295.367C371.708 298.09 308.323 300.386 291.823 299.567C275.305 298.749 268.612 295.616 268.612 295.616C268.612 295.616 244.903 299.158 237.16 296.862C229.417 294.566 233.938 293.214 233.938 293.214C233.938 293.214 217.687 294.762 240.044 295.154C262.4 295.545 261.261 295.527 261.261 295.527L374.021 295.367Z" fill="white"/>
<path fill-rule="evenodd" clip-rule="evenodd" d="M88.3743 299.389C92.0944 299.496 55.6407 299.906 54.2168 297.717C52.7928 295.528 50.55 294.282 50.55 294.282C50.55 294.282 67.4775 298.749 88.3743 299.389Z" fill="white"/>
<path opacity="0.6" fill-rule="evenodd" clip-rule="evenodd" d="M147.717 304.515C147.699 305.138 153.43 305.743 160.497 305.867C167.563 305.992 173.295 305.582 173.312 304.96C173.33 304.337 167.599 303.732 160.532 303.607C153.466 303.482 147.734 303.892 147.717 304.515Z" fill="#A2E7F8"/>
<path opacity="0.6" fill-rule="evenodd" clip-rule="evenodd" d="M112.17 300.19C112.17 300.51 115.427 300.813 119.45 300.884C123.473 300.955 126.748 300.76 126.748 300.439C126.748 300.119 123.491 299.816 119.468 299.745C115.445 299.674 112.17 299.888 112.17 300.19Z" fill="#A2E7F8"/>
<path fill-rule="evenodd" clip-rule="evenodd" d="M198.856 298.482C198.856 298.82 202.042 299.158 205.976 299.229C209.909 299.301 213.113 299.069 213.113 298.731C213.113 298.393 209.927 298.055 205.993 297.984C202.06 297.912 198.856 298.126 198.856 298.482Z" fill="white"/>
<path fill-rule="evenodd" clip-rule="evenodd" d="M222.582 295.189C222.582 295.403 224.576 295.616 227.032 295.652C229.489 295.687 231.5 295.563 231.5 295.331C231.5 295.118 229.506 294.904 227.05 294.869C224.576 294.833 222.582 294.975 222.582 295.189Z" fill="white"/>
<path fill-rule="evenodd" clip-rule="evenodd" d="M233.777 298.784C233.777 298.908 234.187 299.015 234.721 299.015C235.237 299.033 235.664 298.926 235.664 298.802C235.664 298.677 235.255 298.57 234.721 298.57C234.204 298.57 233.795 298.677 233.777 298.784Z" fill="white"/>
<path fill-rule="evenodd" clip-rule="evenodd" d="M214.127 294.495C214.127 294.406 214.875 294.353 215.782 294.371C216.69 294.389 217.42 294.46 217.42 294.549C217.42 294.637 216.672 294.691 215.765 294.673C214.875 294.673 214.127 294.584 214.127 294.495Z" fill="white"/>
<path fill-rule="evenodd" clip-rule="evenodd" d="M214.144 293.694C214.144 293.819 214.554 293.925 215.088 293.925C215.604 293.943 216.031 293.836 216.031 293.712C216.031 293.587 215.622 293.481 215.088 293.481C214.572 293.463 214.144 293.57 214.144 293.694Z" fill="white"/>
<path fill-rule="evenodd" clip-rule="evenodd" d="M93.7657 296.239C93.7657 296.417 94.8515 296.577 96.1865 296.595C97.5214 296.613 98.625 296.506 98.625 296.328C98.625 296.15 97.5392 295.99 96.2043 295.972C94.8693 295.955 93.7657 296.079 93.7657 296.239Z" fill="white"/>
<path fill-rule="evenodd" clip-rule="evenodd" d="M123.207 298.214C123.207 298.552 126.393 298.891 130.327 298.962C134.261 299.033 137.465 298.802 137.465 298.463C137.465 298.125 134.279 297.787 130.345 297.716C126.411 297.645 123.207 297.876 123.207 298.214Z" fill="white"/>
<path fill-rule="evenodd" clip-rule="evenodd" d="M185.878 294.78C185.878 295.083 187 295.332 188.406 295.368C189.812 295.385 190.933 295.172 190.951 294.869C190.951 294.567 189.83 294.318 188.424 294.282C187.017 294.264 185.878 294.496 185.878 294.78Z" fill="white"/>
<path fill-rule="evenodd" clip-rule="evenodd" d="M182.322 295.545C182.322 295.652 182.713 295.74 183.212 295.74C183.71 295.74 184.102 295.669 184.102 295.563C184.102 295.456 183.71 295.367 183.212 295.367C182.713 295.349 182.322 295.438 182.322 295.545Z" fill="white"/>
<path opacity="0.6" fill-rule="evenodd" clip-rule="evenodd" d="M145.402 311.046C145.384 311.669 151.116 312.274 158.182 312.398C165.249 312.523 170.98 312.113 170.998 311.491C171.016 310.868 165.284 310.263 158.218 310.138C151.151 310.013 145.402 310.423 145.402 311.046Z" fill="#A2E7F8"/>
<path opacity="0.6" fill-rule="evenodd" clip-rule="evenodd" d="M140.776 316.847C140.776 317.168 144.033 317.47 148.056 317.542C152.078 317.613 155.354 317.417 155.354 317.097C155.354 316.776 152.096 316.474 148.073 316.403C144.051 316.331 140.793 316.545 140.776 316.847Z" fill="#A2E7F8"/>
<path opacity="0.6" fill-rule="evenodd" clip-rule="evenodd" d="M62.4568 311.384C62.439 312.007 68.1705 312.612 75.2369 312.737C82.3034 312.861 88.0349 312.452 88.0527 311.829C88.0705 311.206 82.339 310.601 75.2726 310.477C68.2061 310.352 62.4746 310.761 62.4568 311.384Z" fill="#A2E7F8"/>
<path opacity="0.6" fill-rule="evenodd" clip-rule="evenodd" d="M281.677 319.286C281.677 319.749 286.393 320.194 292.232 320.3C298.07 320.407 302.805 320.123 302.805 319.66C302.805 319.197 298.088 318.752 292.25 318.645C286.411 318.556 281.677 318.841 281.677 319.286Z" fill="#A2E7F8"/>
</g>
<defs>
<filter id="filter0_d_8_28289" x="0.99707" y="0" width="544.003" height="403.17" filterUnits="userSpaceOnUse" color-interpolation-filters="sRGB">
<feFlood flood-opacity="0" result="BackgroundImageFix"/>
<feColorMatrix in="SourceAlpha" type="matrix" values="0 0 0 0 0 0 0 0 0 0 0 0 0 0 0 0 0 0 127 0" result="hardAlpha"/>
<feOffset dy="4"/>
<feGaussianBlur stdDeviation="2"/>
<feComposite in2="hardAlpha" operator="out"/>
<feColorMatrix type="matrix" values="0 0 0 0 0 0 0 0 0 0 0 0 0 0 0 0 0 0 0.25 0"/>
<feBlend mode="normal" in2="BackgroundImageFix" result="effect1_dropShadow_8_28289"/>
<feBlend mode="normal" in="SourceGraphic" in2="effect1_dropShadow_8_28289" result="shape"/>
</filter>
<linearGradient id="paint0_linear_8_28289" x1="323.359" y1="27.4415" x2="322.059" y2="27.3244" gradientUnits="userSpaceOnUse">
<stop stop-color="#D6ECF8"/>
<stop offset="1" stop-color="white"/>
</linearGradient>
<linearGradient id="paint1_linear_8_28289" x1="314.208" y1="68.7535" x2="260.519" y2="43.317" gradientUnits="userSpaceOnUse">
<stop stop-color="#D6ECF8"/>
<stop offset="1" stop-color="white"/>
</linearGradient>
<linearGradient id="paint2_linear_8_28289" x1="434.564" y1="131.287" x2="117.638" y2="131.287" gradientUnits="userSpaceOnUse">
<stop stop-color="#D6ECF8"/>
<stop offset="1" stop-color="white"/>
</linearGradient>
<linearGradient id="paint3_linear_8_28289" x1="426.357" y1="105.834" x2="145.021" y2="105.834" gradientUnits="userSpaceOnUse">
<stop stop-color="#1261AA"/>
<stop offset="1" stop-color="#14CDCD"/>
</linearGradient>
<linearGradient id="paint4_linear_8_28289" x1="353.69" y1="152.256" x2="339.251" y2="152.817" gradientUnits="userSpaceOnUse">
<stop stop-color="#D6ECF8"/>
<stop offset="1" stop-color="white"/>
</linearGradient>
<linearGradient id="paint5_linear_8_28289" x1="353.798" y1="155.416" x2="339.357" y2="155.977" gradientUnits="userSpaceOnUse">
<stop stop-color="#D6ECF8"/>
<stop offset="1" stop-color="white"/>
</linearGradient>
<linearGradient id="paint6_linear_8_28289" x1="353.873" y1="157.324" x2="339.434" y2="157.885" gradientUnits="userSpaceOnUse">
<stop stop-color="#D6ECF8"/>
<stop offset="1" stop-color="white"/>
</linearGradient>
<linearGradient id="paint7_linear_8_28289" x1="353.977" y1="160.647" x2="339.533" y2="161.208" gradientUnits="userSpaceOnUse">
<stop stop-color="#D6ECF8"/>
<stop offset="1" stop-color="white"/>
</linearGradient>
<linearGradient id="paint8_linear_8_28289" x1="368.403" y1="148.804" x2="330.366" y2="151.769" gradientUnits="userSpaceOnUse">
<stop stop-color="#D6ECF8"/>
<stop offset="1" stop-color="white"/>
</linearGradient>
<linearGradient id="paint9_linear_8_28289" x1="434.564" y1="167.139" x2="117.646" y2="167.139" gradientUnits="userSpaceOnUse">
<stop stop-color="#1261AA"/>
<stop offset="1" stop-color="#14CDCD"/>
</linearGradient>
<linearGradient id="paint10_linear_8_28289" x1="352.341" y1="117.745" x2="337.897" y2="118.306" gradientUnits="userSpaceOnUse">
<stop stop-color="#D6ECF8"/>
<stop offset="1" stop-color="white"/>
</linearGradient>
<linearGradient id="paint11_linear_8_28289" x1="352.466" y1="120.905" x2="338.025" y2="121.466" gradientUnits="userSpaceOnUse">
<stop stop-color="#D6ECF8"/>
<stop offset="1" stop-color="white"/>
</linearGradient>
<linearGradient id="paint12_linear_8_28289" x1="352.533" y1="122.813" x2="338.092" y2="123.374" gradientUnits="userSpaceOnUse">
<stop stop-color="#D6ECF8"/>
<stop offset="1" stop-color="white"/>
</linearGradient>
<linearGradient id="paint13_linear_8_28289" x1="352.667" y1="126.135" x2="338.228" y2="126.695" gradientUnits="userSpaceOnUse">
<stop stop-color="#D6ECF8"/>
<stop offset="1" stop-color="white"/>
</linearGradient>
<linearGradient id="paint14_linear_8_28289" x1="365.705" y1="114.166" x2="327.672" y2="117.13" gradientUnits="userSpaceOnUse">
<stop stop-color="#D6ECF8"/>
<stop offset="1" stop-color="white"/>
</linearGradient>
<linearGradient id="paint15_linear_8_28289" x1="328.438" y1="92.1953" x2="326.133" y2="92.2802" gradientUnits="userSpaceOnUse">
<stop stop-color="#D6ECF8"/>
<stop offset="1" stop-color="white"/>
</linearGradient>
<linearGradient id="paint16_linear_8_28289" x1="338.552" y1="95.2504" x2="336.134" y2="95.3395" gradientUnits="userSpaceOnUse">
<stop stop-color="#D6ECF8"/>
<stop offset="1" stop-color="white"/>
</linearGradient>
<linearGradient id="paint17_linear_8_28289" x1="347.771" y1="100.654" x2="345.631" y2="100.732" gradientUnits="userSpaceOnUse">
<stop stop-color="#D6ECF8"/>
<stop offset="1" stop-color="white"/>
</linearGradient>
<linearGradient id="paint18_linear_8_28289" x1="357.649" y1="107.77" x2="355.412" y2="107.852" gradientUnits="userSpaceOnUse">
<stop stop-color="#D6ECF8"/>
<stop offset="1" stop-color="white"/>
</linearGradient>
<linearGradient id="paint19_linear_8_28289" x1="375.571" y1="117.199" x2="373.5" y2="117.276" gradientUnits="userSpaceOnUse">
<stop stop-color="#D6ECF8"/>
<stop offset="1" stop-color="white"/>
</linearGradient>
<linearGradient id="paint20_linear_8_28289" x1="320.045" y1="84.6464" x2="315.157" y2="85.004" gradientUnits="userSpaceOnUse">
<stop stop-color="#D6ECF8"/>
<stop offset="1" stop-color="white"/>
</linearGradient>
<linearGradient id="paint21_linear_8_28289" x1="196.143" y1="78.9864" x2="212.307" y2="80.1127" gradientUnits="userSpaceOnUse">
<stop stop-color="#D6ECF8"/>
<stop offset="1" stop-color="white"/>
</linearGradient>
<linearGradient id="paint22_linear_8_28289" x1="180.353" y1="77.9665" x2="196.381" y2="80.344" gradientUnits="userSpaceOnUse">
<stop stop-color="#D6ECF8"/>
<stop offset="1" stop-color="white"/>
</linearGradient>
<linearGradient id="paint23_linear_8_28289" x1="280.611" y1="78.9522" x2="296.447" y2="75.5128" gradientUnits="userSpaceOnUse">
<stop stop-color="#D6ECF8"/>
<stop offset="1" stop-color="white"/>
</linearGradient>
<linearGradient id="paint24_linear_8_28289" x1="296.225" y1="83.0062" x2="312.061" y2="79.5667" gradientUnits="userSpaceOnUse">
<stop stop-color="#D6ECF8"/>
<stop offset="1" stop-color="white"/>
</linearGradient>
<linearGradient id="paint25_linear_8_28289" x1="265.165" y1="82.3857" x2="281.219" y2="80.1865" gradientUnits="userSpaceOnUse">
<stop stop-color="#D6ECF8"/>
<stop offset="1" stop-color="white"/>
</linearGradient>
<linearGradient id="paint26_linear_8_28289" x1="248.384" y1="80.7102" x2="264.424" y2="78.3873" gradientUnits="userSpaceOnUse">
<stop stop-color="#D6ECF8"/>
<stop offset="1" stop-color="white"/>
</linearGradient>
<linearGradient id="paint27_linear_8_28289" x1="229.249" y1="83.2222" x2="245.418" y2="82.1525" gradientUnits="userSpaceOnUse">
<stop stop-color="#D6ECF8"/>
<stop offset="1" stop-color="white"/>
</linearGradient>
<linearGradient id="paint28_linear_8_28289" x1="164.549" y1="80.5936" x2="180.577" y2="82.9711" gradientUnits="userSpaceOnUse">
<stop stop-color="#D6ECF8"/>
<stop offset="1" stop-color="white"/>
</linearGradient>
<linearGradient id="paint29_linear_8_28289" x1="215.017" y1="81.4586" x2="225.734" y2="82.1052" gradientUnits="userSpaceOnUse">
<stop stop-color="#D6ECF8"/>
<stop offset="1" stop-color="white"/>
</linearGradient>
<linearGradient id="paint30_linear_8_28289" x1="427.374" y1="115.576" x2="151.736" y2="115.576" gradientUnits="userSpaceOnUse">
<stop stop-color="#D6ECF8"/>
<stop offset="1" stop-color="white"/>
</linearGradient>
<linearGradient id="paint31_linear_8_28289" x1="273.961" y1="156.098" x2="266.7" y2="156.098" gradientUnits="userSpaceOnUse">
<stop stop-color="#D6ECF8"/>
<stop offset="1" stop-color="white"/>
</linearGradient>
<linearGradient id="paint32_linear_8_28289" x1="256.405" y1="152.619" x2="250.835" y2="152.619" gradientUnits="userSpaceOnUse">
<stop stop-color="#D6ECF8"/>
<stop offset="1" stop-color="white"/>
</linearGradient>
<linearGradient id="paint33_linear_8_28289" x1="239.248" y1="151.415" x2="233.193" y2="151.415" gradientUnits="userSpaceOnUse">
<stop stop-color="#D6ECF8"/>
<stop offset="1" stop-color="white"/>
</linearGradient>
<linearGradient id="paint34_linear_8_28289" x1="223.907" y1="146.834" x2="216.842" y2="146.834" gradientUnits="userSpaceOnUse">
<stop stop-color="#D6ECF8"/>
<stop offset="1" stop-color="white"/>
</linearGradient>
<linearGradient id="paint35_linear_8_28289" x1="206.953" y1="143.381" x2="201.503" y2="143.381" gradientUnits="userSpaceOnUse">
<stop stop-color="#D6ECF8"/>
<stop offset="1" stop-color="white"/>
</linearGradient>
<linearGradient id="paint36_linear_8_28289" x1="189.36" y1="157.5" x2="183.278" y2="156.917" gradientUnits="userSpaceOnUse">
<stop stop-color="#D6ECF8"/>
<stop offset="1" stop-color="white"/>
</linearGradient>
<linearGradient id="paint37_linear_8_28289" x1="172.23" y1="152.108" x2="167.709" y2="151.675" gradientUnits="userSpaceOnUse">
<stop stop-color="#D6ECF8"/>
<stop offset="1" stop-color="white"/>
</linearGradient>
<linearGradient id="paint38_linear_8_28289" x1="155.267" y1="149.003" x2="150.23" y2="148.521" gradientUnits="userSpaceOnUse">
<stop stop-color="#D6ECF8"/>
<stop offset="1" stop-color="white"/>
</linearGradient>
<linearGradient id="paint39_linear_8_28289" x1="140.432" y1="142.738" x2="134.267" y2="142.147" gradientUnits="userSpaceOnUse">
<stop stop-color="#D6ECF8"/>
<stop offset="1" stop-color="white"/>
</linearGradient>
<linearGradient id="paint40_linear_8_28289" x1="285.194" y1="176.843" x2="237.961" y2="187.442" gradientUnits="userSpaceOnUse">
<stop stop-color="#D6ECF8"/>
<stop offset="1" stop-color="white"/>
</linearGradient>
<linearGradient id="paint41_linear_8_28289" x1="287.416" y1="186.743" x2="240.184" y2="197.342" gradientUnits="userSpaceOnUse">
<stop stop-color="#D6ECF8"/>
<stop offset="1" stop-color="white"/>
</linearGradient>
<linearGradient id="paint42_linear_8_28289" x1="288.586" y1="191.955" x2="241.353" y2="202.554" gradientUnits="userSpaceOnUse">
<stop stop-color="#D6ECF8"/>
<stop offset="1" stop-color="white"/>
</linearGradient>
<linearGradient id="paint43_linear_8_28289" x1="289.77" y1="197.237" x2="242.536" y2="207.836" gradientUnits="userSpaceOnUse">
<stop stop-color="#D6ECF8"/>
<stop offset="1" stop-color="white"/>
</linearGradient>
<linearGradient id="paint44_linear_8_28289" x1="404.571" y1="194.597" x2="387.82" y2="194.799" gradientUnits="userSpaceOnUse">
<stop stop-color="#D6ECF8"/>
<stop offset="1" stop-color="white"/>
</linearGradient>
<linearGradient id="paint45_linear_8_28289" x1="404.623" y1="198.898" x2="387.872" y2="199.1" gradientUnits="userSpaceOnUse">
<stop stop-color="#D6ECF8"/>
<stop offset="1" stop-color="white"/>
</linearGradient>
<linearGradient id="paint46_linear_8_28289" x1="404.652" y1="201.173" x2="387.901" y2="201.375" gradientUnits="userSpaceOnUse">
<stop stop-color="#D6ECF8"/>
<stop offset="1" stop-color="white"/>
</linearGradient>
<linearGradient id="paint47_linear_8_28289" x1="404.651" y1="201.8" x2="387.894" y2="202.002" gradientUnits="userSpaceOnUse">
<stop stop-color="#D6ECF8"/>
<stop offset="1" stop-color="white"/>
</linearGradient>
<linearGradient id="paint48_linear_8_28289" x1="283.496" y1="169.271" x2="236.263" y2="179.87" gradientUnits="userSpaceOnUse">
<stop stop-color="#D6ECF8"/>
<stop offset="1" stop-color="white"/>
</linearGradient>
<linearGradient id="paint49_linear_8_28289" x1="282.502" y1="164.854" x2="235.269" y2="175.453" gradientUnits="userSpaceOnUse">
<stop stop-color="#D6ECF8"/>
<stop offset="1" stop-color="white"/>
</linearGradient>
<linearGradient id="paint50_linear_8_28289" x1="291.695" y1="153.744" x2="283.536" y2="154.553" gradientUnits="userSpaceOnUse">
<stop stop-color="#D6ECF8"/>
<stop offset="1" stop-color="white"/>
</linearGradient>
<linearGradient id="paint51_linear_8_28289" x1="433.946" y1="162.7" x2="110.769" y2="162.7" gradientUnits="userSpaceOnUse">
<stop stop-color="#D6ECF8"/>
<stop offset="1" stop-color="white"/>
</linearGradient>
<linearGradient id="paint52_linear_8_28289" x1="263.529" y1="146.787" x2="219.952" y2="232.119" gradientUnits="userSpaceOnUse">
<stop stop-color="#1261AA"/>
<stop offset="1" stop-color="#14CDCD"/>
</linearGradient>
<linearGradient id="paint53_linear_8_28289" x1="325.424" y1="99.3974" x2="248.937" y2="63.1603" gradientUnits="userSpaceOnUse">
<stop stop-color="#D6ECF8"/>
<stop offset="1" stop-color="white"/>
</linearGradient>
<linearGradient id="paint54_linear_8_28289" x1="297.233" y1="105.476" x2="60.5248" y2="71.0761" gradientUnits="userSpaceOnUse">
<stop/>
<stop offset="1" stop-color="#14CDCD"/>
</linearGradient>
<linearGradient id="paint55_linear_8_28289" x1="218.746" y1="143.448" x2="143.765" y2="137.726" gradientUnits="userSpaceOnUse">
<stop stop-color="#D6ECF8"/>
<stop offset="1" stop-color="white"/>
</linearGradient>
<linearGradient id="paint56_linear_8_28289" x1="260.421" y1="147.517" x2="136.313" y2="138.045" gradientUnits="userSpaceOnUse">
<stop stop-color="#D6ECF8"/>
<stop offset="1" stop-color="white"/>
</linearGradient>
<linearGradient id="paint57_linear_8_28289" x1="262.783" y1="151.385" x2="138.775" y2="141.922" gradientUnits="userSpaceOnUse">
<stop stop-color="#D6ECF8"/>
<stop offset="1" stop-color="white"/>
</linearGradient>
<linearGradient id="paint58_linear_8_28289" x1="122.975" y1="148.28" x2="110.262" y2="89.5499" gradientUnits="userSpaceOnUse">
<stop stop-color="#D6ECF8"/>
<stop offset="1" stop-color="white"/>
</linearGradient>
<linearGradient id="paint59_linear_8_28289" x1="139.436" y1="142.869" x2="68.5087" y2="83.7521" gradientUnits="userSpaceOnUse">
<stop/>
<stop offset="1" stop-color="#DDFFED"/>
</linearGradient>
<linearGradient id="paint60_linear_8_28289" x1="203.909" y1="110.509" x2="67.9586" y2="104.947" gradientUnits="userSpaceOnUse">
<stop stop-color="#1261AA"/>
<stop offset="1" stop-color="#14CDCD"/>
</linearGradient>
<linearGradient id="paint61_linear_8_28289" x1="228.004" y1="164.167" x2="211.824" y2="253.431" gradientUnits="userSpaceOnUse">
<stop stop-color="#D6ECF8"/>
<stop offset="1" stop-color="white"/>
</linearGradient>
<linearGradient id="paint62_linear_8_28289" x1="106.406" y1="207.064" x2="414.005" y2="268.256" gradientUnits="userSpaceOnUse">
<stop stop-color="#7A98CF"/>
<stop offset="1" stop-color="#7A98CF" stop-opacity="0.61"/>
</linearGradient>
<linearGradient id="paint63_linear_8_28289" x1="250.713" y1="256.737" x2="270.838" y2="385.095" gradientUnits="userSpaceOnUse">
<stop stop-color="#D9D9D9"/>
<stop offset="1" stop-color="#D9D9D9" stop-opacity="0"/>
</linearGradient>
<linearGradient id="paint64_linear_8_28289" x1="434.562" y1="366.796" x2="117.636" y2="366.796" gradientUnits="userSpaceOnUse">
<stop stop-color="#D6ECF8"/>
<stop offset="1" stop-color="white"/>
</linearGradient>
<linearGradient id="paint65_linear_8_28289" x1="426.357" y1="385.916" x2="145.021" y2="385.916" gradientUnits="userSpaceOnUse">
<stop stop-color="#5CA28F"/>
<stop offset="1" stop-color="#BFFF9D"/>
</linearGradient>
<linearGradient id="paint66_linear_8_28289" x1="364.038" y1="381.824" x2="352.403" y2="381.241" gradientUnits="userSpaceOnUse">
<stop stop-color="#D6ECF8"/>
<stop offset="1" stop-color="white"/>
</linearGradient>
<linearGradient id="paint67_linear_8_28289" x1="365.084" y1="379.85" x2="353.446" y2="379.266" gradientUnits="userSpaceOnUse">
<stop stop-color="#D6ECF8"/>
<stop offset="1" stop-color="white"/>
</linearGradient>
<linearGradient id="paint68_linear_8_28289" x1="366.222" y1="378.657" x2="354.586" y2="378.073" gradientUnits="userSpaceOnUse">
<stop stop-color="#D6ECF8"/>
<stop offset="1" stop-color="white"/>
</linearGradient>
<linearGradient id="paint69_linear_8_28289" x1="367.522" y1="376.581" x2="355.882" y2="375.997" gradientUnits="userSpaceOnUse">
<stop stop-color="#D6ECF8"/>
<stop offset="1" stop-color="white"/>
</linearGradient>
<linearGradient id="paint70_linear_8_28289" x1="374.774" y1="383.85" x2="344.054" y2="380.758" gradientUnits="userSpaceOnUse">
<stop stop-color="#D6ECF8"/>
<stop offset="1" stop-color="white"/>
</linearGradient>
<linearGradient id="paint71_linear_8_28289" x1="435.952" y1="350.781" x2="159.867" y2="420.67" gradientUnits="userSpaceOnUse">
<stop stop-color="#5CA28F"/>
<stop offset="1" stop-color="#BFFF9D"/>
</linearGradient>
<linearGradient id="paint72_linear_8_28289" x1="375.985" y1="390.941" x2="374.302" y2="390.862" gradientUnits="userSpaceOnUse">
<stop stop-color="#D6ECF8"/>
<stop offset="1" stop-color="white"/>
</linearGradient>
<linearGradient id="paint73_linear_8_28289" x1="427.374" y1="390.457" x2="151.737" y2="390.457" gradientUnits="userSpaceOnUse">
<stop stop-color="#D6ECF8"/>
<stop offset="1" stop-color="white"/>
</linearGradient>
<linearGradient id="paint74_linear_8_28289" x1="273.963" y1="373.696" x2="266.702" y2="373.696" gradientUnits="userSpaceOnUse">
<stop stop-color="#D6ECF8"/>
<stop offset="1" stop-color="white"/>
</linearGradient>
<linearGradient id="paint75_linear_8_28289" x1="256.407" y1="376.247" x2="250.837" y2="376.247" gradientUnits="userSpaceOnUse">
<stop stop-color="#D6ECF8"/>
<stop offset="1" stop-color="white"/>
</linearGradient>
<linearGradient id="paint76_linear_8_28289" x1="239.251" y1="376.999" x2="233.195" y2="376.999" gradientUnits="userSpaceOnUse">
<stop stop-color="#D6ECF8"/>
<stop offset="1" stop-color="white"/>
</linearGradient>
<linearGradient id="paint77_linear_8_28289" x1="223.91" y1="379.862" x2="216.845" y2="379.862" gradientUnits="userSpaceOnUse">
<stop stop-color="#D6ECF8"/>
<stop offset="1" stop-color="white"/>
</linearGradient>
<linearGradient id="paint78_linear_8_28289" x1="206.954" y1="382.21" x2="201.504" y2="382.21" gradientUnits="userSpaceOnUse">
<stop stop-color="#D6ECF8"/>
<stop offset="1" stop-color="white"/>
</linearGradient>
<linearGradient id="paint79_linear_8_28289" x1="189.502" y1="373.224" x2="181.893" y2="374.165" gradientUnits="userSpaceOnUse">
<stop stop-color="#D6ECF8"/>
<stop offset="1" stop-color="white"/>
</linearGradient>
<linearGradient id="paint80_linear_8_28289" x1="172.26" y1="376.379" x2="166.37" y2="377.108" gradientUnits="userSpaceOnUse">
<stop stop-color="#D6ECF8"/>
<stop offset="1" stop-color="white"/>
</linearGradient>
<linearGradient id="paint81_linear_8_28289" x1="155.196" y1="377.691" x2="148.837" y2="378.478" gradientUnits="userSpaceOnUse">
<stop stop-color="#D6ECF8"/>
<stop offset="1" stop-color="white"/>
</linearGradient>
<linearGradient id="paint82_linear_8_28289" x1="140.208" y1="381.057" x2="132.896" y2="381.961" gradientUnits="userSpaceOnUse">
<stop stop-color="#D6ECF8"/>
<stop offset="1" stop-color="white"/>
</linearGradient>
<linearGradient id="paint83_linear_8_28289" x1="294.901" y1="364.402" x2="258.718" y2="353.915" gradientUnits="userSpaceOnUse">
<stop stop-color="#D6ECF8"/>
<stop offset="1" stop-color="white"/>
</linearGradient>
<linearGradient id="paint84_linear_8_28289" x1="298.428" y1="360.433" x2="262.245" y2="349.946" gradientUnits="userSpaceOnUse">
<stop stop-color="#D6ECF8"/>
<stop offset="1" stop-color="white"/>
</linearGradient>
<linearGradient id="paint85_linear_8_28289" x1="301.57" y1="357.203" x2="265.387" y2="346.716" gradientUnits="userSpaceOnUse">
<stop stop-color="#D6ECF8"/>
<stop offset="1" stop-color="white"/>
</linearGradient>
<linearGradient id="paint86_linear_8_28289" x1="307.937" y1="354.014" x2="271.889" y2="343.566" gradientUnits="userSpaceOnUse">
<stop stop-color="#D6ECF8"/>
<stop offset="1" stop-color="white"/>
</linearGradient>
<linearGradient id="paint87_linear_8_28289" x1="406.562" y1="355.378" x2="392.99" y2="355.166" gradientUnits="userSpaceOnUse">
<stop stop-color="#D6ECF8"/>
<stop offset="1" stop-color="white"/>
</linearGradient>
<linearGradient id="paint88_linear_8_28289" x1="407.74" y1="352.69" x2="394.163" y2="352.479" gradientUnits="userSpaceOnUse">
<stop stop-color="#D6ECF8"/>
<stop offset="1" stop-color="white"/>
</linearGradient>
<linearGradient id="paint89_linear_8_28289" x1="408.88" y1="351.269" x2="395.308" y2="351.058" gradientUnits="userSpaceOnUse">
<stop stop-color="#D6ECF8"/>
<stop offset="1" stop-color="white"/>
</linearGradient>
<linearGradient id="paint90_linear_8_28289" x1="409.829" y1="350.877" x2="396.257" y2="350.666" gradientUnits="userSpaceOnUse">
<stop stop-color="#D6ECF8"/>
<stop offset="1" stop-color="white"/>
</linearGradient>
<linearGradient id="paint91_linear_8_28289" x1="291.677" y1="367.531" x2="255.424" y2="357.023" gradientUnits="userSpaceOnUse">
<stop stop-color="#D6ECF8"/>
<stop offset="1" stop-color="white"/>
</linearGradient>
<linearGradient id="paint92_linear_8_28289" x1="288.283" y1="369.416" x2="251.708" y2="358.815" gradientUnits="userSpaceOnUse">
<stop stop-color="#D6ECF8"/>
<stop offset="1" stop-color="white"/>
</linearGradient>
<linearGradient id="paint93_linear_8_28289" x1="291.615" y1="375.485" x2="285.047" y2="374.644" gradientUnits="userSpaceOnUse">
<stop stop-color="#D6ECF8"/>
<stop offset="1" stop-color="white"/>
</linearGradient>
<linearGradient id="paint94_linear_8_28289" x1="433.946" y1="374.21" x2="110.769" y2="374.21" gradientUnits="userSpaceOnUse">
<stop stop-color="#D6ECF8"/>
<stop offset="1" stop-color="white"/>
</linearGradient>
<linearGradient id="paint95_linear_8_28289" x1="227.474" y1="348.798" x2="222.542" y2="333.372" gradientUnits="userSpaceOnUse">
<stop stop-color="#5CA28F"/>
<stop offset="1" stop-color="#BFFF9D"/>
</linearGradient>
<linearGradient id="paint96_linear_8_28289" x1="226.812" y1="379.542" x2="139.889" y2="388.11" gradientUnits="userSpaceOnUse">
<stop stop-color="#D6ECF8"/>
<stop offset="1" stop-color="white"/>
</linearGradient>
<linearGradient id="paint97_linear_8_28289" x1="234.222" y1="379.14" x2="136.475" y2="388.776" gradientUnits="userSpaceOnUse">
<stop stop-color="#D6ECF8"/>
<stop offset="1" stop-color="white"/>
</linearGradient>
<linearGradient id="paint98_linear_8_28289" x1="234.121" y1="377.638" x2="136.375" y2="387.274" gradientUnits="userSpaceOnUse">
<stop stop-color="#D6ECF8"/>
<stop offset="1" stop-color="white"/>
</linearGradient>
<linearGradient id="paint99_linear_8_28289" x1="82.2945" y1="377.682" x2="75.6312" y2="417.444" gradientUnits="userSpaceOnUse">
<stop stop-color="#D6ECF8"/>
<stop offset="1" stop-color="white"/>
</linearGradient>
<linearGradient id="paint100_linear_8_28289" x1="227.343" y1="371.792" x2="219.265" y2="314.228" gradientUnits="userSpaceOnUse">
<stop stop-color="#D6ECF8"/>
<stop offset="1" stop-color="white"/>
</linearGradient>
<linearGradient id="paint101_linear_8_28289" x1="226.696" y1="203.827" x2="226.696" y2="437.676" gradientUnits="userSpaceOnUse">
<stop stop-color="white"/>
<stop offset="0.1889" stop-color="#FCFCFD"/>
<stop offset="0.3244" stop-color="#F3F3F5"/>
<stop offset="0.4432" stop-color="#E3E3E8"/>
<stop offset="0.5524" stop-color="#CDCDD6"/>
<stop offset="0.6551" stop-color="#B0B0BE"/>
<stop offset="0.7529" stop-color="#8D8DA1"/>
<stop offset="0.8469" stop-color="#63637F"/>
<stop offset="0.9355" stop-color="#343458"/>
<stop offset="1" stop-color="#0D0C38"/>
</linearGradient>
</defs>
</svg>
