<svg width="797" height="230" viewBox="0 0 797 230" fill="none" xmlns="http://www.w3.org/2000/svg">
<g clip-path="url(#clip0_1409_15674)">
<rect width="797" height="230" fill="#F5F8FC"/>
<g filter="url(#filter0_d_1409_15674)">
<path d="M56.009 71.1339L52.7066 71.2031L50.0646 71.2625L44.8693 71.3713L31.0087 71.6778L29.2441 40.2913L34.6464 40.0144L37.2687 39.876L42.4738 66.2885L50.0054 70.3132L48.783 49.4284L51.2377 49.3493L52.8446 49.2899L56.009 71.1339Z" fill="white"/>
<path opacity="0.26" d="M29.7969 51.159L39.3987 50.7041L40.7099 57.3591L30.1025 57.2009L29.7969 51.159Z" fill="#A4C9F9"/>
<path opacity="0.85" d="M52.8051 71.856L31.4425 76.1279L30.9693 74.2689L29.2441 40.2915L34.6464 40.0146L29.8455 40.6871L33.8972 71.1441L44.8693 71.3715L50.0744 71.4902L50.0646 71.2627L48.783 49.4286L51.2377 49.3495L49.4435 49.7154L52.7066 71.2034L52.8051 71.856Z" fill="#A4C9F9"/>
<path d="M203.132 132.552L202.865 140.117L202.353 140.107L202.096 134.411L202.047 133.096L202.018 132.513L203.132 132.552Z" fill="white"/>
<path d="M222.888 134.619L221.991 135.796L217.436 133.571C217.436 133.571 217.426 133.571 217.407 133.571C217.397 133.571 217.397 133.571 217.387 133.571C217.377 133.571 217.367 133.571 217.357 133.571C217.348 133.571 217.338 133.571 217.328 133.571C217.318 133.571 217.308 133.571 217.288 133.571C217.279 133.571 217.269 133.571 217.259 133.571C216.017 133.591 208.367 133.749 203.073 134.303C202.738 134.332 202.412 134.372 202.107 134.411C200.175 134.649 198.686 134.936 198.154 135.311C196.044 136.785 197.966 140.809 197.966 140.809L196.941 140.77C196.941 140.77 194.546 136.755 190.464 132.285C190.139 131.929 189.804 131.573 189.459 131.217C187.803 129.497 185.91 127.756 183.82 126.194C183.465 125.927 183.11 125.67 182.745 125.413C181.05 124.236 179.236 123.178 177.323 122.347C176.89 122.159 176.466 121.981 176.042 121.823C175.578 121.645 175.125 121.487 174.691 121.339C164.951 118.174 160.988 123.148 160.988 123.148C160.988 123.148 159.036 118.095 151.091 112.508C150.302 111.954 149.454 111.391 148.538 110.827C148.291 110.679 148.035 110.521 147.769 110.372C137.782 104.667 117.672 100.83 116.045 100.533C116.035 100.533 116.025 100.523 116.006 100.523C115.996 100.523 115.986 100.523 115.976 100.513C115.966 100.513 115.966 100.513 115.956 100.513C115.946 100.513 115.937 100.513 115.937 100.513L114.99 98.1895C173.104 109.937 222.888 134.619 222.888 134.619Z" fill="white"/>
<path d="M155.773 142.016L154.748 141.976L149.444 118.016L147.759 110.402L147.473 109.097L150.765 110.59L151.071 112.538L152.175 119.44L155.773 142.016Z" fill="white"/>
<path d="M177.264 140.958L176.662 140.938L175.726 131.722L174.671 121.358L174.553 120.142L175.923 120.192L176.031 121.843L176.702 132.226L177.264 140.958Z" fill="white"/>
<path d="M185.24 141.235L184.727 141.215L184.077 136.073L182.726 125.423L182.361 122.535L183.603 124.038L183.81 126.204L184.777 136.439L185.24 141.235Z" fill="white"/>
<path d="M190.839 140.562L190.415 140.552L190.277 139.306L189.449 131.227L189.055 127.499L189.104 127.479L190.198 126.896L190.277 128.676L190.445 132.295L190.79 139.573L190.839 140.562Z" fill="white"/>
<path opacity="0.85" d="M217.259 133.571C216.017 133.591 208.367 133.749 203.073 134.303L202.876 140.127L202.363 140.107L202.107 134.411C200.174 134.649 198.686 134.935 198.154 135.311C196.044 136.785 197.966 140.809 197.966 140.809L196.941 140.77C196.941 140.77 194.545 136.755 190.464 132.285L190.809 139.563L190.297 139.296L189.459 131.207C187.802 129.487 185.91 127.746 183.82 126.184L184.796 136.429L184.086 136.063L182.745 125.413C181.05 124.236 179.236 123.178 177.323 122.347C176.89 122.159 176.466 121.981 176.042 121.823L176.712 132.216L175.736 131.712L174.681 121.349C164.941 118.184 160.978 123.158 160.978 123.158C160.978 123.158 159.027 118.105 151.081 112.518L152.185 119.43L149.454 118.006L147.768 110.392C137.782 104.686 117.672 100.849 116.045 100.553C117.869 100.859 142.879 105.092 151.199 110.026C159.835 115.148 158.534 116.365 161.806 117.739C165.079 119.114 171.29 118.293 178.999 120.29C183.317 121.408 186.373 124.632 189.123 127.47C189.518 127.885 189.912 128.28 190.297 128.666C192.022 130.397 193.678 131.821 195.521 132.275C196.971 132.631 199.376 132.898 202.057 133.076C202.412 133.096 202.767 133.126 203.122 133.146C209.106 133.531 216.086 133.561 217.259 133.571Z" fill="#A4C9F9"/>
<path d="M-33.8973 60.0985L-35.6816 52.1184L-16.685 48.6475L-15.8174 53.3248L-0.488004 51.9602L13.7472 57.1022L-33.8973 60.0985Z" fill="url(#paint0_linear_1409_15674)"/>
<path d="M65.1765 72.3801L-41.4494 78.3133L-45.3828 59.8116C-45.0674 59.7325 -25.0356 54.7783 8.30474 55.9353C30.4856 56.7066 48.1711 63.6188 57.6251 68.2367C62.4852 70.61 65.1765 72.3801 65.1765 72.3801Z" fill="url(#paint1_linear_1409_15674)"/>
<g style="mix-blend-mode:lighten" opacity="0.63">
<path d="M57.6153 68.2367L47.5501 68.8993C47.5501 68.8993 25.8325 58.6151 10.1975 57.3296C-5.34882 56.054 -44.9293 59.7721 -45.3828 59.8116C-45.0674 59.7325 -25.0356 54.7783 8.30474 55.9353C30.4757 56.7066 48.1613 63.6286 57.6153 68.2367Z" fill="url(#paint2_linear_1409_15674)"/>
</g>
<path opacity="0.64" d="M-35.1993 75.3764L-38.1074 60.1282L-36.6977 59.9996L-32.2813 75.4753L-26.5142 75.0402L-28.6239 59.1591L-27.6775 59.1888L-23.5075 75.149L6.77678 72.8746L5.11076 59.0404C5.11076 59.0404 30.2195 57.7351 50.2513 68.9884C70.2831 80.2416 -35.1993 75.3764 -35.1993 75.3764Z" fill="#A4C9F9"/>
<path opacity="0.64" d="M6.17644 72.9631L6.41304 74.9309L-10.7204 76.2164C-15.7678 76.1077 -20.3913 75.9692 -24.2261 75.8407L-28.0412 61.255L-28.3666 61.2451L-28.6426 59.208L-27.6962 59.2377L-23.5262 75.1979L6.17644 72.9631Z" fill="#A4C9F9"/>
<path opacity="0.64" d="M52.0856 72.7459C51.7011 72.2218 50.9815 71.6582 49.8971 71.055C31.6595 60.8104 9.22228 60.9686 5.33816 61.0872L5.10156 59.0897C5.10156 59.0897 30.2103 57.7844 50.2421 69.0377C52.9334 70.5408 53.3573 71.767 52.0856 72.7459Z" fill="#A4C9F9"/>
<path d="M205.558 149.304L15.7493 168.191L-120.461 146.238C-119.524 129.052 -112.318 109.334 -112.318 109.334L-93.0355 107.593L-92.7102 98.308L-72.0574 96.617L-71.3673 76.6717L73.1435 67.228L88.3448 94.2734L94.171 94.4712L106.07 117.611L140.425 116.74L153.675 140.621L204.198 138.93L205.558 149.304Z" fill="url(#paint3_linear_1409_15674)"/>
<path opacity="0.79" d="M94.1595 94.4712L-73.9418 106.258L-93.0371 107.593L-92.7216 98.308L-72.0589 96.617L-71.3787 76.6717L73.1321 67.228L88.3334 94.2734L94.1595 94.4712Z" fill="url(#paint4_linear_1409_15674)"/>
<path d="M-116.124 126.629L-118.973 142.738L-14.7226 163.316L123.006 152.3L107.134 119.144L-116.124 126.629Z" fill="url(#paint5_linear_1409_15674)"/>
<path d="M-116.124 126.629L-118.973 142.738L-14.7226 163.316L123.006 152.3L107.134 119.144L-116.124 126.629Z" fill="url(#paint6_linear_1409_15674)"/>
<path opacity="0.62" d="M-71.6133 138.812L56.5724 134.797L58.4159 140.632L83.7711 148.345L109.501 148.157L99.5244 120.113L107.135 119.144L123.007 152.3L-49.6986 159.776L-71.1302 142.906L-71.6133 138.812Z" fill="#17A3AE"/>
<g style="mix-blend-mode:screen" opacity="0.63">
<path d="M119.545 149.887L106.216 121.507L9.93164 129.042L42.8579 149.235L119.545 149.887Z" fill="url(#paint7_linear_1409_15674)"/>
<path d="M119.545 149.887L106.216 121.507L9.93164 129.042L42.8579 149.235L119.545 149.887Z" fill="url(#paint8_linear_1409_15674)"/>
</g>
<path opacity="0.62" d="M-59.7363 90.8023L82.6846 84.2065L78.1794 77.6504L-59.6575 88.7158L-59.7363 90.8023Z" fill="#17A3AE"/>
<path d="M105.034 119.331L119.131 157.185L118.806 157.323L104.758 119.44L105.034 119.331Z" fill="url(#paint9_linear_1409_15674)"/>
<path d="M100.066 119.935L113.739 158.006L113.078 158.233L99.5234 120.113L100.066 119.935Z" fill="url(#paint10_linear_1409_15674)"/>
<path d="M93.4498 120.014L105.171 158.223L104.846 158.362L93.1836 120.132L93.4498 120.014Z" fill="url(#paint11_linear_1409_15674)"/>
<path d="M84.0071 120.389L94.1315 159.41L93.2048 159.617L83.248 120.557L84.0071 120.389Z" fill="url(#paint12_linear_1409_15674)"/>
<path d="M74.0385 120.577L81.2645 160.458L80.328 160.577L73.2695 120.676L74.0385 120.577Z" fill="url(#paint13_linear_1409_15674)"/>
<path d="M64.9988 120.903L70.8841 160.923L70.2729 161.002L64.5059 120.963L64.9988 120.903Z" fill="url(#paint14_linear_1409_15674)"/>
<path d="M32.9704 121.783L36.8841 162.01L36.4109 162.069L32.5859 121.823L32.9704 121.783Z" fill="url(#paint15_linear_1409_15674)"/>
<path d="M21.5945 121.961L24.6308 162.297L24.0393 162.337L21.1016 121.991L21.5945 121.961Z" fill="url(#paint16_linear_1409_15674)"/>
<path d="M0.0931542 122.792L3.02103 163.207L2.07465 163.227L-0.675781 122.802L0.0931542 122.792Z" fill="url(#paint17_linear_1409_15674)"/>
<path d="M-117.17 132.532L-0.173236 130.189L108.602 125.393L-0.0155164 129.249L-117.17 132.532Z" fill="url(#paint18_linear_1409_15674)"/>
<path d="M-117.377 139.405L-0.380274 137.062L111.855 132.889L-0.22254 136.122L-117.377 139.405Z" fill="url(#paint19_linear_1409_15674)"/>
<path d="M-112.92 147.474L4.0669 145.13L116.312 140.967L4.23448 144.191L-112.92 147.474Z" fill="url(#paint20_linear_1409_15674)"/>
<path d="M-109.639 154.831L7.35801 152.487L119.593 148.324L7.51573 151.548L-109.639 154.831Z" fill="url(#paint21_linear_1409_15674)"/>
<path d="M124.523 149.758L114.822 122.387L140.246 122.011L143.717 127.341L121.624 127.716L123.626 134.322L146.625 133.521L151.1 140.562L125.42 140.285L127.598 146.742L153.949 146.05L158.849 153.259L125.873 153.684L124.523 149.758Z" fill="url(#paint22_linear_1409_15674)"/>
<path d="M124.523 149.758L114.822 122.387L140.246 122.011L143.717 127.341L121.624 127.716L123.626 134.322L146.625 133.521L151.1 140.562L125.42 140.285L127.598 146.742L153.949 146.05L158.849 153.259L125.873 153.684L124.523 149.758Z" fill="url(#paint23_linear_1409_15674)"/>
<path opacity="0.53" d="M140.789 127.39L139.29 123.217L115.098 123.168L114.822 122.387L140.246 122.011L143.717 127.341L140.789 127.39Z" fill="#0E5498"/>
<path opacity="0.53" d="M123.626 134.322L146.625 133.521L151.101 140.562L148.242 140.532L145.462 134.797L122.847 135.331L121.24 128.963L121.625 127.717L123.626 134.322Z" fill="#0E5498"/>
<path opacity="0.53" d="M125.421 140.285L124.633 141.65L126.624 148.562L152.778 148.315L155.39 153.14L158.85 153.259L153.951 146.05L127.6 146.742L125.421 140.285Z" fill="#0E5498"/>
<path opacity="0.62" d="M40.0185 90.1007L-74.2672 99.6631L-73.9418 106.259L-93.0371 107.594L-92.7216 98.3083L-72.0589 96.6174L-71.3787 76.672L74.1573 69.0479L-60.9981 81.0823L-61.5008 95.5494L40.0185 90.1007Z" fill="url(#paint24_linear_1409_15674)"/>
<g style="mix-blend-mode:screen" opacity="0.63">
<path d="M42.2672 89.9521L54.2351 90.5059L58.3262 98.9112L88.7288 95.8853L73.0444 69.7793L17.75 76.5827L42.2672 89.9521Z" fill="url(#paint25_linear_1409_15674)"/>
<path d="M42.2672 89.9521L54.2351 90.5059L58.3262 98.9112L88.7288 95.8853L73.0444 69.7793L17.75 76.5827L42.2672 89.9521Z" fill="url(#paint26_linear_1409_15674)"/>
</g>
<path d="M-75.3105 77.1362L84.9339 68.5232L86.6689 64.459L-75.2613 75.7419L-75.3105 77.1362Z" fill="url(#paint27_linear_1409_15674)"/>
<g opacity="0.76">
<path d="M5.625 73.0918L6.46295 81.329L7.99097 89.0619L7.18259 81.0423L5.625 73.0918Z" fill="url(#paint28_linear_1409_15674)"/>
<path d="M15.6406 71.5098L16.8926 79.6877L18.8248 87.3316L17.6024 79.3613L15.6406 71.5098Z" fill="url(#paint29_linear_1409_15674)"/>
<path d="M24.75 71.8164L26.1301 79.9745L28.1806 87.5888L26.8301 79.6383L24.75 71.8164Z" fill="url(#paint30_linear_1409_15674)"/>
<path d="M34.4688 70.9658L35.8489 79.1239L37.8994 86.7481L36.5488 78.7976L34.4688 70.9658Z" fill="url(#paint31_linear_1409_15674)"/>
<path d="M45.8359 69.8384L47.6301 77.9174L50.0552 85.4229L48.3103 77.5515L45.8359 69.8384Z" fill="url(#paint32_linear_1409_15674)"/>
<path d="M54.0684 69.542L55.8626 77.6111L58.2877 85.1166L56.5428 77.2452L54.0684 69.542Z" fill="url(#paint33_linear_1409_15674)"/>
<path d="M60.8984 68.5825L62.6926 76.6615L65.1276 84.167L63.3827 76.2956L60.8984 68.5825Z" fill="url(#paint34_linear_1409_15674)"/>
<path d="M66.8828 68.2363L69.3671 76.1275L72.433 83.3956L70.0177 75.7022L66.8828 68.2363Z" fill="url(#paint35_linear_1409_15674)"/>
<path d="M71.7246 68.0684L74.5835 75.8309L78.0043 82.931L75.2144 75.3662L71.7246 68.0684Z" fill="url(#paint36_linear_1409_15674)"/>
</g>
<g opacity="0.76">
<path d="M4.71875 91.4551L5.54683 99.6824L7.08472 107.425L6.27634 99.3956L4.71875 91.4551Z" fill="url(#paint37_linear_1409_15674)"/>
<path d="M14.9902 91.3164L15.8183 99.5437L17.3562 107.287L16.5478 99.257L14.9902 91.3164Z" fill="url(#paint38_linear_1409_15674)"/>
<path d="M25.0059 89.7246L26.248 97.9025L28.1802 105.556L26.9578 97.5762L25.0059 89.7246Z" fill="url(#paint39_linear_1409_15674)"/>
<path d="M34.1055 90.0312L35.4856 98.1894L37.5361 105.804L36.1954 97.8532L34.1055 90.0312Z" fill="url(#paint40_linear_1409_15674)"/>
<path d="M43.8359 89.1904L45.2062 97.3485L47.2567 104.963L45.916 97.0123L43.8359 89.1904Z" fill="url(#paint41_linear_1409_15674)"/>
<path d="M55.1914 88.063L56.9856 96.142L59.4206 103.638L57.6757 95.7662L55.1914 88.063Z" fill="url(#paint42_linear_1409_15674)"/>
<path d="M63.4238 87.7568L65.218 95.8358L67.653 103.331L65.9081 95.4601L63.4238 87.7568Z" fill="url(#paint43_linear_1409_15674)"/>
<path d="M70.2656 86.8076L72.0598 94.8866L74.4849 102.382L72.74 94.5109L70.2656 86.8076Z" fill="url(#paint44_linear_1409_15674)"/>
<path d="M76.25 86.4512L78.7244 94.3522L81.7903 101.61L79.375 93.9171L76.25 86.4512Z" fill="url(#paint45_linear_1409_15674)"/>
<path d="M81.0898 86.2832L83.9487 94.0458L87.3596 101.156L84.5796 93.5909L81.0898 86.2832Z" fill="url(#paint46_linear_1409_15674)"/>
</g>
<path d="M-92.7109 98.1792L-92.5138 92.3647L82.4588 84.2065L84.3022 86.7578L-92.7109 98.1792Z" fill="url(#paint47_linear_1409_15674)"/>
<g opacity="0.79">
<path d="M106.07 117.61L97.7099 117.897L96.7931 117.927L84.8154 118.342L83.9282 118.372L73.8039 118.718L72.9265 118.747L62.7923 119.093L61.9149 119.123L52.3426 119.449L51.4751 119.479L41.2424 119.835L40.3748 119.865L30.0435 120.211L29.1858 120.241L19.4854 120.577L18.6277 120.606L8.30623 120.962L7.44857 120.992L-2.99122 121.348L-3.84889 121.378L-15.1562 121.763L-16.0139 121.793L-26.3058 122.139L-27.1832 122.169L-37.4948 122.525L-38.3426 122.555L-48.3388 122.901L-49.1866 122.93L-59.6067 123.286L-60.4939 123.316L-69.3465 123.622L-70.1943 123.642L-80.0722 123.988L-80.92 124.018L-89.7529 124.315L-90.6007 124.344L-99.4829 124.651L-100.341 124.681L-104.412 124.819L-108.947 124.977L-109.804 125.007L-116.074 125.215L-112.161 111.074L-112.141 111.005L-107.468 110.668L-106.679 110.609L-98.9112 110.045L-98.1324 109.996L-89.9698 109.403L-89.191 109.353L-80.3285 108.71L-79.5596 108.661L-70.145 107.979L-69.3761 107.929L-60.9178 107.316L-60.1094 107.257L-49.9654 106.525L-49.1964 106.476L-39.2988 105.764L-38.5299 105.704L-28.2281 104.963L-27.4296 104.913L-17.6306 104.201L-16.8617 104.152L-5.51491 103.331L-4.73612 103.282L5.74312 102.53L6.5219 102.471L16.8828 101.719L17.6616 101.67L27.4114 100.968L28.1803 100.908L37.4273 100.246L38.206 100.186L48.4684 99.4547L49.2472 99.3953L57.9618 98.7723L58.7406 98.713L68.8945 97.9813L69.6733 97.9318L78.9203 97.2594L79.7089 97.2099L89.5967 96.498L90.405 96.4386L95.0088 96.1123L95.5017 97.0715L106.07 117.61Z" fill="url(#paint48_linear_1409_15674)"/>
<path d="M106.07 117.61L97.7099 117.897L96.7931 117.927L84.8154 118.342L83.9282 118.372L73.8039 118.718L72.9265 118.747L62.7923 119.093L61.9149 119.123L52.3426 119.449L51.4751 119.479L41.2424 119.835L40.3748 119.865L30.0435 120.211L29.1858 120.241L19.4854 120.577L18.6277 120.606L8.30623 120.962L7.44857 120.992L-2.99122 121.348L-3.84889 121.378L-15.1562 121.763L-16.0139 121.793L-26.3058 122.139L-27.1832 122.169L-37.4948 122.525L-38.3426 122.555L-48.3388 122.901L-49.1866 122.93L-59.6067 123.286L-60.4939 123.316L-69.3465 123.622L-70.1943 123.642L-80.0722 123.988L-80.92 124.018L-89.7529 124.315L-90.6007 124.344L-99.4829 124.651L-100.341 124.681L-104.412 124.819L-108.947 124.977L-109.804 125.007L-116.074 125.215L-112.161 111.074L-112.141 111.005L-107.468 110.668L-106.679 110.609L-98.9112 110.045L-98.1324 109.996L-89.9698 109.403L-89.191 109.353L-80.3285 108.71L-79.5596 108.661L-70.145 107.979L-69.3761 107.929L-60.9178 107.316L-60.1094 107.257L-49.9654 106.525L-49.1964 106.476L-39.2988 105.764L-38.5299 105.704L-28.2281 104.963L-27.4296 104.913L-17.6306 104.201L-16.8617 104.152L-5.51491 103.331L-4.73612 103.282L5.74312 102.53L6.5219 102.471L16.8828 101.719L17.6616 101.67L27.4114 100.968L28.1803 100.908L37.4273 100.246L38.206 100.186L48.4684 99.4547L49.2472 99.3953L57.9618 98.7723L58.7406 98.713L68.8945 97.9813L69.6733 97.9318L78.9203 97.2594L79.7089 97.2099L89.5967 96.498L90.405 96.4386L95.0088 96.1123L95.5017 97.0715L106.07 117.61Z" fill="url(#paint49_linear_1409_15674)"/>
</g>
<path d="M8.3053 120.963L7.44765 120.993L5.74219 102.531L6.52098 102.471L8.3053 120.963Z" fill="url(#paint50_linear_1409_15674)"/>
<path d="M41.2409 119.835L40.3734 119.865L37.4258 100.246L38.2046 100.187L41.2409 119.835Z" fill="url(#paint51_linear_1409_15674)"/>
<path d="M52.343 119.45L51.4755 119.479L48.4688 99.4548L49.2475 99.3955L52.343 119.45Z" fill="url(#paint52_linear_1409_15674)"/>
<path d="M92.1404 117.957L91.9728 118.065L85.5059 98.1299L85.6537 98.0112L92.1404 117.957Z" fill="url(#paint53_linear_1409_15674)"/>
<path d="M81.9758 118.422L81.7984 118.521L76.6426 98.2094L76.7904 98.1006L81.9758 118.422Z" fill="url(#paint54_linear_1409_15674)"/>
<path d="M100.263 117.264L99.9478 117.393L92.6035 97.329L92.8795 97.1807L100.263 117.264Z" fill="url(#paint55_linear_1409_15674)"/>
<path d="M30.3099 119.796L29.886 119.885L27.6777 101.028L28.0622 100.919L30.3099 119.796Z" fill="url(#paint56_linear_1409_15674)"/>
<path d="M17.9277 120.893L17.484 120.972L16.0743 102.451L16.0645 102.382L16.4588 102.184L16.4785 102.342L17.9277 120.893Z" fill="url(#paint57_linear_1409_15674)"/>
<path d="M-114.182 118.382L100.263 106.318L-3.80963 112.914L-114.182 118.382Z" fill="url(#paint58_linear_1409_15674)"/>
<g opacity="0.62">
<path d="M95.5017 97.0129L-77.4401 111.49L-78.1696 124.029L-108.947 124.919L-109.804 124.948L-114.408 124.79L-112.161 111.015L95.0088 96.0537L95.5017 97.0129Z" fill="#17A3AE"/>
<path d="M95.5017 97.0129L-77.4401 111.49L-78.1696 124.029L-108.947 124.919L-109.804 124.948L-114.408 124.79L-112.161 111.015L95.0088 96.0537L95.5017 97.0129Z" fill="url(#paint59_linear_1409_15674)"/>
</g>
<g style="mix-blend-mode:screen" opacity="0.63">
<path d="M104.215 116.721L95.3333 97.8135L9.68555 105.279L36.0857 118.392L104.215 116.721Z" fill="url(#paint60_linear_1409_15674)"/>
<path d="M104.215 116.721L95.3333 97.8135L9.68555 105.279L36.0857 118.392L104.215 116.721Z" fill="url(#paint61_linear_1409_15674)"/>
</g>
<g opacity="0.62">
<path d="M-118.205 143.667L-116.125 126.629L107.133 119.144L107.764 120.479L-81.4144 130.604L-81.4637 147.405L-118.205 143.667Z" fill="#17A3AE"/>
<path d="M-118.205 143.667L-116.125 126.629L107.133 119.144L107.764 120.479L-81.4144 130.604L-81.4637 147.405L-118.205 143.667Z" fill="url(#paint62_linear_1409_15674)"/>
</g>
<path d="M261 144.379C261 144.379 248.234 155.237 234.905 166.806C221.607 178.336 207.746 190.569 205.42 193.417C200.757 199.112 196.971 209.308 196.971 209.308C196.971 209.308 185.329 209.407 166.638 209.476C116.341 209.654 -98.0935 211.117 -101.416 208.269C-114.419 197.145 -130.99 143.163 -130.99 143.163L-124.178 142.925L-115.424 142.619L26.7699 137.625C26.7699 137.625 31.561 149.244 42.9078 153.763C42.9176 153.763 42.9275 153.773 42.9373 153.773C46.1807 155.059 49.9465 155.761 54.294 155.454C73.9117 154.06 261 144.379 261 144.379Z" fill="url(#paint63_linear_1409_15674)"/>
<path d="M23.0055 171.869L22.9069 166.905C22.8773 165.432 21.5859 164.255 20.0283 164.285L2.77652 164.542C1.21893 164.562 -0.0231978 165.778 0.00637672 167.251L0.104964 172.206C0.134539 173.679 1.42596 174.856 2.98355 174.826L20.2353 174.569C21.7929 174.549 23.035 173.333 23.0055 171.869ZM13.7487 171.741L11.156 171.563C9.59837 171.583 4.05808 172.641 4.02851 171.167L0.459859 168.843C0.430284 167.37 1.67241 166.164 3.23 166.134L7.331 166.075L7.47887 169.219L7.68588 166.065L14.7936 165.956C14.9612 165.956 15.1189 165.966 15.2767 165.986L15.7301 170.643L15.6808 166.075C16.8145 166.401 17.6525 167.4 17.6821 168.576L17.7412 171.592C17.7511 173.076 15.3062 171.711 13.7487 171.741Z" fill="#A4C9F9"/>
<path d="M0.824219 170.03C0.824219 173.936 20.9349 173.758 21.3785 173.086C21.8221 172.413 22.4826 170.248 22.246 169.812C22.0094 169.377 0.853792 168.992 0.853792 168.992L0.824219 170.03Z" fill="#FFDD9A"/>
<path d="M21.3793 173.085C21.0047 173.669 6.26672 173.876 1.98828 171.493C7.95247 172.69 18.7472 172.492 19.0528 172.017C19.3584 171.543 19.7724 170.356 19.9203 169.525C21.9215 169.624 22.1975 169.703 22.2468 169.812C22.4834 170.247 21.8229 172.403 21.3793 173.085Z" fill="#FF7D48"/>
<path opacity="0.25" d="M-93.8047 183.637C-94.7018 183.627 -95.5496 183.271 -96.1904 182.648C-96.8706 181.995 -97.2452 181.115 -97.2649 180.166L-100.173 163.988C-100.213 162.04 -98.6549 160.428 -96.7227 160.389L22.3737 158.203C23.3103 158.184 24.2073 158.54 24.8777 159.192C25.5579 159.845 25.9325 160.725 25.9523 161.674L26.248 177.763C26.2677 178.703 25.9128 179.602 25.2622 180.275C24.6115 180.957 23.7342 181.333 22.7878 181.353V181.125V181.353L-93.6963 183.627C-93.7357 183.637 -93.7751 183.637 -93.8047 183.637ZM22.4822 158.658C22.4526 158.658 22.4132 158.658 22.3836 158.658L-96.7129 160.844C-98.4085 160.873 -99.7591 162.278 -99.7295 163.978L-97.0185 180.374C-96.9988 181.194 -96.6734 181.966 -96.082 182.539C-95.4905 183.113 -94.7117 183.419 -93.8934 183.4L22.8174 181.214C23.6356 181.194 24.4045 180.868 24.9763 180.275C25.5481 179.682 25.8241 178.594 25.8044 177.773L25.5086 161.684C25.4889 160.863 25.1636 160.092 24.5721 159.519C24.0003 158.975 23.261 158.668 22.4822 158.658Z" fill="#17A3AE"/>
<path d="M42.9068 153.753C32.1713 149.679 28.1097 143.173 24.3636 140.473C20.6175 137.773 -128.605 143.311 -128.605 143.311L-124.189 142.916L26.7592 137.615C26.7592 137.615 31.5502 149.234 42.9068 153.753Z" fill="white"/>
<g style="mix-blend-mode:screen">
<path d="M86.6387 157.343L255.509 148.285L228.675 171.355C228.675 171.355 245.257 156.849 243.975 154.416C242.693 151.984 86.6387 157.343 86.6387 157.343Z" fill="url(#paint64_linear_1409_15674)"/>
</g>
<path opacity="0.37" d="M197.228 190.767C194.507 190.984 25.8926 204.413 -49.335 204.057C-79.0968 202.722 -99.099 203.474 -102.431 200.626C-115.434 189.491 -131 143.153 -131 143.153L-124.188 142.916L-115.434 142.609L-70.0667 141.917C-76.3463 142.372 -86.4214 143.054 -87.1903 147.563C-90.3647 166.174 -80.3981 192.131 -74.01 194.752C-63.028 199.261 193.757 190.905 197.228 190.767Z" fill="#A4C9F9"/>
<g style="mix-blend-mode:screen">
<path d="M234.897 166.807C221.598 178.337 207.737 190.569 205.411 193.417C200.748 199.113 196.962 209.308 196.962 209.308C196.962 209.308 185.32 209.407 166.629 209.476H166.619C166.619 209.476 191.205 206.994 193.739 206.47C196.272 205.956 200.087 194.93 199.9 193.615C199.713 192.3 146.242 195.335 146.242 195.335L205.736 190.213L234.897 166.807Z" fill="url(#paint65_linear_1409_15674)"/>
</g>
<path opacity="0.5" d="M211.383 162.743C218.865 164.72 206.829 181.986 200.401 179.346C193.964 176.715 203.901 160.765 211.383 162.743Z" fill="#A4C9F9"/>
<path opacity="0.5" d="M203.694 170.347C206.396 170.832 202.64 177.279 200.293 176.527C197.947 175.786 200.993 169.862 203.694 170.347Z" fill="#A4C9F9"/>
<path opacity="0.5" d="M200.982 179.533C209.874 178.307 211.688 165.808 206.178 164.344C205.951 164.285 205.724 164.235 205.488 164.216C207.4 162.91 209.47 162.248 211.383 162.752C218.648 164.671 207.528 180.977 200.982 179.533Z" fill="#A4C9F9"/>
<path d="M68.5787 172.819C68.5886 174.114 67.9281 175.182 67.1099 175.182C66.2917 175.192 65.6213 174.134 65.6114 172.838C65.6016 171.543 66.2621 170.475 67.0803 170.475C67.8985 170.475 68.5689 171.523 68.5787 172.819Z" fill="url(#paint66_linear_1409_15674)"/>
<path d="M74.3268 172.789C74.3366 174.084 73.6761 175.152 72.8579 175.152C72.0397 175.162 71.3595 174.104 71.3595 172.809C71.3496 171.513 72.0101 170.445 72.8283 170.445C73.6466 170.435 74.3268 171.484 74.3268 172.789Z" fill="url(#paint67_linear_1409_15674)"/>
<path d="M80.2018 172.443C80.2117 173.739 79.5512 174.807 78.7329 174.807C77.9147 174.817 77.2443 173.758 77.2345 172.463C77.2246 171.168 77.8851 170.1 78.7034 170.1C79.5216 170.09 80.1919 171.138 80.2018 172.443Z" fill="url(#paint68_linear_1409_15674)"/>
<path d="M86.067 172.097C86.0769 173.392 85.4164 174.46 84.5982 174.46C83.7799 174.47 83.1096 173.412 83.0997 172.116C83.0899 170.821 83.7504 169.753 84.5686 169.753C85.3868 169.743 86.067 170.791 86.067 172.097Z" fill="url(#paint69_linear_1409_15674)"/>
<path d="M92.1295 171.87C92.1394 173.165 91.4789 174.233 90.6607 174.233C89.8424 174.243 89.1721 173.185 89.1622 171.889C89.1524 170.584 89.8129 169.526 90.6311 169.526C91.4493 169.516 92.1197 170.564 92.1295 171.87Z" fill="url(#paint70_linear_1409_15674)"/>
<path d="M97.9166 171.583C97.9265 172.888 97.266 173.946 96.4478 173.946C95.6295 173.956 94.9592 172.898 94.9493 171.603C94.9395 170.307 95.6 169.239 96.4182 169.239C97.2364 169.229 97.9068 170.278 97.9166 171.583Z" fill="url(#paint71_linear_1409_15674)"/>
<path d="M103.782 171.237C103.792 172.532 103.131 173.6 102.313 173.6C101.495 173.61 100.824 172.552 100.815 171.257C100.805 169.951 101.465 168.893 102.283 168.893C103.102 168.883 103.772 169.931 103.782 171.237Z" fill="url(#paint72_linear_1409_15674)"/>
<path d="M109.844 170.999C109.854 172.295 109.194 173.363 108.376 173.363C107.557 173.373 106.887 172.315 106.877 171.019C106.867 169.724 107.528 168.656 108.346 168.656C109.164 168.656 109.835 169.704 109.844 170.999Z" fill="url(#paint73_linear_1409_15674)"/>
<path d="M116.745 170.574C116.755 171.869 116.094 172.937 115.276 172.937C114.458 172.947 113.787 171.889 113.777 170.594C113.768 169.298 114.428 168.23 115.246 168.23C116.065 168.23 116.745 169.279 116.745 170.574Z" fill="url(#paint74_linear_1409_15674)"/>
<path d="M122.503 170.535C122.512 171.83 121.852 172.898 121.034 172.898C120.215 172.908 119.545 171.85 119.535 170.555C119.525 169.259 120.186 168.191 121.004 168.191C121.822 168.191 122.493 169.24 122.503 170.535Z" fill="url(#paint75_linear_1409_15674)"/>
<path d="M128.378 170.198C128.387 171.494 127.727 172.562 126.909 172.562C126.09 172.571 125.41 171.513 125.41 170.218C125.4 168.913 126.061 167.855 126.879 167.855C127.697 167.845 128.368 168.893 128.378 170.198Z" fill="url(#paint76_linear_1409_15674)"/>
<path d="M134.243 169.852C134.253 171.148 133.592 172.216 132.774 172.216C131.956 172.226 131.285 171.168 131.275 169.872C131.266 168.577 131.926 167.509 132.744 167.509C133.563 167.499 134.233 168.547 134.243 169.852Z" fill="url(#paint77_linear_1409_15674)"/>
<path d="M140.305 169.615C140.315 170.91 139.655 171.978 138.836 171.978C138.018 171.988 137.348 170.93 137.338 169.635C137.328 168.339 137.989 167.271 138.807 167.271C139.625 167.271 140.295 168.32 140.305 169.615Z" fill="url(#paint78_linear_1409_15674)"/>
<path d="M146.092 169.328C146.102 170.624 145.442 171.692 144.624 171.692C143.805 171.702 143.125 170.644 143.125 169.348C143.115 168.053 143.776 166.985 144.594 166.985C145.412 166.985 146.083 168.033 146.092 169.328Z" fill="url(#paint79_linear_1409_15674)"/>
<path d="M151.958 168.992C151.968 170.288 151.307 171.355 150.489 171.355C149.671 171.365 148.99 170.307 148.99 169.012C148.98 167.716 149.641 166.649 150.459 166.649C151.277 166.639 151.948 167.687 151.958 168.992Z" fill="url(#paint80_linear_1409_15674)"/>
<path d="M158.02 168.755C158.03 170.05 157.37 171.118 156.551 171.118C155.733 171.128 155.053 170.07 155.053 168.775C155.043 167.469 155.703 166.411 156.522 166.411C157.34 166.411 158.01 167.459 158.02 168.755Z" fill="url(#paint81_linear_1409_15674)"/>
<path d="M2.70579 191.053C2.69594 192.349 2.01572 193.407 1.1975 193.397C0.379269 193.387 -0.281234 192.329 -0.271375 191.034C-0.261517 189.738 0.418695 188.68 1.23692 188.69C2.06501 188.7 2.71565 189.758 2.70579 191.053Z" fill="url(#paint82_linear_1409_15674)"/>
<path d="M8.58078 190.796C8.57092 192.091 7.89071 193.15 7.07248 193.14C6.25425 193.13 5.59377 192.072 5.60362 190.776C5.61348 189.481 6.29369 188.423 7.11192 188.433C7.93015 188.443 8.59064 189.501 8.58078 190.796Z" fill="url(#paint83_linear_1409_15674)"/>
<path d="M14.6433 190.658C14.6334 191.953 13.9532 193.011 13.135 193.001C12.3168 192.992 11.6563 191.934 11.6661 190.638C11.676 189.343 12.3562 188.285 13.1744 188.295C13.9926 188.304 14.6532 189.362 14.6433 190.658Z" fill="url(#paint84_linear_1409_15674)"/>
<path d="M20.4304 190.46C20.4205 191.756 19.7403 192.814 18.9221 192.804C18.1039 192.794 17.4434 191.736 17.4532 190.44C17.4631 189.145 18.1433 188.087 18.9615 188.097C19.7896 188.097 20.4403 189.165 20.4304 190.46Z" fill="url(#paint85_linear_1409_15674)"/>
<path d="M26.3054 190.203C26.2955 191.499 25.6153 192.557 24.7971 192.547C23.9789 192.537 23.3184 191.479 23.3282 190.184C23.3381 188.888 24.0183 187.83 24.8365 187.84C25.6548 187.84 26.3153 188.908 26.3054 190.203Z" fill="url(#paint86_linear_1409_15674)"/>
<path d="M32.3679 190.065C32.358 191.36 31.6778 192.418 30.8596 192.408C30.0414 192.398 29.3809 191.34 29.3907 190.045C29.4006 188.749 30.0808 187.691 30.899 187.701C31.7173 187.711 32.3778 188.759 32.3679 190.065Z" fill="url(#paint87_linear_1409_15674)"/>
<path d="M39.28 189.738C39.2701 191.033 38.5899 192.091 37.7717 192.082C36.9535 192.072 36.293 191.014 36.3028 189.718C36.3127 188.423 36.9929 187.365 37.8111 187.375C38.6294 187.384 39.2899 188.443 39.28 189.738Z" fill="url(#paint88_linear_1409_15674)"/>
<path d="M45.0378 189.787C45.028 191.083 44.3477 192.141 43.5295 192.131C42.7113 192.121 42.0508 191.063 42.0607 189.768C42.0705 188.472 42.7507 187.414 43.569 187.424C44.3872 187.434 45.0477 188.492 45.0378 189.787Z" fill="url(#paint89_linear_1409_15674)"/>
<path d="M50.9128 189.53C50.903 190.826 50.2228 191.884 49.4045 191.874C48.5863 191.864 47.9258 190.806 47.9357 189.511C47.9455 188.215 48.6257 187.157 49.444 187.167C50.2622 187.177 50.9227 188.235 50.9128 189.53Z" fill="url(#paint90_linear_1409_15674)"/>
</g>
<path d="M664.515 79.5807C689.245 54.5815 687.291 77.5677 687.291 77.5677C687.291 77.5677 777.387 16.9051 803.216 19.1007C825.371 20.9839 813.782 55.3004 813.782 55.3004C863.303 24.6356 869.6 20.8363 890.38 22.363C899.871 23.0655 927.973 29.518 927.973 29.518L927.463 36.7371C777.411 80.7062 567.7 93.5551 465.022 84.8269C490.029 86.9527 532.485 79.2147 586.963 66.6012C630.106 56.6188 664.515 79.5807 664.515 79.5807Z" fill="#D3E1FD"/>
<path d="M465.021 84.8267C448.573 85.7312 439.587 85.405 439.587 85.405C439.587 85.405 448.818 85.2727 465.021 84.8267Z" fill="#E1ECFD"/>
<path fill-rule="evenodd" clip-rule="evenodd" d="M927.463 36.7373C927.463 36.7373 734.326 94.0175 439.588 85.4055C439.588 85.4055 665.943 105.709 926.796 44.5787L927.463 36.7373V36.7373Z" fill="#ABC0ED"/>
<path fill-rule="evenodd" clip-rule="evenodd" d="M803.217 19.1007C820.007 24.6333 803.042 53.6163 790.783 60.6807C778.525 67.7346 692.865 73.8841 692.865 73.8841C692.865 73.8841 785.913 13.3995 803.217 19.1007Z" fill="white"/>
<path fill-rule="evenodd" clip-rule="evenodd" d="M683.774 68.2454C685.865 68.8191 679.125 78.3115 679.125 78.3115L664.527 79.5713C664.516 79.5807 677.196 66.4672 683.774 68.2454Z" fill="white"/>
<path fill-rule="evenodd" clip-rule="evenodd" d="M613.412 64.1816C639.639 65.9422 648.124 74.3427 648.124 74.3427C648.124 74.3427 600.403 81.1538 559.734 83.6776C519.065 86.2014 491.221 84.741 491.221 84.741C491.221 84.741 582.683 62.1218 613.412 64.1816Z" fill="white"/>
<path fill-rule="evenodd" clip-rule="evenodd" d="M656.589 77.615C656.589 77.615 642.752 71.1457 625.843 81.472C625.843 81.472 644.285 80.5911 656.589 77.615Z" fill="white"/>
<path fill-rule="evenodd" clip-rule="evenodd" d="M685.432 74.3883C685.432 74.3883 682.374 74.1283 680.947 78.154L686.812 77.6106L685.432 74.3883Z" fill="white"/>
<path d="M239 75.4204C239 75.4204 225.441 69.2798 223.335 69.2798C221.229 69.2798 209.096 71.5046 209.096 71.5046L206.068 70.8149C205.791 71.2728 205.413 71.6596 204.964 71.9452C204.515 72.2307 204.007 72.4074 203.479 72.4613C201.285 72.9285 195.537 67.7224 192.751 68.0116C189.964 68.3009 182 72.7505 182 72.7505L193.672 71.7939C196.48 71.5491 200.451 75.5761 200.451 75.5761L198.587 77C198.587 77 217.565 72.8173 224.037 72.3501C229.171 72.4035 234.249 73.4454 239 75.4204V75.4204Z" fill="url(#paint91_linear_1409_15674)"/>
<path d="M172 49C166.95 49.0773 161.911 49.499 156.918 50.2622C155.172 51.0905 146.163 57.5592 146.163 57.5592L143.424 58.1508C143.38 58.6313 143.225 59.0952 142.97 59.5059C142.715 59.9166 142.368 60.2628 141.956 60.5174C140.447 61.7007 134.018 55.6659 131.914 56.9281C129.811 58.1903 121 62.1346 121 62.1346C125.453 61.7113 129.853 60.8526 134.137 59.5708C136.32 58.3086 140.686 64.1462 140.686 64.1462L139.733 66C139.733 66 153.545 55.3503 158.665 52.4316C162.847 50.448 167.375 49.283 172 49V49Z" fill="url(#paint92_linear_1409_15674)"/>
<path d="M620 35.5997C620 35.5997 635.36 29 640.552 29C645.745 29 659.365 35.5997 659.365 35.5997C659.365 35.5997 652.432 37.7996 659.365 37.5408C666.297 37.282 683.098 33.3998 688.019 33.3998C692.939 33.3998 708 40.2842 708 40.2842C708 40.2842 674.997 38.0843 668.336 40.2842C661.676 42.4841 647.213 41.9406 647.213 41.9406C647.213 41.9406 654.743 36.4279 653.302 35.5997C642.494 32.1699 630.809 32.1699 620 35.5997V35.5997Z" fill="url(#paint93_linear_1409_15674)"/>
<path d="M550 173C550 173 568.469 154.899 572.815 154.003C577.16 153.108 603.343 151.29 603.343 151.29L609.291 148.359C610.07 149.17 611.029 149.787 612.091 150.159C613.152 150.532 614.287 150.649 615.402 150.503C619.993 150.503 629.58 136.934 635.474 136.092C641.368 135.251 660 140.434 660 140.434C660 140.434 641.286 143.311 635.365 144.179C629.444 145.048 623.17 155.225 623.17 155.225L627.706 157.206C627.706 157.206 593.647 157.206 579.877 159.35C566.106 161.493 550 173 550 173Z" fill="url(#paint94_linear_1409_15674)"/>
<path d="M699.776 203.259C746.845 190.948 894.389 189.078 962.277 189.681L1242.88 158L1282.71 292.871L507.879 368L496.112 203.259C506.974 200.845 536.664 194.75 568.526 189.681C608.353 183.345 640.94 218.647 699.776 203.259Z" fill="#2B69C5"/>
<path d="M1150.13 206.141C1227.54 177.153 1346.96 194.063 1397 206.141L1349.98 300.352C1012.98 317.866 346.393 332.783 376.054 252.341C413.13 151.788 579.52 217.918 635.586 221.541C691.652 225.165 775.751 206.141 835.434 200.706C895.118 195.271 1053.37 242.376 1150.13 206.141Z" fill="#51A7E4"/>
<path d="M1259.01 221.411C1306.77 229.392 1348.25 218.085 1363.02 211.434L1386.54 235.923L1259.01 311.203L669.302 303.947L463.989 235.923C618.652 190.573 705.48 211.434 769.697 244.993C833.914 278.551 937.023 233.202 1023.85 211.434C1110.68 189.666 1199.32 211.434 1259.01 221.411Z" fill="#62C7EA"/>
<path d="M98.2239 203.259C51.1548 190.948 -96.3888 189.078 -164.277 189.681L-444.881 158L-484.709 292.871L290.121 368L301.888 203.259C291.026 200.845 261.336 194.75 229.474 189.681C189.647 183.345 157.06 218.647 98.2239 203.259Z" fill="#2B69C5"/>
<path d="M-352.128 206.141C-429.536 177.153 -548.962 194.063 -599 206.141L-551.977 300.352C-214.977 317.866 451.607 332.783 421.946 252.341C384.87 151.788 218.48 217.918 162.414 221.541C106.348 225.165 22.249 206.141 -37.4343 200.706C-97.1176 195.271 -255.369 242.376 -352.128 206.141Z" fill="#51A7E4"/>
<path d="M-461.012 221.411C-508.767 229.392 -550.252 218.085 -565.025 211.434L-588.541 235.923L-461.012 311.203L128.698 303.947L334.011 235.923C179.348 190.573 92.5197 211.434 28.3029 244.993C-35.9141 278.551 -139.023 233.202 -225.851 211.434C-312.68 189.666 -401.317 211.434 -461.012 221.411Z" fill="#62C7EA"/>
</g>
<defs>
<filter id="filter0_d_1409_15674" x="-147" y="-39" width="476" height="282.009" filterUnits="userSpaceOnUse" color-interpolation-filters="sRGB">
<feFlood flood-opacity="0" result="BackgroundImageFix"/>
<feColorMatrix in="SourceAlpha" type="matrix" values="0 0 0 0 0 0 0 0 0 0 0 0 0 0 0 0 0 0 127 0" result="hardAlpha"/>
<feOffset dx="26" dy="-9"/>
<feGaussianBlur stdDeviation="21"/>
<feComposite in2="hardAlpha" operator="out"/>
<feColorMatrix type="matrix" values="0 0 0 0 0.215686 0 0 0 0 0.458824 0 0 0 0 0.819608 0 0 0 0.1 0"/>
<feBlend mode="normal" in2="BackgroundImageFix" result="effect1_dropShadow_1409_15674"/>
<feBlend mode="normal" in="SourceGraphic" in2="effect1_dropShadow_1409_15674" result="shape"/>
</filter>
<linearGradient id="paint0_linear_1409_15674" x1="-44.047" y1="55.207" x2="18.8729" y2="52.4162" gradientUnits="userSpaceOnUse">
<stop stop-color="#CFEEFA"/>
<stop offset="1" stop-color="white"/>
</linearGradient>
<linearGradient id="paint1_linear_1409_15674" x1="-43.4859" y1="67.8804" x2="19.4342" y2="65.0895" gradientUnits="userSpaceOnUse">
<stop stop-color="#CFEEFA"/>
<stop offset="1" stop-color="white"/>
</linearGradient>
<linearGradient id="paint2_linear_1409_15674" x1="58.6026" y1="41.4242" x2="-10.2856" y2="70.9045" gradientUnits="userSpaceOnUse">
<stop/>
<stop offset="1" stop-color="#D9FF5E"/>
</linearGradient>
<linearGradient id="paint3_linear_1409_15674" x1="-143.943" y1="140.381" x2="249.555" y2="89.6156" gradientUnits="userSpaceOnUse">
<stop stop-color="#CFEEFA"/>
<stop offset="1" stop-color="white"/>
</linearGradient>
<linearGradient id="paint4_linear_1409_15674" x1="-93.0392" y1="87.4166" x2="94.1541" y2="87.4166" gradientUnits="userSpaceOnUse">
<stop stop-color="#1261AA"/>
<stop offset="1" stop-color="#14CDCD"/>
</linearGradient>
<linearGradient id="paint5_linear_1409_15674" x1="19.6618" y1="103.277" x2="2.09204" y2="142.229" gradientUnits="userSpaceOnUse">
<stop stop-color="#9FFF9A"/>
<stop offset="1" stop-color="#00A490"/>
</linearGradient>
<linearGradient id="paint6_linear_1409_15674" x1="-118.975" y1="141.236" x2="122.999" y2="141.236" gradientUnits="userSpaceOnUse">
<stop stop-color="#1261AA"/>
<stop offset="1" stop-color="#14CDCD"/>
</linearGradient>
<linearGradient id="paint7_linear_1409_15674" x1="31.0128" y1="157.341" x2="117.142" y2="111.96" gradientUnits="userSpaceOnUse">
<stop/>
<stop offset="1" stop-color="#D9FF5E"/>
</linearGradient>
<linearGradient id="paint8_linear_1409_15674" x1="9.93039" y1="135.701" x2="119.541" y2="135.701" gradientUnits="userSpaceOnUse">
<stop stop-color="#1261AA"/>
<stop offset="1" stop-color="#14CDCD"/>
</linearGradient>
<linearGradient id="paint9_linear_1409_15674" x1="110.1" y1="138.304" x2="113.518" y2="137.336" gradientUnits="userSpaceOnUse">
<stop stop-color="#CFEEFA"/>
<stop offset="1" stop-color="white"/>
</linearGradient>
<linearGradient id="paint10_linear_1409_15674" x1="103.167" y1="139.448" x2="109.996" y2="138.16" gradientUnits="userSpaceOnUse">
<stop stop-color="#CFEEFA"/>
<stop offset="1" stop-color="white"/>
</linearGradient>
<linearGradient id="paint11_linear_1409_15674" x1="97.6074" y1="139.127" x2="100.56" y2="138.439" gradientUnits="userSpaceOnUse">
<stop stop-color="#CFEEFA"/>
<stop offset="1" stop-color="white"/>
</linearGradient>
<linearGradient id="paint12_linear_1409_15674" x1="85.3474" y1="140.349" x2="92.0363" y2="139.64" gradientUnits="userSpaceOnUse">
<stop stop-color="#CFEEFA"/>
<stop offset="1" stop-color="white"/>
</linearGradient>
<linearGradient id="paint13_linear_1409_15674" x1="74.8298" y1="140.761" x2="79.7055" y2="140.382" gradientUnits="userSpaceOnUse">
<stop stop-color="#CFEEFA"/>
<stop offset="1" stop-color="white"/>
</linearGradient>
<linearGradient id="paint14_linear_1409_15674" x1="66.1499" y1="141.055" x2="69.2312" y2="140.802" gradientUnits="userSpaceOnUse">
<stop stop-color="#CFEEFA"/>
<stop offset="1" stop-color="white"/>
</linearGradient>
<linearGradient id="paint15_linear_1409_15674" x1="33.457" y1="141.933" x2="36.0038" y2="141.823" gradientUnits="userSpaceOnUse">
<stop stop-color="#CFEEFA"/>
<stop offset="1" stop-color="white"/>
</linearGradient>
<linearGradient id="paint16_linear_1409_15674" x1="20.8416" y1="142.012" x2="24.9003" y2="142.065" gradientUnits="userSpaceOnUse">
<stop stop-color="#CFEEFA"/>
<stop offset="1" stop-color="white"/>
</linearGradient>
<linearGradient id="paint17_linear_1409_15674" x1="-1.37369" y1="142.919" x2="3.71976" y2="143.095" gradientUnits="userSpaceOnUse">
<stop stop-color="#CFEEFA"/>
<stop offset="1" stop-color="white"/>
</linearGradient>
<linearGradient id="paint18_linear_1409_15674" x1="-116.911" y1="125.05" x2="108.346" y2="132.825" gradientUnits="userSpaceOnUse">
<stop stop-color="#CFEEFA"/>
<stop offset="1" stop-color="white"/>
</linearGradient>
<linearGradient id="paint19_linear_1409_15674" x1="-117.126" y1="132.174" x2="111.611" y2="140.069" gradientUnits="userSpaceOnUse">
<stop stop-color="#CFEEFA"/>
<stop offset="1" stop-color="white"/>
</linearGradient>
<linearGradient id="paint20_linear_1409_15674" x1="-112.675" y1="140.248" x2="116.063" y2="148.143" gradientUnits="userSpaceOnUse">
<stop stop-color="#CFEEFA"/>
<stop offset="1" stop-color="white"/>
</linearGradient>
<linearGradient id="paint21_linear_1409_15674" x1="-109.39" y1="147.605" x2="119.347" y2="155.5" gradientUnits="userSpaceOnUse">
<stop stop-color="#CFEEFA"/>
<stop offset="1" stop-color="white"/>
</linearGradient>
<linearGradient id="paint22_linear_1409_15674" x1="132.76" y1="118.248" x2="143.029" y2="167.26" gradientUnits="userSpaceOnUse">
<stop stop-color="#9FFF9A"/>
<stop offset="1" stop-color="#00A490"/>
</linearGradient>
<linearGradient id="paint23_linear_1409_15674" x1="114.822" y1="137.852" x2="158.848" y2="137.852" gradientUnits="userSpaceOnUse">
<stop stop-color="#1261AA"/>
<stop offset="1" stop-color="#14CDCD"/>
</linearGradient>
<linearGradient id="paint24_linear_1409_15674" x1="-93.039" y1="88.3264" x2="74.1525" y2="88.3264" gradientUnits="userSpaceOnUse">
<stop stop-color="#1261AA"/>
<stop offset="1" stop-color="#14CDCD"/>
</linearGradient>
<linearGradient id="paint25_linear_1409_15674" x1="17.5443" y1="82.6733" x2="89.1003" y2="85.143" gradientUnits="userSpaceOnUse">
<stop/>
<stop offset="1" stop-color="#D9FF5E"/>
</linearGradient>
<linearGradient id="paint26_linear_1409_15674" x1="17.7492" y1="84.3495" x2="88.7267" y2="84.3495" gradientUnits="userSpaceOnUse">
<stop stop-color="#1261AA"/>
<stop offset="1" stop-color="#14CDCD"/>
</linearGradient>
<linearGradient id="paint27_linear_1409_15674" x1="-74.9905" y1="67.9971" x2="86.358" y2="73.5659" gradientUnits="userSpaceOnUse">
<stop stop-color="#CFEEFA"/>
<stop offset="1" stop-color="white"/>
</linearGradient>
<linearGradient id="paint28_linear_1409_15674" x1="-67.0456" y1="85.3945" x2="25.3477" y2="80.0298" gradientUnits="userSpaceOnUse">
<stop stop-color="#CFEEFA"/>
<stop offset="1" stop-color="white"/>
</linearGradient>
<linearGradient id="paint29_linear_1409_15674" x1="-67.1156" y1="84.3467" x2="25.2907" y2="78.9813" gradientUnits="userSpaceOnUse">
<stop stop-color="#CFEEFA"/>
<stop offset="1" stop-color="white"/>
</linearGradient>
<linearGradient id="paint30_linear_1409_15674" x1="-67.0641" y1="85.1649" x2="25.3398" y2="79.7995" gradientUnits="userSpaceOnUse">
<stop stop-color="#CFEEFA"/>
<stop offset="1" stop-color="white"/>
</linearGradient>
<linearGradient id="paint31_linear_1409_15674" x1="-67.0801" y1="84.8899" x2="25.3241" y2="79.5246" gradientUnits="userSpaceOnUse">
<stop stop-color="#CFEEFA"/>
<stop offset="1" stop-color="white"/>
</linearGradient>
<linearGradient id="paint32_linear_1409_15674" x1="-67.1178" y1="84.3548" x2="25.2941" y2="78.989" gradientUnits="userSpaceOnUse">
<stop stop-color="#CFEEFA"/>
<stop offset="1" stop-color="white"/>
</linearGradient>
<linearGradient id="paint33_linear_1409_15674" x1="-67.1028" y1="84.5301" x2="25.3065" y2="79.1645" gradientUnits="userSpaceOnUse">
<stop stop-color="#CFEEFA"/>
<stop offset="1" stop-color="white"/>
</linearGradient>
<linearGradient id="paint34_linear_1409_15674" x1="-67.1352" y1="83.9785" x2="25.2738" y2="78.6128" gradientUnits="userSpaceOnUse">
<stop stop-color="#CFEEFA"/>
<stop offset="1" stop-color="white"/>
</linearGradient>
<linearGradient id="paint35_linear_1409_15674" x1="-67.1489" y1="83.8064" x2="25.2637" y2="78.4405" gradientUnits="userSpaceOnUse">
<stop stop-color="#CFEEFA"/>
<stop offset="1" stop-color="white"/>
</linearGradient>
<linearGradient id="paint36_linear_1409_15674" x1="-67.1498" y1="83.798" x2="25.2643" y2="78.432" gradientUnits="userSpaceOnUse">
<stop stop-color="#CFEEFA"/>
<stop offset="1" stop-color="white"/>
</linearGradient>
<linearGradient id="paint37_linear_1409_15674" x1="-57.7193" y1="103.152" x2="34.68" y2="97.7873" gradientUnits="userSpaceOnUse">
<stop stop-color="#CFEEFA"/>
<stop offset="1" stop-color="white"/>
</linearGradient>
<linearGradient id="paint38_linear_1409_15674" x1="-57.691" y1="103.614" x2="34.7082" y2="98.2485" gradientUnits="userSpaceOnUse">
<stop stop-color="#CFEEFA"/>
<stop offset="1" stop-color="white"/>
</linearGradient>
<linearGradient id="paint39_linear_1409_15674" x1="-57.7565" y1="102.566" x2="34.65" y2="97.2" gradientUnits="userSpaceOnUse">
<stop stop-color="#CFEEFA"/>
<stop offset="1" stop-color="white"/>
</linearGradient>
<linearGradient id="paint40_linear_1409_15674" x1="-57.7092" y1="103.384" x2="34.6993" y2="98.0183" gradientUnits="userSpaceOnUse">
<stop stop-color="#CFEEFA"/>
<stop offset="1" stop-color="white"/>
</linearGradient>
<linearGradient id="paint41_linear_1409_15674" x1="-57.723" y1="103.109" x2="34.685" y2="97.7433" gradientUnits="userSpaceOnUse">
<stop stop-color="#CFEEFA"/>
<stop offset="1" stop-color="white"/>
</linearGradient>
<linearGradient id="paint42_linear_1409_15674" x1="-57.755" y1="102.573" x2="34.6543" y2="97.2078" gradientUnits="userSpaceOnUse">
<stop stop-color="#CFEEFA"/>
<stop offset="1" stop-color="white"/>
</linearGradient>
<linearGradient id="paint43_linear_1409_15674" x1="-57.7468" y1="102.749" x2="34.6651" y2="97.3834" gradientUnits="userSpaceOnUse">
<stop stop-color="#CFEEFA"/>
<stop offset="1" stop-color="white"/>
</linearGradient>
<linearGradient id="paint44_linear_1409_15674" x1="-57.7741" y1="102.198" x2="34.6351" y2="96.8321" gradientUnits="userSpaceOnUse">
<stop stop-color="#CFEEFA"/>
<stop offset="1" stop-color="white"/>
</linearGradient>
<linearGradient id="paint45_linear_1409_15674" x1="-57.7879" y1="102.025" x2="34.6248" y2="96.6594" gradientUnits="userSpaceOnUse">
<stop stop-color="#CFEEFA"/>
<stop offset="1" stop-color="white"/>
</linearGradient>
<linearGradient id="paint46_linear_1409_15674" x1="-57.7905" y1="102.017" x2="34.6236" y2="96.6508" gradientUnits="userSpaceOnUse">
<stop stop-color="#CFEEFA"/>
<stop offset="1" stop-color="white"/>
</linearGradient>
<linearGradient id="paint47_linear_1409_15674" x1="-92.3687" y1="88.1596" x2="84.0449" y2="94.2484" gradientUnits="userSpaceOnUse">
<stop stop-color="#CFEEFA"/>
<stop offset="1" stop-color="white"/>
</linearGradient>
<linearGradient id="paint48_linear_1409_15674" x1="77.8448" y1="87.5278" x2="-150.094" y2="162.531" gradientUnits="userSpaceOnUse">
<stop stop-color="#9FFF9A"/>
<stop offset="1" stop-color="#00A490"/>
</linearGradient>
<linearGradient id="paint49_linear_1409_15674" x1="-116.077" y1="110.668" x2="106.063" y2="110.668" gradientUnits="userSpaceOnUse">
<stop stop-color="#1261AA"/>
<stop offset="1" stop-color="#14CDCD"/>
</linearGradient>
<linearGradient id="paint50_linear_1409_15674" x1="5.42594" y1="111.675" x2="8.61966" y2="111.786" gradientUnits="userSpaceOnUse">
<stop stop-color="#CFEEFA"/>
<stop offset="1" stop-color="white"/>
</linearGradient>
<linearGradient id="paint51_linear_1409_15674" x1="37.0957" y1="109.95" x2="41.5718" y2="110.104" gradientUnits="userSpaceOnUse">
<stop stop-color="#CFEEFA"/>
<stop offset="1" stop-color="white"/>
</linearGradient>
<linearGradient id="paint52_linear_1409_15674" x1="48.1276" y1="109.362" x2="52.6864" y2="109.52" gradientUnits="userSpaceOnUse">
<stop stop-color="#CFEEFA"/>
<stop offset="1" stop-color="white"/>
</linearGradient>
<linearGradient id="paint53_linear_1409_15674" x1="88.1271" y1="108.214" x2="89.518" y2="107.853" gradientUnits="userSpaceOnUse">
<stop stop-color="#CFEEFA"/>
<stop offset="1" stop-color="white"/>
</linearGradient>
<linearGradient id="paint54_linear_1409_15674" x1="78.6003" y1="108.444" x2="80.0124" y2="108.173" gradientUnits="userSpaceOnUse">
<stop stop-color="#CFEEFA"/>
<stop offset="1" stop-color="white"/>
</linearGradient>
<linearGradient id="paint55_linear_1409_15674" x1="94.8253" y1="107.632" x2="98.0361" y2="106.939" gradientUnits="userSpaceOnUse">
<stop stop-color="#CFEEFA"/>
<stop offset="1" stop-color="white"/>
</linearGradient>
<linearGradient id="paint56_linear_1409_15674" x1="28.214" y1="110.442" x2="29.7689" y2="110.353" gradientUnits="userSpaceOnUse">
<stop stop-color="#CFEEFA"/>
<stop offset="1" stop-color="white"/>
</linearGradient>
<linearGradient id="paint57_linear_1409_15674" x1="16.3587" y1="111.599" x2="17.6344" y2="111.559" gradientUnits="userSpaceOnUse">
<stop stop-color="#CFEEFA"/>
<stop offset="1" stop-color="white"/>
</linearGradient>
<linearGradient id="paint58_linear_1409_15674" x1="-113.847" y1="108.639" x2="99.9247" y2="116.017" gradientUnits="userSpaceOnUse">
<stop stop-color="#CFEEFA"/>
<stop offset="1" stop-color="white"/>
</linearGradient>
<linearGradient id="paint59_linear_1409_15674" x1="-114.411" y1="110.505" x2="95.4955" y2="110.505" gradientUnits="userSpaceOnUse">
<stop stop-color="#1261AA"/>
<stop offset="1" stop-color="#14CDCD"/>
</linearGradient>
<linearGradient id="paint60_linear_1409_15674" x1="26.6741" y1="127.055" x2="103.631" y2="86.5059" gradientUnits="userSpaceOnUse">
<stop/>
<stop offset="1" stop-color="#D9FF5E"/>
</linearGradient>
<linearGradient id="paint61_linear_1409_15674" x1="9.68447" y1="108.106" x2="104.213" y2="108.106" gradientUnits="userSpaceOnUse">
<stop stop-color="#1261AA"/>
<stop offset="1" stop-color="#14CDCD"/>
</linearGradient>
<linearGradient id="paint62_linear_1409_15674" x1="-118.208" y1="133.279" x2="107.757" y2="133.279" gradientUnits="userSpaceOnUse">
<stop stop-color="#1261AA"/>
<stop offset="1" stop-color="#14CDCD"/>
</linearGradient>
<linearGradient id="paint63_linear_1409_15674" x1="65.4741" y1="157.502" x2="66.6276" y2="190.601" gradientUnits="userSpaceOnUse">
<stop stop-color="#CFEEFA"/>
<stop offset="1" stop-color="white"/>
</linearGradient>
<linearGradient id="paint64_linear_1409_15674" x1="123.922" y1="167.143" x2="252.687" y2="156.528" gradientUnits="userSpaceOnUse">
<stop/>
<stop offset="1" stop-color="#D0FFEE"/>
</linearGradient>
<linearGradient id="paint65_linear_1409_15674" x1="190.544" y1="184.607" x2="190.272" y2="217.31" gradientUnits="userSpaceOnUse">
<stop/>
<stop offset="1" stop-color="#D0FFEE"/>
</linearGradient>
<linearGradient id="paint66_linear_1409_15674" x1="160.362" y1="139.231" x2="40.8831" y2="182.008" gradientUnits="userSpaceOnUse">
<stop stop-color="#9FFF9A"/>
<stop offset="1" stop-color="#00A490"/>
</linearGradient>
<linearGradient id="paint67_linear_1409_15674" x1="161.009" y1="141.034" x2="41.5293" y2="183.811" gradientUnits="userSpaceOnUse">
<stop stop-color="#9FFF9A"/>
<stop offset="1" stop-color="#00A490"/>
</linearGradient>
<linearGradient id="paint68_linear_1409_15674" x1="161.571" y1="142.603" x2="42.0908" y2="185.381" gradientUnits="userSpaceOnUse">
<stop stop-color="#9FFF9A"/>
<stop offset="1" stop-color="#00A490"/>
</linearGradient>
<linearGradient id="paint69_linear_1409_15674" x1="162.132" y1="144.17" x2="42.6519" y2="186.948" gradientUnits="userSpaceOnUse">
<stop stop-color="#9FFF9A"/>
<stop offset="1" stop-color="#00A490"/>
</linearGradient>
<linearGradient id="paint70_linear_1409_15674" x1="162.75" y1="145.899" x2="43.2706" y2="188.677" gradientUnits="userSpaceOnUse">
<stop stop-color="#9FFF9A"/>
<stop offset="1" stop-color="#00A490"/>
</linearGradient>
<linearGradient id="paint71_linear_1409_15674" x1="163.321" y1="147.491" x2="43.8412" y2="190.269" gradientUnits="userSpaceOnUse">
<stop stop-color="#9FFF9A"/>
<stop offset="1" stop-color="#00A490"/>
</linearGradient>
<linearGradient id="paint72_linear_1409_15674" x1="163.882" y1="149.059" x2="44.4022" y2="191.837" gradientUnits="userSpaceOnUse">
<stop stop-color="#9FFF9A"/>
<stop offset="1" stop-color="#00A490"/>
</linearGradient>
<linearGradient id="paint73_linear_1409_15674" x1="164.501" y1="150.788" x2="45.0214" y2="193.565" gradientUnits="userSpaceOnUse">
<stop stop-color="#9FFF9A"/>
<stop offset="1" stop-color="#00A490"/>
</linearGradient>
<linearGradient id="paint74_linear_1409_15674" x1="165.154" y1="152.613" x2="45.6752" y2="195.391" gradientUnits="userSpaceOnUse">
<stop stop-color="#9FFF9A"/>
<stop offset="1" stop-color="#00A490"/>
</linearGradient>
<linearGradient id="paint75_linear_1409_15674" x1="165.801" y1="154.417" x2="46.3213" y2="197.194" gradientUnits="userSpaceOnUse">
<stop stop-color="#9FFF9A"/>
<stop offset="1" stop-color="#00A490"/>
</linearGradient>
<linearGradient id="paint76_linear_1409_15674" x1="166.363" y1="155.984" x2="46.881" y2="198.763" gradientUnits="userSpaceOnUse">
<stop stop-color="#9FFF9A"/>
<stop offset="1" stop-color="#00A490"/>
</linearGradient>
<linearGradient id="paint77_linear_1409_15674" x1="166.924" y1="157.552" x2="47.443" y2="200.33" gradientUnits="userSpaceOnUse">
<stop stop-color="#9FFF9A"/>
<stop offset="1" stop-color="#00A490"/>
</linearGradient>
<linearGradient id="paint78_linear_1409_15674" x1="167.542" y1="159.281" x2="48.0633" y2="202.059" gradientUnits="userSpaceOnUse">
<stop stop-color="#9FFF9A"/>
<stop offset="1" stop-color="#00A490"/>
</linearGradient>
<linearGradient id="paint79_linear_1409_15674" x1="168.113" y1="160.874" x2="48.6315" y2="203.652" gradientUnits="userSpaceOnUse">
<stop stop-color="#9FFF9A"/>
<stop offset="1" stop-color="#00A490"/>
</linearGradient>
<linearGradient id="paint80_linear_1409_15674" x1="168.674" y1="162.441" x2="49.1921" y2="205.22" gradientUnits="userSpaceOnUse">
<stop stop-color="#9FFF9A"/>
<stop offset="1" stop-color="#00A490"/>
</linearGradient>
<linearGradient id="paint81_linear_1409_15674" x1="169.293" y1="164.17" x2="49.8113" y2="206.948" gradientUnits="userSpaceOnUse">
<stop stop-color="#9FFF9A"/>
<stop offset="1" stop-color="#00A490"/>
</linearGradient>
<linearGradient id="paint82_linear_1409_15674" x1="10.9046" y1="238.651" x2="9.06328" y2="229.656" gradientUnits="userSpaceOnUse">
<stop stop-color="#9FFF9A"/>
<stop offset="1" stop-color="#00A490"/>
</linearGradient>
<linearGradient id="paint83_linear_1409_15674" x1="16.5922" y1="237.487" x2="14.7511" y2="228.491" gradientUnits="userSpaceOnUse">
<stop stop-color="#9FFF9A"/>
<stop offset="1" stop-color="#00A490"/>
</linearGradient>
<linearGradient id="paint84_linear_1409_15674" x1="22.4396" y1="236.29" x2="20.5984" y2="227.295" gradientUnits="userSpaceOnUse">
<stop stop-color="#9FFF9A"/>
<stop offset="1" stop-color="#00A490"/>
</linearGradient>
<linearGradient id="paint85_linear_1409_15674" x1="28.0366" y1="235.143" x2="26.1954" y2="226.148" gradientUnits="userSpaceOnUse">
<stop stop-color="#9FFF9A"/>
<stop offset="1" stop-color="#00A490"/>
</linearGradient>
<linearGradient id="paint86_linear_1409_15674" x1="33.7245" y1="233.98" x2="31.8833" y2="224.985" gradientUnits="userSpaceOnUse">
<stop stop-color="#9FFF9A"/>
<stop offset="1" stop-color="#00A490"/>
</linearGradient>
<linearGradient id="paint87_linear_1409_15674" x1="39.5719" y1="232.783" x2="37.7306" y2="223.788" gradientUnits="userSpaceOnUse">
<stop stop-color="#9FFF9A"/>
<stop offset="1" stop-color="#00A490"/>
</linearGradient>
<linearGradient id="paint88_linear_1409_15674" x1="46.2703" y1="231.412" x2="44.4291" y2="222.417" gradientUnits="userSpaceOnUse">
<stop stop-color="#9FFF9A"/>
<stop offset="1" stop-color="#00A490"/>
</linearGradient>
<linearGradient id="paint89_linear_1409_15674" x1="51.7875" y1="230.283" x2="49.9463" y2="221.287" gradientUnits="userSpaceOnUse">
<stop stop-color="#9FFF9A"/>
<stop offset="1" stop-color="#00A490"/>
</linearGradient>
<linearGradient id="paint90_linear_1409_15674" x1="57.4786" y1="229.118" x2="55.6373" y2="220.123" gradientUnits="userSpaceOnUse">
<stop stop-color="#9FFF9A"/>
<stop offset="1" stop-color="#00A490"/>
</linearGradient>
<linearGradient id="paint91_linear_1409_15674" x1="210.57" y1="69.4539" x2="210.498" y2="77" gradientUnits="userSpaceOnUse">
<stop stop-color="#ABC0ED"/>
<stop offset="1" stop-color="#ABC0ED" stop-opacity="0"/>
</linearGradient>
<linearGradient id="paint92_linear_1409_15674" x1="146.563" y1="51.7462" x2="146.276" y2="65.9955" gradientUnits="userSpaceOnUse">
<stop stop-color="#ABC0ED"/>
<stop offset="1" stop-color="#ABC0ED" stop-opacity="0"/>
</linearGradient>
<linearGradient id="paint93_linear_1409_15674" x1="663.892" y1="31.1" x2="663.989" y2="42.0001" gradientUnits="userSpaceOnUse">
<stop stop-color="#ABC0ED"/>
<stop offset="1" stop-color="#ABC0ED" stop-opacity="0"/>
</linearGradient>
<linearGradient id="paint94_linear_1409_15674" x1="599.943" y1="148.091" x2="605.095" y2="173.082" gradientUnits="userSpaceOnUse">
<stop stop-color="#ABC0ED"/>
<stop offset="0.958061" stop-color="#ABC0ED" stop-opacity="0"/>
</linearGradient>
<clipPath id="clip0_1409_15674">
<rect width="797" height="230" fill="white"/>
</clipPath>
</defs>
</svg>
