<svg width="24" height="21" viewBox="0 0 24 21" fill="none" xmlns="http://www.w3.org/2000/svg">
<path d="M23.506 19.9771H0.780273V20.9651H23.506V19.9771Z" fill="#E71D36"/>
<path d="M23.3795 13.5616C22.7459 11.7594 20.9865 10.9332 19.6223 10.5576L15.5557 9.43789L12.6914 2.65876L9.60044 0.249512L10.1684 7.95966L6.46815 6.96919L4.61438 3.59294L2.05047 2.88692L1.95651 6.35845C1.60334 6.4184 1.19403 6.57765 1.0751 7.00954C0.919821 7.57358 1.30324 8.25071 2.21627 9.02754C2.40349 9.18685 2.613 9.3504 2.84466 9.51794C3.91422 10.2916 5.21846 10.9603 6.16744 11.2216L20.704 15.2242C21.9595 15.5698 22.7818 15.5107 23.2178 15.0432C23.444 14.8008 23.6557 14.3468 23.3795 13.5616ZM20.9662 14.2715L6.42971 10.269C5.62119 10.0464 4.47843 9.4639 3.51842 8.78506C2.53719 8.09121 2.13722 7.57372 2.049 7.34822C2.12141 7.33089 2.24508 7.3121 2.44664 7.30872L2.91938 7.30082L3.00398 4.17428L3.94927 4.43451L5.80495 7.81446L11.2558 9.27351L10.7494 2.39775L11.8812 3.27997L14.8318 10.2633L19.3599 11.5101C21.0137 11.9655 22.0523 12.766 22.4474 13.8892C22.5469 14.1722 22.5305 14.3314 22.4952 14.3692C22.4929 14.3718 22.2406 14.6224 20.9662 14.2715Z" fill="#E71D36"/>
</svg>
