<svg width="507" height="97" viewBox="0 0 507 97" fill="none" xmlns="http://www.w3.org/2000/svg">
<mask id="mask0_1427_15694" style="mask-type:alpha" maskUnits="userSpaceOnUse" x="0" y="0" width="507" height="97">
<rect width="507" height="97" fill="#D9D9D9"/>
</mask>
<g mask="url(#mask0_1427_15694)">
<path d="M341.835 28.4483C312.215 20.7104 219.367 19.5345 176.646 19.9138L0.0632915 0L-25 84.7759L462.595 132L470 28.4483C463.165 26.931 444.481 23.1 424.43 19.9138C399.367 15.9311 378.861 38.1207 341.835 28.4483Z" fill="#2B69C5"/>
<path d="M58.3361 30.0636C9.62999 11.8375 -65.5155 22.4694 -97 30.0636L-67.4122 89.2983C144.634 100.31 564.06 109.689 545.397 59.1114C522.068 -4.11028 417.373 37.468 382.095 39.7462C346.817 42.0245 293.901 30.0636 256.347 26.6462C218.793 23.2289 119.219 52.8461 58.3361 30.0636Z" fill="#51A7E4"/>
<path d="M-9.82352 40.2165C-39.8471 45.264 -65.9281 38.1135 -75.2157 33.9073L-90 49.3936L-9.82352 97H507V53C409.765 24.3215 338.176 33.9073 297.804 55.1294C257.431 76.3514 192.608 47.673 138.02 33.9073C83.4314 20.1416 27.7059 33.9073 -9.82352 40.2165Z" fill="#62C7EA"/>
</g>
</svg>
