<svg width="2440" height="115" viewBox="0 0 2440 115" fill="none" xmlns="http://www.w3.org/2000/svg">
<g clip-path="url(#clip0_1424_612)">
<path d="M1671.78 67.888C1742.45 49.4224 1963.97 46.6164 2065.9 47.5216L2487.2 0L2547 202.306L1383.67 315L1366 67.888C1382.31 64.2673 1426.88 55.125 1474.72 47.5216C1534.52 38.0173 1583.45 90.9698 1671.78 67.888Z" fill="#2B69C5"/>
<path d="M2348.17 71.9977C2464.45 28.5355 2643.84 53.8885 2719 71.9977L2648.37 213.25C2142.16 239.508 1140.89 261.873 1185.44 141.266C1241.13 -9.49374 1491.06 89.6543 1575.28 95.0871C1659.5 100.52 1785.82 71.9977 1875.47 63.8487C1965.12 55.6997 2202.83 126.325 2348.17 71.9977Z" fill="#51A7E4"/>
<path d="M2511.54 95.0364C2583.24 107.033 2645.52 90.0378 2667.7 80.0405L2703 116.849L2511.54 230L1626.23 219.094L1318 116.849C1550.19 48.6852 1680.54 80.0405 1776.95 130.481C1873.36 180.922 2028.15 112.759 2158.5 80.0405C2288.86 47.322 2421.93 80.0405 2511.54 95.0364Z" fill="#62C7EA"/>
<path d="M768.217 67.888C697.548 49.4224 476.025 46.6164 374.098 47.5216L-47.2025 0L-107 202.306L1056.33 315L1074 67.888C1057.69 64.2673 1013.12 55.125 965.277 47.5216C905.48 38.0173 856.555 90.9698 768.217 67.888Z" fill="#2B69C5"/>
<path d="M91.8257 71.9977C-24.4478 28.5355 -203.839 53.8885 -279 71.9977L-208.367 213.25C297.84 239.508 1299.11 261.873 1254.56 141.266C1198.87 -9.49374 948.936 89.6543 864.719 95.0871C780.502 100.52 654.177 71.9977 564.527 63.8487C474.876 55.6997 237.168 126.325 91.8257 71.9977Z" fill="#51A7E4"/>
<path d="M-71.5441 95.0364C-143.238 107.033 -205.518 90.0378 -227.696 80.0405L-263 116.849L-71.5441 230L813.77 219.094L1122 116.849C889.809 48.6852 759.456 80.0405 663.049 130.481C566.642 180.922 411.848 112.759 281.495 80.0405C151.142 47.322 18.0735 80.0405 -71.5441 95.0364Z" fill="#62C7EA"/>
</g>
<defs>
<clipPath id="clip0_1424_612">
<rect width="2440" height="115" fill="white"/>
</clipPath>
</defs>
</svg>
