<svg width="212" height="35" viewBox="0 0 212 35" fill="none" xmlns="http://www.w3.org/2000/svg">
<g clip-path="url(#clip0_1238_1011)">
<path d="M210.236 30.991H210.891L210.649 30.3742L200.051 3.37735L199.939 3.09375H199.638H193.826H193.383V3.45752L182.633 30.3717L182.387 30.991H183.045H188.679H188.984L189.093 30.7003L191.499 24.2565H201.373L203.793 30.701L203.901 30.991H204.206H210.236ZM193.48 18.8592L196.444 11.0255L199.402 18.8592H193.48Z" fill="white"/>
<path d="M177.221 3.65557V3.20538H176.778H153.643H153.199V3.65557V8.32402V8.77421H153.643H161.872V30.539V30.9892H162.316H168.104H168.548V30.539V8.77421H176.778H177.221V8.32402V3.65557Z" fill="white"/>
<path d="M146.129 25.866V25.4159H145.686H135.032V3.65764V3.20746H134.588H128.807H128.363V3.65764V30.5386V30.9888H128.807H145.686H146.129V30.5386V25.866Z" fill="white"/>
<path d="M112.887 25.4165H100.556V19.3345H111.058H111.502V18.8843V14.2173V13.7671H111.058H100.556V8.77421H112.485H112.929V8.32402V3.65557V3.20538H112.485H94.35H93.9062V3.65557V30.5378V30.988H94.35H112.887H113.331V30.5378V25.8667V25.4165H112.887Z" fill="white"/>
<path d="M56.0625 30.5377V30.9878H56.5062H65.6141C70.3671 30.9878 74.2186 29.7043 76.8876 27.2994C79.5632 24.8886 80.9986 21.3971 80.9986 17.0953C80.9986 12.7936 79.5632 9.30267 76.8874 6.89245C74.2186 4.48834 70.3671 3.20538 65.6141 3.20538H56.5062H56.0625V3.65557V30.5377ZM62.7064 8.77423H65.6075C68.5753 8.77423 70.7251 9.53704 72.1335 10.9161C73.5391 12.2926 74.2756 14.3515 74.2756 17.0954C74.2756 19.8371 73.5391 21.8961 72.1334 23.2731C70.7251 24.6527 68.5751 25.4164 65.6075 25.4164H62.7064V8.77423Z" fill="white"/>
<path d="M20.7002 24.8332L20.5438 24.688L20.4574 24.7262L20.0144 24.5308V24.9214L0.03125 33.7299L0.208081 34.593H20.4581H31.0211H40.7067L40.8835 33.7299L20.7002 24.8332Z" fill="white"/>
<path d="M1.89184 30.9443L20.412 21.5996L39.0239 30.9449L40.4389 31.6553L39.596 30.3009L20.8822 0.235172L20.7118 -0.84954L20.4594 -0.444087L20.0162 -1.15607V0.267753L1.31906 30.3009L0.472656 31.6605L1.89184 30.9443Z" fill="white"/>
</g>
<defs>
<clipPath id="clip0_1238_1011">
<rect width="211.221" height="34.2141" fill="white" transform="translate(0.208984 0.399109)"/>
</clipPath>
</defs>
</svg>
