<svg width="233" height="88" viewBox="0 0 233 88" fill="none" xmlns="http://www.w3.org/2000/svg">
<g clip-path="url(#clip0_1238_1028)">
<path fill-rule="evenodd" clip-rule="evenodd" d="M81.6915 58.1648H85.1217V71.9526H93.4924V74.9071H81.6915V58.1648V58.1648ZM96.1263 58.1648H99.5284V74.9071H96.1263V58.1648V58.1648ZM54.3565 58.1648H57.7306V74.9071H54.3565V58.1648V58.1648ZM111.55 34.6216C116.515 34.6216 120.523 38.7203 120.523 43.7603C120.523 48.7756 116.515 52.8687 111.55 52.8687C106.583 52.8687 102.547 48.7756 102.547 43.7603C102.547 38.7184 106.585 34.6235 111.55 34.6235V34.6216ZM123.871 58.1648H136.797V60.922H127.301V65.015H135.371V68.0549H127.301V72.1157H136.797V74.9052H123.869V58.1629L123.871 58.1648ZM142.068 35.6539H154.995V38.4129H145.499V42.4794H153.593V45.5156H145.499V49.584H154.995V52.343H142.068V35.6558V35.6539ZM62.9741 74.9071V58.1648H72.7692C72.7692 58.1648 77.4911 58.2464 77.4911 63.0378C77.4911 63.0378 77.9285 67.0227 73.9207 68.6356L78.8894 74.9071H74.6647L67.8044 66.2162H71.3673C71.3673 66.2162 73.9189 66.1593 73.9189 63.5406C73.9189 61.0605 71.8589 60.865 71.2271 60.865H66.3986V74.9071H62.9741V74.9071ZM123.269 52.3411V35.6539H133.064C133.064 35.6539 137.786 35.7374 137.786 40.5306C137.786 40.5306 138.197 44.4852 134.221 46.1019L139.186 52.3411H134.961L128.097 43.7072H131.664C131.664 43.7072 134.217 43.6502 134.217 41.0316C134.217 38.5268 132.157 38.356 131.525 38.356H126.699V52.3411H123.269ZM86.1629 52.3411V35.6539H95.7711C95.7711 35.6539 100.572 35.9878 100.572 40.8342C100.572 45.6541 97.0852 46.7699 95.3561 46.7699H91.4867L89.6491 44.2328V52.3392H86.1629V52.3411ZM32.594 74.9071L40.4414 58.1648H44.1744L51.8853 74.9071H48.0981L46.0119 70.0018H38.4113L36.2709 74.9071H32.594V74.9071ZM64.7312 52.3411L72.5505 35.6539H76.3116L84.0225 52.3411H80.2091L78.1529 47.4644H70.5448L68.4044 52.3411H64.7312ZM54.6033 49.4416H59.2392V41.783H62.5329V52.3392H53.8892C52.5994 52.3392 46.369 50.8629 46.3148 44.2062C46.2587 37.6065 51.9414 35.6539 54.1378 35.6539H62.6189V38.6084H54.9622C54.9622 38.6084 49.8291 38.6084 49.8291 44.0962C49.8291 48.3581 54.0817 49.4473 54.6033 49.4473V49.4416ZM104.002 58.1648H107.46V60.7531L109.628 58.1667H113.718C113.718 58.1667 119.315 57.8574 119.315 63.9315V74.909H115.831V63.404C115.831 63.404 115.719 61.1193 113.363 61.1193H107.46V74.9109H104.002V58.1686V58.1648ZM27.8721 35.6539H31.3023V38.2156L33.4707 35.6539H37.5589C37.5589 35.6539 43.1855 35.3503 43.1855 41.4225V52.3411H39.7011V40.8931C39.7011 40.8931 39.5647 38.6084 37.2037 38.6084H31.3042V52.343H27.874V35.6558L27.8721 35.6539ZM19.7481 35.6539H23.1241V52.3411H19.7481V35.6539V35.6539ZM140.56 74.8786V72.036H150.108C150.108 72.036 152.002 72.3966 152.002 70.0588C152.002 67.721 150.576 67.9714 150.054 67.9714H144.54C144.54 67.9714 140.285 68.2751 140.285 63.2047C140.285 58.1629 144.484 58.1629 144.484 58.1629H154.967V61.1155H145.773C145.773 61.1155 143.773 61.1155 143.773 63.0378C143.773 64.96 145.115 65.3224 146.379 65.3224H151.292C151.292 65.3224 155.436 64.8746 155.436 69.8899C155.436 74.9052 151.183 74.8767 151.183 74.8767H140.56V74.8786ZM1.2494 52.3411V49.4986H10.8016C10.8016 49.4986 12.6952 49.8629 12.6952 47.5251C12.6952 45.1873 11.2689 45.4321 10.7474 45.4321H5.23103C5.23103 45.4321 0.974609 45.7414 0.974609 40.6976C0.974609 35.6254 5.17308 35.6539 5.17308 35.6539H15.6562V38.6084H6.46478C6.46478 38.6084 4.46087 38.6084 4.46087 40.5325C4.46087 42.4567 5.83295 42.8172 7.06856 42.8172H11.9792C11.9792 42.8172 16.1254 42.3732 16.1254 47.3581C16.1254 52.3772 11.8708 52.3487 11.8708 52.3487H1.25314V52.3449L1.2494 52.3411Z" fill="white"/>
<path fill-rule="evenodd" clip-rule="evenodd" d="M0.896484 81.953H161.364L158.18 86.993H0.896484V81.953ZM190.594 79.6684H184.693L196.6 60.5864C196.6 60.5864 198.387 56.6299 196.054 52.4515L179.451 24.5381C179.451 24.5381 177.999 21.9461 179.451 19.4659L184.364 11.9971L203.848 44.3166C203.848 44.3166 208.87 51.0852 203.408 59.4687L190.594 79.6684ZM204.838 73.8181L212.082 62.6187C212.082 62.6187 214.194 57.9962 219.656 57.9962H227.339L232.691 66.5751C232.691 66.5751 228.466 66.1311 226.571 69.1937L218.668 81.2813C218.668 81.2813 216.088 86.9361 209.199 86.9361H171.981L186.145 64.8749C186.145 64.8749 188.145 62.2847 185.349 57.9962L172.75 37.436C172.75 37.436 169.65 34.3998 172.862 29.1872L176.541 23.5324L194.051 52.3376C194.051 52.3376 197.148 56.2959 194.051 61.0323L180.902 81.8411H208.62C208.62 81.8411 211.749 82.4293 214.437 78.3609L221.328 67.6055C221.328 67.6055 222.892 63.9849 226.35 62.5086H220.78C220.78 62.5086 217.869 62.6187 215.647 66.133L209.527 75.7385C209.527 75.7385 207.302 79.8088 202.393 79.8088H192.703L204.395 61.3928C204.395 61.3928 210.762 52.8955 206.291 45.0965L186.912 12.5569C186.912 12.5569 185.457 9.74466 187.13 7.12601L191.355 0.693237L213.42 36.7699C213.42 36.7699 216.658 42.1742 216.658 46.3527C216.658 50.5273 214.078 55.2675 212.65 57.6622L202.935 73.042C202.935 73.042 201.838 74.5164 202.606 75.0762C203.401 75.6303 204.169 74.6265 204.831 73.8181H204.838Z" fill="white"/>
<path fill-rule="evenodd" clip-rule="evenodd" d="M111.553 37.963C114.682 37.963 117.262 40.5532 117.262 43.7582C117.262 46.9082 114.682 49.5268 111.553 49.5268C108.397 49.5268 105.844 46.9082 105.844 43.7582C105.844 40.5551 108.397 37.963 111.553 37.963ZM89.5957 43.7032V38.2135H94.1812C94.1812 38.2135 97.2562 38.0465 97.2562 41.0276C97.2562 43.6462 94.7588 43.7032 94.1812 43.7032H89.5957ZM76.9461 44.5931L74.3926 38.6613L71.7849 44.5931H76.9442H76.9461ZM44.807 67.1591L42.2835 61.1703L39.6758 67.1591H44.807Z" fill="#56B9DC"/>
</g>
<defs>
<clipPath id="clip0_1238_1028">
<rect width="231.795" height="87.2884" fill="white" transform="translate(0.896484 0.199463)"/>
</clipPath>
</defs>
</svg>
