<svg width="132" height="132" viewBox="0 0 132 132" fill="none" xmlns="http://www.w3.org/2000/svg">
<rect x="2.5" y="2.5" width="127" height="127" rx="63.5" fill="url(#paint0_radial_712_10655)"/>
<path d="M69.9115 57.222C66.6956 57.2173 63.5389 56.3575 60.7648 54.7307C57.9908 53.1039 55.6993 50.7686 54.1253 47.9643C52.5512 45.16 51.7513 41.9875 51.8075 38.7721C51.8636 35.5567 52.7738 32.4141 54.4448 29.6665C54.6092 29.3942 54.8414 29.1692 55.1187 29.0134C55.396 28.8576 55.709 28.7764 56.027 28.7776H60.3026C60.7254 28.7801 61.1364 28.9177 61.4754 29.1704C61.8145 29.4231 62.0638 29.7776 62.187 30.182L64.2226 37.0798C64.3666 37.5819 64.3075 38.1205 64.058 38.5794C63.8086 39.0383 63.3889 39.3808 62.8893 39.5332L59.9737 40.422C59.7333 40.4903 59.5256 40.6429 59.3884 40.8519C59.2513 41.0608 59.194 41.3121 59.227 41.5598C59.5042 43.3496 60.2288 45.0404 61.3337 46.4754C62.9941 48.4996 65.3484 49.8336 67.9382 50.2176C68.1805 50.2577 68.4292 50.2122 68.6417 50.089C68.8542 49.9657 69.0171 49.7723 69.1026 49.542L70.2137 46.6443C70.3856 46.1998 70.7125 45.8326 71.134 45.6104C71.5555 45.3882 72.0432 45.326 72.507 45.4354L78.7293 46.902C79.1532 47.0068 79.5302 47.2498 79.8006 47.5926C80.0711 47.9355 80.2195 48.3587 80.2226 48.7954V52.982C80.2232 53.2988 80.1416 53.6102 79.9858 53.886C79.83 54.1618 79.6053 54.3924 79.3337 54.5554C76.4979 56.2936 73.2377 57.2163 69.9115 57.222Z" fill="white"/>
<path d="M34.7415 71.768V73.96H30.1655V76.328H33.5895V78.456H30.1655V83H27.4295V71.768H34.7415ZM41.9075 83L39.5715 78.76H38.9155V83H36.1795V71.768H40.7715C41.6568 71.768 42.4088 71.9227 43.0275 72.232C43.6568 72.5413 44.1262 72.968 44.4355 73.512C44.7448 74.0453 44.8995 74.6427 44.8995 75.304C44.8995 76.0507 44.6862 76.7173 44.2595 77.304C43.8435 77.8907 43.2248 78.3067 42.4035 78.552L44.9955 83H41.9075ZM38.9155 76.824H40.6115C41.1128 76.824 41.4862 76.7013 41.7315 76.456C41.9875 76.2107 42.1155 75.864 42.1155 75.416C42.1155 74.9893 41.9875 74.6533 41.7315 74.408C41.4862 74.1627 41.1128 74.04 40.6115 74.04H38.9155V76.824ZM49.353 73.96V76.232H53.017V78.344H49.353V80.808H53.497V83H46.617V71.768H53.497V73.96H49.353ZM58.0093 73.96V76.232H61.6733V78.344H58.0093V80.808H62.1533V83H55.2733V71.768H62.1533V73.96H58.0093ZM66.8561 77.368C66.8561 76.2587 67.0961 75.272 67.5761 74.408C68.0561 73.5333 68.7228 72.856 69.5761 72.376C70.4401 71.8853 71.4161 71.64 72.5041 71.64C73.8375 71.64 74.9788 71.992 75.9281 72.696C76.8775 73.4 77.5121 74.36 77.8321 75.576H74.8241C74.6001 75.1067 74.2801 74.7493 73.8641 74.504C73.4588 74.2587 72.9948 74.136 72.4721 74.136C71.6295 74.136 70.9468 74.4293 70.4241 75.016C69.9015 75.6027 69.6401 76.3867 69.6401 77.368C69.6401 78.3493 69.9015 79.1333 70.4241 79.72C70.9468 80.3067 71.6295 80.6 72.4721 80.6C72.9948 80.6 73.4588 80.4773 73.8641 80.232C74.2801 79.9867 74.6001 79.6293 74.8241 79.16H77.8321C77.5121 80.376 76.8775 81.336 75.9281 82.04C74.9788 82.7333 73.8375 83.08 72.5041 83.08C71.4161 83.08 70.4401 82.84 69.5761 82.36C68.7228 81.8693 68.0561 81.192 67.5761 80.328C67.0961 79.464 66.8561 78.4773 66.8561 77.368ZM86.4996 81.016H82.3076L81.6356 83H78.7716L82.8356 71.768H86.0036L90.0676 83H87.1716L86.4996 81.016ZM85.7956 78.904L84.4036 74.792L83.0276 78.904H85.7956ZM94.0405 80.888H97.6245V83H91.3045V71.768H94.0405V80.888ZM101.666 80.888H105.25V83H98.9295V71.768H101.666V80.888ZM50.9483 97.24C51.5989 97.3787 52.1216 97.704 52.5163 98.216C52.9109 98.7173 53.1083 99.2933 53.1083 99.944C53.1083 100.883 52.7776 101.629 52.1163 102.184C51.4656 102.728 50.5536 103 49.3803 103H44.1483V91.768H49.2043C50.3456 91.768 51.2363 92.0293 51.8763 92.552C52.5269 93.0747 52.8523 93.784 52.8523 94.68C52.8523 95.3413 52.6763 95.8907 52.3243 96.328C51.9829 96.7653 51.5243 97.0693 50.9483 97.24ZM46.8843 96.312H48.6763C49.1243 96.312 49.4656 96.216 49.7003 96.024C49.9456 95.8213 50.0683 95.528 50.0683 95.144C50.0683 94.76 49.9456 94.4667 49.7003 94.264C49.4656 94.0613 49.1243 93.96 48.6763 93.96H46.8843V96.312ZM48.9003 100.792C49.3589 100.792 49.7109 100.691 49.9563 100.488C50.2123 100.275 50.3403 99.9707 50.3403 99.576C50.3403 99.1813 50.2069 98.872 49.9403 98.648C49.6843 98.424 49.3269 98.312 48.8683 98.312H46.8843V100.792H48.9003ZM61.6871 101.016H57.4951L56.8231 103H53.9591L58.0231 91.768H61.1911L65.2551 103H62.3591L61.6871 101.016ZM60.9831 98.904L59.5911 94.792L58.2151 98.904H60.9831ZM66.028 97.368C66.028 96.2587 66.268 95.272 66.748 94.408C67.228 93.5333 67.8947 92.856 68.748 92.376C69.612 91.8853 70.588 91.64 71.676 91.64C73.0093 91.64 74.1507 91.992 75.1 92.696C76.0493 93.4 76.684 94.36 77.004 95.576H73.996C73.772 95.1067 73.452 94.7493 73.036 94.504C72.6307 94.2587 72.1667 94.136 71.644 94.136C70.8013 94.136 70.1187 94.4293 69.596 95.016C69.0733 95.6027 68.812 96.3867 68.812 97.368C68.812 98.3493 69.0733 99.1333 69.596 99.72C70.1187 100.307 70.8013 100.6 71.644 100.6C72.1667 100.6 72.6307 100.477 73.036 100.232C73.452 99.9867 73.772 99.6293 73.996 99.16H77.004C76.684 100.376 76.0493 101.336 75.1 102.04C74.1507 102.733 73.0093 103.08 71.676 103.08C70.588 103.08 69.612 102.84 68.748 102.36C67.8947 101.869 67.228 101.192 66.748 100.328C66.268 99.464 66.028 98.4773 66.028 97.368ZM85.1915 103L81.4155 98.04V103H78.6795V91.768H81.4155V96.696L85.1595 91.768H88.3755L84.0235 97.272L88.5355 103H85.1915Z" fill="white"/>
<rect x="2.5" y="2.5" width="127" height="127" rx="63.5" stroke="white" stroke-width="5"/>
<defs>
<radialGradient id="paint0_radial_712_10655" cx="0" cy="0" r="1" gradientUnits="userSpaceOnUse" gradientTransform="translate(66 54.7037) rotate(90) scale(72.2963)">
<stop stop-color="#00FFFF"/>
<stop offset="1" stop-color="#14CDCD"/>
</radialGradient>
</defs>
</svg>
