<svg width="222" height="112" viewBox="0 0 222 112" fill="none" xmlns="http://www.w3.org/2000/svg">
<path fill-rule="evenodd" clip-rule="evenodd" d="M222 46C222 41.5817 218.418 38 214 38H38C33.5817 38 30 41.5817 30 46V104C30 108.418 33.5817 112 38 112H214C218.418 112 222 108.418 222 104V91C222 90.4477 221.552 90 221 90C212.716 90 206 83.2843 206 75C206 66.7157 212.716 60 221 60C221.552 60 222 59.5523 222 59V46Z" fill="#FFC93F"/>
<path d="M111.552 63.384C111.552 64.0347 111.403 64.632 111.104 65.176C110.805 65.7093 110.347 66.1413 109.728 66.472C109.109 66.8027 108.341 66.968 107.424 66.968L105.728 66.968L105.728 71L102.992 71L102.992 59.768L107.424 59.768C108.32 59.768 109.077 59.9227 109.696 60.232C110.315 60.5413 110.779 60.968 111.088 61.512C111.397 62.056 111.552 62.68 111.552 63.384ZM107.216 64.792C107.739 64.792 108.128 64.6693 108.384 64.424C108.64 64.1787 108.768 63.832 108.768 63.384C108.768 62.936 108.64 62.5893 108.384 62.344C108.128 62.0987 107.739 61.976 107.216 61.976L105.728 61.976L105.728 64.792L107.216 64.792ZM118.704 71L116.368 66.76L115.712 66.76L115.712 71L112.976 71L112.976 59.768L117.568 59.768C118.454 59.768 119.206 59.9227 119.824 60.232C120.454 60.5413 120.923 60.968 121.232 61.512C121.542 62.0453 121.696 62.6427 121.696 63.304C121.696 64.0507 121.483 64.7173 121.056 65.304C120.64 65.8907 120.022 66.3067 119.2 66.552L121.792 71L118.704 71ZM115.712 64.824L117.408 64.824C117.91 64.824 118.283 64.7013 118.528 64.456C118.784 64.2107 118.912 63.864 118.912 63.416C118.912 62.9893 118.784 62.6533 118.528 62.408C118.283 62.1627 117.91 62.04 117.408 62.04L115.712 62.04L115.712 64.824ZM126.15 59.768L126.15 71L123.414 71L123.414 59.768L126.15 59.768ZM127.669 65.368C127.669 64.2587 127.909 63.272 128.389 62.408C128.869 61.5333 129.535 60.856 130.389 60.376C131.253 59.8853 132.229 59.64 133.317 59.64C134.65 59.64 135.791 59.992 136.741 60.696C137.69 61.4 138.325 62.36 138.645 63.576L135.637 63.576C135.413 63.1067 135.093 62.7493 134.677 62.504C134.271 62.2587 133.807 62.136 133.285 62.136C132.442 62.136 131.759 62.4293 131.237 63.016C130.714 63.6027 130.453 64.3867 130.453 65.368C130.453 66.3493 130.714 67.1333 131.237 67.72C131.759 68.3067 132.442 68.6 133.285 68.6C133.807 68.6 134.271 68.4773 134.677 68.232C135.093 67.9867 135.413 67.6293 135.637 67.16L138.645 67.16C138.325 68.376 137.69 69.336 136.741 70.04C135.791 70.7333 134.65 71.08 133.317 71.08C132.229 71.08 131.253 70.84 130.389 70.36C129.535 69.8693 128.869 69.192 128.389 68.328C127.909 67.464 127.669 66.4773 127.669 65.368ZM143.056 61.96L143.056 64.232L146.72 64.232L146.72 66.344L143.056 66.344L143.056 68.808L147.2 68.808L147.2 71L140.32 71L140.32 59.768L147.2 59.768L147.2 61.96L143.056 61.96ZM102.528 85.368C102.528 84.2587 102.768 83.272 103.248 82.408C103.728 81.5333 104.395 80.856 105.248 80.376C106.112 79.8853 107.088 79.64 108.176 79.64C109.509 79.64 110.651 79.992 111.6 80.696C112.549 81.4 113.184 82.36 113.504 83.576L110.496 83.576C110.272 83.1067 109.952 82.7493 109.536 82.504C109.131 82.2587 108.667 82.136 108.144 82.136C107.301 82.136 106.619 82.4293 106.096 83.016C105.573 83.6027 105.312 84.3867 105.312 85.368C105.312 86.3493 105.573 87.1333 106.096 87.72C106.619 88.3067 107.301 88.6 108.144 88.6C108.667 88.6 109.131 88.4773 109.536 88.232C109.952 87.9867 110.272 87.6293 110.496 87.16L113.504 87.16C113.184 88.376 112.549 89.336 111.6 90.04C110.651 90.7333 109.509 91.08 108.176 91.08C107.088 91.08 106.112 90.84 105.248 90.36C104.395 89.8693 103.728 89.192 103.248 88.328C102.768 87.464 102.528 86.4773 102.528 85.368ZM124.907 79.768L124.907 91L122.171 91L122.171 86.376L117.915 86.376L117.915 91L115.179 91L115.179 79.768L117.915 79.768L117.915 84.168L122.171 84.168L122.171 79.768L124.907 79.768ZM133.875 89.016L129.683 89.016L129.011 91L126.147 91L130.211 79.768L133.379 79.768L137.443 91L134.547 91L133.875 89.016ZM133.171 86.904L131.779 82.792L130.403 86.904L133.171 86.904ZM141.415 88.888L144.999 88.888L144.999 91L138.679 91L138.679 79.768L141.415 79.768L141.415 88.888ZM149.04 88.888L152.624 88.888L152.624 91L146.304 91L146.304 79.768L149.04 79.768L149.04 88.888ZM156.665 81.96L156.665 84.232L160.329 84.232L160.329 86.344L156.665 86.344L156.665 88.808L160.809 88.808L160.809 91L153.929 91L153.929 79.768L160.809 79.768L160.809 81.96L156.665 81.96ZM172.634 91L169.898 91L165.322 84.072L165.322 91L162.586 91L162.586 79.768L165.322 79.768L169.898 86.728L169.898 79.768L172.634 79.768L172.634 91ZM182.073 83.32C181.87 82.9467 181.577 82.664 181.193 82.472C180.82 82.2693 180.377 82.168 179.865 82.168C178.98 82.168 178.27 82.4613 177.737 83.048C177.204 83.624 176.937 84.3973 176.937 85.368C176.937 86.4027 177.214 87.2133 177.769 87.8C178.334 88.376 179.108 88.664 180.089 88.664C180.761 88.664 181.326 88.4933 181.785 88.152C182.254 87.8107 182.596 87.32 182.809 86.68L179.337 86.68L179.337 84.664L185.289 84.664L185.289 87.208C185.086 87.8907 184.74 88.5253 184.249 89.112C183.769 89.6987 183.156 90.1733 182.409 90.536C181.662 90.8987 180.82 91.08 179.881 91.08C178.772 91.08 177.78 90.84 176.905 90.36C176.041 89.8693 175.364 89.192 174.873 88.328C174.393 87.464 174.153 86.4773 174.153 85.368C174.153 84.2587 174.393 83.272 174.873 82.408C175.364 81.5333 176.041 80.856 176.905 80.376C177.769 79.8853 178.756 79.64 179.865 79.64C181.209 79.64 182.34 79.9653 183.257 80.616C184.185 81.2667 184.798 82.168 185.097 83.32L182.073 83.32ZM189.54 81.96L189.54 84.232L193.204 84.232L193.204 86.344L189.54 86.344L189.54 88.808L193.684 88.808L193.684 91L186.804 91L186.804 79.768L193.684 79.768L193.684 81.96L189.54 81.96Z" fill="#263954"/>
<g clip-path="url(#clip0_1464_611)">
<path d="M26.2474 40.9199L17.0581 31.424C15.6603 29.9804 15.6603 27.6386 17.0581 26.1951C18.456 24.7507 20.7215 24.7507 22.1186 26.1951L31.3086 35.6902L26.2474 40.9199Z" fill="#F8696E"/>
<path d="M44.9213 103C41.1766 103 38.1406 99.8641 38.1406 95.9939L38.1406 86.8477L51.7021 86.8477L51.7021 95.9939C51.7021 99.8641 48.6661 103 44.9213 103Z" fill="#F8696E"/>
<path d="M74.2827 92.3424C70.5379 92.3424 67.502 89.2061 67.502 85.3367L67.502 76.1897L81.0626 76.1897L81.0626 85.3367C81.0626 89.2061 78.0274 92.3424 74.2827 92.3424Z" fill="#F8696E"/>
<path d="M22.7897 89.5006C19.045 89.5006 16.0098 86.3636 16.0098 82.4942L16.0098 68.1387L29.5704 68.1387L29.5704 82.4942C29.5704 86.3636 26.5345 89.5006 22.7897 89.5006Z" fill="#F8696E"/>
<path d="M15.9997 38.7044C6.75111 55.2563 14.3524 77.6822 32.9773 88.7938C51.6023 99.9054 74.1986 95.4946 83.4479 78.9427C92.6965 62.3908 85.0952 39.9649 66.4703 28.8533C47.8446 17.7425 25.2483 22.1525 15.9997 38.7044Z" fill="#FF8F93"/>
<path d="M44.2865 54.5283C46.454 51.8966 49.0671 49.4299 52.0787 47.2689C52.859 46.7094 53.6484 46.186 54.4439 45.6925L52.8392 43.3625C51.0102 40.7064 47.2418 40.5147 44.4234 42.935C41.6042 45.3546 40.8026 49.4692 42.6316 52.1253L44.2865 54.5283Z" fill="#FFADB0"/>
<path d="M79.3039 41.1665L79.6933 37.9037C80.0584 34.8437 78.0308 32.6749 75.1645 33.0599C72.2989 33.445 69.6797 36.2378 69.3146 39.2978L69.1914 40.3327C72.8251 39.9068 76.2779 40.1834 79.3039 41.1665Z" fill="#FFADB0"/>
<path d="M77.3819 40.6525L77.5971 38.8522C77.8199 36.9788 76.5788 35.6507 74.8243 35.8865C73.0698 36.1222 71.4658 37.8322 71.2423 39.7056L71.1875 40.1661C73.3557 40.0655 75.438 40.2297 77.3819 40.6525Z" fill="white"/>
<path d="M46.056 52.5239C47.8318 50.6427 49.8464 48.8714 52.08 47.2691C52.1477 47.2204 52.2154 47.1748 52.2838 47.1269L51.2663 45.6503C50.1468 44.0236 47.8394 43.9066 46.1138 45.3886C44.3882 46.8699 43.8969 49.3893 45.0164 51.0151L46.056 52.5239Z" fill="white"/>
<path d="M87.8011 67.3188C87.8011 72.6554 83.5095 79.5416 78.2163 82.6998C72.9224 85.8581 68.6309 84.0915 68.6309 78.755C68.6309 73.4176 72.9224 66.5314 78.2163 63.3732C83.5095 60.2157 87.8011 61.9815 87.8011 67.3188Z" fill="#F8696E"/>
<path d="M74.3976 81.0943L74.1672 81.2318C73.3132 81.741 72.6211 81.2003 72.6211 80.024L72.6211 72.7236C72.6211 71.5472 73.3132 70.1807 74.1672 69.6715L74.3976 69.5332C75.2517 69.024 75.9438 69.5646 75.9438 70.741L75.9438 78.0421C75.9438 79.2185 75.2517 80.585 74.3976 81.0943Z" fill="#263954"/>
<path d="M82.2609 76.4021L82.0305 76.5396C81.1764 77.0496 80.4844 76.5082 80.4844 75.3326L80.4844 68.0315C80.4844 66.8551 81.1764 65.4886 82.0305 64.9793L82.2609 64.841C83.115 64.3318 83.807 64.8725 83.807 66.0488L83.807 73.35C83.807 74.5264 83.115 75.8929 82.2609 76.4021Z" fill="#263954"/>
<path d="M66.4407 62.7669C66.4407 64.3715 65.1813 65.6737 63.6276 65.6737C62.0739 65.6737 60.8145 64.3715 60.8145 62.7669C60.8145 61.1614 62.0739 59.8601 63.6276 59.8601C65.1813 59.8601 66.4407 61.1614 66.4407 62.7669Z" fill="#263954"/>
<path d="M84.9614 54.8523C84.9614 56.4578 83.702 57.7591 82.1483 57.7591C80.5953 57.7591 79.3359 56.4578 79.3359 54.8523C79.3359 53.2469 80.5953 51.9456 82.1483 51.9456C83.702 51.9456 84.9614 53.2469 84.9614 54.8523Z" fill="#263954"/>
<path d="M59.9885 42.4244C59.2607 42.4244 58.5336 42.1305 57.9899 41.5459C57.9328 41.4846 52.1712 35.4038 42.1712 31.6169C40.7331 31.0724 39.9947 29.4261 40.5217 27.9401C41.0487 26.4541 42.642 25.691 44.0801 26.2356C55.3524 30.5042 61.7255 37.2898 61.9917 37.5767C63.0511 38.72 63.013 40.5345 61.9065 41.6292C61.3696 42.1604 60.6783 42.4244 59.9885 42.4244Z" fill="#263954"/>
<path d="M64.5714 21.2275C64.5714 13.5288 60.0418 4.58526 54.4535 1.25178C52.1195 -0.140704 49.9711 -0.330088 48.2592 0.478528L48.2576 0.474599L43.7463 3.1912C43.7463 3.1912 40 4.74871 40 11.785C40 19.483 44.5296 28.4273 50.1178 31.7607C52.8831 33.4102 55.3882 33.3748 57.2149 31.9871L57.2157 31.9886L61.0723 29.6791C63.2146 28.4005 64.5714 25.4388 64.5714 21.2275Z" fill="#FFAC0E"/>
<path d="M60.2325 23.857C60.2325 31.5557 55.7022 35.0943 50.1147 31.7608C44.5265 28.4273 39.9961 19.4838 39.9961 11.7851C39.9961 4.08632 44.5265 0.547745 50.1147 3.88122C55.7022 7.2147 60.2325 16.1582 60.2325 23.857Z" fill="#FFEDCB"/>
<path d="M57.0653 21.9645C57.0653 27.2492 53.9556 29.6782 50.1196 27.3899C46.2836 25.1015 43.1738 18.9619 43.1738 13.6772C43.1738 8.3925 46.2836 5.96351 50.1196 8.25184C53.9556 10.5402 57.0653 16.6798 57.0653 21.9645Z" fill="#FFAC0E"/>
<path d="M54.9062 20.6799C54.9062 24.3262 52.7608 26.0015 50.1142 24.4228C47.4677 22.8441 45.3223 18.6085 45.3223 14.9622C45.3223 11.3168 47.4677 9.64061 50.1142 11.2193C52.7608 12.7981 54.9062 17.0337 54.9062 20.6799Z" fill="#FFEDCB"/>
</g>
<defs>
<clipPath id="clip0_1464_611">
<rect width="102" height="103" fill="white"/>
</clipPath>
</defs>
</svg>
