<svg width="132" height="132" viewBox="0 0 132 132" fill="none" xmlns="http://www.w3.org/2000/svg">
<path d="M132 66C132 102.451 102.451 132 66 132C29.5492 132 0 102.451 0 66C0 29.5492 29.5492 0 66 0C102.451 0 132 29.5492 132 66Z" fill="white"/>
<path d="M127 66C127 99.6894 99.6894 127 66 127C32.3106 127 5 99.6894 5 66C5 32.3106 32.3106 5 66 5C99.6894 5 127 32.3106 127 66Z" fill="white"/>
<path d="M127 66C127 99.6894 99.6894 127 66 127C32.3106 127 5 99.6894 5 66C5 32.3106 32.3106 5 66 5C99.6894 5 127 32.3106 127 66Z" fill="url(#paint0_radial_1972_2091)"/>
<path d="M59.28 45.5201V35.6001H53.2C51.44 35.6001 50 37.0401 50 38.8001V48.4001C50 50.1601 51.44 51.6001 53.2 51.6001H54.8V56.4001L59.6 51.6001H67.6C69.36 51.6001 70.8 50.1601 70.8 48.4001V45.4881C70.6948 45.5107 70.5876 45.5219 70.48 45.5217H59.28V45.5201V45.5201ZM78.8 27.6001H64.4C62.64 27.6001 61.2 29.0401 61.2 30.8001V43.6001H72.4L77.2 48.4001V43.6001H78.8C80.56 43.6001 82 42.1617 82 40.4001V30.8001C82 29.0401 80.56 27.6001 78.8 27.6001Z" fill="white"/>
<path d="M43.9576 76.3681C43.9576 75.2588 44.1976 74.2721 44.6776 73.4081C45.1576 72.5335 45.8243 71.8561 46.6776 71.3761C47.5416 70.8855 48.5176 70.6401 49.6056 70.6401C50.939 70.6401 52.0803 70.9921 53.0296 71.6961C53.979 72.4001 54.6136 73.3601 54.9336 74.5761H51.9256C51.7016 74.1068 51.3816 73.7495 50.9656 73.5041C50.5603 73.2588 50.0963 73.1361 49.5736 73.1361C48.731 73.1361 48.0483 73.4295 47.5256 74.0161C47.003 74.6028 46.7416 75.3868 46.7416 76.3681C46.7416 77.3495 47.003 78.1335 47.5256 78.7201C48.0483 79.3068 48.731 79.6001 49.5736 79.6001C50.0963 79.6001 50.5603 79.4775 50.9656 79.2321C51.3816 78.9868 51.7016 78.6295 51.9256 78.1601H54.9336C54.6136 79.3761 53.979 80.3361 53.0296 81.0401C52.0803 81.7335 50.939 82.0801 49.6056 82.0801C48.5176 82.0801 47.5416 81.8401 46.6776 81.3601C45.8243 80.8695 45.1576 80.1921 44.6776 79.3281C44.1976 78.4641 43.9576 77.4775 43.9576 76.3681Z" fill="white"/>
<path d="M66.3371 70.7681V82.0001H63.6011V77.3761H59.3451V82.0001H56.6091V70.7681H59.3451V75.1681H63.6011V70.7681H66.3371Z" fill="white"/>
<path d="M75.3043 80.0161H71.1123L70.4403 82.0001H67.5763L71.6403 70.7681H74.8083L78.8723 82.0001H75.9763L75.3043 80.0161ZM74.6003 77.9041L73.2083 73.7921L71.8323 77.9041H74.6003Z" fill="white"/>
<path d="M88.1891 70.7681V72.9601H85.2131V82.0001H82.4771V72.9601H79.5011V70.7681H88.1891Z" fill="white"/>
<path d="M56.3212 102H53.5852L49.0092 95.0721V102H46.2732V90.7681H49.0092L53.5852 97.7281V90.7681H56.3212V102Z" fill="white"/>
<path d="M63.6165 102.112C62.5605 102.112 61.5898 101.867 60.7045 101.376C59.8298 100.885 59.1311 100.203 58.6085 99.3281C58.0965 98.4428 57.8405 97.4508 57.8405 96.3521C57.8405 95.2535 58.0965 94.2668 58.6085 93.3921C59.1311 92.5175 59.8298 91.8348 60.7045 91.3441C61.5898 90.8535 62.5605 90.6081 63.6165 90.6081C64.6725 90.6081 65.6378 90.8535 66.5125 91.3441C67.3978 91.8348 68.0911 92.5175 68.5925 93.3921C69.1045 94.2668 69.3605 95.2535 69.3605 96.3521C69.3605 97.4508 69.1045 98.4428 68.5925 99.3281C68.0805 100.203 67.3871 100.885 66.5125 101.376C65.6378 101.867 64.6725 102.112 63.6165 102.112ZM63.6165 99.6161C64.5125 99.6161 65.2271 99.3175 65.7605 98.7201C66.3045 98.1228 66.5765 97.3335 66.5765 96.3521C66.5765 95.3601 66.3045 94.5708 65.7605 93.9841C65.2271 93.3868 64.5125 93.0881 63.6165 93.0881C62.7098 93.0881 61.9845 93.3815 61.4405 93.9681C60.9071 94.5548 60.6405 95.3495 60.6405 96.3521C60.6405 97.3441 60.9071 98.1388 61.4405 98.7361C61.9845 99.3228 62.7098 99.6161 63.6165 99.6161Z" fill="white"/>
<path d="M86.3386 90.7681L83.4106 102H80.0986L78.3066 94.6081L76.4506 102H73.1386L70.2906 90.7681H73.2186L74.8346 98.9441L76.8346 90.7681H79.8426L81.7626 98.9441L83.3946 90.7681H86.3386Z" fill="white"/>
<defs>
<radialGradient id="paint0_radial_1972_2091" cx="0" cy="0" r="1" gradientUnits="userSpaceOnUse" gradientTransform="translate(66 54.7037) rotate(90) scale(72.2963)">
<stop stop-color="#699CE8"/>
<stop offset="1" stop-color="#2364C6"/>
</radialGradient>
</defs>
</svg>
