<svg width="132" height="132" viewBox="0 0 132 132" fill="none" xmlns="http://www.w3.org/2000/svg">
<rect x="2.5" y="2.5" width="127" height="127" rx="63.5" fill="url(#paint0_radial_1914_2523)"/>
<path d="M66.0011 28C57.7231 28 51.0011 34.7221 51.0011 43.001C51.0061 45.6502 51.726 48.243 53.0597 50.5283L51.0265 56.6279C50.8962 57.0189 51.2684 57.3909 51.6593 57.2607L57.4933 55.3164C59.9938 57.0474 62.9541 57.9955 66.0001 58C74.2787 57.9998 81.0002 51.2783 81.0001 43C81.0001 34.7215 74.2791 28.0002 66.0011 28V28ZM60.9884 41.5C61.8109 41.5 62.4884 42.1776 62.4884 43C62.4884 43.8226 61.8109 44.5 60.9884 44.5C60.166 44.5 59.4894 43.8226 59.4894 43C59.4894 42.1776 60.1659 41.5 60.9884 41.5V41.5ZM66.0011 41.5C66.8236 41.5 67.5011 42.1776 67.5011 43C67.5011 43.8226 66.8236 44.5 66.0011 44.5C65.1787 44.5 64.5011 43.8226 64.5011 43C64.5011 42.1776 65.1786 41.5 66.0011 41.5V41.5ZM70.9884 41.5C71.8109 41.5 72.4884 42.1776 72.4884 43C72.4884 43.8226 71.8109 44.5 70.9884 44.5C70.166 44.5 69.4884 43.8226 69.4884 43C69.4884 42.1776 70.1659 41.5 70.9884 41.5V41.5Z" fill="white"/>
<path d="M43.9577 77.368C43.9577 76.2587 44.1977 75.272 44.6777 74.408C45.1577 73.5333 45.8244 72.856 46.6777 72.376C47.5417 71.8853 48.5177 71.64 49.6057 71.64C50.939 71.64 52.0804 71.992 53.0297 72.696C53.979 73.4 54.6137 74.36 54.9337 75.576H51.9257C51.7017 75.1067 51.3817 74.7493 50.9657 74.504C50.5604 74.2587 50.0964 74.136 49.5737 74.136C48.731 74.136 48.0484 74.4293 47.5257 75.016C47.003 75.6027 46.7417 76.3867 46.7417 77.368C46.7417 78.3493 47.003 79.1333 47.5257 79.72C48.0484 80.3067 48.731 80.6 49.5737 80.6C50.0964 80.6 50.5604 80.4773 50.9657 80.232C51.3817 79.9867 51.7017 79.6293 51.9257 79.16H54.9337C54.6137 80.376 53.979 81.336 53.0297 82.04C52.0804 82.7333 50.939 83.08 49.6057 83.08C48.5177 83.08 47.5417 82.84 46.6777 82.36C45.8244 81.8693 45.1577 81.192 44.6777 80.328C44.1977 79.464 43.9577 78.4773 43.9577 77.368ZM66.3372 71.768V83H63.6012V78.376H59.3452V83H56.6092V71.768H59.3452V76.168H63.6012V71.768H66.3372ZM75.3043 81.016H71.1123L70.4403 83H67.5763L71.6403 71.768H74.8083L78.8723 83H75.9763L75.3043 81.016ZM74.6003 78.904L73.2083 74.792L71.8323 78.904H74.6003ZM88.1892 71.768V73.96H85.2132V83H82.4772V73.96H79.5012V71.768H88.1892ZM56.3213 103H53.5853L49.0093 96.072V103H46.2733V91.768H49.0093L53.5853 98.728V91.768H56.3213V103ZM63.6165 103.112C62.5605 103.112 61.5898 102.867 60.7045 102.376C59.8298 101.885 59.1312 101.203 58.6085 100.328C58.0965 99.4427 57.8405 98.4507 57.8405 97.352C57.8405 96.2533 58.0965 95.2667 58.6085 94.392C59.1312 93.5173 59.8298 92.8347 60.7045 92.344C61.5898 91.8533 62.5605 91.608 63.6165 91.608C64.6725 91.608 65.6378 91.8533 66.5125 92.344C67.3978 92.8347 68.0912 93.5173 68.5925 94.392C69.1045 95.2667 69.3605 96.2533 69.3605 97.352C69.3605 98.4507 69.1045 99.4427 68.5925 100.328C68.0805 101.203 67.3872 101.885 66.5125 102.376C65.6378 102.867 64.6725 103.112 63.6165 103.112ZM63.6165 100.616C64.5125 100.616 65.2272 100.317 65.7605 99.72C66.3045 99.1227 66.5765 98.3333 66.5765 97.352C66.5765 96.36 66.3045 95.5707 65.7605 94.984C65.2272 94.3867 64.5125 94.088 63.6165 94.088C62.7098 94.088 61.9845 94.3813 61.4405 94.968C60.9072 95.5547 60.6405 96.3493 60.6405 97.352C60.6405 98.344 60.9072 99.1387 61.4405 99.736C61.9845 100.323 62.7098 100.616 63.6165 100.616ZM86.3386 91.768L83.4106 103H80.0986L78.3066 95.608L76.4506 103H73.1386L70.2906 91.768H73.2186L74.8346 99.944L76.8346 91.768H79.8426L81.7626 99.944L83.3946 91.768H86.3386Z" fill="white"/>
<rect x="2.5" y="2.5" width="127" height="127" rx="63.5" stroke="white" stroke-width="5"/>
<defs>
<radialGradient id="paint0_radial_1914_2523" cx="0" cy="0" r="1" gradientUnits="userSpaceOnUse" gradientTransform="translate(66 54.7037) rotate(90) scale(72.2963)">
<stop stop-color="#699CE8"/>
<stop offset="1" stop-color="#2364C6"/>
</radialGradient>
</defs>
</svg>
