<svg width="200" height="200" viewBox="0 0 200 200" fill="none" xmlns="http://www.w3.org/2000/svg">
<path d="M155.857 46.8053C155.332 43.5288 160.069 41.8409 162.029 42.4863C163.989 43.1316 164.837 51.174 162.029 51.174C159.221 51.174 156.321 49.645 155.857 46.8053Z" fill="url(#paint0_linear_1505_5633)"/>
<g style="mix-blend-mode:multiply" opacity="0.18">
<path d="M155.87 46.8056C156.335 49.6453 159.244 51.1743 162.042 51.1743C164.84 51.1743 164.012 43.2313 162.042 42.4866C161.575 42.3476 161.083 42.3037 160.598 42.3575C163.315 42.6057 162.679 48.2056 160.345 47.1333C158.892 46.4503 157.714 45.3068 157.001 43.8866C156.575 44.238 156.248 44.6907 156.05 45.2016C155.852 45.7125 155.79 46.2646 155.87 46.8056Z" fill="#900040"/>
</g>
<path d="M180.224 85.1504C183.123 83.8993 188.982 91.1077 188.416 93.3317C187.85 95.5558 184.769 97.4224 182.527 97.5416C180.284 97.6607 177.86 86.1631 180.224 85.1504Z" fill="url(#paint1_linear_1505_5633)"/>
<path d="M19.194 101.524C16.4868 101.524 14.8503 94.8514 15.5474 93.5309C16.2444 92.2103 22.6185 88.9338 23.7701 91.6543C24.9217 94.3748 21.7194 101.524 19.194 101.524Z" fill="url(#paint2_linear_1505_5633)"/>
<g style="mix-blend-mode:multiply" opacity="0.18">
<path d="M19.1891 101.523C21.7145 101.523 24.947 94.3447 23.7652 91.5944C23.3914 90.7504 22.452 90.4923 21.3812 90.5519C21.2701 91.088 21.169 91.6143 21.0478 92.1703C19.2295 100.411 17.0072 98.7432 15.7344 96.7971C16.3001 99.0708 17.5426 101.523 19.1891 101.523Z" fill="#900040"/>
</g>
<path d="M182.21 82.8972C173.603 57.519 150.895 28.0998 105.549 26.6304C60.2024 25.1609 33.8271 54.5801 25.1397 76.2746C16.8766 96.8968 -0.397182 166.012 95.3964 177.787C191.19 189.563 190.816 108.275 182.21 82.8972Z" fill="url(#paint3_linear_1505_5633)"/>
<path style="mix-blend-mode:multiply" opacity="0.39" d="M182.21 82.896C179.842 75.9154 176.612 69.2464 172.593 63.0383C172.593 63.0383 187.634 90.0845 169.492 102.754C151.349 115.423 122.337 98.7028 102.821 96.4986C83.3048 94.2944 50.8685 113.06 37.0192 97.5014C23.1699 81.9429 33.4028 61.4001 33.5038 61.1816C30.1259 65.8776 27.3187 70.946 25.1397 76.2834C16.8766 96.8957 -0.397182 166.01 95.3964 177.786C191.19 189.562 190.816 108.274 182.21 82.896Z" fill="url(#paint4_linear_1505_5633)"/>
<path style="mix-blend-mode:multiply" opacity="0.39" d="M95.382 177.787C164.932 186.336 183.781 145.836 185.6 113.25C184.003 125.045 180.549 137.992 173.124 144.099C157.689 156.788 147.021 154.901 147.021 154.901C147.021 154.901 150.385 165.058 140.011 166.439C129.637 167.819 123.727 157.89 123.727 157.89C123.727 157.89 115.585 169.755 97.069 169.755C78.5527 169.755 73.6838 154.861 73.6838 154.861C73.6838 154.861 66.754 163.917 63.673 156.619C60.5921 149.321 70.128 139.958 70.128 139.958C70.128 139.958 44.3082 146.899 27.4992 122.533C18.9431 110.152 20.2361 96.3706 21.9433 85.7964C14.3671 112.962 11.3366 167.461 95.382 177.787Z" fill="url(#paint5_linear_1505_5633)"/>
<g style="mix-blend-mode:multiply" opacity="0.18">
<path d="M73.6908 151.446C77.1354 152.498 77.994 144.277 75.0444 143.86C72.0947 143.443 70.5087 150.483 73.6908 151.446Z" fill="#900040"/>
</g>
<g style="mix-blend-mode:multiply" opacity="0.08">
<path d="M142.26 152.965C137.583 153.163 125.562 141.378 133.169 139.312C140.775 137.247 152.22 152.548 142.26 152.965Z" fill="#900040"/>
</g>
<g style="mix-blend-mode:multiply" opacity="0.08">
<path d="M130.942 152.111C133.619 154.286 127.528 158.724 124.022 155.001C120.517 151.277 129.588 151.039 130.942 152.111Z" fill="#900040"/>
</g>
<g style="mix-blend-mode:multiply" opacity="0.08">
<path d="M172.417 112.396C161.235 121.56 169.054 134.239 172.983 134.736C176.913 135.232 183.368 103.46 172.417 112.396Z" fill="#900040"/>
</g>
<g style="mix-blend-mode:multiply" opacity="0.08">
<path d="M180.13 112.137C177.038 109.089 174.725 100.034 180.13 100.689C185.534 101.344 183.786 115.721 180.13 112.137Z" fill="#900040"/>
</g>
<g style="mix-blend-mode:multiply" opacity="0.18">
<path d="M26.5086 112.595C21.9528 111.314 29.034 97.1452 32.2665 97.9792C35.4991 98.8133 32.1857 114.203 26.5086 112.595Z" fill="#900040"/>
</g>
<path style="mix-blend-mode:screen" opacity="0.36" d="M38.9855 78.8854C51.6024 79.5903 39.7027 39.17 86.5439 27.9106C75.906 29.7413 65.742 33.6238 56.638 39.3343C47.5341 45.0447 39.6704 52.4701 33.5003 61.1822C33.5003 61.1822 26.3585 78.1804 38.9855 78.8854Z" fill="url(#paint6_linear_1505_5633)"/>
<path style="mix-blend-mode:screen" opacity="0.36" d="M102.805 28.5557C138.161 30.7698 161.293 49.4063 162.748 50.6275C150.02 37.4718 131.493 27.4734 105.553 26.6295C70.1969 25.4777 46.4177 43.0915 33.5078 61.1819C33.5078 61.1819 62.4287 26.0139 102.805 28.5557Z" fill="url(#paint7_linear_1505_5633)"/>
<path style="mix-blend-mode:screen" opacity="0.36" d="M47.121 76.1657C49.0908 72.9686 66.7585 80.4153 68.9203 87.4548C71.082 94.4944 42.0601 84.3372 47.121 76.1657Z" fill="url(#paint8_linear_1505_5633)"/>
<path style="mix-blend-mode:screen" opacity="0.36" d="M140.701 87.196C139.792 83.562 157.642 76.5522 164.198 80.0571C170.754 83.562 142.995 96.5092 140.701 87.196Z" fill="url(#paint9_linear_1505_5633)"/>
<path style="mix-blend-mode:multiply" opacity="0.39" d="M95.396 177.787C188.533 189.235 190.765 112.733 182.906 85.1509C182.906 85.1509 189.977 145.25 115.882 152.965C41.7867 160.68 17.5429 128.967 19.2803 98.3563C15.1488 127.041 22.8159 168.871 95.396 177.787Z" fill="url(#paint10_linear_1505_5633)"/>
<path style="mix-blend-mode:screen" opacity="0.36" d="M37.0271 97.5021C50.8764 113.061 83.2723 94.305 102.809 96.5092C122.345 98.7134 151.347 115.453 169.48 102.764C176.662 97.7305 178.632 90.4526 178.399 83.5024C178.197 89.8072 175.965 96.1816 169.48 100.719C151.297 113.408 122.325 96.678 102.809 94.4639C83.2925 92.2497 50.8764 111.015 37.0271 95.4568C32.4757 90.3155 29.9271 83.754 29.8348 76.9395C29.4486 84.4483 32.025 91.814 37.0271 97.5021Z" fill="url(#paint11_linear_1505_5633)"/>
<g style="mix-blend-mode:multiply" opacity="0.36">
<path d="M38.6206 79.0256C40.1863 76.8313 32.9031 66.3167 29.8726 65.7011C26.8421 65.0855 23.0439 72.6811 24.8723 75.9476C26.7007 79.2142 36.6609 81.7858 38.6206 79.0256Z" fill="#900040"/>
</g>
<g style="mix-blend-mode:multiply" opacity="0.36">
<path d="M45.599 73.7824C42.4877 72.0746 48.0234 69.6421 49.0033 71.0222C49.9831 72.4023 48.377 75.3015 45.599 73.7824Z" fill="#900040"/>
</g>
<g style="mix-blend-mode:multiply" opacity="0.36">
<path d="M40.7203 61.7576C38.0939 60.4569 42.9629 57.786 44.0842 58.3619C45.2055 58.9378 43.6599 63.1774 40.7203 61.7576Z" fill="#900040"/>
</g>
<g style="mix-blend-mode:multiply" opacity="0.36">
<path d="M55.4 46.0906C52.5513 45.8622 53.511 40.8085 55.4 38.1475C57.289 35.4866 59.6123 33.9675 62.1983 38.1475C64.8854 42.4765 64.451 46.8055 55.4 46.0906Z" fill="#900040"/>
</g>
<g style="mix-blend-mode:multiply" opacity="0.36">
<path d="M109.489 29.6483C105.63 28.0597 111.509 23.3931 113.398 21.9237C115.065 20.6428 110.064 26.4611 117.439 26.2526C119.57 26.1931 119.196 33.6496 109.489 29.6483Z" fill="#900040"/>
</g>
<g style="mix-blend-mode:multiply" opacity="0.36">
<path d="M165.813 80.1861C164.368 76.0557 164.631 74.2288 168.843 72.4118C173.056 70.5948 177.793 81.3478 177.531 83.1449C177.268 84.942 167.045 83.691 165.813 80.1861Z" fill="#900040"/>
</g>
<g style="mix-blend-mode:multiply" opacity="0.36">
<path d="M118.829 73.2737C117.384 69.1433 117.647 67.3164 121.859 65.4994C126.071 63.6825 130.809 74.4354 130.546 76.2325C130.284 78.0296 120.061 76.7786 118.829 73.2737Z" fill="#900040"/>
</g>
<g style="mix-blend-mode:multiply" opacity="0.36">
<path d="M149.89 100.61C152.739 103.003 158.871 100.401 159.154 97.5021C159.436 94.6029 153.618 90.0058 152.032 90.3533C150.446 90.7008 146.527 97.79 149.89 100.61Z" fill="#900040"/>
</g>
<g style="mix-blend-mode:multiply" opacity="0.36">
<path d="M159.725 103.301C160.665 102.159 166.382 103.857 164.776 106.131C163.17 108.404 157.341 106.2 159.725 103.301Z" fill="#900040"/>
</g>
<g style="mix-blend-mode:multiply" opacity="0.36">
<path d="M165.828 90.5522C164.181 88.2388 171.343 85.7665 171.293 89.0728C171.242 92.3791 167.858 93.4316 165.828 90.5522Z" fill="#900040"/>
</g>
<g style="mix-blend-mode:multiply" opacity="0.36">
<path d="M129.697 97.2341C127.05 94.3448 135.162 92.2697 135.758 95.4568C136.354 98.644 132.223 99.9844 129.697 97.2341Z" fill="#900040"/>
</g>
<g style="mix-blend-mode:multiply" opacity="0.36">
<path d="M103.416 69.6518C100.769 66.7625 108.881 64.6874 109.477 67.8746C110.073 71.0617 105.941 72.4021 103.416 69.6518Z" fill="#900040"/>
</g>
<g style="mix-blend-mode:multiply" opacity="0.36">
<path d="M160.46 65.7298C163.177 66.256 164.591 61.0731 162.086 60.5469C159.581 60.0207 156.429 64.9354 160.46 65.7298Z" fill="#900040"/>
</g>
<g style="mix-blend-mode:multiply" opacity="0.36">
<path d="M54.891 108.007C58.1538 104.77 56.5072 93.1831 53.5879 92.2398C50.6685 91.2966 46.4056 99.1205 47.1329 102.933C47.8602 106.746 52.6383 110.231 54.891 108.007Z" fill="#900040"/>
</g>
<g style="mix-blend-mode:multiply" opacity="0.36">
<path d="M87.3026 65.0076C91.9259 65.3428 99.8182 56.5849 98.6512 53.7907C97.4842 50.9965 88.6633 52.894 86.1868 55.9144C83.7104 58.9348 84.119 64.7692 87.3026 65.0076Z" fill="#900040"/>
</g>
<g style="mix-blend-mode:multiply" opacity="0.36">
<path d="M61.6433 92.161C60.0675 89.788 68.0073 86.3129 69.5933 88.7355C71.1793 91.1582 64.896 97.0261 61.6433 92.161Z" fill="#900040"/>
</g>
<g style="mix-blend-mode:multiply" opacity="0.36">
<path d="M38.3657 93.0042C34.4362 92.7858 36.699 87.5433 39.9921 88.2284C43.2852 88.9135 42.4367 93.2326 38.3657 93.0042Z" fill="#900040"/>
</g>
<g style="mix-blend-mode:multiply" opacity="0.36">
<path d="M51.2491 125.78C49.5015 124.787 49.1378 119.982 52.6431 120.607C56.1484 121.233 53.9058 127.289 51.2491 125.78Z" fill="#900040"/>
</g>
<g style="mix-blend-mode:multiply" opacity="0.36">
<path d="M91.0499 116.175C89.3023 115.183 88.9386 110.377 92.4439 111.002C95.9492 111.628 93.7066 117.685 91.0499 116.175Z" fill="#900040"/>
</g>
<g style="mix-blend-mode:multiply" opacity="0.36">
<path d="M88.4118 123.259C87.1283 123.457 84.9688 121.195 86.981 120.115C88.9933 119.035 90.3628 122.958 88.4118 123.259Z" fill="#900040"/>
</g>
<g style="mix-blend-mode:multiply" opacity="0.36">
<path d="M162.092 137.644C165.051 136.949 163.466 132.491 160.96 132.928C158.455 133.365 159.122 138.33 162.092 137.644Z" fill="#900040"/>
</g>
<path d="M38.0074 78.4882C39.5631 76.294 32.2899 65.7694 29.2493 65.1637C26.2087 64.5581 22.461 72.1834 24.249 75.4004C26.037 78.6173 36.0376 81.2485 38.0074 78.4882Z" fill="url(#paint12_linear_1505_5633)"/>
<path d="M44.9753 73.2455C41.8539 71.5378 47.3895 69.1052 48.3795 70.4853C49.3695 71.8654 47.7027 74.7646 44.9753 73.2455Z" fill="#4B2119"/>
<path d="M40.111 61.1831C37.4846 59.8923 42.3535 57.2116 43.4748 57.7974C44.5961 58.3832 43.0606 62.6426 40.111 61.1831Z" fill="#4B2119"/>
<path d="M54.7865 45.5545C51.9479 45.3261 52.8975 40.2723 54.7865 37.6114C56.6755 34.9504 59.7666 32.8455 61.5849 37.6114C63.4031 42.3772 63.8779 46.2693 54.7865 45.5545Z" fill="url(#paint13_linear_1505_5633)"/>
<path d="M108.898 29.1122C105.029 27.5137 110.837 22.7677 112.807 21.3876C114.777 20.0075 118.656 23.1748 118.818 25.2499C118.979 27.3251 118.595 33.1136 108.898 29.1122Z" fill="url(#paint14_linear_1505_5633)"/>
<path d="M165.204 79.6302C163.759 75.4998 164.022 73.6729 168.234 71.8559C172.446 70.0389 177.174 80.7918 176.911 82.589C176.649 84.3861 166.436 83.1549 165.204 79.6302Z" fill="url(#paint15_linear_1505_5633)"/>
<path d="M118.219 72.7183C116.775 68.5879 117.037 66.761 121.25 64.944C125.462 63.127 130.19 73.88 129.927 75.6771C129.664 77.4742 119.452 76.243 118.219 72.7183Z" fill="url(#paint16_linear_1505_5633)"/>
<path d="M149.263 100.074C152.112 102.457 158.244 99.8651 158.526 96.9658C158.809 94.0666 153.001 89.4696 151.405 89.8071C149.809 90.1447 145.899 97.2538 149.263 100.074Z" fill="url(#paint17_linear_1505_5633)"/>
<path d="M159.096 102.764C160.035 101.622 165.743 103.32 164.147 105.594C162.55 107.868 156.712 105.654 159.096 102.764Z" fill="#4B2119"/>
<path d="M165.197 90.0354C163.56 87.7219 170.712 85.2496 170.662 88.556C170.611 91.8623 167.227 92.8949 165.197 90.0354Z" fill="#4B2119"/>
<path d="M129.068 96.6878C126.421 93.8084 134.543 91.7233 135.129 94.9204C135.715 98.1175 131.553 99.4877 129.068 96.6878Z" fill="#4B2119"/>
<path d="M102.786 69.1067C100.14 66.2273 108.262 64.1423 108.847 67.3394C109.433 70.5365 105.271 71.9066 102.786 69.1067Z" fill="#4B2119"/>
<path d="M159.855 65.1639C162.582 65.6901 163.986 60.5072 161.481 59.981C158.976 59.4548 155.814 64.3993 159.855 65.1639Z" fill="#4B2119"/>
<path d="M54.2733 107.43C57.5462 104.184 55.8896 92.6067 52.9803 91.6634C50.071 90.7202 45.788 98.5441 46.5254 102.357C47.2628 106.169 52.0308 109.694 54.2733 107.43Z" fill="url(#paint18_linear_1505_5633)"/>
<path d="M87.3441 64.1645C91.9816 64.5008 99.8597 55.7418 98.6992 52.9552C97.5388 50.1685 88.7048 52.0509 86.2349 55.0789C83.765 58.1068 84.1363 63.9594 87.3441 64.1645Z" fill="url(#paint19_linear_1505_5633)"/>
<path d="M61.0146 91.6239C59.4388 89.2509 67.3686 85.7758 68.9646 88.1984C70.5607 90.621 64.2371 96.5089 61.0146 91.6239Z" fill="url(#paint20_linear_1505_5633)"/>
<path d="M37.764 92.4676C33.8244 92.2492 36.0871 87.0067 39.3803 87.6918C42.6734 88.3769 41.8249 92.696 37.764 92.4676Z" fill="#4B2119"/>
<path d="M50.6151 125.243C48.8777 124.25 48.5039 119.445 52.0193 120.07C55.5346 120.696 53.282 126.762 50.6151 125.243Z" fill="#4B2119"/>
<path d="M90.3925 115.639C88.655 114.646 88.2812 109.84 91.7966 110.466C95.312 111.091 93.0593 117.158 90.3925 115.639Z" fill="#4B2119"/>
<path d="M87.8858 123.239C86.6074 123.433 84.4428 121.176 86.4601 120.091C88.4774 119.007 89.846 122.939 87.8858 123.239Z" fill="#4B2119"/>
<path d="M161.457 137.109C164.426 136.414 162.84 131.955 160.335 132.392C157.83 132.829 158.487 137.794 161.457 137.109Z" fill="#4B2119"/>
<g style="mix-blend-mode:multiply" opacity="0.18">
<path d="M24.2319 75.4006C26.0603 78.6275 36.0205 81.2487 37.9903 78.4885C39.546 76.2942 32.2728 65.7696 29.2322 65.164C29.0114 65.1293 28.7864 65.1293 28.5655 65.164C30.202 65.025 31.1212 67.8448 32.9799 73.673C34.8386 79.5012 28.02 74.9042 26.232 73.673C24.4441 72.4418 24.6764 69.4135 24.6865 69.3639C23.7572 71.4886 23.3935 73.9113 24.2319 75.4006Z" fill="#900040"/>
</g>
<g style="mix-blend-mode:multiply" opacity="0.18">
<path d="M54.7971 45.5544C63.8885 46.2693 63.4239 42.3474 61.5955 37.6114C61.3017 36.6276 60.701 35.7594 59.8782 35.1292C60.0323 36.3545 60.0594 37.592 59.959 38.8227C59.959 42.4467 57.4336 42.9233 55.4739 42.4666C53.5142 42.0098 54.0799 38.8723 54.0799 38.8326C52.706 41.573 52.3323 45.3559 54.7971 45.5544Z" fill="#900040"/>
</g>
<g style="mix-blend-mode:multiply" opacity="0.18">
<path d="M108.893 29.1125C118.591 33.0841 118.995 27.3154 118.813 25.2502C118.671 23.5126 115.934 21.0503 113.883 21.0503C116.388 21.5765 116.257 23.3339 116.166 26.531C116.075 29.7281 112.429 27.8714 110.105 26.8388C108.428 26.0842 108.469 25.4786 108.63 25.2006C107.438 26.7792 106.984 28.3281 108.893 29.1125Z" fill="#900040"/>
</g>
<g style="mix-blend-mode:multiply" opacity="0.18">
<path d="M176.909 82.6089C177.172 80.8018 172.434 70.0688 168.232 71.8758C171.08 70.9723 173.232 76.6516 174.353 79.9579C175.475 83.2642 169.868 80.5139 167.818 79.5905C166.389 78.8003 165.216 77.6303 164.434 76.2147C164.517 77.3842 164.776 78.5351 165.201 79.6302C166.434 83.155 176.646 84.4159 176.909 82.6089Z" fill="#900040"/>
</g>
<g style="mix-blend-mode:multiply" opacity="0.18">
<path d="M129.925 75.6956C130.187 73.8885 125.45 63.1554 121.247 64.9625C124.096 64.059 126.248 69.7383 127.369 73.0446C128.49 76.3509 122.884 73.6006 120.833 72.6772C119.405 71.887 118.232 70.717 117.449 69.3014C117.533 70.4708 117.791 71.6217 118.217 72.7169C119.449 76.2417 129.662 77.5026 129.925 75.6956Z" fill="#900040"/>
</g>
<g style="mix-blend-mode:multiply" opacity="0.18">
<path d="M158.53 96.9669C158.783 94.3953 154.227 90.4833 152.086 89.8777C152.51 90.394 153.005 91.3174 153.853 92.6478C155.722 95.6265 154.864 98.069 151.904 98.347C148.944 98.625 147.974 96.7385 147.954 96.6988C147.898 97.3226 147.986 97.9508 148.214 98.5358C148.442 99.1207 148.802 99.647 149.267 100.075C152.116 102.467 158.248 99.8661 158.53 96.9669Z" fill="#900040"/>
</g>
<g style="mix-blend-mode:multiply" opacity="0.18">
<path d="M46.5295 102.398C47.2568 106.211 52.0349 109.696 54.2775 107.472C57.5504 104.225 55.8937 92.6478 52.9845 91.7046C52.8456 91.67 52.7034 91.65 52.5602 91.645C53.6209 91.9032 53.8229 93.2634 53.833 97.0662C53.833 101.812 51.8127 105.009 49.3479 102.765C48.6191 102.012 48.074 101.106 47.7537 100.115C47.4335 99.1243 47.3465 98.075 47.4993 97.0463C46.6898 98.7112 46.3547 100.561 46.5295 102.398Z" fill="#900040"/>
</g>
<g style="mix-blend-mode:multiply" opacity="0.18">
<path d="M86.2007 55.1071C83.7242 58.1275 84.1328 63.9619 87.3099 64.1927C91.9474 64.529 99.8255 55.77 98.665 52.9834C98.6015 52.8571 98.5246 52.7379 98.4355 52.6277C98.9249 53.5879 98.004 54.6226 95.0693 57.1006C91.3985 60.1839 87.6132 60.7512 87.7475 57.4517C87.8567 56.4177 88.2035 55.4216 88.7617 54.5387C89.32 53.6558 90.0751 52.9091 90.9699 52.355C89.1563 52.8318 87.5081 53.7829 86.2007 55.1071Z" fill="#900040"/>
</g>
<g style="mix-blend-mode:multiply" opacity="0.18">
<path d="M61.0147 91.6249C64.2371 96.49 70.5506 90.632 68.9647 88.1994C68.7403 87.9243 68.4509 87.7072 68.1217 87.567C67.7924 87.4268 67.4334 87.3678 67.0757 87.3952C70.7728 87.6732 64.6109 91.8135 62.833 90.9199C61.0551 90.0263 62.3582 88.9342 62.3885 88.8845C61.1561 89.7086 60.4288 90.7412 61.0147 91.6249Z" fill="#900040"/>
</g>
<path style="mix-blend-mode:screen" opacity="0.17" d="M32.9048 73.4044C31.1067 67.7748 30.1874 65.0245 28.5813 65.1635C28.1535 65.2662 27.7536 65.4593 27.4095 65.7294C26.167 67.0301 34.1271 79.878 32.9048 73.4044Z" fill="url(#paint21_linear_1505_5633)"/>
<path style="mix-blend-mode:screen" opacity="0.17" d="M54.7877 37.5918C54.5185 37.981 54.2788 38.3892 54.0705 38.813C53.8941 39.786 54.0172 40.7886 54.4241 41.6924C54.7665 42.1166 55.2553 42.4027 55.7979 42.4966C58.5455 42.8739 59.2425 34.8315 57.0404 35.2684C56.1403 35.8885 55.3745 36.6782 54.7877 37.5918Z" fill="url(#paint22_linear_1505_5633)"/>
<path style="mix-blend-mode:screen" opacity="0.17" d="M116.18 25.369C116.231 22.9265 116.039 21.5464 113.867 21.0499C113.483 21.0304 113.104 21.135 112.786 21.3478L112.534 21.5265C110.827 23.2144 116.13 30.6412 116.18 25.369Z" fill="url(#paint23_linear_1505_5633)"/>
<path style="mix-blend-mode:screen" opacity="0.17" d="M164.436 76.2144C165.219 77.63 166.392 78.8 167.82 79.5902L168.436 79.8682C173.073 81.1788 173.214 80.7519 169.84 77.5548C166.466 74.3577 165.638 73.0471 164.567 75.0627C164.467 75.4382 164.422 75.8263 164.436 76.2144Z" fill="url(#paint24_linear_1505_5633)"/>
<path style="mix-blend-mode:screen" opacity="0.17" d="M117.452 69.3026C118.234 70.7181 119.407 71.8882 120.836 72.6784L121.452 72.9564C126.089 74.267 126.23 73.84 122.856 70.6429C119.482 67.4459 118.654 66.1352 117.583 68.1508C117.482 68.5263 117.438 68.9144 117.452 69.3026Z" fill="url(#paint25_linear_1505_5633)"/>
<path style="mix-blend-mode:screen" opacity="0.17" d="M154.442 96.996C154.682 96.6194 154.822 96.1889 154.846 95.745C154.851 95.6921 154.851 95.6389 154.846 95.5861C154.806 94.5186 154.456 93.4848 153.836 92.6074C152.987 91.277 152.492 90.3536 152.068 89.8373C151.85 89.7689 151.619 89.7453 151.391 89.7678C151.09 89.8741 150.822 90.0554 150.614 90.294C149.593 92.806 153.189 97.7704 154.442 96.996Z" fill="url(#paint26_linear_1505_5633)"/>
<path style="mix-blend-mode:screen" opacity="0.17" d="M53.3619 100.689C53.6822 99.5076 53.8385 98.2885 53.8265 97.0654C53.8265 93.2627 53.6144 91.9024 52.5537 91.6443C51.9942 91.6507 51.4519 91.8354 51.0082 92.1705C49.5637 93.5903 51.6143 104.979 53.3619 100.689Z" fill="url(#paint27_linear_1505_5633)"/>
<path style="mix-blend-mode:screen" opacity="0.17" d="M91.9638 59.1056C93.086 58.5771 94.1304 57.9019 95.0687 57.0984C98.0099 54.628 98.9242 53.5858 98.4348 52.6255C98.0663 52.2116 97.5712 51.9263 97.0237 51.8125C94.9871 51.6555 87.5109 60.5863 91.9638 59.1056Z" fill="url(#paint28_linear_1505_5633)"/>
<path style="mix-blend-mode:screen" opacity="0.17" d="M62.8573 90.9189C62.9579 90.9605 63.0629 90.9905 63.1705 91.0083H63.2816C66.7869 89.7771 66.0191 87.9701 64.2918 87.9502C63.6118 88.2 62.9669 88.5336 62.3725 88.9431C62.3725 88.9431 61.0694 90.0253 62.8573 90.9189Z" fill="url(#paint29_linear_1505_5633)"/>
<defs>
<linearGradient id="paint0_linear_1505_5633" x1="155.816" y1="46.7557" x2="163.837" y2="46.7557" gradientUnits="userSpaceOnUse">
<stop stop-color="#8B3032"/>
<stop offset="0.01" stop-color="#8A3032"/>
<stop offset="0.44" stop-color="#622722"/>
<stop offset="0.79" stop-color="#492119"/>
<stop offset="1" stop-color="#401F15"/>
</linearGradient>
<linearGradient id="paint1_linear_1505_5633" x1="179.254" y1="91.2765" x2="188.456" y2="91.2765" gradientUnits="userSpaceOnUse">
<stop stop-color="#8B3032"/>
<stop offset="0.01" stop-color="#8A3032"/>
<stop offset="0.44" stop-color="#622722"/>
<stop offset="0.79" stop-color="#492119"/>
<stop offset="1" stop-color="#401F15"/>
</linearGradient>
<linearGradient id="paint2_linear_1505_5633" x1="15.3857" y1="96.0429" x2="24.0226" y2="96.0429" gradientUnits="userSpaceOnUse">
<stop stop-color="#8B3032"/>
<stop offset="0.01" stop-color="#8A3032"/>
<stop offset="0.44" stop-color="#622722"/>
<stop offset="0.79" stop-color="#492119"/>
<stop offset="1" stop-color="#401F15"/>
</linearGradient>
<linearGradient id="paint3_linear_1505_5633" x1="81.2138" y1="41.7917" x2="121.18" y2="172.509" gradientUnits="userSpaceOnUse">
<stop stop-color="#E59540"/>
<stop offset="1" stop-color="#D64531"/>
</linearGradient>
<linearGradient id="paint4_linear_1505_5633" x1="92.871" y1="35.4163" x2="108.933" y2="167.359" gradientUnits="userSpaceOnUse">
<stop stop-color="#900040"/>
<stop offset="0.2" stop-color="#A9386A"/>
<stop offset="0.6" stop-color="#D7A2B9"/>
<stop offset="0.87" stop-color="#F4E5EC"/>
<stop offset="1" stop-color="white"/>
</linearGradient>
<linearGradient id="paint5_linear_1505_5633" x1="55.6322" y1="52.0184" x2="133.026" y2="172.497" gradientUnits="userSpaceOnUse">
<stop stop-color="#900040"/>
<stop offset="0.12" stop-color="#920443"/>
<stop offset="0.24" stop-color="#97114D"/>
<stop offset="0.37" stop-color="#A0265C"/>
<stop offset="0.5" stop-color="#AD4372"/>
<stop offset="0.63" stop-color="#BE698F"/>
<stop offset="0.76" stop-color="#D297B1"/>
<stop offset="0.89" stop-color="#E9CDDA"/>
<stop offset="1" stop-color="white"/>
</linearGradient>
<linearGradient id="paint6_linear_1505_5633" x1="48.6225" y1="35.258" x2="69.1296" y2="67.1658" gradientUnits="userSpaceOnUse">
<stop stop-color="#FFFFB1"/>
<stop offset="0.08" stop-color="#DBDB98"/>
<stop offset="0.22" stop-color="#A2A270"/>
<stop offset="0.36" stop-color="#70704E"/>
<stop offset="0.5" stop-color="#484832"/>
<stop offset="0.64" stop-color="#29291C"/>
<stop offset="0.77" stop-color="#12120D"/>
<stop offset="0.89" stop-color="#050503"/>
<stop offset="1"/>
</linearGradient>
<linearGradient id="paint7_linear_1505_5633" x1="79.0055" y1="27.1458" x2="108.287" y2="72.7252" gradientUnits="userSpaceOnUse">
<stop stop-color="#FFFFB1"/>
<stop offset="0.11" stop-color="#D4D493"/>
<stop offset="0.28" stop-color="#959567"/>
<stop offset="0.45" stop-color="#606042"/>
<stop offset="0.61" stop-color="#363626"/>
<stop offset="0.75" stop-color="#181811"/>
<stop offset="0.87" stop-color="#060604"/>
<stop offset="0.95"/>
</linearGradient>
<linearGradient id="paint8_linear_1505_5633" x1="66.506" y1="72.5616" x2="52.3113" y2="89.6721" gradientUnits="userSpaceOnUse">
<stop stop-color="#FFFFB1"/>
<stop offset="0.08" stop-color="#DBDB98"/>
<stop offset="0.22" stop-color="#A2A270"/>
<stop offset="0.36" stop-color="#70704E"/>
<stop offset="0.5" stop-color="#484832"/>
<stop offset="0.64" stop-color="#29291C"/>
<stop offset="0.77" stop-color="#12120D"/>
<stop offset="0.89" stop-color="#050503"/>
<stop offset="1"/>
</linearGradient>
<linearGradient id="paint9_linear_1505_5633" x1="151.807" y1="71.1784" x2="153.636" y2="93.1657" gradientUnits="userSpaceOnUse">
<stop stop-color="#FFFFB1"/>
<stop offset="0.08" stop-color="#DBDB98"/>
<stop offset="0.22" stop-color="#A2A270"/>
<stop offset="0.36" stop-color="#70704E"/>
<stop offset="0.5" stop-color="#484832"/>
<stop offset="0.64" stop-color="#29291C"/>
<stop offset="0.77" stop-color="#12120D"/>
<stop offset="0.89" stop-color="#050503"/>
<stop offset="1"/>
</linearGradient>
<linearGradient id="paint10_linear_1505_5633" x1="83.2539" y1="48.2851" x2="123.21" y2="178.972" gradientUnits="userSpaceOnUse">
<stop offset="0.59" stop-color="white"/>
<stop offset="0.64" stop-color="#FDFAFB"/>
<stop offset="0.69" stop-color="#F6EBF0"/>
<stop offset="0.74" stop-color="#ECD3DE"/>
<stop offset="0.8" stop-color="#DDB2C5"/>
<stop offset="0.86" stop-color="#CA86A5"/>
<stop offset="0.92" stop-color="#B3517D"/>
<stop offset="0.98" stop-color="#99144F"/>
<stop offset="1" stop-color="#900040"/>
</linearGradient>
<linearGradient id="paint11_linear_1505_5633" x1="97.9399" y1="32.7561" x2="106.864" y2="106.029" gradientUnits="userSpaceOnUse">
<stop offset="0.47" stop-color="#FFFFB1"/>
<stop offset="0.51" stop-color="#DBDB98"/>
<stop offset="0.59" stop-color="#A2A270"/>
<stop offset="0.66" stop-color="#70704E"/>
<stop offset="0.74" stop-color="#484832"/>
<stop offset="0.81" stop-color="#29291C"/>
<stop offset="0.88" stop-color="#12120D"/>
<stop offset="0.94" stop-color="#050503"/>
<stop offset="1"/>
</linearGradient>
<linearGradient id="paint12_linear_1505_5633" x1="24.845" y1="68.1027" x2="36.5196" y2="79.9804" gradientUnits="userSpaceOnUse">
<stop stop-color="#8B3032"/>
<stop offset="0.01" stop-color="#8A3032"/>
<stop offset="0.44" stop-color="#622722"/>
<stop offset="0.79" stop-color="#492119"/>
<stop offset="1" stop-color="#401F15"/>
</linearGradient>
<linearGradient id="paint13_linear_1505_5633" x1="54.3925" y1="37.7206" x2="61.3021" y2="44.7403" gradientUnits="userSpaceOnUse">
<stop stop-color="#8B3032"/>
<stop offset="0.01" stop-color="#8A3032"/>
<stop offset="0.44" stop-color="#622722"/>
<stop offset="0.79" stop-color="#492119"/>
<stop offset="1" stop-color="#401F15"/>
</linearGradient>
<linearGradient id="paint14_linear_1505_5633" x1="110.353" y1="23.3535" x2="116.944" y2="30.06" gradientUnits="userSpaceOnUse">
<stop stop-color="#8B3032"/>
<stop offset="0.01" stop-color="#8A3032"/>
<stop offset="0.44" stop-color="#622722"/>
<stop offset="0.79" stop-color="#492119"/>
<stop offset="1" stop-color="#401F15"/>
</linearGradient>
<linearGradient id="paint15_linear_1505_5633" x1="162.698" y1="73.2658" x2="173.391" y2="79.6522" gradientUnits="userSpaceOnUse">
<stop stop-color="#8B3032"/>
<stop offset="0.01" stop-color="#8A3032"/>
<stop offset="0.44" stop-color="#622722"/>
<stop offset="0.79" stop-color="#492119"/>
<stop offset="1" stop-color="#401F15"/>
</linearGradient>
<linearGradient id="paint16_linear_1505_5633" x1="115.714" y1="66.3539" x2="126.406" y2="72.7404" gradientUnits="userSpaceOnUse">
<stop stop-color="#8B3032"/>
<stop offset="0.01" stop-color="#8A3032"/>
<stop offset="0.44" stop-color="#622722"/>
<stop offset="0.79" stop-color="#492119"/>
<stop offset="1" stop-color="#401F15"/>
</linearGradient>
<linearGradient id="paint17_linear_1505_5633" x1="147.324" y1="91.0681" x2="154.869" y2="98.7442" gradientUnits="userSpaceOnUse">
<stop stop-color="#8B3032"/>
<stop offset="0.01" stop-color="#8A3032"/>
<stop offset="0.44" stop-color="#622722"/>
<stop offset="0.79" stop-color="#492119"/>
<stop offset="1" stop-color="#401F15"/>
</linearGradient>
<linearGradient id="paint18_linear_1505_5633" x1="45.5859" y1="93.6988" x2="54.8978" y2="103.173" gradientUnits="userSpaceOnUse">
<stop stop-color="#8B3032"/>
<stop offset="0.01" stop-color="#8A3032"/>
<stop offset="0.44" stop-color="#622722"/>
<stop offset="0.79" stop-color="#492119"/>
<stop offset="1" stop-color="#401F15"/>
</linearGradient>
<linearGradient id="paint19_linear_1505_5633" x1="92.3211" y1="48.7522" x2="91.3087" y2="61.8856" gradientUnits="userSpaceOnUse">
<stop stop-color="#8B3032"/>
<stop offset="0.01" stop-color="#8A3032"/>
<stop offset="0.44" stop-color="#622722"/>
<stop offset="0.79" stop-color="#492119"/>
<stop offset="1" stop-color="#401F15"/>
</linearGradient>
<linearGradient id="paint20_linear_1505_5633" x1="63.0552" y1="88.0693" x2="67.2642" y2="92.3617" gradientUnits="userSpaceOnUse">
<stop stop-color="#8B3032"/>
<stop offset="0.01" stop-color="#8A3032"/>
<stop offset="0.44" stop-color="#622722"/>
<stop offset="0.79" stop-color="#492119"/>
<stop offset="1" stop-color="#401F15"/>
</linearGradient>
<linearGradient id="paint21_linear_1505_5633" x1="26.763" y1="66.206" x2="38.4475" y2="78.0938" gradientUnits="userSpaceOnUse">
<stop stop-color="#FFFFB1"/>
<stop offset="0.01" stop-color="#F8F8AC"/>
<stop offset="0.13" stop-color="#BEBE84"/>
<stop offset="0.25" stop-color="#8C8C61"/>
<stop offset="0.37" stop-color="#616143"/>
<stop offset="0.49" stop-color="#3E3E2B"/>
<stop offset="0.62" stop-color="#232318"/>
<stop offset="0.74" stop-color="#0F0F0B"/>
<stop offset="0.87" stop-color="#040403"/>
<stop offset="1"/>
</linearGradient>
<linearGradient id="paint22_linear_1505_5633" x1="54.7978" y1="37.3137" x2="61.7073" y2="44.3434" gradientUnits="userSpaceOnUse">
<stop stop-color="#FFFFB1"/>
<stop offset="0.01" stop-color="#F8F8AC"/>
<stop offset="0.13" stop-color="#BEBE84"/>
<stop offset="0.25" stop-color="#8C8C61"/>
<stop offset="0.37" stop-color="#616143"/>
<stop offset="0.49" stop-color="#3E3E2B"/>
<stop offset="0.62" stop-color="#232318"/>
<stop offset="0.74" stop-color="#0F0F0B"/>
<stop offset="0.87" stop-color="#040403"/>
<stop offset="1"/>
</linearGradient>
<linearGradient id="paint23_linear_1505_5633" x1="112.13" y1="21.5861" x2="118.722" y2="28.2925" gradientUnits="userSpaceOnUse">
<stop stop-color="#FFFFB1"/>
<stop offset="0.01" stop-color="#F8F8AC"/>
<stop offset="0.13" stop-color="#BEBE84"/>
<stop offset="0.25" stop-color="#8C8C61"/>
<stop offset="0.37" stop-color="#616143"/>
<stop offset="0.49" stop-color="#3E3E2B"/>
<stop offset="0.62" stop-color="#232318"/>
<stop offset="0.74" stop-color="#0F0F0B"/>
<stop offset="0.87" stop-color="#040403"/>
<stop offset="1"/>
</linearGradient>
<linearGradient id="paint24_linear_1505_5633" x1="162.163" y1="74.1492" x2="172.856" y2="80.5357" gradientUnits="userSpaceOnUse">
<stop stop-color="#FFFFB1"/>
<stop offset="0.01" stop-color="#F8F8AC"/>
<stop offset="0.13" stop-color="#BEBE84"/>
<stop offset="0.25" stop-color="#8C8C61"/>
<stop offset="0.37" stop-color="#616143"/>
<stop offset="0.49" stop-color="#3E3E2B"/>
<stop offset="0.62" stop-color="#232318"/>
<stop offset="0.74" stop-color="#0F0F0B"/>
<stop offset="0.87" stop-color="#040403"/>
<stop offset="1"/>
</linearGradient>
<linearGradient id="paint25_linear_1505_5633" x1="115.179" y1="67.2374" x2="125.871" y2="73.6238" gradientUnits="userSpaceOnUse">
<stop stop-color="#FFFFB1"/>
<stop offset="0.01" stop-color="#F8F8AC"/>
<stop offset="0.13" stop-color="#BEBE84"/>
<stop offset="0.25" stop-color="#8C8C61"/>
<stop offset="0.37" stop-color="#616143"/>
<stop offset="0.49" stop-color="#3E3E2B"/>
<stop offset="0.62" stop-color="#232318"/>
<stop offset="0.74" stop-color="#0F0F0B"/>
<stop offset="0.87" stop-color="#040403"/>
<stop offset="1"/>
</linearGradient>
<linearGradient id="paint26_linear_1505_5633" x1="148.866" y1="89.5692" x2="156.411" y2="97.2354" gradientUnits="userSpaceOnUse">
<stop stop-color="#FFFFB1"/>
<stop offset="0.01" stop-color="#F8F8AC"/>
<stop offset="0.13" stop-color="#BEBE84"/>
<stop offset="0.25" stop-color="#8C8C61"/>
<stop offset="0.37" stop-color="#616143"/>
<stop offset="0.49" stop-color="#3E3E2B"/>
<stop offset="0.62" stop-color="#232318"/>
<stop offset="0.74" stop-color="#0F0F0B"/>
<stop offset="0.87" stop-color="#040403"/>
<stop offset="1"/>
</linearGradient>
<linearGradient id="paint27_linear_1505_5633" x1="47.5736" y1="91.7436" x2="56.8855" y2="101.217" gradientUnits="userSpaceOnUse">
<stop stop-color="#FFFFB1"/>
<stop offset="0.01" stop-color="#F8F8AC"/>
<stop offset="0.13" stop-color="#BEBE84"/>
<stop offset="0.25" stop-color="#8C8C61"/>
<stop offset="0.37" stop-color="#616143"/>
<stop offset="0.49" stop-color="#3E3E2B"/>
<stop offset="0.62" stop-color="#232318"/>
<stop offset="0.74" stop-color="#0F0F0B"/>
<stop offset="0.87" stop-color="#040403"/>
<stop offset="1"/>
</linearGradient>
<linearGradient id="paint28_linear_1505_5633" x1="95.1227" y1="48.9687" x2="94.1103" y2="62.1021" gradientUnits="userSpaceOnUse">
<stop stop-color="#FFFFB1"/>
<stop offset="0.01" stop-color="#F8F8AC"/>
<stop offset="0.13" stop-color="#BEBE84"/>
<stop offset="0.25" stop-color="#8C8C61"/>
<stop offset="0.37" stop-color="#616143"/>
<stop offset="0.49" stop-color="#3E3E2B"/>
<stop offset="0.62" stop-color="#232318"/>
<stop offset="0.74" stop-color="#0F0F0B"/>
<stop offset="0.87" stop-color="#040403"/>
<stop offset="1"/>
</linearGradient>
<linearGradient id="paint29_linear_1505_5633" x1="62.7664" y1="88.3573" x2="66.9756" y2="92.6397" gradientUnits="userSpaceOnUse">
<stop stop-color="#FFFFB1"/>
<stop offset="0.01" stop-color="#F8F8AC"/>
<stop offset="0.13" stop-color="#BEBE84"/>
<stop offset="0.25" stop-color="#8C8C61"/>
<stop offset="0.37" stop-color="#616143"/>
<stop offset="0.49" stop-color="#3E3E2B"/>
<stop offset="0.62" stop-color="#232318"/>
<stop offset="0.74" stop-color="#0F0F0B"/>
<stop offset="0.87" stop-color="#040403"/>
<stop offset="1"/>
</linearGradient>
</defs>
</svg>
