<svg width="118" height="84" viewBox="0 0 118 84" fill="none" xmlns="http://www.w3.org/2000/svg">
<g clip-path="url(#clip0_1238_803)">
<path d="M72.1974 33.9435C68.2842 40.9103 62.491 43.6418 54.4295 43.6418C47.7376 43.6418 41.7647 41.1328 37.8438 37.2038C41.9477 46.1575 50.8921 52.3676 61.2695 52.3676C70.0197 52.3676 77.752 47.9531 82.4219 41.2021L72.1974 33.9435Z" fill="white"/>
<path d="M35.4551 26.1814C35.4551 34.4743 43.9503 41.1985 54.4311 41.1985C57.3406 41.2102 60.2263 40.6705 62.9383 39.6075C62.3863 39.6771 61.8307 39.7118 61.2746 39.7115C53.9075 39.7115 47.9345 33.6548 47.9345 26.1825C47.9345 18.7104 53.9075 12.6536 61.2746 12.6536C63.4224 12.6545 65.5383 13.1797 67.4415 14.1844C69.3442 15.1891 70.9775 16.6434 72.201 18.423L82.4255 11.1621C77.7556 4.41218 70.0239 -0.00204468 61.2746 -0.00204468C47.0161 -0.00204468 35.4562 11.7189 35.4551 26.1792V26.1814Z" fill="white"/>
<path d="M25.3281 72.479C24.4082 73.8169 23.1805 74.9104 21.7499 75.6659C20.3193 76.4214 18.7285 76.8164 17.1135 76.8169C11.5743 76.8169 7.08435 72.2631 7.08435 66.6422C7.08435 61.0219 11.5743 56.4675 17.1135 56.4675C18.7293 56.4691 20.3207 56.8646 21.7513 57.6217C23.182 58.3787 24.4093 59.4737 25.3281 60.8137L31.1302 56.6936C29.5607 54.4103 27.4658 52.5445 25.0248 51.2555C22.5837 49.9664 19.8692 49.2926 17.1135 49.2918C7.6622 49.2918 0 57.0617 0 66.6458C0 76.23 7.6622 84.0007 17.1135 84.0007C19.8692 83.9997 22.5836 83.3257 25.0246 82.0366C27.4655 80.7476 29.5605 78.8818 31.1302 76.599L25.3281 72.479Z" fill="white"/>
<path d="M56.0425 66.375C54.786 63.356 52.4154 60.9465 49.4307 59.6555C47.1466 58.679 44.6246 58.4153 42.1902 58.8974C39.7559 59.38 37.5208 60.5871 35.7734 62.3623C34.0241 64.1248 32.832 66.3699 32.3477 68.8145C31.8635 71.2592 32.1086 73.7939 33.0524 76.0981C33.9961 78.4027 35.5961 80.3734 37.6502 81.7617C39.7043 83.15 42.1205 83.8938 44.5936 83.8989C46.2276 83.9004 47.8456 83.5751 49.3539 82.9418C50.8621 82.3085 52.231 81.3799 53.3806 80.209C55.1289 78.4251 56.3144 76.1597 56.788 73.6982C57.2615 71.2363 57.0022 68.6888 56.0425 66.375ZM40.1968 66.8448C40.7718 66.2589 41.4567 65.7946 42.2116 65.479C42.9665 65.1628 43.7762 65.0014 44.5936 65.0045C47.9954 65.0045 50.7629 67.8198 50.7629 71.28C50.7664 72.1043 50.6082 72.9214 50.2978 73.6835C49.9873 74.4461 49.5306 75.1395 48.9538 75.7234C48.3794 76.3053 47.6966 76.767 46.9448 77.0816C46.1929 77.3968 45.3867 77.5592 44.5725 77.5592C43.7583 77.5592 42.9521 77.3968 42.2002 77.0816C41.4484 76.767 40.7656 76.3053 40.1912 75.7234C39.0315 74.5418 38.3811 72.9463 38.3811 71.2841C38.3811 69.6219 39.0315 68.0264 40.1912 66.8448H40.1968Z" fill="white"/>
<path d="M92.0086 78.0105C91.3451 78.1735 90.667 78.2712 89.9844 78.3012C89.0672 78.3267 88.4103 78.1302 87.9778 77.7005C87.5165 77.2423 87.2982 76.5179 87.3124 75.4834V63.5142H91.9331V58.0857H87.3124V51.6279L81.5446 53.5956L81.4661 58.1081H77.9453V63.5177H81.0265V75.4814C81.0265 77.9545 81.5436 79.9313 82.564 81.3548C83.5845 82.7782 85.1063 83.6421 87.0718 83.8961C87.4 83.9359 87.7307 83.9552 88.0609 83.9532C89.879 83.9532 91.9777 83.4858 92.082 83.4609L92.2193 83.4308V77.9647L92.0086 78.0105Z" fill="white"/>
<path d="M74.6879 71.7485C73.6609 70.7221 72.1147 69.7829 69.5157 68.6069L68.7783 68.2714C67.8424 67.8509 67.1025 67.5189 66.5069 67.2395C65.6338 66.8281 65.2236 66.2635 65.3796 65.6918C65.5837 64.944 66.7429 64.2384 68.2638 64.3896C69.3329 64.501 70.0758 64.7627 71.1631 65.9031C71.2041 65.956 71.3692 66.1693 71.5703 66.4412L71.6812 66.5934L75.7241 63.1504L75.6709 63.0288C74.5537 60.495 71.1884 58.6572 67.6692 58.6572C65.492 58.6572 63.3432 59.3648 61.7636 60.5989C60.9614 61.2154 60.3 61.9994 59.825 62.8969C59.3378 63.8346 59.0866 64.8793 59.0932 65.9382C59.0841 66.907 59.3023 67.8651 59.7298 68.7331C60.1294 69.5141 60.6712 70.2125 61.3271 70.7914C62.0234 71.4232 63.0682 72.2148 65.5285 73.2997C66.041 73.5232 66.5155 73.7222 66.9703 73.9131C68.5231 74.5561 69.6392 75.0214 70.0094 75.7021C70.1021 75.8965 70.1467 76.1109 70.1406 76.3262C70.1269 76.4998 70.0788 76.6683 69.9983 76.8221C69.9178 76.9763 69.8069 77.1117 69.6722 77.2207C69.1399 77.6957 67.8976 78.1574 66.6487 78.0739C64.6301 77.9405 62.5937 76.7187 61.6937 75.1029L61.6841 75.0871C61.675 75.0738 61.6654 75.0616 61.6553 75.0484C61.6451 75.0346 61.6365 75.0234 61.6274 75.0102L61.4978 74.8203L57.9648 78.9816L58.016 79.0865C58.6506 80.3827 59.8306 81.5744 61.3433 82.4409C63.0515 83.4056 64.9785 83.9066 66.9359 83.8944C69.4271 83.8944 71.7653 83.1323 73.5181 81.748C74.3846 81.0765 75.0966 80.2243 75.6066 79.2499C76.1242 78.2389 76.3906 77.1163 76.383 75.9785C76.385 74.2532 75.8451 72.9082 74.6879 71.7485Z" fill="white"/>
<path d="M112.297 83.7741H117.872V58.1923L112.419 59.94L112.27 61.0356C111.363 60.2908 109.207 58.6642 105.263 58.6622C103.6 58.6622 101.258 59.3596 99.9512 60.0337C98.1908 60.9485 96.67 62.2696 95.5123 63.889C94.3546 65.5089 93.5929 67.3814 93.289 69.3546C92.9857 71.3273 93.1488 73.3444 93.7656 75.2417C94.3824 77.1386 95.4348 78.8619 96.8382 80.2711C97.9807 81.4247 99.3379 82.3385 100.832 82.9611C102.326 83.5837 103.928 83.9019 105.545 83.8983H105.608C106.958 83.8917 110.029 83.3541 112.263 81.3972L112.297 83.7741ZM111.772 71.2795C111.772 71.3915 111.772 71.4964 111.764 71.6048C111.765 71.6185 111.765 71.6328 111.764 71.6465C111.764 71.6608 111.764 71.674 111.764 71.6924C111.764 71.7728 111.755 71.8487 111.748 71.9245C111.596 73.4615 110.888 74.8879 109.759 75.9311C108.582 77.0103 107.038 77.5912 105.447 77.5525C103.856 77.5138 102.342 76.8586 101.218 75.7228C100.348 74.8452 99.7552 73.7267 99.5152 72.51C99.2746 71.2927 99.3977 70.0312 99.8682 68.8842C100.339 67.7377 101.135 66.7567 102.158 66.0664C103.181 65.3756 104.384 65.006 105.615 65.0039C109.006 65.0039 111.772 67.8192 111.772 71.2795Z" fill="white"/>
</g>
<defs>
<clipPath id="clip0_1238_803">
<rect width="118" height="84" fill="white"/>
</clipPath>
</defs>
</svg>
