<svg width="24" height="24" viewBox="0 0 24 24" fill="none" xmlns="http://www.w3.org/2000/svg">
<path d="M4.25 3H19.75C21.483 3 22.8992 4.35646 22.9949 6.06558L23 6.25V17.75C23 19.483 21.6435 20.8992 19.9344 20.9949L19.75 21H4.25C2.51697 21 1.10075 19.6435 1.00514 17.9344L1 17.75V6.25C1 4.51697 2.35645 3.10075 4.06558 3.00514L4.25 3H19.75H4.25ZM21.5 8.905L12.346 13.6654C12.1653 13.7594 11.9558 13.7751 11.7655 13.7124L11.654 13.6654L2.5 8.905V17.75C2.5 18.6682 3.20711 19.4212 4.10647 19.4942L4.25 19.5H19.75C20.6682 19.5 21.4212 18.7929 21.4942 17.8935L21.5 17.75V8.905ZM19.75 4.5H4.25C3.33183 4.5 2.57881 5.20711 2.5058 6.10647L2.5 6.25V7.214L12 12.1547L21.5 7.214V6.25C21.5 5.33183 20.7929 4.57881 19.8935 4.5058L19.75 4.5Z" fill="#E71D36"/>
</svg>
