<svg width="156" height="106" viewBox="0 0 156 106" fill="none" xmlns="http://www.w3.org/2000/svg">
<path d="M63.0612 46.8717L59.2608 50.7228C61.852 53.3485 62.7157 54.5739 62.8885 55.7992C63.0612 55.6242 66.5161 52.6483 66.5161 51.598C66.5161 50.0226 65.4797 49.4974 63.0612 46.8717ZM24.7118 70.5033H11.7559C11.7559 70.5033 14.0015 72.4288 14.0015 76.4549V92.2093C14.0015 96.2354 15.5563 96.2354 15.5563 96.2354H28.1667C31.1033 96.2354 31.9671 94.1349 31.9671 93.0846V91.5091C31.9671 91.5091 31.1033 93.4347 27.3029 93.4347H21.2569C19.3567 93.4347 19.5294 91.8592 19.3567 90.4588V81.7064H23.6753C25.0573 81.7064 26.4392 81.8814 27.8212 82.5816C27.8212 82.5816 26.4392 79.0807 22.1206 79.0807H19.3567V76.2799C19.3567 76.2799 19.3567 73.8292 18.8384 73.129H22.8116C26.2665 73.129 28.8577 73.129 31.6216 74.8795C31.7943 75.2296 31.2761 70.5033 24.7118 70.5033ZM44.7502 75.5797C40.6043 75.5797 39.5679 79.6058 39.5679 79.6058C39.5679 79.6058 39.3951 75.7547 36.113 75.7547H32.8308C32.8308 75.7547 34.731 76.4549 34.731 79.7809V92.0343C34.731 96.0604 36.2857 96.2354 36.2857 96.2354H41.6408C41.4681 96.2354 39.5679 94.66 39.5679 92.0343V81.1812C39.5679 80.6561 40.4316 79.0807 42.6773 79.0807C44.0592 79.0807 45.4412 80.4811 45.4412 82.0565V92.2093C45.4412 96.4105 46.9959 96.4105 46.9959 96.4105H52.351C52.351 96.4105 50.2781 95.0101 50.2781 92.2093V81.3563C50.4508 80.8312 51.1418 79.2557 53.2147 79.2557C54.7695 79.2557 56.1514 80.6561 56.1514 82.2315V92.3844C56.1514 96.4105 57.7061 96.4105 57.7061 96.4105H63.0612C63.0612 96.4105 60.9883 95.0101 60.9883 92.2093V81.1812C60.9883 76.805 57.5334 75.7547 54.9422 75.7547C51.4873 75.7547 50.4508 78.7306 50.1053 79.6058C49.5871 76.805 46.9959 75.5797 44.7502 75.5797M67.2071 75.7547H63.925C63.925 75.7547 65.8252 76.63 65.8252 79.7809V92.0343C65.8252 96.0604 67.3799 96.0604 67.3799 96.0604H72.735C72.735 96.0604 70.662 94.66 70.662 91.8592V80.131C70.662 75.7547 68.2436 75.7547 67.2071 75.7547M76.7081 75.7547H73.426C73.426 75.7547 75.3262 76.4549 75.3262 79.7809V92.0343C75.3262 96.0604 76.8809 96.2354 76.8809 96.2354H82.236C82.0632 96.2354 80.163 94.66 80.163 92.0343V81.8814C80.3358 81.0062 80.854 80.306 81.545 79.7809C82.236 79.2557 83.0997 79.0807 83.9634 79.0807C85.1726 79.0807 86.3819 79.6058 87.2456 80.6561V77.1551C87.2456 77.1551 86.7273 75.7547 84.4817 75.7547C81.1995 75.7547 80.3358 79.7809 80.3358 79.7809C79.9903 76.63 79.1266 75.7547 76.7081 75.7547M110.739 71.0284C110.739 71.0284 109.53 73.129 107.111 75.0545C105.557 76.2799 102.447 77.8553 102.447 77.8553H105.902V92.2093C105.902 96.2354 107.457 96.2354 107.457 96.2354H112.812C112.812 96.2354 110.739 94.835 110.739 92.2093V78.0304H112.121C113.848 78.0304 115.23 78.9056 115.23 78.9056V75.7547H110.739V71.0284M124.04 75.7547C118.512 75.7547 115.576 81.0062 115.576 86.6078C115.576 92.2093 119.203 96.4105 124.386 96.4105C128.704 96.4105 130.086 94.835 130.086 94.835V91.5091C128.877 93.6097 127.323 94.1349 125.941 94.1349C125.163 94.1328 124.395 93.9533 123.695 93.6097C121.276 92.5594 120.931 89.4085 120.931 89.4085C122.831 87.1329 125.25 87.6581 128.186 84.3321C132.332 80.131 129.395 75.7547 124.04 75.7547M120.758 87.1329C120.758 87.1329 120.067 77.6803 123.522 77.3302H123.695C126.459 77.3302 125.768 81.3563 124.904 82.9317C123.695 85.5575 121.967 85.7325 120.758 87.1329M68.2436 69.1029C66.8616 69.1029 65.8252 70.1532 65.8252 71.5536C65.8252 72.954 66.8616 74.0043 68.2436 74.0043C69.6256 74.0043 70.662 72.954 70.662 71.5536C70.662 70.1532 69.6256 69.1029 68.2436 69.1029ZM94.5009 75.7547C91.3915 75.7547 89.4913 77.3302 89.4913 77.3302V80.8312C89.4913 80.8312 90.5277 78.0304 93.4644 78.0304C96.2283 78.0304 96.4011 79.4308 96.4011 80.131C96.4011 80.131 96.7466 81.0062 96.0556 82.2315C94.8464 84.5072 85.1726 84.8573 86.5546 92.5594C87.0728 95.5352 89.1458 96.4105 91.5642 96.4105C93.9827 96.4105 95.3646 95.1851 96.0556 93.9598C96.4011 96.2354 97.6103 96.4105 97.6103 96.4105H102.965C102.965 96.4105 100.892 95.0101 100.892 92.3844V80.8312C100.72 77.8553 97.7831 75.7547 94.5009 75.7547M92.7734 93.9598C91.5642 93.9598 90.7005 92.7345 90.7005 91.3341C90.7005 86.2577 94.8464 85.5575 95.8829 84.1571V92.7345C95.3646 93.2596 94.8464 93.9598 92.7734 93.9598ZM138.378 75.5797C135.096 75.5797 132.332 77.6803 132.332 80.4811C132.332 82.9317 133.369 84.5072 135.269 85.9076L138.033 87.6581C139.587 88.5333 140.106 89.5836 140.106 90.6339C140.106 92.0343 138.896 93.9598 136.133 93.9598C133.369 93.9598 132.159 90.984 132.159 90.984V94.66C132.159 94.66 134.232 96.0604 137.169 96.0604C140.797 96.0604 144.597 93.2596 144.424 89.4085C144.424 88.0081 143.906 86.7828 143.215 85.9076C142.006 84.1571 139.76 83.1068 138.033 81.8814C136.996 81.1813 136.478 80.131 136.478 79.7809C136.478 79.0807 136.824 77.6803 139.587 77.6803C142.179 77.6803 143.388 80.4811 143.388 80.4811V76.9801C143.388 77.3302 141.488 75.5797 138.378 75.5797ZM54.424 40.0448H52.351C52.351 40.0448 54.424 41.2702 54.424 44.0709V53.5236C54.424 59.6503 59.4336 65.4269 65.4797 65.4269H70.4893C73.5987 65.4269 74.6352 64.7267 76.3626 62.9762L78.2628 61.0507C79.2993 59.8253 80.5085 58.9501 80.5085 55.6242V52.4733C80.5085 49.8475 78.9538 48.6222 78.2628 47.922L76.5354 46.1715V52.4733C76.5354 52.4733 77.7446 53.8737 78.4356 54.2238C81.0268 56.3243 78.9538 60.0004 76.5354 60.0004H65.4797H65.3069C60.1246 59.8253 55.9787 55.4491 55.8059 50.1976V45.1212C55.8059 40.0448 54.424 40.0448 54.424 40.0448ZM70.662 46.8717L66.8616 50.7228C69.4528 53.3485 70.3165 54.5739 70.4893 55.7992C70.662 55.6242 74.1169 52.6483 74.1169 51.598C74.1169 50.0226 73.0805 49.3224 70.662 46.8717ZM78.4356 3.6347L75.8444 6.26043C74.8079 7.31073 75.1534 9.41131 77.2264 11.5119V16.7634C77.2264 17.2885 76.7081 17.8136 76.7081 17.8136C76.7081 17.8136 73.5987 15.0129 70.8348 15.0129H66.6889C64.0977 15.0129 62.0248 17.4635 61.6793 17.6386C60.2973 19.039 60.2973 21.6647 61.3338 22.8901L64.2705 25.8659C64.2705 25.8659 63.5795 21.1396 64.2705 17.9887C64.4432 17.2885 65.3069 16.4133 66.1707 16.4133L72.9077 21.6647L65.1342 29.892C64.7887 30.2421 63.7522 30.9423 62.7157 30.9423C61.5065 30.9423 60.9883 30.2421 60.4701 29.5419V33.393C60.4701 34.6183 62.1975 36.0187 63.7522 36.0187H74.1169C74.8079 36.0187 75.6716 35.8437 76.3626 35.1435L79.8175 31.6425C80.3358 31.1173 80.5085 30.4171 80.5085 29.5419V25.5158C80.5085 21.6647 77.5718 18.6889 77.5718 18.6889C77.5718 18.6889 78.2628 18.1637 78.2628 16.5883V12.5622C78.2628 12.5622 79.472 13.7875 79.6448 14.3127L81.8905 12.037C82.9269 10.9867 81.1995 9.06121 80.5085 8.18597C78.4356 5.91034 78.4356 3.6347 78.4356 3.6347M65.4797 31.2924C66.5161 30.7672 66.6889 30.4171 67.5526 29.3669L74.1169 22.3649C74.1169 22.3649 77.7446 26.216 78.9538 28.3166C79.472 29.3669 80.163 31.2924 77.0536 31.2924H65.4797M56.6697 23.2402H54.7695C55.9787 23.9403 56.8424 26.0409 56.8424 27.2663V34.9684C56.8424 37.069 58.3971 44.5961 65.1342 44.5961H84.6544V57.1996C84.6544 59.3002 83.9634 60.5255 83.4452 61.0507L80.5085 63.8514H81.8905L87.2456 58.9501C88.2821 57.7247 89.4913 56.4994 89.4913 52.6483V44.5961L91.737 42.3205L95.5374 38.6444C95.5374 41.7953 97.0921 43.1957 98.474 43.1957C99.2419 43.146 99.9715 42.838 100.547 42.3205L104.002 38.9945C105.557 37.4191 106.42 32.5177 102.62 32.5177C100.201 32.5177 97.4376 36.0187 97.2648 36.3688C96.4011 35.8437 95.7101 34.6183 95.7101 34.6183V37.5941C95.3646 38.1193 93.8099 39.3446 92.6007 39.3446H89.4913V36.3688C89.4913 34.9684 90.0095 33.393 90.7005 32.6928L93.6372 29.892H92.2552L86.3819 35.3185C85.3454 36.5438 84.6544 38.8195 84.6544 39.3446H62.543C59.7791 39.3446 58.0516 36.5438 58.0516 34.2682V28.4916C58.0516 23.7653 56.8424 23.2402 56.6697 23.2402ZM101.411 40.0448C100.892 40.0448 100.374 39.8698 99.6833 39.3446C98.9923 38.8195 97.7831 37.069 97.7831 37.069C98.1285 36.7189 99.165 36.3688 100.029 36.3688C100.72 36.3688 101.411 36.5438 101.583 36.8939C102.793 38.4694 102.62 40.0448 101.411 40.0448M92.2552 3.6347L86.3819 9.06121C86.0364 9.41131 84.6544 11.5119 84.6544 13.9626V29.5419C84.6544 30.5922 83.9634 32.1676 83.4452 32.6928L80.5085 35.4936H81.8905L87.4183 30.4171C88.1093 29.717 89.4913 27.9665 89.4913 24.9906V10.1115C89.4913 7.83587 90.5278 6.61053 91.046 6.08539L93.6372 3.6347H92.2552M93.1189 43.5458V49.6725L95.1919 51.9481C96.9193 53.6986 96.7466 57.0245 91.5642 62.101C89.7213 64.1025 87.18 65.2959 84.4817 65.4269H75.1534L80.6813 70.3282H84.4817C88.2821 70.3282 91.737 68.7528 93.9827 66.3021C96.0556 64.0265 97.2648 61.0507 97.0921 57.8998V49.8475C97.0921 47.0468 95.3646 45.4713 95.0191 45.1212C94.6736 45.1212 93.1189 43.5458 93.1189 43.5458" fill="white"/>
</svg>
