<svg width="17" height="16" viewBox="0 0 17 16" fill="none" xmlns="http://www.w3.org/2000/svg">
<path d="M8.27354 1.12918C7.93957 0.438677 7.24011 0 6.47307 0H5.4092L6.93272 6.40009L3.8637 6.39996L2.61304 5.10528C2.42461 4.91022 2.16503 4.80006 1.89381 4.80006H0L1.54551 8L0 11.1999H1.89379C2.16502 11.1999 2.42461 11.0898 2.61305 10.8947L3.8637 9.59991H6.95925L5.41374 16H6.4768C7.24425 16 7.94402 15.5608 8.27777 14.8698L10.8228 9.59991L15.4546 9.60004C16.0067 9.60004 16.5169 9.29509 16.793 8.79995C17.069 8.30493 17.069 7.69503 16.793 7.20005C16.5169 6.70493 16.0067 6.39996 15.4546 6.39996H10.8228L8.27354 1.12918Z" fill="#14CDCD"/>
</svg>
