<svg width="110" height="69" viewBox="0 0 110 69" fill="none" xmlns="http://www.w3.org/2000/svg">
<g clip-path="url(#clip0_1238_629)">
<path d="M16.2396 69.0002L20.686 47.0919H27.9209L23.4996 69.0002H16.2396ZM38.0698 61.8297H42.6669L41.4862 53.7909L38.0698 61.8297ZM27.9209 69.0002L38.8736 47.0919H46.008L50.5047 69.0002H43.7974L43.3954 66.395H36.2611L35.1306 69.0002H27.9209ZM57.1617 69.0002L59.6487 52.5255H53.3182L54.3984 46.9926H73.8421L72.7619 52.5255H66.7328L64.2961 69.0002H57.1617ZM81.4789 61.8297H86.076L84.8953 53.7909L81.4789 61.8297ZM71.3551 69.0002L82.2827 47.0919H89.4171L93.9137 69.0002H87.1562L86.8296 66.395H79.6953L78.5648 69.0002H71.3551ZM109.715 22.3303H75.6759C74.4198 28.4834 70.099 33.6194 61.4825 37.1674C62.4623 40.0951 65.8033 42.7995 69.27 42.7995H87.734C90.5475 42.7995 92.7833 40.4673 93.6877 38.5816H74.9223C73.7667 38.3831 73.7165 37.4651 74.872 37.3659H93.3108C95.6973 37.3659 97.8577 35.3561 99.1138 33.1728H77.6353C76.5551 32.9991 76.5551 32.1059 77.6353 31.9322H99.2896C101.475 31.9322 103.46 29.4263 104.289 27.7391H80.5243C79.3436 27.5902 79.3436 26.4985 80.5243 26.4737H104.716C106.6 26.4737 108.434 24.4392 109.715 22.3303ZM0.714844 22.3303H34.7538C35.9847 28.4834 40.3307 33.6194 48.922 37.1674C47.9423 40.0951 44.6012 42.7995 41.1345 42.7995H22.6957C19.8822 42.7995 17.6464 40.4673 16.742 38.5816H35.5074C36.6379 38.3831 36.7132 37.4651 35.5577 37.3659H17.0937C14.7072 37.3659 12.5468 35.3561 11.3159 33.1728H32.8195C33.8997 32.9991 33.8997 32.1059 32.8195 31.9322H11.1652C8.97965 31.9322 6.99509 29.4263 6.1661 27.7391H29.9306C31.1113 27.5902 31.1113 26.4985 29.9306 26.4737H5.73904C3.82985 26.4737 1.99601 24.4392 0.714844 22.3303ZM44.1742 3.8707C45.4302 4.93759 46.837 5.88041 48.3443 6.47588C49.6254 3.99476 51.409 1.86099 53.4689 -0.0246582C50.0776 0.421944 46.8872 1.68732 44.1742 3.8707ZM38.1451 16.1026H45.7317C45.9075 13.026 46.5607 10.3216 47.7916 7.54276C46.1085 6.79843 44.6515 5.90522 43.2447 4.71428C40.1046 7.81569 38.3712 11.8103 38.1451 16.1026ZM54.6245 9.08106V16.1026H47.038C47.0882 13.3486 47.7413 10.5201 48.922 7.96455C50.7307 8.60965 52.6902 9.03144 54.6245 9.08106ZM66.2555 3.8707C65.0246 4.93759 63.5676 5.88041 62.0854 6.47588C60.7289 3.94514 59.0458 1.91062 56.9356 0.000153017C60.3521 0.421944 63.5425 1.68732 66.2555 3.8707ZM72.2594 16.1026H64.698C64.5975 13.0757 63.8942 10.2472 62.6883 7.54276C64.2961 6.79843 65.8285 5.8556 67.1599 4.71428C70.4256 7.93974 72.1087 11.9095 72.2594 16.1026ZM55.8554 9.08106V16.1026H63.3917C63.3917 13.2742 62.6883 10.5697 61.5077 7.96455C59.6989 8.60965 57.7646 9.03144 55.8554 9.08106ZM44.1742 29.5751C45.4302 28.6075 46.8872 27.5406 48.3443 27.0196C49.7008 29.5255 51.3839 31.5848 53.4689 33.4457C50.0776 32.9991 46.837 31.7337 44.1742 29.5751ZM38.1451 17.3184H45.7317C45.9075 20.4198 46.5607 23.149 47.7916 25.9527C46.1085 26.697 44.6515 27.5902 43.2447 28.7564C40.1548 25.6798 38.3712 21.6852 38.1451 17.3184ZM54.6245 24.3648V17.3184H47.038C47.0882 20.1469 47.7413 22.9505 48.922 25.4565C50.7307 24.8114 52.6902 24.4144 54.6245 24.3648ZM66.2555 29.5751C65.0748 28.5579 63.5676 27.615 62.0854 27.0196C60.7289 29.5255 59.0458 31.5848 56.9356 33.4457C60.3521 32.9991 63.5425 31.7337 66.2555 29.5751ZM72.2594 17.3184H64.698C64.5975 20.4198 63.9193 23.1738 62.6883 25.9527C64.2961 26.697 65.7531 27.5902 67.1599 28.7564C70.2749 25.6798 72.1087 21.5859 72.2594 17.3184ZM55.8554 24.3648V17.3184H63.3917C63.3917 20.1469 62.6883 22.9009 61.5077 25.4565C59.7492 24.8114 57.7144 24.4144 55.8554 24.3648ZM54.6245 0.694867C52.5646 2.33241 50.7308 4.56542 49.5249 6.89767C51.1578 7.44352 52.8912 7.89012 54.6245 7.89012V0.694867ZM55.8554 0.694867C57.8651 2.33241 59.6989 4.49098 60.9048 6.89767C59.2719 7.49314 57.5385 7.89012 55.8554 7.89012V0.694867ZM54.6245 32.751C52.5646 31.1382 50.7308 28.9052 49.5249 26.5233C51.1578 25.9527 52.8912 25.6301 54.6245 25.6301V32.751ZM55.8554 32.8006C57.8651 31.1382 59.6989 28.9052 60.9048 26.5233C59.2719 26.0023 57.5385 25.6301 55.8554 25.6301V32.8006Z" fill="#B8CEF0"/>
</g>
<defs>
<clipPath id="clip0_1238_629">
<rect width="109" height="69" fill="white" transform="translate(0.714844)"/>
</clipPath>
</defs>
</svg>
