<svg width="136" height="51" viewBox="0 0 136 51" fill="none" xmlns="http://www.w3.org/2000/svg">
<path d="M76.1866 27.0551C76.1452 26.91 76.1038 26.7441 76.021 26.6197C75.9589 26.4953 75.8553 26.3709 75.7518 26.2672C75.6483 26.1635 75.5033 26.0806 75.3791 26.0391C75.2135 25.9769 75.0478 25.9562 74.8615 25.9562C74.3645 25.9354 73.8883 26.1843 73.6191 26.6197C73.4949 26.827 73.3914 27.0551 73.35 27.3039C73.2257 27.8223 73.2257 28.3407 73.35 28.859C73.4121 29.0871 73.4949 29.3359 73.6191 29.5433C73.8883 29.958 74.3645 30.2068 74.8615 30.2068C75.0478 30.2068 75.2342 30.1653 75.3998 30.1031C75.5654 30.0202 75.6897 29.9165 75.8139 29.7921C75.9381 29.647 76.021 29.5018 76.0831 29.3359C76.1452 29.1493 76.1866 28.9627 76.2073 28.7761H77.1184C77.0977 29.0871 77.0355 29.3981 76.9113 29.6884C76.8078 29.958 76.6421 30.1861 76.4351 30.3934C76.228 30.6008 75.9796 30.7459 75.7311 30.8496C75.4412 30.9532 75.1513 31.0154 74.8408 31.0154C74.4681 31.0154 74.0954 30.9325 73.7641 30.7874C73.4535 30.6422 73.1843 30.4349 72.9565 30.1653C72.7288 29.8958 72.5631 29.5848 72.4389 29.2323C72.2111 28.5065 72.2111 27.7186 72.4389 26.9929C72.5424 26.6612 72.7288 26.3501 72.9565 26.0806C73.4121 25.5207 74.1161 25.2097 74.8408 25.2305C75.1306 25.2305 75.3998 25.2719 75.6897 25.3549C75.9381 25.4378 76.1866 25.5622 76.3937 25.7281C76.6007 25.894 76.7664 26.1013 76.8906 26.3294C77.0148 26.5782 77.0977 26.8478 77.1184 27.1381L76.1866 27.0551ZM77.9673 25.2927H80.5141C80.9903 25.2512 81.4665 25.3963 81.8392 25.6866C82.1498 25.9769 82.2947 26.3709 82.274 26.7856C82.274 27.0136 82.2326 27.221 82.1705 27.4491C82.1084 27.6149 82.0049 27.7394 81.9013 27.8638C81.8185 27.9467 81.715 28.0296 81.6115 28.0918C81.5079 28.1333 81.4458 28.1748 81.4044 28.1748V28.1955C81.4872 28.2163 81.5908 28.237 81.6736 28.2785C81.7771 28.3199 81.8599 28.3821 81.9427 28.4858C82.0256 28.5895 82.0877 28.7139 82.1291 28.8383C82.1912 29.0249 82.2119 29.2115 82.2119 29.3981C82.2119 29.6884 82.2326 29.9994 82.274 30.2897C82.2947 30.4971 82.3776 30.6837 82.5018 30.8496H81.5079C81.4458 30.7252 81.4044 30.6008 81.3837 30.4556C81.363 30.3105 81.363 30.1653 81.363 30.0409C81.363 29.8128 81.3423 29.6055 81.3216 29.3774C81.3009 29.2115 81.2388 29.0664 81.1559 28.9212C81.0731 28.7968 80.9696 28.6932 80.8246 28.6517C80.659 28.5895 80.4727 28.5687 80.307 28.5687H78.9197V30.8496H77.988L77.9673 25.2927ZM78.9197 27.8223H80.4519C80.7004 27.843 80.9489 27.7601 81.1352 27.5942C81.3009 27.4076 81.3837 27.1795 81.363 26.9307C81.363 26.7856 81.3423 26.6404 81.2802 26.4953C81.2388 26.3916 81.1766 26.3087 81.0731 26.2257C80.9903 26.1635 80.8868 26.122 80.7625 26.1013C80.659 26.0806 80.5348 26.0806 80.4105 26.0806H78.899L78.9197 27.8223ZM83.1851 25.2927H84.1168V28.5273C84.1168 28.7139 84.1168 28.9005 84.1375 29.0871C84.1582 29.2737 84.1996 29.4396 84.2825 29.6055C84.3653 29.7506 84.5102 29.8958 84.6552 29.9787C85.1107 30.1653 85.6076 30.1653 86.0631 29.9787C86.2288 29.8958 86.353 29.7506 86.4358 29.6055C86.5187 29.4396 86.5808 29.2737 86.5808 29.0871C86.6015 28.9005 86.6015 28.7139 86.6015 28.5273V25.2927H87.5332V28.8383C87.5332 29.1493 87.4918 29.4811 87.3676 29.7714C87.2641 30.0202 87.1191 30.2483 86.9121 30.4349C86.705 30.6215 86.4773 30.7459 86.2288 30.8288C85.649 31.0154 85.0072 31.0154 84.4274 30.8288C84.1582 30.7459 83.9305 30.6215 83.7441 30.4349C83.5371 30.2483 83.3921 30.0202 83.2886 29.7714C83.1851 29.4811 83.123 29.1701 83.123 28.8383V25.2927H83.1851ZM88.6513 25.2927H89.5831V30.8288H88.6513V25.2927ZM91.3431 28.9834C91.3431 29.1701 91.3845 29.3567 91.4466 29.5433C91.5087 29.6884 91.6122 29.8128 91.7365 29.9165C91.8607 30.0202 92.0056 30.0824 92.1713 30.1239C92.3369 30.1653 92.5233 30.1861 92.6889 30.1861C92.8753 30.1861 93.0409 30.1653 93.2066 30.1031C93.3308 30.0617 93.455 29.9994 93.5585 29.9165C93.6414 29.8543 93.7242 29.7506 93.7656 29.647C93.807 29.5433 93.8277 29.4396 93.8277 29.3359C93.8484 29.1701 93.7863 29.0042 93.6828 28.859C93.6 28.7761 93.4964 28.6932 93.3722 28.6517C93.1444 28.5688 92.9374 28.5065 92.7096 28.4443C92.4611 28.3821 92.1506 28.2992 91.7779 28.1955C91.5708 28.1333 91.3845 28.0504 91.1981 27.9467C91.0532 27.8638 90.9289 27.7394 90.8254 27.615C90.7426 27.4905 90.6805 27.3661 90.6391 27.221C90.5977 27.0758 90.5769 26.9307 90.5769 26.7856C90.5769 26.5367 90.6391 26.2879 90.7426 26.0598C90.8461 25.8525 91.0118 25.6866 91.1774 25.5415C91.3638 25.3963 91.5708 25.3134 91.8193 25.2512C92.047 25.189 92.2955 25.1475 92.5233 25.1475C92.7924 25.1475 93.0616 25.189 93.3101 25.2512C93.5378 25.3134 93.7656 25.4378 93.9727 25.5829C94.159 25.7281 94.3039 25.9147 94.4282 26.1428C94.5317 26.3916 94.5938 26.6404 94.5938 26.91H93.6828C93.6828 26.6197 93.5585 26.3294 93.3308 26.1635C93.103 26.0184 92.8131 25.9354 92.5233 25.9354C92.4197 25.9354 92.2955 25.9562 92.192 25.9769C92.0884 25.9976 91.9849 26.0391 91.8814 26.1013C91.7779 26.1635 91.695 26.2257 91.6536 26.3294C91.5915 26.4331 91.5501 26.5575 91.5708 26.6819C91.5708 26.8478 91.6329 27.0136 91.7572 27.1381C91.8814 27.2625 92.047 27.3454 92.2127 27.3869L92.4404 27.4491L92.896 27.5735L93.3929 27.6979L93.7449 27.8016C93.9105 27.8638 94.0555 27.926 94.2004 28.0296C94.3246 28.1126 94.4282 28.237 94.5317 28.3614C94.6145 28.4858 94.6766 28.631 94.7388 28.7761C94.9251 29.4396 94.6766 30.1446 94.1383 30.5385C93.9312 30.6837 93.7035 30.7874 93.455 30.8496C93.2065 30.9118 92.9374 30.9532 92.6682 30.9532C92.3783 30.9532 92.0885 30.9118 91.8193 30.8288C91.5708 30.7666 91.3223 30.6422 91.1153 30.4763C90.9082 30.3105 90.7426 30.1031 90.6391 29.8543C90.5148 29.5848 90.4527 29.2737 90.4527 28.9627L91.3431 28.9834ZM95.5877 25.2927H99.4389V26.122H96.5194V27.5735H99.2112V28.3614H96.5194V29.9787H99.4803V30.8081H95.5877V25.2927C95.5877 25.2927 95.5877 25.3134 95.5877 25.2927ZM102.379 25.2927H103.311V29.9787H106.023V30.8081H102.379V25.2927ZM106.665 25.2927H107.618V30.8288H106.686L106.665 25.2927ZM108.715 25.2927H109.709L112.152 29.3774V25.2927H113.042V30.8288H112.049L109.626 26.7648H109.605V30.8288H108.715V25.2927ZM114.14 25.2927H117.991V26.122H115.072V27.5735H117.763V28.3614H115.072V29.9787H118.032V30.8081H114.14V25.2927ZM119.482 28.9834C119.482 29.1701 119.503 29.3567 119.585 29.5433C119.648 29.6884 119.751 29.8128 119.875 29.9165C119.999 30.0202 120.144 30.0824 120.31 30.1239C120.476 30.1653 120.662 30.1861 120.848 30.1861C121.035 30.1861 121.2 30.1653 121.366 30.1031C121.49 30.0617 121.615 29.9994 121.718 29.9165C121.801 29.8543 121.863 29.7506 121.904 29.647C121.946 29.5433 121.967 29.4396 121.967 29.3359C121.987 29.1701 121.925 29.0042 121.822 28.859C121.739 28.7761 121.635 28.6932 121.511 28.6517C121.304 28.5688 121.076 28.5065 120.848 28.4443C120.6 28.3821 120.289 28.2992 119.917 28.1955C119.71 28.1333 119.523 28.0504 119.337 27.9467C119.192 27.8638 119.068 27.7394 118.964 27.615C118.881 27.4905 118.819 27.3661 118.778 27.221C118.736 27.0758 118.716 26.9307 118.716 26.7856C118.716 26.5367 118.778 26.2879 118.881 26.0598C118.985 25.8525 119.151 25.6866 119.337 25.5415C119.523 25.3963 119.73 25.3134 119.958 25.2512C120.186 25.189 120.434 25.1475 120.662 25.1475C120.931 25.1475 121.2 25.189 121.449 25.2512C121.677 25.3134 121.904 25.4378 122.111 25.5829C122.298 25.7281 122.443 25.9147 122.546 26.1428C122.65 26.3709 122.712 26.6404 122.712 26.91H121.78C121.78 26.6197 121.656 26.3294 121.428 26.1635C121.2 26.0184 120.911 25.9354 120.621 25.9354C120.517 25.9354 120.393 25.9562 120.289 25.9769C120.186 25.9976 120.082 26.0391 119.979 26.1013C119.896 26.1635 119.792 26.2257 119.751 26.3294C119.689 26.4331 119.648 26.5575 119.668 26.6819C119.648 26.8478 119.73 27.0136 119.834 27.1381C119.958 27.2625 120.124 27.3454 120.289 27.3869L120.517 27.4491L120.973 27.5735L121.47 27.7186L121.822 27.8223C121.987 27.8845 122.132 27.9467 122.277 28.0504C122.401 28.1333 122.505 28.2577 122.608 28.3821C122.691 28.5065 122.753 28.6517 122.795 28.7968C122.981 29.4603 122.753 30.1653 122.194 30.5593C121.987 30.7044 121.759 30.8081 121.511 30.8703C121.263 30.9325 120.993 30.974 120.724 30.974C120.434 30.974 120.144 30.9325 119.875 30.8496C119.627 30.7874 119.378 30.663 119.171 30.4971C118.964 30.3312 118.799 30.1239 118.695 29.875C118.571 29.5848 118.509 29.2945 118.509 28.9834H119.482ZM72.5839 33.2341H73.5156V38.7702H72.5839V33.2341ZM74.613 33.2341H75.6069L78.0501 37.2981V33.2341H78.9404V38.7702H77.9466L75.524 34.7062H75.5033V38.7702H74.613V33.2341ZM79.5409 33.2341H83.8684V34.0635H82.1705V38.7495H81.2388V34.0635H79.5409V33.2341ZM84.4895 33.2341H88.3408V34.0635H85.4213V35.5149H88.113V36.3028H85.4213V37.9201H88.3822V38.7495H84.4895V33.2341ZM89.2104 33.2341H91.7572C92.2334 33.1926 92.7096 33.3377 93.0823 33.628C93.3929 33.9183 93.5378 34.3123 93.5171 34.727C93.5171 34.955 93.4757 35.1624 93.4136 35.3905C93.3515 35.5356 93.248 35.6808 93.1444 35.8052C93.0616 35.9088 92.9581 35.971 92.8546 36.0333C92.751 36.0747 92.6889 36.1162 92.6475 36.1369C92.7303 36.1577 92.8338 36.1784 92.9167 36.2199C93.0202 36.2613 93.103 36.3235 93.1651 36.4272C93.248 36.5309 93.3308 36.6553 93.3722 36.7797C93.4343 36.9663 93.455 37.1529 93.455 37.3395C93.455 37.6298 93.4757 37.9408 93.5378 38.2311C93.5585 38.4385 93.6414 38.6251 93.7656 38.791H92.7717C92.7096 38.6666 92.6682 38.5422 92.6475 38.397C92.6268 38.2519 92.6268 38.1067 92.6268 37.9823C92.6268 37.7542 92.6061 37.5469 92.5854 37.3188C92.5647 37.1529 92.5026 37.0078 92.4197 36.8626C92.3369 36.7382 92.2334 36.6553 92.0884 36.5931C91.9228 36.5309 91.7365 36.5102 91.5501 36.5102H90.1628V38.791H89.2311L89.2104 33.2341ZM90.1421 35.7637H91.6743C91.9228 35.7844 92.1713 35.7015 92.3576 35.5356C92.5233 35.349 92.6061 35.1209 92.5854 34.8721C92.5854 34.727 92.5647 34.5818 92.5026 34.4367C92.4611 34.333 92.399 34.2501 92.2955 34.1671C92.2127 34.1049 92.1092 34.0635 91.9849 34.0427C91.8814 34.022 91.7572 34.0012 91.6329 34.0012H90.1214V35.7637H90.1421ZM94.4282 33.2341H95.422L97.8653 37.2981V33.2341H98.7556V38.7702H97.7618L95.3392 34.7062H95.3185V38.7702H94.4282V33.2341ZM101.302 33.2341H102.296L104.346 38.7702H103.352L102.855 37.2981H100.723L100.226 38.7702H99.2733L101.302 33.2341ZM100.971 36.5724H102.607L101.82 34.1879H101.799L100.971 36.5724ZM103.663 33.2341H107.99V34.0635H106.292V38.7495H105.361V34.0635H103.663V33.2341ZM108.611 33.2341H109.543V38.7702H108.611V33.2341ZM112.96 33.1097C113.684 33.0889 114.368 33.4207 114.844 33.9598C115.072 34.2293 115.237 34.5403 115.361 34.8928C115.589 35.6186 115.589 36.4065 115.361 37.1322C115.258 37.464 115.072 37.775 114.844 38.0445C114.616 38.3141 114.347 38.5214 114.036 38.6666C113.353 38.9776 112.566 38.9776 111.883 38.6666C111.572 38.5214 111.303 38.3141 111.075 38.0445C110.848 37.775 110.682 37.464 110.558 37.1322C110.33 36.4065 110.33 35.6186 110.558 34.8928C110.661 34.5611 110.848 34.2501 111.075 33.9598C111.552 33.3999 112.256 33.0889 112.96 33.1097ZM112.96 33.8976C112.463 33.8768 111.986 34.1257 111.717 34.5611C111.593 34.7684 111.49 34.9965 111.448 35.2453C111.324 35.7637 111.324 36.2821 111.448 36.8004C111.51 37.0285 111.593 37.2773 111.717 37.4847C112.173 38.1689 113.084 38.3555 113.767 37.8994C113.933 37.7957 114.078 37.6506 114.181 37.4847C114.305 37.2773 114.409 37.0493 114.45 36.8004C114.575 36.2821 114.575 35.7637 114.45 35.2453C114.388 35.0173 114.305 34.7892 114.181 34.5611C113.933 34.1257 113.477 33.8768 112.96 33.8976ZM116.355 33.2341H117.328L119.772 37.3188V33.2548H120.662V38.7702H119.689L117.246 34.7062V38.7702H116.355V33.2341ZM123.209 33.2341H124.203L126.253 38.7702H125.238L124.741 37.2981H122.608L122.111 38.7702H121.159L123.209 33.2341ZM122.878 36.5724H124.513L123.706 34.1879H123.685L122.878 36.5724ZM126.77 33.2341H127.702V37.9201H130.414V38.7495H126.75L126.77 33.2341ZM73.9918 40.9889H74.9857L77.0355 46.525H76.0417L75.5447 45.0529H73.4121L72.9151 46.525H71.942L73.9918 40.9889ZM73.6605 44.3064H75.2963L74.5095 41.9219H74.4888L73.6605 44.3064ZM78.1743 44.6796C78.1743 44.8663 78.195 45.0529 78.2779 45.2395C78.34 45.3846 78.4435 45.509 78.5677 45.6127C78.692 45.7164 78.8369 45.7786 79.0026 45.82C79.1682 45.8615 79.3546 45.8823 79.5409 45.8823C79.7273 45.8823 79.8929 45.8408 80.0585 45.7993C80.1828 45.7578 80.307 45.6956 80.4105 45.6127C80.4934 45.5298 80.5762 45.4468 80.6176 45.3432C80.659 45.2395 80.6797 45.1358 80.6797 45.0321C80.7004 44.8663 80.6383 44.7004 80.5348 44.5552C80.4519 44.4723 80.3484 44.3894 80.2242 44.3479C79.9964 44.2649 79.7894 44.2027 79.5616 44.1405C79.3131 44.0783 79.0026 43.9954 78.6506 43.8917C78.4435 43.8503 78.2572 43.7673 78.0708 43.6429C77.9259 43.56 77.8016 43.4356 77.6981 43.3111C77.6153 43.1867 77.5532 43.0623 77.5118 42.9172C77.4704 42.772 77.4496 42.6269 77.4496 42.4818C77.4496 42.2329 77.4911 41.9841 77.6153 41.756C77.7188 41.5487 77.8845 41.3828 78.0708 41.2377C78.2572 41.0925 78.4642 41.0096 78.692 40.9474C78.9197 40.8852 79.1682 40.8644 79.396 40.8644C79.6651 40.8644 79.9343 40.9059 80.1828 40.9681C80.4105 41.0303 80.6383 41.1547 80.8454 41.2999C81.0317 41.445 81.1766 41.6316 81.3009 41.8597C81.4044 42.0878 81.4665 42.3573 81.4665 42.6269H80.5348C80.5348 42.3366 80.4105 42.0463 80.1828 41.8597C79.955 41.7146 79.6651 41.6316 79.3753 41.6316C79.2717 41.6316 79.1475 41.6524 79.044 41.6731C78.9404 41.6938 78.8162 41.7353 78.7334 41.7768C78.6506 41.839 78.5677 41.9012 78.5056 42.0049C78.4228 42.1085 78.4021 42.2329 78.4021 42.3573C78.3814 42.5232 78.4642 42.6891 78.5677 42.8135C78.692 42.9379 78.8576 43.0209 79.0233 43.0623L79.251 43.1245L79.7065 43.2489L80.2035 43.3941L80.5555 43.4978C80.7211 43.5392 80.8661 43.6222 81.011 43.7258C81.1352 43.8295 81.2388 43.9332 81.3423 44.0576C81.4251 44.182 81.4872 44.3271 81.5286 44.4723C81.715 45.1358 81.4872 45.8408 80.9282 46.2347C80.7211 46.3799 80.4934 46.4836 80.2449 46.5458C79.9964 46.608 79.7273 46.6494 79.4581 46.6287C79.1682 46.6287 78.8783 46.5872 78.6092 46.525C78.3607 46.4628 78.1122 46.3384 77.9052 46.1725C77.6981 46.0067 77.5325 45.7993 77.4289 45.5712C77.3047 45.2809 77.2426 44.9907 77.2426 44.6796H78.1743ZM83.0194 44.6796C83.0194 44.8663 83.0608 45.0529 83.123 45.2395C83.1851 45.3846 83.2886 45.509 83.4128 45.6127C83.5371 45.7164 83.682 45.7786 83.8477 45.82C84.0133 45.8615 84.1996 45.8823 84.386 45.8823C84.5516 45.8823 84.738 45.8615 84.9036 45.7993C85.0279 45.7578 85.1521 45.6956 85.2556 45.6127C85.3384 45.5298 85.4213 45.4468 85.442 45.3432C85.4834 45.2395 85.5041 45.1358 85.5041 45.0321C85.5248 44.8663 85.4627 44.7004 85.3592 44.576C85.2763 44.4723 85.1728 44.4101 85.0486 44.3686C84.8208 44.2857 84.6138 44.2235 84.386 44.1613C84.1375 44.0991 83.8269 44.0161 83.4542 43.9125C83.2472 43.8502 83.0608 43.7673 82.8745 43.6636C82.7296 43.5807 82.6053 43.4563 82.5018 43.3111C82.419 43.1867 82.3569 43.0623 82.3154 42.9172C82.274 42.772 82.2533 42.6269 82.2533 42.4818C82.2533 42.2329 82.3154 41.9841 82.419 41.756C82.5225 41.5487 82.6881 41.3828 82.8538 41.2377C83.0401 41.0925 83.2472 41.0096 83.4957 40.9474C83.7234 40.8852 83.9719 40.8644 84.1997 40.8644C84.4688 40.8644 84.738 40.9059 84.9865 40.9681C85.2142 41.0303 85.442 41.1547 85.649 41.2999C85.8354 41.445 85.9803 41.6316 86.1046 41.8597C86.2081 42.0878 86.2702 42.3573 86.2702 42.6269H85.3385C85.3385 42.3366 85.2142 42.0463 84.9865 41.8597C84.7587 41.7146 84.4688 41.6316 84.1789 41.6316C84.0754 41.6316 83.9512 41.6524 83.8477 41.6731C83.7441 41.6938 83.6406 41.7353 83.5371 41.7768C83.4335 41.839 83.3507 41.9012 83.3093 42.0049C83.2472 42.1085 83.2058 42.2329 83.2058 42.3573C83.2058 42.5232 83.2679 42.6891 83.3921 42.8135C83.5164 42.9379 83.682 43.0209 83.8477 43.0623L84.0754 43.1245L84.5309 43.2489L85.0279 43.3941L85.3799 43.4978C85.5455 43.5392 85.6904 43.6222 85.8354 43.7258C85.9596 43.8295 86.0631 43.9332 86.1667 44.0576C86.2495 44.182 86.3116 44.3271 86.3737 44.4723C86.5601 45.1358 86.3116 45.8408 85.7733 46.2347C85.5662 46.3799 85.3385 46.4836 85.09 46.5458C84.8415 46.608 84.5723 46.6494 84.3032 46.6287C84.0133 46.6287 83.7234 46.5872 83.4542 46.525C83.2058 46.4421 82.9573 46.3384 82.7503 46.1725C82.5432 46.0067 82.3776 45.7993 82.274 45.5505C82.1498 45.2602 82.0877 44.9699 82.0877 44.6589L83.0194 44.6796ZM89.5417 40.8644C90.2664 40.8437 90.9496 41.1547 91.4259 41.7146C91.6536 41.9841 91.8193 42.2951 91.9435 42.6269C92.1713 43.3526 92.1713 44.1405 91.9435 44.8662C91.84 45.198 91.6536 45.509 91.4259 45.7993C91.1981 46.0689 90.9289 46.2762 90.6184 46.4214C89.9351 46.7324 89.1483 46.7324 88.465 46.4214C88.1544 46.2762 87.8852 46.0689 87.6575 45.7993C87.4297 45.5298 87.2641 45.2187 87.1605 44.8662C86.9328 44.1405 86.9328 43.3526 87.1605 42.6269C87.2641 42.2951 87.4504 41.9841 87.6575 41.7146C88.113 41.1547 88.817 40.8437 89.5417 40.8644ZM89.5417 41.6524C89.0447 41.6316 88.5685 41.8805 88.2993 42.3159C88.1751 42.5232 88.0716 42.7513 88.0302 43.0001C87.9059 43.5185 87.9059 44.0369 88.0302 44.5552C88.0923 44.7833 88.1751 45.0321 88.2993 45.2395C88.7549 45.9237 89.6659 46.1103 90.3492 45.6542C90.5148 45.5505 90.6598 45.4054 90.7633 45.2395C90.8875 45.0321 90.9911 44.804 91.0325 44.5552C91.1567 44.0369 91.1567 43.5185 91.0325 43.0001C90.9704 42.772 90.8875 42.5232 90.7633 42.3159C90.4941 41.8805 90.0386 41.6316 89.5417 41.6524ZM96.5401 42.7513C96.4987 42.6062 96.4573 42.461 96.3745 42.3159C96.3124 42.1915 96.2089 42.0671 96.1053 41.9634C96.0018 41.8597 95.8569 41.7768 95.7119 41.7353C95.5463 41.6731 95.3599 41.6524 95.1943 41.6524C94.6973 41.6316 94.2211 41.8805 93.9519 42.3159C93.8277 42.5232 93.7242 42.7513 93.6828 43.0001C93.5585 43.5185 93.5585 44.0369 93.6828 44.5552C93.7449 44.804 93.8277 45.0321 93.9519 45.2395C94.2211 45.6542 94.6973 45.903 95.1943 45.903C95.3806 45.903 95.567 45.8615 95.7533 45.7993C95.919 45.7164 96.0432 45.6127 96.1674 45.4883C96.2917 45.3431 96.3745 45.198 96.4366 45.0321C96.5194 44.8455 96.5608 44.6589 96.5815 44.4516H97.4926C97.4719 44.7626 97.4098 45.0736 97.2855 45.3639C97.182 45.6334 97.0164 45.8823 96.8093 46.0689C96.6023 46.2555 96.3745 46.4214 96.1053 46.525C95.8154 46.6287 95.5256 46.6909 95.215 46.6909C94.8423 46.6909 94.4696 46.6287 94.1383 46.4628C93.8277 46.3177 93.5585 46.1103 93.3308 45.8408C93.103 45.5712 92.9374 45.2602 92.8131 44.9285C92.5854 44.2027 92.5854 43.4148 92.8131 42.6891C92.9167 42.3573 93.103 42.0463 93.3308 41.756C93.7863 41.1962 94.4903 40.8852 95.215 40.9059C95.5049 40.9059 95.7947 40.9474 96.0639 41.0303C96.3124 41.1133 96.5608 41.2377 96.7679 41.4036C96.975 41.5694 97.1406 41.7768 97.2648 42.0049C97.3891 42.2537 97.4719 42.5232 97.4926 42.8135L96.5401 42.7513ZM98.3415 40.9889H99.2733V46.525H98.3415V40.9889ZM101.965 40.9889H102.959L105.009 46.525H104.015L103.518 45.0529H101.385L100.888 46.525H99.9358L101.965 40.9889ZM101.634 44.3064H103.269L102.462 41.9219H102.441L101.634 44.3064ZM104.429 40.9889H108.756V41.8182H107.059V46.5043H106.106V41.8182H104.408V40.9889H104.429ZM109.46 40.9889H110.392V46.525H109.46V40.9889ZM113.912 40.8644C114.637 40.8437 115.32 41.1547 115.796 41.7146C116.024 41.9841 116.19 42.2951 116.293 42.6269C116.521 43.3526 116.521 44.1405 116.293 44.8662C116.19 45.198 116.003 45.509 115.796 45.7993C115.569 46.0689 115.299 46.2762 114.989 46.4214C114.305 46.7324 113.519 46.7324 112.835 46.4214C112.525 46.2762 112.256 46.0689 112.028 45.7993C111.8 45.5298 111.634 45.2187 111.51 44.8662C111.282 44.1405 111.282 43.3526 111.51 42.6269C111.614 42.2951 111.779 41.9841 112.028 41.7146C112.483 41.1547 113.187 40.8437 113.912 40.8644ZM113.912 41.6524C113.415 41.6316 112.939 41.8805 112.67 42.3159C112.546 42.5232 112.442 42.7513 112.401 43.0001C112.276 43.5185 112.276 44.0369 112.401 44.5552C112.442 44.7833 112.546 45.0321 112.67 45.2395C113.125 45.9237 114.036 46.1103 114.72 45.6542C114.885 45.5505 115.03 45.4054 115.134 45.2395C115.258 45.0321 115.361 44.804 115.403 44.5552C115.527 44.0369 115.527 43.5185 115.403 43.0001C115.341 42.772 115.258 42.5232 115.134 42.3159C114.865 41.8805 114.409 41.6316 113.912 41.6524ZM117.391 40.9889H118.384L120.828 45.0736V40.9889H121.718V46.525H120.724L118.281 42.461H118.26V46.525H117.37L117.391 40.9889ZM40.2832 25.189H45.6046V46.525H40.2832V25.189ZM25.4788 25.189H30.8001V42.0256H39.1237V46.5043H25.4788V25.189ZM20.7579 32.1559C20.0954 30.3312 18.3975 29.0871 16.4719 29.0456C13.6352 29.0456 11.3783 30.974 11.3783 35.6186C11.3783 38.6458 12.6 42.1915 16.6582 42.1915C18.0455 42.1915 20.0747 41.1547 20.9029 39.2886L24.9819 41.2584C23.2012 44.4723 20.1368 46.525 16.6582 46.525C10.0739 46.525 6.22266 41.4243 6.22266 35.6186C6.22266 29.8128 9.82542 24.6914 16.2648 24.6914C20.3231 24.6914 22.9941 26.6612 24.9197 30.1031L20.7579 32.1559ZM54.7564 36.7175L55.5639 37.9201L53.1828 39.6204V38.5629L54.7564 36.7175ZM53.9075 25.189H47.3852L47.3645 46.5043H52.6858L52.7066 32.9023L62.1276 46.5872H69.5401L53.9075 25.189ZM60.5539 33.4621L60.5746 33.4414C67.2418 27.7186 73.1843 21.1872 78.2572 13.9922C74.9236 11.9395 67.8423 11.7529 67.8423 11.7529C51.5056 11.193 32.9535 18.6575 22.0831 24.8365L22.2487 25.0646C26.6383 22.8874 38.9167 17.3305 52.0026 16.8744C52.0026 16.8744 56.8891 16.667 59.9328 18.1806C59.9328 18.1806 63.7012 19.7358 62.376 24.6706C61.6306 27.0758 60.5125 29.3359 59.0631 31.3887L59.0424 31.4094L60.5539 33.4621ZM21.1927 24.4218L21.0478 24.2352C21.0478 24.2352 21.4205 23.8827 21.9174 23.4473C25.7273 20.1504 29.7855 17.1646 34.0923 14.5313C41.0286 10.2807 47.9236 7.56446 52.7894 6.75581C53.6797 6.6314 54.57 6.54846 55.4604 6.52772C55.4604 6.52772 59.7464 6.46552 59.7464 8.76708C59.7671 9.22324 59.6429 9.65867 59.3737 10.0112C59.3737 10.0112 58.8561 9.0781 57.9865 8.82928C56.9512 8.55973 53.2242 7.81328 42.478 11.5041C40.8837 12.0639 39.3308 12.7481 37.8193 13.5153C36.0386 14.4277 34.2165 15.4229 32.4773 16.4597C31.8561 16.8122 31.2556 17.2268 30.6759 17.5793C28.3983 18.9478 26.3898 20.4407 24.8369 21.5811C22.8492 23.0118 21.1927 24.4218 21.1927 24.4218ZM47.82 6.88021C47.82 6.88021 46.7641 3.21017 36.6805 8.80854C32.85 10.9442 29.8477 13.4946 27.2388 15.8376C24.6713 18.1392 22.2694 20.6273 20.0125 23.2607L19.8469 23.0326C19.8469 23.0326 23.6981 17.7659 28.5846 13.4531C33.1191 9.43059 34.9826 8.33165 38.4404 6.38258C42.6023 4.08103 48.7311 3.04429 47.82 6.88021ZM34.0923 7.52299C28.2947 6.1545 18.3975 22.6593 18.3975 22.6593L18.2526 22.452C19.4742 20.0053 20.8408 17.6415 22.3316 15.3607C24.7334 11.7529 28.0256 8.6634 29.6199 7.77181C34.465 5.05556 34.0923 7.52299 34.0923 7.52299Z" fill="#B8CEF0"/>
</svg>
