<svg width="177" height="70" viewBox="0 0 177 70" fill="none" xmlns="http://www.w3.org/2000/svg">
<path d="M55.1484 41.4043H56.591L57.98 43.972H58.0395L59.4285 41.4043H60.871L58.6492 45.2587V47.3665H57.3702V45.2587L55.1484 41.4043Z" fill="#B8CEF0"/>
<path d="M61.5744 47.3665V41.4043H65.679V42.4436H62.8623V43.8643H65.4678V44.9036H62.8623V46.3272H65.6909V47.3665H61.5744Z" fill="#B8CEF0"/>
<path d="M67.7528 47.3665H66.3727L68.4756 41.4043H70.1352L72.2351 47.3665H70.855L69.3292 42.7667H69.2816L67.7528 47.3665ZM67.6666 45.0229H70.9264V46.0069H67.6666V45.0229Z" fill="#B8CEF0"/>
<path d="M72.9683 47.3665V41.4043H75.3715C75.8315 41.4043 76.2242 41.4848 76.5493 41.6459C76.8765 41.805 77.1254 42.0312 77.2959 42.3242C77.4684 42.6153 77.5547 42.9579 77.5547 43.3519C77.5547 43.7478 77.4674 44.0884 77.2929 44.3737C77.1184 44.6571 76.8656 44.8744 76.5345 45.0258C76.2053 45.1772 75.8068 45.2529 75.3388 45.2529H73.7297V44.2398H75.1306C75.3765 44.2398 75.5807 44.2068 75.7433 44.1408C75.9059 44.0748 76.0269 43.9759 76.1062 43.8439C76.1875 43.7119 76.2281 43.5479 76.2281 43.3519C76.2281 43.1539 76.1875 42.987 76.1062 42.8511C76.0269 42.7153 75.9049 42.6124 75.7403 42.5426C75.5777 42.4707 75.3725 42.4348 75.1246 42.4348H74.2561V47.3665H72.9683ZM76.2579 44.6532L77.7718 47.3665H76.3501L74.8689 44.6532H76.2579Z" fill="#B8CEF0"/>
<path d="M81.7693 43.119C81.7455 42.8841 81.6433 42.7017 81.4629 42.5717C81.2825 42.4416 81.0376 42.3766 80.7282 42.3766C80.5181 42.3766 80.3406 42.4057 80.1958 42.464C80.0511 42.5202 79.9401 42.5988 79.8627 42.6998C79.7874 42.8007 79.7497 42.9152 79.7497 43.0433C79.7457 43.15 79.7685 43.2432 79.8181 43.3228C79.8697 43.4023 79.9401 43.4712 80.0293 43.5295C80.1185 43.5857 80.2216 43.6352 80.3386 43.6779C80.4556 43.7187 80.5805 43.7536 80.7134 43.7827L81.2607 43.9108C81.5264 43.9691 81.7702 44.0467 81.9923 44.1437C82.2144 44.2408 82.4068 44.3601 82.5693 44.5018C82.7319 44.6435 82.8579 44.8104 82.9471 45.0025C83.0383 45.1947 83.0849 45.415 83.0869 45.6634C83.0849 46.0283 82.9897 46.3446 82.8013 46.6125C82.615 46.8783 82.3453 47.085 81.9923 47.2325C81.6414 47.3781 81.218 47.4509 80.7223 47.4509C80.2305 47.4509 79.8022 47.3771 79.4374 47.2296C79.0745 47.0821 78.791 46.8638 78.5867 46.5746C78.3845 46.2835 78.2784 45.9235 78.2685 45.4945H79.5147C79.5286 45.6944 79.5871 45.8614 79.6902 45.9953C79.7953 46.1272 79.9351 46.2272 80.1096 46.2951C80.2861 46.3611 80.4853 46.3941 80.7074 46.3941C80.9255 46.3941 81.1149 46.3631 81.2755 46.301C81.4381 46.2388 81.564 46.1525 81.6533 46.0419C81.7425 45.9312 81.7871 45.8041 81.7871 45.6605C81.7871 45.5266 81.7465 45.414 81.6652 45.3228C81.5858 45.2316 81.4689 45.1539 81.3142 45.0899C81.1615 45.0258 80.9741 44.9676 80.752 44.9152L80.0888 44.7522C79.5752 44.6299 79.1697 44.4387 78.8723 44.1787C78.5748 43.9186 78.4271 43.5683 78.4291 43.1277C78.4271 42.7667 78.5253 42.4513 78.7236 42.1816C78.9238 41.9118 79.1985 41.7012 79.5474 41.5498C79.8964 41.3984 80.293 41.3228 80.7372 41.3228C81.1893 41.3228 81.5839 41.3984 81.9209 41.5498C82.26 41.7012 82.5237 41.9118 82.7121 42.1816C82.9005 42.4513 82.9976 42.7638 83.0036 43.119H81.7693Z" fill="#B8CEF0"/>
<path fill-rule="evenodd" clip-rule="evenodd" d="M2.21963 59.2075L16.9312 30.7137H0.978516V21.1157H29.3957V29.4086L14.0743 59.2075H2.21963ZM19.8356 28.8919V29.1274L5.24566 57.3857H12.9273L27.5345 28.976V22.9375H2.83977V28.8919H19.8356Z" fill="#B8CEF0"/>
<path fill-rule="evenodd" clip-rule="evenodd" d="M34.5476 46.3517L34.5437 46.3499C32.3899 45.3534 30.6299 43.9532 29.3177 42.1392C27.98 40.29 27.294 38.1729 27.2403 35.8461L27.1973 33.9831H38.0737L38.1768 35.6979C38.226 36.5173 38.5459 37.1193 39.1961 37.6257C39.906 38.1786 40.7549 38.4742 41.8351 38.4742C42.7194 38.4742 43.4204 38.2864 43.9946 37.9631C44.6012 37.6167 45.0643 37.1501 45.4066 36.5332L45.4104 36.5264C45.7562 35.9096 45.9542 35.1643 45.9542 34.2406C45.9542 33.2947 45.7507 32.5451 45.4016 31.936L45.3974 31.9286L45.3932 31.9212C45.0396 31.2905 44.5653 30.8178 43.949 30.471C43.3426 30.1297 42.6173 29.9327 41.7231 29.9229C40.9598 29.9241 40.2139 30.0765 39.4715 30.3922C38.7623 30.6985 38.2902 31.0787 37.9736 31.5007L37.2869 32.4159L27.8509 30.7606L29.8226 9.27393H54.9009V18.8719H39.338L39.0199 21.8858C40.5302 21.2151 42.1838 20.8968 43.9488 20.8968C46.3729 20.8968 48.6001 21.4586 50.5774 22.6198C52.527 23.7647 54.0666 25.3423 55.183 27.3187C56.3193 29.319 56.8543 31.5827 56.8428 34.0561C56.8542 36.6724 56.2299 39.0668 54.9269 41.1842C53.6443 43.276 51.8473 44.9141 49.583 46.0927L49.5795 46.0945C47.2981 47.2759 44.6984 47.8367 41.8351 47.8367C39.1752 47.8367 36.7329 47.3568 34.5476 46.3517ZM53.3318 40.2455C54.4431 38.4401 54.993 36.3768 54.9815 34.0556C54.993 31.8465 54.5175 29.8953 53.5552 28.2021C52.5928 26.4976 51.281 25.1576 49.6198 24.182C47.9586 23.2064 46.0683 22.7186 43.9488 22.7186C42.4022 22.7186 41.0045 22.999 39.7557 23.5596C39.4098 23.7149 39.0881 23.8814 38.7905 24.0591C38.0138 24.5229 37.4019 25.0628 36.9546 25.679H36.7483L37.6591 17.0501H53.0396V11.0957H31.5241L29.8572 29.2618L36.4734 30.4224C37.0118 29.7047 37.7623 29.1384 38.7246 28.7235C39.6984 28.3086 40.7009 28.1012 41.732 28.1012C42.912 28.1124 43.9603 28.3759 44.8768 28.8917C45.7933 29.4075 46.5094 30.1252 47.0249 31.0447C47.5519 31.9642 47.8154 33.0295 47.8154 34.2406C47.8154 35.4292 47.5576 36.4833 47.0421 37.4028C46.538 38.3111 45.8334 39.0232 44.9284 39.539C44.0347 40.0436 43.0037 40.296 41.8351 40.296C40.3686 40.296 39.1027 39.881 38.0372 39.0512C36.9717 38.2214 36.3989 37.1393 36.3187 35.8049H29.1011C29.1156 36.4347 29.1838 37.042 29.3056 37.6267C29.5677 38.8845 30.0781 40.0378 30.8367 41.0865C31.948 42.6228 33.4488 43.8282 35.3392 44.7029C37.241 45.5776 39.4063 46.0149 41.8351 46.0149C44.4472 46.0149 46.7385 45.5047 48.709 44.4842C50.691 43.4526 52.2319 42.0397 53.3318 40.2455Z" fill="#B8CEF0"/>
<path fill-rule="evenodd" clip-rule="evenodd" d="M83.8245 47.366H19.8438L14.0273 59.2075H83.8245L79.1713 53.2868L83.8245 47.366ZM69.1048 52.6H67.8021C67.7783 52.435 67.7297 52.2885 67.6563 52.1604C67.583 52.0304 67.4888 51.9198 67.3738 51.8285C67.2588 51.7373 67.1259 51.6675 66.9752 51.6189C66.8265 51.5704 66.6649 51.5462 66.4904 51.5462C66.1751 51.5462 65.9005 51.6228 65.6665 51.7761C65.4326 51.9275 65.2511 52.1488 65.1222 52.4399C64.9933 52.7291 64.9289 53.0804 64.9289 53.4938C64.9289 53.9188 64.9933 54.2759 65.1222 54.5651C65.2531 54.8543 65.4355 55.0726 65.6695 55.2201C65.9035 55.3676 66.1741 55.4414 66.4815 55.4414C66.654 55.4414 66.8136 55.4191 66.9604 55.3744C67.1091 55.3298 67.2409 55.2648 67.3559 55.1794C67.4709 55.092 67.5661 54.9863 67.6415 54.862C67.7188 54.7378 67.7723 54.5961 67.8021 54.437L69.1048 54.4428C69.0711 54.7165 68.9869 54.9804 68.852 55.2347C68.7192 55.487 68.5397 55.7131 68.3137 55.913C68.0896 56.111 67.8219 56.2682 67.5106 56.3846C67.2013 56.4991 66.8513 56.5564 66.4607 56.5564C65.9174 56.5564 65.4316 56.436 65.0033 56.1954C64.5769 55.9547 64.2399 55.6063 63.992 55.1502C63.7461 54.6942 63.6232 54.142 63.6232 53.4938C63.6232 52.8436 63.7481 52.2905 63.9979 51.8344C64.2478 51.3783 64.5869 51.0309 65.0152 50.7921C65.4435 50.5515 65.9253 50.4312 66.4607 50.4312C66.8136 50.4312 67.1408 50.4797 67.4422 50.5767C67.7456 50.6738 68.0143 50.8154 68.2482 51.0018C68.4822 51.1861 68.6726 51.4122 68.8193 51.6801C68.968 51.9479 69.0632 52.2545 69.1048 52.6ZM22.9316 50.5127V56.4749H27.0481V55.4355H24.2195V54.012H26.825V52.9727H24.2195V51.552H27.0362V50.5127H22.9316ZM30.4961 52.5447L29.2677 50.5127H27.8073L29.6781 53.4938L27.7716 56.4749H29.2468L30.4961 54.4399H30.5436L31.7929 56.4749H33.2741L31.3735 53.4938L33.2324 50.5127H31.778L30.5436 52.5447H30.4961ZM34.0474 50.5127H36.4506C36.9126 50.5127 37.3062 50.599 37.6314 50.7718C37.9566 50.9426 38.2045 51.1803 38.375 51.485C38.5475 51.7878 38.6338 52.1371 38.6338 52.5331C38.6338 52.929 38.5465 53.2783 38.372 53.5811C38.1975 53.8839 37.9447 54.1197 37.6136 54.2885C37.2844 54.4574 36.8859 54.5418 36.4179 54.5418H35.3353V56.4749H34.0474V50.5127ZM36.2097 53.5316H35.3353V51.5432H36.2038C36.4536 51.5432 36.6598 51.585 36.8224 51.6684C36.985 51.7499 37.106 51.8654 37.1853 52.0149C37.2666 52.1624 37.3072 52.3351 37.3072 52.5331C37.3072 52.7291 37.2666 52.9028 37.1853 53.0542C37.106 53.2036 36.985 53.321 36.8224 53.4064C36.6618 53.4899 36.4576 53.5316 36.2097 53.5316ZM43.5748 50.5127H39.4703V56.4749H43.5867V55.4355H40.7582V54.012H43.3637V52.9727H40.7582V51.552H43.5748V50.5127ZM44.5987 50.5127H47.002C47.462 50.5127 47.8546 50.5932 48.1798 50.7543C48.507 50.9134 48.7558 51.1396 48.9264 51.4326C49.0989 51.7237 49.1851 52.0663 49.1851 52.4603C49.1851 52.8562 49.0979 53.1968 48.9234 53.4821C48.7489 53.7655 48.4961 53.9828 48.1649 54.1342C48.1468 54.1426 48.1284 54.1507 48.1098 54.1586L49.4023 56.4749H47.9805L46.8267 54.3613H45.8866V56.4749H44.5987V50.5127ZM46.7611 53.3482H45.8866V51.5432H46.7551C47.003 51.5432 47.2082 51.5791 47.3708 51.651C47.5354 51.7208 47.6573 51.8237 47.7366 51.9595C47.8179 52.0954 47.8586 52.2623 47.8586 52.4603C47.8586 52.6563 47.8179 52.8203 47.7366 52.9523C47.6573 53.0842 47.5364 53.1832 47.3738 53.2492C47.2112 53.3152 47.007 53.3482 46.7611 53.3482ZM50.0953 56.4749H51.3832V50.5127H50.0953V56.4749ZM52.4428 50.5127H56.5473V51.552H53.7306V52.9727H56.3361V54.012H53.7306V55.4355H56.5592V56.4749H52.4428V50.5127ZM61.5538 56.4749H62.6662V50.5127H61.3843V54.2623H61.3307L58.7014 50.5127H57.5712V56.4749H58.8591V52.7223H58.9037L61.5538 56.4749ZM74.1329 50.5127H70.0284V56.4749H74.1448V55.4355H71.3162V54.012H73.9217V52.9727H71.3162V51.552H74.1329V50.5127Z" fill="#B8CEF0"/>
<path d="M100.813 19.4858L96.9208 28.6138H95.6328L99.5808 19.6118H94.1768V18.5198H100.813V19.4858ZM108.679 19.5978H103.765V22.7898C103.98 22.4911 104.297 22.2484 104.717 22.0618C105.137 21.8658 105.59 21.7678 106.075 21.7678C106.85 21.7678 107.48 21.9311 107.965 22.2578C108.451 22.5751 108.796 22.9904 109.001 23.5038C109.216 24.0078 109.323 24.5444 109.323 25.1138C109.323 25.7858 109.197 26.3878 108.945 26.9198C108.693 27.4518 108.306 27.8718 107.783 28.1798C107.27 28.4878 106.631 28.6418 105.865 28.6418C104.885 28.6418 104.092 28.3898 103.485 27.8858C102.879 27.3818 102.51 26.7098 102.379 25.8698H103.625C103.747 26.4018 104.003 26.8171 104.395 27.1158C104.787 27.4144 105.282 27.5638 105.879 27.5638C106.617 27.5638 107.172 27.3444 107.545 26.9058C107.919 26.4578 108.105 25.8698 108.105 25.1418C108.105 24.4138 107.919 23.8538 107.545 23.4618C107.172 23.0604 106.621 22.8598 105.893 22.8598C105.399 22.8598 104.965 22.9811 104.591 23.2238C104.227 23.4571 103.961 23.7791 103.793 24.1898H102.589V18.4778H108.679V19.5978ZM121.791 18.8558L118.613 24.9318V28.6138H117.339V24.9318L114.147 18.8558H115.561L117.969 23.7978L120.377 18.8558H121.791ZM124.409 19.8918V23.1538H127.965V24.2038H124.409V27.5638H128.385V28.6138H123.135V18.8418H128.385V19.8918H124.409ZM136.08 26.4438H131.824L131.04 28.6138H129.696L133.224 18.9118H134.694L138.208 28.6138H136.864L136.08 26.4438ZM135.716 25.4078L133.952 20.4798L132.188 25.4078H135.716ZM144.884 28.6138L142.56 24.6238H141.02V28.6138H139.746V18.8558H142.896C143.633 18.8558 144.254 18.9818 144.758 19.2338C145.271 19.4858 145.654 19.8264 145.906 20.2558C146.158 20.6851 146.284 21.1751 146.284 21.7258C146.284 22.3978 146.088 22.9904 145.696 23.5038C145.313 24.0171 144.735 24.3578 143.96 24.5258L146.41 28.6138H144.884ZM141.02 23.6018H142.896C143.587 23.6018 144.105 23.4338 144.45 23.0978C144.795 22.7524 144.968 22.2951 144.968 21.7258C144.968 21.1471 144.795 20.6991 144.45 20.3818C144.114 20.0644 143.596 19.9058 142.896 19.9058H141.02V23.6018ZM151.358 28.7118C150.714 28.7118 150.135 28.5998 149.622 28.3758C149.118 28.1424 148.721 27.8251 148.432 27.4238C148.142 27.0131 147.993 26.5418 147.984 26.0098H149.342C149.388 26.4671 149.575 26.8544 149.902 27.1718C150.238 27.4798 150.723 27.6338 151.358 27.6338C151.964 27.6338 152.44 27.4844 152.786 27.1858C153.14 26.8778 153.318 26.4858 153.318 26.0098C153.318 25.6364 153.215 25.3331 153.01 25.0998C152.804 24.8664 152.548 24.6891 152.24 24.5678C151.932 24.4464 151.516 24.3158 150.994 24.1758C150.35 24.0078 149.832 23.8398 149.44 23.6718C149.057 23.5038 148.726 23.2424 148.446 22.8878C148.175 22.5238 148.04 22.0384 148.04 21.4318C148.04 20.8998 148.175 20.4284 148.446 20.0178C148.716 19.6071 149.094 19.2898 149.58 19.0658C150.074 18.8418 150.639 18.7298 151.274 18.7298C152.188 18.7298 152.935 18.9584 153.514 19.4158C154.102 19.8731 154.433 20.4798 154.508 21.2358H153.108C153.061 20.8624 152.865 20.5358 152.52 20.2558C152.174 19.9664 151.717 19.8218 151.148 19.8218C150.616 19.8218 150.182 19.9618 149.846 20.2418C149.51 20.5124 149.342 20.8951 149.342 21.3898C149.342 21.7444 149.44 22.0338 149.636 22.2578C149.841 22.4818 150.088 22.6544 150.378 22.7758C150.676 22.8878 151.092 23.0184 151.624 23.1678C152.268 23.3451 152.786 23.5224 153.178 23.6998C153.57 23.8678 153.906 24.1338 154.186 24.4978C154.466 24.8524 154.606 25.3378 154.606 25.9538C154.606 26.4298 154.48 26.8778 154.228 27.2978C153.976 27.7178 153.602 28.0584 153.108 28.3198C152.613 28.5811 152.03 28.7118 151.358 28.7118ZM96.0668 40.8918V44.1538H99.6228V45.2038H96.0668V48.5638H100.043V49.6138H94.7928V39.8418H100.043V40.8918H96.0668ZM105.961 44.7418L108.957 49.6138H107.515L105.177 45.8058L102.951 49.6138H101.537L104.519 44.7418L101.523 39.8558H102.951L105.303 43.6778L107.543 39.8558H108.971L105.961 44.7418ZM117.19 42.7118C117.19 43.5238 116.91 44.2004 116.35 44.7418C115.799 45.2738 114.955 45.5398 113.816 45.5398H111.94V49.6138H110.666V39.8558H113.816C114.917 39.8558 115.753 40.1218 116.322 40.6538C116.901 41.1858 117.19 41.8718 117.19 42.7118ZM113.816 44.4898C114.525 44.4898 115.048 44.3358 115.384 44.0278C115.72 43.7198 115.888 43.2811 115.888 42.7118C115.888 41.5078 115.197 40.9058 113.816 40.9058H111.94V44.4898H113.816ZM120.047 40.8918V44.1538H123.603V45.2038H120.047V48.5638H124.023V49.6138H118.773V39.8418H124.023V40.8918H120.047ZM131.089 49.6138L128.765 45.6238H127.225V49.6138H125.951V39.8558H129.101C129.838 39.8558 130.459 39.9818 130.963 40.2338C131.476 40.4858 131.859 40.8264 132.111 41.2558C132.363 41.6851 132.489 42.1751 132.489 42.7258C132.489 43.3978 132.293 43.9904 131.901 44.5038C131.518 45.0171 130.94 45.3578 130.165 45.5258L132.615 49.6138H131.089ZM127.225 44.6018H129.101C129.792 44.6018 130.31 44.4338 130.655 44.0978C131 43.7524 131.173 43.2951 131.173 42.7258C131.173 42.1471 131 41.6991 130.655 41.3818C130.319 41.0644 129.801 40.9058 129.101 40.9058H127.225V44.6018ZM135.743 39.8558V49.6138H134.469V39.8558H135.743ZM139.188 40.8918V44.1538H142.744V45.2038H139.188V48.5638H143.164V49.6138H137.914V39.8418H143.164V40.8918H139.188ZM152.764 49.6138H151.49L146.366 41.8438V49.6138H145.092V39.8418H146.366L151.49 47.5978V39.8418H152.764V49.6138ZM154.459 44.7278C154.459 43.7758 154.674 42.9218 155.103 42.1658C155.533 41.4004 156.116 40.8031 156.853 40.3738C157.6 39.9444 158.426 39.7298 159.331 39.7298C160.395 39.7298 161.324 39.9864 162.117 40.4998C162.911 41.0131 163.489 41.7411 163.853 42.6838H162.327C162.057 42.0958 161.665 41.6431 161.151 41.3258C160.647 41.0084 160.041 40.8498 159.331 40.8498C158.65 40.8498 158.039 41.0084 157.497 41.3258C156.956 41.6431 156.531 42.0958 156.223 42.6838C155.915 43.2624 155.761 43.9438 155.761 44.7278C155.761 45.5024 155.915 46.1838 156.223 46.7718C156.531 47.3504 156.956 47.7984 157.497 48.1158C158.039 48.4331 158.65 48.5918 159.331 48.5918C160.041 48.5918 160.647 48.4378 161.151 48.1298C161.665 47.8124 162.057 47.3598 162.327 46.7718H163.853C163.489 47.7051 162.911 48.4284 162.117 48.9418C161.324 49.4458 160.395 49.6978 159.331 49.6978C158.426 49.6978 157.6 49.4878 156.853 49.0678C156.116 48.6384 155.533 48.0458 155.103 47.2898C154.674 46.5338 154.459 45.6798 154.459 44.7278ZM167.024 40.8918V44.1538H170.58V45.2038H167.024V48.5638H171V49.6138H165.75V39.8418H171V40.8918H167.024Z" fill="#B8CEF0"/>
</svg>
