<svg width="193" height="35" viewBox="0 0 193 35" fill="none" xmlns="http://www.w3.org/2000/svg">
<path d="M1.19396 34V28.341L13.1239 17.9451C14.0183 17.1397 14.7795 16.4032 15.4077 15.7355C16.0359 15.0573 16.515 14.3791 16.845 13.7009C17.1751 13.012 17.3401 12.2649 17.3401 11.4595C17.3401 10.5588 17.1432 9.79046 16.7492 9.15462C16.3553 8.50819 15.8123 8.01012 15.1202 7.6604C14.4282 7.31069 13.635 7.13584 12.7406 7.13584C11.8356 7.13584 11.0424 7.32129 10.361 7.6922C9.67962 8.0525 9.14727 8.57707 8.76398 9.2659C8.39133 9.95472 8.20501 10.7919 8.20501 11.7775H0.714844C0.714844 9.56262 1.21525 7.64981 2.21607 6.03902C3.21689 4.42823 4.62229 3.18834 6.43228 2.31936C8.25292 1.43979 10.3663 1 12.7726 1C15.2533 1 17.4093 1.41329 19.2406 2.23988C21.0719 3.06647 22.488 4.22158 23.4888 5.7052C24.5002 7.17823 25.006 8.88969 25.006 10.8396C25.006 12.0795 24.7558 13.3088 24.2554 14.5275C23.755 15.7461 22.8553 17.092 21.5563 18.565C20.2681 20.0381 18.4368 21.8025 16.0625 23.8584L12.1497 27.4509V27.6575H25.4052V34H1.19396Z" fill="#B8CEF0"/>
<path d="M21.1256 28.5954V22.4595L34.5249 1.44509H40.0028V9.77457H36.8246L28.9831 22.1416V22.396H48.3873V28.5954H21.1256ZM36.9204 34V26.7197L37.0801 24.0332V1.44509H44.4745V34H36.9204Z" fill="#B8CEF0"/>
<path d="M59.0649 17.4994C59.0649 20.1031 57.0584 22.2137 54.5832 22.2137C52.1081 22.2137 50.1016 20.1031 50.1016 17.4994C50.1016 14.8958 52.1081 12.7852 54.5832 12.7852C57.0584 12.7852 59.0649 14.8958 59.0649 17.4994Z" fill="#B8CEF0"/>
<path d="M59.0175 34L71.9581 7.63867V7.4292H56.8242V1H79.9794V7.47754L66.9918 34H59.0175Z" fill="#B8CEF0"/>
<path d="M104.726 9.90476H108.651V11.0794H103.262V0.0158728H104.726V9.90476Z" fill="#B8CEF0"/>
<path d="M111.67 0.0158728V11.0794H110.206V0.0158728H111.67Z" fill="#B8CEF0"/>
<path d="M123.431 0.0158728L119.2 11.0794H117.511L113.28 0.0158728H114.84L118.363 9.55556L121.886 0.0158728H123.431Z" fill="#B8CEF0"/>
<path d="M126.5 1.19048V4.88889H130.586V6.07937H126.5V9.88889H131.069V11.0794H125.036V0H131.069V1.19048H126.5Z" fill="#B8CEF0"/>
<path d="M102.715 29.3492C102.715 28.2698 102.962 27.3016 103.455 26.4444C103.948 25.5767 104.618 24.8995 105.466 24.4127C106.324 23.9259 107.273 23.6825 108.313 23.6825C109.536 23.6825 110.603 23.9735 111.514 24.5556C112.426 25.1376 113.091 25.963 113.509 27.0317H111.756C111.445 26.3651 110.994 25.8519 110.404 25.4921C109.825 25.1323 109.128 24.9524 108.313 24.9524C107.53 24.9524 106.828 25.1323 106.206 25.4921C105.584 25.8519 105.096 26.3651 104.742 27.0317C104.388 27.6878 104.211 28.4603 104.211 29.3492C104.211 30.2275 104.388 31 104.742 31.6667C105.096 32.3228 105.584 32.8307 106.206 33.1905C106.828 33.5503 107.53 33.7302 108.313 33.7302C109.128 33.7302 109.825 33.5556 110.404 33.2064C110.994 32.8466 111.445 32.3333 111.756 31.6667H113.509C113.091 32.7249 112.426 33.545 111.514 34.127C110.603 34.6984 109.536 34.9841 108.313 34.9841C107.273 34.9841 106.324 34.746 105.466 34.2698C104.618 33.7831 103.948 33.1111 103.455 32.254C102.962 31.3968 102.715 30.4286 102.715 29.3492Z" fill="#B8CEF0"/>
<path d="M120.772 35C119.732 35 118.783 34.7619 117.925 34.2857C117.067 33.7989 116.386 33.127 115.882 32.2698C115.388 31.4021 115.141 30.4286 115.141 29.3492C115.141 28.2698 115.388 27.3016 115.882 26.4444C116.386 25.5767 117.067 24.9048 117.925 24.4286C118.783 23.9418 119.732 23.6984 120.772 23.6984C121.823 23.6984 122.778 23.9418 123.635 24.4286C124.493 24.9048 125.169 25.5714 125.662 26.4286C126.156 27.2857 126.402 28.2593 126.402 29.3492C126.402 30.4392 126.156 31.4127 125.662 32.2698C125.169 33.127 124.493 33.7989 123.635 34.2857C122.778 34.7619 121.823 35 120.772 35ZM120.772 33.746C121.555 33.746 122.257 33.5661 122.879 33.2064C123.512 32.8466 124.005 32.3333 124.359 31.6667C124.724 31 124.906 30.2275 124.906 29.3492C124.906 28.4603 124.724 27.6878 124.359 27.0317C124.005 26.3651 123.518 25.8519 122.895 25.4921C122.273 25.1323 121.566 24.9524 120.772 24.9524C119.978 24.9524 119.271 25.1323 118.648 25.4921C118.026 25.8519 117.533 26.3651 117.168 27.0317C116.815 27.6878 116.638 28.4603 116.638 29.3492C116.638 30.2275 116.815 31 117.168 31.6667C117.533 32.3333 118.026 32.8466 118.648 33.2064C119.281 33.5661 119.989 33.746 120.772 33.746Z" fill="#B8CEF0"/>
<path d="M137.151 34.8889H135.687L129.799 26.0794V34.8889H128.335V23.8095H129.799L135.687 32.6032V23.8095H137.151V34.8889Z" fill="#B8CEF0"/>
<path d="M148.14 27.0317C147.829 26.3862 147.379 25.8889 146.789 25.5397C146.199 25.1799 145.513 25 144.73 25C143.947 25 143.239 25.1799 142.606 25.5397C141.984 25.8889 141.491 26.3968 141.126 27.0635C140.772 27.7196 140.595 28.4815 140.595 29.3492C140.595 30.2169 140.772 30.9788 141.126 31.6349C141.491 32.291 141.984 32.7989 142.606 33.1587C143.239 33.5079 143.947 33.6825 144.73 33.6825C145.824 33.6825 146.725 33.3598 147.432 32.7143C148.14 32.0688 148.553 31.1958 148.671 30.0952H144.199V28.9206H150.232V30.0317C150.146 30.9418 149.856 31.7778 149.363 32.5397C148.87 33.291 148.221 33.8889 147.416 34.3333C146.612 34.7672 145.716 34.9841 144.73 34.9841C143.69 34.9841 142.74 34.746 141.882 34.2698C141.024 33.7831 140.343 33.1111 139.839 32.254C139.346 31.3968 139.099 30.4286 139.099 29.3492C139.099 28.2698 139.346 27.3016 139.839 26.4444C140.343 25.5767 141.024 24.9048 141.882 24.4286C142.74 23.9418 143.69 23.6984 144.73 23.6984C145.92 23.6984 146.971 23.9894 147.883 24.5714C148.805 25.1534 149.475 25.9735 149.894 27.0317H148.14Z" fill="#B8CEF0"/>
<path d="M153.631 23.8254V34.8889H152.167V23.8254H153.631Z" fill="#B8CEF0"/>
<path d="M157.59 25V28.6984H161.676V29.8889H157.59V33.6984H162.159V34.8889H156.126V23.8095H162.159V25H157.59Z" fill="#B8CEF0"/>
<path d="M170.278 34.8889L167.607 30.3651H165.838V34.8889H164.374V23.8254H167.994C168.841 23.8254 169.554 23.9683 170.133 24.254C170.723 24.5397 171.163 24.9259 171.452 25.4127C171.742 25.8995 171.887 26.455 171.887 27.0794C171.887 27.8413 171.661 28.5132 171.211 29.0952C170.771 29.6772 170.106 30.0635 169.216 30.254L172.031 34.8889H170.278ZM165.838 29.2064H167.994C168.787 29.2064 169.382 29.0159 169.779 28.6349C170.176 28.2434 170.374 27.7249 170.374 27.0794C170.374 26.4233 170.176 25.9153 169.779 25.5556C169.393 25.1958 168.798 25.0159 167.994 25.0159H165.838V29.2064Z" fill="#B8CEF0"/>
<path d="M182.655 27.0317C182.344 26.3862 181.894 25.8889 181.304 25.5397C180.714 25.1799 180.028 25 179.245 25C178.462 25 177.754 25.1799 177.121 25.5397C176.499 25.8889 176.006 26.3968 175.641 27.0635C175.287 27.7196 175.11 28.4815 175.11 29.3492C175.11 30.2169 175.287 30.9788 175.641 31.6349C176.006 32.291 176.499 32.7989 177.121 33.1587C177.754 33.5079 178.462 33.6825 179.245 33.6825C180.339 33.6825 181.24 33.3598 181.947 32.7143C182.655 32.0688 183.068 31.1958 183.186 30.0952H178.714V28.9206H184.747V30.0317C184.661 30.9418 184.371 31.7778 183.878 32.5397C183.385 33.291 182.736 33.8889 181.931 34.3333C181.127 34.7672 180.231 34.9841 179.245 34.9841C178.204 34.9841 177.255 34.746 176.397 34.2698C175.539 33.7831 174.858 33.1111 174.354 32.254C173.861 31.3968 173.614 30.4286 173.614 29.3492C173.614 28.2698 173.861 27.3016 174.354 26.4444C174.858 25.5767 175.539 24.9048 176.397 24.4286C177.255 23.9418 178.204 23.6984 179.245 23.6984C180.435 23.6984 181.486 23.9894 182.398 24.5714C183.32 25.1534 183.99 25.9735 184.409 27.0317H182.655Z" fill="#B8CEF0"/>
<path d="M188.146 25V28.6984H192.232V29.8889H188.146V33.6984H192.715V34.8889H186.682V23.8095H192.715V25H188.146Z" fill="#B8CEF0"/>
</svg>
