<svg width="88" height="19" viewBox="0 0 88 19" fill="none" xmlns="http://www.w3.org/2000/svg">
<path d="M10.4523 18.815L4.39152 10.6231V18.815H0V0.264256H4.39152V8.40334L10.401 0.264256H15.5629L8.5776 9.35466L15.8198 18.815H10.4523Z" fill="white"/>
<path d="M26.433 19C24.738 19 23.18 18.5948 21.759 17.7844C20.3551 16.974 19.2336 15.8465 18.3947 14.4019C17.5729 12.9397 17.162 11.3013 17.162 9.48679C17.162 7.67223 17.5729 6.04265 18.3947 4.59805C19.2336 3.15345 20.3551 2.02596 21.759 1.21558C23.18 0.405192 24.738 0 26.433 0C28.128 0 29.6774 0.405192 31.0813 1.21558C32.5024 2.02596 33.6152 3.15345 34.4199 4.59805C35.2417 6.04265 35.6526 7.67223 35.6526 9.48679C35.6526 11.3013 35.2417 12.9397 34.4199 14.4019C33.5981 15.8465 32.4853 16.974 31.0813 17.7844C29.6774 18.5948 28.128 19 26.433 19ZM26.433 14.8776C27.8712 14.8776 29.0183 14.3843 29.8743 13.3978C30.7475 12.4112 31.1841 11.1076 31.1841 9.48679C31.1841 7.8484 30.7475 6.54474 29.8743 5.5758C29.0183 4.58924 27.8712 4.09597 26.433 4.09597C24.9777 4.09597 23.8135 4.58043 22.9403 5.54937C22.0843 6.51831 21.6563 7.83078 21.6563 9.48679C21.6563 11.1252 22.0843 12.4376 22.9403 13.4242C23.8135 14.3931 24.9777 14.8776 26.433 14.8776Z" fill="white"/>
<path d="M53.556 0.264256L47.3154 12.6843V18.815H42.9239V12.6843L36.6833 0.264256H41.6655L45.1582 8.03338L48.6252 0.264256H53.556Z" fill="white"/>
<path d="M66.5482 15.5382H59.8197L58.741 18.815H54.1441L60.6671 0.264256H65.7521L72.2751 18.815H67.6268L66.5482 15.5382ZM65.4182 12.0501L63.1839 5.25869L60.9753 12.0501H65.4182Z" fill="white"/>
<path d="M88 6.23644C88 7.31108 87.7603 8.29764 87.2809 9.19611C86.8015 10.077 86.0653 10.7904 85.0723 11.3366C84.0793 11.8827 82.8466 12.1558 81.3742 12.1558H78.652V18.815H74.2604V0.264256H81.3742C82.8123 0.264256 84.0279 0.519703 85.021 1.0306C86.014 1.54149 86.7587 2.24617 87.2552 3.14464C87.7517 4.04311 88 5.07371 88 6.23644ZM81.0403 8.56189C81.8793 8.56189 82.5042 8.35929 82.9151 7.9541C83.326 7.54891 83.5314 6.97636 83.5314 6.23644C83.5314 5.49652 83.326 4.92397 82.9151 4.51878C82.5042 4.11358 81.8793 3.91099 81.0403 3.91099H78.652V8.56189H81.0403Z" fill="white"/>
</svg>
