<svg width="391" height="592" viewBox="0 0 391 592" fill="none" xmlns="http://www.w3.org/2000/svg">
<g clip-path="url(#clip0_175_1463)">
<rect width="391" height="755" fill="#1FEDED"/>
<path d="M111 315.716L354 287.297V542.117L131 532.644L111 315.716Z" fill="#17B2B2"/>
<path d="M-90 339.398L153 367.816V622.636H-90V339.398Z" fill="#48E7E7"/>
<ellipse rx="223.099" ry="33.2211" transform="matrix(0.98416 0.177282 -0.196816 0.98044 132.103 605.714)" fill="#8FF6F6"/>
<rect x="70" y="38" width="264" height="159" rx="30" fill="white"/>
<rect x="148" y="243" width="46" height="31.2604" rx="15.6302" fill="white"/>
<rect x="189" y="293" width="31" height="29.3658" rx="14.6829" fill="white"/>
<rect x="202" y="219" width="15" height="14.2093" rx="7.10463" fill="white"/>
<rect x="125" y="56" width="159" height="12" rx="6" fill="#2B69C5"/>
<rect x="125" y="161" width="92" height="12" rx="6" fill="#2B69C5"/>
<rect x="125" y="109" width="159" height="12" rx="6" fill="#FDAB5F"/>
<rect x="125" y="74" width="92" height="12" rx="6" fill="#2B69C5"/>
<rect x="204" y="127" width="80" height="12" rx="6" fill="#FDAB5F"/>
<rect x="87" y="55.9521" width="30" height="30" rx="15" fill="#2B69C5"/>
<path d="M99.3735 72.4808C101.414 75.0019 106.387 77.4178 107.588 76.8751C108.788 76.3324 109.045 75.1594 108.994 74.6167C108.942 74.074 106.216 72.4109 105.53 72.0957C104.844 71.7806 104.055 72.7959 103.678 73.2336C103.283 73.6538 101.774 72.3757 101.123 71.7279C101.123 71.7279 99.4078 69.7672 99.8022 69.347C100.197 68.9267 101.174 68.0864 100.831 67.4036C100.488 66.721 98.7564 63.9897 98.2076 63.9547C97.676 63.9197 96.5441 64.2349 96.064 65.4778C95.5838 66.7209 97.8817 71.4653 100.437 73.4436" fill="white"/>
<rect x="87" y="152" width="30" height="30" rx="15" fill="#2B69C5"/>
<path d="M99.3735 168.529C101.414 171.05 106.387 173.466 107.588 172.923C108.788 172.38 109.045 171.207 108.994 170.665C108.942 170.122 106.216 168.459 105.53 168.144C104.844 167.828 104.055 168.844 103.678 169.281C103.283 169.702 101.774 168.424 101.123 167.776C101.123 167.776 99.4078 165.815 99.8022 165.395C100.197 164.975 101.174 164.134 100.831 163.451C100.488 162.769 98.7564 160.038 98.2076 160.003C97.676 159.968 96.5441 160.283 96.064 161.526C95.5838 162.769 97.8817 167.513 100.437 169.491" fill="white"/>
<rect x="292" y="109" width="30" height="30" rx="15" fill="#FDAB5F"/>
<path d="M304.373 125.529C306.414 128.05 311.387 130.466 312.588 129.923C313.788 129.38 314.045 128.207 313.994 127.665C313.942 127.122 311.216 125.459 310.53 125.144C309.844 124.828 309.055 125.844 308.678 126.281C308.283 126.702 306.774 125.424 306.123 124.776C306.123 124.776 304.408 122.815 304.802 122.395C305.197 121.975 306.174 121.134 305.831 120.451C305.488 119.769 303.756 117.038 303.208 117.003C302.676 116.968 301.544 117.283 301.064 118.526C300.584 119.769 302.882 124.513 305.437 126.491" fill="white"/>
<path d="M151.216 464.387C152.684 468.657 160.051 476.439 167.221 483.262H167.275C174.636 490.267 181.738 496.225 181.738 496.225C181.738 496.225 195.229 511.087 198.79 509.736C202.351 508.385 199.103 486.302 199.103 486.302C199.103 486.302 197.009 481.303 197.009 478.195C197.009 475.088 209.005 427.895 209.005 427.895C209.005 427.895 201.672 375.203 199.341 375.203C197.009 375.203 193.448 376.716 193.448 376.716L155.436 405.014C155.436 405.014 152.555 425.199 151.195 442.25C150.407 452.275 150.122 461.185 151.216 464.387Z" fill="url(#paint0_linear_175_1463)"/>
<path style="mix-blend-mode:multiply" opacity="0.91" fill-rule="evenodd" clip-rule="evenodd" d="M151.216 464.387C152.684 468.656 160.051 476.439 167.221 483.262L158.882 474.858L185.191 469.028L201.583 431.725L194.719 407.824L170.313 429.759L151.195 442.31C150.407 452.275 150.122 461.185 151.216 464.387Z" fill="url(#paint1_linear_175_1463)"/>
<path d="M197.004 478.236C197.004 478.236 187.407 475.621 185.783 466.076C184.158 456.531 200.014 433.745 200.014 433.745V430.624C200.014 430.624 194.883 416.127 196.208 406.473L198.614 400.008L211.922 435.812C211.922 435.812 199.294 463.975 197.004 478.236Z" fill="url(#paint2_linear_175_1463)"/>
<path fill-rule="evenodd" clip-rule="evenodd" d="M157.291 366.135L157.169 366.63L153.087 387.906L152.297 392.159L152.177 392.845L148.42 412.272L146.354 423.043L146.045 424.74L144.046 435.092L140.878 451.621L140.916 451.699L142.499 454.448L147.67 455.001L163.966 456.757L173.713 457.768L186.288 459.129L186.378 458.939L186.34 458.862L188.968 445.882L190.436 438.544L190.526 438.355L191.888 431.359L191.85 431.281L192.372 428.996C192.372 428.996 192.299 429.032 192.334 428.918L195.392 413.651L195.353 413.573L196.172 409.935C196.133 409.857 196.133 409.857 196.133 409.857L196.844 406.465L196.805 406.388L198.257 399.202L200.795 386.412L200.918 385.917C200.918 385.917 200.918 385.917 200.953 385.803L201.194 384.526L202.321 379.191L202.769 376.846L203.321 374.063L203.08 372.829L202.228 369.334L201.783 369.36L194.736 368.811L192.487 368.707L189.735 368.512L182.986 368.01L178.617 367.692L170.585 367.095L163.24 366.499L163.017 366.512L157.291 366.135Z" fill="url(#paint3_linear_175_1463)"/>
<path fill-rule="evenodd" clip-rule="evenodd" d="M201.823 369.436L201.791 369.741L201.062 373.19L200.321 376.984L200.359 377.062L199.684 380.339L198.785 384.742L198.528 386.172L196.228 397.493L194.863 404.297L193.69 410.283L193.31 412.208L192.878 414.305L190.887 423.928L190.039 428.064L189.782 429.494L187.225 442.245L187.105 442.932L184.548 455.683L177.016 454.986L168.367 454.16L149.063 452.432L140.935 451.64L142.518 454.389L147.69 454.942L163.985 456.698L173.732 457.709L186.308 459.07L186.398 458.881L186.359 458.803L189.006 445.863L188.968 445.785L190.436 438.446L190.526 438.257L191.888 431.261L191.85 431.183L192.373 428.898C192.373 428.898 192.299 428.934 192.334 428.82L195.392 413.553L196.172 409.837C196.134 409.76 196.134 409.76 196.134 409.76L196.844 406.368L196.806 406.29L198.258 399.105L200.796 386.314L200.918 385.82C200.918 385.82 200.918 385.82 200.954 385.706L201.194 384.428L202.321 379.093L202.769 376.748L203.321 373.965L203.08 372.731L202.229 369.237L201.823 369.436Z" fill="url(#paint4_linear_175_1463)"/>
<path fill-rule="evenodd" clip-rule="evenodd" d="M143.05 449.344L182.335 453.338L198.214 374.297L181.086 372.804L158.026 370.794L143.978 444.348L143.05 449.344Z" fill="url(#paint5_linear_175_1463)"/>
<path fill-rule="evenodd" clip-rule="evenodd" d="M178.153 371.397C178.673 371.431 179.132 371.061 179.179 370.506L179.193 370.162C179.203 369.625 178.824 369.135 178.285 369.062C177.764 369.028 177.306 369.398 177.258 369.952L177.245 370.297C177.197 370.852 177.632 371.363 178.153 371.397Z" fill="url(#paint6_linear_175_1463)"/>
<path opacity="0.13" fill-rule="evenodd" clip-rule="evenodd" d="M143.98 444.349C154.67 433.98 171.633 394.884 181.052 372.823L158.011 370.852L143.98 444.349Z" fill="url(#paint7_linear_175_1463)"/>
<path d="M143.514 479.931L96.1459 493.389L104.388 606.658L69.7773 603.163L48.7773 506.846L37.5391 390.882L77.8618 330.198L106.529 316.633L144.996 323.044C144.996 323.044 164.27 358.071 161.124 400.008C157.977 441.946 150.086 473.392 143.514 479.931Z" fill="url(#paint8_linear_175_1463)"/>
<path d="M70.3066 429.759C70.3066 429.759 76.0971 457.977 73.7796 477.047C73.7796 477.047 107.863 508.291 122.088 508.291C136.313 508.291 129.041 481.323 129.041 481.323C129.041 481.323 114.34 476.432 108.223 470.312C102.107 464.191 100.632 446.877 100.632 446.877L70.3066 429.759Z" fill="url(#paint9_linear_175_1463)"/>
<path d="M67.4978 422.842C67.9192 424.193 68.3134 425.497 68.6736 426.645C72.031 437.096 99.2231 449.863 115.018 454.957C115.643 455.139 116.248 455.322 116.826 455.504C118.51 455.958 120.225 456.29 121.957 456.497C125.627 457.017 129.684 457.247 130.969 456.835C132.96 456.159 137.024 448.526 141.843 443.79C146.662 439.055 157.352 426.267 157.352 418.505C157.352 414.6 155.803 410.398 154.233 406.453C152.663 402.508 151.113 398.901 151.011 396.063C150.536 383.073 155.884 366.225 155.884 362.286C155.884 361.246 155.041 358.091 153.288 353.903C153.03 353.275 152.738 352.599 152.452 351.876C152.452 351.876 152.452 351.822 152.398 351.802C147.056 340.027 135.658 322.186 117.451 316.883C108.42 315.313 99.15 315.759 90.3131 318.187L68.6736 347.708C68.6736 347.708 63.753 384.579 67.0764 397.914C69.065 406.091 69.2089 414.603 67.4978 422.842Z" fill="url(#paint10_linear_175_1463)"/>
<path style="mix-blend-mode:multiply" opacity="0.8" fill-rule="evenodd" clip-rule="evenodd" d="M67.499 422.842C67.9203 424.193 68.3145 425.497 68.6747 426.645C72.0321 437.096 99.2243 449.863 115.019 454.957L121.958 456.497C121.958 456.497 88.9142 443.783 82.3966 421.491C76.5653 401.623 85.5025 387.464 85.5025 387.464C99.0476 395.719 118.805 398.367 118.805 398.367C120.979 388.761 118.805 352.93 118.805 352.93L95.697 358.166C97.2466 348.141 102.588 335.616 102.588 335.616C116.956 325.503 129.427 328.266 129.427 328.266C141.11 333.063 149.544 346.756 152.345 351.836C147.057 340.027 135.659 322.186 117.452 316.883C108.421 315.313 99.1512 315.759 90.3143 318.187L68.6747 347.708C68.6747 347.708 63.659 386.68 66.9892 400.009C70.3194 413.337 67.499 422.842 67.499 422.842Z" fill="url(#paint11_linear_175_1463)"/>
<path d="M21.3725 429.732L21.5017 432.231L21.923 440.905L21.9978 442.52C23.3095 468.528 24.9814 495.793 25.8785 509.587C25.9533 511.047 26.0348 512.29 26.1096 513.472L30.8898 606.658L56.1019 598.502V550.732V387.234C56.1019 387.234 86.4136 353.389 91.4972 345.236C94.9769 339.75 101.427 329.354 105.219 323.287C106.137 321.855 106.633 321.024 106.633 321.024C107.605 319.464 108.182 318.525 108.182 318.525C108.182 318.525 126.988 320.605 130.447 323.341C130.447 323.341 151.38 339.25 155.831 362.266C160.283 385.282 161.88 437.251 143.516 479.931H149.463C149.463 479.931 167.351 417.775 161.914 374.345C156.477 330.914 142.68 313.006 139.486 309.804C136.292 306.602 110.357 313.107 97.9401 314.755C85.5232 316.404 62.6875 318.187 52.0988 323.47C41.5101 328.752 22.8134 368.852 20.5026 380.674C19.6395 385.126 20.2715 405.723 21.3725 429.732Z" fill="url(#paint12_linear_175_1463)"/>
<path d="M77.8702 362.333C77.8702 362.333 70.3059 382.492 70.3059 398.279L68.6748 400.008C68.6748 400.008 61.9328 393.016 56.1016 387.227L77.8702 362.333Z" fill="url(#paint13_linear_175_1463)"/>
<path fill-rule="evenodd" clip-rule="evenodd" d="M149.939 478.236L151.849 498.286L152.291 503.102L153.181 512.499L188.42 553.43C188.42 553.43 191.438 555.518 195.944 558.584C207.226 566.245 227.839 580.04 234.635 583.039C244.062 587.227 260.38 590.328 260.38 590.328L198.112 511.513C192.396 508.932 184.879 504.197 177.519 499.09C163.478 489.328 149.939 478.236 149.939 478.236Z" fill="#2B3579"/>
<path fill-rule="evenodd" clip-rule="evenodd" d="M181.766 496.279C182.051 496.671 185.007 500.576 189.242 506.25C198.988 519.45 215.36 542.182 219.968 552.187C219.968 552.187 233.119 575.358 249.987 586.221C249.987 586.221 266.203 593.456 273.985 593.456C276.942 593.456 284.458 564.556 272.279 541.541C270.895 538.85 269.247 536.302 267.359 533.934C267.359 533.934 211.024 501.387 199.103 486.342C199.103 486.342 199.341 499.752 196.194 502.873C193.048 505.994 182.391 496.8 181.766 496.279Z" fill="url(#paint14_linear_175_1463)"/>
<path d="M155.524 360.793L148.558 364.239L140.783 375.919C140.783 375.919 145.853 359.638 153.37 353.734C153.37 353.734 155.524 356.166 155.524 360.793Z" fill="url(#paint15_linear_175_1463)"/>
<path d="M155.524 360.793L148.558 364.239L140.783 375.919C140.783 375.919 145.853 359.638 153.37 353.734C153.37 353.734 155.524 356.166 155.524 360.793Z" fill="url(#paint16_linear_175_1463)"/>
<path d="M118.798 352.937L113.904 362.617V360.591C113.904 360.591 98.6806 361.361 94.8747 362.617C91.0687 363.874 85.9375 367.197 85.9375 367.197C85.9375 367.197 92.8494 359.489 95.6495 358.172C98.4496 356.855 118.798 352.937 118.798 352.937Z" fill="url(#paint17_linear_175_1463)"/>
<path d="M118.798 352.937L113.904 362.617V360.591C113.904 360.591 98.6806 361.361 94.8747 362.617C91.0687 363.874 85.9375 367.197 85.9375 367.197C85.9375 367.197 92.8494 359.489 95.6495 358.172C98.4496 356.855 118.798 352.937 118.798 352.937Z" fill="url(#paint18_linear_175_1463)"/>
<path d="M88.9277 383.66L89.6074 387.207C89.6074 387.207 100.346 396.138 114.992 393.685C114.992 393.685 115.23 392.618 115.44 390.929C115.936 386.633 116.331 378.195 112.531 372.311C110.996 372.103 109.445 372.033 107.896 372.102C104.382 372.149 100.928 373.015 97.8106 374.628C93.985 376.659 90.8829 379.813 88.9277 383.66Z" fill="url(#paint19_linear_175_1463)"/>
<path d="M138.045 392.368C138.045 394.395 142.028 399.914 144.671 400.88C147.315 401.846 150.482 400.88 150.482 400.88L150.645 399.238C151.508 389.551 151.454 379.296 151.454 379.296C150.292 379.192 149.122 379.226 147.968 379.398C145.994 379.619 144.142 380.459 142.68 381.796C141.083 383.41 138.045 390.308 138.045 392.368Z" fill="url(#paint20_linear_175_1463)"/>
<path d="M103.676 381.276C103.676 387.133 107.393 391.868 111.981 391.868C113.192 391.865 114.378 391.534 115.413 390.909C115.909 386.612 116.303 378.175 112.504 372.291C110.969 372.083 109.417 372.013 107.869 372.082C105.354 373.879 103.676 377.344 103.676 381.276Z" fill="url(#paint21_linear_175_1463)"/>
<path d="M106.633 381.451C106.633 385.788 109.351 389.294 112.75 389.294C113.643 389.303 114.522 389.07 115.291 388.619C115.658 385.437 115.971 379.161 113.137 374.838C112.011 374.686 110.874 374.634 109.739 374.682C107.87 375.98 106.633 378.547 106.633 381.451Z" fill="#522F30"/>
<path d="M145.352 388.666C145.352 394.523 147.628 399.265 150.483 399.265C150.536 399.278 150.592 399.278 150.646 399.265C151.509 389.578 152.542 379.324 152.542 379.324C151.017 379.223 149.487 379.257 147.968 379.425C146.398 381.222 145.352 384.687 145.352 388.666Z" fill="url(#paint22_linear_175_1463)"/>
<path d="M147.193 388.389C147.193 392.388 148.75 395.624 150.7 395.624C150.736 395.634 150.773 395.634 150.809 395.624C151.4 389.011 152.107 382.005 152.107 382.005C151.067 381.935 150.023 381.957 148.988 382.073C147.914 383.322 147.193 385.687 147.193 388.389Z" fill="#522F30"/>
<path fill-rule="evenodd" clip-rule="evenodd" d="M115.277 391.868V394.091L115.549 396.036C115.549 396.036 100.597 395.935 89.5801 387.187C89.5801 387.187 98.1639 393.665 114.964 393.665L115.277 391.868Z" fill="#D2726C"/>
<path fill-rule="evenodd" clip-rule="evenodd" d="M150.644 399.238L150.875 402.65C148.197 402.602 145.594 401.763 143.398 400.238C141.203 398.714 139.514 396.573 138.547 394.091C138.547 394.091 140.783 400.008 149.904 400.684L150.644 399.238Z" fill="#D2726C"/>
<path d="M114.869 378.053L120.266 374H115.1L113.571 369.548C113.571 369.548 95.7852 369.008 88.9141 383.66C88.9141 383.66 95.6153 373.136 112.987 373.136C113.798 374.699 114.429 376.349 114.869 378.053Z" fill="#522F30"/>
<path d="M151.401 384.714L156.335 381.424H153.868L153.345 375.919C149.65 375.913 146.075 377.222 143.266 379.607C139.188 383.113 138.053 391.902 138.053 391.902C138.752 387.874 140.881 384.228 144.054 381.627C147.051 379.229 151.469 379.33 151.469 379.33L151.401 384.714Z" fill="#522F30"/>
<path d="M101.57 383.079C101.572 383.493 101.696 383.898 101.929 384.241C102.161 384.585 102.491 384.852 102.876 385.009C103.261 385.167 103.684 385.207 104.092 385.126C104.501 385.044 104.875 384.844 105.169 384.551C105.463 384.258 105.663 383.885 105.744 383.479C105.825 383.073 105.783 382.652 105.623 382.27C105.463 381.887 105.193 381.561 104.847 381.331C104.501 381.101 104.094 380.979 103.677 380.979C103.4 380.979 103.125 381.033 102.869 381.139C102.613 381.244 102.381 381.399 102.185 381.594C101.989 381.789 101.834 382.021 101.729 382.276C101.623 382.531 101.569 382.804 101.57 383.079Z" fill="#F5F5F5"/>
<path d="M142.883 389.294C142.883 389.654 142.99 390.005 143.191 390.304C143.392 390.603 143.677 390.836 144.011 390.973C144.345 391.111 144.713 391.147 145.068 391.077C145.422 391.006 145.748 390.833 146.004 390.579C146.259 390.325 146.434 390.001 146.504 389.649C146.575 389.296 146.538 388.931 146.4 388.599C146.262 388.267 146.027 387.983 145.727 387.783C145.426 387.584 145.073 387.477 144.711 387.477C144.226 387.477 143.761 387.669 143.418 388.009C143.075 388.35 142.883 388.812 142.883 389.294Z" fill="#F5F5F5"/>
<path fill-rule="evenodd" clip-rule="evenodd" d="M148.946 411.27C144.731 411.868 140.452 411.868 136.237 411.27C129.121 410.283 129.441 408.973 129.441 408.973L121.965 410.945L126.097 411.709C126.097 411.709 131.201 417.356 135.476 418.18C135.408 418.18 144.033 416.897 148.946 411.27Z" fill="#D2726C"/>
<path d="M129.42 414.863C129.42 414.863 126.885 410.371 126.056 410.371C125.032 410.527 124.027 410.79 123.059 411.155C123.059 411.155 127.075 412.533 129.42 414.863Z" fill="#A64A4C"/>
<g style="mix-blend-mode:soft-light" opacity="0.6">
<path d="M108.224 318.525L96.0446 317.458C96.0446 317.458 62.8105 350.289 48.5586 385.187L56.1025 387.247C56.1025 387.247 94.9572 347.141 108.224 318.525Z" fill="#FFF1B6"/>
</g>
<g style="mix-blend-mode:soft-light" opacity="0.6">
<path d="M56.0121 421.058L56.1005 487.362L39.9863 503.319L50.4527 416.343L56.0121 421.058Z" fill="#FFF1B6"/>
</g>
<path fill-rule="evenodd" clip-rule="evenodd" d="M137.799 431.475C138.434 434.27 138.434 437.171 137.799 439.966C137.799 439.966 127.829 438.757 122.996 435.778C116.982 432.076 110.824 420.079 110.824 420.079C110.824 420.079 119.483 427.057 122.113 427.868C124.743 428.678 137.799 431.475 137.799 431.475Z" fill="#D2726C"/>
<path fill-rule="evenodd" clip-rule="evenodd" d="M138.207 433.454C138.207 433.454 140.783 428.644 140.783 427.253C137.504 426.209 134.141 425.45 130.731 424.983C125.817 424.402 120.128 424.652 118.253 424.267C116.377 423.882 110.824 420.079 110.824 420.079C110.824 420.079 116.207 425.659 122.113 427.868C125.62 429.178 137.799 431.475 137.799 431.475L138.207 433.454Z" fill="#B14D63"/>
<path style="mix-blend-mode:multiply" opacity="0.5" fill-rule="evenodd" clip-rule="evenodd" d="M116.098 419.511C116.098 419.511 107.942 419.95 105.781 422.112C107.416 419.929 109.792 418.409 112.469 417.836L116.098 419.511Z" fill="url(#paint23_linear_175_1463)"/>
<path style="mix-blend-mode:multiply" opacity="0.8" fill-rule="evenodd" clip-rule="evenodd" d="M140.789 375.912C138.396 381.714 136.887 387.839 136.311 394.084C142.652 405.933 154.178 406.453 154.178 406.453C152.635 402.548 151.059 398.9 150.957 396.063C150.481 383.073 155.83 366.225 155.83 362.286C155.83 361.246 154.987 358.091 153.233 353.903C152.241 355.342 144.561 366.508 140.789 375.912Z" fill="url(#paint24_linear_175_1463)"/>
<path style="mix-blend-mode:multiply" opacity="0.91" fill-rule="evenodd" clip-rule="evenodd" d="M100.911 449.573L102.882 459.463C102.882 459.463 80.5487 456.679 70.6736 431.658L70.3066 429.759C70.3066 429.759 80.2293 441.574 100.911 449.573Z" fill="url(#paint25_linear_175_1463)"/>
<path fill-rule="evenodd" clip-rule="evenodd" d="M108.221 318.525C108.221 318.525 134.387 317.539 140.843 319.511C147.3 321.484 154.952 358.301 154.952 358.301C154.952 358.301 140.068 329.928 132.375 324.882C124.681 319.835 108.221 318.525 108.221 318.525Z" fill="url(#paint26_linear_175_1463)"/>
<g style="mix-blend-mode:multiply" opacity="0.5">
<path fill-rule="evenodd" clip-rule="evenodd" d="M21.3711 429.732L21.5002 432.231L21.9216 440.905L21.9964 442.52L34.5696 405.048L34.3113 420.052L25.714 506.933L25.8771 509.635L26.1081 513.519L26.448 518.829L41.1688 424.807L47.2244 426.76L35.0317 508.297L39.9863 503.318L56.1004 431.421V387.234C56.1004 387.234 86.4121 353.389 91.4958 345.236C94.9755 339.75 101.425 329.354 105.218 323.287C101.425 329.252 90.4219 345.83 77.8691 358.307C62.2851 373.797 51.4381 381.168 51.4381 381.168V376.77L82.9528 328.942L48.3526 374.635L40.0203 383.073L41.9028 369.474L46.0146 353.855C43.4524 363.394 31.2938 407.676 21.3711 429.732Z" fill="url(#paint27_linear_175_1463)" style="mix-blend-mode:multiply"/>
<path fill-rule="evenodd" clip-rule="evenodd" d="M21.3711 429.732L21.5002 432.231L21.9216 440.905L21.9964 442.52L34.5696 405.048L34.3113 420.052L25.714 506.933L25.8771 509.635L26.1081 513.519L26.448 518.829L41.1688 424.807L47.2244 426.76L35.0317 508.297L39.9863 503.318L56.1004 431.421V387.234C56.1004 387.234 86.4121 353.389 91.4958 345.236C94.9755 339.75 101.425 329.354 105.218 323.287C101.425 329.252 90.4219 345.83 77.8691 358.307C62.2851 373.797 51.4381 381.168 51.4381 381.168V376.77L82.9528 328.942L48.3526 374.635L40.0203 383.073L41.9028 369.474L46.0146 353.855C43.4524 363.394 31.2938 407.676 21.3711 429.732Z" fill="url(#paint28_linear_175_1463)"/>
</g>
<path d="M70.3052 419.991C70.3052 419.991 65.5885 425.395 63.1079 425.395C60.6272 425.395 45.383 412.627 43.9965 409.608C39.6944 400.231 43.2218 387.261 43.9965 386.491C44.7713 385.721 51.0715 384.694 51.0715 384.694C51.0715 384.694 62.2379 388.889 67.0769 397.894C67.0769 397.914 70.3052 410.216 70.3052 419.991Z" fill="url(#paint29_linear_175_1463)"/>
<path style="mix-blend-mode:multiply" opacity="0.8" fill-rule="evenodd" clip-rule="evenodd" d="M63.4336 408.973C63.4336 408.973 59.2199 394.422 50.2827 390.267C50.2827 390.267 44.6621 395.807 44.6621 399.265C44.6621 402.724 46.9729 410.371 46.9729 410.371L57.2489 417.836C57.2489 417.836 49.97 411.932 48.3117 408.973C46.6534 406.014 46.4903 399.353 46.4903 399.353L50.0516 396.556C49.1804 398.97 49.1231 401.599 49.8885 404.048C51.1254 408.392 59.1111 414.857 59.1111 414.857H61.7141C61.7141 414.857 57.9625 407.588 59.1111 406.439C60.2597 405.291 63.4336 408.973 63.4336 408.973Z" fill="url(#paint30_linear_175_1463)"/>
<g style="mix-blend-mode:soft-light" opacity="0.6">
<path d="M93.2016 317.458L80.3973 331.515V327.895L52.7633 330.036L44.6621 330.712C46.9631 327.688 49.7812 325.09 52.9876 323.037C57.9286 320.085 93.2016 317.458 93.2016 317.458Z" fill="#FFF1B6"/>
</g>
<g style="mix-blend-mode:soft-light" opacity="0.6">
<path d="M108.222 318.525C108.222 318.525 137.304 317.572 141.599 319.937C145.894 322.301 158.909 356.321 158.909 356.321C158.909 356.321 150.067 314.539 138.045 308C138.045 308 117.173 309.182 98.9316 316.633L108.222 318.525Z" fill="#FFF1B6"/>
</g>
<path fill-rule="evenodd" clip-rule="evenodd" d="M-17.0891 605.142C-9.88498 614.891 1.26103 629.374 12.7197 642H64.8068C66.5785 637.113 67.8735 632.068 68.674 626.935C72.2896 603.501 68.674 571.372 68.674 571.372L72.7925 563.793C72.7925 563.793 74.7839 566.137 78.0053 570.359C85.7532 580.566 100.61 601.785 111.505 627.429L109.017 630.131L119.443 641.25C119.443 641.25 119.823 641.527 120.51 641.993H188.038C189.431 639.891 190.404 637.543 190.906 635.076C190.906 635.076 192.898 623.983 191.661 622.734C190.424 621.484 181.867 621.876 181.867 621.876C182.261 620.734 194.046 587.119 195.935 558.605C196.366 552.941 196.25 547.25 195.589 541.608L173.297 522.693L168.791 518.863L167.486 516.836L157.291 500.799L149.938 478.236C149.938 478.236 132.594 477.405 119.497 474.385C115.045 473.365 111.09 472.095 108.467 470.501L108.575 470.609L120.285 478.546C124.593 486.022 126.382 494.672 125.389 503.231C125.356 503.235 125.321 503.235 125.288 503.231C123.215 502.663 89.8717 493.098 73.7848 477.094L74.3081 469.258V469.075C74.3081 469.075 72.2692 471.156 68.9118 474.48C63.7262 479.715 55.4211 488.072 47.1635 496.3C41.5837 501.846 37.7846 505.521 35.1408 508.176C31.3688 511.999 29.9824 513.776 29.1192 516.221C27.6512 520.362 32.2592 550.431 33.4417 561.293C34.6243 572.156 31.2941 595.347 31.2941 595.347C31.2941 595.347 27.8075 593.368 25.8162 595.347C25.8162 595.347 1.22025 584.255 -11.353 574.777C-12.8292 573.692 -14.2302 572.509 -15.5463 571.237C-15.5463 571.237 -12.3249 596.651 -15.5463 599.853C-18.0882 602.38 -22.6961 597.151 -24.5039 594.908C-23.3553 596.57 -20.7048 600.272 -17.0891 605.19V605.142Z" fill="url(#paint31_linear_175_1463)"/>
<path fill-rule="evenodd" clip-rule="evenodd" d="M65.8477 479.513C65.8477 479.513 95.1127 507.318 125.812 511.263L125.39 503.231H125.288C123.372 502.555 92.4893 491.902 74.2819 473.804V469.251V465.576L68.8856 474.48L65.8477 479.513Z" fill="url(#paint32_linear_175_1463)"/>
<path fill-rule="evenodd" clip-rule="evenodd" d="M106.559 468.211C107.103 469.03 107.734 469.789 108.441 470.474L108.55 470.582C110.789 472.675 113.332 474.422 116.094 475.763C124.684 486.93 125.391 503.231 125.391 503.231L136.313 509.871C136.313 487.194 119.499 474.412 119.499 474.412L106.559 468.211Z" fill="url(#paint33_linear_175_1463)"/>
<path fill-rule="evenodd" clip-rule="evenodd" d="M199.104 486.342L205.146 492.422C205.146 492.422 200.755 507.818 198.798 509.763C196.841 511.709 187.788 504.325 187.788 504.325L181.732 496.252C181.732 496.252 189.888 501.886 194.7 501.886C194.7 501.88 199.104 497.826 199.104 486.342Z" fill="url(#paint34_linear_175_1463)"/>
<path d="M199.104 486.342C199.104 486.342 198.73 499.306 192.24 500.4C188.352 501.076 181.732 496.266 181.732 496.266C181.732 496.266 188.93 501.88 194.7 501.88C194.7 501.88 198.798 501.88 199.104 486.342Z" fill="#A64A4C"/>
<g style="mix-blend-mode:multiply" opacity="0.6">
<path fill-rule="evenodd" clip-rule="evenodd" d="M35.0469 508.284L65.8479 511.249L120.259 528.516L156.328 537.393C137.386 531.482 112.831 515.519 112.831 515.519L153.195 512.499L168.826 518.829L152.562 503.292L152.297 503.082L139.622 492.821L151.856 498.265L157.293 500.711L167.487 516.748L173.298 522.639L177.546 499.09C163.477 489.328 149.939 478.236 149.939 478.236C149.939 478.236 132.595 477.405 119.498 474.385L106.585 468.238C107.13 469.057 107.761 469.815 108.468 470.501L108.577 470.609C110.816 472.702 113.359 474.449 116.12 475.79C124.684 486.93 125.391 503.231 125.391 503.231H125.289C123.372 502.555 92.4896 491.902 74.2822 473.804V469.251V465.576L68.8859 474.48C63.7003 479.715 55.3951 488.072 47.1376 496.3C41.5578 501.846 37.7586 505.521 35.1148 508.176L35.0469 508.284Z" fill="#8B689A"/>
</g>
<path style="mix-blend-mode:multiply" opacity="0.5" fill-rule="evenodd" clip-rule="evenodd" d="M111.503 627.429C117.448 632.349 123.945 636.57 130.866 640.007C130.866 640.007 117.79 636.724 109.016 630.138L119.441 641.257C119.441 641.257 119.822 641.534 120.508 642H161.436C165.282 640.703 168.864 639.386 170.237 638.548C173.69 636.386 181.866 621.883 181.866 621.883C182.334 620.531 199.536 571.555 195.587 541.615L169.449 587.984L179.718 559.395L164.086 588.241L114.758 561.557L124.532 595.719L109.077 564.523V575.095L78.0038 553.221L72.791 563.813C86.7702 581.041 98.6342 599.864 108.132 619.883C109.281 622.355 110.402 624.882 111.503 627.429Z" fill="url(#paint35_linear_175_1463)"/>
<path style="mix-blend-mode:multiply" opacity="0.5" fill-rule="evenodd" clip-rule="evenodd" d="M72.791 563.793C86.7707 581.02 98.6347 599.843 108.132 619.862L99.4938 590.294L78.0038 553.22L72.791 563.793Z" fill="url(#paint36_linear_175_1463)"/>
<path style="mix-blend-mode:multiply" opacity="0.5" fill-rule="evenodd" clip-rule="evenodd" d="M195.616 541.588L179.746 569.738L187.684 603.001C187.684 603.001 198.062 571.508 195.616 541.588Z" fill="url(#paint37_linear_175_1463)"/>
<path style="mix-blend-mode:multiply" opacity="0.5" fill-rule="evenodd" clip-rule="evenodd" d="M111.503 627.428L130.866 640.007C130.866 640.007 118.945 636.866 109.016 630.137L119.441 641.257C119.441 641.257 119.822 641.534 120.515 642H144.431L138.315 636.562L109.09 564.522V575.094L78.0038 553.22L72.791 563.813L92.6363 589.544L111.503 627.428Z" fill="url(#paint38_linear_175_1463)"/>
<path style="mix-blend-mode:multiply" opacity="0.5" fill-rule="evenodd" clip-rule="evenodd" d="M-17.0893 605.143C-9.88521 614.891 1.26079 629.374 12.7194 642H64.8066C66.5782 637.113 67.8732 632.069 68.6737 626.935C72.2894 603.501 68.6737 571.372 68.6737 571.372L72.7923 563.793C72.7923 563.793 74.7836 566.137 78.0051 570.359V553.221L65.928 571.035C65.928 571.035 57.385 599.9 43.5001 608.628C43.5001 608.628 61.1706 574.514 63.2774 549.39C62.5978 552.228 50.9964 597.583 37.5601 604.643C37.5601 604.643 33.6454 596.84 31.2734 595.32C27.9093 593.172 25.8364 595.374 25.8364 595.374C26.9102 596.313 44.2749 611.905 48.0196 633.049L23.3965 626.719C23.3965 626.719 -1.47133 606.392 -11.394 574.73L-15.5873 571.19C-15.5873 571.19 -12.3659 596.604 -15.5873 599.806C-18.1292 602.332 -22.7371 597.104 -24.5449 594.861C-23.3963 596.523 -20.7458 600.225 -17.1301 605.143H-17.0893Z" fill="url(#paint39_linear_175_1463)"/>
<path style="mix-blend-mode:multiply" opacity="0.5" fill-rule="evenodd" clip-rule="evenodd" d="M189.227 506.25C198.973 519.451 215.345 542.182 219.953 552.187C219.953 552.187 233.104 575.358 249.972 586.221C249.972 586.221 266.188 593.456 273.97 593.456C276.927 593.456 284.443 564.556 272.264 541.541C278.381 563.671 269.546 576.844 269.546 576.844C245.392 573.696 212.912 535.474 211.92 534.285L224.438 541.588C209.799 531.955 191.327 506.933 191.327 506.933L189.227 506.25Z" fill="url(#paint40_linear_175_1463)"/>
</g>
<defs>
<linearGradient id="paint0_linear_175_1463" x1="191.967" y1="510.986" x2="169.088" y2="380.452" gradientUnits="userSpaceOnUse">
<stop stop-color="#FF957C"/>
<stop offset="0.98" stop-color="#F47867"/>
</linearGradient>
<linearGradient id="paint1_linear_175_1463" x1="176.036" y1="483.262" x2="176.036" y2="407.817" gradientUnits="userSpaceOnUse">
<stop offset="0.02" stop-color="#D1A1D6"/>
<stop offset="0.99" stop-color="#BD89C4"/>
</linearGradient>
<linearGradient id="paint2_linear_175_1463" x1="203.501" y1="477.101" x2="190.248" y2="401.474" gradientUnits="userSpaceOnUse">
<stop stop-color="#FF957C"/>
<stop offset="0.98" stop-color="#FFAE78"/>
</linearGradient>
<linearGradient id="paint3_linear_175_1463" x1="234.996" y1="294.814" x2="110.703" y2="501.231" gradientUnits="userSpaceOnUse">
<stop offset="0.0108" stop-color="#EDD7C0"/>
<stop offset="1" stop-color="#877BB0"/>
</linearGradient>
<linearGradient id="paint4_linear_175_1463" x1="183.371" y1="589.946" x2="178.974" y2="397.154" gradientUnits="userSpaceOnUse">
<stop offset="0.0108" stop-color="#E9CBAC"/>
<stop offset="1" stop-color="#7A6BAB"/>
</linearGradient>
<linearGradient id="paint5_linear_175_1463" x1="167.512" y1="377.263" x2="171.444" y2="454.17" gradientUnits="userSpaceOnUse">
<stop stop-color="#59355C"/>
<stop offset="0.9829" stop-color="#361545"/>
</linearGradient>
<linearGradient id="paint6_linear_175_1463" x1="178.125" y1="369.247" x2="178.235" y2="371.407" gradientUnits="userSpaceOnUse">
<stop stop-color="#59355C"/>
<stop offset="0.9829" stop-color="#361545"/>
</linearGradient>
<linearGradient id="paint7_linear_175_1463" x1="192.467" y1="560.25" x2="178.598" y2="477.139" gradientUnits="userSpaceOnUse">
<stop offset="0.0108" stop-color="#EDD7C0"/>
<stop offset="1" stop-color="#877BB0"/>
</linearGradient>
<linearGradient id="paint8_linear_175_1463" x1="111.388" y1="316.544" x2="83.85" y2="601.228" gradientUnits="userSpaceOnUse">
<stop stop-color="#F4B73C"/>
<stop offset="1" stop-color="#7E5517"/>
</linearGradient>
<linearGradient id="paint9_linear_175_1463" x1="100.605" y1="508.297" x2="100.605" y2="429.759" gradientUnits="userSpaceOnUse">
<stop stop-color="#FF7459"/>
<stop offset="0.98" stop-color="#C75659"/>
</linearGradient>
<linearGradient id="paint10_linear_175_1463" x1="123.33" y1="458.193" x2="98.4899" y2="316.447" gradientUnits="userSpaceOnUse">
<stop offset="0.02" stop-color="#FFAE78"/>
<stop offset="1" stop-color="#FF957C"/>
</linearGradient>
<linearGradient id="paint11_linear_175_1463" x1="109.093" y1="456.497" x2="109.093" y2="315.965" gradientUnits="userSpaceOnUse">
<stop stop-color="#FFEADB"/>
<stop offset="0.99" stop-color="#B060F4"/>
</linearGradient>
<linearGradient id="paint12_linear_175_1463" x1="91.5212" y1="308.93" x2="90.2466" y2="505.975" gradientUnits="userSpaceOnUse">
<stop stop-color="#FFE296"/>
<stop offset="0.444719" stop-color="#F8CB58"/>
</linearGradient>
<linearGradient id="paint13_linear_175_1463" x1="69.0732" y1="362.315" x2="66.7215" y2="448.204" gradientUnits="userSpaceOnUse">
<stop stop-color="#F4B73C"/>
<stop offset="1" stop-color="#754C0F"/>
</linearGradient>
<linearGradient id="paint14_linear_175_1463" x1="230.369" y1="593.456" x2="230.369" y2="486.35" gradientUnits="userSpaceOnUse">
<stop stop-color="#4360AC"/>
<stop offset="1" stop-color="#6781CB"/>
</linearGradient>
<linearGradient id="paint15_linear_175_1463" x1="148.15" y1="375.919" x2="148.15" y2="353.734" gradientUnits="userSpaceOnUse">
<stop offset="0.01" stop-color="#772438"/>
<stop offset="0.99" stop-color="#994540"/>
</linearGradient>
<linearGradient id="paint16_linear_175_1463" x1="148.154" y1="353.734" x2="148.085" y2="368.417" gradientUnits="userSpaceOnUse">
<stop stop-color="#FFE296"/>
<stop offset="0.444719" stop-color="#F8CB58"/>
</linearGradient>
<linearGradient id="paint17_linear_175_1463" x1="102.378" y1="367.197" x2="102.378" y2="352.937" gradientUnits="userSpaceOnUse">
<stop offset="0.01" stop-color="#772438"/>
<stop offset="0.99" stop-color="#994540"/>
</linearGradient>
<linearGradient id="paint18_linear_175_1463" x1="102.368" y1="352.937" x2="102.355" y2="362.375" gradientUnits="userSpaceOnUse">
<stop stop-color="#FFE296"/>
<stop offset="0.444719" stop-color="#F8CB58"/>
</linearGradient>
<linearGradient id="paint19_linear_175_1463" x1="102.323" y1="394.091" x2="102.323" y2="372.061" gradientUnits="userSpaceOnUse">
<stop stop-color="#E1DBFB"/>
<stop offset="1" stop-color="white"/>
</linearGradient>
<linearGradient id="paint20_linear_175_1463" x1="144.746" y1="401.299" x2="144.746" y2="379.236" gradientUnits="userSpaceOnUse">
<stop stop-color="#E1DBFB"/>
<stop offset="1" stop-color="white"/>
</linearGradient>
<linearGradient id="paint21_linear_175_1463" x1="109.697" y1="391.868" x2="109.697" y2="372.061" gradientUnits="userSpaceOnUse">
<stop offset="0.02" stop-color="#224476"/>
<stop offset="0.99" stop-color="#4776BB"/>
</linearGradient>
<linearGradient id="paint22_linear_175_1463" x1="148.945" y1="399.275" x2="148.945" y2="379.273" gradientUnits="userSpaceOnUse">
<stop offset="0.02" stop-color="#224476"/>
<stop offset="0.99" stop-color="#4776BB"/>
</linearGradient>
<linearGradient id="paint23_linear_175_1463" x1="116.098" y1="419.977" x2="105.781" y2="419.977" gradientUnits="userSpaceOnUse">
<stop offset="0.01" stop-color="#B060F4"/>
<stop offset="1" stop-color="#FFEADB"/>
</linearGradient>
<linearGradient id="paint24_linear_175_1463" x1="146.07" y1="406.453" x2="146.07" y2="353.883" gradientUnits="userSpaceOnUse">
<stop stop-color="#FFEADB"/>
<stop offset="0.99" stop-color="#B060F4"/>
</linearGradient>
<linearGradient id="paint25_linear_175_1463" x1="86.5907" y1="459.463" x2="86.5907" y2="429.759" gradientUnits="userSpaceOnUse">
<stop offset="0.02" stop-color="#D1A1D6"/>
<stop offset="0.99" stop-color="#BD89C4"/>
</linearGradient>
<linearGradient id="paint26_linear_175_1463" x1="136.067" y1="318.258" x2="133.82" y2="392.661" gradientUnits="userSpaceOnUse">
<stop stop-color="#F4B73C"/>
<stop offset="1" stop-color="#754C0F"/>
</linearGradient>
<linearGradient id="paint27_linear_175_1463" x1="63.2909" y1="518.829" x2="63.2909" y2="323.287" gradientUnits="userSpaceOnUse">
<stop offset="0.01" stop-color="#BE6888"/>
<stop offset="1" stop-color="#8E81F4"/>
</linearGradient>
<linearGradient id="paint28_linear_175_1463" x1="63.2943" y1="323.287" x2="61.4091" y2="506.884" gradientUnits="userSpaceOnUse">
<stop stop-color="#FFE296"/>
<stop offset="0.444719" stop-color="#F8CB58"/>
</linearGradient>
<linearGradient id="paint29_linear_175_1463" x1="59.3155" y1="426.111" x2="52.0341" y2="384.544" gradientUnits="userSpaceOnUse">
<stop offset="0.02" stop-color="#FFAE78"/>
<stop offset="1" stop-color="#FF957C"/>
</linearGradient>
<linearGradient id="paint30_linear_175_1463" x1="54.0479" y1="417.836" x2="54.0479" y2="390.267" gradientUnits="userSpaceOnUse">
<stop stop-color="#FFEADB"/>
<stop offset="0.99" stop-color="#B060F4"/>
</linearGradient>
<linearGradient id="paint31_linear_175_1463" x1="85.8131" y1="642.001" x2="85.8131" y2="469.088" gradientUnits="userSpaceOnUse">
<stop stop-color="#4360AC"/>
<stop offset="1" stop-color="#6781CB"/>
</linearGradient>
<linearGradient id="paint32_linear_175_1463" x1="95.8263" y1="511.249" x2="95.8263" y2="465.529" gradientUnits="userSpaceOnUse">
<stop offset="0.01" stop-color="#EFEDFF"/>
<stop offset="1" stop-color="#EBE8FF"/>
</linearGradient>
<linearGradient id="paint33_linear_175_1463" x1="121.436" y1="509.844" x2="121.436" y2="468.211" gradientUnits="userSpaceOnUse">
<stop offset="0.01" stop-color="#EFEDFF"/>
<stop offset="1" stop-color="#EBE8FF"/>
</linearGradient>
<linearGradient id="paint34_linear_175_1463" x1="193.436" y1="510.101" x2="193.436" y2="486.342" gradientUnits="userSpaceOnUse">
<stop offset="0.01" stop-color="#EFEDFF"/>
<stop offset="1" stop-color="#EBE8FF"/>
</linearGradient>
<linearGradient id="paint35_linear_175_1463" x1="134.495" y1="654.822" x2="134.495" y2="541.588" gradientUnits="userSpaceOnUse">
<stop offset="0.01" stop-color="#BE6888"/>
<stop offset="1" stop-color="#8E81F4"/>
</linearGradient>
<linearGradient id="paint36_linear_175_1463" x1="90.4683" y1="619.876" x2="90.4683" y2="553.2" gradientUnits="userSpaceOnUse">
<stop stop-color="#8E81F4"/>
<stop offset="0.99" stop-color="#BE6888"/>
</linearGradient>
<linearGradient id="paint37_linear_175_1463" x1="187.868" y1="603.001" x2="187.868" y2="541.588" gradientUnits="userSpaceOnUse">
<stop stop-color="white"/>
<stop offset="0.98" stop-color="#A77CBB"/>
</linearGradient>
<linearGradient id="paint38_linear_175_1463" x1="108.608" y1="654.835" x2="108.608" y2="553.2" gradientUnits="userSpaceOnUse">
<stop stop-color="white"/>
<stop offset="0.98" stop-color="#A77CBB"/>
</linearGradient>
<linearGradient id="paint39_linear_175_1463" x1="26.7403" y1="668.13" x2="26.7403" y2="549.37" gradientUnits="userSpaceOnUse">
<stop offset="0.01" stop-color="#BE6888"/>
<stop offset="1" stop-color="#8E81F4"/>
</linearGradient>
<linearGradient id="paint40_linear_175_1463" x1="234.103" y1="593.476" x2="234.103" y2="506.25" gradientUnits="userSpaceOnUse">
<stop offset="0.01" stop-color="#BE6888"/>
<stop offset="1" stop-color="#8E81F4"/>
</linearGradient>
<clipPath id="clip0_175_1463">
<rect width="391" height="755" fill="white"/>
</clipPath>
</defs>
</svg>
