<svg width="24" height="24" viewBox="0 0 24 24" fill="none" xmlns="http://www.w3.org/2000/svg">
<path d="M19 14C20.6569 14 22 15.3431 22 17V17.7146C22 21.2924 17.7895 24 12 24C6.21053 24 2 21.4333 2 17.7146V17C2 15.3431 3.34315 14 5 14H19ZM19 15.5H5C4.2203 15.5 3.57955 16.0949 3.50687 16.8555L3.5 17V17.7146C3.5 20.389 6.88879 22.5 12 22.5C16.926 22.5 20.3548 20.3951 20.4955 17.876L20.5 17.7146V17C20.5 16.2203 19.9051 15.5796 19.1445 15.5069L19 15.5ZM12 0C15.3137 0 18 2.68629 18 6C18 9.31371 15.3137 12 12 12C8.68629 12 6 9.31371 6 6C6 2.68629 8.68629 0 12 0ZM12 1.5C9.51472 1.5 7.5 3.51472 7.5 6C7.5 8.48528 9.51472 10.5 12 10.5C14.4853 10.5 16.5 8.48528 16.5 6C16.5 3.51472 14.4853 1.5 12 1.5Z" fill="#14CDCD"/>
</svg>
