<svg width="20" height="25" viewBox="0 0 20 25" fill="none" xmlns="http://www.w3.org/2000/svg">
<path d="M17 14.5C18.6569 14.5 20 15.8431 20 17.5V18.2146C20 21.7924 15.7895 24.5 10 24.5C4.21053 24.5 0 21.9333 0 18.2146V17.5C0 15.8431 1.34315 14.5 3 14.5H17ZM17 16H3C2.2203 16 1.57955 16.5949 1.50687 17.3555L1.5 17.5V18.2146C1.5 20.889 4.88879 23 10 23C14.926 23 18.3548 20.8951 18.4955 18.376L18.5 18.2146V17.5C18.5 16.7203 17.9051 16.0796 17.1445 16.0069L17 16ZM10 0.5C13.3137 0.5 16 3.18629 16 6.5C16 9.81371 13.3137 12.5 10 12.5C6.68629 12.5 4 9.81371 4 6.5C4 3.18629 6.68629 0.5 10 0.5ZM10 2C7.51472 2 5.5 4.01472 5.5 6.5C5.5 8.98528 7.51472 11 10 11C12.4853 11 14.5 8.98528 14.5 6.5C14.5 4.01472 12.4853 2 10 2Z" fill="#263954"/>
</svg>
