<svg width="24" height="24" viewBox="0 0 24 24" fill="none" xmlns="http://www.w3.org/2000/svg">
<path d="M16.375 0C17.8247 0 19 1.20883 19 2.7V21.3C19 22.7912 17.8247 24 16.375 24H7.625C6.17525 24 5 22.7912 5 21.3V2.7C5 1.20883 6.17525 0 7.625 0H16.375ZM16.375 1.8H7.625C7.14175 1.8 6.75 2.20294 6.75 2.7V21.3C6.75 21.7971 7.14175 22.2 7.625 22.2H16.375C16.8582 22.2 17.25 21.7971 17.25 21.3V2.7C17.25 2.20294 16.8582 1.8 16.375 1.8ZM13.457 18.6C13.9403 18.5993 14.3326 19.0016 14.3333 19.4986C14.3341 19.9957 13.9429 20.3993 13.4597 20.4L10.543 20.4045C10.0597 20.4053 9.66739 20.0029 9.66667 19.5059C9.66594 19.0088 10.0571 18.6053 10.5403 18.6045L13.457 18.6Z" fill="#E71D36"/>
</svg>
