<svg width="24" height="24" viewBox="0 0 24 24" fill="none" xmlns="http://www.w3.org/2000/svg">
<path d="M22.656 21.552C22.464 21.36 22.176 21.36 21.9839 21.552C21.672 21.864 21.096 21.864 20.784 21.552C20.3279 21.096 19.704 20.952 19.128 21.072C20.2559 19.536 20.952 17.664 21.096 15.696C21.144 15.072 20.76 14.472 20.136 14.256L18.4799 13.632V9.40805C18.4799 8.61605 17.832 7.96805 17.04 7.96805H16.56V5.56805H18C18.264 5.56805 18.4799 5.35205 18.4799 5.08805C18.4799 4.82405 18.264 4.60805 18 4.60805H16.08H13.68V2.92805C13.68 1.99205 12.936 1.24805 12 1.24805C11.064 1.24805 10.32 1.99205 10.32 2.92805V4.60805H7.91995H5.99995C5.73595 4.60805 5.51995 4.82405 5.51995 5.08805C5.51995 5.35205 5.73595 5.56805 5.99995 5.56805H7.43995V7.96805H6.95995C6.16795 7.96805 5.51995 8.61605 5.51995 9.40805V13.632L3.86395 14.232C3.26395 14.448 2.87995 15.048 2.90395 15.672C3.04795 17.64 3.74395 19.512 4.87195 21.048C4.75195 21.024 4.63195 21 4.48795 21C4.00795 21 3.55195 21.192 3.21595 21.528C2.90395 21.84 2.32795 21.84 2.01595 21.528C1.82395 21.336 1.53595 21.336 1.34395 21.528C1.15195 21.72 1.15195 22.008 1.34395 22.2C1.67995 22.536 2.13595 22.728 2.61595 22.728C3.09595 22.728 3.55195 22.536 3.88795 22.2C4.19995 21.888 4.77595 21.888 5.08795 22.2C5.49595 22.608 6.07195 22.8 6.64795 22.704H6.69595H6.71995H6.74395C7.07995 22.632 7.39195 22.464 7.63195 22.224C7.94395 21.912 8.51995 21.912 8.83195 22.224C9.16795 22.56 9.62395 22.752 10.104 22.752C10.584 22.752 11.04 22.56 11.376 22.224C11.712 21.888 12.24 21.888 12.576 22.224C13.272 22.92 14.424 22.92 15.12 22.224C15.456 21.888 15.984 21.888 16.32 22.224C16.56 22.464 16.896 22.632 17.232 22.704H17.256C17.376 22.728 17.496 22.728 17.592 22.728C18.072 22.728 18.528 22.536 18.864 22.2C19.2 21.864 19.728 21.864 20.0639 22.2C20.4 22.536 20.856 22.728 21.336 22.728C21.816 22.728 22.2719 22.536 22.608 22.2C22.8479 22.032 22.848 21.744 22.656 21.552ZM11.28 2.92805C11.28 2.52005 11.592 2.20805 12 2.20805C12.408 2.20805 12.72 2.52005 12.72 2.92805V4.60805H11.28V2.92805ZM8.39995 5.56805H10.8H13.2H15.6V7.96805H8.39995V5.56805ZM6.47995 9.40805C6.47995 9.14405 6.69595 8.92805 6.95995 8.92805H17.04C17.304 8.92805 17.52 9.14405 17.52 9.40805V13.296L12.168 11.352C12.144 11.352 12.144 11.352 12.12 11.352H12.096C12.048 11.352 11.976 11.352 11.928 11.352H11.904C11.88 11.352 11.88 11.352 11.856 11.352L6.47995 13.296V9.40805ZM14.472 21.552C14.136 21.888 13.608 21.888 13.272 21.552C12.576 20.856 11.424 20.856 10.728 21.552C10.416 21.864 9.83995 21.864 9.52795 21.552C9.19195 21.216 8.73595 21.024 8.25595 21.024C7.77595 21.024 7.31995 21.216 6.98395 21.552C6.91195 21.624 6.83995 21.672 6.74395 21.72C5.08795 20.184 4.03195 17.976 3.86395 15.624C3.83995 15.432 3.98395 15.216 4.17595 15.144L11.52 12.48V19.008C11.52 19.272 11.736 19.488 12 19.488C12.264 19.488 12.48 19.272 12.48 19.008V12.48L19.8239 15.12C20.016 15.192 20.16 15.384 20.136 15.6C19.968 17.952 18.936 20.16 17.256 21.696C17.184 21.648 17.088 21.6 17.016 21.528C16.32 20.832 15.168 20.832 14.472 21.552Z" fill="#E71D36"/>
</svg>
