<svg width="180" height="88" viewBox="0 0 180 88" fill="none" xmlns="http://www.w3.org/2000/svg">
<g clip-path="url(#clip0_710_4046)">
<path fill-rule="evenodd" clip-rule="evenodd" d="M109.736 60.3419C111.276 60.8182 112.864 61.1202 114.472 61.2422C114.472 61.2422 112.274 55.6083 112.926 51.7789C113.577 47.9495 120.723 33.6817 120.27 30.7378C119.817 27.7938 111.245 9.18849 110.672 0.580734C110.586 -0.756755 106.345 2.44874 105.892 5.50852C105.608 7.44004 110.126 16.4998 110.126 16.4998C110.126 16.4998 104.223 7.64552 103.335 7.58948C102.448 7.53344 100.341 11.3255 100.176 13.8286C100.056 15.5397 100.442 18.1287 100.685 19.5783C100.348 17.9121 99.7045 14.9494 99.4051 15.0951C98.9896 15.2744 97.7917 18.3043 97.3762 20.0266C96.9607 21.7489 98.8099 24.2931 98.8099 24.2931C98.8099 24.2931 89.0774 31.1525 84.4134 37.7652C80.322 43.5709 97.481 56.7366 109.736 60.3419Z" fill="url(#paint0_linear_710_4046)"/>
<g style="mix-blend-mode:multiply" opacity="0.8">
<path fill-rule="evenodd" clip-rule="evenodd" d="M109.736 60.3419L111.256 59.8786C111.256 59.8786 109.385 54.5361 109.557 50.8823C109.729 47.2285 114.913 29.1275 117.043 28.866C119.173 28.6045 120.259 30.734 120.259 30.734C120.116 29.8299 119.222 27.4688 118.031 24.3828H118.013C115.318 17.3367 111.065 6.5546 110.672 0.580734C110.586 -0.756755 106.345 2.44874 105.892 5.50852C105.608 7.44004 110.126 16.4998 110.126 16.4998C110.126 16.4998 104.223 7.64552 103.335 7.58948C102.448 7.53344 100.341 11.3255 100.176 13.8286C100.056 15.5397 100.442 18.1287 100.685 19.5783C100.348 17.9121 99.7045 14.9494 99.4051 15.0951C98.9896 15.2744 97.7917 18.3043 97.3762 20.0266C96.9607 21.7489 98.8099 24.2931 98.8099 24.2931C95.8248 26.443 92.9758 28.775 90.279 31.2757C90.2042 31.343 90.1293 31.4065 90.0619 31.4737C90.0215 31.5148 89.9777 31.5523 89.9309 31.5858C87.8971 33.4612 86.0494 35.5281 84.4134 37.7577C80.322 43.5709 97.481 56.7366 109.736 60.3419Z" fill="#D7D2E2"/>
</g>
<path d="M18.1692 78.8275C18.1692 78.8275 14.6917 80.7441 13.3441 80.8935C11.6484 81.0878 9.81798 79.1115 9.37253 79.231C8.92708 79.3506 8.972 82.2609 10.4431 83.2061C11.9142 84.1513 19.6141 79.6681 19.6141 79.6681L18.1692 78.8275Z" fill="#A1133F"/>
<path d="M76.8782 77.4975C76.8782 77.4975 51.8546 78.2821 49.8894 79.2609C47.9242 80.2397 46.3146 81.368 44.6227 81.5025C42.1633 81.6781 40.8794 79.9857 39.7976 80.0753C38.7158 80.165 21.4894 81.2335 19.9584 81.5025C18.4274 81.7715 10.6714 85.1115 10.1773 85.2908C9.6832 85.4701 6.50144 84.7379 6.08594 80.3406C6.08594 80.3406 9.657 82.5822 10.6714 82.6607C11.6858 82.7391 18.7793 79.8437 18.7793 79.5598C18.7793 79.2758 17.7649 78.368 17.0536 78.2522C16.3424 78.1364 15.1483 79.1413 14.5494 79.3207C13.9505 79.5 12.1088 78.7229 12.1088 78.7229C12.1088 78.7229 13.7184 75.5137 15.9194 75.7528C18.1205 75.9919 21.5792 78.6631 21.5792 78.6631L40.1083 77.9645C40.1083 77.9645 42.4329 76.1376 44.6227 76.1824C46.5205 76.2198 49.399 77.4302 49.399 77.4302L71.3532 74.9084C71.3532 74.9084 75.5344 77.1127 76.8782 77.4975Z" fill="#A1133F"/>
<path fill-rule="evenodd" clip-rule="evenodd" d="M59.3411 69.2036L37.8324 70.642L35.6912 70.4066L36.7917 69.8425H32.9512C32.9512 69.8425 46.0301 61.2235 59.3411 69.2036Z" fill="#9489A6" fill-opacity="0.73"/>
<path fill-rule="evenodd" clip-rule="evenodd" d="M32.9473 68.3854V69.8462C32.9473 69.8462 42.2043 65.7702 49.8892 66.3082C55.6575 66.7117 61.4746 70.2198 65.3675 72.6295C66.659 73.4253 67.7445 74.1052 68.5455 74.4975C69.5012 74.9389 70.4914 75.3012 71.5065 75.5809C71.5065 75.5809 71.5327 75.5809 71.5439 75.5809L71.645 75.6108C74.5123 76.4589 78.293 77.2958 81.6207 78.4427C81.6467 78.4471 81.6733 78.4471 81.6993 78.4427H81.7255H81.7442C82.725 78.7864 83.6683 79.1413 84.533 79.5374C88.5008 81.3419 94.8007 81.85 100.307 81.4054C100.311 81.4031 100.315 81.4019 100.32 81.4019C100.325 81.4019 100.329 81.4031 100.333 81.4054C101.803 81.2946 103.264 81.095 104.709 80.8076C110.878 79.5635 117.032 74.0268 119.981 73.8512C122.272 73.7092 123.916 74.5386 127.535 74.8375C127.809 74.8674 128.089 74.886 128.366 74.8935C129.212 74.9421 130.163 74.9533 131.237 74.9234C137.668 74.7478 140.262 74.3854 143.381 75.0093C145.312 75.3829 149.344 76.429 152.151 77.1575C152.278 77.1949 152.406 77.2248 152.525 77.2547L152.63 77.2846L155.149 77.9458H155.175L156.055 76.571L156.804 75.4091L157.238 74.7403L162.497 72.4987C162.497 72.4987 160.3 68.8188 159.102 67.4477C159.065 67.4028 159.024 67.3617 158.982 67.3169C157.661 65.8897 153.678 62.9346 147.73 63.1064C146.036 63.1756 144.359 63.4709 142.744 63.9844C139.038 65.1239 136.051 66.9956 133.562 67.2123C130.047 67.5112 120.577 65.49 116.291 62.1575C115.594 61.6195 114.441 61.1151 112.896 60.6631C112.891 60.6651 112.887 60.6661 112.882 60.6661C112.878 60.6661 112.873 60.6651 112.869 60.6631C112.038 60.4277 111.095 60.2035 110.058 59.9943C106.905 59.3979 103.719 58.9925 100.517 58.7801C90.095 58.0519 79.6278 58.302 69.253 59.5273C68.9236 59.5684 68.6017 59.6058 68.2798 59.6506C47.9465 62.2845 32.9473 68.3854 32.9473 68.3854Z" fill="url(#paint1_linear_710_4046)"/>
<g style="mix-blend-mode:multiply" opacity="0.8">
<path d="M148.595 73.8848C152.148 73.8848 154.431 74.9346 156.831 75.4464L157.265 74.7777L162.524 72.5361C161.551 72.6631 154.929 73.8773 153.095 71.9122C151.515 70.2123 156.782 71.6544 159.369 70.7914C157.033 70.1413 155.053 68.7702 153.462 67.6046C153.113 67.3486 152.694 67.205 152.261 67.193C151.828 67.1809 151.402 67.3011 151.04 67.5373C149.046 68.6758 146.803 69.3095 144.508 69.3829C146.387 71.0551 148.608 72.2994 151.017 73.0292C151.017 73.0292 151.931 73.3655 148.595 73.8848Z" fill="#D7D2E2"/>
</g>
<path d="M177.703 87.5212L161.94 73.4926L158.391 75.9247L153.742 74.901L155.73 76.9409C163.097 81.0505 170.68 84.4428 177.703 87.5212Z" fill="#7D2C4F"/>
<path fill-rule="evenodd" clip-rule="evenodd" d="M53.569 66.9546C53.569 66.9546 43.1927 67.5524 36.1367 71.9982L37.5666 72.6221C37.5666 72.6221 47.5686 67.0966 55.0701 67.1862L53.569 66.9546Z" fill="url(#paint2_linear_710_4046)"/>
<path d="M155.193 77.9757C155.193 77.9757 167.104 83.8898 177.702 87.5137C167.292 82.6943 158.907 79.2048 153.311 74.4713C153.311 74.4788 155.201 76.9558 155.193 77.9757Z" fill="#A1133F"/>
<path fill-rule="evenodd" clip-rule="evenodd" d="M54.639 27.9619C55.5524 28.1599 56.2524 28.3093 56.6267 28.3952L55.9417 28.2869H55.8556C52.2097 27.6294 40.658 25.6343 39.8569 26.2844C38.9062 27.054 41.0473 30.2072 43.0162 31.2122C44.9852 32.2172 52.4268 31.9855 52.4268 31.9855C52.4268 31.9855 50.2183 32.6991 50.2183 33.0578C50.2183 33.4164 51.4722 34.668 52.9546 34.6007C52.9546 34.6007 51.5845 40.8585 51.8316 46.1076C51.8713 47.3709 52.0611 48.625 52.3968 49.8436C53.0594 52.018 56.17 53.8449 59.64 55.2534C63.109 56.5924 66.6804 57.6506 70.3195 58.4178C69.1965 58.2833 64.203 57.7005 63.5816 58.4551C63.271 58.8287 65.5993 59.3107 68.3243 59.744C70.5703 60.1176 73.0932 60.4203 74.6018 60.5996C75.4515 60.7042 75.9905 60.7602 75.9905 60.7602C76.2451 61.1499 76.5874 61.4748 76.99 61.7092C77.8268 62.24 78.7428 62.6347 79.7038 62.8785H79.73C81.8488 63.4073 84.0256 63.6696 86.2096 63.6594C95.0137 63.7715 101.209 61.7577 101.209 61.7577C101.209 61.7577 106.008 62.5049 106.895 62.7665C107.782 63.028 112.948 60.7528 112.948 60.7528C112.939 60.7559 112.93 60.7559 112.921 60.7528C112.73 60.6594 111.941 60.2633 110.732 59.632C106.386 57.3642 96.7244 52.0105 91.3678 46.7315C84.3155 39.7751 78.4124 26.6692 76.275 24.0802C75.5862 23.262 73.4152 22.0216 70.4393 20.516C70.4294 20.5182 70.4192 20.5182 70.4093 20.516C64.0645 17.318 54.1 12.9431 47.2012 8.93439C37.0458 3.01656 34.3806 0.640465 33.426 0.580688C33.2763 0.580688 33.1715 0.760017 33.1154 1.11494C33.0753 1.37083 33.0541 1.6293 33.0517 1.88829C33.0143 4.41756 34.0886 10.0178 36.6976 12.7563C37.6896 13.7987 39.8569 15.0614 42.4398 16.3317L42.5446 16.3802C45.4494 17.7999 48.8595 19.2308 51.7268 20.3666C45.9023 18.2034 37.8768 15.3902 37.0008 15.9095C35.6346 16.7464 37.8318 21.6742 40.7441 23.6991C42.4061 24.846 47.4108 26.2209 51.4198 27.1997L53.7182 27.7452L54.639 27.9619Z" fill="url(#paint3_linear_710_4046)"/>
<path fill-rule="evenodd" clip-rule="evenodd" d="M40.7516 23.6991C43.4093 25.5335 54.639 27.9619 56.6379 28.3952C54.392 27.9805 40.7329 25.5447 39.8569 26.2508C38.9062 27.0204 41.0473 30.1736 43.0162 31.1786C44.9852 32.1835 52.4268 31.9519 52.4268 31.9519C52.4268 31.9519 50.2183 32.6655 50.2183 33.0241C50.2183 33.3828 51.4722 34.6344 52.9546 34.5671C52.9546 34.5671 51.5845 40.8249 51.8316 46.074C51.8713 47.3373 52.0611 48.5914 52.3968 49.81C53.0594 51.9844 56.17 53.8113 59.64 55.2197C63.109 56.5587 66.6804 57.6169 70.3195 58.3841C69.1965 58.2496 64.203 57.6668 63.5816 58.4215C63.271 58.7951 65.5993 59.277 68.3243 59.7104C70.5703 60.084 73.0932 60.3866 74.6018 60.566C73.8531 60.1924 73.3403 59.9084 73.3403 59.8188C73.3403 59.4452 75.5451 59.0716 75.5451 59.0716C75.5451 59.0716 57.4427 52.0591 57.8582 50.8187C58.2737 49.5784 62.3277 49.5111 62.3277 49.5111C62.3277 49.5111 56.6716 46.7726 56.7128 46.3019C56.754 45.8312 59.7074 45.876 59.7074 45.876C59.7074 45.876 55.3615 44.333 55.0957 42.2558C54.8299 40.1786 57.1508 34.6792 57.1508 34.6792C57.1508 34.6792 55.1107 31.6493 55.47 30.3043C55.8294 28.9594 58.109 28.9482 58.109 28.9482C54.085 25.2981 55.0732 22.6268 55.0732 22.6268C55.0732 22.6268 51.7268 20.3666 52.7187 19.4662C53.7107 18.5658 61.9384 19.8398 61.9384 19.8398L59.9956 18.5733C60.7106 17.8672 69.8104 20.3143 70.3756 20.4637C64.0308 17.2657 54.0663 12.8908 47.1675 8.88209C37.0458 3.01656 34.3806 0.640465 33.426 0.580688C33.1902 0.580688 33.0517 1.0589 33.0517 1.88829C33.0143 4.41756 34.0886 10.0178 36.6976 12.7563C38.8201 14.9755 46.2691 18.2034 51.7268 20.3666C45.9023 18.2034 37.8768 15.3902 37.0008 15.9095C35.6346 16.7464 37.8319 21.6742 40.7516 23.6991Z" fill="#45204F"/>
<path d="M12.8074 76.9259C12.8074 76.9259 9.33368 78.8425 7.98611 78.9919C6.28667 79.1862 4.45623 77.2098 4.01078 77.3294C3.56533 77.4489 3.59528 80.3593 5.08135 81.312C6.56742 82.2646 14.2523 77.774 14.2523 77.774L12.8074 76.9259Z" fill="#A1133F"/>
<path d="M71.5211 75.5959C71.5211 75.5959 46.4975 76.3804 44.5323 77.3593C42.5671 78.3381 40.9538 79.4664 39.2618 79.6009C36.8063 79.7765 35.5186 78.084 34.4368 78.1737C33.355 78.2634 16.1286 79.3319 14.5976 79.6009C13.0666 79.8699 5.32181 83.2061 4.83144 83.378C4.34107 83.5498 1.15183 82.8325 0.736328 78.4278C0.736328 78.4278 4.30739 80.6694 5.32181 80.7478C6.33623 80.8263 13.4184 77.9533 13.4184 77.6581C13.4184 77.363 12.4078 76.4664 11.6928 76.3505C10.9779 76.2347 9.7875 77.2397 9.19232 77.419C8.59715 77.5984 6.75173 76.825 6.75173 76.825C6.75173 76.825 8.35758 73.6158 10.5624 73.8362C12.7671 74.0566 16.2184 76.7503 16.2184 76.7503L34.7475 76.0517C34.7475 76.0517 37.072 74.2248 39.2618 74.2696C41.1634 74.3069 44.042 75.5174 44.042 75.5174L65.9924 72.9956C65.9924 72.9956 70.1773 75.2111 71.5211 75.5959Z" fill="#CF4045"/>
<path d="M152.962 69.8424C152.785 69.6852 152.563 69.5865 152.327 69.5597C152.091 69.533 151.853 69.5795 151.645 69.693C151.809 69.873 152.033 69.9873 152.275 70.0148C152.518 70.0423 152.762 69.981 152.962 69.8424Z" fill="#F8F8F8"/>
<g style="mix-blend-mode:multiply" opacity="0.8">
<path fill-rule="evenodd" clip-rule="evenodd" d="M32.9473 68.3854V69.8462C32.9473 69.8462 42.2043 65.7702 49.8892 66.3082C55.6575 66.7117 61.4746 70.2198 65.3675 72.6295C65.2852 72.439 64.0012 69.7528 66.2959 69.7976C68.6803 69.835 74.4187 74.6245 74.4486 74.9159C74.4786 75.2074 71.5177 75.5922 71.5177 75.5922C71.5177 75.5922 71.5439 75.5922 71.5551 75.5922C73.8834 76.571 80.6325 78.2074 81.6319 78.4539C81.658 78.4583 81.6845 78.4583 81.7105 78.4539H81.7367C81.2464 78.1326 71.6861 71.9346 71.5177 70.6083C71.3492 69.2821 78.1994 65.8263 91.7761 64.8362C105.353 63.8462 116.695 67.1637 114.651 71.972C112.66 76.6756 101.056 81.1551 100.356 81.4353C101.825 81.3245 103.286 81.1249 104.732 80.8375C110.9 79.5934 117.054 74.0567 120.004 73.8811C122.954 73.7055 124.833 75.1326 131.26 74.9533C137.687 74.774 140.285 74.4153 143.403 75.0392C146.521 75.6631 154.985 77.9272 155.194 77.9832C155.107 77.3932 154.888 76.8303 154.554 76.3356C152.121 75.8873 147.341 74.9683 144.414 74.1538C140.367 73.033 136.673 69.9919 137.275 68.2659C137.736 66.9284 141.217 64.9035 142.763 64.0292C139.057 65.1687 136.07 67.0405 133.581 67.2571C130.066 67.556 120.595 65.5348 116.309 62.2023C115.613 61.6643 114.46 61.16 112.914 60.7079C112.91 60.7099 112.906 60.7109 112.901 60.7109C112.897 60.7109 112.892 60.7099 112.888 60.7079C112.697 60.6145 111.904 60.2148 110.698 59.5871C110.559 59.8148 110.336 59.9785 110.077 60.0429C107.868 60.7901 101.071 59.1201 101.071 59.1201L100.535 58.8287C97.9637 57.3904 86.8463 51.1027 83.7918 48.0653C80.333 44.6207 76.3053 31.0702 74.5123 29.049C72.7193 27.0279 66.2771 22.5073 58.319 17.5197C50.3609 12.5322 33.4264 0.580688 33.4264 0.580688L33.0521 1.88829C33.0146 4.41756 34.089 10.0178 36.7055 12.7563C38.8242 14.9979 46.2732 18.2034 51.7309 20.3666C45.9064 18.2034 37.8809 15.3902 37.0049 15.9095C35.6387 16.7464 37.8359 21.6779 40.7482 23.6991C43.4096 25.5335 54.6394 27.9619 56.6383 28.3952C54.3923 27.9805 40.737 25.5447 39.8573 26.247C38.9065 27.0204 41.0477 30.1736 43.0166 31.1786C44.9855 32.1835 52.4271 31.9519 52.4271 31.9519C52.4271 31.9519 50.2186 32.6692 50.2186 33.0241C50.2186 33.3791 51.4726 34.6344 52.9512 34.5671C52.9512 34.5671 51.5849 40.8249 51.8282 46.074C51.8672 47.3376 52.0583 48.5919 52.3972 49.81C53.056 51.9844 56.1629 53.8113 59.6366 55.2235C63.1055 56.5619 66.6769 57.6188 70.3161 58.3841C69.1931 58.2534 64.1996 57.6668 63.5783 58.4215C63.2676 58.7951 65.5959 59.277 68.3172 59.7104C47.9465 62.2845 32.9473 68.3854 32.9473 68.3854Z" fill="#D7D2E2" fill-opacity="0.63"/>
</g>
<g style="mix-blend-mode:multiply">
<path fill-rule="evenodd" clip-rule="evenodd" d="M88.4751 63.5436C88.4751 63.5436 83.7436 64.4327 73.7379 64.967C63.7322 65.5012 55.0703 61.9782 55.0703 61.9782L67.554 59.8225C67.554 59.8225 81.419 64.1525 88.4751 63.5436Z" fill="#9786A6" fill-opacity="0.5"/>
</g>
<path fill-rule="evenodd" clip-rule="evenodd" d="M101.075 26.6618C101.075 26.6618 101.558 24.7116 103.059 24.2969C104.56 23.8822 106.484 27.2558 106.484 27.2558C106.446 26.7658 106.542 26.2747 106.763 25.8356C106.984 25.3964 107.321 25.0258 107.738 24.7639C109.171 23.9345 113.454 25.2421 113.454 25.2421C113.454 25.2421 113.48 23.7851 114.652 23.1611C115.745 22.5709 117.807 24.1885 118.02 24.3567C115.318 17.3367 111.066 6.5546 110.673 0.580734C110.586 -0.756755 106.345 2.44874 105.892 5.50852C105.608 7.44004 110.126 16.4998 110.126 16.4998C110.126 16.4998 104.223 7.64552 103.336 7.58948C102.449 7.53344 100.341 11.3255 100.176 13.8286C100.057 15.5397 100.442 18.1287 100.686 19.5783C100.349 17.9121 99.7048 14.9494 99.4053 15.0951C98.9898 15.2744 97.792 18.3043 97.3765 20.0266C96.961 21.7489 98.8102 24.2931 98.8102 24.2931C95.8251 26.443 92.9761 28.775 90.2793 31.2757C92.7386 29.2135 101.075 26.6618 101.075 26.6618Z" fill="#3A1345"/>
<g style="mix-blend-mode:multiply">
<path d="M128.381 74.9234C129.231 74.972 130.181 74.9832 131.256 74.9533C137.687 74.7739 140.281 74.4153 143.399 75.0392C146.435 75.6482 154.658 77.8412 155.168 77.9757C154.64 77.7217 147.03 74.1725 143.635 73.9184C140.131 73.6457 133.307 75.1027 128.381 74.9234Z" fill="#DBB4CE"/>
</g>
<g style="mix-blend-mode:multiply">
<path d="M71.6602 75.6407C74.5237 76.4888 78.3044 77.3257 81.6322 78.4726C81.657 78.4765 81.6822 78.4765 81.707 78.4726H81.737C81.7399 78.474 81.7431 78.4747 81.7463 78.4747C81.7496 78.4747 81.7528 78.474 81.7557 78.4726C82.7364 78.8089 83.6797 79.1675 84.5482 79.5635C88.516 81.368 94.8121 81.8761 100.318 81.4315C100.322 81.4293 100.327 81.428 100.332 81.428C100.336 81.428 100.341 81.4293 100.345 81.4315C101.814 81.3199 103.275 81.119 104.721 80.8301C110.886 79.5897 117.043 74.0567 119.993 73.8773C122.284 73.7354 123.923 74.5648 127.547 74.8637C122.935 74.4228 118.694 71.8748 116.362 72.5399C113.895 73.246 107.753 79.7317 100.524 80.6059C93.2961 81.4801 83.7246 77.6021 79.7194 77.1538C77.0046 76.8139 74.3131 76.3086 71.6602 75.6407Z" fill="#DBB4CE"/>
</g>
<g style="mix-blend-mode:multiply">
<path d="M88.4744 63.5436C88.4744 63.5436 92.8353 62.4228 94.5123 61.2422C96.1893 60.0616 85.944 54.48 81.5382 48.8909C77.1324 43.3019 74.9613 32.2695 72.9811 29.1611C71.0009 26.0528 62.9043 20.4413 62.9043 20.4413C62.9043 20.4413 73.2656 26.7626 74.5084 29.0341C75.7511 31.3056 80.097 43.2309 85.2665 49.3169C90.4359 55.4028 101.067 59.1052 101.067 59.1052L106.865 62.7291C106.865 62.7291 102.815 61.6083 101.179 61.7204C99.5432 61.8325 93.1198 64.4327 88.4744 63.5436Z" fill="#C3C2D7" fill-opacity="0.7"/>
</g>
<g style="mix-blend-mode:multiply">
<path d="M112.924 55.1525C111.925 55.74 110.799 56.0795 109.641 56.1425C107.976 56.1425 97.7305 51.8573 97.7305 51.8573C97.7305 51.8573 108.994 59.5684 114.47 61.2421C114.47 61.2421 113.033 57.1961 112.924 55.1525Z" fill="#C3C2D7" fill-opacity="0.7"/>
</g>
<g style="mix-blend-mode:multiply">
<path d="M33.0517 1.88829C33.0143 4.41756 34.0886 10.0178 36.6976 12.7563C37.6896 13.7987 39.8569 15.0614 42.4398 16.3317L42.5446 16.3802L51.7268 20.3666L68.1784 26.1835C67.557 25.9108 47.4857 17.1424 42.0243 13.8846C36.4918 10.5932 33.426 0.580688 33.426 0.580688L33.1154 1.11494C33.0753 1.37083 33.0541 1.6293 33.0517 1.88829Z" fill="#9795A6"/>
</g>
<g style="mix-blend-mode:multiply">
<path fill-rule="evenodd" clip-rule="evenodd" d="M40.7523 23.699C42.4143 24.846 47.419 26.2208 51.428 27.1997L53.7264 27.7451L54.651 27.9618L55.8563 28.2532H55.9424L67.0112 30.6629C64.3909 30.0428 47.449 25.978 42.9683 22.6081C38.1021 18.958 37.0016 15.8833 37.0016 15.8833C35.6353 16.7463 37.8326 21.6741 40.7523 23.699Z" fill="#9795A6"/>
</g>
<path fill-rule="evenodd" clip-rule="evenodd" d="M62.3717 75.9434L59.2012 73.7914L65.9914 73.0106L71.6587 75.6408L62.3717 75.9434Z" fill="#A1133F"/>
<path d="M162.52 72.5474C162.52 72.5474 173.001 80.3295 179.548 87.5213L177.167 86.8675L158.29 77.6582C157.38 77.1875 153.836 75.2821 153.244 74.4079C154.367 74.8861 155.748 74.9123 157.249 74.7815L162.52 72.5474Z" fill="#CF4045"/>
<g style="mix-blend-mode:soft-light" opacity="0.97">
<path fill-rule="evenodd" clip-rule="evenodd" d="M97.7318 26.1835C97.7318 26.1835 88.7929 31.1337 85.5176 37.2532C85.5176 37.2532 95.4746 31.3354 97.7318 26.1835Z" fill="#F5FFFF"/>
</g>
<g style="mix-blend-mode:soft-light" opacity="0.97">
<path fill-rule="evenodd" clip-rule="evenodd" d="M118.921 31.7203C117.566 35.97 115.874 40.1051 113.86 44.0865C110.525 50.703 111.91 54.4875 111.91 54.4875C111.91 54.4875 111.3 50.7515 114.485 45.084C116.806 40.9296 119.951 34.1749 118.921 31.7203Z" fill="#F5FFFF"/>
</g>
<g style="mix-blend-mode:soft-light" opacity="0.97">
<path fill-rule="evenodd" clip-rule="evenodd" d="M137.41 66.7005C137.41 66.7005 134.24 68.2621 128.969 68.3518C123.699 68.4415 116.512 63.637 116.512 63.637C116.512 63.637 123.381 66.7902 128.385 67.5934C131.421 68.0682 134.527 67.7608 137.41 66.7005Z" fill="#F5FFFF"/>
</g>
<g style="mix-blend-mode:soft-light" opacity="0.97">
<path fill-rule="evenodd" clip-rule="evenodd" d="M74.4779 23.2956C74.4779 23.2956 69.6491 22.7613 61.238 19.3728C52.827 15.9842 39.8379 5.81482 39.8379 5.81482C39.8379 5.81482 67.9759 20.1499 74.4779 23.2956Z" fill="#F5FFFF"/>
</g>
<g style="mix-blend-mode:soft-light" opacity="0.97">
<path fill-rule="evenodd" clip-rule="evenodd" d="M118.522 27.0316C115.798 22.6468 113.487 18.0192 111.62 13.2084C108.517 5.22831 110.122 1.35034 110.122 1.35034C110.122 1.35034 114.247 19.3654 118.522 27.0316Z" fill="#F5FFFF"/>
</g>
<path fill-rule="evenodd" clip-rule="evenodd" d="M107.49 58.4178C107.49 58.4178 98.9815 57.2484 90.271 50.5722C81.5604 43.896 79.7188 31.7203 79.7188 31.7203C79.7188 31.7203 87.0855 48.5323 107.49 58.4178Z" fill="#F5FFFF"/>
<path fill-rule="evenodd" clip-rule="evenodd" d="M159.076 68.9757C159.076 68.9757 155.846 64.5598 151.328 63.9097C146.81 63.2596 143.605 64.5261 143.605 64.5261C143.605 64.5261 152.911 63.6444 159.076 68.9757Z" fill="#F5FFFF"/>
<g style="mix-blend-mode:soft-light" opacity="0.97">
<path fill-rule="evenodd" clip-rule="evenodd" d="M42.2869 75.9433C42.2869 75.9433 37.4207 74.8786 34.9052 76.9259L16.627 77.0193L34.8004 76.5374C34.8004 76.5374 38.5961 72.7976 42.2869 75.9433Z" fill="#F5FFFF"/>
</g>
<path d="M146.584 69.906C146.584 69.906 148.029 69.5324 149.579 69.2634C149.979 69.1836 150.35 68.9978 150.653 68.7254C151.521 68.0044 152.566 68.2547 153.007 69.0654H153.034C153.899 69.3442 154.651 69.8962 155.175 70.6383C154.655 70.722 154.132 70.7794 153.606 70.8101C153.201 70.8338 152.811 70.9739 152.483 71.2136C152.299 71.3608 152.08 71.4592 151.847 71.4997C151.614 71.5402 151.374 71.5215 151.151 71.4453C150.918 71.3663 150.705 71.239 150.526 71.0717C150.218 70.8073 149.842 70.6361 149.44 70.5785C148.47 70.4377 147.515 70.2127 146.584 69.906Z" fill="#6A4D86"/>
<path d="M152.87 69.5249C153.11 70.4104 152.166 71.5461 151.145 71.1987C150.063 70.8251 149.977 69.6519 150.796 68.9571C151.616 68.2622 152.631 68.6358 152.87 69.5249Z" fill="url(#paint4_linear_710_4046)"/>
<path d="M150.668 69.2372C150.59 69.3275 150.533 69.4328 150.498 69.5464C150.463 69.6601 150.453 69.7797 150.467 69.8976C150.481 70.0156 150.519 70.1294 150.58 70.2318C150.64 70.3342 150.721 70.423 150.818 70.4925C151.02 70.6362 151.269 70.6986 151.515 70.6675C151.761 70.6363 151.987 70.5139 152.146 70.3244C152.223 70.2339 152.281 70.1286 152.315 70.015C152.349 69.9014 152.36 69.782 152.346 69.6642C152.332 69.5464 152.293 69.4328 152.233 69.3304C152.173 69.228 152.093 69.1391 151.997 69.0691C151.795 68.9255 151.546 68.863 151.299 68.8942C151.053 68.9253 150.828 69.0478 150.668 69.2372Z" fill="url(#paint5_linear_710_4046)"/>
<path d="M151.904 70.0853C151.882 70.1022 151.863 70.1234 151.849 70.1477C151.835 70.172 151.825 70.1989 151.822 70.2268C151.818 70.2547 151.821 70.2831 151.828 70.3101C151.836 70.3371 151.849 70.3623 151.867 70.3842C151.906 70.4289 151.961 70.457 152.02 70.4625C152.079 70.4681 152.138 70.4508 152.185 70.4141C152.208 70.3972 152.226 70.376 152.241 70.3517C152.255 70.3274 152.264 70.3005 152.267 70.2726C152.271 70.2447 152.269 70.2164 152.261 70.1893C152.253 70.1623 152.24 70.1371 152.222 70.1152C152.183 70.0705 152.129 70.0425 152.069 70.0369C152.01 70.0313 151.951 70.0487 151.904 70.0853Z" fill="white"/>
<g style="mix-blend-mode:soft-light" opacity="0.97">
<path fill-rule="evenodd" clip-rule="evenodd" d="M177.245 85.7242L162.732 73.4926C162.732 73.4926 171.941 79.1825 177.245 85.7242Z" fill="#F5FFFF"/>
</g>
</g>
<defs>
<linearGradient id="paint0_linear_710_4046" x1="102.044" y1="61.2422" x2="102.044" y2="0.26691" gradientUnits="userSpaceOnUse">
<stop stop-color="#E0DFF5"/>
<stop offset="1" stop-color="#F5F7FF"/>
</linearGradient>
<linearGradient id="paint1_linear_710_4046" x1="162.52" y1="70.0106" x2="32.951" y2="70.0106" gradientUnits="userSpaceOnUse">
<stop stop-color="white"/>
<stop offset="1" stop-color="#E5E7F8"/>
</linearGradient>
<linearGradient id="paint2_linear_710_4046" x1="55.0738" y1="69.794" x2="36.1367" y2="69.794" gradientUnits="userSpaceOnUse">
<stop stop-color="#E4DEEC"/>
<stop offset="1" stop-color="#ACB3EB"/>
</linearGradient>
<linearGradient id="paint3_linear_710_4046" x1="72.9999" y1="63.6639" x2="72.9999" y2="0.579113" gradientUnits="userSpaceOnUse">
<stop stop-color="#E0DFF5"/>
<stop offset="1" stop-color="#F5F7FF"/>
</linearGradient>
<linearGradient id="paint4_linear_710_4046" x1="150.557" y1="70.1947" x2="152.694" y2="68.4654" gradientUnits="userSpaceOnUse">
<stop stop-color="white"/>
<stop offset="1" stop-color="#D0C7F8"/>
</linearGradient>
<linearGradient id="paint5_linear_710_4046" x1="151.348" y1="70.8281" x2="152.485" y2="69.3622" gradientUnits="userSpaceOnUse">
<stop offset="0.01" stop-color="#934A1A"/>
<stop offset="0.98" stop-color="#33112F"/>
</linearGradient>
<clipPath id="clip0_710_4046">
<rect width="178.811" height="87.2544" fill="white" transform="translate(0.736328 0.266846)"/>
</clipPath>
</defs>
</svg>
