<svg width="252" height="67" viewBox="0 0 252 67" fill="none" xmlns="http://www.w3.org/2000/svg">
<path d="M1.59375 63.9727H249.606V2.71558H1.59375V63.9727Z" fill="#6ECFF1"/>
<path d="M1.59375 63.9727H62.0418V2.71558H1.59375V63.9727Z" fill="#328FB0"/>
<path d="M62.0391 63.9704H249.604V45.1465H62.0391V63.9704Z" fill="white"/>
<path d="M124.406 53.2833H125.362C126.479 53.2833 127.117 52.8047 127.117 52.0071C127.117 51.2095 126.479 50.7309 125.522 50.7309H124.406V53.2833ZM123.289 49.6142H125.362C126.957 49.6142 128.552 49.9333 128.552 51.8476C128.552 52.8047 127.755 53.6023 126.798 53.7618C127.117 53.9214 127.276 54.0809 127.595 54.5595L129.19 57.9095H127.914L126.638 55.038C126.319 54.2404 125.841 54.2404 125.203 54.2404H124.406V57.9095H123.289V49.6142Z" fill="#328FB0"/>
<path d="M137.002 49.6144H138.597L142.265 56.4739V49.6144H143.541V58.0691H141.946L138.278 51.2096H138.118V58.0691H137.002V49.6144Z" fill="#328FB0"/>
<path d="M155.185 50.89L153.59 55.0376H156.94L155.185 50.89ZM154.707 49.6138H155.983L159.492 58.0686H158.216L157.418 55.9948H153.431L152.633 58.0686H151.357L154.707 49.6138Z" fill="#328FB0"/>
<path d="M167.786 50.7305H165.234V49.6138H171.614V50.7305H169.062V58.0686H167.786V50.7305Z" fill="#328FB0"/>
<path d="M179.109 58.0686H180.385V49.6138H179.109V58.0686Z" fill="#328FB0"/>
<path d="M192.507 57.112C194.421 57.112 195.218 55.5168 195.218 53.762C195.218 52.0072 194.261 50.412 192.507 50.412C190.752 50.412 189.795 52.0072 189.795 53.762C189.795 55.5168 190.593 57.112 192.507 57.112ZM192.507 49.6144C195.059 49.6144 196.494 51.5287 196.494 53.9215C196.494 56.4739 195.059 58.2287 192.507 58.2287C189.955 58.2287 188.52 56.4739 188.52 53.9215C188.52 51.3691 189.955 49.6144 192.507 49.6144Z" fill="#328FB0"/>
<path d="M204.629 49.6144H206.224L209.892 56.4739V49.6144H211.009V58.0691H209.573L205.745 51.2096V58.0691H204.629V49.6144Z" fill="#328FB0"/>
<path d="M222.81 50.8906L221.215 55.0382H224.564L222.81 50.8906ZM222.172 49.6144H223.448L226.956 58.0691H225.68L224.883 55.9953H220.896L220.098 58.0691H218.822L222.172 49.6144Z" fill="#328FB0"/>
<path d="M234.615 49.6144H235.732V56.9525H239.241V58.0691H234.615V49.6144Z" fill="#328FB0"/>
<path d="M31.8963 10.5318C34.1292 12.6056 36.5216 14.839 38.5951 17.0723L36.2027 20.2628V20.4223L42.7419 23.2937L47.2077 20.2628L44.4963 17.2318V17.0723C47.2077 15.158 49.6001 13.2437 52.152 11.489L50.8761 24.889H12.9166L11.6406 11.489C14.352 13.2437 16.5849 15.158 19.2963 17.0723V17.2318L16.5849 20.2628L21.0508 23.2937L27.59 20.4223V20.2628L25.1976 17.0723C27.1115 14.839 29.6634 12.6056 31.8963 10.5318Z" fill="white"/>
<path d="M50.5598 27.2815L50.2408 31.7482H36.2054V47.0624H43.0636C44.6585 47.0624 46.2535 45.4672 45.9345 44.3505C45.6155 42.7553 44.18 41.7982 42.9041 41.0005C43.2231 41.0005 47.8484 37.491 50.0813 36.0553C49.9218 37.0124 48.4864 49.6148 48.3269 49.7744L31.899 55.9958H31.58L15.4712 49.7744C15.4712 49.6148 13.8763 37.0124 13.7168 36.0553C15.9497 37.491 20.575 41.0005 20.894 41.0005C19.618 41.7982 18.1826 42.7553 17.8636 44.3505C17.5446 45.4672 19.1395 47.0624 20.7345 47.0624H27.5927V31.7482H13.5573L13.2383 27.2815H50.5598V27.2815Z" fill="white"/>
<path d="M74.9605 22.9738C77.6719 22.9738 80.8618 21.6976 80.8618 18.5071C80.8618 15.1571 77.9909 13.8809 74.9605 13.8809V22.9738ZM72.4086 19.3047C72.4086 14.9976 72.2491 14.1999 69.0592 14.0404V13.5619L75.9175 13.4023C83.0947 13.2428 83.5732 16.7523 83.5732 18.0285C83.5732 20.4214 82.1377 21.8571 80.0643 22.6547L80.2238 22.8142C82.4567 26.6428 85.1681 31.588 89.7934 32.5452L89.6339 33.0238C86.6035 32.8642 84.3706 33.0238 82.7757 31.269C80.8618 29.3547 79.4263 26.8023 78.7883 25.5261C77.6719 23.1333 76.7149 23.7714 74.6415 23.4523V28.0785C74.6415 31.269 74.6415 31.7476 78.6288 32.3857V32.8642H68.7402V32.3857C72.0896 31.9071 72.0896 31.1095 72.2491 28.0785L72.4086 19.3047Z" fill="white"/>
<path d="M93.9416 20.5809C90.9112 20.5809 89.6352 23.7713 89.6352 26.4832C89.6352 29.1951 91.0707 32.5451 94.101 32.5451C96.9719 32.5451 98.2479 29.1951 98.2479 26.8023C98.4074 24.0904 97.1314 20.5809 93.9416 20.5809ZM93.9416 33.0237C90.1137 33.0237 86.9238 30.4713 86.9238 26.4832C86.9238 22.4951 90.1137 19.7832 93.9416 19.7832C97.7694 19.7832 100.8 22.3356 100.8 26.3237C100.959 30.3118 97.7694 33.0237 93.9416 33.0237Z" fill="white"/>
<path d="M101.917 22.8141C101.439 21.5379 101.279 21.2188 99.8438 21.0593V20.5807H105.745V21.0593C103.672 21.2188 104.15 22.495 104.788 23.9308L107.499 31.2688L109.254 26.1641C110.53 22.495 110.689 21.3784 108.616 21.2188V20.7403H113.56V21.2188C112.284 21.3784 111.965 21.8569 111.327 22.9736L110.211 25.526L105.905 36.5331C104.788 39.245 104.15 40.0427 103.034 40.0427C102.236 40.0427 101.598 39.4046 101.598 38.6069C101.598 37.9688 101.917 37.4903 102.555 37.3308C102.874 37.4903 103.672 38.1284 103.991 38.1284C104.629 38.1284 105.107 36.5331 105.267 36.2141L106.223 33.9808L101.917 22.8141Z" fill="white"/>
<path d="M115.309 28.2371C115.15 28.5562 115.15 29.0348 115.15 29.3538C115.15 30.63 115.788 31.5871 117.063 31.5871C117.861 31.5871 118.658 31.1086 119.137 30.4705V26.1633L115.309 28.2371ZM119.137 25.6848C119.296 22.4943 118.499 21.2181 116.266 21.2181C114.352 21.2181 114.512 22.1752 114.512 23.7705L113.236 23.93C113.076 23.93 112.598 23.93 112.598 23.6109C112.598 22.8133 115.788 19.9419 118.02 19.9419C120.572 19.9419 121.37 22.0157 121.37 24.249V28.2371C121.37 30.7895 121.21 32.3848 123.762 31.9062V32.5443C122.646 32.8633 121.689 33.0228 120.891 33.0228C119.775 33.0228 119.296 32.3848 119.137 31.2681C118.18 32.2252 117.063 33.1824 115.469 33.1824C113.714 33.1824 112.598 31.5871 112.598 29.9919C112.598 29.5133 112.598 29.1943 112.757 28.7157L119.137 25.6848Z" fill="white"/>
<path d="M122.488 32.8642V32.2261C124.402 32.0666 124.721 31.588 124.721 29.6737V17.5499C124.721 16.2737 124.721 15.9547 123.286 14.9975V14.519L126.476 13.2428L126.795 13.4023V29.5142C126.795 31.907 126.954 32.0666 129.028 32.3856V32.8642H122.488Z" fill="white"/>
<path d="M151.997 28.2371C151.837 28.5562 151.837 29.0348 151.837 29.3538C151.837 30.63 152.475 31.5871 153.751 31.5871C154.548 31.5871 155.346 31.1086 155.824 30.4705V26.1633L151.997 28.2371ZM155.824 25.6848C155.984 22.4943 155.186 21.2181 152.954 21.2181C151.04 21.2181 151.199 22.1752 151.199 23.7705L149.923 23.93C149.764 23.93 149.285 23.93 149.285 23.6109C149.285 22.8133 152.316 19.9419 154.708 19.9419C157.26 19.9419 158.057 22.0157 158.057 24.249V28.2371C158.057 30.7895 157.738 32.5443 160.45 31.9062V32.5443C159.333 32.8633 158.376 33.0228 157.579 33.0228C156.462 33.0228 155.984 32.3848 155.824 31.2681C154.867 32.2252 153.751 33.1824 152.156 33.1824C150.402 33.1824 149.285 31.5871 149.285 29.9919C149.285 29.5133 149.285 29.1943 149.445 28.7157L155.824 25.6848Z" fill="white"/>
<path d="M147.531 19.3045H147.053C146.574 16.114 144.66 13.7211 141.311 13.7211C136.207 13.7211 133.177 18.0283 133.177 22.9735C133.177 28.5569 137.483 32.545 141.47 32.545C145.139 32.545 146.574 29.8331 147.85 26.6426L148.169 26.8021C147.85 28.5569 147.372 30.3116 146.574 31.9069C144.82 32.864 142.746 33.1831 140.833 33.1831C134.931 33.1831 129.668 29.6735 129.668 23.2926C129.668 18.1878 133.655 13.0831 140.992 13.0831C143.065 13.0831 145.298 13.5616 147.212 14.6783V19.3045H147.531V19.3045Z" fill="white"/>
<path d="M219.301 28.2371C219.141 28.5562 219.141 29.0348 219.141 29.3538C219.141 30.63 219.779 31.5871 221.055 31.5871C221.852 31.5871 222.65 31.1086 223.128 30.4705V26.1633L219.301 28.2371ZM223.128 25.6848C223.288 22.4943 222.49 21.2181 220.258 21.2181C218.344 21.2181 218.503 22.1752 218.503 23.7705L217.068 23.93C216.908 23.93 216.43 23.93 216.43 23.6109C216.43 22.8133 219.62 19.9419 221.852 19.9419C224.404 19.9419 225.202 22.0157 225.202 24.249V28.2371C225.202 30.7895 224.723 32.3848 227.435 32.2252V32.7038C226.318 33.0228 225.68 33.0228 224.883 33.0228C223.766 33.0228 223.288 32.3848 223.128 31.2681C222.171 32.2252 221.055 33.1824 219.46 33.1824C217.706 33.1824 216.589 31.5871 216.589 29.9919C216.589 29.5133 216.589 29.1943 216.749 28.7157L223.128 25.6848Z" fill="white"/>
<path d="M163.641 29.5133C163.641 31.9062 163.8 32.0657 166.512 32.3848V32.8633H159.494V32.2252C161.408 32.0657 161.568 31.5871 161.568 29.3538V24.0895C161.568 22.8133 161.568 22.4943 160.132 21.5371V21.2181L163.481 19.9419L163.8 20.1014L163.641 23.4514C164.279 22.0157 165.874 19.9419 167.628 19.9419C168.426 19.9419 169.064 20.4205 169.064 21.2181C169.064 22.0157 168.266 22.6538 167.628 22.9728C167.15 22.6538 166.512 22.0157 165.874 22.0157C163.481 22.1752 163.641 26.1633 163.641 26.4824V29.5133Z" fill="white"/>
<path d="M174.485 15.1576C174.485 15.9553 173.847 16.5934 173.049 16.5934C172.252 16.5934 171.614 15.9553 171.614 15.1576C171.614 14.36 172.252 13.7219 173.049 13.7219C173.847 13.7219 174.485 14.36 174.485 15.1576ZM169.859 32.8648V32.3862C171.933 32.0672 172.092 31.7481 172.092 29.5148V24.091C172.092 22.8148 172.092 22.4957 170.338 21.5386V21.2195L174.006 19.9434L174.325 20.1029V29.5148C174.325 31.9076 174.485 32.0672 176.558 32.3862V32.8648H169.859Z" fill="white"/>
<path d="M179.746 26.9618C179.746 29.6737 180.065 32.2261 183.255 32.2261C184.85 32.2261 187.402 30.9499 187.402 26.9618C187.402 23.4523 185.169 21.3785 182.458 21.3785C181.501 21.3785 180.703 21.6975 179.906 22.0166L179.746 26.9618ZM177.514 17.3904C177.514 16.1142 177.514 15.7951 176.078 14.838V14.519L179.268 13.2428L179.587 13.4023V21.538C181.022 20.7404 182.777 19.9428 184.372 19.9428C187.562 19.9428 189.635 22.8142 189.635 25.8452C189.635 30.9499 185.01 33.1832 181.979 33.1832C180.225 33.1832 178.949 32.7047 177.514 32.0666C177.514 32.0666 177.514 17.3904 177.514 17.3904Z" fill="white"/>
<path d="M193.303 26.9618C193.303 29.6737 193.622 32.2261 196.812 32.2261C198.407 32.2261 200.959 30.9499 200.959 26.9618C200.959 23.4523 198.726 21.3785 196.015 21.3785C195.058 21.3785 194.26 21.6975 193.463 22.0166L193.303 26.9618ZM191.07 17.3904C191.07 16.1142 191.07 15.7952 189.635 14.838V14.519L192.825 13.2428L193.144 13.4023V21.538C194.579 20.7404 196.333 19.9428 197.928 19.9428C201.118 19.9428 203.192 22.8142 203.192 25.8452C203.192 30.9499 198.566 33.1833 195.536 33.1833C193.782 33.1833 192.506 32.7047 191.07 32.0666C191.07 32.0666 191.07 17.3904 191.07 17.3904Z" fill="white"/>
<path d="M212.604 23.2919C212.285 22.0157 211.487 20.4205 210.052 20.4205C208.457 20.4205 207.5 22.0157 207.181 23.4514L212.604 23.2919ZM207.021 25.5252C206.862 28.5562 208.776 31.2681 211.966 31.2681C213.401 31.2681 214.518 30.63 215.315 29.5133L215.793 29.8324C214.677 31.7467 212.763 33.1824 210.53 33.1824C207.021 33.1824 204.629 30.3109 204.629 26.8014C204.629 23.1324 207.181 19.9419 211.009 19.9419C213.561 19.9419 215.315 21.5371 215.315 24.0895H207.181L207.021 25.5252Z" fill="white"/>
<path d="M228.711 24.0895C228.711 22.8133 228.711 22.4943 227.276 21.5371V21.2181L230.625 19.9419L230.944 20.1014L230.785 22.1752C232.38 20.899 233.975 19.9419 235.729 19.9419C239.079 19.9419 239.238 22.8133 239.238 24.4086V29.5133C239.238 31.9062 239.397 32.0657 241.471 32.3848V32.8633H234.932V32.3848C237.005 32.0657 237.165 31.7467 237.165 29.5133V26.1633C237.165 24.0895 237.324 21.3776 233.815 21.3776C232.699 21.3776 231.901 21.6967 230.944 22.6538V29.5133C230.944 31.9062 231.104 32.0657 233.177 32.3848V32.8633H226.479V32.3848C228.552 32.2252 228.711 31.7467 228.711 29.5133V24.0895Z" fill="white"/>
<path d="M72.5664 58.0691H73.6829V49.6144H72.5664V58.0691Z" fill="#328FB0"/>
<path d="M82.2988 49.6144H83.8938L87.5621 56.4739V49.6144H88.8381V58.0691H87.2431L83.4153 51.2096V58.0691H82.2988V49.6144Z" fill="#328FB0"/>
<path d="M98.8859 50.731H96.334V49.6144H102.714V50.731H100.162V58.0691H98.8859V50.731Z" fill="#328FB0"/>
<path d="M110.369 49.6144H114.994V50.731H111.486V53.1239H114.675V54.2406H111.486V56.9525H114.994V58.0691H110.369V49.6144Z" fill="#328FB0"/>
</svg>
