<svg width="507" height="369" viewBox="0 0 507 369" fill="none" xmlns="http://www.w3.org/2000/svg">
<path d="M355.986 165.621L352.614 161.203C385.093 139.408 437.258 101.837 495.552 77.5288C495.552 77.5288 501.058 76.2333 506.567 74.2015C490.681 80.0604 399.56 137.589 355.986 165.621Z" fill="#D4EAFF"/>
<path fill-rule="evenodd" clip-rule="evenodd" d="M352.733 215.46C352.733 215.46 384.327 229.837 427.278 200.266L410.46 145.58C410.46 145.58 368.163 142.537 343.117 176.979C343.121 176.989 329.203 196.345 352.733 215.46Z" fill="white"/>
<path d="M427.286 200.262C437.738 196.668 442.062 181.692 436.946 166.812C431.829 151.931 419.208 142.782 408.756 146.376C398.305 149.97 393.98 164.946 399.097 179.826C404.214 194.707 416.835 203.856 427.286 200.262Z" fill="#E7F6FF"/>
<path d="M426.928 197.201C436.279 193.985 440.149 180.591 435.574 167.284C430.998 153.977 419.708 145.796 410.357 149.011C401.006 152.227 397.135 165.621 401.711 178.928C406.287 192.235 417.577 200.416 426.928 197.201Z" fill="url(#paint0_linear_8_28203)"/>
<path d="M421.524 195.915C428.419 193.544 430.882 182.531 427.026 171.316C423.169 160.101 414.454 152.932 407.559 155.303C400.664 157.674 398.2 168.688 402.057 179.902C405.913 191.117 414.629 198.286 421.524 195.915Z" fill="url(#paint1_linear_8_28203)"/>
<path fill-rule="evenodd" clip-rule="evenodd" d="M413.546 176.572C414.3 178.762 413.82 180.914 412.476 181.376C411.131 181.838 409.43 180.437 408.677 178.246C407.923 176.056 408.403 173.904 409.747 173.442C411.095 172.989 412.793 174.381 413.546 176.572Z" fill="url(#paint2_linear_8_28203)"/>
<path fill-rule="evenodd" clip-rule="evenodd" d="M149.933 189.963L86.8184 126.535L89.1172 125.944L153.01 187.906L149.933 189.963Z" fill="#E7F6FF"/>
<path fill-rule="evenodd" clip-rule="evenodd" d="M115.805 228.496L84.8657 135.586L86.8205 126.535L149.932 189.953C149.935 189.963 135.448 201.883 115.805 228.496Z" fill="white"/>
<path fill-rule="evenodd" clip-rule="evenodd" d="M115.805 228.496L84.8657 135.586L86.8205 126.535L149.932 189.953C149.935 189.963 135.448 201.883 115.805 228.496Z" fill="#E1ECFF"/>
<path fill-rule="evenodd" clip-rule="evenodd" d="M461.76 130.872C461.76 130.872 439.19 97.1823 389.849 89.7073C342.529 82.5465 165.914 176.972 149.934 189.962C133.951 202.944 108.002 237.538 107.365 242.046C106.725 246.545 182.486 256.867 246.243 244.572C310 232.278 402.384 199.564 419.796 190.37C437.211 181.154 464.427 148.258 461.76 130.872Z" fill="white"/>
<path fill-rule="evenodd" clip-rule="evenodd" d="M461.76 130.873C461.76 130.873 432.54 101.277 383.199 93.8021C335.879 86.6413 165.914 176.973 149.934 189.963C133.95 202.944 108.001 237.539 107.365 242.047C106.725 246.546 182.485 256.868 246.243 244.573C310 232.278 402.384 199.564 419.796 190.371C437.21 181.155 464.427 148.258 461.76 130.873Z" fill="#EBF2FF"/>
<path fill-rule="evenodd" clip-rule="evenodd" d="M424.287 100.436C424.287 100.436 392.548 107.492 363.35 121.39L362.152 110.018C362.152 110.018 387.123 89.6989 408.527 94.0709L424.287 100.436Z" fill="url(#paint3_linear_8_28203)"/>
<path d="M371.953 103.42L371.455 103.592L375.696 115.926L376.195 115.755L371.953 103.42Z" fill="#449DCF"/>
<path d="M394.463 94.0335L394.172 94.4729L409.351 104.519L409.642 104.08L394.463 94.0335Z" fill="#449DCF"/>
<g opacity="0.86">
<path fill-rule="evenodd" clip-rule="evenodd" d="M329.079 102.405C310.685 117.76 314.121 172.874 314.121 172.874C314.121 172.874 159.883 207.735 107.366 242.047C107.366 242.047 126.009 209.838 150.752 189.682C175.496 169.525 281.746 118.713 329.079 102.405Z" fill="white"/>
<path fill-rule="evenodd" clip-rule="evenodd" d="M329.079 102.405C310.685 117.76 314.121 172.874 314.121 172.874C314.121 172.874 159.883 207.735 107.366 242.047C107.366 242.047 126.009 209.838 150.752 189.682C175.496 169.525 281.746 118.713 329.079 102.405Z" fill="url(#paint4_linear_8_28203)"/>
</g>
<path fill-rule="evenodd" clip-rule="evenodd" d="M274.149 141.625C274.292 144.12 273.657 146.462 272.74 146.851C271.813 147.243 270.954 145.541 270.814 143.056C270.671 140.561 271.306 138.219 272.224 137.83C273.141 137.441 273.997 139.133 274.149 141.625Z" fill="#00B1F8"/>
<path fill-rule="evenodd" clip-rule="evenodd" d="M259.737 147.801C259.88 150.295 259.245 152.637 258.328 153.026C257.401 153.419 256.542 151.717 256.402 149.231C256.259 146.736 256.894 144.394 257.812 144.005C258.735 143.604 259.594 145.306 259.737 147.801Z" fill="#00B1F8"/>
<path fill-rule="evenodd" clip-rule="evenodd" d="M245.335 153.973C245.478 156.468 244.843 158.81 243.925 159.199C242.999 159.591 242.143 157.898 242 155.403C241.857 152.909 242.492 150.567 243.409 150.178C244.333 149.776 245.192 151.478 245.335 153.973Z" fill="#00B1F8"/>
<path fill-rule="evenodd" clip-rule="evenodd" d="M230.926 160.136C231.069 162.631 230.434 164.972 229.517 165.362C228.59 165.754 227.735 164.061 227.592 161.566C227.449 159.071 228.084 156.73 229.001 156.34C229.928 155.948 230.787 157.65 230.926 160.136Z" fill="#00B1F8"/>
<path fill-rule="evenodd" clip-rule="evenodd" d="M216.522 166.308C216.665 168.803 216.03 171.145 215.113 171.534C214.186 171.926 213.327 170.224 213.188 167.738C213.045 165.244 213.679 162.902 214.597 162.513C215.521 162.111 216.379 163.813 216.522 166.308Z" fill="#00B1F8"/>
<path fill-rule="evenodd" clip-rule="evenodd" d="M202.12 172.48C202.263 174.975 201.628 177.317 200.711 177.706C199.784 178.098 198.925 176.396 198.785 173.911C198.642 171.416 199.277 169.074 200.195 168.685C201.109 168.287 201.977 169.985 202.12 172.48Z" fill="#00B1F8"/>
<path fill-rule="evenodd" clip-rule="evenodd" d="M187.713 178.643C187.857 181.138 187.222 183.48 186.304 183.869C185.377 184.261 184.522 182.569 184.379 180.074C184.236 177.579 184.871 175.237 185.788 174.848C186.706 174.459 187.574 176.158 187.713 178.643Z" fill="#00B1F8"/>
<path fill-rule="evenodd" clip-rule="evenodd" d="M173.309 184.816C173.452 187.311 172.817 189.652 171.9 190.042C170.973 190.434 170.118 188.741 169.975 186.246C169.832 183.751 170.467 181.41 171.384 181.02C172.298 180.622 173.166 182.321 173.309 184.816Z" fill="#00B1F8"/>
<path fill-rule="evenodd" clip-rule="evenodd" d="M158.907 190.988C159.05 193.483 158.415 195.825 157.498 196.214C156.571 196.606 155.712 194.904 155.572 192.419C155.429 189.924 156.064 187.582 156.982 187.193C157.896 186.794 158.764 188.493 158.907 190.988Z" fill="#00B1F8"/>
<path fill-rule="evenodd" clip-rule="evenodd" d="M274.709 141.518C274.852 144.013 274.217 146.355 273.3 146.744C272.382 147.133 271.514 145.434 271.375 142.949C271.232 140.454 271.866 138.112 272.784 137.723C273.708 137.321 274.566 139.023 274.709 141.518Z" fill="white"/>
<path fill-rule="evenodd" clip-rule="evenodd" d="M260.305 147.681C260.448 150.176 259.813 152.517 258.896 152.906C257.969 153.299 257.114 151.606 256.971 149.111C256.828 146.616 257.462 144.274 258.38 143.885C259.307 143.493 260.165 145.195 260.305 147.681Z" fill="white"/>
<path fill-rule="evenodd" clip-rule="evenodd" d="M245.901 153.853C246.044 156.348 245.409 158.69 244.492 159.079C243.565 159.471 242.706 157.769 242.566 155.284C242.423 152.789 243.058 150.447 243.976 150.058C244.89 149.659 245.758 151.358 245.901 153.853Z" fill="white"/>
<path fill-rule="evenodd" clip-rule="evenodd" d="M231.499 160.025C231.642 162.52 231.007 164.862 230.089 165.251C229.163 165.643 228.304 163.941 228.164 161.455C228.021 158.961 228.656 156.619 229.573 156.23C230.488 155.831 231.356 157.53 231.499 160.025Z" fill="white"/>
<path fill-rule="evenodd" clip-rule="evenodd" d="M217.092 166.188C217.235 168.683 216.6 171.025 215.683 171.414C214.756 171.806 213.901 170.114 213.758 167.619C213.615 165.124 214.25 162.782 215.167 162.393C216.085 162.004 216.953 163.703 217.092 166.188Z" fill="white"/>
<path fill-rule="evenodd" clip-rule="evenodd" d="M202.69 172.36C202.833 174.855 202.198 177.197 201.281 177.586C200.354 177.978 199.495 176.276 199.355 173.791C199.212 171.296 199.847 168.954 200.765 168.565C201.682 168.176 202.547 169.865 202.69 172.36Z" fill="white"/>
<path fill-rule="evenodd" clip-rule="evenodd" d="M188.286 178.533C188.429 181.027 187.794 183.369 186.877 183.758C185.95 184.151 185.091 182.449 184.951 179.963C184.808 177.468 185.443 175.126 186.361 174.737C187.275 174.339 188.143 176.038 188.286 178.533Z" fill="white"/>
<path fill-rule="evenodd" clip-rule="evenodd" d="M173.881 184.705C174.024 187.2 173.389 189.542 172.472 189.931C171.554 190.32 170.689 188.631 170.546 186.136C170.403 183.641 171.038 181.299 171.956 180.91C172.87 180.512 173.738 182.211 173.881 184.705Z" fill="white"/>
<path fill-rule="evenodd" clip-rule="evenodd" d="M159.475 190.868C159.618 193.363 158.983 195.705 158.066 196.094C157.139 196.487 156.284 194.794 156.141 192.299C155.997 189.804 156.632 187.462 157.55 187.073C158.467 186.684 159.326 188.386 159.475 190.868Z" fill="white"/>
<path d="M301.068 152.038C301.058 152.041 301.039 152.047 301.021 152.054L287.596 155.997C287.123 156.149 286.597 156.057 286.16 155.766C285.666 155.431 285.344 154.858 285.291 154.246C284.925 149.452 284.468 137.362 287.978 128.523C288.153 128.084 288.489 127.748 288.924 127.577L301.344 122.791C301.902 122.578 302.529 122.689 303.013 123.09C303.571 123.55 303.842 124.276 303.72 124.991L303.667 125.325C302.763 130.524 300.875 141.328 302.152 150.056C302.28 150.948 301.829 151.776 301.068 152.038ZM285.821 154.2C285.851 154.652 286.091 155.075 286.458 155.316C286.761 155.527 287.117 155.584 287.44 155.483L300.874 151.536C300.884 151.533 300.893 151.53 300.902 151.527C301.419 151.349 301.722 150.761 301.631 150.13C300.334 141.315 302.234 130.453 303.141 125.232L303.194 124.899C303.287 124.373 303.08 123.834 302.672 123.501C302.336 123.228 301.939 123.144 301.563 123.273C301.553 123.276 301.535 123.283 301.525 123.286L289.105 128.072C288.807 128.185 288.583 128.42 288.463 128.713C285 137.442 285.468 149.444 285.821 154.2Z" fill="#449DCF"/>
<mask id="mask0_8_28203" style="mask-type:alpha" maskUnits="userSpaceOnUse" x="84" y="126" width="66" height="103">
<path fill-rule="evenodd" clip-rule="evenodd" d="M115.805 228.496L84.8657 135.586L86.8205 126.535L149.932 189.953C149.935 189.963 135.448 201.883 115.805 228.496Z" fill="#E1ECFF"/>
</mask>
<g mask="url(#mask0_8_28203)">
<rect x="113.738" y="243.663" width="132" height="63.3964" transform="rotate(-47.4676 113.738 243.663)" fill="white"/>
<rect x="113.738" y="243.663" width="132" height="63.3964" transform="rotate(-47.4676 113.738 243.663)" fill="url(#paint5_linear_8_28203)"/>
<rect x="113.738" y="243.663" width="132" height="63.3964" transform="rotate(-47.4676 113.738 243.663)" fill="url(#paint6_linear_8_28203)"/>
</g>
<path fill-rule="evenodd" clip-rule="evenodd" d="M304.908 171.427L306.941 176.362L41.6486 240.266L52.1502 235.404C52.1596 235.401 202.037 181.318 304.908 171.427Z" fill="#D4EAFF"/>
<path fill-rule="evenodd" clip-rule="evenodd" d="M306.942 176.362C306.942 176.362 285.281 194.05 205.63 214.848C125.979 235.646 35.7687 246.445 35.7687 246.445L41.6487 240.266C41.6487 240.266 198.445 198.354 306.942 176.362Z" fill="#C3DAFF"/>
<path fill-rule="evenodd" clip-rule="evenodd" d="M210.355 264.419C210.355 264.419 241.948 278.796 284.899 249.225L268.082 194.539C268.082 194.539 225.784 191.497 200.739 225.938C200.742 225.948 186.815 245.307 210.355 264.419Z" fill="white"/>
<path d="M284.899 249.224C295.351 245.63 299.675 230.654 294.559 215.774C289.442 200.893 276.821 191.744 266.369 195.338C255.918 198.932 251.593 213.908 256.71 228.789C261.827 243.669 274.448 252.818 284.899 249.224Z" fill="#E7F6FF"/>
<path d="M284.539 246.163C293.89 242.948 297.761 229.554 293.185 216.246C288.609 202.939 277.319 194.758 267.968 197.974C258.617 201.189 254.747 214.583 259.323 227.891C263.898 241.198 275.188 249.379 284.539 246.163Z" fill="url(#paint7_linear_8_28203)"/>
<path d="M279.137 244.878C286.032 242.507 288.496 231.494 284.639 220.279C280.783 209.064 272.067 201.895 265.172 204.266C258.277 206.637 255.814 217.65 259.67 228.865C263.527 240.08 272.242 247.249 279.137 244.878Z" fill="url(#paint8_linear_8_28203)"/>
<g opacity="0.8">
<path fill-rule="evenodd" clip-rule="evenodd" d="M267.692 226.107L264.441 204.517L266.528 203.8L267.692 226.107Z" fill="#090C64"/>
<path fill-rule="evenodd" clip-rule="evenodd" d="M267.692 226.107L259.758 210.155L260.961 207.786L267.692 226.107Z" fill="#090C64"/>
<path fill-rule="evenodd" clip-rule="evenodd" d="M267.69 226.107L258.467 219.618L258.473 216.241L267.69 226.107Z" fill="#090C64"/>
<path fill-rule="evenodd" clip-rule="evenodd" d="M267.691 226.107L260.932 230.387L259.732 226.899L267.691 226.107Z" fill="#090C64"/>
<path fill-rule="evenodd" clip-rule="evenodd" d="M267.689 226.107L266.493 239.565L264.408 236.897L267.689 226.107Z" fill="#090C64"/>
<path fill-rule="evenodd" clip-rule="evenodd" d="M267.69 226.107L273.651 244.694L271.248 243.576L267.69 226.107Z" fill="#090C64"/>
<path fill-rule="evenodd" clip-rule="evenodd" d="M267.692 226.108L280.494 244.413L278.406 245.13L267.692 226.108Z" fill="#090C64"/>
<path fill-rule="evenodd" clip-rule="evenodd" d="M267.692 226.108L285.191 238.782L283.974 241.145L267.692 226.108Z" fill="#090C64"/>
<path fill-rule="evenodd" clip-rule="evenodd" d="M267.692 226.108L286.466 229.313L286.472 232.696L267.692 226.108Z" fill="#090C64"/>
<path fill-rule="evenodd" clip-rule="evenodd" d="M267.69 226.108L284.004 218.553L285.203 222.041L267.69 226.108Z" fill="#0E1974"/>
<path fill-rule="evenodd" clip-rule="evenodd" d="M267.69 226.107L278.451 209.371L280.522 212.033L267.69 226.107Z" fill="#090C64"/>
<path fill-rule="evenodd" clip-rule="evenodd" d="M267.69 226.107L271.281 204.236L273.696 205.361L267.69 226.107Z" fill="#090C64"/>
</g>
<path fill-rule="evenodd" clip-rule="evenodd" d="M271.16 225.534C271.913 227.724 271.433 229.876 270.089 230.338C268.745 230.8 267.043 229.399 266.29 227.208C265.537 225.018 266.016 222.866 267.361 222.404C268.708 221.951 270.406 223.343 271.16 225.534Z" fill="#091046"/>
<g style="mix-blend-mode:multiply" opacity="0.8">
<path fill-rule="evenodd" clip-rule="evenodd" d="M290.576 210.395C290.576 210.395 268.202 202.193 258.752 226.195C258.752 226.195 252.791 203.204 267.98 197.97C281.683 193.247 290.576 210.395 290.576 210.395Z" fill="url(#paint9_linear_8_28203)"/>
</g>
<g style="mix-blend-mode:multiply">
<path fill-rule="evenodd" clip-rule="evenodd" d="M306.942 176.362L285.894 201.577C285.894 201.577 276.994 192.264 268.087 194.549C259.17 196.837 252.613 204.884 255.953 226.338C255.953 226.338 216.532 226.28 198.745 249.942C198.745 249.942 150.712 250.522 124.61 247.282L150.301 227.682C150.301 227.682 71.0013 242.346 35.7961 246.295L41.6528 240.275C41.6496 240.266 238.219 190.754 306.942 176.362Z" fill="#E1ECFF"/>
</g>
<g style="mix-blend-mode:multiply">
<path fill-rule="evenodd" clip-rule="evenodd" d="M461.76 130.873L442.386 137.997C442.386 137.997 369.856 202.707 318.36 226.018C318.36 226.018 377.59 210.003 421.725 189.255C463.52 158.767 461.76 130.873 461.76 130.873Z" fill="#E1ECFF"/>
</g>
<path fill-rule="evenodd" clip-rule="evenodd" d="M442.397 137.994C442.397 137.994 396.612 115.609 353.075 124.43L339.535 142.805C339.535 142.805 383.387 131.994 442.397 137.994Z" fill="white"/>
<path fill-rule="evenodd" clip-rule="evenodd" d="M439.131 141.093C439.131 141.093 432.224 133.45 443.053 137.306C443.053 137.306 443.83 139.961 439.131 141.093Z" fill="white"/>
<path fill-rule="evenodd" clip-rule="evenodd" d="M327.429 130.746C327.429 130.746 334.081 125.757 343.555 128.208L327.429 130.746Z" fill="white"/>
<g style="mix-blend-mode:overlay" opacity="0.5">
<path fill-rule="evenodd" clip-rule="evenodd" d="M173.66 197.636C173.66 197.636 186.257 211.218 189.268 193.53L173.66 197.636Z" fill="white"/>
</g>
<g style="mix-blend-mode:overlay">
<path fill-rule="evenodd" clip-rule="evenodd" d="M212.627 261.483C212.627 261.483 216.816 264.647 229.937 263.52C229.947 263.517 216.317 259.741 212.627 261.483Z" fill="white"/>
</g>
<path fill-rule="evenodd" clip-rule="evenodd" d="M361.477 94.0503C361.477 94.0503 377.626 88.6443 387.063 91.2651C387.063 91.2651 375.257 91.4458 361.477 94.0503Z" fill="white"/>
<g style="mix-blend-mode:overlay">
<path fill-rule="evenodd" clip-rule="evenodd" d="M322.876 209.52C322.876 209.52 343.379 206.075 356.374 197.675L322.876 209.52Z" fill="white"/>
</g>
<path fill-rule="evenodd" clip-rule="evenodd" d="M198.85 163.208C198.85 163.208 247.732 139.114 278.408 128.628C278.408 128.628 223.612 153.684 198.85 163.208Z" fill="white"/>
<g style="mix-blend-mode:multiply" opacity="0.21">
<path fill-rule="evenodd" clip-rule="evenodd" d="M198.738 249.933C198.738 249.933 189.626 230.558 212.61 213.141L207.993 214.266C208.002 214.263 179.849 231.871 198.738 249.933Z" fill="url(#paint10_linear_8_28203)"/>
</g>
<path fill-rule="evenodd" clip-rule="evenodd" d="M429.967 105.768C429.967 105.768 444.658 112.048 454.34 124.645C454.344 124.655 443.468 114.276 429.967 105.768Z" fill="white"/>
<path fill-rule="evenodd" clip-rule="evenodd" d="M264.778 128.984C264.778 128.984 265.066 124.228 269.765 126.733L264.778 128.984Z" fill="white"/>
<path fill-rule="evenodd" clip-rule="evenodd" d="M46.2748 238.128C46.2748 238.128 47.2672 232.363 52.15 235.404L46.2748 238.128Z" fill="white"/>
<path fill-rule="evenodd" clip-rule="evenodd" d="M86.8185 126.535C86.8185 126.535 90.523 120.983 92.6012 129.319C92.6045 129.329 89.5747 130.087 86.8185 126.535Z" fill="#E7F6FF"/>
<defs>
<linearGradient id="paint0_linear_8_28203" x1="426.933" y1="197.206" x2="410.361" y2="149.012" gradientUnits="userSpaceOnUse">
<stop stop-color="#ABD9FF"/>
<stop offset="0.306757" stop-color="#6C91C2"/>
<stop offset="0.6099" stop-color="#3851A8"/>
<stop offset="1" stop-color="#090059"/>
<stop offset="1" stop-color="#090059"/>
</linearGradient>
<linearGradient id="paint1_linear_8_28203" x1="427.631" y1="198.968" x2="404.705" y2="156.579" gradientUnits="userSpaceOnUse">
<stop stop-color="#AEC7F7"/>
<stop offset="0.531914" stop-color="#4868A6"/>
<stop offset="1" stop-color="#110646"/>
</linearGradient>
<linearGradient id="paint2_linear_8_28203" x1="412.473" y1="181.38" x2="409.745" y2="173.448" gradientUnits="userSpaceOnUse">
<stop stop-color="white"/>
<stop offset="0.243" stop-color="#FFEDD3"/>
<stop offset="1" stop-color="#FFECBF"/>
</linearGradient>
<linearGradient id="paint3_linear_8_28203" x1="433.529" y1="96.9912" x2="354.795" y2="115.655" gradientUnits="userSpaceOnUse">
<stop stop-color="#1261AA"/>
<stop offset="1" stop-color="#14CDCD"/>
</linearGradient>
<linearGradient id="paint4_linear_8_28203" x1="97.9133" y1="214.568" x2="339.119" y2="131.625" gradientUnits="userSpaceOnUse">
<stop stop-color="#1261AA"/>
<stop offset="1" stop-color="#14CDCD"/>
</linearGradient>
<linearGradient id="paint5_linear_8_28203" x1="113.737" y1="275.371" x2="245.734" y2="275.371" gradientUnits="userSpaceOnUse">
<stop stop-color="#1261AA"/>
<stop offset="1" stop-color="#14CDCD"/>
</linearGradient>
<linearGradient id="paint6_linear_8_28203" x1="113.737" y1="275.371" x2="245.734" y2="275.371" gradientUnits="userSpaceOnUse">
<stop stop-color="#1261AA"/>
<stop offset="1" stop-color="#14CDCD"/>
</linearGradient>
<linearGradient id="paint7_linear_8_28203" x1="284.545" y1="246.169" x2="267.972" y2="197.974" gradientUnits="userSpaceOnUse">
<stop stop-color="#ABD9FF"/>
<stop offset="0.306757" stop-color="#A9CEFF"/>
<stop offset="0.6099" stop-color="#95ACFB"/>
<stop offset="1" stop-color="#090059"/>
<stop offset="1" stop-color="#AEA6F5"/>
</linearGradient>
<linearGradient id="paint8_linear_8_28203" x1="285.244" y1="247.931" x2="262.318" y2="205.542" gradientUnits="userSpaceOnUse">
<stop stop-color="#AEC7F7"/>
<stop offset="0.531914" stop-color="#4868A6"/>
<stop offset="1" stop-color="#110646"/>
</linearGradient>
<linearGradient id="paint9_linear_8_28203" x1="275.41" y1="220.469" x2="267.706" y2="198.066" gradientUnits="userSpaceOnUse">
<stop stop-color="white"/>
<stop offset="0.0912" stop-color="#FAF1F8"/>
<stop offset="0.2625" stop-color="#EBCDE5"/>
<stop offset="0.4956" stop-color="#778DDC"/>
<stop offset="0.7782" stop-color="#4543B5"/>
<stop offset="1" stop-color="#000F9A"/>
</linearGradient>
<linearGradient id="paint10_linear_8_28203" x1="191.226" y1="236.276" x2="217.47" y2="227.252" gradientUnits="userSpaceOnUse">
<stop stop-color="white"/>
<stop offset="0.0912" stop-color="#F1F2FA"/>
<stop offset="0.2625" stop-color="#CDD0EB"/>
<stop offset="0.4956" stop-color="#9493D4"/>
<stop offset="0.7782" stop-color="#434EB5"/>
<stop offset="1" stop-color="#16009A"/>
</linearGradient>
</defs>
</svg>
