<svg width="191" height="65" viewBox="0 0 191 65" fill="none" xmlns="http://www.w3.org/2000/svg">
<path d="M-0.000289917 64.4645C-0.000289917 64.4645 31.9781 32.9273 39.5025 31.367C47.0268 29.8067 92.3609 26.6388 92.3609 26.6388L102.66 21.5324C104.008 22.946 105.669 24.0207 107.507 24.6696C109.345 25.3185 111.309 25.5234 113.241 25.2677C121.189 25.2677 137.789 1.62664 147.994 0.1609C158.199 -1.30484 190.459 7.72603 190.459 7.72603C190.459 7.72603 158.058 12.7379 147.806 14.2509C137.554 15.764 126.691 33.4947 126.691 33.4947L134.544 36.9463C134.544 36.9463 75.5723 36.9463 51.7295 40.6816C27.8868 44.4169 -0.000289917 64.4645 -0.000289917 64.4645Z" fill="url(#paint0_linear_8_27670)"/>
<defs>
<linearGradient id="paint0_linear_8_27670" x1="86.4734" y1="21.0663" x2="95.5015" y2="64.5859" gradientUnits="userSpaceOnUse">
<stop stop-color="#ABC0ED"/>
<stop offset="0.958061" stop-color="#ABC0ED" stop-opacity="0"/>
</linearGradient>
</defs>
</svg>
