<svg width="919" height="552" viewBox="0 0 919 552" fill="none" xmlns="http://www.w3.org/2000/svg">
<g filter="url(#filter0_d_492_17542)">
<path d="M281.898 267.143L286.681 258.94C227.005 228.849 130.614 176.171 26.6354 147.274C26.6354 147.274 17.026 146.241 7.2556 143.96C35.43 150.537 202.09 228.822 281.898 267.143Z" fill="#D4EAFF"/>
<path fill-rule="evenodd" clip-rule="evenodd" d="M297.948 350.961C297.948 350.961 247.418 382.015 168.34 340.953L185.298 244.675C185.298 244.675 256.374 230.576 306.12 283.681C306.116 283.698 333.805 313.576 297.948 350.961Z" fill="white"/>
<path d="M168.324 340.949C149.843 337.064 139.345 312.585 144.876 286.273C150.407 259.961 169.873 241.78 188.354 245.665C206.835 249.549 217.333 274.029 211.802 300.341C206.27 326.653 186.805 344.834 168.324 340.949Z" fill="#E7F6FF"/>
<path d="M168.286 335.682C151.751 332.206 142.357 310.313 147.304 286.783C152.25 263.253 169.664 246.995 186.198 250.471C202.733 253.947 212.127 275.839 207.181 299.37C202.234 322.9 184.821 339.158 168.286 335.682Z" fill="url(#paint0_linear_492_17542)"/>
<path d="M177.176 332.361C164.984 329.798 158.48 311.644 162.648 291.814C166.817 271.983 180.08 257.985 192.272 260.548C204.464 263.111 210.968 281.264 206.8 301.095C202.631 320.925 189.368 334.923 177.176 332.361Z" fill="url(#paint1_linear_492_17542)"/>
<path fill-rule="evenodd" clip-rule="evenodd" d="M186.612 297.877C185.798 301.75 187.065 305.297 189.443 305.797C191.82 306.297 194.408 303.56 195.223 299.687C196.037 295.814 194.769 292.267 192.392 291.767C190.011 291.284 187.426 294.004 186.612 297.877Z" fill="url(#paint2_linear_492_17542)"/>
<path fill-rule="evenodd" clip-rule="evenodd" d="M636.419 264.866L730.029 143.98L726.007 143.464L630.767 262.029L636.419 264.866Z" fill="#E7F6FF"/>
<path fill-rule="evenodd" clip-rule="evenodd" d="M702.432 322.989L735.256 158.914L730.028 143.981L636.422 264.85C636.418 264.867 663.502 282.016 702.432 322.989Z" fill="white"/>
<path fill-rule="evenodd" clip-rule="evenodd" d="M702.432 322.989L735.256 158.914L730.028 143.981L636.422 264.85C636.418 264.867 663.502 282.016 702.432 322.989Z" fill="#E1ECFF"/>
<path fill-rule="evenodd" clip-rule="evenodd" d="M95.2058 230.579C95.2058 230.579 126.355 168.685 208.437 145.583C287.157 123.44 606.579 246.217 636.419 264.866C666.264 283.498 717.574 336.672 719.606 344.181C721.642 351.674 595.366 385.188 484.662 377.816C373.958 370.445 210.401 334.502 178.935 322.593C147.459 310.648 94.3585 260.621 95.2058 230.579Z" fill="white"/>
<path fill-rule="evenodd" clip-rule="evenodd" d="M95.2049 230.58C95.2049 230.58 138.494 174.222 220.576 151.12C299.296 128.977 606.578 246.217 636.419 264.866C666.263 283.499 717.573 336.672 719.605 344.182C721.641 351.674 595.365 385.188 484.661 377.817C373.958 370.446 210.4 334.502 178.934 322.593C147.458 310.648 94.3575 260.622 95.2049 230.58Z" fill="#EBF2FF"/>
<path fill-rule="evenodd" clip-rule="evenodd" d="M152.31 171.052C152.31 171.052 207.618 176.308 260.062 193.703L259.691 174.166C259.691 174.166 213.056 144.992 177.688 156.929L152.31 171.052Z" fill="url(#paint3_linear_492_17542)"/>
<path d="M241.681 165.05L242.562 165.235L237.978 187.045L237.097 186.859L241.681 165.05Z" fill="#449DCF"/>
<path d="M201.521 153.898L202.107 154.581L178.494 174.824L177.908 174.14L201.521 153.898Z" fill="#449DCF"/>
<g opacity="0.86">
<path fill-rule="evenodd" clip-rule="evenodd" d="M314.159 154.268C348.593 176.416 354.417 270.592 354.417 270.592C354.417 270.592 623.306 297.103 719.605 344.181C719.605 344.181 681.186 293.509 634.972 264.562C588.758 235.615 397.864 171.915 314.159 154.268Z" fill="white"/>
<path fill-rule="evenodd" clip-rule="evenodd" d="M314.159 154.268C348.593 176.416 354.417 270.592 354.417 270.592C354.417 270.592 623.306 297.103 719.605 344.181C719.605 344.181 681.186 293.509 634.972 264.562C588.758 235.615 397.864 171.915 314.159 154.268Z" fill="url(#paint4_linear_492_17542)"/>
</g>
<path fill-rule="evenodd" clip-rule="evenodd" d="M415.586 209.161C415.87 213.421 417.442 217.258 419.08 217.724C420.734 218.193 421.831 215.125 421.542 210.882C421.258 206.621 419.686 202.785 418.048 202.319C416.41 201.853 415.318 204.904 415.586 209.161Z" fill="#00B1F8"/>
<path fill-rule="evenodd" clip-rule="evenodd" d="M441.33 216.584C441.614 220.844 443.186 224.681 444.824 225.147C446.478 225.616 447.574 222.548 447.286 218.304C447.002 214.044 445.43 210.207 443.792 209.742C442.141 209.256 441.045 212.323 441.33 216.584Z" fill="#00B1F8"/>
<path fill-rule="evenodd" clip-rule="evenodd" d="M467.056 224.005C467.341 228.265 468.913 232.102 470.55 232.567C472.205 233.037 473.298 229.986 473.013 225.725C472.728 221.465 471.157 217.628 469.519 217.162C467.868 216.677 466.772 219.744 467.056 224.005Z" fill="#00B1F8"/>
<path fill-rule="evenodd" clip-rule="evenodd" d="M492.787 231.41C493.072 235.67 494.643 239.507 496.281 239.973C497.936 240.442 499.028 237.391 498.743 233.131C498.459 228.87 496.887 225.034 495.249 224.568C493.595 224.098 492.499 227.166 492.787 231.41Z" fill="#00B1F8"/>
<path fill-rule="evenodd" clip-rule="evenodd" d="M518.511 238.832C518.796 243.092 520.368 246.929 522.005 247.395C523.66 247.864 524.756 244.796 524.468 240.553C524.183 236.292 522.612 232.455 520.974 231.99C519.323 231.504 518.227 234.571 518.511 238.832Z" fill="#00B1F8"/>
<path fill-rule="evenodd" clip-rule="evenodd" d="M544.238 246.252C544.523 250.513 546.094 254.349 547.732 254.815C549.387 255.284 550.483 252.217 550.194 247.973C549.91 243.712 548.338 239.876 546.7 239.41C545.066 238.928 543.953 241.992 544.238 246.252Z" fill="#00B1F8"/>
<path fill-rule="evenodd" clip-rule="evenodd" d="M569.969 253.658C570.253 257.918 571.825 261.755 573.463 262.221C575.117 262.69 576.21 259.639 575.925 255.379C575.64 251.118 574.069 247.282 572.431 246.816C570.793 246.35 569.68 249.414 569.969 253.658Z" fill="#00B1F8"/>
<path fill-rule="evenodd" clip-rule="evenodd" d="M595.695 261.079C595.98 265.34 597.551 269.176 599.189 269.642C600.844 270.111 601.936 267.061 601.651 262.8C601.367 258.54 599.795 254.703 598.157 254.237C596.523 253.755 595.41 256.819 595.695 261.079Z" fill="#00B1F8"/>
<path fill-rule="evenodd" clip-rule="evenodd" d="M621.422 268.5C621.706 272.761 623.278 276.597 624.916 277.063C626.57 277.532 627.666 274.465 627.378 270.221C627.093 265.961 625.522 262.124 623.884 261.658C622.25 261.176 621.137 264.24 621.422 268.5Z" fill="#00B1F8"/>
<path fill-rule="evenodd" clip-rule="evenodd" d="M414.611 209.093C414.896 213.353 416.468 217.19 418.106 217.656C419.743 218.122 420.856 215.058 420.568 210.814C420.283 206.553 418.712 202.717 417.074 202.251C415.423 201.765 414.327 204.832 414.611 209.093Z" fill="white"/>
<path fill-rule="evenodd" clip-rule="evenodd" d="M440.342 216.498C440.626 220.758 442.198 224.595 443.836 225.061C445.49 225.53 446.583 222.479 446.298 218.219C446.013 213.958 444.442 210.121 442.804 209.656C441.15 209.186 440.053 212.254 440.342 216.498Z" fill="white"/>
<path fill-rule="evenodd" clip-rule="evenodd" d="M466.068 223.92C466.353 228.18 467.924 232.017 469.562 232.483C471.217 232.952 472.313 229.884 472.025 225.64C471.74 221.38 470.168 217.543 468.53 217.078C466.896 216.595 465.783 219.659 466.068 223.92Z" fill="white"/>
<path fill-rule="evenodd" clip-rule="evenodd" d="M491.795 231.341C492.079 235.601 493.651 239.438 495.289 239.904C496.943 240.373 498.039 237.306 497.751 233.062C497.466 228.801 495.895 224.965 494.257 224.499C492.623 224.016 491.51 227.081 491.795 231.341Z" fill="white"/>
<path fill-rule="evenodd" clip-rule="evenodd" d="M517.523 238.746C517.808 243.006 519.38 246.843 521.017 247.309C522.672 247.778 523.765 244.727 523.48 240.467C523.195 236.206 521.624 232.37 519.986 231.904C518.348 231.438 517.235 234.502 517.523 238.746Z" fill="white"/>
<path fill-rule="evenodd" clip-rule="evenodd" d="M543.25 246.167C543.535 250.428 545.106 254.264 546.744 254.73C548.398 255.199 549.495 252.132 549.206 247.888C548.922 243.628 547.35 239.791 545.712 239.325C544.074 238.859 542.965 241.907 543.25 246.167Z" fill="white"/>
<path fill-rule="evenodd" clip-rule="evenodd" d="M568.976 253.589C569.261 257.849 570.832 261.686 572.47 262.151C574.125 262.621 575.221 259.553 574.933 255.309C574.648 251.049 573.076 247.212 571.439 246.746C569.804 246.264 568.691 249.328 568.976 253.589Z" fill="white"/>
<path fill-rule="evenodd" clip-rule="evenodd" d="M594.705 261.009C594.99 265.27 596.561 269.106 598.199 269.572C599.837 270.038 600.946 266.991 600.662 262.73C600.377 258.47 598.805 254.633 597.168 254.167C595.533 253.685 594.42 256.749 594.705 261.009Z" fill="white"/>
<path fill-rule="evenodd" clip-rule="evenodd" d="M620.433 268.415C620.718 272.675 622.29 276.512 623.928 276.978C625.582 277.447 626.675 274.396 626.39 270.136C626.105 265.875 624.534 262.038 622.896 261.573C621.258 261.107 620.162 264.174 620.433 268.415Z" fill="white"/>
<path d="M372.144 232.505C372.161 232.508 372.194 232.515 372.227 232.522L395.823 236.372C396.658 236.53 397.53 236.262 398.209 235.675C398.975 235.003 399.402 233.965 399.362 232.915C398.969 224.709 397.189 204.113 389.369 189.867C388.98 189.16 388.338 188.661 387.564 188.464L365.493 182.974C364.503 182.731 363.464 183.05 362.727 183.833C361.878 184.731 361.572 186.02 361.931 187.206L362.092 187.761C364.722 196.385 370.207 214.306 369.886 229.375C369.858 230.913 370.798 232.222 372.144 232.505ZM398.452 232.949C398.498 233.723 398.181 234.489 397.609 234.977C397.139 235.398 396.548 235.569 395.979 235.467L372.366 231.614C372.35 231.611 372.333 231.607 372.316 231.604C371.402 231.412 370.765 230.479 370.786 229.39C371.121 214.168 365.604 196.154 362.964 187.493L362.803 186.938C362.535 186.066 362.771 185.109 363.393 184.459C363.905 183.924 364.56 183.697 365.225 183.837C365.242 183.841 365.275 183.848 365.292 183.851L387.362 189.341C387.891 189.47 388.32 189.82 388.586 190.293C396.304 204.361 398.045 224.81 398.452 232.949Z" fill="#449DCF"/>
<mask id="mask0_492_17542" style="mask-type:alpha" maskUnits="userSpaceOnUse" x="636" y="143" width="100" height="180">
<path fill-rule="evenodd" clip-rule="evenodd" d="M702.432 322.989L735.256 158.914L730.028 143.981L636.422 264.85C636.418 264.867 663.502 282.016 702.432 322.989Z" fill="#E1ECFF"/>
</mask>
<g mask="url(#mask0_492_17542)">
<rect width="132" height="63.3964" transform="matrix(-0.761964 -0.64762 -0.64762 0.761964 780.59 269.781)" fill="white"/>
<rect width="132" height="63.3964" transform="matrix(-0.761964 -0.64762 -0.64762 0.761964 780.59 269.781)" fill="url(#paint5_linear_492_17542)"/>
<rect width="132" height="63.3964" transform="matrix(-0.761964 -0.64762 -0.64762 0.761964 780.59 269.781)" fill="url(#paint6_linear_492_17542)"/>
</g>
<path fill-rule="evenodd" clip-rule="evenodd" d="M369.731 266.191L367.326 274.989L830.656 327.272L811.822 321.248C811.806 321.244 546.247 261.22 369.731 266.191Z" fill="#D4EAFF"/>
<path fill-rule="evenodd" clip-rule="evenodd" d="M367.327 274.988C367.327 274.988 407.792 300.4 547.241 318.831C686.691 337.261 841.933 336.506 841.933 336.506L830.657 327.271C830.657 327.271 555.939 289.345 367.327 274.988Z" fill="#C3DAFF"/>
<path fill-rule="evenodd" clip-rule="evenodd" d="M549.706 403.883C549.706 403.883 499.176 434.937 420.099 393.875L437.057 297.597C437.057 297.597 508.132 283.498 557.878 336.603C557.874 336.62 585.58 366.502 549.706 403.883Z" fill="white"/>
<path d="M420.099 393.876C401.618 389.991 391.12 365.512 396.652 339.2C402.183 312.887 421.648 294.706 440.129 298.591C458.61 302.476 469.108 326.956 463.577 353.268C458.046 379.58 438.58 397.761 420.099 393.876Z" fill="#E7F6FF"/>
<path d="M420.061 388.608C403.527 385.132 394.133 363.24 399.079 339.709C404.025 316.179 421.439 299.921 437.974 303.397C454.508 306.873 463.902 328.766 458.956 352.296C454.01 375.826 436.596 392.084 420.061 388.608Z" fill="url(#paint7_linear_492_17542)"/>
<path d="M428.952 385.287C416.76 382.724 410.255 364.571 414.424 344.74C418.592 324.91 431.855 310.912 444.047 313.475C456.239 316.038 462.744 334.191 458.575 354.022C454.407 373.852 441.144 387.85 428.952 385.287Z" fill="url(#paint8_linear_492_17542)"/>
<g opacity="0.8">
<path fill-rule="evenodd" clip-rule="evenodd" d="M444.396 351.039L445.344 313.746L441.654 312.97L444.396 351.039Z" fill="#090C64"/>
<path fill-rule="evenodd" clip-rule="evenodd" d="M444.396 351.041L454.479 322.316L451.937 318.553L444.396 351.041Z" fill="#090C64"/>
<path fill-rule="evenodd" clip-rule="evenodd" d="M444.396 351.039L458.662 338.086L457.938 332.362L444.396 351.039Z" fill="#090C64"/>
<path fill-rule="evenodd" clip-rule="evenodd" d="M444.396 351.041L456.762 356.869L458.059 350.702L444.396 351.041Z" fill="#090C64"/>
<path fill-rule="evenodd" clip-rule="evenodd" d="M444.397 351.039L449.269 373.604L452.24 368.64L444.397 351.039Z" fill="#090C64"/>
<path fill-rule="evenodd" clip-rule="evenodd" d="M444.396 351.042L438.218 383.817L442.057 381.412L444.396 351.042Z" fill="#090C64"/>
<path fill-rule="evenodd" clip-rule="evenodd" d="M444.396 351.041L426.559 384.784L430.249 385.56L444.396 351.041Z" fill="#090C64"/>
<path fill-rule="evenodd" clip-rule="evenodd" d="M444.396 351.041L417.404 376.229L419.966 379.979L444.396 351.041Z" fill="#090C64"/>
<path fill-rule="evenodd" clip-rule="evenodd" d="M444.396 351.041L413.241 360.443L413.945 366.18L444.396 351.041Z" fill="#090C64"/>
<path fill-rule="evenodd" clip-rule="evenodd" d="M444.395 351.04L415.136 341.678L413.839 347.846L444.395 351.04Z" fill="#0E1974"/>
<path fill-rule="evenodd" clip-rule="evenodd" d="M444.396 351.04L422.613 324.938L419.663 329.889L444.396 351.04Z" fill="#090C64"/>
<path fill-rule="evenodd" clip-rule="evenodd" d="M444.396 351.04L433.685 314.715L429.827 317.132L444.396 351.04Z" fill="#090C64"/>
</g>
<path fill-rule="evenodd" clip-rule="evenodd" d="M438.387 350.801C437.573 354.674 438.841 358.221 441.218 358.721C443.595 359.22 446.184 356.484 446.998 352.611C447.812 348.738 446.544 345.19 444.167 344.691C441.787 344.208 439.201 346.927 438.387 350.801Z" fill="#091046"/>
<g style="mix-blend-mode:multiply" opacity="0.8">
<path fill-rule="evenodd" clip-rule="evenodd" d="M402.269 329.235C402.269 329.235 438.472 310.6 459.567 349.299C459.567 349.299 464.816 309.056 437.956 303.392C413.723 298.281 402.269 329.235 402.269 329.235Z" fill="url(#paint9_linear_492_17542)"/>
</g>
<g style="mix-blend-mode:multiply">
<path fill-rule="evenodd" clip-rule="evenodd" d="M367.327 274.989L408.346 313.294C408.346 313.294 421.468 295.622 437.054 297.614C452.656 299.609 465.475 311.868 464.346 348.95C464.346 348.95 531.175 340.519 566.336 376.881C566.336 376.881 647.901 367.712 691.475 356.702L643.77 328.9C643.77 328.9 781.329 337.004 841.856 336.257L830.654 327.289C830.657 327.272 486.895 284.866 367.327 274.989Z" fill="#E1ECFF"/>
</g>
<g style="mix-blend-mode:multiply">
<path fill-rule="evenodd" clip-rule="evenodd" d="M95.2052 230.579L129.561 238.565C129.561 238.565 266.218 332.956 358.46 361.598C358.46 361.598 254.647 346.962 175.427 321.11C98.1163 278.248 95.2052 230.579 95.2052 230.579Z" fill="#E1ECFF"/>
</g>
<path fill-rule="evenodd" clip-rule="evenodd" d="M129.544 238.562C129.544 238.562 202.444 190.93 278.13 196.685L304.971 224.98C304.971 224.98 228.332 215.917 129.544 238.562Z" fill="white"/>
<path fill-rule="evenodd" clip-rule="evenodd" d="M135.736 243.127C135.736 243.127 145.832 228.707 128.285 237.533C128.285 237.533 127.53 242.2 135.736 243.127Z" fill="white"/>
<path fill-rule="evenodd" clip-rule="evenodd" d="M322.948 201.974C322.948 201.974 310.614 194.92 295.069 201.078L322.948 201.974Z" fill="white"/>
<g style="mix-blend-mode:overlay" opacity="0.5">
<path fill-rule="evenodd" clip-rule="evenodd" d="M597.811 282.891C597.811 282.891 579.322 308.582 570.478 279.229L597.811 282.891Z" fill="white"/>
</g>
<g style="mix-blend-mode:overlay">
<path fill-rule="evenodd" clip-rule="evenodd" d="M545.236 399.385C545.236 399.385 538.801 405.635 516.315 406.498C516.299 406.494 538.611 397.211 545.236 399.385Z" fill="white"/>
</g>
<path fill-rule="evenodd" clip-rule="evenodd" d="M257.463 146.951C257.463 146.951 228.938 141.198 213.49 147.636C213.49 147.636 233.547 145.448 257.463 146.951Z" fill="white"/>
<g style="mix-blend-mode:overlay">
<path fill-rule="evenodd" clip-rule="evenodd" d="M347.321 334.58C347.321 334.58 311.829 333.072 288.018 321.575L347.321 334.58Z" fill="white"/>
</g>
<path fill-rule="evenodd" clip-rule="evenodd" d="M547.826 229.839C547.826 229.839 459.85 199.316 405.62 188.021C405.62 188.021 503.827 218.923 547.826 229.839Z" fill="white"/>
<g style="mix-blend-mode:multiply" opacity="0.21">
<path fill-rule="evenodd" clip-rule="evenodd" d="M566.338 376.865C566.338 376.865 577.692 342.089 535.041 317.414L543.107 318.346C543.091 318.343 594.548 342.247 566.338 376.865Z" fill="url(#paint10_linear_492_17542)"/>
</g>
<path fill-rule="evenodd" clip-rule="evenodd" d="M143.807 181.292C143.807 181.292 120.225 195.046 106.47 218.452C106.466 218.468 122.712 198.572 143.807 181.292Z" fill="white"/>
<path fill-rule="evenodd" clip-rule="evenodd" d="M428.805 185.746C428.805 185.746 427.311 177.742 419.873 182.983L428.805 185.746Z" fill="white"/>
<path fill-rule="evenodd" clip-rule="evenodd" d="M822.361 324.626C822.361 324.626 819.46 315.059 811.823 321.248L822.361 324.626Z" fill="white"/>
<path fill-rule="evenodd" clip-rule="evenodd" d="M730.029 143.98C730.029 143.98 722.575 135.348 720.813 149.923C720.809 149.94 726.107 150.585 730.029 143.98Z" fill="#E7F6FF"/>
</g>
<defs>
<filter id="filter0_d_492_17542" x="0.255859" y="-16.0391" width="958.146" height="634.215" filterUnits="userSpaceOnUse" color-interpolation-filters="sRGB">
<feFlood flood-opacity="0" result="BackgroundImageFix"/>
<feColorMatrix in="SourceAlpha" type="matrix" values="0 0 0 0 0 0 0 0 0 0 0 0 0 0 0 0 0 0 127 0" result="hardAlpha"/>
<feOffset dx="35" dy="25"/>
<feGaussianBlur stdDeviation="21"/>
<feComposite in2="hardAlpha" operator="out"/>
<feColorMatrix type="matrix" values="0 0 0 0 0.215686 0 0 0 0 0.458824 0 0 0 0 0.819608 0 0 0 0.1 0"/>
<feBlend mode="normal" in2="BackgroundImageFix" result="effect1_dropShadow_492_17542"/>
<feBlend mode="normal" in="SourceGraphic" in2="effect1_dropShadow_492_17542" result="shape"/>
</filter>
<linearGradient id="paint0_linear_492_17542" x1="168.278" y1="335.692" x2="186.192" y2="250.473" gradientUnits="userSpaceOnUse">
<stop stop-color="#ABD9FF"/>
<stop offset="0.306757" stop-color="#6C91C2"/>
<stop offset="0.6099" stop-color="#3851A8"/>
<stop offset="1" stop-color="#090059"/>
<stop offset="1" stop-color="#090059"/>
</linearGradient>
<linearGradient id="paint1_linear_492_17542" x1="167.466" y1="338.828" x2="197.381" y2="262.109" gradientUnits="userSpaceOnUse">
<stop stop-color="#AEC7F7"/>
<stop offset="0.531914" stop-color="#4868A6"/>
<stop offset="1" stop-color="#110646"/>
</linearGradient>
<linearGradient id="paint2_linear_492_17542" x1="189.449" y1="305.802" x2="192.397" y2="291.777" gradientUnits="userSpaceOnUse">
<stop stop-color="white"/>
<stop offset="0.243" stop-color="#FFEDD3"/>
<stop offset="1" stop-color="#FFECBF"/>
</linearGradient>
<linearGradient id="paint3_linear_492_17542" x1="135.912" y1="167.164" x2="273.357" y2="182.17" gradientUnits="userSpaceOnUse">
<stop stop-color="#1261AA"/>
<stop offset="1" stop-color="#14CDCD"/>
</linearGradient>
<linearGradient id="paint4_linear_492_17542" x1="729.824" y1="295.591" x2="303.311" y2="205.934" gradientUnits="userSpaceOnUse">
<stop stop-color="#1261AA"/>
<stop offset="1" stop-color="#14CDCD"/>
</linearGradient>
<linearGradient id="paint5_linear_492_17542" x1="-0.00150323" y1="31.7075" x2="131.996" y2="31.7075" gradientUnits="userSpaceOnUse">
<stop stop-color="#1261AA"/>
<stop offset="1" stop-color="#14CDCD"/>
</linearGradient>
<linearGradient id="paint6_linear_492_17542" x1="-0.00150323" y1="31.7075" x2="131.996" y2="31.7075" gradientUnits="userSpaceOnUse">
<stop stop-color="#1261AA"/>
<stop offset="1" stop-color="#14CDCD"/>
</linearGradient>
<linearGradient id="paint7_linear_492_17542" x1="420.053" y1="388.619" x2="437.967" y2="303.399" gradientUnits="userSpaceOnUse">
<stop stop-color="#ABD9FF"/>
<stop offset="0.306757" stop-color="#A9CEFF"/>
<stop offset="0.6099" stop-color="#95ACFB"/>
<stop offset="1" stop-color="#090059"/>
<stop offset="1" stop-color="#AEA6F5"/>
</linearGradient>
<linearGradient id="paint8_linear_492_17542" x1="419.242" y1="391.754" x2="449.156" y2="315.035" gradientUnits="userSpaceOnUse">
<stop stop-color="#AEC7F7"/>
<stop offset="0.531914" stop-color="#4868A6"/>
<stop offset="1" stop-color="#110646"/>
</linearGradient>
<linearGradient id="paint9_linear_492_17542" x1="430.113" y1="343.112" x2="438.44" y2="303.498" gradientUnits="userSpaceOnUse">
<stop stop-color="white"/>
<stop offset="0.0912" stop-color="#FAF1F8"/>
<stop offset="0.2625" stop-color="#EBCDE5"/>
<stop offset="0.4956" stop-color="#778DDC"/>
<stop offset="0.7782" stop-color="#4543B5"/>
<stop offset="1" stop-color="#000F9A"/>
</linearGradient>
<linearGradient id="paint10_linear_492_17542" x1="576.189" y1="352.122" x2="529.783" y2="342.367" gradientUnits="userSpaceOnUse">
<stop stop-color="white"/>
<stop offset="0.0912" stop-color="#F1F2FA"/>
<stop offset="0.2625" stop-color="#CDD0EB"/>
<stop offset="0.4956" stop-color="#9493D4"/>
<stop offset="0.7782" stop-color="#434EB5"/>
<stop offset="1" stop-color="#16009A"/>
</linearGradient>
</defs>
</svg>
