<svg width="153" height="24" viewBox="0 0 153 24" fill="none" xmlns="http://www.w3.org/2000/svg">
<path d="M152.227 12.0569C152.227 12.0569 125.656 0 116.674 0C107.692 0 84.1313 12.0569 84.1313 12.0569C84.1313 12.0569 96.1232 16.0759 84.1313 15.6031C72.1394 15.1302 43.0766 8.03795 34.5647 8.03795C26.0528 8.03795 -0.000183105 20.615 -0.000183105 20.615C-0.000183105 20.615 57.0907 16.596 68.6124 20.615C80.134 24.6339 105.152 23.641 105.152 23.641C105.152 23.641 92.1259 13.5699 94.6184 12.0569C113.315 5.79114 133.529 5.79114 152.227 12.0569Z" fill="url(#paint0_linear_8_27661)"/>
<defs>
<linearGradient id="paint0_linear_8_27661" x1="76.3003" y1="3.83651" x2="76.1127" y2="23.7496" gradientUnits="userSpaceOnUse">
<stop stop-color="#ABC0ED"/>
<stop offset="1" stop-color="#ABC0ED" stop-opacity="0"/>
</linearGradient>
</defs>
</svg>
