<svg width="447" height="395" viewBox="0 0 447 395" fill="none" xmlns="http://www.w3.org/2000/svg">
<g clip-path="url(#clip0_1929_1756)">
<path d="M319.69 46.004L322.912 7.5459L318.266 47.1963L319.69 46.004Z" fill="url(#paint0_linear_1929_1756)"/>
<path d="M381.064 70.6516C381.064 70.6516 326.473 29.3639 283.078 28.9724C239.664 28.563 221.9 34.2223 221.9 34.2223L194.044 49.1535L368.712 90.3522L381.064 70.6516Z" fill="url(#paint1_linear_1929_1756)"/>
<path d="M379.604 72.9833C379.604 72.9833 310.185 30.2719 297.191 34.8811C279.231 41.2344 288.363 54.5996 288.363 54.5996L367.446 91.2246L379.604 72.9833Z" fill="#ADC7F6"/>
<path d="M213.428 54.9909L219.266 55.1155L223.93 55.2223L233.096 55.4181L257.553 55.9342L260.668 0.729653L251.145 0.231353L246.517 0L237.333 46.4487L224.036 53.5494L226.19 16.7998L221.847 16.6574L219.017 16.5507L213.428 54.9909Z" fill="white"/>
<path opacity="0.26" d="M259.689 19.8426L242.744 19.0596L240.43 30.7518L259.155 30.4671L259.689 19.8426Z" fill="#ADC7F6"/>
<path opacity="0.85" d="M219.088 56.2546L256.788 63.7825L257.642 60.5079L260.668 0.729745L251.145 0.231445L259.6 1.42381L252.462 54.991L233.096 55.4181L223.912 55.6139L223.93 55.2224L226.19 16.7999L221.847 16.6575L225.033 17.2982L219.266 55.1156L219.088 56.2546Z" fill="#ADC7F6"/>
<path opacity="0.7" d="M330.656 63.7825L335.053 54.5995C335.053 54.5995 306.378 38.8497 301.216 45.3632C296.072 51.8767 330.656 63.7825 330.656 63.7825Z" fill="#ADC7F6"/>
<path opacity="0.7" d="M362.305 81.2939L366.238 70.6516L364.868 69.2813L357.623 85.1913L354.152 83.5185L360.186 65.811L358.976 63.7822L347.833 86.3837L359.154 94.5522L362.305 81.2939Z" fill="#ADC7F6"/>
<path d="M115.636 151.074L246.481 200.085L253.21 202.612L267.521 207.969L285.872 214.838L292.369 215.141L432.025 221.708C432.025 221.708 432.808 188.055 432.487 173.052C432.434 170.756 432.363 168.906 432.256 167.66C432.185 166.895 432.114 166.361 432.025 166.112C430.814 162.979 424.353 160.488 424.353 160.488V144.24L415.062 139.239L415.168 136.836L416.147 116.05L419.476 114.395L420.099 110.836L295.662 40.8604L178.878 48.0679L178.843 48.1213L173.45 56.8949L173.111 57.4466L171.759 59.6534L155.045 86.8641L153.514 89.3556L149.705 95.5487L142.994 106.494L138.224 114.253L115.636 151.074Z" fill="url(#paint2_linear_1929_1756)"/>
<path opacity="0.79" d="M143.013 106.494L271.775 106.156C277.774 106.138 283.754 106.69 289.664 107.811C295.983 109.003 302.213 110.836 308.3 113.31L424.354 160.488V144.24L415.062 139.239L415.169 136.837L416.273 113.132L294.665 51.147L173.13 57.4113L155.063 86.8466L153.532 89.3381L149.723 95.5312L143.013 106.494Z" fill="url(#paint3_linear_1929_1756)"/>
<path d="M405.22 133.864L405.416 145.752L405.22 165.222L405.078 145.77L405.22 133.864Z" fill="url(#paint4_linear_1929_1756)"/>
<path d="M410.185 136.783L410.381 148.671L410.185 168.14L410.043 148.689L410.185 136.783Z" fill="url(#paint5_linear_1929_1756)"/>
<path d="M415.738 138.402L415.951 150.308L415.738 169.76L415.613 150.308L415.738 138.402Z" fill="url(#paint6_linear_1929_1756)"/>
<path d="M422.041 143.617L422.236 153.85L422.041 170.56L421.916 153.85L422.041 143.617Z" fill="url(#paint7_linear_1929_1756)"/>
<path d="M400.058 130.519L400.449 143.296L400.004 161.769L399.506 143.368L400.058 130.519Z" fill="url(#paint8_linear_1929_1756)"/>
<path d="M115.636 151.074L246.481 200.085L292.369 215.141L432.025 221.708C432.025 221.708 433.057 176.968 432.256 167.66L303.28 117.759C294.042 114.182 284.359 112.42 274.623 112.545L138.26 114.271L115.636 151.074Z" fill="url(#paint9_linear_1929_1756)"/>
<path d="M295.682 40.8604L159.532 49.3137L161.739 57.4288L294.685 51.1645L295.682 40.8604Z" fill="white"/>
<path d="M395.589 99.7666L395.803 111.672L395.607 131.124L395.465 111.69L395.589 99.7666Z" fill="url(#paint10_linear_1929_1756)"/>
<path d="M400.572 102.685L400.768 114.591L400.572 134.042L400.43 114.591L400.572 102.685Z" fill="url(#paint11_linear_1929_1756)"/>
<path d="M406.127 104.305L406.322 116.21L406.127 135.68L406.002 116.228L406.127 104.305Z" fill="url(#paint12_linear_1929_1756)"/>
<path d="M412.427 109.537L412.623 119.752L412.427 136.463L412.303 119.77L412.427 109.537Z" fill="url(#paint13_linear_1929_1756)"/>
<path d="M390.427 96.4209L390.836 109.217L390.391 127.671L389.893 109.288L390.427 96.4209Z" fill="url(#paint14_linear_1929_1756)"/>
<path d="M325.333 62.3945L325.689 81.2409L325.227 122.084L324.942 81.2765L325.333 62.3945Z" fill="url(#paint15_linear_1929_1756)"/>
<path d="M335.338 62.3945L335.801 87.3629L335.338 128.206L335.053 87.3985L335.338 62.3945Z" fill="url(#paint16_linear_1929_1756)"/>
<path d="M344.665 70.6519L345.182 89.8898L344.737 130.733L344.434 89.9254L344.665 70.6519Z" fill="url(#paint17_linear_1929_1756)"/>
<path d="M354.597 79.1587L354.846 95.6382L354.472 136.463L354.223 95.656L354.597 79.1587Z" fill="url(#paint18_linear_1929_1756)"/>
<path d="M372.575 89.9248L372.984 106.404L372.504 144.542L372.343 106.422L372.575 89.9248Z" fill="url(#paint19_linear_1929_1756)"/>
<path d="M315.651 52.0371L316.559 78.8563L315.544 117.617L314.405 79.0165L315.651 52.0371Z" fill="url(#paint20_linear_1929_1756)"/>
<path d="M212.412 50.0073L203.957 72.502L192.049 109.091L205.132 72.3952L212.412 50.0073Z" fill="url(#paint21_linear_1929_1756)"/>
<path d="M198.815 50.4883L188.651 72.2711L173.931 107.828L189.826 72.2533L198.815 50.4883Z" fill="url(#paint22_linear_1929_1756)"/>
<path d="M288.043 46.021L286.227 69.975L285.017 108.451L287.331 69.5657L288.043 46.021Z" fill="url(#paint23_linear_1929_1756)"/>
<path d="M303.656 50.0615L301.841 74.0333L300.63 112.509L302.944 73.6062L303.656 50.0615Z" fill="url(#paint24_linear_1929_1756)"/>
<path d="M275.121 50.2754L271.454 74.0336L267.254 112.296L272.576 73.6955L275.121 50.2754Z" fill="url(#paint25_linear_1929_1756)"/>
<path d="M258.104 48.5127L254.615 72.2887L250.717 110.587L255.736 71.9506L258.104 48.5127Z" fill="url(#paint26_linear_1929_1756)"/>
<path d="M241.426 52.0371L236.104 75.475L229.233 113.346L237.243 75.208L241.426 52.0371Z" fill="url(#paint27_linear_1929_1756)"/>
<path d="M183.008 53.1045L172.844 74.8873L158.124 110.445L174.019 74.8873L183.008 53.1045Z" fill="url(#paint28_linear_1929_1756)"/>
<path d="M225.568 51.8228L218.52 76.5776L211.186 111.743L221.118 76.1505L225.568 51.8228Z" fill="url(#paint29_linear_1929_1756)"/>
<path d="M149.74 95.5489L290.428 93.182L291.389 93.1642L424.353 145.913L424.495 145.966L425.367 141.108L415.186 136.854L291.656 85.1914L290.838 85.2092L153.549 89.3558H153.531L149.74 95.5489Z" fill="url(#paint30_linear_1929_1756)"/>
<path d="M271.953 112.579L270.547 145.627L264.709 199.621L268.322 145.627L271.953 112.579Z" fill="url(#paint31_linear_1929_1756)"/>
<path d="M254.402 113.789L253.192 145.627L248.831 191.453L250.771 145.627L254.402 113.789Z" fill="url(#paint32_linear_1929_1756)"/>
<path d="M237.244 113.789L234.823 145.627L231.192 189.05L233.364 144.63L237.244 113.789Z" fill="url(#paint33_linear_1929_1756)"/>
<path d="M221.9 113.789L219.088 145.627L214.834 179.885L217.059 145.627L221.9 113.789Z" fill="url(#paint34_linear_1929_1756)"/>
<path d="M204.957 114.395L202.536 144.168L199.51 172.357L200.721 143.385L204.957 114.395Z" fill="url(#paint35_linear_1929_1756)"/>
<path d="M191.498 114.288L187.386 147.033L177.134 200.12L185.179 146.784L191.498 114.288Z" fill="url(#paint36_linear_1929_1756)"/>
<path d="M173.93 113.541L170.103 145.111L162.022 190.243L167.7 144.844L173.93 113.541Z" fill="url(#paint37_linear_1929_1756)"/>
<path d="M156.844 111.636L151.824 143.065L144.651 185.883L150.454 141.926L156.844 111.636Z" fill="url(#paint38_linear_1929_1756)"/>
<path d="M141.57 109.946L136.159 141.321L129.128 174.938L134.148 141.107L141.57 109.946Z" fill="url(#paint39_linear_1929_1756)"/>
<path d="M325.762 123.578L326.848 156.626L327.275 210.656L326.011 156.679L325.762 123.578Z" fill="url(#paint40_linear_1929_1756)"/>
<path d="M337.243 131.408L338.328 164.438L338.756 218.486L337.492 164.492L337.243 131.408Z" fill="url(#paint41_linear_1929_1756)"/>
<path d="M347.834 134.505L348.92 167.535L349.365 221.583L348.084 167.588L347.834 134.505Z" fill="url(#paint42_linear_1929_1756)"/>
<path d="M372.575 140.645L373.661 169.012L374.088 215.443L372.824 169.065L372.575 140.645Z" fill="url(#paint43_linear_1929_1756)"/>
<path d="M412.625 157.088L413.07 185.474L413.088 231.851L412.625 185.491V157.088Z" fill="url(#paint44_linear_1929_1756)"/>
<path d="M418.641 161.324L419.086 189.71L419.103 236.087L418.641 189.71V161.324Z" fill="url(#paint45_linear_1929_1756)"/>
<path d="M424.498 163.513L424.943 191.916L424.961 238.293L424.498 191.916V163.513Z" fill="url(#paint46_linear_1929_1756)"/>
<path d="M429.463 164.083L429.908 192.468L429.926 238.863L429.481 192.486L429.463 164.083Z" fill="url(#paint47_linear_1929_1756)"/>
<path d="M314.923 118.221L316.56 153.689L316.311 205.014L314.157 153.956L314.923 118.221Z" fill="url(#paint48_linear_1929_1756)"/>
<path d="M302.301 115.427L302.764 153.031L303.066 204.338L301.215 152.016L302.301 115.427Z" fill="url(#paint49_linear_1929_1756)"/>
<path d="M285.695 113.345L286.193 152.604L285.535 194.959L284.182 152.835L285.695 113.345Z" fill="url(#paint50_linear_1929_1756)"/>
<path d="M108.766 151.412L225.318 190.635L234.217 194.034L248.439 195.262L248.831 191.471V191.454L253.281 147.372C253.281 147.372 277.346 143.136 294.914 147.906C310.827 152.213 431.936 197.985 431.936 197.985V196.81C431.936 196.81 318.392 152.871 296.587 145.646C274.783 138.42 253.53 142.015 253.53 142.015L230.301 127.44H109.762L109.211 140.591L108.766 151.412Z" fill="url(#paint51_linear_1929_1756)"/>
<path d="M108.267 146.838L177.757 170.757L208.781 127.422H109.762L108.267 146.838Z" fill="#ADC7F6"/>
<path opacity="0.85" d="M204.956 191.472L233.809 197.078L248.832 198.857L253.531 141.998L230.321 127.422L205.17 189.158L204.956 191.472Z" fill="#ADC7F6"/>
<path opacity="0.79" d="M232.402 139.934L227.668 148.974L246.838 155.452L245.325 168.141L222.719 161.094L218.376 173.035L244.114 181.417L242.69 193.964L246.339 195.957L250.771 149.33L232.402 139.934Z" fill="url(#paint52_linear_1929_1756)"/>
<path d="M416.289 113.15L293.561 54.5997L171.793 59.6539L161.737 57.4294L294.682 51.165L416.289 113.15Z" fill="url(#paint53_linear_1929_1756)"/>
<path d="M293.562 54.5997L171.795 59.6539L161.738 57.4294L294.684 51.165L293.562 54.5997Z" fill="#ADC7F6"/>
<g style="mix-blend-mode:multiply" opacity="0.39">
<path d="M248.458 195.262L253.228 202.594L256.628 207.826L267.539 207.951L432.274 209.82V172.945L432.506 173.034C432.452 170.739 432.381 168.888 432.274 167.642C432.203 166.877 432.132 166.343 432.043 166.094C430.833 162.962 424.371 160.47 424.371 160.47V145.877L424.514 145.93L425.404 141.09L415.205 136.836L416.184 116.05L419.512 114.395L420.135 110.836L295.698 40.8604L294.683 51.1645L292.992 54.617L292.352 55.9339L290.839 85.209L290.429 93.1818L289.682 107.81L289.379 113.808L291.746 186.577L279.233 189.514L274.107 156.857L253.548 141.997L248.458 195.262Z" fill="#5EA1AB"/>
</g>
<g style="mix-blend-mode:multiply" opacity="0.62">
<path d="M424.496 145.966L291.391 93.1641L386.209 134.505L386.619 143.617L346.445 128.205L424.354 160.506L424.496 145.966Z" fill="#5EA1AB"/>
</g>
<g style="mix-blend-mode:multiply" opacity="0.62">
<path d="M293.562 54.5997L386.013 101.831V124.433L412.428 135.68H412.445L415.187 136.855L416.148 116.051L419.494 114.396L412.445 110.836L412.41 110.801L294.683 51.165L293.562 54.5997Z" fill="#5EA1AB"/>
</g>
<g style="mix-blend-mode:multiply" opacity="0.62">
<path d="M432.558 213.682L432.256 167.66L369.103 143.617L420.882 165.845L421.914 194.479L316.558 155.22L421.914 197.345L422.235 209.731L432.558 213.682Z" fill="#5EA1AB"/>
</g>
<path opacity="0.62" d="M277.008 112.545L138.242 114.271L135.999 116.495C135.999 116.495 276.314 113.292 285.018 115.588C293.722 117.884 293.722 117.884 293.722 117.884L359.26 139.435C359.26 139.417 301.215 112.296 277.008 112.545Z" fill="#5EA1AB"/>
<g style="mix-blend-mode:screen" opacity="0.63">
<path d="M283.681 59.6538L281.456 69.1393L186.228 127.138L137.155 126.657L173.929 62.875L283.681 59.6538Z" fill="url(#paint54_linear_1929_1756)"/>
</g>
<g style="mix-blend-mode:multiply" opacity="0.44">
<path d="M388.629 204.339L384.197 152.462L324.052 129.594V184.834L388.629 204.339Z" fill="#5EA1AB"/>
</g>
<path d="M159.334 169.119L159.53 168.639L160.972 164.866L168.003 112.794L168.163 111.548L168.412 109.715L163.98 111.512L163.606 111.655L163.517 112.9L159.37 168.746L159.334 169.119Z" fill="url(#paint55_linear_1929_1756)"/>
<path d="M134.255 163.923L134.932 160.666L137.156 126.657L137.904 115.41L138.082 112.509L136.16 112.313L135.999 116.478L135.537 129.184L134.255 163.923Z" fill="url(#paint56_linear_1929_1756)"/>
<path d="M124.021 166.823L124.679 163.567L126.922 129.451L127.456 121.389L127.848 115.427L125.908 115.214L125.676 121.549L125.445 128.098L124.021 166.823Z" fill="url(#paint57_linear_1929_1756)"/>
<path d="M34.3458 140.966C34.3458 140.966 74.8044 162.98 99.4746 144.133C99.973 143.742 100.489 143.332 100.97 142.923L111.525 147.372C111.525 147.372 115.334 132.174 120.834 128.063C122.454 126.853 124.02 127.12 125.444 128.116C125.96 128.472 126.459 128.935 126.939 129.451C129.538 132.316 131.318 136.961 131.318 136.961C131.318 136.961 132.76 133.705 135.554 129.184C136.053 128.383 136.587 127.529 137.174 126.657C138.99 123.952 141.233 120.945 143.867 118.026C146.964 114.591 154.867 113.239 163.535 112.901C165.013 112.847 194.863 105.408 195.61 105.515L196.002 104.518L195.61 100.069C195.61 100.069 186.39 100.336 172.489 100.87H172.471C130.855 102.436 47.3395 106.227 43.3168 111.655C38.5643 118.062 36.1435 123.899 34.9688 128.668C33.082 136.16 34.3458 140.966 34.3458 140.966Z" fill="url(#paint58_linear_1929_1756)"/>
<path d="M97.927 142.14L99.4756 144.134C99.974 143.742 100.49 143.351 100.971 142.924L111.526 147.373C111.526 147.373 115.335 132.174 120.835 128.063C122.455 126.853 124.021 127.12 125.445 128.117L124.021 166.842L124.769 146.643L126.94 129.469C129.539 132.335 131.319 136.98 131.319 136.98C131.319 136.98 132.761 133.723 135.555 129.202L134.274 163.941L134.719 151.786L137.175 126.693C138.991 123.988 141.233 120.981 143.868 118.044C146.965 114.609 154.868 113.257 163.536 112.919L159.389 168.764C159.443 168.728 159.496 168.693 159.549 168.657L160.973 157.232L168.075 112.011C171.422 111.993 195.629 105.515 195.629 105.515L195.914 101.867C189.809 101.138 143.939 112.474 137.941 115.41C137.246 115.748 136.623 116.104 136.036 116.496C135.787 116.656 135.555 116.834 135.324 117.012C131.782 119.753 129.326 120.998 127.474 121.408C126.816 121.55 126.228 121.586 125.694 121.55C122.117 121.301 121.316 117.492 116.474 120.197C108.963 124.397 97.927 142.14 97.927 142.14Z" fill="#ADC7F6"/>
<path d="M34.9313 128.65L49.1176 131.142C49.1176 131.142 54.3685 116.353 58.8006 112.545C63.2505 108.718 172.451 100.87 172.451 100.87H172.433C130.818 102.436 47.302 106.227 43.2793 111.655C38.509 118.044 36.0883 123.899 34.9313 128.65Z" fill="url(#paint59_linear_1929_1756)"/>
<path d="M34.9313 128.65L49.1176 131.142C49.1176 131.142 54.3685 116.353 58.8006 112.545C63.2505 108.718 172.451 100.87 172.451 100.87H172.433C130.818 102.436 47.302 106.227 43.2793 111.655C38.509 118.044 36.0883 123.899 34.9313 128.65Z" fill="url(#paint60_linear_1929_1756)"/>
<path d="M11.7224 173.764C14.4813 182.556 16.813 188.82 16.813 188.82C16.813 188.82 49.3151 253.19 56.168 293.57H410.22C430.814 269.758 446.354 214.66 446.354 214.66L309.688 178.142L297.976 180.153C297.976 180.153 291.515 199.124 275.78 202.755C271.259 203.805 249.454 196.312 220.014 185.385C146.893 158.246 26.7096 109.964 7.71741 118.791C-2.23258 123.418 5.72388 154.598 11.7224 173.764Z" fill="url(#paint61_linear_1929_1756)"/>
<path d="M11.7225 173.764C11.7225 173.764 6.06227 144.916 11.7759 152.213C17.5074 159.51 34.1679 178.836 47.8914 210.674C61.6149 242.494 67.7202 286.184 67.7202 286.184L405.165 293.552C420.704 286.896 446.336 214.643 446.336 214.643L310.827 181.186L298.332 193.714C298.332 193.714 291.497 199.107 275.744 202.737C271.223 203.787 249.419 196.295 219.978 185.368C146.857 158.228 27.5998 113.274 8.60761 122.101C-1.30678 126.746 5.72408 154.598 11.7225 173.764Z" fill="#ADC7F6"/>
<path d="M275.799 202.737C297.995 204.143 309.707 178.106 309.707 178.106L297.995 180.117C297.995 180.135 291.534 199.106 275.799 202.737Z" fill="white"/>
<path opacity="0.5" d="M82.1212 175.188C64.0012 173.23 75.9981 221.174 92.3382 220.818C108.696 220.444 100.241 177.145 82.1212 175.188Z" fill="#8FB3F3"/>
<path opacity="0.63" d="M92.6411 198.323C86.3045 197.113 89.1524 214.394 94.9373 214.732C100.722 215.07 98.9956 199.534 92.6411 198.323Z" fill="#6392E2"/>
<path opacity="0.63" d="M90.9145 220.711C72.4029 210.531 78.882 181.63 92.2317 183.054C92.7835 183.107 93.3353 183.214 93.8514 183.338C90.7365 178.854 86.7494 175.668 82.1215 175.17C64.5533 173.301 75.322 218.379 90.9145 220.711Z" fill="#6392E2"/>
<path opacity="0.3" d="M412.303 267.711C412.303 267.711 335.426 253.901 271.971 238.846C195.877 220.8 103.693 197.967 103.693 197.967C106.238 215.639 104.565 228.221 95.7543 232.866C95.7543 232.866 205.222 241.141 270.458 250.164C329.855 258.386 405.094 273.513 405.094 273.513L412.303 267.711Z" fill="url(#paint62_linear_1929_1756)"/>
<path opacity="0.5" d="M402.192 253.99L405.289 254.506L414.082 255.948C415.453 256.179 416.805 255.45 417.624 254.061L420.063 249.933C420.597 249.043 420.223 247.744 419.369 247.477L407.87 243.74C406.588 243.33 405.253 243.775 404.31 244.861C404.079 245.128 403.883 245.43 403.705 245.768L401.053 250.911C400.394 252.139 401.017 253.795 402.192 253.99Z" fill="#729FEF"/>
<path opacity="0.63" d="M402.191 253.991L405.289 254.507C405.965 254.186 406.552 253.635 406.997 252.887L409.436 248.741C409.97 247.851 409.596 246.552 408.742 246.285L404.31 244.843C404.078 245.11 403.882 245.413 403.704 245.751L401.052 250.894C400.394 252.14 401.017 253.795 402.191 253.991Z" fill="#4A7ED8"/>
<path opacity="0.5" d="M379.07 250.218L384.765 251.055L394.751 252.514C395.552 252.638 396.353 252.229 396.798 251.464L400.376 245.235C401.123 243.936 400.518 242.192 399.148 241.8L383.715 237.173C382.754 236.889 381.722 237.387 381.295 238.366L381.17 238.633L377.45 246.926C376.827 248.332 377.646 250.005 379.07 250.218Z" fill="#729FEF"/>
<path opacity="0.63" d="M379.069 250.218L384.765 251.054C385.05 250.877 385.299 250.61 385.477 250.307L389.055 244.078C389.803 242.779 389.197 241.035 387.845 240.644L381.188 238.65L377.467 246.944C376.827 248.332 377.645 250.005 379.069 250.218Z" fill="#4A7ED8"/>
<path opacity="0.5" d="M351.908 246.837L359.206 247.798L369.583 249.168C371.078 249.364 372.538 248.563 373.178 247.192L376.525 239.896C377.415 237.956 376.329 235.696 374.264 235.162L357.034 230.66C355.486 230.25 353.884 230.962 353.136 232.315C353.065 232.439 353.011 232.564 352.958 232.706L349.167 242.192C348.33 244.256 349.683 246.552 351.908 246.837Z" fill="#729FEF"/>
<path opacity="0.63" d="M351.909 246.836L359.207 247.797C359.652 247.459 360.008 247.014 360.257 246.498L363.603 239.202C364.493 237.262 363.407 235.002 361.343 234.468L353.119 232.314C353.048 232.439 352.995 232.564 352.941 232.706L349.15 242.191C348.331 244.256 349.684 246.552 351.909 246.836Z" fill="#4A7ED8"/>
<path opacity="0.5" d="M315.347 239.7L330.958 241.836L339.662 243.028C341.317 243.259 342.919 242.352 343.578 240.821L347.244 232.243C348.152 230.126 346.888 227.705 344.628 227.225L319.602 221.815C318 221.477 316.415 222.206 315.632 223.541C315.472 223.808 315.347 224.11 315.258 224.431L312.322 235.073C311.699 237.226 313.14 239.398 315.347 239.7Z" fill="#729FEF"/>
<path opacity="0.63" d="M315.346 239.7L330.956 241.836C331.223 241.551 331.437 241.195 331.597 240.821L335.264 232.243C336.172 230.126 334.908 227.705 332.647 227.225L315.613 223.541C315.453 223.808 315.328 224.111 315.239 224.431L312.302 235.073C311.697 237.226 313.139 239.398 315.346 239.7Z" fill="#4A7ED8"/>
<path d="M341.941 274.297C341.691 275.524 341.976 276.646 342.617 276.77C343.24 276.895 343.952 276.005 344.219 274.777C344.468 273.549 344.183 272.428 343.543 272.303C342.92 272.161 342.208 273.069 341.941 274.297Z" fill="#789AD4"/>
<path d="M337.206 273.763C336.939 275.044 337.26 276.183 337.901 276.325C338.541 276.468 339.289 275.525 339.556 274.261C339.823 272.98 339.503 271.841 338.862 271.698C338.203 271.556 337.473 272.499 337.206 273.763Z" fill="#789AD4"/>
<path d="M332.4 273.336C332.116 274.724 332.454 275.97 333.148 276.112C333.86 276.254 334.661 275.258 334.946 273.87C335.231 272.481 334.892 271.236 334.198 271.093C333.504 270.933 332.703 271.948 332.4 273.336Z" fill="#789AD4"/>
<path d="M327.736 272.677C327.452 274.065 327.79 275.31 328.484 275.453C329.196 275.595 329.997 274.599 330.282 273.21C330.567 271.822 330.228 270.577 329.534 270.434C328.822 270.292 328.021 271.306 327.736 272.677Z" fill="#789AD4"/>
<path d="M322.326 272.037C322.023 273.478 322.379 274.759 323.109 274.902C323.839 275.062 324.676 274.012 324.96 272.571C325.263 271.129 324.907 269.848 324.177 269.705C323.465 269.563 322.629 270.613 322.326 272.037Z" fill="#789AD4"/>
<path d="M316.47 271.538C316.168 272.979 316.524 274.261 317.254 274.421C317.983 274.581 318.82 273.531 319.123 272.09C319.425 270.648 319.069 269.367 318.339 269.207C317.61 269.046 316.773 270.096 316.47 271.538Z" fill="#789AD4"/>
<path d="M310.701 270.897C310.381 272.463 310.755 273.869 311.556 274.029C312.357 274.189 313.264 273.05 313.585 271.484C313.905 269.918 313.531 268.512 312.73 268.352C311.929 268.192 311.022 269.331 310.701 270.897Z" fill="#789AD4"/>
<path d="M303.581 270.15C303.243 271.823 303.634 273.318 304.489 273.496C305.343 273.674 306.304 272.464 306.643 270.791C306.981 269.118 306.589 267.623 305.735 267.445C304.88 267.285 303.919 268.477 303.581 270.15Z" fill="#789AD4"/>
<path d="M296.782 269.385C296.444 271.057 296.836 272.552 297.69 272.73C298.544 272.908 299.506 271.698 299.844 270.025C300.182 268.352 299.79 266.857 298.936 266.679C298.099 266.502 297.138 267.712 296.782 269.385Z" fill="#789AD4"/>
<path d="M290.769 268.531C290.43 270.203 290.822 271.698 291.676 271.876C292.531 272.054 293.492 270.844 293.83 269.171C294.168 267.498 293.777 266.003 292.922 265.825C292.086 265.648 291.125 266.858 290.769 268.531Z" fill="#789AD4"/>
<path d="M284.644 267.623C284.305 269.296 284.697 270.791 285.551 270.969C286.406 271.146 287.367 269.936 287.705 268.263C288.043 266.591 287.652 265.096 286.797 264.918C285.961 264.74 285 265.95 284.644 267.623Z" fill="#789AD4"/>
<path d="M253.903 225.374C253.405 226.958 253.636 228.452 254.437 228.702C255.238 228.951 256.306 227.883 256.804 226.299C257.303 224.715 257.071 223.22 256.27 222.971C255.469 222.722 254.419 223.79 253.903 225.374Z" fill="#789AD5"/>
<path d="M247.762 224.039C247.246 225.676 247.495 227.225 248.314 227.492C249.15 227.759 250.236 226.637 250.77 225C251.286 223.363 251.037 221.815 250.218 221.548C249.382 221.281 248.296 222.402 247.762 224.039Z" fill="#789AD5"/>
<path d="M241.549 222.793C240.979 224.573 241.246 226.246 242.154 226.53C243.062 226.815 244.237 225.605 244.806 223.843C245.376 222.064 245.109 220.391 244.201 220.106C243.311 219.821 242.119 221.031 241.549 222.793Z" fill="#789AD5"/>
<path d="M235.516 221.316C234.946 223.095 235.213 224.768 236.121 225.053C237.029 225.338 238.221 224.127 238.773 222.366C239.343 220.586 239.076 218.913 238.168 218.628C237.278 218.326 236.085 219.536 235.516 221.316Z" fill="#789AD5"/>
<path d="M228.521 219.733C227.934 221.566 228.218 223.31 229.144 223.594C230.07 223.897 231.316 222.651 231.903 220.8C232.49 218.967 232.206 217.223 231.28 216.938C230.337 216.654 229.108 217.899 228.521 219.733Z" fill="#789AD5"/>
<path d="M220.921 218.273C220.334 220.124 220.619 221.85 221.544 222.153C222.488 222.455 223.716 221.192 224.303 219.358C224.891 217.508 224.606 215.781 223.68 215.479C222.755 215.176 221.526 216.422 220.921 218.273Z" fill="#789AD5"/>
<path d="M213.248 216.315C212.643 218.22 212.928 220.017 213.889 220.32C214.85 220.622 216.132 219.341 216.737 217.437C217.342 215.532 217.058 213.735 216.096 213.432C215.135 213.112 213.854 214.411 213.248 216.315Z" fill="#789AD5"/>
<path d="M204.331 214.589C203.672 216.636 203.992 218.575 205.025 218.914C206.075 219.252 207.445 217.846 208.104 215.799C208.763 213.753 208.442 211.813 207.41 211.475C206.36 211.154 204.989 212.542 204.331 214.589Z" fill="#789AD5"/>
<path d="M196.107 212.365C195.431 214.5 195.751 216.511 196.837 216.867C197.923 217.205 199.346 215.764 200.041 213.628C200.717 211.493 200.397 209.482 199.311 209.126C198.207 208.77 196.783 210.229 196.107 212.365Z" fill="#789AD5"/>
<path d="M187.689 210.549C187.013 212.685 187.333 214.696 188.419 215.052C189.505 215.39 190.929 213.948 191.623 211.813C192.299 209.677 191.979 207.666 190.893 207.31C189.807 206.972 188.365 208.414 187.689 210.549Z" fill="#789AD5"/>
<path d="M179.787 208.787C179.11 210.923 179.431 212.934 180.516 213.29C181.602 213.628 183.026 212.186 183.72 210.051C184.397 207.915 184.076 205.904 182.991 205.548C181.905 205.192 180.463 206.651 179.787 208.787Z" fill="#789AD5"/>
<path d="M171.935 206.634C171.205 208.93 171.561 211.083 172.718 211.457C173.875 211.831 175.406 210.282 176.153 207.987C176.901 205.691 176.545 203.538 175.37 203.182C174.195 202.808 172.665 204.356 171.935 206.634Z" fill="#789AD5"/>
<path d="M163.623 204.552C162.893 206.848 163.249 209.001 164.406 209.375C165.563 209.749 167.094 208.2 167.841 205.904C168.571 203.609 168.215 201.455 167.058 201.082C165.901 200.726 164.352 202.274 163.623 204.552Z" fill="#789AD5"/>
<path d="M155.168 202.399C154.438 204.694 154.794 206.848 155.951 207.221C157.108 207.595 158.639 206.047 159.386 203.751C160.116 201.455 159.76 199.302 158.603 198.928C157.428 198.554 155.897 200.103 155.168 202.399Z" fill="#789AD5"/>
<mask id="mask0_1929_1756" style="mask-type:alpha" maskUnits="userSpaceOnUse" x="0" y="288" width="446" height="107">
<path d="M0 288H446V395H0V288Z" fill="url(#paint63_linear_1929_1756)"/>
</mask>
<g mask="url(#mask0_1929_1756)">
<g opacity="0.5">
<g style="mix-blend-mode:overlay">
<path d="M432.254 372.212C432.183 372.692 432.112 373.031 432.023 373.173C430.812 375.131 424.351 376.679 424.351 376.679V386.823L415.06 389.937L415.166 391.45L415.451 395.152H128.005L115.634 382.569L246.479 351.96L253.208 350.394L267.519 347.048L285.87 342.759L292.367 342.563L432.023 338.452C432.023 338.452 432.806 359.488 432.486 368.848C432.432 370.272 432.361 371.429 432.254 372.212Z" fill="url(#paint64_linear_1929_1756)"/>
<path opacity="0.79" d="M415.187 391.45L415.454 395.152H351.642L424.354 376.679V386.823L415.08 389.955L415.187 391.45Z" fill="url(#paint65_linear_1929_1756)"/>
<path d="M405.22 393.318L405.416 385.88L405.22 373.725L405.078 385.88L405.22 393.318Z" fill="url(#paint66_linear_1929_1756)"/>
<path d="M410.185 391.503L410.381 384.064L410.185 371.909L410.043 384.064L410.185 391.503Z" fill="url(#paint67_linear_1929_1756)"/>
<path d="M415.738 390.488L415.951 383.049L415.738 370.895L415.613 383.032L415.738 390.488Z" fill="url(#paint68_linear_1929_1756)"/>
<path d="M422.041 387.214L422.236 380.843L422.041 370.396L421.916 380.825L422.041 387.214Z" fill="url(#paint69_linear_1929_1756)"/>
<path d="M400.04 395.151L399.506 387.374L400.004 375.878L400.449 387.428L400.058 395.151H400.04Z" fill="url(#paint70_linear_1929_1756)"/>
<path d="M337.313 395.152H128.007L115.636 382.569L246.481 351.96L292.369 342.545L432.025 338.452C432.025 338.452 433.057 366.393 432.256 372.212L337.313 395.152Z" fill="url(#paint71_linear_1929_1756)"/>
<path d="M372.45 395.152L372.504 386.645L372.682 395.152H372.45Z" fill="url(#paint72_linear_1929_1756)"/>
<path d="M401.017 395.151H386.6L424.353 385.79L424.495 385.755L425.367 388.798L415.186 391.45L401.017 395.151Z" fill="url(#paint73_linear_1929_1756)"/>
<path d="M269.943 395.152L268.324 385.969L264.71 352.245L270.549 385.969L271.189 395.152H269.943Z" fill="url(#paint74_linear_1929_1756)"/>
<path d="M252.447 395.152L250.773 385.969L248.833 357.334L253.194 385.969L253.746 395.152H252.447Z" fill="url(#paint75_linear_1929_1756)"/>
<path d="M235.093 395.152L233.366 386.592L231.195 358.847L234.826 385.969L235.947 395.152H235.093Z" fill="url(#paint76_linear_1929_1756)"/>
<path d="M219.305 395.152L217.062 385.969L214.837 364.578L219.091 385.969L220.391 395.152H219.305Z" fill="url(#paint77_linear_1929_1756)"/>
<path d="M202.537 395.152L200.722 387.375L199.511 369.276L202.537 386.877L203.605 395.152H202.537Z" fill="url(#paint78_linear_1929_1756)"/>
<path d="M188.261 395.152L185.182 385.239L177.136 351.924L187.389 385.097L189.418 395.152H188.261Z" fill="url(#paint79_linear_1929_1756)"/>
<path d="M170.461 395.152L167.702 386.468L162.024 358.1L170.105 386.29L171.814 395.152H170.461Z" fill="url(#paint80_linear_1929_1756)"/>
<path d="M152.769 395.152L150.455 388.283L144.652 360.823L151.825 387.571L153.766 395.152H152.769Z" fill="url(#paint81_linear_1929_1756)"/>
<path d="M136.569 395.152L134.148 388.799L129.129 367.657L136.159 388.657L137.939 395.152H136.569Z" fill="url(#paint82_linear_1929_1756)"/>
<path d="M325.994 395.152H325.816L326.011 379.064L327.275 345.339L326.848 379.099L325.994 395.152Z" fill="url(#paint83_linear_1929_1756)"/>
<path d="M337.243 394.849L338.328 374.223L338.756 340.446L337.492 374.188L337.243 394.849Z" fill="url(#paint84_linear_1929_1756)"/>
<path d="M347.834 392.909L348.92 372.283L349.365 338.523L348.084 372.248L347.834 392.909Z" fill="url(#paint85_linear_1929_1756)"/>
<path d="M372.575 389.084L373.661 371.358L374.088 342.35L372.824 371.323L372.575 389.084Z" fill="url(#paint86_linear_1929_1756)"/>
<path d="M412.625 378.815L413.07 361.072L413.088 332.099L412.625 361.072V378.815Z" fill="url(#paint87_linear_1929_1756)"/>
<path d="M418.641 376.163L419.086 358.438L419.103 329.465L418.641 358.42V376.163Z" fill="url(#paint88_linear_1929_1756)"/>
<path d="M424.498 374.793L424.943 357.05L424.961 328.077L424.498 357.05V374.793Z" fill="url(#paint89_linear_1929_1756)"/>
<path d="M429.463 374.437L429.908 356.694L429.926 327.721L429.481 356.694L429.463 374.437Z" fill="url(#paint90_linear_1929_1756)"/>
<path d="M314.656 395.152L314.157 380.773L316.311 348.881L316.56 380.933L315.51 395.152H314.656Z" fill="url(#paint91_linear_1929_1756)"/>
<path d="M302.497 395.152H301.838L301.215 381.983L303.066 349.291L302.764 381.342L302.497 395.152Z" fill="url(#paint92_linear_1929_1756)"/>
<path d="M285.018 395.152L284.182 381.466L285.535 355.146L286.193 381.609L285.908 395.152H285.018Z" fill="url(#paint93_linear_1929_1756)"/>
<path d="M253.53 388.229L235.89 395.152H109.62L109.228 389.119L108.783 382.338L225.335 357.833L234.235 355.697L248.457 354.932L248.848 357.299V357.317L253.298 384.865C253.298 384.865 277.363 387.499 294.932 384.527C310.844 381.84 431.953 353.241 431.953 353.241V353.971C431.953 353.971 318.409 381.413 296.605 385.933C274.8 390.489 253.53 388.229 253.53 388.229Z" fill="url(#paint94_linear_1929_1756)"/>
<path d="M109.497 395.151L108.269 385.221L177.758 370.272L206.273 395.151H109.497Z" fill="#ADC7F6"/>
<path opacity="0.85" d="M228.875 395.151L205.166 358.776L204.952 357.334L233.805 353.828L248.828 352.707L253.527 388.229L235.888 395.151H228.875Z" fill="#ADC7F6"/>
<path opacity="0.79" d="M232.402 389.528L227.668 383.869L246.838 379.829L245.325 371.91L222.719 376.305L218.376 368.849L244.114 363.616L242.69 355.768L246.339 354.522L250.771 383.655L232.402 389.528Z" fill="url(#paint95_linear_1929_1756)"/>
<path opacity="0.89" d="M432.025 373.173C430.815 375.131 424.353 376.679 424.353 376.679V385.791L424.496 385.755L425.386 388.78L415.187 391.45L415.471 395.152H289.948L291.764 360.395L279.251 358.562L274.125 378.975L253.566 388.264L248.475 354.985L253.246 350.411L256.645 347.137L267.557 347.066L432.292 345.891V368.937L432.523 368.884C432.47 370.308 432.399 371.482 432.292 372.248C432.203 372.693 432.114 373.013 432.025 373.173Z" fill="#5EA1AB"/>
<path opacity="0.62" d="M378.003 395.152L386.209 392.91L386.618 387.215L353.565 395.152H353.031L424.354 376.679L424.496 385.755L386.601 395.152H378.003Z" fill="#5EA1AB"/>
<path opacity="0.62" d="M401.287 395.152L412.429 392.18H412.447L415.188 391.45L415.455 395.152H401.287Z" fill="#5EA1AB"/>
<path opacity="0.62" d="M432.558 343.454L432.256 372.213L369.103 387.215L420.882 373.334L421.914 355.448L316.558 379.99L421.914 353.669L422.235 345.927L432.558 343.454Z" fill="#5EA1AB"/>
<path opacity="0.62" d="M333.433 395.152L359.242 389.849C359.242 389.849 351.179 392.198 339.805 395.152H333.433Z" fill="#5EA1AB"/>
<path opacity="0.44" d="M327.576 395.152H324.052V361.481L388.629 349.291L384.197 381.698L327.576 395.152Z" fill="#5EA1AB"/>
<path d="M162.183 395.152L159.37 371.536L159.335 371.287L159.531 371.589L160.972 373.956L165.547 395.152H162.183Z" fill="url(#paint96_linear_1929_1756)"/>
<path d="M135.465 395.152L134.254 374.544L134.931 376.573L136.889 395.152H135.465Z" fill="url(#paint97_linear_1929_1756)"/>
<path d="M125.337 395.151L124.02 372.728L124.678 374.757L126.832 395.151H125.337Z" fill="url(#paint98_linear_1929_1756)"/>
<path d="M128.094 395.152C130.034 393.443 131.298 391.396 131.298 391.396C131.298 391.396 132.384 392.927 134.484 395.152H128.094Z" fill="url(#paint99_linear_1929_1756)"/>
<path d="M34.4534 395.152C33.3498 391.29 34.3466 388.887 34.3466 388.887C34.3466 388.887 74.8051 375.131 99.4754 386.912C99.9738 387.161 100.49 387.41 100.971 387.677L111.526 384.901C111.526 384.901 114.178 391.486 118.236 395.169H34.4534V395.152Z" fill="url(#paint100_linear_1929_1756)"/>
<path d="M125.338 395.152L124.751 385.346L126.744 395.152H125.338Z" fill="#ADC7F6"/>
<path d="M128.079 395.152C130.019 393.444 131.283 391.397 131.283 391.397C131.283 391.397 132.368 392.927 134.469 395.152H128.079Z" fill="#ADC7F6"/>
<path d="M124.748 385.345L124.018 372.728L124.748 385.345Z" fill="#ADC7F6"/>
<path d="M105.759 395.152C101.398 391.628 97.9268 388.14 97.9268 388.14L99.4754 386.894C99.9738 387.143 100.49 387.393 100.971 387.66L111.526 384.883C111.526 384.883 114.178 391.468 118.236 395.152H105.759V395.152Z" fill="#ADC7F6"/>
<path d="M134.699 382.143L134.254 374.544L134.699 382.143Z" fill="#ADC7F6"/>
<path d="M135.465 395.152L134.699 382.143L136.746 395.152H135.465Z" fill="#ADC7F6"/>
<path d="M162.183 395.152L159.37 371.536C159.424 371.554 159.477 371.572 159.531 371.607L160.954 378.744L165.084 395.17H162.183V395.152Z" fill="#ADC7F6"/>
<path d="M297.994 364.417C297.994 364.417 291.532 352.565 275.798 350.305C271.276 349.646 249.472 354.327 220.031 361.161C176.493 371.251 116.277 386.022 70.6747 395.17H3.01837C2.89377 387.659 7.75304 376.377 11.7224 368.404C14.4813 362.905 16.8131 359.007 16.8131 359.007C16.8131 359.007 49.3152 318.787 56.168 293.57H410.22C430.814 308.448 446.354 342.866 446.354 342.866L309.688 365.681L297.994 364.417Z" fill="url(#paint101_linear_1929_1756)"/>
<path d="M298.366 355.928C298.366 355.928 291.531 352.565 275.778 350.287C271.257 349.628 249.453 354.309 220.012 361.143C174.125 371.785 110.082 386.805 64.034 395.152H3.88907C2.6075 388.336 7.41342 376.982 11.7031 368.386C11.7031 368.386 6.04285 386.414 11.7565 381.84C17.488 377.284 34.1484 365.2 47.8719 345.322C61.5954 325.443 67.7007 298.143 67.7007 298.143L405.146 293.534C420.685 297.699 446.316 342.83 446.316 342.83L310.808 363.723L298.366 355.928Z" fill="#ADC7F6"/>
<path d="M275.799 350.287C297.995 349.397 309.707 365.663 309.707 365.663L297.995 364.4C297.995 364.418 291.534 352.565 275.799 350.287Z" fill="white"/>
<path opacity="0.5" d="M82.1212 367.495C64.0012 368.723 75.9981 338.772 92.3382 339.003C108.696 339.217 100.241 366.285 82.1212 367.495Z" fill="#ADC7F6"/>
<path opacity="0.5" d="M92.6411 353.045C86.3045 353.792 89.1524 343.008 94.9373 342.794C100.722 342.58 98.9956 352.297 92.6411 353.045Z" fill="#ADC7F6"/>
<path opacity="0.5" d="M90.9145 339.056C72.4029 345.409 78.882 363.473 92.2317 362.583C92.7835 362.547 93.3353 362.494 93.8514 362.405C90.7365 365.199 86.7494 367.192 82.1215 367.513C64.5533 368.687 75.322 340.515 90.9145 339.056Z" fill="#ADC7F6"/>
<path opacity="0.22" d="M412.305 309.693C412.305 309.693 335.428 318.325 271.973 327.721C195.879 338.986 103.695 353.259 103.695 353.259C106.24 342.208 104.567 334.359 95.7564 331.458C95.7564 331.458 205.224 326.298 270.46 320.656C329.857 315.513 405.096 306.063 405.096 306.063L412.305 309.693Z" fill="#ADC7F6"/>
<path opacity="0.5" d="M402.192 318.271L405.289 317.951L414.082 317.043C415.453 316.901 416.805 317.363 417.624 318.218L420.063 320.798C420.597 321.368 420.223 322.168 419.369 322.329L407.87 324.66C406.588 324.927 405.253 324.642 404.31 323.948C404.079 323.788 403.883 323.592 403.705 323.379L401.053 320.175C400.394 319.428 401.017 318.396 402.192 318.271Z" fill="#ADC7F6"/>
<path opacity="0.63" d="M402.191 318.271L405.289 317.951C405.965 318.147 406.552 318.503 406.997 318.966L409.436 321.546C409.97 322.116 409.596 322.916 408.742 323.077L404.31 323.984C404.078 323.824 403.882 323.628 403.704 323.415L401.052 320.211C400.394 319.428 401.017 318.396 402.191 318.271Z" fill="#ADC7F6"/>
<path opacity="0.5" d="M379.07 320.638L384.765 320.122L394.751 319.214C395.552 319.143 396.353 319.392 396.798 319.873L400.376 323.77C401.123 324.589 400.518 325.674 399.148 325.923L383.715 328.806C382.754 328.984 381.722 328.682 381.295 328.059L381.17 327.899L377.45 322.72C376.827 321.812 377.646 320.762 379.07 320.638Z" fill="#ADC7F6"/>
<path opacity="0.63" d="M379.069 320.638L384.765 320.122C385.05 320.228 385.299 320.389 385.477 320.584L389.055 324.482C389.803 325.3 389.197 326.386 387.845 326.635L381.188 327.881L377.467 322.702C376.827 321.812 377.645 320.762 379.069 320.638Z" fill="#ADC7F6"/>
<path opacity="0.5" d="M351.908 322.738L359.206 322.133L369.583 321.279C371.078 321.154 372.538 321.652 373.178 322.507L376.525 327.063C377.415 328.273 376.329 329.679 374.264 330.017L357.034 332.829C355.486 333.078 353.884 332.651 353.136 331.796C353.065 331.725 353.011 331.636 352.958 331.547L349.167 325.621C348.33 324.358 349.683 322.934 351.908 322.738Z" fill="#ADC7F6"/>
<path opacity="0.63" d="M351.907 322.738L359.204 322.133C359.649 322.346 360.005 322.613 360.255 322.951L363.601 327.507C364.491 328.717 363.405 330.123 361.34 330.462L353.117 331.814C353.046 331.743 352.992 331.654 352.939 331.565L349.148 325.639C348.329 324.357 349.682 322.934 351.907 322.738Z" fill="#ADC7F6"/>
<path opacity="0.5" d="M315.347 327.205L330.958 325.87L339.662 325.123C341.317 324.98 342.919 325.55 343.578 326.493L347.244 331.85C348.152 333.167 346.888 334.679 344.628 334.982L319.602 338.363C318 338.577 316.415 338.114 315.632 337.278C315.472 337.1 315.347 336.922 315.258 336.726L312.322 330.07C311.699 328.735 313.14 327.383 315.347 327.205Z" fill="#ADC7F6"/>
<path opacity="0.63" d="M315.346 327.205L330.956 325.87C331.223 326.048 331.437 326.262 331.597 326.493L335.264 331.85C336.172 333.167 334.908 334.679 332.647 334.982L315.613 337.278C315.453 337.1 315.328 336.922 315.239 336.726L312.302 330.07C311.697 328.735 313.139 327.383 315.346 327.205Z" fill="#ADC7F6"/>
<path d="M341.941 305.582C341.691 304.817 341.976 304.123 342.617 304.034C343.24 303.945 343.952 304.515 344.219 305.28C344.468 306.045 344.183 306.739 343.543 306.828C342.92 306.917 342.208 306.365 341.941 305.582Z" fill="#ADC7F6"/>
<path d="M337.206 305.921C336.939 305.12 337.26 304.408 337.901 304.319C338.541 304.23 339.289 304.817 339.556 305.618C339.823 306.419 339.503 307.131 338.862 307.22C338.203 307.291 337.473 306.721 337.206 305.921Z" fill="#ADC7F6"/>
<path d="M332.4 306.187C332.116 305.315 332.454 304.55 333.148 304.461C333.842 304.372 334.661 304.995 334.946 305.867C335.231 306.739 334.892 307.504 334.198 307.593C333.504 307.682 332.703 307.059 332.4 306.187Z" fill="#ADC7F6"/>
<path d="M327.736 306.597C327.452 305.725 327.79 304.96 328.484 304.871C329.196 304.782 329.997 305.405 330.282 306.277C330.567 307.149 330.228 307.914 329.534 308.003C328.822 308.092 328.021 307.469 327.736 306.597Z" fill="#ADC7F6"/>
<path d="M322.326 306.988C322.023 306.098 322.379 305.298 323.109 305.191C323.839 305.102 324.676 305.743 324.96 306.65C325.263 307.54 324.907 308.341 324.177 308.448C323.465 308.537 322.629 307.896 322.326 306.988Z" fill="#ADC7F6"/>
<path d="M316.47 307.309C316.168 306.401 316.524 305.6 317.254 305.511C317.983 305.422 318.82 306.063 319.123 306.97C319.425 307.878 319.069 308.679 318.339 308.768C317.61 308.857 316.773 308.216 316.47 307.309Z" fill="#ADC7F6"/>
<path d="M310.701 307.718C310.381 306.739 310.755 305.867 311.556 305.76C312.357 305.653 313.264 306.365 313.585 307.344C313.905 308.323 313.531 309.195 312.73 309.302C311.929 309.408 311.022 308.697 310.701 307.718Z" fill="#ADC7F6"/>
<path d="M303.581 308.18C303.243 307.13 303.634 306.205 304.489 306.098C305.343 305.991 306.304 306.739 306.643 307.789C306.981 308.839 306.589 309.764 305.735 309.871C304.88 309.978 303.919 309.212 303.581 308.18Z" fill="#ADC7F6"/>
<path d="M296.782 308.661C296.444 307.611 296.836 306.686 297.69 306.579C298.544 306.472 299.506 307.22 299.844 308.27C300.182 309.32 299.79 310.245 298.936 310.352C298.099 310.459 297.138 309.693 296.782 308.661Z" fill="#ADC7F6"/>
<path d="M290.766 309.195C290.428 308.145 290.82 307.22 291.674 307.113C292.529 307.006 293.49 307.754 293.828 308.804C294.166 309.854 293.775 310.779 292.92 310.886C292.084 310.993 291.122 310.228 290.766 309.195Z" fill="#ADC7F6"/>
<path d="M284.644 309.764C284.305 308.714 284.697 307.789 285.551 307.682C286.406 307.575 287.367 308.323 287.705 309.373C288.043 310.423 287.652 311.348 286.797 311.455C285.961 311.562 285 310.796 284.644 309.764Z" fill="#ADC7F6"/>
<path d="M253.907 336.157C253.409 335.16 253.64 334.235 254.441 334.075C255.242 333.915 256.31 334.591 256.808 335.57C257.307 336.566 257.075 337.492 256.274 337.652C255.473 337.812 254.423 337.136 253.907 336.157Z" fill="#ADC7F6"/>
<path d="M247.766 336.993C247.25 335.978 247.499 335 248.317 334.839C249.154 334.679 250.24 335.373 250.774 336.388C251.29 337.402 251.041 338.381 250.222 338.541C249.385 338.701 248.3 338.007 247.766 336.993Z" fill="#ADC7F6"/>
<path d="M241.553 337.759C240.983 336.655 241.25 335.606 242.158 335.428C243.066 335.25 244.241 335.997 244.81 337.118C245.38 338.222 245.113 339.272 244.205 339.45C243.315 339.628 242.123 338.862 241.553 337.759Z" fill="#ADC7F6"/>
<path d="M235.52 338.684C234.95 337.58 235.217 336.53 236.125 336.352C237.033 336.174 238.225 336.922 238.777 338.043C239.347 339.146 239.08 340.196 238.172 340.374C237.282 340.552 236.089 339.787 235.52 338.684Z" fill="#ADC7F6"/>
<path d="M228.525 339.681C227.938 338.524 228.222 337.456 229.148 337.261C230.073 337.083 231.319 337.848 231.907 339.005C232.494 340.161 232.209 341.229 231.284 341.425C230.358 341.621 229.112 340.82 228.525 339.681Z" fill="#ADC7F6"/>
<path d="M220.925 340.589C220.338 339.432 220.623 338.346 221.548 338.168C222.492 337.99 223.72 338.756 224.307 339.912C224.894 341.069 224.61 342.155 223.684 342.333C222.759 342.528 221.53 341.745 220.925 340.589Z" fill="#ADC7F6"/>
<path d="M213.252 341.817C212.647 340.624 212.932 339.503 213.893 339.307C214.854 339.112 216.136 339.93 216.741 341.105C217.346 342.297 217.062 343.418 216.1 343.614C215.139 343.81 213.858 343.009 213.252 341.817Z" fill="#ADC7F6"/>
<path d="M204.334 342.884C203.676 341.602 203.996 340.392 205.029 340.179C206.079 339.965 207.449 340.837 208.108 342.118C208.767 343.4 208.446 344.61 207.414 344.824C206.364 345.037 204.993 344.165 204.334 342.884Z" fill="#ADC7F6"/>
<path d="M196.111 344.272C195.434 342.937 195.755 341.674 196.841 341.46C197.926 341.247 199.35 342.154 200.045 343.489C200.721 344.824 200.401 346.087 199.315 346.301C198.211 346.515 196.787 345.607 196.111 344.272Z" fill="#ADC7F6"/>
<path d="M187.693 345.411C187.016 344.077 187.337 342.813 188.423 342.599C189.508 342.386 190.932 343.294 191.627 344.628C192.321 345.963 191.983 347.227 190.897 347.44C189.811 347.654 188.369 346.746 187.693 345.411Z" fill="#ADC7F6"/>
<path d="M179.791 346.514C179.114 345.18 179.435 343.916 180.52 343.703C181.606 343.489 183.03 344.397 183.724 345.731C184.401 347.066 184.08 348.33 182.995 348.543C181.909 348.757 180.467 347.849 179.791 346.514Z" fill="#ADC7F6"/>
<path d="M171.939 347.849C171.209 346.425 171.565 345.073 172.722 344.841C173.879 344.61 175.41 345.589 176.157 347.013C176.887 348.436 176.549 349.789 175.374 350.02C174.199 350.252 172.668 349.291 171.939 347.849Z" fill="#ADC7F6"/>
<path d="M163.627 349.149C162.897 347.725 163.253 346.373 164.41 346.141C165.567 345.91 167.097 346.889 167.845 348.312C168.575 349.736 168.219 351.089 167.062 351.32C165.905 351.551 164.356 350.59 163.627 349.149Z" fill="#ADC7F6"/>
<path d="M155.172 350.501C154.442 349.077 154.798 347.725 155.955 347.493C157.112 347.262 158.642 348.241 159.39 349.665C160.12 351.088 159.764 352.441 158.607 352.672C157.432 352.903 155.901 351.942 155.172 350.501Z" fill="#ADC7F6"/>
</g>
<g style="mix-blend-mode:overlay">
<path d="M432.452 353.793C432.523 357.441 432.577 361.232 432.559 364.471V364.489C432.559 365.77 432.541 366.98 432.505 368.048C432.505 368.048 432.505 368.048 432.505 368.066C432.505 368.333 432.488 368.6 432.488 368.849C432.488 368.902 432.488 368.955 432.488 369.009C432.488 369.133 432.47 369.258 432.47 369.365C432.47 369.561 432.452 369.774 432.452 369.97C432.452 370.13 432.434 370.255 432.434 370.397C432.434 370.539 432.416 370.682 432.416 370.824C432.399 371.038 432.381 371.216 432.363 371.411C432.363 371.465 432.363 371.536 432.345 371.572C432.327 371.803 432.292 372.016 432.274 372.194V372.212C432.203 372.693 432.132 373.031 432.043 373.173C430.832 375.131 424.371 376.679 424.371 376.679L424.513 385.755L425.403 388.781L415.204 391.45L415.489 395.152H3.05399C2.94719 389.386 5.75954 381.431 8.89227 374.437C9.81785 372.337 10.7968 370.308 11.758 368.404C14.517 362.905 16.8487 359.007 16.8487 359.007C16.8487 359.007 49.3508 318.787 56.2037 293.57H410.22C430.814 308.448 446.354 342.866 446.354 342.866L432.541 345.179L432.452 353.793Z" fill="url(#paint102_linear_1929_1756)"/>
</g>
</g>
</g>
<path fill-rule="evenodd" clip-rule="evenodd" d="M372.021 295.367C369.708 298.09 306.323 300.386 289.823 299.567C273.305 298.749 266.612 295.616 266.612 295.616C266.612 295.616 242.903 299.158 235.16 296.862C227.417 294.566 231.938 293.214 231.938 293.214C231.938 293.214 215.687 294.762 238.044 295.154C260.4 295.545 259.261 295.527 259.261 295.527L372.021 295.367Z" fill="white"/>
<path fill-rule="evenodd" clip-rule="evenodd" d="M86.3744 299.389C90.0945 299.496 53.6409 299.905 52.2169 297.716C50.7929 295.527 48.5502 294.282 48.5502 294.282C48.5502 294.282 65.4776 298.749 86.3744 299.389Z" fill="white"/>
<path opacity="0.6" fill-rule="evenodd" clip-rule="evenodd" d="M145.717 304.515C145.699 305.138 151.43 305.743 158.497 305.867C165.563 305.992 171.295 305.583 171.312 304.96C171.33 304.337 165.599 303.732 158.532 303.607C151.466 303.483 145.734 303.892 145.717 304.515Z" fill="#A2E7F8"/>
<path opacity="0.6" fill-rule="evenodd" clip-rule="evenodd" d="M110.17 300.19C110.17 300.51 113.427 300.813 117.45 300.884C121.473 300.955 124.748 300.76 124.748 300.439C124.748 300.119 121.491 299.816 117.468 299.745C113.445 299.674 110.17 299.888 110.17 300.19Z" fill="#A2E7F8"/>
<path fill-rule="evenodd" clip-rule="evenodd" d="M196.856 298.482C196.856 298.82 200.042 299.158 203.976 299.229C207.909 299.3 211.113 299.069 211.113 298.731C211.113 298.393 207.927 298.055 203.993 297.983C200.06 297.912 196.856 298.126 196.856 298.482Z" fill="white"/>
<path fill-rule="evenodd" clip-rule="evenodd" d="M220.582 295.189C220.582 295.403 222.576 295.616 225.032 295.652C227.489 295.687 229.5 295.563 229.5 295.331C229.5 295.118 227.506 294.904 225.05 294.869C222.576 294.833 220.582 294.975 220.582 295.189Z" fill="white"/>
<path fill-rule="evenodd" clip-rule="evenodd" d="M231.777 298.784C231.777 298.908 232.187 299.015 232.721 299.015C233.237 299.033 233.664 298.926 233.664 298.802C233.664 298.677 233.255 298.57 232.721 298.57C232.204 298.57 231.795 298.677 231.777 298.784Z" fill="white"/>
<path fill-rule="evenodd" clip-rule="evenodd" d="M212.127 294.495C212.127 294.406 212.875 294.353 213.782 294.371C214.69 294.388 215.42 294.459 215.42 294.548C215.42 294.637 214.672 294.691 213.765 294.673C212.875 294.673 212.127 294.584 212.127 294.495Z" fill="white"/>
<path fill-rule="evenodd" clip-rule="evenodd" d="M212.145 293.694C212.145 293.819 212.554 293.925 213.088 293.925C213.604 293.943 214.031 293.836 214.031 293.712C214.031 293.587 213.622 293.48 213.088 293.48C212.572 293.463 212.145 293.569 212.145 293.694Z" fill="white"/>
<path fill-rule="evenodd" clip-rule="evenodd" d="M91.7657 296.239C91.7657 296.417 92.8515 296.577 94.1865 296.595C95.5214 296.613 96.625 296.506 96.625 296.328C96.625 296.15 95.5392 295.99 94.2043 295.972C92.8693 295.955 91.7657 296.079 91.7657 296.239Z" fill="white"/>
<path fill-rule="evenodd" clip-rule="evenodd" d="M121.207 298.214C121.207 298.552 124.393 298.891 128.327 298.962C132.261 299.033 135.465 298.802 135.465 298.463C135.465 298.125 132.279 297.787 128.345 297.716C124.411 297.645 121.207 297.876 121.207 298.214Z" fill="white"/>
<path fill-rule="evenodd" clip-rule="evenodd" d="M183.878 294.781C183.878 295.083 185 295.332 186.406 295.368C187.812 295.386 188.933 295.172 188.951 294.869C188.951 294.567 187.83 294.318 186.424 294.282C185.017 294.264 183.878 294.496 183.878 294.781Z" fill="white"/>
<path fill-rule="evenodd" clip-rule="evenodd" d="M180.322 295.545C180.322 295.652 180.713 295.741 181.212 295.741C181.71 295.741 182.102 295.67 182.102 295.563C182.102 295.456 181.71 295.368 181.212 295.368C180.713 295.35 180.322 295.439 180.322 295.545Z" fill="white"/>
<path opacity="0.6" fill-rule="evenodd" clip-rule="evenodd" d="M143.402 311.046C143.384 311.669 149.116 312.274 156.182 312.398C163.249 312.523 168.98 312.113 168.998 311.491C169.016 310.868 163.284 310.263 156.218 310.138C149.151 310.013 143.402 310.423 143.402 311.046Z" fill="#A2E7F8"/>
<path opacity="0.6" fill-rule="evenodd" clip-rule="evenodd" d="M138.776 316.847C138.776 317.168 142.033 317.47 146.056 317.541C150.078 317.613 153.354 317.417 153.354 317.096C153.354 316.776 150.096 316.474 146.073 316.402C142.051 316.331 138.793 316.545 138.776 316.847Z" fill="#A2E7F8"/>
<path opacity="0.6" fill-rule="evenodd" clip-rule="evenodd" d="M60.4568 311.384C60.439 312.007 66.1705 312.612 73.2369 312.737C80.3034 312.861 86.0349 312.452 86.0527 311.829C86.0705 311.206 80.339 310.601 73.2726 310.476C66.2061 310.352 60.4746 310.761 60.4568 311.384Z" fill="#A2E7F8"/>
<path opacity="0.6" fill-rule="evenodd" clip-rule="evenodd" d="M279.677 319.286C279.677 319.749 284.393 320.193 290.232 320.3C296.07 320.407 300.805 320.122 300.805 319.66C300.805 319.197 296.088 318.752 290.25 318.645C284.411 318.556 279.677 318.841 279.677 319.286Z" fill="#A2E7F8"/>
</g>
<defs>
<linearGradient id="paint0_linear_1929_1756" x1="321.359" y1="27.4417" x2="320.059" y2="27.3246" gradientUnits="userSpaceOnUse">
<stop stop-color="#D6ECF8"/>
<stop offset="1" stop-color="white"/>
</linearGradient>
<linearGradient id="paint1_linear_1929_1756" x1="312.208" y1="68.7532" x2="258.519" y2="43.3168" gradientUnits="userSpaceOnUse">
<stop stop-color="#D6ECF8"/>
<stop offset="1" stop-color="white"/>
</linearGradient>
<linearGradient id="paint2_linear_1929_1756" x1="432.564" y1="131.287" x2="115.638" y2="131.287" gradientUnits="userSpaceOnUse">
<stop stop-color="#D6ECF8"/>
<stop offset="1" stop-color="white"/>
</linearGradient>
<linearGradient id="paint3_linear_1929_1756" x1="424.357" y1="105.834" x2="143.021" y2="105.834" gradientUnits="userSpaceOnUse">
<stop stop-color="#1261AA"/>
<stop offset="1" stop-color="#14CDCD"/>
</linearGradient>
<linearGradient id="paint4_linear_1929_1756" x1="351.69" y1="152.256" x2="337.251" y2="152.817" gradientUnits="userSpaceOnUse">
<stop stop-color="#D6ECF8"/>
<stop offset="1" stop-color="white"/>
</linearGradient>
<linearGradient id="paint5_linear_1929_1756" x1="351.798" y1="155.416" x2="337.357" y2="155.977" gradientUnits="userSpaceOnUse">
<stop stop-color="#D6ECF8"/>
<stop offset="1" stop-color="white"/>
</linearGradient>
<linearGradient id="paint6_linear_1929_1756" x1="351.873" y1="157.324" x2="337.434" y2="157.885" gradientUnits="userSpaceOnUse">
<stop stop-color="#D6ECF8"/>
<stop offset="1" stop-color="white"/>
</linearGradient>
<linearGradient id="paint7_linear_1929_1756" x1="351.977" y1="160.647" x2="337.533" y2="161.208" gradientUnits="userSpaceOnUse">
<stop stop-color="#D6ECF8"/>
<stop offset="1" stop-color="white"/>
</linearGradient>
<linearGradient id="paint8_linear_1929_1756" x1="366.403" y1="148.804" x2="328.366" y2="151.769" gradientUnits="userSpaceOnUse">
<stop stop-color="#D6ECF8"/>
<stop offset="1" stop-color="white"/>
</linearGradient>
<linearGradient id="paint9_linear_1929_1756" x1="432.564" y1="167.139" x2="115.646" y2="167.139" gradientUnits="userSpaceOnUse">
<stop stop-color="#1261AA"/>
<stop offset="1" stop-color="#14CDCD"/>
</linearGradient>
<linearGradient id="paint10_linear_1929_1756" x1="350.341" y1="117.746" x2="335.897" y2="118.307" gradientUnits="userSpaceOnUse">
<stop stop-color="#D6ECF8"/>
<stop offset="1" stop-color="white"/>
</linearGradient>
<linearGradient id="paint11_linear_1929_1756" x1="350.466" y1="120.905" x2="336.025" y2="121.466" gradientUnits="userSpaceOnUse">
<stop stop-color="#D6ECF8"/>
<stop offset="1" stop-color="white"/>
</linearGradient>
<linearGradient id="paint12_linear_1929_1756" x1="350.534" y1="122.814" x2="336.092" y2="123.375" gradientUnits="userSpaceOnUse">
<stop stop-color="#D6ECF8"/>
<stop offset="1" stop-color="white"/>
</linearGradient>
<linearGradient id="paint13_linear_1929_1756" x1="350.667" y1="126.134" x2="336.228" y2="126.695" gradientUnits="userSpaceOnUse">
<stop stop-color="#D6ECF8"/>
<stop offset="1" stop-color="white"/>
</linearGradient>
<linearGradient id="paint14_linear_1929_1756" x1="363.705" y1="114.166" x2="325.672" y2="117.13" gradientUnits="userSpaceOnUse">
<stop stop-color="#D6ECF8"/>
<stop offset="1" stop-color="white"/>
</linearGradient>
<linearGradient id="paint15_linear_1929_1756" x1="326.438" y1="92.1953" x2="324.133" y2="92.2802" gradientUnits="userSpaceOnUse">
<stop stop-color="#D6ECF8"/>
<stop offset="1" stop-color="white"/>
</linearGradient>
<linearGradient id="paint16_linear_1929_1756" x1="336.552" y1="95.2505" x2="334.134" y2="95.3396" gradientUnits="userSpaceOnUse">
<stop stop-color="#D6ECF8"/>
<stop offset="1" stop-color="white"/>
</linearGradient>
<linearGradient id="paint17_linear_1929_1756" x1="345.771" y1="100.654" x2="343.631" y2="100.732" gradientUnits="userSpaceOnUse">
<stop stop-color="#D6ECF8"/>
<stop offset="1" stop-color="white"/>
</linearGradient>
<linearGradient id="paint18_linear_1929_1756" x1="355.649" y1="107.77" x2="353.412" y2="107.852" gradientUnits="userSpaceOnUse">
<stop stop-color="#D6ECF8"/>
<stop offset="1" stop-color="white"/>
</linearGradient>
<linearGradient id="paint19_linear_1929_1756" x1="373.571" y1="117.199" x2="371.5" y2="117.275" gradientUnits="userSpaceOnUse">
<stop stop-color="#D6ECF8"/>
<stop offset="1" stop-color="white"/>
</linearGradient>
<linearGradient id="paint20_linear_1929_1756" x1="318.045" y1="84.6466" x2="313.157" y2="85.0042" gradientUnits="userSpaceOnUse">
<stop stop-color="#D6ECF8"/>
<stop offset="1" stop-color="white"/>
</linearGradient>
<linearGradient id="paint21_linear_1929_1756" x1="194.143" y1="78.9863" x2="210.306" y2="80.1125" gradientUnits="userSpaceOnUse">
<stop stop-color="#D6ECF8"/>
<stop offset="1" stop-color="white"/>
</linearGradient>
<linearGradient id="paint22_linear_1929_1756" x1="178.353" y1="77.9664" x2="194.381" y2="80.3439" gradientUnits="userSpaceOnUse">
<stop stop-color="#D6ECF8"/>
<stop offset="1" stop-color="white"/>
</linearGradient>
<linearGradient id="paint23_linear_1929_1756" x1="278.611" y1="78.9522" x2="294.447" y2="75.5128" gradientUnits="userSpaceOnUse">
<stop stop-color="#D6ECF8"/>
<stop offset="1" stop-color="white"/>
</linearGradient>
<linearGradient id="paint24_linear_1929_1756" x1="294.225" y1="83.0064" x2="310.061" y2="79.5669" gradientUnits="userSpaceOnUse">
<stop stop-color="#D6ECF8"/>
<stop offset="1" stop-color="white"/>
</linearGradient>
<linearGradient id="paint25_linear_1929_1756" x1="263.165" y1="82.3859" x2="279.219" y2="80.1868" gradientUnits="userSpaceOnUse">
<stop stop-color="#D6ECF8"/>
<stop offset="1" stop-color="white"/>
</linearGradient>
<linearGradient id="paint26_linear_1929_1756" x1="246.384" y1="80.7099" x2="262.424" y2="78.3871" gradientUnits="userSpaceOnUse">
<stop stop-color="#D6ECF8"/>
<stop offset="1" stop-color="white"/>
</linearGradient>
<linearGradient id="paint27_linear_1929_1756" x1="227.249" y1="83.2224" x2="243.418" y2="82.1527" gradientUnits="userSpaceOnUse">
<stop stop-color="#D6ECF8"/>
<stop offset="1" stop-color="white"/>
</linearGradient>
<linearGradient id="paint28_linear_1929_1756" x1="162.549" y1="80.5938" x2="178.577" y2="82.9713" gradientUnits="userSpaceOnUse">
<stop stop-color="#D6ECF8"/>
<stop offset="1" stop-color="white"/>
</linearGradient>
<linearGradient id="paint29_linear_1929_1756" x1="213.017" y1="81.4586" x2="223.734" y2="82.1052" gradientUnits="userSpaceOnUse">
<stop stop-color="#D6ECF8"/>
<stop offset="1" stop-color="white"/>
</linearGradient>
<linearGradient id="paint30_linear_1929_1756" x1="425.374" y1="115.576" x2="149.736" y2="115.576" gradientUnits="userSpaceOnUse">
<stop stop-color="#D6ECF8"/>
<stop offset="1" stop-color="white"/>
</linearGradient>
<linearGradient id="paint31_linear_1929_1756" x1="271.961" y1="156.097" x2="264.7" y2="156.097" gradientUnits="userSpaceOnUse">
<stop stop-color="#D6ECF8"/>
<stop offset="1" stop-color="white"/>
</linearGradient>
<linearGradient id="paint32_linear_1929_1756" x1="254.405" y1="152.618" x2="248.835" y2="152.618" gradientUnits="userSpaceOnUse">
<stop stop-color="#D6ECF8"/>
<stop offset="1" stop-color="white"/>
</linearGradient>
<linearGradient id="paint33_linear_1929_1756" x1="237.248" y1="151.415" x2="231.193" y2="151.415" gradientUnits="userSpaceOnUse">
<stop stop-color="#D6ECF8"/>
<stop offset="1" stop-color="white"/>
</linearGradient>
<linearGradient id="paint34_linear_1929_1756" x1="221.907" y1="146.833" x2="214.842" y2="146.833" gradientUnits="userSpaceOnUse">
<stop stop-color="#D6ECF8"/>
<stop offset="1" stop-color="white"/>
</linearGradient>
<linearGradient id="paint35_linear_1929_1756" x1="204.953" y1="143.381" x2="199.503" y2="143.381" gradientUnits="userSpaceOnUse">
<stop stop-color="#D6ECF8"/>
<stop offset="1" stop-color="white"/>
</linearGradient>
<linearGradient id="paint36_linear_1929_1756" x1="187.36" y1="157.5" x2="181.278" y2="156.917" gradientUnits="userSpaceOnUse">
<stop stop-color="#D6ECF8"/>
<stop offset="1" stop-color="white"/>
</linearGradient>
<linearGradient id="paint37_linear_1929_1756" x1="170.23" y1="152.107" x2="165.709" y2="151.674" gradientUnits="userSpaceOnUse">
<stop stop-color="#D6ECF8"/>
<stop offset="1" stop-color="white"/>
</linearGradient>
<linearGradient id="paint38_linear_1929_1756" x1="153.267" y1="149.003" x2="148.23" y2="148.521" gradientUnits="userSpaceOnUse">
<stop stop-color="#D6ECF8"/>
<stop offset="1" stop-color="white"/>
</linearGradient>
<linearGradient id="paint39_linear_1929_1756" x1="138.431" y1="142.738" x2="132.267" y2="142.147" gradientUnits="userSpaceOnUse">
<stop stop-color="#D6ECF8"/>
<stop offset="1" stop-color="white"/>
</linearGradient>
<linearGradient id="paint40_linear_1929_1756" x1="283.194" y1="176.842" x2="235.961" y2="187.442" gradientUnits="userSpaceOnUse">
<stop stop-color="#D6ECF8"/>
<stop offset="1" stop-color="white"/>
</linearGradient>
<linearGradient id="paint41_linear_1929_1756" x1="285.416" y1="186.743" x2="238.183" y2="197.342" gradientUnits="userSpaceOnUse">
<stop stop-color="#D6ECF8"/>
<stop offset="1" stop-color="white"/>
</linearGradient>
<linearGradient id="paint42_linear_1929_1756" x1="286.585" y1="191.955" x2="239.353" y2="202.553" gradientUnits="userSpaceOnUse">
<stop stop-color="#D6ECF8"/>
<stop offset="1" stop-color="white"/>
</linearGradient>
<linearGradient id="paint43_linear_1929_1756" x1="287.77" y1="197.237" x2="240.536" y2="207.836" gradientUnits="userSpaceOnUse">
<stop stop-color="#D6ECF8"/>
<stop offset="1" stop-color="white"/>
</linearGradient>
<linearGradient id="paint44_linear_1929_1756" x1="402.57" y1="194.596" x2="385.819" y2="194.798" gradientUnits="userSpaceOnUse">
<stop stop-color="#D6ECF8"/>
<stop offset="1" stop-color="white"/>
</linearGradient>
<linearGradient id="paint45_linear_1929_1756" x1="402.623" y1="198.898" x2="385.872" y2="199.1" gradientUnits="userSpaceOnUse">
<stop stop-color="#D6ECF8"/>
<stop offset="1" stop-color="white"/>
</linearGradient>
<linearGradient id="paint46_linear_1929_1756" x1="402.652" y1="201.173" x2="385.901" y2="201.375" gradientUnits="userSpaceOnUse">
<stop stop-color="#D6ECF8"/>
<stop offset="1" stop-color="white"/>
</linearGradient>
<linearGradient id="paint47_linear_1929_1756" x1="402.651" y1="201.8" x2="385.894" y2="202.002" gradientUnits="userSpaceOnUse">
<stop stop-color="#D6ECF8"/>
<stop offset="1" stop-color="white"/>
</linearGradient>
<linearGradient id="paint48_linear_1929_1756" x1="281.496" y1="169.271" x2="234.263" y2="179.87" gradientUnits="userSpaceOnUse">
<stop stop-color="#D6ECF8"/>
<stop offset="1" stop-color="white"/>
</linearGradient>
<linearGradient id="paint49_linear_1929_1756" x1="280.502" y1="164.853" x2="233.269" y2="175.452" gradientUnits="userSpaceOnUse">
<stop stop-color="#D6ECF8"/>
<stop offset="1" stop-color="white"/>
</linearGradient>
<linearGradient id="paint50_linear_1929_1756" x1="289.695" y1="153.744" x2="281.536" y2="154.553" gradientUnits="userSpaceOnUse">
<stop stop-color="#D6ECF8"/>
<stop offset="1" stop-color="white"/>
</linearGradient>
<linearGradient id="paint51_linear_1929_1756" x1="431.946" y1="162.7" x2="108.769" y2="162.7" gradientUnits="userSpaceOnUse">
<stop stop-color="#D6ECF8"/>
<stop offset="1" stop-color="white"/>
</linearGradient>
<linearGradient id="paint52_linear_1929_1756" x1="261.529" y1="146.787" x2="217.952" y2="232.12" gradientUnits="userSpaceOnUse">
<stop stop-color="#1261AA"/>
<stop offset="1" stop-color="#14CDCD"/>
</linearGradient>
<linearGradient id="paint53_linear_1929_1756" x1="323.424" y1="99.3976" x2="246.937" y2="63.1606" gradientUnits="userSpaceOnUse">
<stop stop-color="#D6ECF8"/>
<stop offset="1" stop-color="white"/>
</linearGradient>
<linearGradient id="paint54_linear_1929_1756" x1="295.233" y1="105.476" x2="58.5245" y2="71.0762" gradientUnits="userSpaceOnUse">
<stop/>
<stop offset="1" stop-color="#14CDCD"/>
</linearGradient>
<linearGradient id="paint55_linear_1929_1756" x1="216.746" y1="143.448" x2="141.765" y2="137.726" gradientUnits="userSpaceOnUse">
<stop stop-color="#D6ECF8"/>
<stop offset="1" stop-color="white"/>
</linearGradient>
<linearGradient id="paint56_linear_1929_1756" x1="258.421" y1="147.517" x2="134.313" y2="138.045" gradientUnits="userSpaceOnUse">
<stop stop-color="#D6ECF8"/>
<stop offset="1" stop-color="white"/>
</linearGradient>
<linearGradient id="paint57_linear_1929_1756" x1="260.783" y1="151.385" x2="136.775" y2="141.921" gradientUnits="userSpaceOnUse">
<stop stop-color="#D6ECF8"/>
<stop offset="1" stop-color="white"/>
</linearGradient>
<linearGradient id="paint58_linear_1929_1756" x1="120.975" y1="148.279" x2="108.262" y2="89.5496" gradientUnits="userSpaceOnUse">
<stop stop-color="#D6ECF8"/>
<stop offset="1" stop-color="white"/>
</linearGradient>
<linearGradient id="paint59_linear_1929_1756" x1="137.436" y1="142.869" x2="66.5087" y2="83.7516" gradientUnits="userSpaceOnUse">
<stop/>
<stop offset="1" stop-color="#DDFFED"/>
</linearGradient>
<linearGradient id="paint60_linear_1929_1756" x1="201.909" y1="110.509" x2="65.9586" y2="104.946" gradientUnits="userSpaceOnUse">
<stop stop-color="#1261AA"/>
<stop offset="1" stop-color="#14CDCD"/>
</linearGradient>
<linearGradient id="paint61_linear_1929_1756" x1="226.004" y1="164.167" x2="209.824" y2="253.431" gradientUnits="userSpaceOnUse">
<stop stop-color="#D6ECF8"/>
<stop offset="1" stop-color="white"/>
</linearGradient>
<linearGradient id="paint62_linear_1929_1756" x1="104.406" y1="207.064" x2="412.005" y2="268.256" gradientUnits="userSpaceOnUse">
<stop stop-color="#7A98CF"/>
<stop offset="1" stop-color="#7A98CF" stop-opacity="0.61"/>
</linearGradient>
<linearGradient id="paint63_linear_1929_1756" x1="223" y1="288" x2="232.244" y2="369.345" gradientUnits="userSpaceOnUse">
<stop stop-color="#D9D9D9"/>
<stop offset="1" stop-color="#D9D9D9" stop-opacity="0"/>
</linearGradient>
<linearGradient id="paint64_linear_1929_1756" x1="432.562" y1="366.795" x2="115.636" y2="366.795" gradientUnits="userSpaceOnUse">
<stop stop-color="#D6ECF8"/>
<stop offset="1" stop-color="white"/>
</linearGradient>
<linearGradient id="paint65_linear_1929_1756" x1="424.357" y1="385.916" x2="143.021" y2="385.916" gradientUnits="userSpaceOnUse">
<stop stop-color="#5CA28F"/>
<stop offset="1" stop-color="#BFFF9D"/>
</linearGradient>
<linearGradient id="paint66_linear_1929_1756" x1="362.038" y1="381.824" x2="350.403" y2="381.24" gradientUnits="userSpaceOnUse">
<stop stop-color="#D6ECF8"/>
<stop offset="1" stop-color="white"/>
</linearGradient>
<linearGradient id="paint67_linear_1929_1756" x1="363.084" y1="379.849" x2="351.446" y2="379.265" gradientUnits="userSpaceOnUse">
<stop stop-color="#D6ECF8"/>
<stop offset="1" stop-color="white"/>
</linearGradient>
<linearGradient id="paint68_linear_1929_1756" x1="364.222" y1="378.656" x2="352.586" y2="378.073" gradientUnits="userSpaceOnUse">
<stop stop-color="#D6ECF8"/>
<stop offset="1" stop-color="white"/>
</linearGradient>
<linearGradient id="paint69_linear_1929_1756" x1="365.522" y1="376.58" x2="353.882" y2="375.996" gradientUnits="userSpaceOnUse">
<stop stop-color="#D6ECF8"/>
<stop offset="1" stop-color="white"/>
</linearGradient>
<linearGradient id="paint70_linear_1929_1756" x1="372.774" y1="383.85" x2="342.054" y2="380.757" gradientUnits="userSpaceOnUse">
<stop stop-color="#D6ECF8"/>
<stop offset="1" stop-color="white"/>
</linearGradient>
<linearGradient id="paint71_linear_1929_1756" x1="433.952" y1="350.781" x2="157.867" y2="420.669" gradientUnits="userSpaceOnUse">
<stop stop-color="#5CA28F"/>
<stop offset="1" stop-color="#BFFF9D"/>
</linearGradient>
<linearGradient id="paint72_linear_1929_1756" x1="373.984" y1="390.941" x2="372.302" y2="390.861" gradientUnits="userSpaceOnUse">
<stop stop-color="#D6ECF8"/>
<stop offset="1" stop-color="white"/>
</linearGradient>
<linearGradient id="paint73_linear_1929_1756" x1="425.374" y1="390.457" x2="149.737" y2="390.457" gradientUnits="userSpaceOnUse">
<stop stop-color="#D6ECF8"/>
<stop offset="1" stop-color="white"/>
</linearGradient>
<linearGradient id="paint74_linear_1929_1756" x1="271.963" y1="373.696" x2="264.702" y2="373.696" gradientUnits="userSpaceOnUse">
<stop stop-color="#D6ECF8"/>
<stop offset="1" stop-color="white"/>
</linearGradient>
<linearGradient id="paint75_linear_1929_1756" x1="254.407" y1="376.247" x2="248.837" y2="376.247" gradientUnits="userSpaceOnUse">
<stop stop-color="#D6ECF8"/>
<stop offset="1" stop-color="white"/>
</linearGradient>
<linearGradient id="paint76_linear_1929_1756" x1="237.251" y1="376.999" x2="231.195" y2="376.999" gradientUnits="userSpaceOnUse">
<stop stop-color="#D6ECF8"/>
<stop offset="1" stop-color="white"/>
</linearGradient>
<linearGradient id="paint77_linear_1929_1756" x1="221.91" y1="379.862" x2="214.845" y2="379.862" gradientUnits="userSpaceOnUse">
<stop stop-color="#D6ECF8"/>
<stop offset="1" stop-color="white"/>
</linearGradient>
<linearGradient id="paint78_linear_1929_1756" x1="204.954" y1="382.21" x2="199.504" y2="382.21" gradientUnits="userSpaceOnUse">
<stop stop-color="#D6ECF8"/>
<stop offset="1" stop-color="white"/>
</linearGradient>
<linearGradient id="paint79_linear_1929_1756" x1="187.502" y1="373.224" x2="179.893" y2="374.165" gradientUnits="userSpaceOnUse">
<stop stop-color="#D6ECF8"/>
<stop offset="1" stop-color="white"/>
</linearGradient>
<linearGradient id="paint80_linear_1929_1756" x1="170.26" y1="376.379" x2="164.37" y2="377.108" gradientUnits="userSpaceOnUse">
<stop stop-color="#D6ECF8"/>
<stop offset="1" stop-color="white"/>
</linearGradient>
<linearGradient id="paint81_linear_1929_1756" x1="153.196" y1="377.691" x2="146.837" y2="378.477" gradientUnits="userSpaceOnUse">
<stop stop-color="#D6ECF8"/>
<stop offset="1" stop-color="white"/>
</linearGradient>
<linearGradient id="paint82_linear_1929_1756" x1="138.207" y1="381.057" x2="130.896" y2="381.961" gradientUnits="userSpaceOnUse">
<stop stop-color="#D6ECF8"/>
<stop offset="1" stop-color="white"/>
</linearGradient>
<linearGradient id="paint83_linear_1929_1756" x1="292.901" y1="364.402" x2="256.718" y2="353.915" gradientUnits="userSpaceOnUse">
<stop stop-color="#D6ECF8"/>
<stop offset="1" stop-color="white"/>
</linearGradient>
<linearGradient id="paint84_linear_1929_1756" x1="296.427" y1="360.433" x2="260.245" y2="349.946" gradientUnits="userSpaceOnUse">
<stop stop-color="#D6ECF8"/>
<stop offset="1" stop-color="white"/>
</linearGradient>
<linearGradient id="paint85_linear_1929_1756" x1="299.57" y1="357.203" x2="263.387" y2="346.716" gradientUnits="userSpaceOnUse">
<stop stop-color="#D6ECF8"/>
<stop offset="1" stop-color="white"/>
</linearGradient>
<linearGradient id="paint86_linear_1929_1756" x1="305.937" y1="354.014" x2="269.889" y2="343.565" gradientUnits="userSpaceOnUse">
<stop stop-color="#D6ECF8"/>
<stop offset="1" stop-color="white"/>
</linearGradient>
<linearGradient id="paint87_linear_1929_1756" x1="404.562" y1="355.378" x2="390.99" y2="355.166" gradientUnits="userSpaceOnUse">
<stop stop-color="#D6ECF8"/>
<stop offset="1" stop-color="white"/>
</linearGradient>
<linearGradient id="paint88_linear_1929_1756" x1="405.74" y1="352.69" x2="392.162" y2="352.479" gradientUnits="userSpaceOnUse">
<stop stop-color="#D6ECF8"/>
<stop offset="1" stop-color="white"/>
</linearGradient>
<linearGradient id="paint89_linear_1929_1756" x1="406.88" y1="351.269" x2="393.308" y2="351.057" gradientUnits="userSpaceOnUse">
<stop stop-color="#D6ECF8"/>
<stop offset="1" stop-color="white"/>
</linearGradient>
<linearGradient id="paint90_linear_1929_1756" x1="407.829" y1="350.877" x2="394.257" y2="350.666" gradientUnits="userSpaceOnUse">
<stop stop-color="#D6ECF8"/>
<stop offset="1" stop-color="white"/>
</linearGradient>
<linearGradient id="paint91_linear_1929_1756" x1="289.677" y1="367.531" x2="253.424" y2="357.023" gradientUnits="userSpaceOnUse">
<stop stop-color="#D6ECF8"/>
<stop offset="1" stop-color="white"/>
</linearGradient>
<linearGradient id="paint92_linear_1929_1756" x1="286.282" y1="369.416" x2="249.708" y2="358.815" gradientUnits="userSpaceOnUse">
<stop stop-color="#D6ECF8"/>
<stop offset="1" stop-color="white"/>
</linearGradient>
<linearGradient id="paint93_linear_1929_1756" x1="289.614" y1="375.485" x2="283.046" y2="374.644" gradientUnits="userSpaceOnUse">
<stop stop-color="#D6ECF8"/>
<stop offset="1" stop-color="white"/>
</linearGradient>
<linearGradient id="paint94_linear_1929_1756" x1="431.946" y1="374.21" x2="108.769" y2="374.21" gradientUnits="userSpaceOnUse">
<stop stop-color="#D6ECF8"/>
<stop offset="1" stop-color="white"/>
</linearGradient>
<linearGradient id="paint95_linear_1929_1756" x1="225.474" y1="348.798" x2="220.542" y2="333.372" gradientUnits="userSpaceOnUse">
<stop stop-color="#5CA28F"/>
<stop offset="1" stop-color="#BFFF9D"/>
</linearGradient>
<linearGradient id="paint96_linear_1929_1756" x1="224.812" y1="379.541" x2="137.889" y2="388.11" gradientUnits="userSpaceOnUse">
<stop stop-color="#D6ECF8"/>
<stop offset="1" stop-color="white"/>
</linearGradient>
<linearGradient id="paint97_linear_1929_1756" x1="232.222" y1="379.14" x2="134.475" y2="388.776" gradientUnits="userSpaceOnUse">
<stop stop-color="#D6ECF8"/>
<stop offset="1" stop-color="white"/>
</linearGradient>
<linearGradient id="paint98_linear_1929_1756" x1="232.121" y1="377.638" x2="134.375" y2="387.274" gradientUnits="userSpaceOnUse">
<stop stop-color="#D6ECF8"/>
<stop offset="1" stop-color="white"/>
</linearGradient>
<linearGradient id="paint99_linear_1929_1756" x1="133.667" y1="386.627" x2="127.004" y2="426.389" gradientUnits="userSpaceOnUse">
<stop stop-color="#D6ECF8"/>
<stop offset="1" stop-color="white"/>
</linearGradient>
<linearGradient id="paint100_linear_1929_1756" x1="80.2944" y1="377.682" x2="73.6311" y2="417.444" gradientUnits="userSpaceOnUse">
<stop stop-color="#D6ECF8"/>
<stop offset="1" stop-color="white"/>
</linearGradient>
<linearGradient id="paint101_linear_1929_1756" x1="225.343" y1="371.791" x2="217.265" y2="314.228" gradientUnits="userSpaceOnUse">
<stop stop-color="#D6ECF8"/>
<stop offset="1" stop-color="white"/>
</linearGradient>
<linearGradient id="paint102_linear_1929_1756" x1="224.696" y1="203.826" x2="224.696" y2="437.675" gradientUnits="userSpaceOnUse">
<stop stop-color="white"/>
<stop offset="0.1889" stop-color="#FCFCFD"/>
<stop offset="0.3244" stop-color="#F3F3F5"/>
<stop offset="0.4432" stop-color="#E3E3E8"/>
<stop offset="0.5524" stop-color="#CDCDD6"/>
<stop offset="0.6551" stop-color="#B0B0BE"/>
<stop offset="0.7529" stop-color="#8D8DA1"/>
<stop offset="0.8469" stop-color="#63637F"/>
<stop offset="0.9355" stop-color="#343458"/>
<stop offset="1" stop-color="#0D0C38"/>
</linearGradient>
<clipPath id="clip0_1929_1756">
<rect width="447" height="395" fill="white" transform="matrix(-1 0 0 1 447 0)"/>
</clipPath>
</defs>
</svg>
