<svg width="379" height="273" viewBox="0 0 379 273" fill="none" xmlns="http://www.w3.org/2000/svg">
<g clip-path="url(#clip0_829_674)">
<path d="M315.006 195.62C315.006 195.62 318.009 200.967 315.902 206.711L296.738 190.511L296.09 183.226C296.09 183.226 311.657 190.302 315.006 195.62Z" fill="#1B0725"/>
<path d="M284.513 187.893C284.513 187.893 314.985 199.649 320.485 219.969C320.485 219.969 322.108 203.125 301.857 190.767C281.605 178.408 284.513 187.893 284.513 187.893Z" fill="#1B0725"/>
<path d="M280.335 187.754C289.584 187.659 306.301 190.168 317.62 207.353C317.62 207.353 305.532 178.098 256.485 165.11C256.485 165.11 264.612 160.761 266.804 146.735C266.804 146.735 254.394 172.321 227.233 154.683C204.359 139.838 189.11 168.905 189.11 168.905C189.11 168.905 188.549 170.507 212.546 181.426C242.807 195.182 264.19 196.027 277.087 190.658L273.529 188.364C275.761 187.96 278.025 187.759 280.293 187.762L280.335 187.754Z" fill="url(#paint0_linear_829_674)"/>
<path style="mix-blend-mode:multiply" opacity="0.6" d="M218.387 174.958C218.387 174.958 237.842 187.062 251.757 188.193C273.657 189.966 282.679 180.469 304.577 190.232C304.577 190.232 294.791 179.685 279.641 178.749C264.491 177.814 233.622 181.503 218.387 174.958Z" fill="url(#paint1_linear_829_674)"/>
<path d="M193.42 152.6C193.42 152.6 204.551 167.954 223.746 167.669C242.94 167.384 247.62 164.642 262.471 166.829C277.322 169.016 304.879 179.897 315.013 195.618C315.013 195.618 303.741 180.342 267.102 184.843C233.454 188.974 202.026 168.013 193.42 152.6Z" fill="url(#paint2_linear_829_674)"/>
<path d="M224.715 164.993C224.715 164.993 249.759 168.595 258.089 163.537C266.419 158.479 266.82 146.732 266.82 146.732C266.82 146.732 255.693 165.068 224.715 164.993Z" fill="#44165F"/>
<path d="M255.852 164.574C249.392 166.035 242.753 166.543 236.146 166.082C244.901 166.772 253.684 167.022 262.463 166.831L257.551 165.022L259.888 162.254L255.852 164.574Z" fill="#44165F"/>
<path d="M270.262 182.429C267.854 182.518 266.434 182.646 266.434 182.646C266.434 182.646 268.375 182.636 270.262 182.429Z" fill="url(#paint3_linear_829_674)"/>
<path d="M291.886 183.006C291.886 183.006 271.729 174.138 269.718 168.347C267.334 167.689 264.911 167.182 262.463 166.831C259.181 166.429 241.143 166.645 241.143 166.645C241.143 166.645 248.459 167.152 250.217 167.683C251.976 168.215 273.562 180.126 274.245 181.254C274.619 181.873 272.405 182.218 270.23 182.4C271.504 182.36 273.054 182.329 274.817 182.334C259.079 183.083 242.764 185.617 215.162 172.843C215.162 172.843 234.888 185.704 257.112 185.3C279.336 184.896 298.912 179.981 314.968 195.558C315.005 195.62 311.391 186.129 291.886 183.006Z" fill="black" fill-opacity="0.24"/>
<path d="M169.737 148.048C169.737 148.048 157.564 159.681 136.57 162.849C115.576 166.016 95.2747 164.977 88.0055 166.56C80.7364 168.142 70.4223 181.028 53.6348 182.876C42.8207 183.871 31.9174 183.178 21.3151 180.824C29.7053 185.612 38.9759 188.653 48.57 189.766C59.2519 191.081 75.5398 183.985 75.5398 183.985C75.5398 183.985 58.6162 197.659 43.3136 201.105C46.3412 202.802 49.6694 203.894 53.1133 204.322C61.5728 204.01 69.6553 200.744 75.9563 195.089C75.9563 195.089 70.6687 205.478 73.5566 216.559C73.5566 216.559 79.2972 223.768 92.007 226.872C92.007 226.872 84.8549 210.731 85.407 200.762C85.407 200.762 86.9588 214.122 93.8309 224.948C93.8309 224.948 103.177 228.637 110.539 225.618C109.109 223.098 107.892 220.462 106.9 217.74C106.9 217.74 114.813 201.527 114.418 189.482C114.418 189.482 118.588 205.904 134.712 220.695C134.712 220.695 141.75 223.946 148.984 221.304L141.698 214.839C145.069 216.863 148.796 218.225 152.678 218.85C158.504 219.619 176.349 214.598 185.574 208.951L188.373 209.666C188.373 209.666 192.658 207.205 196.944 199.411C196.944 199.411 203.252 196.047 206.316 191.097L205.601 188.882C205.601 188.882 207.512 184.801 206.324 181.806C200.705 176.785 194.349 172.656 187.479 169.563C187.479 169.563 200.059 173.997 208.054 174.318C208.054 174.318 210.599 172.621 209.613 170.379C208.626 168.138 169.737 148.048 169.737 148.048Z" fill="url(#paint4_linear_829_674)"/>
<path style="mix-blend-mode:multiply" opacity="0.6" d="M119.398 168.889C119.398 168.889 149.775 191.13 196.908 199.444C196.908 199.444 203.081 195.031 206.28 191.13C206.28 191.13 198.24 176.677 168.551 162.574C168.554 162.59 136.51 168.408 119.398 168.889Z" fill="url(#paint5_linear_829_674)"/>
<path d="M57.0386 182.326C57.0386 182.326 68.4703 180.937 78.2598 175.684C96.8662 165.678 121.058 170.101 145.372 168.643C170.432 167.133 174.348 156.716 174.348 156.716L169.736 148.048C169.736 148.048 154.247 159.785 136.569 162.849C118.891 165.913 89.3442 165.08 86.0146 166.399C82.6851 167.718 69.8721 179.239 57.0386 182.326Z" fill="url(#paint6_linear_829_674)"/>
<path style="mix-blend-mode:multiply" opacity="0.6" d="M111.459 168.962C111.459 168.962 149.172 201.658 188.328 209.7C188.328 209.7 192.75 206.225 194.825 202.835C194.825 202.835 148.092 191.238 119.389 168.89L111.459 168.962Z" fill="url(#paint7_linear_829_674)"/>
<path style="mix-blend-mode:multiply" opacity="0.6" d="M148.94 221.303C148.94 221.303 118.308 197.373 109.067 168.953L107.18 169.022C107.18 169.022 113.395 202.549 134.635 220.657C134.674 220.728 143.885 224.889 148.94 221.303Z" fill="url(#paint8_linear_829_674)"/>
<path d="M106.864 217.773C106.864 217.773 94.4459 196.596 93.994 174.128C93.994 174.128 95.5264 190.097 108.46 214.266L106.864 217.773Z" fill="black" fill-opacity="0.24"/>
<path d="M85.4679 200.028C85.4679 200.028 85.2255 184.936 88.0645 174.6C88.0645 174.6 74.7405 198.103 92.0083 226.923C92.0083 226.923 87.0507 215.808 87.3368 210.026C87.3321 210.001 85.4278 203.631 85.4679 200.028Z" fill="black" fill-opacity="0.24"/>
<path d="M194.833 202.834C194.833 202.834 172.9 194.539 162.195 190.296C162.195 190.296 184.612 197.82 196.907 199.444L194.833 202.834Z" fill="black" fill-opacity="0.24"/>
<path d="M141.66 214.872C141.66 214.872 133.273 207.348 128.131 200.904C128.131 200.904 142.395 211.586 156.223 218.876C156.215 218.834 144.506 218.098 141.66 214.872Z" fill="black" fill-opacity="0.24"/>
<path d="M119.398 168.889C119.398 168.889 147.202 187.663 176.343 194.739C176.343 194.739 174.217 191.275 164.661 182.834C155.106 174.393 132.438 168.972 132.438 168.972L119.398 168.889Z" fill="black" fill-opacity="0.24"/>
<path d="M109.098 168.982C109.098 168.982 114.509 189.146 128.132 200.904C127.159 195.135 125.078 189.609 122.004 184.632C116.763 175.909 111.45 168.921 111.45 168.921L109.098 168.982Z" fill="black" fill-opacity="0.24"/>
<path style="mix-blend-mode:multiply" opacity="0.99" d="M67.5807 179.994C67.5807 179.994 75.232 179.536 86.6828 174.892C105.86 167.11 159.451 176.402 174.789 166.525L203.419 166.265L169.72 148.051L164.371 151.631C164.371 151.631 167.44 155.951 163.087 160.765C155.535 169.109 115.552 167.225 101.274 167.46C85.4215 167.731 77.4547 177.4 67.5807 179.994Z" fill="url(#paint9_linear_829_674)"/>
<path d="M243.641 177.161C242.36 179.201 240.754 181.018 238.887 182.54C235.985 185.043 229.282 191.216 225.845 191.686C221.664 192.313 217.401 187.906 213.242 186.946C206.048 185.255 200.703 184.482 194.222 181.772C193.617 181.524 193.026 181.264 192.433 180.988C190.023 179.879 187.701 178.588 185.487 177.126L184.689 176.578C183.364 175.656 181.409 174.207 179.279 172.429C179.379 172.591 179.461 172.756 179.557 172.901C180.149 173.903 180.835 174.846 181.605 175.718C177.819 173.44 174.583 170.353 172.127 166.678C171.792 168.562 171.761 170.487 172.032 172.381C172.032 172.381 165.709 166.743 165.551 161.207C165.393 155.672 169.456 150.551 168.492 145.442C167.927 144.782 167.269 144.207 166.54 143.734C164.691 142.565 163.069 141.07 161.752 139.322C161.36 138.839 161.074 138.278 160.914 137.676C160.754 137.074 160.724 136.446 160.824 135.831C160.983 134.755 161.287 133.706 161.729 132.712C162.358 131.638 163.211 130.713 164.23 130C166.041 128.698 168.146 127.952 170.191 126.984C172.809 125.737 175.237 124.125 177.403 122.196C177.908 121.822 178.286 121.301 178.482 120.704C178.075 122.337 177.297 123.854 176.208 125.137C175.061 126.837 173.735 128.409 172.252 129.825L172.934 129.697C175.218 129.159 177.345 128.093 179.143 126.584C178.281 127.835 177.323 129.017 176.28 130.121L175.454 131.041L175.637 131.007C179.905 131.294 184.141 131.94 188.3 132.94C191.206 133.618 194.073 134.458 196.885 135.455C198.111 135.88 199.302 136.334 200.458 136.817C204.188 138.374 207.892 140.115 211.562 141.906C215.232 143.697 218.707 145.456 222.308 147.149C224.519 149.78 226.598 152.625 229.477 154.186C236.311 157.863 243.713 161.356 244.891 168.765C245.409 171.721 245.329 174.325 243.641 177.161Z" fill="url(#paint10_linear_829_674)"/>
<path fill-rule="evenodd" clip-rule="evenodd" d="M230.068 199.464C230.068 199.464 232.261 202.684 235.071 202.038C236.258 201.604 237.341 200.927 238.25 200.05C238.25 200.05 239.252 198.926 239.153 198.72C239.625 199.357 240.039 200.033 240.391 200.742C240.392 200.975 237.221 203.055 234.674 203.686C234.428 203.749 231.666 202.399 230.068 199.464Z" fill="url(#paint11_linear_829_674)"/>
<path style="mix-blend-mode:multiply" opacity="0.6" d="M208.084 181.236C208.084 181.236 216.899 178.728 220.803 178.962L223.192 181.397C218.231 182.684 213.017 182.629 208.084 181.236ZM244.924 168.75C243.712 161.348 236.344 157.848 229.511 154.171C226.64 152.609 224.535 149.769 222.341 147.134C218.741 145.442 215.18 143.639 211.595 141.892C216.193 148.094 220.647 154.951 220.647 154.951L214.096 155.315L222.203 156.604C229.202 162.916 229.931 173.024 229.931 173.024C225.984 175.637 219.971 175.342 219.971 175.342L213.989 167.162C213.53 163.068 212.297 159.098 210.358 155.464C211.809 158.78 212.483 162.385 212.328 166.002L205.182 167.458L211.995 167.758C214.705 170.489 216.664 173.874 217.683 177.584C213.664 179.634 205.633 178.796 205.633 178.796L196.846 169.868C200.417 173.558 203.445 177.739 205.838 182.284C200.49 182.397 195.246 180.787 190.882 177.691L183.138 162.616L187.372 173.952C183.758 173.432 179.033 172.346 177.29 170.607C178.119 171.502 178.879 172.254 179.588 172.922C181.386 174.566 183.383 175.979 185.532 177.126C187.37 178.176 189.549 179.3 192.478 180.988C193.071 181.265 193.661 181.524 194.266 181.772C200.714 184.489 206.093 185.255 213.286 186.947C217.41 187.896 221.692 192.317 225.889 191.687C229.318 191.175 236.029 185.044 238.931 182.54C240.799 181.019 242.405 179.202 243.686 177.162C244.796 173.858 245.257 170.804 244.924 168.75Z" fill="url(#paint12_linear_829_674)"/>
<path d="M169.247 141.19C168.82 142.267 167.162 144.297 163.147 145.349C162.045 145.628 160.961 145.974 159.902 146.386C159.212 146.629 158.561 146.971 157.968 147.401L157.734 143.849L160.336 142.451L162.504 142.14L169.247 141.19Z" fill="url(#paint13_linear_829_674)"/>
<path d="M169.245 141.19C168.752 141.948 168.065 142.561 167.256 142.964C166.989 143.057 166.715 143.131 166.438 143.185L166.38 143.196L165.267 143.404L165.192 143.418C164.644 143.521 164.021 143.637 163.389 143.755C161.981 144.004 160.641 144.547 159.458 145.35C158.835 145.91 158.33 146.589 157.975 147.348C157.664 147.962 157.442 148.618 157.315 149.295C155.501 147.311 153.001 141.62 154.692 139.076C156.393 136.539 162.928 135.447 162.928 135.447C163.442 135.716 163.858 136.141 164.118 136.661C164.477 137.204 164.893 137.909 165.473 138.807C165.949 139.518 166.598 140.095 167.36 140.484C167.948 140.815 168.584 141.053 169.245 141.19Z" fill="url(#paint14_linear_829_674)"/>
<path style="mix-blend-mode:multiply" opacity="0.99" d="M165.255 143.424L166.476 143.196L166.368 143.216C165.556 143.471 161.305 144.876 159.904 146.394C159.214 146.637 158.563 146.979 157.97 147.409C157.659 148.023 157.437 148.679 157.311 149.356C155.496 147.373 152.997 141.681 154.688 139.138C154.528 139.604 154.524 140.11 154.679 140.578C154.833 141.046 155.136 141.451 155.542 141.73C156.972 142.573 164.256 138.957 164.501 138.568C164.747 138.178 164.364 137.372 164.153 136.706C164.513 137.249 164.928 137.954 165.509 138.852C165.985 139.563 166.634 140.14 167.396 140.529C165.699 140.793 164.057 141.335 162.538 142.134C160.301 143.413 163.274 143.82 163.423 143.835L165.225 143.498L165.255 143.424Z" fill="url(#paint15_linear_829_674)"/>
<path d="M159.258 140.416C159.474 140.012 159.823 139.695 160.246 139.518C160.669 139.342 161.14 139.318 161.579 139.449C160.896 139.956 160.099 140.289 159.258 140.416Z" fill="white"/>
<path d="M327.469 59.6277C327.469 59.6277 338.861 62.3061 344.758 72.8841C344.758 72.8841 345.45 80.1691 341.511 90.5989C340.68 92.7787 339.726 94.9097 338.655 96.9816C338.655 96.9816 328.882 89.1236 325.051 73.7813C325.043 73.7722 325.038 73.7614 325.036 73.7497C325.034 73.738 325.035 73.726 325.039 73.7148C324.987 73.4405 324.893 73.1657 324.833 72.893C325.262 75.6942 326.081 87.3419 335.95 97.2291C335.95 97.2291 332.91 105.246 327.348 110.397C326.371 111.309 325.3 112.115 324.152 112.801C324.152 112.801 300.206 104.59 295.354 90.9097C295.54 91.4941 295.861 92.4749 296.333 93.7544C298.826 100.47 305.379 115.2 316.595 120.57C316.595 120.57 304.792 137.398 292.748 144.432L293.438 133.224C292.569 137.041 291.197 140.725 289.356 144.18C289.027 144.809 288.661 145.428 288.268 146.035C287.017 147.989 280.777 152.965 264.712 146.997C260.321 145.323 256.068 143.309 251.989 140.972C249.81 139.754 271.652 154.688 271.492 154.753C270.816 155.043 270.086 155.325 269.316 155.572C261.964 158.048 251.221 158.705 240.062 157.643C235.904 157.255 231.771 156.638 227.681 155.795C225.168 155.246 222.709 154.477 220.331 153.496C209.999 149.407 199.625 141.833 193.916 137.318L192.327 136.041C191.263 135.173 190.456 134.49 189.977 134.089C189.944 134.048 189.905 134.012 189.862 133.982C189.6 133.773 189.474 133.65 189.474 133.65L189.515 133.642L189.799 133.503L193.619 131.593C206.339 125.182 244.876 105.171 259.564 91.3124C263.992 87.1303 268.206 82.8161 272.127 78.5911L273.006 77.6355L273.276 77.3355C284.495 65.1492 293.247 54.026 297.962 50.0913C304.007 45.0393 319.056 44.6517 332.105 33.4736C333.096 32.6461 334.074 31.7437 335.037 30.7666C348.714 16.7875 357.354 0.000106077 357.354 0.000106077C354.624 11.0501 350.029 21.5521 343.765 31.0532C336.989 41.437 320.413 50.9005 319.775 51.2605C320.456 51.1332 342.283 45.6166 355.823 34.4415C354.821 38.4075 353.171 42.1803 350.938 45.6072C350.938 45.6072 341.704 57.1902 327.469 59.6277Z" fill="url(#paint16_linear_829_674)"/>
<path d="M289.352 144.155C289.022 144.784 288.657 145.403 288.263 146.01C287.012 147.964 280.773 152.94 264.708 146.972C260.319 145.306 256.067 143.3 251.99 140.972C249.81 139.754 271.652 154.688 271.492 154.753C270.816 155.042 270.086 155.325 269.316 155.572C266.703 154.659 264.15 153.553 261.613 152.445C257.195 150.518 252.769 148.593 248.53 146.289C237.411 140.303 227.684 132.028 219.99 122.01C219.583 121.485 226.168 118.499 226.898 118.448C228.881 118.293 231.44 121.59 232.962 122.837C237.412 126.5 242.143 129.806 247.112 132.724C249.905 134.372 252.786 135.863 255.744 137.191C265.963 141.939 277.132 144.285 288.395 144.05C288.717 144.039 289.04 144.074 289.352 144.155Z" fill="black" fill-opacity="0.24"/>
<path style="mix-blend-mode:multiply" opacity="0.6" d="M271.486 154.711C261.728 158.892 243.948 159.153 227.691 155.75C225.179 155.201 222.719 154.432 220.342 153.451C210.009 149.362 199.636 141.788 193.926 137.273L192.338 135.996C191.273 135.129 190.466 134.445 189.987 134.044C189.954 134.003 189.916 133.967 189.872 133.937C189.61 133.728 189.484 133.605 189.484 133.605L189.807 133.45L193.628 131.54C204.525 129.552 215.24 126.669 225.664 122.92C238.964 135.666 256.787 143.637 251.991 140.972C249.804 139.712 271.646 154.647 271.486 154.711Z" fill="url(#paint17_linear_829_674)"/>
<path d="M332.114 33.3941C329.164 36.2052 326.019 38.805 322.703 41.1743C322.059 41.6387 321.39 42.1078 320.695 42.5732C317.859 44.5177 314.87 46.2272 311.756 47.6846C290.835 57.3151 281.592 75.3335 262.615 96.281C243.102 117.853 213.768 130.76 195.583 136.817C195.049 137.003 194.496 137.127 193.933 137.185C190.868 137.483 190.089 135.014 189.871 133.851C189.831 133.635 189.8 133.468 189.781 133.369C189.781 133.369 244.406 105.009 259.574 91.2329C263.515 87.6664 267.839 83.2028 272.12 78.5147L272.999 77.5591L273.27 77.2591C285.251 64.0959 296.876 49.6231 299.309 48.1019C302.72 46.0277 320.452 42.7475 332.114 33.3941Z" fill="url(#paint18_linear_829_674)"/>
<path d="M327.342 110.372C326.365 111.284 325.294 112.09 324.147 112.776C324.147 112.776 300.205 104.59 295.353 90.9097C295.54 91.4941 295.86 92.4749 296.332 93.7543C292.373 87.7511 288.58 79.8762 285.365 69.5793C285.867 70.4231 292.458 94.8311 327.342 110.372Z" fill="black" fill-opacity="0.24"/>
<path d="M303.856 88.9848C303.856 88.9848 292.725 78.3702 287.689 68.8611C287.689 68.8611 292.835 95.6037 329.221 103.312C329.221 103.312 316.689 99.049 312.761 94.7259C312.761 94.7259 306.432 91.5911 303.856 88.9848Z" fill="black" fill-opacity="0.24"/>
<path style="mix-blend-mode:multiply" opacity="0.99" d="M322.691 41.2372C322.334 41.6306 316.362 48.0367 304.976 54.8184C285.211 66.5811 275.143 97.1565 258.922 108.196C251.538 113.215 213.519 134.617 220.341 153.451C210.009 149.362 199.635 141.788 193.926 137.273C190.861 137.571 190.081 135.102 189.864 133.938C189.601 133.73 189.475 133.607 189.475 133.607L189.798 133.452C189.845 133.659 189.906 133.863 189.981 134.063C190.179 134.559 190.497 134.998 190.908 135.339C191.319 135.68 191.808 135.912 192.332 136.014C193.749 136.278 195.209 136.171 196.572 135.703C252.297 119.988 279.574 74.5501 290.217 61.8176C301.197 48.7213 311.907 48.3018 320.677 42.6543C321.368 42.207 322.028 41.7395 322.691 41.2372Z" fill="url(#paint19_linear_829_674)"/>
<path d="M341.509 90.5821C340.678 92.7619 339.725 94.8928 338.653 96.9647C338.653 96.9647 328.88 89.1067 325.049 73.7644C325.042 73.7554 325.036 73.7445 325.034 73.7328C325.032 73.7212 325.033 73.7091 325.037 73.6979C324.916 73.0497 324.796 72.4098 324.75 71.7475C326.611 76.1149 329.287 80.0868 332.637 83.4502C335.306 86.1653 338.284 88.5589 341.509 90.5821Z" fill="url(#paint20_linear_829_674)"/>
<path style="mix-blend-mode:multiply" opacity="0.99" d="M166.957 137.085C166.957 137.085 166.828 134.735 169.639 133.358C172.451 131.981 172.991 134.873 172.884 135.77L166.957 137.085Z" fill="url(#paint21_linear_829_674)"/>
<path fill-rule="evenodd" clip-rule="evenodd" d="M170.863 138.574C168.613 139.278 166.811 138.007 166.95 137.095C167.467 133.79 171.348 133.03 172.214 133.986C172.436 134.223 172.603 134.506 172.704 134.815C172.846 135.182 172.911 135.574 172.894 135.967C172.877 136.36 172.779 136.745 172.606 137.098C172.433 137.451 172.189 137.764 171.889 138.018C171.589 138.272 171.239 138.462 170.863 138.574Z" fill="url(#paint22_linear_829_674)"/>
<path d="M172.588 136.032C172.656 136.491 172.54 136.958 172.265 137.332C171.991 137.705 171.579 137.955 171.121 138.027C170.775 138.082 170.42 138.034 170.102 137.887C169.783 137.74 169.516 137.502 169.333 137.203C169.15 136.903 169.06 136.556 169.076 136.206C169.091 135.855 169.21 135.517 169.417 135.235C169.625 134.952 169.912 134.738 170.242 134.619C170.572 134.501 170.93 134.483 171.27 134.568C171.61 134.654 171.917 134.839 172.152 135.099C172.387 135.36 172.539 135.685 172.588 136.032Z" fill="url(#paint23_radial_829_674)"/>
<path d="M172.155 136.053C172.192 136.274 172.161 136.501 172.069 136.705C171.976 136.909 171.825 137.081 171.635 137.199C171.444 137.317 171.223 137.376 171 137.368C170.776 137.361 170.559 137.287 170.377 137.156C170.196 137.025 170.056 136.843 169.978 136.634C169.899 136.424 169.884 136.195 169.936 135.977C169.987 135.759 170.101 135.561 170.265 135.408C170.428 135.255 170.634 135.154 170.855 135.118C171.001 135.094 171.151 135.099 171.296 135.133C171.441 135.167 171.578 135.229 171.699 135.316C171.819 135.403 171.922 135.513 172 135.639C172.079 135.766 172.131 135.906 172.155 136.053Z" fill="url(#paint24_linear_829_674)"/>
<path style="mix-blend-mode:multiply" opacity="0.91" d="M172.714 134.813C168.791 135.03 167.051 136.99 166.959 137.093C167.476 133.788 171.357 133.028 172.224 133.985C172.445 134.222 172.613 134.505 172.714 134.813Z" fill="url(#paint25_linear_829_674)"/>
<path style="mix-blend-mode:screen" opacity="0.5" d="M170.212 135.238L171.006 136.078L172.692 135.488L172.399 134.837C171.652 134.842 170.912 134.977 170.212 135.238Z" fill="url(#paint26_linear_829_674)"/>
<path style="mix-blend-mode:multiply" opacity="0.6" d="M179.736 171.682C177.723 170.527 176.537 169.699 176.537 169.699C174.986 164.992 177.319 155.49 177.905 153.196C177.962 153.106 178.027 153.022 178.098 152.945C178.12 153.061 178.151 153.227 178.189 153.427C178.226 153.626 178.145 153.744 178.133 153.867L178.094 155.173C178.058 156.04 178.039 156.904 178.003 157.77C177.908 162.502 177.956 167.361 179.736 171.682Z" fill="url(#paint27_linear_829_674)"/>
<path style="mix-blend-mode:multiply" opacity="0.6" d="M172.165 166.697C172.165 166.697 173.103 168.354 173.089 167.961C172.704 159.234 176.39 148.826 176.39 148.826C176.39 148.826 170.983 159.822 172.165 166.697Z" fill="url(#paint28_linear_829_674)"/>
<path d="M233.208 202.507C231.867 201.645 230.725 200.507 229.859 199.168C229.065 198.12 228.325 197.033 227.643 195.909C227.18 195.136 226.734 194.359 226.346 193.571C225.687 192.28 225.098 190.955 224.581 189.601C224.154 188.468 223.462 186.421 225.474 186.656C227.038 186.836 227.451 188.72 227.918 189.932C228.253 190.994 228.924 191.919 229.829 192.568C230.252 192.844 230.726 193.033 231.222 193.124C231.695 193.217 232.699 193.296 233.594 193.438C233.984 193.49 234.37 193.58 234.744 193.705C235.269 193.904 235.772 194.159 236.244 194.465C235.349 194.4 234.45 194.487 233.584 194.721C233.468 194.749 233.358 194.795 233.258 194.86C233.238 195.078 233.575 197.708 234.045 198.153C234.636 198.632 235.308 199.002 236.029 199.244C236.334 199.357 236.666 199.379 236.983 199.307C237.301 199.235 237.591 199.074 237.819 198.841C237.854 198.792 237.884 198.741 237.91 198.686C238.232 197.972 237.377 196.799 237.121 196.03C237.901 196.652 238.61 197.359 239.235 198.138C239.431 198.364 239.574 198.631 239.656 198.919C239.673 199.243 236.203 204.132 233.208 202.507Z" fill="url(#paint29_linear_829_674)"/>
<path fill-rule="evenodd" clip-rule="evenodd" d="M239.213 198.176C239.099 198.405 238.919 198.594 238.696 198.719C238.438 198.767 238.172 198.767 237.914 198.719C238.236 198.006 237.381 196.832 237.125 196.063C237.897 196.688 238.597 197.397 239.213 198.176Z" fill="url(#paint30_linear_829_674)"/>
<path fill-rule="evenodd" clip-rule="evenodd" d="M236.24 194.448C235.345 194.383 234.446 194.47 233.58 194.705C233.447 194.55 233.349 194.369 233.292 194.174C233.338 193.905 233.439 193.649 233.59 193.421C233.981 193.474 234.366 193.563 234.74 193.688C235.266 193.887 235.768 194.142 236.24 194.448Z" fill="url(#paint31_linear_829_674)"/>
<path style="mix-blend-mode:multiply" opacity="0.6" fill-rule="evenodd" clip-rule="evenodd" d="M229.824 192.551C228.563 192.426 226.72 192.271 226.494 192.718C226.399 192.989 226.342 193.271 226.324 193.558C225.665 192.267 225.076 190.942 224.559 189.587C224.132 188.454 223.44 186.408 225.453 186.642C227.017 186.823 227.429 188.707 227.896 189.918C228.232 190.981 228.902 191.906 229.807 192.554L229.824 192.551Z" fill="url(#paint32_linear_829_674)"/>
<path fill-rule="evenodd" clip-rule="evenodd" d="M241.111 191.904C241.111 191.904 243.826 195.206 246.858 194.27C248.382 193.778 250.139 191.773 250.139 191.773C250.139 191.773 251.127 190.436 251.002 190.227C251.575 190.881 252.094 191.581 252.554 192.319C252.6 192.569 249.3 195.147 246.576 196.12C246.319 196.168 243.165 194.934 241.111 191.904Z" fill="url(#paint33_linear_829_674)"/>
<path d="M244.88 194.915C243.325 194.102 241.961 192.967 240.879 191.586C239.902 190.521 238.984 189.403 238.13 188.238C237.543 187.444 236.97 186.631 236.451 185.79C235.599 184.44 234.821 183.043 234.122 181.607C233.545 180.407 232.571 178.233 234.808 178.288C236.536 178.334 237.181 180.356 237.806 181.632C238.275 182.765 239.101 183.713 240.159 184.332C240.647 184.592 241.182 184.749 241.733 184.794C242.269 184.858 243.375 184.84 244.333 184.91C244.768 184.929 245.199 184.989 245.622 185.091C246.218 185.261 246.795 185.493 247.342 185.784C246.355 185.801 245.378 185.983 244.452 186.325C244.327 186.369 244.211 186.434 244.109 186.518C244.153 186.75 244.739 189.608 245.308 190.078C246.004 190.543 246.777 190.879 247.591 191.071C247.934 191.174 248.301 191.171 248.642 191.063C248.984 190.954 249.285 190.745 249.506 190.463C249.543 190.408 249.573 190.347 249.593 190.284C249.878 189.465 248.828 188.259 248.46 187.442C249.371 188.052 250.212 188.76 250.969 189.553C251.208 189.789 251.39 190.075 251.504 190.391C251.621 190.696 248.298 196.417 244.88 194.915Z" fill="url(#paint34_linear_829_674)"/>
<path fill-rule="evenodd" clip-rule="evenodd" d="M251.009 189.572C250.859 189.875 250.665 190.169 250.495 190.227C250.22 190.299 249.935 190.326 249.651 190.307C249.936 189.488 248.885 188.283 248.518 187.466C249.422 188.075 250.257 188.781 251.009 189.572Z" fill="url(#paint35_linear_829_674)"/>
<path fill-rule="evenodd" clip-rule="evenodd" d="M247.379 185.795C246.392 185.811 245.414 185.994 244.488 186.335C244.321 186.185 244.194 185.996 244.119 185.785C244.141 185.485 244.227 185.193 244.371 184.929C244.806 184.948 245.237 185.008 245.66 185.11C246.255 185.277 246.831 185.507 247.379 185.795Z" fill="url(#paint36_linear_829_674)"/>
<path style="mix-blend-mode:multiply" opacity="0.6" fill-rule="evenodd" clip-rule="evenodd" d="M240.156 184.35C238.76 184.335 236.712 184.323 236.521 184.866C236.446 185.17 236.412 185.483 236.42 185.796C235.567 184.446 234.79 183.049 234.091 181.613C233.514 180.413 232.54 178.239 234.777 178.294C236.505 178.341 237.149 180.362 237.775 181.638C238.244 182.771 239.07 183.719 240.128 184.338L240.156 184.35Z" fill="url(#paint37_linear_829_674)"/>
</g>
<defs>
<linearGradient id="paint0_linear_829_674" x1="298.057" y1="191.181" x2="242.625" y2="167.558" gradientUnits="userSpaceOnUse">
<stop stop-color="#301242"/>
<stop offset="1" stop-color="#611C8A"/>
</linearGradient>
<linearGradient id="paint1_linear_829_674" x1="221.252" y1="167.123" x2="302.109" y2="196.838" gradientUnits="userSpaceOnUse">
<stop offset="0.01" stop-color="#CA7DC4"/>
<stop offset="0.98" stop-color="#B1799F"/>
</linearGradient>
<linearGradient id="paint2_linear_829_674" x1="305.949" y1="206.528" x2="251.524" y2="156.462" gradientUnits="userSpaceOnUse">
<stop stop-color="#301242"/>
<stop offset="1" stop-color="#611C8A"/>
</linearGradient>
<linearGradient id="paint3_linear_829_674" x1="269.218" y1="183.484" x2="269.257" y2="182.976" gradientUnits="userSpaceOnUse">
<stop stop-color="#2B1619"/>
<stop offset="1" stop-color="#37223D"/>
</linearGradient>
<linearGradient id="paint4_linear_829_674" x1="44.172" y1="214.859" x2="293.904" y2="129.176" gradientUnits="userSpaceOnUse">
<stop offset="0.0330179" stop-color="#7224A3"/>
<stop offset="0.1875" stop-color="#435CB8"/>
<stop offset="0.369792" stop-color="#5F9646"/>
<stop offset="0.584508" stop-color="#ECBA39"/>
<stop offset="0.778682" stop-color="#FC902C"/>
<stop offset="1" stop-color="#FF3D00"/>
</linearGradient>
<linearGradient id="paint5_linear_829_674" x1="183.988" y1="203.485" x2="157.854" y2="148.524" gradientUnits="userSpaceOnUse">
<stop stop-color="#753470"/>
<stop offset="0.98" stop-color="#854467"/>
</linearGradient>
<linearGradient id="paint6_linear_829_674" x1="56.4491" y1="177.588" x2="85.4644" y2="113.785" gradientUnits="userSpaceOnUse">
<stop stop-color="#AC3D11"/>
<stop offset="1" stop-color="#F79C30"/>
</linearGradient>
<linearGradient id="paint7_linear_829_674" x1="177.113" y1="212.869" x2="147.153" y2="149.852" gradientUnits="userSpaceOnUse">
<stop offset="0.01" stop-color="#CA7DC4"/>
<stop offset="0.98" stop-color="#C989AC"/>
</linearGradient>
<linearGradient id="paint8_linear_829_674" x1="144.787" y1="221.104" x2="116.856" y2="162.365" gradientUnits="userSpaceOnUse">
<stop offset="0.01" stop-color="#CA7DC4"/>
<stop offset="0.98" stop-color="#C989AC"/>
</linearGradient>
<linearGradient id="paint9_linear_829_674" x1="124.273" y1="198.465" x2="143.492" y2="139.44" gradientUnits="userSpaceOnUse">
<stop offset="0.02" stop-color="#F0AEA6"/>
<stop offset="1" stop-color="#6B454E"/>
</linearGradient>
<linearGradient id="paint10_linear_829_674" x1="241.491" y1="195.566" x2="153.347" y2="145.767" gradientUnits="userSpaceOnUse">
<stop offset="0.0330179" stop-color="#7224A3"/>
<stop offset="0.1875" stop-color="#435CB8"/>
<stop offset="0.369792" stop-color="#5F9646"/>
<stop offset="0.584508" stop-color="#ECBA39"/>
<stop offset="0.778682" stop-color="#FC902C"/>
<stop offset="1" stop-color="#FF3D00"/>
</linearGradient>
<linearGradient id="paint11_linear_829_674" x1="234.555" y1="203.656" x2="235.637" y2="198.019" gradientUnits="userSpaceOnUse">
<stop offset="0.02" stop-color="#983E35"/>
<stop offset="0.99" stop-color="#860C18"/>
</linearGradient>
<linearGradient id="paint12_linear_829_674" x1="210.271" y1="191.279" x2="214.045" y2="142.512" gradientUnits="userSpaceOnUse">
<stop offset="0.01" stop-color="#CA7DC4"/>
<stop offset="0.98" stop-color="#C989AC"/>
</linearGradient>
<linearGradient id="paint13_linear_829_674" x1="158.177" y1="144.304" x2="169.464" y2="145.174" gradientUnits="userSpaceOnUse">
<stop offset="0.02" stop-color="#FF8C1B"/>
<stop offset="0.99" stop-color="#D64D0D"/>
</linearGradient>
<linearGradient id="paint14_linear_829_674" x1="161.49" y1="150.121" x2="162.593" y2="135.857" gradientUnits="userSpaceOnUse">
<stop offset="0.02" stop-color="#FF8E1B"/>
<stop offset="0.99" stop-color="#FFAE2A"/>
</linearGradient>
<linearGradient id="paint15_linear_829_674" x1="160.527" y1="150.046" x2="161.544" y2="136.9" gradientUnits="userSpaceOnUse">
<stop offset="0.01" stop-color="#FFC0B8"/>
<stop offset="0.98" stop-color="#FFE3D6"/>
</linearGradient>
<linearGradient id="paint16_linear_829_674" x1="310.333" y1="151.279" x2="145.488" y2="59.1338" gradientUnits="userSpaceOnUse">
<stop offset="0.0330179" stop-color="#7224A3"/>
<stop offset="0.1875" stop-color="#435CB8"/>
<stop offset="0.369792" stop-color="#5F9646"/>
<stop offset="0.584508" stop-color="#ECBA39"/>
<stop offset="0.778682" stop-color="#FC902C"/>
<stop offset="1" stop-color="#FF3D00"/>
</linearGradient>
<linearGradient id="paint17_linear_829_674" x1="218.489" y1="159.112" x2="243.995" y2="130.212" gradientUnits="userSpaceOnUse">
<stop offset="0.01" stop-color="#CA7DC4"/>
<stop offset="0.98" stop-color="#C989AC"/>
</linearGradient>
<linearGradient id="paint18_linear_829_674" x1="322.173" y1="39.0257" x2="191.065" y2="135.493" gradientUnits="userSpaceOnUse">
<stop stop-color="#AC3D11"/>
<stop offset="1" stop-color="#F79C30"/>
</linearGradient>
<linearGradient id="paint19_linear_829_674" x1="193.336" y1="91.562" x2="319.273" y2="101.272" gradientUnits="userSpaceOnUse">
<stop offset="0.02" stop-color="#F0AEA6"/>
<stop offset="0.99" stop-color="#D6899A"/>
</linearGradient>
<linearGradient id="paint20_linear_829_674" x1="333.167" y1="96.8204" x2="335.032" y2="72.7122" gradientUnits="userSpaceOnUse">
<stop stop-color="#2B1619"/>
<stop offset="1" stop-color="#37223D"/>
</linearGradient>
<linearGradient id="paint21_linear_829_674" x1="170.174" y1="136.288" x2="169.611" y2="132.901" gradientUnits="userSpaceOnUse">
<stop offset="0.01" stop-color="#9F65C4"/>
<stop offset="0.98" stop-color="#F09090"/>
</linearGradient>
<linearGradient id="paint22_linear_829_674" x1="170.473" y1="138.398" x2="169.656" y2="133.485" gradientUnits="userSpaceOnUse">
<stop stop-color="#FFFFD9"/>
<stop offset="1" stop-color="#FFBBCE"/>
</linearGradient>
<radialGradient id="paint23_radial_829_674" cx="0" cy="0" r="1" gradientUnits="userSpaceOnUse" gradientTransform="translate(171.28 137.381) rotate(-9.44177) scale(3.43146 3.4333)">
<stop offset="0.16" stop-color="#F44D28"/>
<stop offset="1" stop-color="#FFBD0D"/>
</radialGradient>
<linearGradient id="paint24_linear_829_674" x1="171.405" y1="137.035" x2="171.031" y2="134.791" gradientUnits="userSpaceOnUse">
<stop stop-color="#923C34"/>
<stop offset="1" stop-color="#823300"/>
</linearGradient>
<linearGradient id="paint25_linear_829_674" x1="166.905" y1="135.383" x2="172.866" y2="134.391" gradientUnits="userSpaceOnUse">
<stop stop-color="#C2DEF0"/>
<stop offset="0.99" stop-color="#89B4C4"/>
</linearGradient>
<linearGradient id="paint26_linear_829_674" x1="170.451" y1="135.333" x2="172.835" y2="134.936" gradientUnits="userSpaceOnUse">
<stop stop-color="#C48260"/>
<stop offset="1" stop-color="#DECFEF"/>
</linearGradient>
<linearGradient id="paint27_linear_829_674" x1="184.339" y1="166.323" x2="174.423" y2="159.541" gradientUnits="userSpaceOnUse">
<stop offset="0.01" stop-color="#CA7DC4"/>
<stop offset="0.98" stop-color="#C989AC"/>
</linearGradient>
<linearGradient id="paint28_linear_829_674" x1="178.211" y1="160.665" x2="171.531" y2="156.101" gradientUnits="userSpaceOnUse">
<stop offset="0.01" stop-color="#CA7DC4"/>
<stop offset="0.98" stop-color="#C989AC"/>
</linearGradient>
<linearGradient id="paint29_linear_829_674" x1="240.66" y1="196.228" x2="224.27" y2="194.964" gradientUnits="userSpaceOnUse">
<stop offset="0.02" stop-color="#E85E47"/>
<stop offset="0.99" stop-color="#AE2718"/>
</linearGradient>
<linearGradient id="paint30_linear_829_674" x1="238.789" y1="199.481" x2="238.99" y2="196.882" gradientUnits="userSpaceOnUse">
<stop offset="0.02" stop-color="#A1044C"/>
<stop offset="0.99" stop-color="#9A0218"/>
</linearGradient>
<linearGradient id="paint31_linear_829_674" x1="235.463" y1="195.51" x2="235.562" y2="194.232" gradientUnits="userSpaceOnUse">
<stop offset="0.02" stop-color="#A1044C"/>
<stop offset="0.99" stop-color="#9A0218"/>
</linearGradient>
<linearGradient id="paint32_linear_829_674" x1="227.393" y1="194.299" x2="227.923" y2="187.45" gradientUnits="userSpaceOnUse">
<stop offset="0.01" stop-color="#CA7DC4"/>
<stop offset="0.98" stop-color="#B1799F"/>
</linearGradient>
<linearGradient id="paint33_linear_829_674" x1="246.411" y1="196.088" x2="247.038" y2="189.795" gradientUnits="userSpaceOnUse">
<stop offset="0.02" stop-color="#983E35"/>
<stop offset="0.99" stop-color="#860C18"/>
</linearGradient>
<linearGradient id="paint34_linear_829_674" x1="251.506" y1="186.574" x2="233.492" y2="186.827" gradientUnits="userSpaceOnUse">
<stop offset="0.02" stop-color="#E85E47"/>
<stop offset="0.99" stop-color="#AE2718"/>
</linearGradient>
<linearGradient id="paint35_linear_829_674" x1="249.794" y1="190.309" x2="249.754" y2="187.444" gradientUnits="userSpaceOnUse">
<stop offset="0.02" stop-color="#A1044C"/>
<stop offset="0.99" stop-color="#9A0218"/>
</linearGradient>
<linearGradient id="paint36_linear_829_674" x1="245.764" y1="186.307" x2="245.745" y2="184.895" gradientUnits="userSpaceOnUse">
<stop offset="0.02" stop-color="#A1044C"/>
<stop offset="0.99" stop-color="#9A0218"/>
</linearGradient>
<linearGradient id="paint37_linear_829_674" x1="236.834" y1="185.779" x2="236.73" y2="178.255" gradientUnits="userSpaceOnUse">
<stop offset="0.01" stop-color="#CA7DC4"/>
<stop offset="0.98" stop-color="#B1799F"/>
</linearGradient>
<clipPath id="clip0_829_674">
<rect width="363.543" height="209.449" fill="white" transform="translate(0 66.8003) rotate(-10.5881)"/>
</clipPath>
</defs>
</svg>
