<svg width="123" height="20" viewBox="0 0 123 20" fill="none" xmlns="http://www.w3.org/2000/svg">
<path d="M122.176 15.7696C122.176 15.7696 93.1135 2.71979 88.5989 2.71979C84.0843 2.71979 58.0783 7.44799 58.0783 7.44799L51.5886 5.98225C50.9937 6.9554 50.1835 7.77739 49.221 8.38425C48.2585 8.99112 47.1698 9.36648 46.0394 9.48112C41.3367 10.474 29.0156 -0.589952 23.0432 0.0247141C17.0707 0.63938 -0.000137329 10.0958 -0.000137329 10.0958L25.0183 8.06266C31.0378 7.54256 39.5496 16.1006 39.5496 16.1006L35.5523 19.1267C35.5523 19.1267 76.2308 10.2376 90.1038 9.24471C101.109 9.3582 111.993 11.5724 122.176 15.7696Z" fill="url(#paint0_linear_8_27669)"/>
<defs>
<linearGradient id="paint0_linear_8_27669" x1="61.2382" y1="3.08972" x2="61.0866" y2="19.1266" gradientUnits="userSpaceOnUse">
<stop stop-color="#ABC0ED"/>
<stop offset="1" stop-color="#ABC0ED" stop-opacity="0"/>
</linearGradient>
</defs>
</svg>
