<svg width="557" height="449" viewBox="0 0 557 449" fill="none" xmlns="http://www.w3.org/2000/svg">
<g clip-path="url(#clip0_492_16951)">
<path d="M233.034 265.544L230.802 266.987L226.682 269.533L226.076 269.897C219.126 274.254 212.491 279.097 206.219 284.388L205.804 284.739C205.335 285.127 204.87 285.493 204.42 285.908C202.122 287.858 199.824 289.808 197.479 291.892C193.042 295.82 188.548 300.069 184.107 304.421C176.83 311.501 169.769 318.949 162.873 326.262C137.544 353.553 117.324 379.488 115.815 381.366C128.897 361.329 143.071 342.03 158.274 323.558C164.267 316.298 170.635 308.774 177.449 301.258C181.4 296.889 185.491 292.522 189.692 288.198C190.636 287.257 191.58 286.175 192.553 285.333C192.864 285.035 193.153 284.733 193.461 284.457C193.803 284.069 194.167 283.701 194.55 283.353C200.845 277.043 207.419 270.876 214.142 265.066C214.757 264.515 215.395 263.968 216.029 263.444L218.784 261.174C218.784 261.174 221.291 260.298 224.592 259.186C235.933 255.446 258.117 249.175 233.034 265.544Z" fill="url(#paint0_radial_492_16951)"/>
<path d="M233.034 265.544L230.802 266.987L226.682 269.533L226.076 269.897C219.126 274.254 212.491 279.097 206.219 284.388L205.804 284.739C205.335 285.127 204.87 285.493 204.42 285.908C202.122 287.858 199.824 289.808 197.479 291.892C193.042 295.82 188.548 300.069 184.107 304.421C176.83 311.501 169.769 318.949 162.873 326.262C137.544 353.553 117.324 379.488 115.815 381.366C128.897 361.329 143.071 342.03 158.274 323.558C164.267 316.298 170.635 308.774 177.449 301.258C181.4 296.889 185.491 292.522 189.692 288.198C190.636 287.257 191.58 286.175 192.553 285.333C192.864 285.035 193.153 284.733 193.461 284.457C193.803 284.069 194.167 283.701 194.55 283.353C200.845 277.043 207.419 270.876 214.142 265.066C214.757 264.515 215.395 263.968 216.029 263.444L218.784 261.174C218.784 261.174 221.291 260.298 224.592 259.186C235.933 255.446 258.117 249.175 233.034 265.544Z" fill="url(#paint1_radial_492_16951)"/>
<path d="M233.034 265.544L230.802 266.987L226.682 269.533L226.076 269.897C219.126 274.254 212.491 279.097 206.219 284.388L205.804 284.739C205.335 285.127 204.87 285.493 204.42 285.908C202.122 287.858 199.824 289.808 197.479 291.892C193.042 295.82 188.548 300.069 184.107 304.421C176.83 311.501 169.769 318.949 162.873 326.262C137.544 353.553 117.324 379.488 115.815 381.366C128.897 361.329 143.071 342.03 158.274 323.558C164.267 316.298 170.635 308.774 177.449 301.258C181.4 296.889 185.491 292.522 189.692 288.198C190.636 287.257 191.58 286.175 192.553 285.333C192.864 285.035 193.153 284.733 193.461 284.457C193.803 284.069 194.167 283.701 194.55 283.353C200.845 277.043 207.419 270.876 214.142 265.066C214.757 264.515 215.395 263.968 216.029 263.444L218.784 261.174C218.784 261.174 221.291 260.298 224.592 259.186C235.933 255.446 258.117 249.175 233.034 265.544Z" fill="url(#paint2_radial_492_16951)"/>
<path d="M233.034 265.544L230.802 266.987L226.682 269.533L226.076 269.897C219.126 274.254 212.491 279.097 206.219 284.388L205.804 284.739C205.335 285.127 204.87 285.493 204.42 285.908C202.122 287.858 199.824 289.808 197.479 291.892C193.042 295.82 188.548 300.069 184.107 304.421C176.83 311.501 169.769 318.949 162.873 326.262C137.544 353.553 117.324 379.488 115.815 381.366C128.897 361.329 143.071 342.03 158.274 323.558C164.267 316.298 170.635 308.774 177.449 301.258C181.4 296.889 185.491 292.522 189.692 288.198C190.636 287.257 191.58 286.175 192.553 285.333C192.864 285.035 193.153 284.733 193.461 284.457C193.803 284.069 194.167 283.701 194.55 283.353C200.845 277.043 207.419 270.876 214.142 265.066C214.757 264.515 215.395 263.968 216.029 263.444L218.784 261.174C218.784 261.174 221.291 260.298 224.592 259.186C235.933 255.446 258.117 249.175 233.034 265.544Z" fill="url(#paint3_radial_492_16951)"/>
<path style="mix-blend-mode:multiply" opacity="0.8" d="M230.777 267.006C229.504 267.817 228.128 268.681 226.653 269.575L226.043 269.962C219.089 274.312 212.453 279.155 206.185 284.453L205.774 284.781L204.391 285.95C202.093 287.9 199.795 289.85 197.445 291.956C195.189 290.104 192.522 288.821 189.667 288.217C190.615 287.253 191.555 286.194 192.528 285.352L193.44 284.453C193.786 284.09 194.16 283.708 194.552 283.353C200.851 277.02 207.421 270.876 214.148 265.043C216.472 265.196 218.796 265.35 220.744 265.507C226.453 265.931 230.506 266.415 230.802 266.869C230.676 266.917 230.785 266.96 230.777 267.006Z" fill="url(#paint4_linear_492_16951)"/>
<path d="M441.998 203.3L242.885 209.68C242.885 209.68 243.801 208.758 245.548 207.134C246.283 206.439 247.16 205.605 248.171 204.676L249.798 203.196C250.079 202.939 250.364 202.66 250.667 202.407C252.344 200.912 254.247 199.199 256.384 197.362C262.384 192.178 270.19 185.829 279.01 179.33C280.012 178.588 281.041 177.827 282.088 177.094C284.352 175.468 286.681 173.877 289.036 172.267L291.173 170.83L292.557 169.921C295.517 167.994 298.533 166.108 301.604 164.264L303.34 163.228C305.436 162.02 307.554 160.816 309.714 159.643C310.159 159.392 310.603 159.141 311.066 158.916L312.832 157.98L314.876 156.928C316.84 155.933 318.796 154.983 320.771 154.06L322.737 153.183L324.704 152.306L326.689 151.456L328.283 150.819C329.756 150.208 331.193 149.662 332.633 149.234L334.491 148.573C335.198 148.298 335.92 148.072 336.619 147.843C337.319 147.613 337.945 147.394 338.614 147.206L340.627 146.597C343.931 145.626 347.283 144.828 350.669 144.206C355.797 143.147 361.055 142.872 366.264 143.391C367.358 143.586 368.543 143.796 369.546 143.974C371.326 144.316 373.084 144.762 374.812 145.31L375.905 145.646C377.232 146.117 378.555 146.612 379.843 147.171L381.733 148.049C382.665 148.497 383.565 148.987 384.489 149.481L386.259 150.503C387.809 151.439 389.325 152.439 390.809 153.481C391.349 153.884 391.893 154.263 392.429 154.688C397.821 158.86 402.793 163.55 407.273 168.692C418.792 181.562 427.557 195.5 435.469 200.867C437.338 202.342 439.621 203.193 441.998 203.3Z" fill="url(#paint5_radial_492_16951)"/>
<path d="M250.667 202.407C252.343 200.913 254.247 199.199 256.384 197.362C254.336 199.356 252.571 200.953 251.036 202.449C247.096 206.23 244.892 208.574 244.892 208.574L245.548 207.134C246.282 206.439 247.16 205.605 248.171 204.676C248.679 204.2 249.214 203.705 249.798 203.196C250.382 202.687 250.363 202.66 250.667 202.407Z" fill="url(#paint6_linear_492_16951)"/>
<path style="mix-blend-mode:multiply" opacity="0.8" d="M372.221 183.738L366.572 185.353L308.693 202.076L302.201 203.942L294.957 203.811L293.953 203.774L274.242 203.269C266.197 203.019 257.879 202.721 251.041 202.426L250.676 202.361L253.052 200.236C253.275 200.04 253.502 199.821 253.748 199.629L254.729 198.742C255.205 198.308 255.755 197.863 256.285 197.391L256.851 196.855C257.272 196.426 257.722 196.011 258.201 195.609C270.045 184.753 282.69 174.811 296.029 165.868C294.784 167.169 293.608 168.535 292.504 169.958C272.009 196.245 320.333 193.602 327.153 192.808C333.972 192.015 367.722 184.708 372.221 183.738Z" fill="url(#paint7_linear_492_16951)"/>
<path d="M257.061 196.727L256.472 197.26L257.061 196.727Z" fill="url(#paint8_linear_492_16951)"/>
<path d="M439.024 201.239L436.7 201.085L435.768 201.038L435.02 200.481L434.378 199.989C434.049 199.748 433.734 199.488 433.435 199.209C433.126 198.965 432.802 198.672 432.5 198.382L431.374 197.31C429.732 195.697 428.044 193.817 426.282 191.689L424.749 189.86C422.487 187.1 420.13 184.087 417.633 180.932C414.802 177.41 411.862 173.705 408.629 170.064C408.466 169.85 408.29 169.645 408.102 169.452L407.576 168.84C407.027 168.224 406.478 167.607 405.902 167.01L404.755 165.792C404.341 165.341 403.927 164.89 403.487 164.458L401.371 162.337C400.629 161.616 399.905 160.922 399.155 160.246L397.859 159.072L396.739 158.095L395.536 157.056C395.312 156.861 395.077 156.678 394.834 156.507C394.621 156.31 394.394 156.127 394.155 155.962L392.77 154.89L391.463 153.904C391.297 153.756 391.115 153.629 390.919 153.524C390.667 153.319 390.402 153.13 390.126 152.959L388.951 152.161L388.814 152.136L387.797 151.508C387.442 151.256 387.056 151.046 386.674 150.813C386.292 150.58 385.483 150.106 384.858 149.783L384.385 149.534L382.493 148.537L382.173 148.481L381.674 148.25L380.477 147.708C379.867 147.434 379.257 147.161 378.639 146.933L378.434 146.897L377.641 146.591L376.428 146.14C375.609 145.853 374.763 145.585 373.932 145.366L373.157 145.229L373.02 145.204L372.268 145.071L371.264 144.892L370.079 144.682L368.711 144.439L366.842 144.107L366.204 143.994C365.836 143.905 365.463 143.838 365.087 143.795L364.197 143.637C364.081 143.594 363.957 143.572 363.833 143.573L363.103 143.443L362.693 143.37L362.032 143.253L361.781 143.208L361.257 143.115L360.53 143.104C360.074 143.023 359.602 143.033 359.113 143.135L358.566 143.038L357.259 143.113C356.918 143.106 356.577 143.124 356.239 143.167L356.056 143.135C355.271 143.184 354.479 143.279 353.659 143.393C352.839 143.507 352.065 143.629 351.241 143.765L349.242 144.165L348.482 144.337L348.044 144.424L347.212 144.606L345.196 145.097L343.199 145.615L341.217 146.183L339.208 146.77L337.214 147.406L335.086 148.136L333.228 148.797L331.038 149.611L328.858 150.497C328.338 150.688 327.806 150.9 327.263 151.134C326.72 151.367 326.058 151.651 325.278 151.984C324.643 152.248 323.959 152.528 323.316 152.838L321.345 153.738C319.375 154.638 317.415 155.61 315.451 156.606L314.417 157.13L313.406 157.658L311.641 158.594C311.178 158.818 310.733 159.07 310.289 159.321C308.133 160.471 306.014 161.675 303.914 162.905L302.178 163.941C299.107 165.786 296.092 167.671 293.131 169.598L291.747 170.508L289.611 171.944C287.259 173.531 284.927 175.145 282.667 176.748L279.167 179.24C271.293 184.916 264.261 190.742 258.597 195.491L258.102 195.898L257.156 196.72C257.577 196.292 258.027 195.877 258.506 195.475C270.35 184.619 282.995 174.677 296.334 165.733C312.967 154.703 331.957 144.963 350.599 141.553C367.495 138.445 381.121 143.813 392.481 152.41C394.803 154.167 397.051 156.075 399.191 158.059C401.331 160.043 402.863 161.612 404.601 163.477C405.038 163.932 405.497 164.391 405.907 164.865L407.302 166.409L407.908 167.106C418.243 178.823 425.546 191.464 432.375 197.629C433.748 198.924 435.338 199.965 437.073 200.704C437.698 200.965 438.354 201.145 439.024 201.239Z" fill="#175C2F"/>
<path d="M546.005 147.838L545.696 149.576C545.388 151.313 545.079 153.051 544.767 154.811C544.454 156.572 544.145 158.309 543.696 160.045C543.59 160.64 543.485 161.234 543.383 161.806L543.071 163.566L542.758 165.326C541.184 172.334 539.314 179.289 537.207 185.99C537.105 186.561 536.871 187.086 536.679 187.641C536.15 189.292 535.599 190.94 535.029 192.56C533.874 195.798 532.659 198.931 531.384 201.959C531.291 202.485 530.947 202.966 530.739 203.472C530.532 203.977 530.306 204.456 530.076 204.957C529.49 206.268 528.882 207.575 528.259 208.833C528.01 209.307 527.784 209.786 527.539 210.238C526.99 211.343 526.426 212.398 525.844 213.427C525.261 214.455 524.341 216.061 523.573 217.339C522.806 218.618 522.143 219.703 521.399 220.844C520.655 221.986 519.877 223.192 519.088 224.325C518.298 225.458 517.513 226.569 516.705 227.675C515.898 228.782 515.114 229.751 514.283 230.853C513.453 231.956 512.97 232.554 512.287 233.352L511.681 234.117L509.549 236.592L509.256 236.917C508.519 237.754 507.76 238.586 506.982 239.391C506.895 239.508 506.797 239.617 506.689 239.716C506.077 240.385 505.441 241.051 504.779 241.735C504.517 242.019 504.232 242.298 503.92 242.597C503.173 243.36 502.403 244.12 501.615 244.852C500.826 245.585 499.895 246.457 499.026 247.246C498.157 248.035 497.296 248.778 496.412 249.517C495.529 250.257 494.676 250.954 493.8 251.648C492.924 252.341 492.076 253.016 491.09 253.666L488.404 255.547L485.719 257.429C482.752 259.469 479.679 261.348 476.512 263.057C475.753 263.488 474.976 263.893 474.226 264.278L473.736 264.522L471.906 265.423C471.313 265.718 470.697 266.01 470.111 266.26C468.933 266.805 467.785 267.309 466.642 267.79L464.596 268.582C463.862 268.876 463.136 269.124 462.433 269.377L461.756 269.61C460.705 269.966 459.708 270.284 458.742 270.561C457.776 270.837 457.184 270.992 456.47 271.171C455.756 271.351 455.264 271.476 454.68 271.585C453.157 271.933 451.613 272.179 450.058 272.32C448.031 272.479 443.534 272.506 437.228 272.4L434.601 272.358L432.257 272.319L430.43 272.277L424.085 272.118L418.936 271.981C417.223 271.96 415.446 271.904 413.623 271.84L413.486 271.815L410.687 271.554L389.212 270.924C354.119 269.903 315.373 262.975 289.485 263.754L287.284 263.835L286.149 263.869L283.045 264.002L282.862 263.969C280.92 264.049 279.091 264.149 277.445 264.281L277.286 264.253C276.623 264.272 275.961 264.328 275.304 264.419C273.658 264.552 272.168 264.735 270.886 264.932C270.69 264.957 270.495 264.994 270.303 265.041C268.278 265.449 266.293 266.036 264.371 266.793C251.893 270.85 239.213 280.673 230.58 286.12C226.604 288.645 223.036 291.124 219.898 293.303C213.828 297.555 209.527 300.588 207.428 300.356C203.098 299.847 203.782 290.7 204.446 286.031C204.739 284.385 204.933 283.287 204.933 283.287L204.59 283.368C203.228 283.621 198.234 284.597 192.465 285.436C185.22 286.507 176.833 287.518 174.081 286.463C171.329 285.408 179.005 277.008 186.602 268.924L189.21 266.156C194.461 260.556 198.997 255.537 199.01 253.747C199.025 253.724 199.035 253.697 199.04 253.67C199.045 253.642 199.044 253.614 199.038 253.587C198.979 253.495 198.893 253.422 198.793 253.378C198.672 253.322 198.538 253.298 198.405 253.309L198.086 253.253C197.471 253.099 196.847 252.989 196.217 252.921L195.1 252.722L193.586 252.642L192.833 252.509L191.224 252.435L188.887 252.35L186.364 252.256L185.268 252.203L183.727 252.141L181.84 252.042L180.417 251.978L178.093 251.824L173.73 251.498L170.813 251.239L170.402 251.166L167.771 250.888L164.916 250.546L164.734 250.513L163.138 250.23L161.496 249.938L158.145 249.343L154.612 248.716C151.352 248.137 147.955 247.533 144.501 246.59L142.839 246.153C142.276 246.053 141.715 245.906 141.153 245.712C140.013 245.51 138.906 245.124 137.718 244.796L134.345 243.796L130.873 243.085C128.472 242.305 126.042 241.425 123.578 240.468C121.86 239.81 120.11 239.074 118.363 238.316L116.571 237.55L116.434 237.525L112.806 235.843L112.048 235.473L109.198 234.047L107.367 232.967C105.732 232.111 104.128 231.213 102.509 230.265L100.678 229.185L99.8729 228.688L98.3037 227.726L96.5081 226.581C81.3856 216.688 68.2071 204.092 57.6284 189.42C56.2672 187.551 55.0362 185.61 53.9542 183.626C45.4141 168.95 42.3769 151.36 42.6702 133.819L42.7026 133.636C42.7514 133.362 42.8042 133.065 42.7161 132.766C43.2703 113.004 46.9723 93.4556 53.682 74.86C58.6807 60.749 64.3167 51.6564 67.1345 51.9446C74.6637 52.7158 80.1371 67.5782 116.731 104.499C120.839 108.648 125.316 113.099 130.27 117.776C133.552 120.882 136.995 124.135 140.677 127.5C161.004 146.684 183.734 163.135 208.295 176.44L211.891 178.305L212.712 178.71L215.241 179.961C218.339 181.455 221.407 182.849 224.442 184.166L227.503 185.464L227.823 185.521C230.297 186.55 232.78 187.533 235.256 188.421C235.388 188.467 235.526 188.492 235.666 188.494C236.834 188.937 238.028 189.362 239.181 189.755L241.176 190.439C242.896 190.996 244.61 191.537 246.32 192.06C247.944 192.585 249.58 193.04 251.215 193.496L253.998 194.249L256.792 194.934L258.479 195.234L258.98 195.323L259.482 195.412L262.263 195.906C264.117 196.235 265.964 196.563 267.803 196.89L271.336 197.517L272.978 197.809L276.032 198.351L278.655 198.676L281.355 198.966L285.992 199.342L287.365 199.421L287.616 199.465L290.553 199.61L292.886 199.717L293.159 199.766L294.754 199.79L297.403 199.836C298.979 199.832 300.555 199.829 302.117 199.777L303.012 199.77L303.148 199.795C316.87 199.331 344.628 190.276 366.499 185.104C376.461 182.77 385.156 181.343 390.779 181.728C398.028 182.355 415.726 191.677 431.301 197.061L432.234 197.368C433.584 197.844 434.919 198.269 436.217 198.641C436.696 198.727 437.243 198.824 437.813 198.925C452.312 201.5 489.846 189.299 520.279 148.764C545.147 115.991 543.076 90.5776 547.215 86.7375C547.55 86.4157 547.994 86.2333 548.458 86.2272C550.03 86.247 550.82 92.2594 550.709 101.885C550.636 102.297 550.7 102.733 550.672 103.152C550.645 103.572 550.657 104.564 550.622 105.289C550.557 105.655 550.602 106.064 550.583 106.438C550.563 106.812 550.554 107.258 550.523 107.701C550.395 111.333 550.126 115.365 549.744 119.637C549.626 120.3 549.618 121.006 549.55 121.654C549.079 126.688 548.452 132.072 547.652 137.637C547.453 138.757 547.246 139.923 547.169 141.017L547.121 141.292C546.836 142.892 546.552 144.493 546.264 146.116C546.185 146.691 546.106 147.267 546.005 147.838Z" fill="url(#paint9_radial_492_16951)"/>
<path style="mix-blend-mode:multiply" opacity="0.74" d="M429.493 210.677C429.443 211.108 429.367 211.536 429.266 211.958C428.115 216.187 422.153 230.693 393.201 248.191C371.283 261.443 334.302 262.846 310.212 262.106C306.403 261.971 302.906 261.798 299.855 261.634C292.882 261.174 288.262 260.707 287.064 260.565C288.688 260.688 296.573 261.31 307.794 261.157C326.435 260.93 354.194 258.62 377.387 248.519C416.235 231.576 429.493 210.677 429.493 210.677Z" fill="url(#paint10_linear_492_16951)"/>
<path style="mix-blend-mode:screen" opacity="0.5" d="M429.569 211.445C429.669 211.031 429.744 210.611 429.793 210.188C429.793 210.188 416.511 231.082 377.606 248.086C354.448 258.123 326.654 260.497 308.012 260.724C326.159 259.443 354.089 255.772 377.791 245.454C416.68 228.542 430.26 209.54 430.26 209.54C430.094 210.196 429.862 210.835 429.569 211.445Z" fill="url(#paint11_linear_492_16951)"/>
<path style="mix-blend-mode:multiply" opacity="0.8" d="M408.384 191.316C408.182 191.552 407.954 191.765 407.706 191.951C408.045 191.634 408.276 191.391 408.384 191.316Z" fill="url(#paint12_linear_492_16951)"/>
<path opacity="0.5" d="M402.965 174.813C392.988 173.395 389.625 156.313 391.721 155.105C392.034 154.948 392.379 154.864 392.729 154.859C398.121 159.031 403.092 163.721 407.573 168.863C408.025 172.41 406.679 175.354 402.965 174.813Z" fill="white"/>
<path style="mix-blend-mode:multiply" opacity="0.5" d="M331.909 181.649C344.264 181.863 354.932 159.797 350.429 152.842C345.926 145.887 319.319 152.835 324.479 172.901C324.853 174.882 325.735 176.729 327.037 178.263C328.34 179.797 330.019 180.964 331.909 181.649Z" fill="url(#paint13_linear_492_16951)"/>
<path d="M331.346 181.644C342.952 181.842 352.949 161.166 348.732 154.592C344.514 148.018 319.502 154.589 324.227 173.399C324.587 175.279 325.435 177.031 326.685 178.479C327.934 179.926 329.542 181.017 331.346 181.644Z" fill="#D1E8E4"/>
<path d="M340.628 169.756C339.029 174.66 334.69 177.639 330.957 176.41C327.225 175.181 325.521 170.209 327.121 165.305C328.721 160.401 333.079 157.449 336.811 158.678C340.543 159.907 342.247 164.879 340.628 169.756Z" fill="url(#paint14_radial_492_16951)"/>
<path style="mix-blend-mode:screen" d="M338.136 168.44C337.251 172.363 334.301 175.07 331.561 174.347C328.82 173.625 327.246 170.044 328.134 166.098C329.023 162.153 331.946 159.464 334.71 160.191C337.473 160.918 339.002 164.491 338.136 168.44Z" fill="url(#paint15_radial_492_16951)"/>
<path d="M336.293 168.49C335.482 170.94 333.246 172.406 331.471 171.808C330.498 171.317 329.755 170.466 329.398 169.434C329.041 168.402 329.099 167.271 329.56 166.281C330.349 163.826 332.607 162.364 334.382 162.963C335.347 163.462 336.083 164.314 336.438 165.343C336.794 166.372 336.742 167.498 336.293 168.49Z" fill="#1C1249"/>
<path d="M344.226 164.735C344.228 165.655 343.016 166.383 341.581 166.387C340.146 166.392 338.894 165.627 338.889 164.73C338.884 163.833 340.118 163.109 341.53 163.1C342.943 163.092 344.221 163.837 344.226 164.735Z" fill="white"/>
<path style="mix-blend-mode:screen" d="M329.729 157.113C319.168 164.671 339.434 168.671 343.497 167.506C346.419 166.681 351.396 155.868 345.039 153.394C339.718 151.317 333.501 154.411 329.729 157.113Z" fill="url(#paint16_radial_492_16951)"/>
<path style="mix-blend-mode:screen" opacity="0.5" d="M323.315 163.568C323.315 163.568 321.322 170.289 323.36 174.967C324.279 177.525 325.964 179.736 328.186 181.295C325.416 180.15 323.198 177.972 321.998 175.22C319.869 170.526 323.315 163.568 323.315 163.568Z" fill="url(#paint17_linear_492_16951)"/>
<path d="M402.982 175.382C402.693 175.516 402.39 175.621 402.08 175.693C397.306 173.973 394.532 168.669 393.375 164.195C393.582 163.417 393.957 162.694 394.473 162.077C394.989 161.459 395.633 160.963 396.361 160.622C399.475 159.241 403.464 161.412 405.28 165.484C407.097 169.556 406.088 174.047 402.982 175.382Z" fill="url(#paint18_radial_492_16951)"/>
<path style="mix-blend-mode:screen" d="M403.841 166.573C404.263 167.147 404.548 167.812 404.672 168.515C404.797 169.218 404.758 169.94 404.559 170.626C404.36 171.312 404.005 171.942 403.524 172.469C403.042 172.995 402.446 173.403 401.781 173.661C401.117 173.919 400.402 174.02 399.693 173.956C398.984 173.892 398.299 173.665 397.692 173.292C397.085 172.92 396.572 172.411 396.192 171.807C395.813 171.203 395.578 170.519 395.506 169.809C395.083 169.235 394.798 168.57 394.674 167.867C394.549 167.164 394.588 166.442 394.787 165.756C394.987 165.07 395.341 164.439 395.823 163.913C396.304 163.386 396.901 162.978 397.565 162.72C398.229 162.462 398.944 162.362 399.653 162.426C400.362 162.49 401.047 162.717 401.654 163.089C402.262 163.462 402.775 163.97 403.154 164.574C403.533 165.179 403.768 165.862 403.841 166.573Z" fill="url(#paint19_radial_492_16951)"/>
<path d="M402.07 167.272C402.401 167.71 402.622 168.22 402.717 168.761C402.812 169.302 402.776 169.858 402.614 170.383C402.452 170.908 402.168 171.386 401.785 171.779C401.402 172.172 400.931 172.468 400.411 172.642C399.892 172.817 399.338 172.865 398.797 172.782C398.255 172.7 397.742 172.489 397.298 172.168C396.854 171.847 396.493 171.424 396.244 170.935C395.995 170.446 395.867 169.904 395.868 169.355C395.413 168.42 395.333 167.344 395.645 166.351C395.957 165.358 396.637 164.522 397.546 164.016C399.254 163.4 401.293 164.894 402.07 167.272Z" fill="#1C1249"/>
<path d="M405.887 164.578C405.878 164.895 405.746 165.196 405.517 165.416C405.289 165.636 404.984 165.757 404.668 165.753C404.348 165.758 404.04 165.637 403.811 165.415C403.581 165.193 403.449 164.888 403.443 164.568C403.518 164.314 403.673 164.091 403.885 163.932C404.096 163.772 404.354 163.686 404.618 163.685C404.883 163.684 405.14 163.769 405.352 163.927C405.565 164.085 405.72 164.308 405.796 164.562L405.887 164.578Z" fill="white"/>
<path style="mix-blend-mode:screen" opacity="0.5" d="M408.467 175.483C408.467 175.483 407.856 177.733 404.801 177.19C402.199 176.501 399.795 175.21 397.781 173.42C397.781 173.42 402.995 178.756 405.282 178.856C407.568 178.955 408.467 175.483 408.467 175.483Z" fill="url(#paint20_linear_492_16951)"/>
<path style="mix-blend-mode:screen" opacity="0.5" d="M379.415 168.39C379.415 168.39 377.523 174.28 379.795 174.99C384.491 176.484 380.599 167.68 379.415 168.39Z" fill="url(#paint21_linear_492_16951)"/>
<path d="M379.458 168.28C379.458 168.28 378.239 172.497 380.265 173.139C383.358 173.995 380.616 167.589 379.458 168.28Z" fill="#1C1249"/>
<path style="mix-blend-mode:screen" opacity="0.5" d="M385.033 168.138C385.033 168.138 385.275 173.793 387.719 174.463C392.786 175.858 385.931 167.448 385.033 168.138Z" fill="url(#paint22_linear_492_16951)"/>
<path d="M385.043 167.951C385.043 167.951 385.36 171.993 387.542 172.545C390.829 173.506 385.921 167.376 385.043 167.951Z" fill="#1C1249"/>
<path style="mix-blend-mode:screen" opacity="0.5" d="M392.646 154.798C373.306 162.14 353.12 152.259 342.767 145.939C345.463 145.192 348.165 144.54 350.831 144.093C367.72 140.89 381.305 146.227 392.646 154.798Z" fill="url(#paint23_linear_492_16951)"/>
<path style="mix-blend-mode:multiply" opacity="0.74" d="M207.754 281.312C204.9 281.89 182.451 287.666 177.959 285.949C175.29 284.956 182.526 277.185 189.594 269.691C186.856 272.931 181.751 280.09 187.068 282.331C193.349 285.097 205.763 281.666 207.754 281.312Z" fill="url(#paint24_linear_492_16951)"/>
<path style="mix-blend-mode:multiply" opacity="0.74" d="M220.037 292.125C214.401 296.052 210.422 298.86 208.482 298.657C203.046 298.021 206.118 282.837 206.118 282.837C206.118 282.837 206.097 291.96 210.635 294.087C212.933 295.179 216.813 293.722 220.037 292.125Z" fill="url(#paint25_linear_492_16951)"/>
<path d="M397.349 190.677L396.688 190.56L396.187 190.471C395.525 190.353 394.681 189.944 393.717 189.678L393.466 189.634C391.273 188.858 388.987 188.373 386.668 188.191C380.853 188.536 375.071 189.314 369.37 190.519C374.975 189.005 380.671 187.851 386.421 187.062C389.921 186.953 396.229 190.101 397.349 190.677Z" fill="url(#paint26_radial_492_16951)"/>
<path style="mix-blend-mode:screen" opacity="0.5" d="M397.756 192.094L396.832 191.6L397.571 191.943L397.756 192.094Z" fill="url(#paint27_linear_492_16951)"/>
<path style="mix-blend-mode:screen" opacity="0.5" d="M302.191 200.025C300.982 200.211 299.515 200.399 297.792 200.565C283.462 201.783 269.037 201.202 254.854 198.835C249.518 198.029 243.797 196.871 237.656 195.568C233.813 194.697 229.823 193.729 225.67 192.614L221.841 191.533C207.193 187.062 193.314 180.374 180.683 171.701C161.377 158.459 143.656 143.031 127.873 125.721C114.745 111.666 102.622 96.6988 91.5938 80.9324C92.3504 81.7035 101.659 91.257 115.649 104.378C120.084 108.537 124.986 113.111 130.249 117.771C133.53 120.878 136.974 124.13 140.656 127.496C160.989 146.683 183.726 163.135 208.296 176.44L211.892 178.305L212.713 178.71L215.242 179.961C218.34 181.455 221.408 182.849 224.443 184.166L227.504 185.464L227.824 185.521C230.298 186.55 232.781 187.533 235.257 188.421C235.389 188.467 235.527 188.491 235.667 188.494C236.835 188.937 238.029 189.361 239.182 189.755L241.177 190.439C242.897 190.996 244.612 191.537 246.321 192.06C247.945 192.585 249.581 193.04 251.216 193.496L253.999 194.249L256.793 194.934L258.48 195.234L259.597 195.432L262.378 195.926C264.232 196.255 266.079 196.583 267.918 196.91L271.451 197.537L273.093 197.829L276.147 198.371L278.771 198.696L281.47 198.987L286.107 199.362L287.48 199.441L287.731 199.485L290.668 199.63L293.001 199.737L293.274 199.786L294.869 199.81L297.518 199.856C298.985 200.069 300.622 200.124 302.191 200.025Z" fill="url(#paint28_linear_492_16951)"/>
<path style="mix-blend-mode:multiply" opacity="0.74" d="M546.006 147.838L545.697 149.576C545.389 151.313 545.08 153.051 544.767 154.811C544.455 156.572 544.146 158.309 543.697 160.045C543.591 160.64 543.486 161.234 543.384 161.806L543.071 163.566L542.759 165.326C541.185 172.334 539.315 179.289 537.208 185.99C537.106 186.561 536.872 187.086 536.679 187.641C536.151 189.292 535.6 190.939 535.03 192.56C533.89 195.8 532.675 198.934 531.385 201.959C531.292 202.485 530.948 202.966 530.74 203.472C530.533 203.977 530.307 204.456 530.077 204.957C529.491 206.268 528.883 207.575 528.26 208.832C528.011 209.307 527.785 209.786 527.54 210.238C526.991 211.343 526.427 212.398 525.845 213.427C525.262 214.455 524.342 216.061 523.574 217.339C522.806 218.618 522.143 219.703 521.4 220.844C520.656 221.986 519.878 223.192 519.089 224.325C518.299 225.458 517.514 226.569 516.706 227.675C515.898 228.782 515.115 229.751 514.284 230.853C513.454 231.956 512.971 232.554 512.288 233.352L511.682 234.117L509.55 236.592L509.257 236.917C508.52 237.753 507.761 238.585 506.983 239.391C506.896 239.508 506.798 239.617 506.69 239.716C506.077 240.385 505.442 241.051 504.78 241.735C504.518 242.019 504.233 242.298 503.921 242.597C503.174 243.36 502.404 244.119 501.616 244.852C500.827 245.585 499.896 246.457 499.027 247.246C498.158 248.035 497.297 248.778 496.413 249.517C495.53 250.256 494.677 250.954 493.801 251.647C492.925 252.341 492.077 253.016 491.091 253.666L488.405 255.547L485.72 257.429C482.753 259.469 479.68 261.348 476.513 263.057C475.754 263.488 474.977 263.893 474.227 264.278L473.737 264.521L471.907 265.423C471.314 265.718 470.697 266.01 470.112 266.26C468.934 266.805 467.786 267.309 466.642 267.789L464.597 268.582C463.863 268.876 463.137 269.124 462.433 269.377L461.757 269.61C460.706 269.966 459.709 270.284 458.743 270.561C457.777 270.837 457.185 270.991 456.471 271.171C455.757 271.351 455.265 271.476 454.681 271.584C453.158 271.933 451.614 272.179 450.059 272.32C448.032 272.479 443.535 272.506 437.228 272.4L434.602 272.358L432.258 272.319L430.431 272.277L424.086 272.117L418.937 271.981C417.224 271.96 415.447 271.904 413.624 271.839L413.487 271.815L410.688 271.554L389.213 270.924C408.122 271.094 427.027 270.24 445.846 268.365C451.459 267.142 456.823 264.968 461.709 261.937C463.269 260.964 464.792 259.938 466.235 258.826C488.432 242.157 497.788 211.321 494.582 207.261C490.596 202.427 456.188 208.013 450.556 208.876C457.29 207.501 507.427 195.841 531.129 146.069C549.421 107.953 546.34 90.4732 547.216 86.7374C547.35 85.983 547.705 85.8339 548.459 86.2271C550.031 86.2469 550.821 92.2593 550.71 101.885C550.637 102.297 550.701 102.732 550.673 103.152C550.646 103.572 550.658 104.564 550.623 105.289C550.558 105.655 550.603 106.064 550.583 106.438C550.564 106.812 550.555 107.258 550.524 107.701C550.396 111.333 550.127 115.365 549.744 119.637C549.627 120.3 549.619 121.006 549.551 121.654C549.08 126.688 548.453 132.071 547.653 137.636C547.454 138.757 547.247 139.923 547.17 141.017L547.121 141.292C546.837 142.892 546.553 144.492 546.265 146.116C546.186 146.691 546.107 147.267 546.006 147.838Z" fill="url(#paint29_linear_492_16951)"/>
<path style="mix-blend-mode:multiply" opacity="0.5" d="M291.245 263.241L289.468 263.846L287.267 263.926L286.132 263.961L283.028 264.093C284.72 263.969 286.202 263.831 287.425 263.695C289.655 263.454 291.005 263.269 291.245 263.241Z" fill="url(#paint30_linear_492_16951)"/>
<path style="mix-blend-mode:multiply" opacity="0.74" d="M275.272 264.602C273.808 264.767 272.206 265.048 270.436 265.347L268.677 265.719L267.235 266.028L264.3 266.663C266.214 266.009 268.181 265.522 270.179 265.207C270.371 265.16 270.566 265.124 270.762 265.098C272.135 264.918 273.626 264.734 275.272 264.602Z" fill="url(#paint31_linear_492_16951)"/>
<path style="mix-blend-mode:multiply" opacity="0.74" d="M295.353 203.693L294.956 203.811C289.717 205.239 284.319 206.638 278.458 208.522C265.264 212.9 249.605 219.906 227.942 233.439C227.172 234.599 226.222 236.105 225.306 237.688C224.58 238.997 223.864 240.379 223.239 241.778C222.113 243.99 221.502 246.43 221.455 248.913C221.409 252.554 222.494 256.117 224.559 259.11C226.817 261.904 229.768 264.054 233.116 265.346C236.352 266.716 239.733 267.712 243.195 268.315C249.669 269.465 257.364 267.978 264.473 266.481C251.994 270.538 239.315 280.361 230.681 285.808C233.071 283.874 235.277 281.648 235.085 280.081C233.622 275.676 230.643 271.937 226.682 269.533C226.23 269.295 225.742 269.136 225.237 269.064C222.017 268.658 212.684 275.655 210.404 277.373C212.611 275.406 222.285 266.748 221.12 265.763L220.719 265.503C219.222 264.653 217.645 263.954 216.01 263.417C209.662 261.157 198.606 259.194 189.302 266.031C194.553 260.431 199.089 255.412 199.102 253.622C199.117 253.598 199.127 253.572 199.132 253.545C199.137 253.517 199.136 253.489 199.13 253.462C199.071 253.37 198.985 253.297 198.885 253.253C198.764 253.197 198.63 253.173 198.497 253.184L198.178 253.128C197.563 252.974 196.939 252.863 196.309 252.796L195.192 252.597L193.678 252.517L192.925 252.383L191.316 252.31L188.979 252.225L186.456 252.131L185.361 252.078L183.819 252.016L181.932 251.917L180.509 251.853L178.185 251.699L173.822 251.373L170.905 251.114L170.494 251.041L167.863 250.762L165.008 250.42L164.826 250.388L163.23 250.105L161.588 249.813L158.237 249.218L154.635 248.578C151.375 247.999 147.979 247.396 144.525 246.453L142.862 246.016C142.3 245.916 141.738 245.769 141.177 245.575C140.037 245.373 138.93 244.987 137.742 244.658L134.369 243.658L130.872 243.085C128.471 242.304 126.041 241.425 123.577 240.468C121.86 239.81 120.109 239.074 118.362 238.316L116.57 237.55L116.433 237.525L112.805 235.843L112.048 235.473L109.197 234.047L107.366 232.967C105.731 232.111 104.127 231.213 102.508 230.265L100.678 229.185L99.8722 228.688L98.303 227.726L96.5074 226.581C102.199 229.138 108.231 230.853 114.416 231.672C129.97 233.868 145.788 230.735 159.871 225.453C165.567 223.328 171.122 220.841 176.502 218.007C177.617 217.427 178.731 216.846 179.804 216.235C184.486 213.638 189.032 210.801 193.424 207.735C202.567 201.27 208.084 195.764 207.888 194.48C207.888 194.48 207.888 194.48 207.913 194.343C206.53 191.008 179.625 171.561 179.625 171.561L180.422 171.702C193.053 180.375 206.933 187.063 221.58 191.534C226.772 193.022 231.646 194.352 236.204 195.523C242.654 197.211 248.497 198.602 253.749 199.747C253.772 199.739 253.797 199.737 253.821 199.741C253.845 199.745 253.867 199.756 253.886 199.772C261.926 201.506 268.614 202.647 274.221 203.383C280.742 204.391 287.366 204.561 293.931 203.888L294.296 203.953L295.353 203.693Z" fill="url(#paint32_linear_492_16951)"/>
<path style="mix-blend-mode:screen" opacity="0.5" d="M305.497 259.263C303.185 259.041 301.211 258.502 299.322 258.285C297.042 257.88 294.899 257.499 293.121 257.183C292.16 256.957 291.213 256.679 290.282 256.349C288.341 255.727 286.449 254.957 284.624 254.047C270.555 247.068 270.754 236.279 272.721 234.34C278.477 239.854 285.508 243.85 293.184 245.969C343.442 250.178 373.231 209.034 392.98 206.009C413.916 202.793 425.02 208.727 426.297 212.657C427.575 216.586 378.781 266.1 305.497 259.263Z" fill="url(#paint33_linear_492_16951)"/>
<g style="mix-blend-mode:multiply" opacity="0.16">
<g style="mix-blend-mode:multiply">
<path d="M196.315 219.002C207.732 221.714 200.084 231.675 178.008 223.038C176.007 222.258 176.928 218.13 176.541 218.061C176.153 217.992 173.538 218.683 173.461 216.995C173.385 215.307 184.902 216.268 196.315 219.002Z" fill="#58007C"/>
</g>
<g style="mix-blend-mode:multiply">
<path d="M160.747 193.654C162.074 196.507 146.783 188.462 146.783 188.462C146.783 188.462 145.569 187.751 148.428 185.688C151.287 183.625 160.185 192.446 160.747 193.654Z" fill="#58007C"/>
</g>
<g style="mix-blend-mode:multiply">
<path d="M305.84 205.296C313.414 207.136 273.989 224.425 273.989 224.425C273.989 224.425 270.667 225.651 271.172 216.85C271.676 208.048 302.575 204.48 305.84 205.296Z" fill="#58007C"/>
</g>
<g style="mix-blend-mode:multiply">
<path d="M281.673 232.133C280.91 231.267 283.854 227.403 283.854 227.403C283.854 227.403 284.112 227.142 284.382 229.855C284.47 230.213 284.456 230.589 284.342 230.94C284.227 231.291 284.017 231.603 283.735 231.84C283.453 232.077 283.11 232.231 282.746 232.282C282.381 232.334 282.01 232.283 281.673 232.133Z" fill="#58007C"/>
</g>
<g style="mix-blend-mode:multiply">
<path d="M196.67 195.812C196.757 193.47 192.274 195.409 192.711 196.524C193.148 197.64 196.67 195.812 196.67 195.812Z" fill="#58007C"/>
</g>
<g style="mix-blend-mode:multiply">
<path d="M434.237 226.212C456.883 233.488 475.334 219.243 474.038 215.947C472.742 212.651 411.59 218.935 434.237 226.212Z" fill="#58007C"/>
</g>
<g style="mix-blend-mode:multiply">
<path d="M164.929 174.87C174.391 189.521 144.482 177.323 139.082 172.638C133.682 167.953 135.964 163.712 134.799 162.727C133.633 161.742 127.521 154.713 127.263 152.191C127.006 149.669 163.855 173.24 164.929 174.87Z" fill="#58007C"/>
</g>
<g style="mix-blend-mode:multiply">
<path d="M374.448 193.968C380.425 197.388 399.979 195.861 387.209 191.895C382.819 190.526 374.448 193.968 374.448 193.968Z" fill="#58007C"/>
</g>
<g style="mix-blend-mode:multiply">
<path d="M346.398 200.966C346.242 198.934 342.534 199.29 343.047 200.371C343.56 201.453 346.398 200.966 346.398 200.966Z" fill="#58007C"/>
</g>
<g style="mix-blend-mode:multiply">
<path d="M194.593 235.181C191.07 233.565 213.731 232.024 213.731 232.024C213.731 232.024 215.597 231.978 213.906 235.144C212.215 238.311 196.219 235.824 194.593 235.181Z" fill="#58007C"/>
</g>
<g style="mix-blend-mode:multiply">
<path d="M228.936 208.382C234.435 210.655 243.042 207.609 239.002 206.656C234.962 205.702 228.936 208.382 228.936 208.382Z" fill="#58007C"/>
</g>
<g style="mix-blend-mode:multiply">
<path d="M178.523 203.06C178.225 200.366 171.576 200.86 172.47 202.316C173.364 203.771 178.523 203.06 178.523 203.06Z" fill="#58007C"/>
</g>
<g style="mix-blend-mode:multiply">
<path d="M424.858 231.621C423.905 233.81 428.715 233.603 428.733 232.309C428.751 231.015 424.858 231.621 424.858 231.621Z" fill="#58007C"/>
</g>
<g style="mix-blend-mode:multiply">
<path d="M443.861 231.741C443.147 234.303 449.403 236.287 449.109 234.631C448.815 232.975 443.861 231.741 443.861 231.741Z" fill="#58007C"/>
</g>
<g style="mix-blend-mode:multiply">
<path d="M150.652 183.89C153.687 181.104 145.704 177.988 145.001 179.962C144.297 181.936 150.652 183.89 150.652 183.89Z" fill="#58007C"/>
</g>
<g style="mix-blend-mode:multiply">
<path d="M119.631 170.669C122.634 167.004 113.748 159.436 113.076 162.43C112.403 165.423 119.631 170.669 119.631 170.669Z" fill="#58007C"/>
</g>
<g style="mix-blend-mode:multiply">
<path d="M422.529 252.81C428.771 255.003 438.71 253.325 436.857 251.581C435.003 249.837 422.529 252.81 422.529 252.81Z" fill="#58007C"/>
</g>
</g>
<path d="M380.096 150.116C377.816 149.711 375.518 147.157 375.782 146.332C376.047 145.506 382.785 149.934 382.785 149.934C382.785 149.934 382.287 150.623 380.096 150.116Z" fill="white"/>
<path style="mix-blend-mode:multiply" opacity="0.74" d="M42.5786 132.742L42.6192 132.513L42.5652 133.612L42.5327 133.795C42.4017 136.436 42.4105 139.083 42.5591 141.723C42.0364 138.752 42.043 135.712 42.5786 132.742Z" fill="url(#paint34_linear_492_16951)"/>
<path style="mix-blend-mode:multiply" opacity="0.74" d="M133.678 135.926C132.425 134.902 109.62 115.806 105.431 114.237C91.3804 109.006 79.8993 107.58 70.7508 108.644C53.5554 110.66 44.5995 121.498 42.6197 132.513C43.1266 123.014 44.3256 113.563 46.2069 104.237C48.0758 94.627 50.7658 85.1948 54.2472 76.0452C58.1585 65.9388 62.2496 59.1896 64.831 58.8226C69.3148 58.2039 131.743 133.578 133.678 135.926Z" fill="url(#paint35_linear_492_16951)"/>
<path style="mix-blend-mode:screen" opacity="0.5" d="M296.099 260.141C294.012 259.9 291.941 259.532 289.898 259.04L296.099 260.141Z" fill="url(#paint36_linear_492_16951)"/>
<g style="mix-blend-mode:screen">
<path d="M531.18 201.922C531.087 202.448 530.743 202.93 530.535 203.435C530.328 203.941 530.102 204.419 529.872 204.921C529.286 206.232 528.678 207.539 528.055 208.796C527.806 209.271 527.58 209.749 527.335 210.201C526.786 211.306 526.222 212.362 525.64 213.39C525.057 214.419 524.137 216.024 523.369 217.303C522.601 218.581 521.938 219.666 521.195 220.808C520.451 221.949 519.673 223.155 518.884 224.288C518.094 225.422 517.309 226.532 516.501 227.639C515.693 228.745 514.91 229.714 514.079 230.817C513.248 231.919 512.766 232.517 512.083 233.316L511.477 234.081L509.345 236.556L509.052 236.881C508.315 237.717 507.556 238.549 506.778 239.354C506.691 239.472 506.593 239.581 506.485 239.679C505.872 240.349 505.237 241.014 504.575 241.698C504.313 241.982 504.028 242.262 503.716 242.56C502.969 243.324 502.199 244.083 501.411 244.816C500.622 245.548 499.691 246.42 498.822 247.209C497.953 247.998 497.092 248.742 496.208 249.481C495.325 250.22 494.472 250.917 493.596 251.611C492.72 252.304 491.871 252.979 490.886 253.629L488.2 255.511L485.514 257.392C482.548 259.432 479.475 261.311 476.308 263.021C475.549 263.452 474.772 263.856 474.022 264.242L473.532 264.485L471.702 265.386C471.109 265.682 470.492 265.973 469.907 266.223C468.729 266.769 467.581 267.272 466.437 267.753L464.392 268.545C463.658 268.839 462.932 269.088 462.228 269.34L461.552 269.574C460.501 269.93 459.504 270.248 458.538 270.524C457.572 270.801 456.98 270.955 456.266 271.135C455.552 271.315 455.06 271.439 454.476 271.548C452.953 271.896 451.409 272.142 449.854 272.284C447.827 272.442 443.33 272.469 437.023 272.363L434.397 272.321L432.052 272.282L430.226 272.241L423.881 272.081L418.732 271.945C417.019 271.924 415.242 271.867 413.419 271.803C425.862 271.654 441.932 271.207 450.275 269.646C456.574 268.297 462.696 266.218 468.518 263.453C471.64 262.027 474.917 260.392 478.261 258.509C497.054 248.027 518.128 230.663 528.346 207.291C529.18 205.445 530.127 203.652 531.18 201.922Z" fill="#129A39"/>
</g>
<path style="mix-blend-mode:screen" opacity="0.5" d="M358.387 184.441C358.387 184.441 381.009 180.205 386.852 180.276C394.192 180.538 401.364 182.547 407.774 186.138C407.774 186.138 396.228 178.191 388.959 177.679C381.69 177.166 358.387 184.441 358.387 184.441Z" fill="url(#paint37_linear_492_16951)"/>
<path style="mix-blend-mode:screen" opacity="0.5" d="M352.161 244.911C359.346 253.05 387.292 239.359 387.508 235.624C387.725 231.889 372.933 228.319 366.892 230.949C360.852 233.578 349.466 241.815 352.161 244.911Z" fill="url(#paint38_linear_492_16951)"/>
<path d="M360.369 190.619C362.022 191.374 363.865 191.611 365.657 191.298C367.675 190.525 383.169 186.438 386.926 186.869C390.682 187.3 398.303 191.13 400.198 191.584C402.092 192.039 405.503 188.989 405.503 188.989C404.038 189.868 402.425 190.468 400.744 190.761C398.739 190.924 390.681 185.72 387.614 185.246C384.547 184.772 367.142 190.878 365.127 190.969C363.534 190.979 361.943 190.862 360.369 190.619Z" fill="#1C1249"/>
<path style="mix-blend-mode:multiply" opacity="0.74" d="M215.389 240.572C208.948 243.464 203.269 247.826 198.806 253.31C198.685 253.253 198.551 253.229 198.418 253.241L198.099 253.184C197.484 253.031 196.86 252.92 196.23 252.852L195.113 252.654L193.599 252.573L192.846 252.44L191.237 252.366L188.9 252.281L186.377 252.187L185.282 252.134L183.74 252.073L181.853 251.973L180.43 251.909L178.106 251.756L173.743 251.429L170.826 251.17L170.415 251.097L167.784 250.819L164.929 250.477L164.747 250.444L163.151 250.161L161.509 249.87L158.158 249.274L154.625 248.647C151.365 248.068 147.968 247.465 144.514 246.521L142.852 246.084C142.289 245.984 141.728 245.838 141.166 245.644C140.026 245.441 138.919 245.056 137.731 244.727L134.358 243.727L130.874 243.085C128.473 242.304 126.042 241.425 123.578 240.468C121.861 239.81 120.111 239.074 118.364 238.316L116.572 237.55L116.435 237.525L112.807 235.843L112.049 235.473L109.198 234.047L107.368 232.967C105.733 232.111 104.129 231.213 102.51 230.265L100.679 229.185L99.8738 228.688L98.3045 227.726L96.5089 226.581C81.3865 216.688 68.2079 204.092 57.6292 189.419C56.268 187.551 55.037 185.61 53.955 183.626C45.4149 168.95 42.3777 151.36 42.671 133.819L42.7035 133.636C42.7522 133.362 42.805 133.065 42.7169 132.766C43.2711 113.004 46.9731 93.4555 53.6828 74.8599L54.3851 76.0695L71.7872 106.257C71.409 107.062 71.0845 107.83 70.756 108.621C52.0648 153.222 77.0786 206.623 114.372 231.664C116.133 232.873 117.932 233.994 119.779 234.983L120.676 235.496C121.811 236.122 122.946 236.748 124.093 237.305C162.827 256.754 211.622 241.79 215.389 240.572Z" fill="url(#paint39_linear_492_16951)"/>
<path style="mix-blend-mode:multiply" opacity="0.8" d="M389.057 221.089C403.345 222.07 409.367 216.63 409.367 216.63L389.057 221.089Z" fill="url(#paint40_linear_492_16951)"/>
<path style="mix-blend-mode:multiply" opacity="0.8" d="M388.102 226.202C391.636 227.089 398.165 225.017 398.165 225.017C398.165 225.017 393.513 227.776 390.969 227.536C388.425 227.297 388.102 226.202 388.102 226.202Z" fill="url(#paint41_linear_492_16951)"/>
<path style="mix-blend-mode:multiply" opacity="0.8" d="M340.13 221.031C326.082 223.866 319.284 219.239 319.284 219.239L340.13 221.031Z" fill="url(#paint42_linear_492_16951)"/>
<path style="mix-blend-mode:multiply" opacity="0.8" d="M320.16 225.691C323.385 227.396 330.224 226.889 330.224 226.889C327.778 227.694 325.188 227.958 322.632 227.663C320.216 226.833 320.16 225.691 320.16 225.691Z" fill="url(#paint43_linear_492_16951)"/>
<path d="M321.1 220.269C322.734 221.366 324.585 222.097 326.527 222.412C329.717 222.678 332.929 222.453 336.052 221.745C336.052 221.745 326.883 222.664 321.1 220.269Z" fill="url(#paint44_radial_492_16951)"/>
<path style="mix-blend-mode:screen" d="M105.939 102.771C105.756 102.739 105.665 102.723 105.665 102.723C105.665 102.723 105.758 102.597 105.939 102.771Z" fill="url(#paint45_linear_492_16951)"/>
<path style="mix-blend-mode:screen" d="M268.698 197.544L267.832 197.39C265.977 197.061 264.131 196.733 262.292 196.406L259.511 195.912L258.508 195.734L258.012 196.141L257.066 196.964C260.878 197.216 264.773 197.531 268.672 197.822L269.242 197.923L268.698 197.544ZM478.517 258.39C474.46 258.839 470.377 258.996 466.299 258.861C456.158 258.757 446.143 256.61 436.85 252.546C435.945 252.117 435.065 251.638 434.212 251.111C431.823 249.898 429.802 248.065 428.359 245.803C427.343 241.741 426.922 237.551 427.111 233.365C427.204 232.84 427.142 232.263 427.171 231.702C427.793 221.81 430.62 212.182 435.444 203.527C435.82 202.863 436.201 202.176 436.605 201.493C436.673 201.36 436.751 201.232 436.837 201.11C436.911 200.968 436.998 200.833 437.097 200.708C437.307 200.321 437.543 199.914 437.803 199.513L437.415 199.444C423.737 197.015 409.853 185.682 390.947 181.97C378.814 179.58 336.579 192.431 307.918 201.939L308.784 202.092C316.929 203.244 325.009 204.813 332.993 206.793C348.508 210.798 358.079 215.964 355.504 222.912C354.09 226.385 351.93 229.504 349.179 232.048C336.077 244.908 308.213 252.577 286.348 254.801C275.044 255.954 265.34 255.646 260.178 253.856C248.12 249.435 236.44 244.04 225.253 237.725C210.311 229.176 196.002 218.381 193.387 207.681C192.872 205.768 192.784 203.763 193.131 201.811C193.478 199.858 194.25 198.007 195.393 196.387C195.705 195.9 196.047 195.433 196.417 194.989C196.665 194.656 196.957 194.331 197.25 194.005C197.25 194.005 201.19 194.068 207.808 194.277C214.426 194.485 224.658 194.864 236.309 195.471L237.5 195.517C243.671 195.858 250.233 196.246 257.055 196.632C260.867 196.884 264.761 197.198 268.66 197.49L269.23 197.591L268.615 197.482L263.344 191.145C261.591 192.673 259.964 194.153 258.426 195.531L256.739 195.231L253.945 194.546L251.179 193.701C249.543 193.246 247.907 192.79 246.284 192.266C244.66 191.742 242.85 191.208 241.14 190.645L239.145 189.961C237.992 189.567 236.797 189.143 235.63 188.7C235.474 188.662 235.326 188.595 235.194 188.504C232.718 187.616 230.235 186.633 227.761 185.604L227.442 185.547L224.43 184.234C221.395 182.917 218.327 181.523 215.229 180.03L212.7 178.779L211.878 178.373L208.283 176.509C183.754 163.201 161.056 146.756 140.757 127.585C137.074 124.219 133.631 120.966 130.349 117.86C125.403 113.138 120.918 108.733 116.811 104.584L115.762 104.398C113.631 104.193 111.519 103.818 109.447 103.276C111.18 104.905 118.627 113.821 127.964 125.596C139.63 140.285 154.213 159.336 164.29 174.096L166.139 176.924C172.404 186.267 176.467 193.451 176.207 195.975C176.057 197.634 175.812 199.284 175.47 200.915C175.357 201.555 175.235 202.241 175.105 202.972C172.956 212.018 167.525 219.94 159.871 225.194C151.814 230.838 139.287 235.169 120.707 235.313C117.974 235.346 115.115 235.286 112.114 235.107L112.871 235.477L116.499 237.159L116.636 237.184L118.428 237.95L124.133 237.077C142.919 234.037 161.902 232.395 180.926 232.164C185.996 232.241 191.05 232.76 196.03 233.714C199.814 234.387 203.645 235.326 207.57 236.401C212.724 237.835 217.961 239.59 223.121 241.521C239.527 247.784 255.296 255.607 270.213 264.883L270.487 264.932C272.165 264.616 273.767 264.335 275.322 264.187C275.979 264.095 276.641 264.039 277.304 264.02L277.463 264.048C279.109 263.916 280.938 263.816 282.88 263.737L283.062 263.769L286.167 263.636L287.301 263.602C287.308 263.517 287.323 263.433 287.346 263.351L293.837 260.966L294.364 260.777L300.95 258.385C309.236 255.423 320.152 251.56 330.441 248.176C336.161 246.291 350.977 246.682 369.559 248.378L374.761 248.878L375.491 249.007C379.661 249.449 383.973 249.932 388.426 250.455C412.88 253.383 440.238 257.7 461.428 261.793L468.472 263.044L473.573 264.115L474.063 263.872C474.813 263.486 475.591 263.082 476.349 262.651C479.516 260.941 482.59 259.062 485.556 257.022C483.378 257.767 480.945 258.09 478.521 258.367L478.517 258.39ZM420.329 251.027C414.788 252.968 402.516 252.156 390.1 249.904C386.498 249.264 382.901 248.46 379.435 247.585L378.911 247.492C377.657 247.27 376.486 246.849 375.302 246.497C374.118 246.146 372.441 245.659 371.109 245.21C364.107 242.929 358.578 240.296 356.433 237.675C355.794 236.992 355.449 236.083 355.471 235.146C356.007 232.369 356.714 229.627 357.588 226.938C359.966 219.507 364.529 209.964 371.806 211.493C373.716 211.977 375.574 212.646 377.354 213.492C381.983 215.652 386.483 218.081 390.83 220.767L391.612 221.26C393.742 222.51 395.699 223.801 397.763 225.158C400.435 226.93 403.049 228.762 405.568 230.601L406.957 231.649L407.162 231.686C408.658 232.8 410.08 233.925 411.412 235.035C420.516 242.429 425.825 249.079 420.333 251.005L420.329 251.027ZM268.698 197.544L267.832 197.39C265.977 197.061 264.131 196.733 262.292 196.406L259.511 195.912L258.508 195.734L258.012 196.141L257.066 196.964C260.878 197.216 264.773 197.531 268.672 197.822L269.242 197.923L268.698 197.544ZM177.533 301.32C170.719 308.836 164.282 316.347 158.358 323.62L162.957 326.323C169.693 318.983 176.822 311.547 184.039 304.409L177.533 301.32ZM268.857 197.572L267.991 197.418C266.137 197.089 264.29 196.761 262.451 196.434L259.67 195.941L258.667 195.762L258.172 196.17L257.226 196.992C261.038 197.245 264.933 197.559 268.831 197.851L269.401 197.952L268.857 197.572Z" fill="url(#paint46_radial_492_16951)"/>
</g>
<defs>
<radialGradient id="paint0_radial_492_16951" cx="0" cy="0" r="1" gradientUnits="userSpaceOnUse" gradientTransform="translate(112.37 390.565) rotate(10.0705) scale(125.978 126.338)">
<stop offset="0.01" stop-color="#9D4863"/>
<stop offset="0.19" stop-color="#9A4563"/>
<stop offset="0.34" stop-color="#903D61"/>
<stop offset="0.47" stop-color="#802E5F"/>
<stop offset="0.59" stop-color="#68195B"/>
<stop offset="0.7" stop-color="#4C0057"/>
<stop offset="0.98" stop-color="#4C0086"/>
</radialGradient>
<radialGradient id="paint1_radial_492_16951" cx="0" cy="0" r="1" gradientUnits="userSpaceOnUse" gradientTransform="translate(163.519 370.888) rotate(-74.9385) scale(129.576 44.0815)">
<stop stop-color="#B95D1C"/>
<stop offset="0.98" stop-color="#FFA360"/>
</radialGradient>
<radialGradient id="paint2_radial_492_16951" cx="0" cy="0" r="1" gradientUnits="userSpaceOnUse" gradientTransform="translate(160.373 410.854) rotate(-77.4279) scale(169.146 54.8267)">
<stop stop-color="#148634"/>
<stop offset="0.98" stop-color="#23D755"/>
</radialGradient>
<radialGradient id="paint3_radial_492_16951" cx="0" cy="0" r="1" gradientUnits="userSpaceOnUse" gradientTransform="translate(160.373 410.854) rotate(-77.4279) scale(169.146 54.8267)">
<stop stop-color="#148634"/>
<stop offset="0.98" stop-color="#2CD2C6"/>
</radialGradient>
<linearGradient id="paint4_linear_492_16951" x1="189.722" y1="278.495" x2="230.73" y2="278.666" gradientUnits="userSpaceOnUse">
<stop stop-color="#CA528D"/>
<stop offset="1" stop-color="#8E7090"/>
</linearGradient>
<radialGradient id="paint5_radial_492_16951" cx="0" cy="0" r="1" gradientUnits="userSpaceOnUse" gradientTransform="translate(330.5 238) rotate(-72.1039) scale(100.881 101.152)">
<stop stop-color="#148634"/>
<stop offset="0.98" stop-color="#2CD2C6"/>
</radialGradient>
<linearGradient id="paint6_linear_492_16951" x1="252.907" y1="195.995" x2="250.603" y2="203.091" gradientUnits="userSpaceOnUse">
<stop stop-color="#CA528D"/>
<stop offset="1" stop-color="#8E7090"/>
</linearGradient>
<linearGradient id="paint7_linear_492_16951" x1="283.865" y1="217.146" x2="325.576" y2="180.788" gradientUnits="userSpaceOnUse">
<stop stop-color="#CA528D"/>
<stop offset="1" stop-color="#8E7090"/>
</linearGradient>
<linearGradient id="paint8_linear_492_16951" x1="256.978" y1="196.665" x2="256.775" y2="197.007" gradientUnits="userSpaceOnUse">
<stop stop-color="#E04591"/>
<stop offset="1" stop-color="#A371A6"/>
</linearGradient>
<radialGradient id="paint9_radial_492_16951" cx="0" cy="0" r="1" gradientUnits="userSpaceOnUse" gradientTransform="translate(71 44.5) rotate(9.26784) scale(484.322 485.707)">
<stop offset="0.01" stop-color="#23CFC5"/>
<stop offset="0.494792" stop-color="#C4FFD4"/>
<stop offset="1" stop-color="#23CFC5"/>
</radialGradient>
<linearGradient id="paint10_linear_492_16951" x1="356.937" y1="309.445" x2="358.542" y2="215.022" gradientUnits="userSpaceOnUse">
<stop stop-color="#5A006A"/>
<stop offset="1" stop-color="#F9F2F4"/>
</linearGradient>
<linearGradient id="paint11_linear_492_16951" x1="371.987" y1="237.541" x2="387.155" y2="250.831" gradientUnits="userSpaceOnUse">
<stop/>
<stop offset="0.1" stop-color="#090503"/>
<stop offset="0.26" stop-color="#21110C"/>
<stop offset="0.47" stop-color="#49251A"/>
<stop offset="0.71" stop-color="#80402D"/>
<stop offset="0.98" stop-color="#C56346"/>
<stop offset="0.99" stop-color="#CA6648"/>
</linearGradient>
<linearGradient id="paint12_linear_492_16951" x1="407.699" y1="191.66" x2="408.394" y2="191.663" gradientUnits="userSpaceOnUse">
<stop stop-color="#CA528D"/>
<stop offset="1" stop-color="#8E7090"/>
</linearGradient>
<linearGradient id="paint13_linear_492_16951" x1="323.82" y1="165.899" x2="351.444" y2="166.014" gradientUnits="userSpaceOnUse">
<stop stop-color="#CA528D"/>
<stop offset="1" stop-color="#8E7090"/>
</linearGradient>
<radialGradient id="paint14_radial_492_16951" cx="0" cy="0" r="1" gradientUnits="userSpaceOnUse" gradientTransform="translate(333 167) rotate(-10.3048) scale(11.1803 13.9551)">
<stop offset="0.01" stop-color="#00FFD1"/>
<stop offset="1" stop-color="#007280"/>
</radialGradient>
<radialGradient id="paint15_radial_492_16951" cx="0" cy="0" r="1" gradientUnits="userSpaceOnUse" gradientTransform="translate(333.163 168.206) rotate(12.3677) scale(5.1442 7.32625)">
<stop stop-color="#FF4000"/>
<stop offset="0.35" stop-color="#FD4000"/>
<stop offset="0.49" stop-color="#F63E00"/>
<stop offset="0.59" stop-color="#EA3B00"/>
<stop offset="0.67" stop-color="#D93600"/>
<stop offset="0.73" stop-color="#C23100"/>
<stop offset="0.8" stop-color="#A72A00"/>
<stop offset="0.85" stop-color="#862200"/>
<stop offset="0.9" stop-color="#5F1800"/>
<stop offset="0.95" stop-color="#340D00"/>
<stop offset="1"/>
</radialGradient>
<radialGradient id="paint16_radial_492_16951" cx="0" cy="0" r="1" gradientUnits="userSpaceOnUse" gradientTransform="translate(340.107 146.959) rotate(0.182899) scale(22.345 22.4051)">
<stop stop-color="#FF4000"/>
<stop offset="0.35" stop-color="#FD4000"/>
<stop offset="0.49" stop-color="#F63E00"/>
<stop offset="0.59" stop-color="#EA3B00"/>
<stop offset="0.67" stop-color="#D93600"/>
<stop offset="0.73" stop-color="#C23100"/>
<stop offset="0.8" stop-color="#A72A00"/>
<stop offset="0.85" stop-color="#862200"/>
<stop offset="0.9" stop-color="#5F1800"/>
<stop offset="0.95" stop-color="#340D00"/>
<stop offset="1"/>
</radialGradient>
<linearGradient id="paint17_linear_492_16951" x1="327.921" y1="148.545" x2="325.215" y2="171.964" gradientUnits="userSpaceOnUse">
<stop/>
<stop offset="0.1" stop-color="#090503"/>
<stop offset="0.26" stop-color="#21110C"/>
<stop offset="0.47" stop-color="#49251A"/>
<stop offset="0.71" stop-color="#80402D"/>
<stop offset="0.98" stop-color="#C56346"/>
<stop offset="0.99" stop-color="#CA6648"/>
</linearGradient>
<radialGradient id="paint18_radial_492_16951" cx="0" cy="0" r="1" gradientUnits="userSpaceOnUse" gradientTransform="translate(403.364 164.76) rotate(0.182908) scale(8.66014 8.68342)">
<stop offset="0.01" stop-color="#00FFD1"/>
<stop offset="1" stop-color="#007280"/>
</radialGradient>
<radialGradient id="paint19_radial_492_16951" cx="0" cy="0" r="1" gradientUnits="userSpaceOnUse" gradientTransform="translate(398.295 175.769) rotate(-20.5804) scale(4.44074 5.79974)">
<stop stop-color="#FF4000"/>
<stop offset="0.35" stop-color="#FD4000"/>
<stop offset="0.49" stop-color="#F63E00"/>
<stop offset="0.59" stop-color="#EA3B00"/>
<stop offset="0.67" stop-color="#D93600"/>
<stop offset="0.73" stop-color="#C23100"/>
<stop offset="0.8" stop-color="#A72A00"/>
<stop offset="0.85" stop-color="#862200"/>
<stop offset="0.9" stop-color="#5F1800"/>
<stop offset="0.95" stop-color="#340D00"/>
<stop offset="1"/>
</radialGradient>
<linearGradient id="paint20_linear_492_16951" x1="405.063" y1="157.429" x2="402.357" y2="180.871" gradientUnits="userSpaceOnUse">
<stop/>
<stop offset="0.1" stop-color="#090503"/>
<stop offset="0.26" stop-color="#21110C"/>
<stop offset="0.47" stop-color="#49251A"/>
<stop offset="0.71" stop-color="#80402D"/>
<stop offset="0.98" stop-color="#C56346"/>
<stop offset="0.99" stop-color="#CA6648"/>
</linearGradient>
<linearGradient id="paint21_linear_492_16951" x1="383.913" y1="162.751" x2="380.906" y2="167.433" gradientUnits="userSpaceOnUse">
<stop/>
<stop offset="0.1" stop-color="#090503"/>
<stop offset="0.26" stop-color="#21110C"/>
<stop offset="0.47" stop-color="#49251A"/>
<stop offset="0.71" stop-color="#80402D"/>
<stop offset="0.98" stop-color="#C56346"/>
<stop offset="0.99" stop-color="#CA6648"/>
</linearGradient>
<linearGradient id="paint22_linear_492_16951" x1="390.661" y1="163.949" x2="388.436" y2="167.455" gradientUnits="userSpaceOnUse">
<stop/>
<stop offset="0.1" stop-color="#090503"/>
<stop offset="0.26" stop-color="#21110C"/>
<stop offset="0.47" stop-color="#49251A"/>
<stop offset="0.71" stop-color="#80402D"/>
<stop offset="0.98" stop-color="#C56346"/>
<stop offset="0.99" stop-color="#CA6648"/>
</linearGradient>
<linearGradient id="paint23_linear_492_16951" x1="363.217" y1="158.201" x2="371.804" y2="143.314" gradientUnits="userSpaceOnUse">
<stop/>
<stop offset="0.1" stop-color="#090503"/>
<stop offset="0.26" stop-color="#21110C"/>
<stop offset="0.47" stop-color="#49251A"/>
<stop offset="0.71" stop-color="#80402D"/>
<stop offset="0.98" stop-color="#C56346"/>
<stop offset="0.99" stop-color="#CA6648"/>
</linearGradient>
<linearGradient id="paint24_linear_492_16951" x1="167.536" y1="312.555" x2="196.782" y2="277.522" gradientUnits="userSpaceOnUse">
<stop stop-color="#5A006A"/>
<stop offset="1" stop-color="#F9F2F4"/>
</linearGradient>
<linearGradient id="paint25_linear_492_16951" x1="202.855" y1="327.573" x2="214.172" y2="283.245" gradientUnits="userSpaceOnUse">
<stop stop-color="#5A006A"/>
<stop offset="1" stop-color="#F9F2F4"/>
</linearGradient>
<radialGradient id="paint26_radial_492_16951" cx="0" cy="0" r="1" gradientUnits="userSpaceOnUse" gradientTransform="translate(387.75 187.604) rotate(0.75751) scale(22.1223 13.7382)">
<stop offset="0.01" stop-color="#F0E6DB"/>
<stop offset="0.23" stop-color="#EEE3D9"/>
<stop offset="0.42" stop-color="#E7D8D3"/>
<stop offset="0.59" stop-color="#DCC7C8"/>
<stop offset="0.76" stop-color="#CDAEB9"/>
<stop offset="0.82" stop-color="#C7A4B3"/>
<stop offset="0.87" stop-color="#C6A9BA"/>
<stop offset="0.93" stop-color="#C3B9CD"/>
<stop offset="1" stop-color="#BFCDE7"/>
</radialGradient>
<linearGradient id="paint27_linear_492_16951" x1="397.253" y1="192.045" x2="397.324" y2="191.79" gradientUnits="userSpaceOnUse">
<stop/>
<stop offset="0.1" stop-color="#090503"/>
<stop offset="0.26" stop-color="#21110C"/>
<stop offset="0.47" stop-color="#49251A"/>
<stop offset="0.71" stop-color="#80402D"/>
<stop offset="0.98" stop-color="#C56346"/>
<stop offset="0.99" stop-color="#CA6648"/>
</linearGradient>
<linearGradient id="paint28_linear_492_16951" x1="204.691" y1="107.362" x2="183.773" y2="196.114" gradientUnits="userSpaceOnUse">
<stop/>
<stop offset="0.1" stop-color="#090503"/>
<stop offset="0.26" stop-color="#21110C"/>
<stop offset="0.47" stop-color="#49251A"/>
<stop offset="0.71" stop-color="#80402D"/>
<stop offset="0.98" stop-color="#C56346"/>
<stop offset="0.99" stop-color="#CA6648"/>
</linearGradient>
<linearGradient id="paint29_linear_492_16951" x1="629.863" y1="33.567" x2="457.284" y2="243.04" gradientUnits="userSpaceOnUse">
<stop stop-color="#5A006A"/>
<stop offset="1" stop-color="#F9F2F4"/>
</linearGradient>
<linearGradient id="paint30_linear_492_16951" x1="287.641" y1="262.083" x2="286.625" y2="265.274" gradientUnits="userSpaceOnUse">
<stop stop-color="#CA528D"/>
<stop offset="1" stop-color="#8E7090"/>
</linearGradient>
<linearGradient id="paint31_linear_492_16951" x1="277.284" y1="262.672" x2="269.051" y2="265.93" gradientUnits="userSpaceOnUse">
<stop stop-color="#5A006A"/>
<stop offset="1" stop-color="#F9F2F4"/>
</linearGradient>
<linearGradient id="paint32_linear_492_16951" x1="334.168" y1="177.004" x2="188.079" y2="235.162" gradientUnits="userSpaceOnUse">
<stop stop-color="#5A006A"/>
<stop offset="1" stop-color="#F9F2F4"/>
</linearGradient>
<linearGradient id="paint33_linear_492_16951" x1="339.146" y1="199.893" x2="363.607" y2="264.687" gradientUnits="userSpaceOnUse">
<stop/>
<stop offset="0.1" stop-color="#090503"/>
<stop offset="0.26" stop-color="#21110C"/>
<stop offset="0.47" stop-color="#49251A"/>
<stop offset="0.71" stop-color="#80402D"/>
<stop offset="0.98" stop-color="#C56346"/>
<stop offset="0.99" stop-color="#CA6648"/>
</linearGradient>
<linearGradient id="paint34_linear_492_16951" x1="39.9371" y1="131.072" x2="43.5601" y2="139.27" gradientUnits="userSpaceOnUse">
<stop stop-color="#5A006A"/>
<stop offset="1" stop-color="#F9F2F4"/>
</linearGradient>
<linearGradient id="paint35_linear_492_16951" x1="45.3998" y1="36.9176" x2="87.745" y2="132.621" gradientUnits="userSpaceOnUse">
<stop stop-color="#5A006A"/>
<stop offset="1" stop-color="#F9F2F4"/>
</linearGradient>
<linearGradient id="paint36_linear_492_16951" x1="291.122" y1="255.532" x2="294.076" y2="261.941" gradientUnits="userSpaceOnUse">
<stop/>
<stop offset="0.1" stop-color="#090503"/>
<stop offset="0.26" stop-color="#21110C"/>
<stop offset="0.47" stop-color="#49251A"/>
<stop offset="0.71" stop-color="#80402D"/>
<stop offset="0.98" stop-color="#C56346"/>
<stop offset="0.99" stop-color="#CA6648"/>
</linearGradient>
<linearGradient id="paint37_linear_492_16951" x1="379.417" y1="199.325" x2="385.428" y2="176.407" gradientUnits="userSpaceOnUse">
<stop/>
<stop offset="0.1" stop-color="#090503"/>
<stop offset="0.26" stop-color="#21110C"/>
<stop offset="0.47" stop-color="#49251A"/>
<stop offset="0.71" stop-color="#80402D"/>
<stop offset="0.98" stop-color="#C56346"/>
<stop offset="0.99" stop-color="#CA6648"/>
</linearGradient>
<linearGradient id="paint38_linear_492_16951" x1="359.931" y1="218.586" x2="372.575" y2="245.991" gradientUnits="userSpaceOnUse">
<stop/>
<stop offset="0.1" stop-color="#090503"/>
<stop offset="0.26" stop-color="#21110C"/>
<stop offset="0.47" stop-color="#49251A"/>
<stop offset="0.71" stop-color="#80402D"/>
<stop offset="0.98" stop-color="#C56346"/>
<stop offset="0.99" stop-color="#CA6648"/>
</linearGradient>
<linearGradient id="paint39_linear_492_16951" x1="-0.78159" y1="233.499" x2="87.8514" y2="185.364" gradientUnits="userSpaceOnUse">
<stop stop-color="#5A006A"/>
<stop offset="1" stop-color="#F9F2F4"/>
</linearGradient>
<linearGradient id="paint40_linear_492_16951" x1="407.974" y1="222.484" x2="385.893" y2="213.404" gradientUnits="userSpaceOnUse">
<stop stop-color="#CA528D"/>
<stop offset="1" stop-color="#8E7090"/>
</linearGradient>
<linearGradient id="paint41_linear_492_16951" x1="397.592" y1="227.708" x2="386.144" y2="223.019" gradientUnits="userSpaceOnUse">
<stop stop-color="#CA528D"/>
<stop offset="1" stop-color="#8E7090"/>
</linearGradient>
<linearGradient id="paint42_linear_492_16951" x1="310.81" y1="208.912" x2="331.491" y2="197.037" gradientUnits="userSpaceOnUse">
<stop stop-color="#CA528D"/>
<stop offset="1" stop-color="#8E7090"/>
</linearGradient>
<linearGradient id="paint43_linear_492_16951" x1="329.023" y1="229.374" x2="318.989" y2="222.128" gradientUnits="userSpaceOnUse">
<stop stop-color="#CA528D"/>
<stop offset="1" stop-color="#8E7090"/>
</linearGradient>
<radialGradient id="paint44_radial_492_16951" cx="0" cy="0" r="1" gradientUnits="userSpaceOnUse" gradientTransform="translate(326.126 207.095) rotate(0.18289) scale(42.0271 42.1401)">
<stop offset="0.01" stop-color="#F0E6DB"/>
<stop offset="0.23" stop-color="#EEE3D9"/>
<stop offset="0.42" stop-color="#E7D8D3"/>
<stop offset="0.59" stop-color="#DCC7C8"/>
<stop offset="0.76" stop-color="#CDAEB9"/>
<stop offset="0.82" stop-color="#C7A4B3"/>
<stop offset="0.87" stop-color="#C6A9BA"/>
<stop offset="0.93" stop-color="#C3B9CD"/>
<stop offset="1" stop-color="#BFCDE7"/>
</radialGradient>
<linearGradient id="paint45_linear_492_16951" x1="92.4622" y1="266.513" x2="105.946" y2="99.831" gradientUnits="userSpaceOnUse">
<stop offset="0.01" stop-color="#1304C5"/>
<stop offset="0.25" stop-color="#0D0387"/>
<stop offset="0.51" stop-color="#07024D"/>
<stop offset="0.73" stop-color="#030123"/>
<stop offset="0.9" stop-color="#01000A"/>
<stop offset="1"/>
</linearGradient>
<radialGradient id="paint46_radial_492_16951" cx="0" cy="0" r="1" gradientUnits="userSpaceOnUse" gradientTransform="translate(313.811 230.059) rotate(10.0705) scale(207.386 207.978)">
<stop offset="0.01" stop-color="#1368C5"/>
<stop offset="0.25" stop-color="#0D4787"/>
<stop offset="0.51" stop-color="#07294D"/>
<stop offset="0.73" stop-color="#031323"/>
<stop offset="0.9" stop-color="#01050A"/>
<stop offset="1"/>
</radialGradient>
<clipPath id="clip0_492_16951">
<rect width="500.347" height="366.383" fill="white" transform="translate(64.0664 0.106445) rotate(10.0705)"/>
</clipPath>
</defs>
</svg>
