<svg width="211" height="50" viewBox="0 0 211 50" fill="none" xmlns="http://www.w3.org/2000/svg">
<g clip-path="url(#clip0_1238_1051)">
<path d="M153.686 40.29H145.613V8.80461H153.686V40.29ZM134.565 8.80461L129.352 29.9052L123.263 8.80461H115.453L109.369 29.9052L104.155 8.80461H96.239L104.831 40.29H113.193L119.349 18.6994L125.515 40.29H133.856L142.473 8.80461H134.565ZM95.5804 31.3796C95.5804 25.3619 92.4149 23.3201 85.4932 21.0377C82.23 19.9631 79.1834 19.1336 79.1834 16.5674C79.1834 14.3194 81.4481 13.5586 83.1392 13.5586C84.5712 13.5586 87.2651 13.8638 87.4818 17.2036H95.13C94.9983 10.8291 89.874 8.0524 83.2752 8.0524C79.1877 8.0524 75.8097 9.22585 73.6809 11.3449C72.1459 12.9178 71.2876 15.0406 71.2929 17.2509C71.2929 23.1138 75.1638 25.4607 79.5361 26.8061C84.4522 28.3234 87.7027 29.2304 87.7027 31.9641C87.7027 33.7909 86.2665 35.6134 83.4537 35.6134C79.859 35.6134 78.5545 33.4643 78.4696 31.3151H70.7363C70.7363 38.5707 76.7827 41.2271 83.4537 41.2271C91.9517 41.2271 95.5974 36.3184 95.5974 31.3667M182.278 31.3667C182.278 24.4248 177.285 22.5894 171.23 20.7626C168.32 19.903 165.706 19.1207 165.706 16.5545C165.706 14.3065 167.967 13.5457 169.662 13.5457C171.103 13.5457 173.784 13.8509 174 17.1907H181.649C181.517 10.8162 176.397 8.03951 169.79 8.03951C165.706 8.03951 162.316 9.21296 160.2 11.332C158.666 12.906 157.808 15.0281 157.812 17.238C157.812 23.1009 161.674 25.4478 166.059 26.7932C170.971 28.3105 174.23 29.2175 174.23 31.9512C174.23 33.778 172.798 35.6005 169.981 35.6005C166.378 35.6005 165.069 33.4514 164.993 31.3022H157.259C157.259 38.5578 163.301 41.2142 169.981 41.2142C178.479 41.2142 182.273 36.3055 182.273 31.3538M210.079 31.3538C210.079 24.4119 205.061 22.5765 199.032 20.7497C196.112 19.8901 193.508 19.1078 193.508 16.5416C193.508 14.2936 195.756 13.5328 197.451 13.5328C198.879 13.5328 201.577 13.838 201.793 17.1778H209.442C209.31 10.8033 204.16 8.02661 197.574 8.02661C193.542 8.07389 190.143 9.24734 188.018 11.3664C186.488 12.9421 185.632 15.0635 185.634 17.2724C185.634 23.1353 189.497 25.4822 193.877 26.8276C198.794 28.3449 202.044 29.2519 202.044 31.9856C202.044 33.8124 200.616 35.6349 197.795 35.6349C194.192 35.6349 192.887 33.4857 192.802 31.3366H185.044C185.044 38.5922 191.077 41.2658 197.791 41.2658C206.319 41.2658 210.113 36.357 210.113 31.4053" fill="white"/>
<path d="M53.4323 49.1996H0.208984L39.2193 0.000671387H65.4146L53.4323 49.1996Z" fill="white"/>
<path d="M45.2854 20.0612V9.47009H36.3114V20.0612H25.8418V29.1393H36.3029V39.7348H45.2811V29.1393H45.2854H55.7592V20.0612H45.2854Z" fill="#328FB0"/>
</g>
<defs>
<clipPath id="clip0_1238_1051">
<rect width="209.868" height="49.1989" fill="white" transform="translate(0.208984 0.000671387)"/>
</clipPath>
</defs>
</svg>
