<svg width="28" height="25" viewBox="0 0 28 25" fill="none" xmlns="http://www.w3.org/2000/svg">
<path d="M27.4235 23.8068H0.910156V24.9595H27.4235V23.8068Z" fill="#14CDCD"/>
<path d="M27.2758 16.3219C26.5366 14.2193 24.484 13.2555 22.8924 12.8173L18.1481 11.5109L14.8064 3.60193L11.2003 0.791138L11.8629 9.78631L7.54593 8.63076L5.3832 4.69181L2.39197 3.86812L2.28235 7.91823C1.87032 7.98818 1.39279 8.17396 1.25404 8.67784C1.07288 9.33589 1.52021 10.1259 2.5854 11.0322C2.80383 11.218 3.04825 11.4088 3.31853 11.6043C4.56635 12.5069 6.08795 13.2871 7.1951 13.5919L24.1544 18.2616C25.6192 18.6648 26.5785 18.5958 27.0872 18.0505C27.3511 17.7676 27.5981 17.238 27.2758 16.3219ZM24.4604 17.1501L7.50108 12.4805C6.55781 12.2208 5.22459 11.5413 4.10458 10.7493C2.95981 9.93979 2.49318 9.33605 2.39025 9.07296C2.47473 9.05275 2.61902 9.03082 2.85417 9.02688L3.4057 9.01766L3.5044 5.37003L4.60724 5.67364L6.7722 9.61691L13.1316 11.3191L12.5407 3.29742L13.8612 4.32667L17.3036 12.4739L22.5864 13.9285C24.5157 14.4598 25.7275 15.3937 26.1883 16.7041C26.3045 17.0343 26.2854 17.22 26.2442 17.2641C26.2414 17.2672 25.9472 17.5596 24.4604 17.1501Z" fill="#14CDCD"/>
</svg>
