<svg width="181" height="49" viewBox="0 0 181 49" fill="none" xmlns="http://www.w3.org/2000/svg">
<path d="M173.716 21.7007V13.7095H165.776V21.7007H161.408V2.7616H165.776V10.2733H173.716V2.7616H178.084V21.7007H173.716Z" fill="white"/>
<path d="M80.0156 2.7616V14.5885C80.0156 15.8671 80.1744 17.0658 80.5715 17.9448C80.9685 18.8239 81.5244 19.623 82.1596 20.1824C82.8743 20.7418 83.7478 21.2212 84.7006 21.461C85.6535 21.7007 86.7652 21.8605 88.0357 21.8605C89.2269 21.8605 90.3386 21.7007 91.2914 21.461C92.2443 21.2212 93.0384 20.7418 93.6737 20.1824C94.3089 19.623 94.8648 18.8239 95.1824 17.9448C95.5794 16.9859 95.7382 15.8671 95.7382 14.5885V2.7616H91.6885V14.5086C91.6885 15.7073 91.3708 16.6663 90.815 17.3855C90.2591 18.1047 89.3063 18.5042 88.0357 18.5042C86.7652 18.5042 85.8123 18.1047 85.2565 17.3855C84.7006 16.6663 84.383 15.7073 84.383 14.5086V2.7616H80.0156Z" fill="white"/>
<path d="M67.4688 21.7007V6.27772H62.3867V2.7616H76.9976V4.43975C76.9976 5.4786 76.2036 6.27772 75.1713 6.27772H71.8362V21.7007H67.4688Z" fill="white"/>
<path d="M137.348 2.7616H141.715V21.7007H137.348V2.7616Z" fill="white"/>
<path d="M122.895 12.8305L123.054 12.9903L128.612 20.1824C129.327 21.0614 130.359 21.6208 131.55 21.6208H135.044L127.103 11.3921L127.024 11.2323L127.103 11.0724L133.615 2.7616H129.088L123.054 10.9126L122.895 11.0724V10.7528V2.7616H118.527V21.7007H122.895V13.1501V12.8305Z" fill="white"/>
<path d="M112.889 21.7007C111.619 21.7007 110.348 20.9815 109.713 19.9426L106.298 14.3488H104.155V21.7806H99.7871V2.7616H107.569C109.554 2.7616 111.142 3.32098 112.175 4.27992C113.286 5.31878 113.842 6.75719 113.842 8.43534C113.842 9.31437 113.604 10.1934 113.128 11.0724C112.651 11.9515 111.857 12.6707 110.745 13.23L110.507 13.31L115.827 21.6208H112.889V21.7007ZM104.155 11.3921H106.696C107.569 11.3921 108.284 11.1523 108.76 10.6729C109.237 10.1934 109.475 9.5541 109.475 8.75499C109.475 7.95587 109.237 7.31657 108.84 6.8371C108.363 6.35763 107.728 6.11789 106.775 6.11789H104.234V11.3921H104.155Z" fill="white"/>
<path d="M145.287 20.9016V17.3056C146.637 17.9449 148.463 18.5841 150.29 18.5841C152.434 18.5841 153.466 17.8649 153.466 16.4265C153.466 14.7484 152.037 14.5886 149.099 13.31C147.113 12.4309 145.287 11.0724 145.287 7.87596C145.287 4.20002 148.066 2.44196 151.957 2.44196C154.022 2.44196 155.769 2.92143 156.722 3.32099V6.83711C155.769 6.35764 154.022 5.79825 152.196 5.79825C150.29 5.79825 149.416 6.51746 149.416 7.71614C149.416 8.99473 150.528 9.39429 152.434 10.1135C154.895 11.3921 157.833 11.9515 157.833 16.1868C157.833 19.8627 154.895 21.8605 151.004 21.8605C148.702 21.9404 146.796 21.5409 145.287 20.9016" fill="white"/>
<path d="M152.117 46.3935V27.4543H163.869V29.1325C163.869 30.1713 163.075 30.9705 162.043 30.9705H156.405V35.046H162.758V38.2424H156.405V42.8773H163.869V46.3935H152.117Z" fill="white"/>
<path d="M109.078 46.3935V27.4543H111.222C112.493 27.4543 113.446 28.4932 113.446 29.6919V42.9572H120.354V46.3935H109.078Z" fill="white"/>
<path d="M82.1602 46.3935V27.4543H86.5275V46.3935H82.1602Z" fill="white"/>
<path d="M103.52 46.3935C102.25 46.3935 100.979 45.6742 100.344 44.6354L96.9294 39.0416H94.7854V46.4734H90.418V27.4543H98.1999C100.185 27.4543 101.773 28.0137 102.805 28.9727C103.917 30.0115 104.473 31.4499 104.473 33.1281C104.473 34.0071 104.235 34.8861 103.758 35.8451C103.282 36.7241 102.488 37.4433 101.376 38.0027L101.138 38.0826L106.458 46.3935H103.52ZM94.8648 36.0848H97.4058C98.3587 36.0848 98.9939 35.8451 99.4704 35.3656C99.9468 34.8861 100.185 34.2469 100.185 33.4477C100.185 32.6486 99.9468 32.0093 99.5498 31.5298C99.0733 31.0504 98.4381 30.8106 97.4852 30.8106H94.9442L94.8648 36.0848Z" fill="white"/>
<path d="M72.6304 27.4543H67.6278L60.5605 46.3935H63.6574C64.4515 46.3935 65.1662 45.914 65.4044 45.1149L66.119 42.8773H73.7421L74.8538 46.3935H79.5389L72.6304 27.4543ZM67.2307 39.521L68.8983 34.7263C69.2953 33.6875 69.6924 32.4888 69.9306 31.6897H70.01C70.2482 32.5687 70.6453 33.6076 70.9629 34.7263L72.6304 39.521H67.2307Z" fill="white"/>
<path d="M167.363 45.5943V41.9983C168.713 42.6376 170.54 43.2769 172.366 43.2769C174.51 43.2769 175.542 42.5577 175.542 41.1193C175.542 39.4411 174.113 39.2813 171.175 38.0027C169.19 37.1237 167.363 35.7652 167.363 32.5687C167.363 28.8928 170.143 27.1347 174.033 27.1347C176.098 27.1347 177.845 27.6142 178.798 28.0137V31.5299C177.845 31.0504 176.098 30.491 174.272 30.491C172.366 30.491 171.492 31.2102 171.492 32.4089C171.492 33.6875 172.604 34.087 174.51 34.8062C176.972 36.0848 179.91 36.6442 179.91 40.8795C179.91 44.5555 176.972 46.5533 173.081 46.5533C170.778 46.6332 168.872 46.2336 167.363 45.5943" fill="white"/>
<path d="M131.551 27.4543H134.251C135.521 27.4543 136.712 28.0936 137.427 29.2124L142.668 37.6831C143.224 38.642 143.938 39.8407 144.335 40.7197H144.415C144.335 39.8407 144.335 38.7219 144.335 37.8429V27.4543H148.147V46.3935H143.382L137.03 36.1647C136.474 35.2058 135.839 34.087 135.362 33.208H135.283C135.283 34.0071 135.362 34.9661 135.362 35.925V46.3935H131.551V27.4543Z" fill="white"/>
<path d="M123.213 27.4543H127.58V46.3935H123.213V27.4543Z" fill="white"/>
<path d="M27.8443 0.524081C39.9141 1.80267 49.3636 12.0314 49.3636 24.5775C49.3636 37.9228 38.6436 48.7109 25.3826 48.7109C12.1216 48.7109 1.32227 37.9228 1.32227 24.5775C1.32227 11.2323 12.0422 0.364258 25.3826 0.364258C26.1767 0.364258 27.0502 0.44417 27.8443 0.524081ZM29.1148 47.0328C41.4229 44.9551 49.7606 33.208 47.696 20.7418C45.9491 10.4331 37.6113 2.92144 27.7648 1.88258C25.7797 1.64285 23.7151 1.72276 21.6505 2.04241C19.1889 2.44197 16.8861 3.24108 14.8215 4.35985C25.6209 8.11571 31.497 13.7894 31.894 19.5431C32.1322 23.1391 30.4647 25.6963 28.2413 27.774L43.6463 26.7352C44.0433 26.7352 44.2021 27.2146 43.7257 27.3745L6.96017 37.9228C10.6923 43.1171 16.489 46.5533 22.921 47.1926C24.9856 47.4323 27.0502 47.4323 29.1148 47.0328ZM19.0301 25.057C21.0152 17.4654 18.7124 9.47421 13.2333 5.23888C5.76907 10.0336 1.40167 18.9837 2.98982 28.3334C3.46626 31.45 4.57796 34.2469 6.1661 36.7241C12.0422 35.1259 17.2037 32.0093 19.0301 25.057" fill="white"/>
<path d="M29.1157 47.0328C41.4238 44.9551 49.7616 33.2081 47.697 20.7418C45.95 10.4332 37.6123 2.92147 27.7658 1.88262C25.7806 1.64288 23.716 1.72279 21.6514 2.04244C19.1898 2.442 16.887 3.24112 14.8224 4.35989C25.6218 8.11574 31.4979 13.7895 31.895 19.5431C32.1332 23.1392 30.4656 25.6963 28.2422 27.7741L43.6472 26.7352C44.0443 26.7352 44.2031 27.2147 43.7266 27.3745L6.96113 37.9229C10.6933 43.1171 16.49 46.5533 22.922 47.1926C24.9865 47.4324 27.0511 47.4324 29.1157 47.0328ZM19.031 25.0571C21.0162 17.4654 18.7134 9.47424 13.2343 5.23892C5.77002 10.0336 1.40263 18.9838 2.99077 28.3334C3.46721 31.45 4.57891 34.2469 6.16705 36.7242C12.0432 35.1259 17.2046 32.0094 19.031 25.0571V25.0571Z" fill="#005D77"/>
</svg>
