<svg width="252" height="25" viewBox="0 0 252 25" fill="none" xmlns="http://www.w3.org/2000/svg">
<g clip-path="url(#clip0_1238_874)">
<path d="M19.629 24.4534C19.629 24.4534 30.7118 24.37 31.6359 23.12C31.6359 22.62 31.6359 22.62 31.6359 22.62C31.5838 22.0816 31.8051 21.2867 31.8051 21.2867C31.8051 21.2867 36.1979 6.95984 38.9962 5.29959C37.135 4.71626 35.3584 5.21626 35.1046 6.04959C34.4278 5.54959 34.1739 4.71626 33.6728 4.79959C33.1652 4.88292 31.8962 5.63292 32.6511 7.38291C33.4125 9.13291 34.2586 11.3765 33.4125 11.5496C32.5665 11.7162 32.4819 10.3829 32.4819 9.70983C32.4819 9.04957 31.8051 6.38292 31.4667 6.29958C30.7053 6.46625 29.0979 7.38291 30.1977 8.46624C29.2671 8.88291 26.4752 10.0496 29.2671 13.2162C28.9286 13.6329 27.6596 15.2996 28.9286 15.5496C30.9591 16.0431 31.7205 14.5496 32.2281 14.8829C32.7357 15.2162 30.9591 17.2995 29.1825 16.7162C27.4058 16.1329 26.9828 14.3829 26.9828 14.3829C26.1433 15.2162 25.5511 16.4662 23.8591 15.9662C22.167 15.4662 21.321 14.1329 22.0824 13.9662C22.8438 13.7996 25.46 15.3829 25.5511 13.5496C25.5511 12.8829 25.037 12.4662 25.037 12.4662C25.037 12.4662 26.8136 11.0496 26.9828 10.0496C27.152 9.04957 25.6292 7.54958 24.7051 7.63291C24.7897 6.306 25.1346 5.71625 24.7897 5.71625C24.4513 5.71625 22.7592 5.88292 22.3362 7.38291C21.9197 8.88291 20.2277 9.46624 20.5661 8.38291C20.898 7.29958 22.935 6.54958 22.935 5.29959C22.2581 5.21626 22.2581 5.21626 22.2581 5.21626C22.2581 5.21626 22.5965 4.38292 22.5054 3.806C22.3362 3.47267 21.8351 4.056 21.8351 4.056C21.8351 4.056 21.4056 0.882938 19.629 0.799605C17.8523 0.716272 17.4293 4.04318 17.4293 4.04318C17.4293 4.04318 16.9282 3.45985 16.759 3.79318C16.6744 4.3701 17.0063 5.20343 17.0063 5.20343C17.0063 5.20343 17.0063 5.20343 16.3295 5.28677C16.3295 6.53676 18.36 7.28676 18.6984 8.37009C19.0368 9.45342 17.3447 8.87009 16.9282 7.37009C16.4987 5.8701 14.8132 5.70343 14.4748 5.70343C14.1364 5.70343 14.4748 6.28676 14.5594 7.62009C13.6288 7.54317 12.1125 9.04316 12.2817 10.0368C12.4509 11.0367 14.2275 12.4534 14.2275 12.4534C14.2275 12.4534 13.7134 12.8637 13.7134 13.5367C13.8045 15.3701 16.4206 13.7867 17.182 13.9534C17.9435 14.1201 17.0974 15.4534 15.4054 15.9534C13.7134 16.4534 13.1212 15.2034 12.2817 14.3701C12.2817 14.3701 11.8586 16.1201 10.082 16.7034C8.30538 17.2867 6.53525 15.2034 7.03636 14.8701C7.54397 14.5367 8.30538 16.0367 10.3358 15.5367C11.6048 15.2867 10.3358 13.6201 9.99741 13.2034C12.7893 10.0368 9.99741 8.87009 9.06679 8.45342C10.1731 7.37009 8.55918 6.45343 7.79777 6.28676C7.45936 6.3701 6.78255 9.03675 6.78255 9.69701C6.78255 10.3637 6.69795 11.7034 5.85193 11.5367C5.00592 11.3701 5.85193 9.12009 6.61335 7.37009C7.37476 5.6201 6.09923 4.8701 5.59162 4.78677C5.09052 4.70344 4.83671 5.53677 4.1599 6.03677C3.89959 5.20985 2.12295 4.71626 0.261719 5.29959C3.05357 6.96625 7.44635 21.2931 7.44635 21.2931C7.44635 21.2931 7.66761 22.0944 7.61555 22.6264C7.61555 22.6264 7.61555 22.6264 7.61555 23.1264C8.54617 24.37 19.629 24.4534 19.629 24.4534Z" fill="white"/>
<path d="M50.1013 7.64062H51.6892L58.646 23.9162H56.9215L55.1253 19.5957H46.3658L44.4981 23.9162H42.8906L50.1013 7.64062ZM50.8237 9.29447L46.971 18.2175H54.5591L50.8237 9.29447Z" fill="white"/>
<path d="M64.9004 12.5252H66.5208L70.7379 22.0829L74.955 12.5252H76.4908V23.9226H75.4105V13.8778H75.378L70.9657 23.9226H70.4906L66.0132 13.8778H65.9807V23.9226H64.9004V12.5252V12.5252Z" fill="white"/>
<path d="M87.9817 12.5253H89.0945L93.9624 23.9227H92.7519L91.4959 20.897H85.3656L84.0575 23.9227H82.9316L87.9817 12.5253ZM88.4893 13.6855L85.7951 19.9291H91.1055L88.4893 13.6855Z" fill="white"/>
<path d="M99.3926 7.64062H100.98L105.087 22.0572H105.132L109.31 7.64062H111.269L115.454 22.0572H115.499L119.606 7.64062H121.194L116.384 23.9162H114.491L110.313 9.42908H110.267L106.089 23.9162H104.195L99.3926 7.64062Z" fill="white"/>
<path d="M130.517 12.5253H131.63L136.498 23.9227H135.287L134.031 20.897H127.901L126.593 23.9227H125.467L130.517 12.5253ZM131.024 13.6855L128.33 19.9291H133.641L131.024 13.6855Z" fill="white"/>
<path d="M145.63 13.4867H141.68V12.5188H150.667V13.4867H146.71V23.9162H145.63V13.4867Z" fill="white"/>
<path d="M157.342 12.5253H164.416V13.4932H158.422V17.5509H164.045V18.5188H158.422V22.9611H164.683V23.9291H157.348V12.5253H157.342Z" fill="white"/>
<path d="M171.934 12.5253H174.973C175.884 12.5253 179.092 12.5253 179.092 15.5188C179.092 17.6919 177.407 18.2881 176.138 18.4483L179.502 23.9227H178.279L175.025 18.5124H173.014V23.9227H171.934V12.5253ZM173.007 17.5445H175.298C177.569 17.5445 178.012 16.3073 178.012 15.5188C178.012 14.7304 177.569 13.4932 175.298 13.4932H173.007V17.5445Z" fill="white"/>
<path d="M185.014 12.5253H186.127L189.003 22.615H189.035L191.958 12.5253H193.331L196.253 22.615H196.285L199.162 12.5253H200.274L196.91 23.9227H195.589L192.667 13.7817H192.634L189.712 23.9227H188.385L185.014 12.5253Z" fill="white"/>
<path d="M210.39 12.5253H211.503L216.371 23.9227H215.16L213.904 20.897H207.774L206.466 23.9227H205.34L210.39 12.5253ZM210.898 13.6855L208.203 19.9291H213.514L210.898 13.6855Z" fill="white"/>
<path d="M225.5 19.0124L221.25 12.5252H222.539L226.033 17.9355L229.613 12.5252H230.823L226.573 19.0124V23.9226H225.493V19.0124H225.5Z" fill="white"/>
<path d="M237.52 21.8062C238.092 22.7549 239.023 23.2421 240.168 23.2421C241.626 23.2421 242.765 22.3703 242.765 21.0049C242.765 17.8191 236.804 19.6844 236.804 15.3575C236.804 13.3319 238.568 12.2357 240.513 12.2357C241.769 12.2357 242.882 12.6524 243.67 13.6652L242.739 14.3255C242.199 13.5819 241.483 13.1973 240.487 13.1973C239.101 13.1973 237.891 13.9024 237.891 15.3511C237.891 18.7806 243.852 16.7165 243.852 20.9985C243.852 23.0562 242.134 24.2037 240.26 24.2037C238.737 24.2037 237.403 23.7229 236.498 22.4793L237.52 21.8062Z" fill="white"/>
<path d="M247.324 12.9019H246.562V12.5237H248.469V12.9019H247.708V14.9019H247.324V12.9019ZM248.957 12.5237H249.576L250.298 14.3314L251.02 12.5237H251.619V14.9019H251.235V12.9019H251.222L250.422 14.9019H250.155L249.361 12.9019H249.348V14.9019H248.964V12.5237H248.957Z" fill="white"/>
</g>
<defs>
<clipPath id="clip0_1238_874">
<rect width="251.351" height="23.6538" fill="white" transform="translate(0.261719 0.80014)"/>
</clipPath>
</defs>
</svg>
