<svg width="224" height="36" viewBox="0 0 224 36" fill="none" xmlns="http://www.w3.org/2000/svg">
<g clip-path="url(#clip0_1238_1070)">
<path d="M1.25586 34.863C1.74425 34.6122 1.96265 34.0172 1.96265 33.5083V21.0222C1.96265 20.4938 1.74425 19.9163 1.25586 19.6508H7.18203C9.8249 19.6508 12.4033 20.7372 12.4033 23.7502C12.4033 25.3483 11.0164 26.6087 9.5208 26.8918C11.6753 26.8724 13.7569 28.1938 13.7569 30.5813C13.7569 33.9932 10.1935 34.8639 7.68701 34.8639H1.25586V34.863ZM6.05319 20.9611C5.77859 20.9611 5.58784 20.9611 5.08193 21.0222V26.3468H5.68183C7.49811 26.3468 9.25357 25.7832 9.25357 23.6697C9.25357 21.5728 7.85012 20.9611 6.05319 20.9611ZM6.43101 27.7173C5.9979 27.7173 5.60903 27.7173 5.08193 27.7571V33.3796C5.73896 33.5092 6.44944 33.5518 7.10463 33.5518C8.6251 33.5518 10.1714 32.8707 10.1714 30.5378C10.1714 28.2355 8.34312 27.7173 6.43101 27.7173ZM19.6177 20.9611C19.3468 20.9611 19.1081 21.0055 18.8409 21.0435V26.3042C19.0887 26.3218 19.3136 26.3477 19.5587 26.3477C21.2635 26.3477 22.525 25.4029 22.525 23.541C22.525 21.6385 21.2847 20.9611 19.6177 20.9611ZM27.256 34.9528C26.6755 34.9528 26.035 34.9741 25.4803 34.8093C24.4491 34.504 23.0254 32.1702 22.4596 31.255C21.5796 29.767 20.8147 27.7173 18.8418 27.6951V33.5083C18.8418 34.0172 19.0712 34.6335 19.5596 34.863H15.0102C15.4884 34.6122 15.7161 34.0404 15.7161 33.5083V21.0222C15.7161 20.4938 15.4875 19.9163 15.0102 19.6508H20.4876C22.8706 19.6508 25.8526 20.5697 25.8526 23.4448C25.8526 25.8573 23.8649 27.0936 21.6487 27.0936C24.8021 27.1121 26.6543 34.5401 30.1357 34.5613C29.2022 34.839 28.2291 34.9528 27.256 34.9528ZM30.3642 34.863C30.7402 34.69 31.1337 34.1912 31.1337 33.5083V21.0222C31.1337 20.3291 30.7402 19.8386 30.3642 19.6508H35.0261C34.6262 19.8386 34.2613 20.3291 34.2613 21.0222V33.5083C34.2613 34.1912 34.6262 34.69 35.0261 34.863H30.3642ZM40.4805 34.863C40.9799 34.6335 41.2241 34.0404 41.2241 33.5083V21.3951H37.8763C37.1041 21.3951 36.1835 21.4904 35.52 21.8855L36.5604 19.6498H47.6645C48.5639 19.6498 49.4835 19.6304 50.3571 19.4435C49.9341 20.5882 48.6754 21.4367 47.9502 21.4367C47.0683 21.4164 45.6095 21.3572 44.3526 21.3572V33.5073C44.3526 34.0394 44.6152 34.6326 45.1055 34.8621H40.4805V34.863ZM50.9119 34.863C51.2841 34.69 51.6749 34.1912 51.6749 33.5083V21.0222C51.6749 20.3291 51.2841 19.8386 50.9119 19.6508H55.5737C55.1775 19.8386 54.7978 20.3291 54.7978 21.0222V33.5083C54.7978 34.1912 55.1775 34.69 55.5737 34.863H50.9119ZM64.6505 31.4215C64.6505 28.5242 57.8544 27.8699 57.8544 23.2449C57.8544 20.3818 60.5664 19.4444 62.9513 19.4444C64.0156 19.4444 65.5554 19.5925 66.5285 20.0422L66.6981 22.8859C66.1 21.6301 64.6026 20.7205 63.2121 20.7205C62.1127 20.7205 60.9608 21.2665 60.9608 22.5287C60.9608 25.5334 67.8721 26.2672 67.8721 30.6479C67.8721 33.8275 65.1057 35.1443 62.3136 35.1443C60.853 35.1443 58.8663 34.8621 57.6342 34.0163C57.5596 33.5073 57.5255 32.9752 57.5255 32.4543C57.5255 31.8333 57.5798 31.2106 57.6711 30.598C58.4396 32.3571 60.0301 33.7331 62.0169 33.7331C63.5263 33.7341 64.6505 33.0733 64.6505 31.4215ZM79.2102 34.863C79.5392 34.714 79.8912 34.1912 79.8912 33.5083V27.8477C79.0803 27.7561 77.9478 27.7163 76.677 27.7163C75.3869 27.7163 74.2452 27.7561 73.414 27.8477V33.5083C73.414 34.1912 73.7568 34.69 74.0904 34.863H69.6017C69.9344 34.714 70.2892 34.1912 70.2892 33.5083V21.0222C70.2892 20.3291 69.9344 19.8183 69.6017 19.6508H74.0904C73.7568 19.8192 73.414 20.3291 73.414 21.0222V26.1367C74.2452 26.2246 75.3667 26.2672 76.677 26.2672C77.9478 26.2672 79.0803 26.2117 79.8912 26.1367V21.0222C79.8912 20.3291 79.5401 19.8183 79.2102 19.6508H83.6924C83.357 19.8192 83.0243 20.3291 83.0243 21.0222V33.5083C83.0243 34.1912 83.357 34.69 83.6924 34.863H79.2102Z" fill="white"/>
<path d="M100.333 34.8621C100.477 34.7131 100.608 34.6021 100.608 34.3328C100.608 34.2421 100.574 34.0903 100.463 33.8072C100.463 33.8072 99.2194 30.4073 99.0738 30.0113C98.1394 29.8956 97.1654 29.8956 96.2116 29.8956C95.3067 29.8956 94.388 29.9169 93.4914 30.0113C93.3642 30.3518 92.0308 33.7331 92.0308 33.7331C91.8511 34.1903 91.7894 34.3467 91.7894 34.4466C91.7894 34.6724 91.9829 34.7825 92.1469 34.8621H89.0977C89.5473 34.6326 89.9371 34.1607 90.1297 33.6906L95.1409 20.702C95.1639 20.6483 95.1722 20.5882 95.1722 20.5151C95.1722 20.1569 94.9354 19.8173 94.6165 19.6489H98.5476L103.644 33.6776C103.853 34.2412 104.297 34.652 104.67 34.8612H100.333V34.8621ZM96.3748 22.5453L94.0774 28.4677C94.7621 28.5436 95.4726 28.5612 96.1656 28.5612C96.9599 28.5612 97.745 28.5612 98.5172 28.4677L96.3748 22.5453ZM105.446 34.8621C105.822 34.689 106.211 34.1903 106.211 33.5073V21.0212C106.211 20.3281 105.822 19.8377 105.446 19.6498H110.105C109.709 19.8377 109.339 20.3281 109.339 21.0212V33.5073C109.339 34.1903 109.708 34.689 110.105 34.8621H105.446ZM117.188 20.9602C116.936 20.9602 116.695 21.0046 116.433 21.0425V26.3033C116.676 26.3209 116.898 26.3468 117.135 26.3468C118.844 26.3468 120.102 25.402 120.102 23.5401C120.102 21.6375 118.857 20.9602 117.188 20.9602ZM125.207 34.9518C124.626 34.9518 123.999 34.9731 123.432 34.8084C122.399 34.503 120.979 32.1692 120.412 31.254C119.536 29.766 118.395 27.6941 116.433 27.6941V33.5073C116.433 34.0163 116.652 34.6326 117.135 34.8621H112.589C113.078 34.6113 113.305 34.0394 113.305 33.5073V21.0212C113.305 20.4929 113.078 19.9154 112.589 19.6498H118.079C120.455 19.6498 123.433 20.5687 123.433 23.4439C123.433 25.8563 121.261 27.0926 119.617 27.0926C122.885 27.2814 124.856 34.5604 128.099 34.5604C127.159 34.838 126.186 34.9518 125.207 34.9518ZM144.107 21.1351L139.503 34.8621C139.123 34.8621 138.751 34.7307 138.54 34.5817C138.085 34.1412 137.369 32.3025 137.111 31.6242L135.03 26.3459L132.033 34.8621H130.607L125.455 21.1008C125.233 20.5151 124.856 19.9534 124.293 19.6498H128.771C128.582 19.797 128.452 19.9645 128.452 20.2846C128.452 20.4383 128.528 20.6502 128.582 20.814L131.937 29.9178L135.51 19.6498L139.445 29.5486L142.425 20.5882C142.499 20.3448 142.542 20.255 142.542 20.1014C142.542 19.9154 142.462 19.797 142.275 19.6498H145.24C144.692 19.9386 144.296 20.5687 144.107 21.1351ZM149.61 22.5453L147.313 28.4677C148.006 28.5436 148.715 28.5612 149.406 28.5612C150.192 28.5612 150.987 28.5612 151.754 28.4677L149.61 22.5453ZM153.563 34.8621C153.72 34.7131 153.839 34.6021 153.839 34.3328C153.839 34.2421 153.793 34.0903 153.701 33.8072C153.701 33.8072 152.466 30.4073 152.315 30.0113C151.373 29.8956 150.401 29.8956 149.447 29.8956C148.55 29.8956 147.63 29.9169 146.729 30.0113C146.599 30.3518 145.275 33.7331 145.275 33.7331C145.084 34.1903 145.032 34.3467 145.032 34.4466C145.032 34.6724 145.217 34.7825 145.379 34.8621H142.329C142.78 34.6326 143.169 34.1607 143.357 33.6906L148.386 20.702C148.401 20.6483 148.415 20.5882 148.415 20.5151C148.415 20.1569 148.177 19.8173 147.85 19.6489H151.785L156.88 33.6776C157.091 34.2412 157.54 34.652 157.911 34.8612H153.563V34.8621ZM167.252 21.247L163.664 27.5655V33.5073C163.664 33.9904 163.861 34.6326 164.34 34.8621H159.875C160.332 34.6113 160.542 33.9747 160.542 33.5073V27.5461L157.422 22.5278C157.143 22.0586 155.842 19.8719 154.256 19.8719C154.687 19.7072 155.999 19.4564 156.879 19.4564C158.347 19.4564 159.074 19.5915 159.972 21.0046L162.858 25.5982C163.101 25.1475 165.386 21.1573 165.386 21.1573C165.661 20.6715 165.85 20.3281 165.85 20.1579C165.85 19.9395 165.756 19.797 165.535 19.6498H168.751C168.121 19.9534 167.596 20.6492 167.252 21.247ZM175.651 31.4206C175.651 28.5233 168.854 27.869 168.854 23.244C168.854 20.3809 171.559 19.4435 173.945 19.4435C175.013 19.4435 176.543 19.5915 177.521 20.0413L177.691 22.885C177.086 21.6292 175.595 20.7196 174.204 20.7196C173.103 20.7196 171.958 21.2655 171.958 22.5278C171.958 25.5325 178.869 26.2663 178.869 30.647C178.869 33.8266 176.122 35.1434 173.31 35.1434C171.85 35.1434 169.859 34.8612 168.625 34.0154C168.545 33.5064 168.506 32.9743 168.506 32.4533C168.506 31.8324 168.565 31.2096 168.659 30.597C169.427 32.3562 171.023 33.7322 173.01 33.7322C174.525 33.7331 175.651 33.0724 175.651 31.4206Z" fill="white"/>
<g style="mix-blend-mode:luminosity">
<path d="M217.463 9.00054C214.915 11.5425 209.398 13.7246 206.683 14.7462C202.974 16.1454 201.328 16.6404 199.253 17.3187C196.904 18.084 192.205 19.5119 192.205 19.5119C201.939 22.4305 208.799 23.3105 208.799 23.3105C208.799 23.3105 211.994 22.3185 217.057 19.5998C219.799 18.2006 221.148 17.2586 222.112 16.3582C222.468 16.0352 223.387 15.0747 223.615 13.8458C223.63 13.756 223.674 13.521 223.674 13.2897C223.674 13.2897 223.674 13.1268 223.66 12.9852C223.654 12.8223 223.625 12.7131 223.625 12.7131C223.625 12.7131 223.571 12.4217 223.499 12.2171C223.425 12.0126 223.111 11.3815 222.604 10.9716C222.264 10.6949 221.678 10.0055 219.555 9.25594C218.834 9.00424 217.665 8.77197 217.665 8.77197L217.463 9.00054Z" fill="url(#paint0_linear_1238_1070)"/>
</g>
<g style="mix-blend-mode:luminosity">
<path d="M223.673 13.2264C223.673 13.2264 223.658 12.9543 223.592 12.7239C223.54 12.5185 223.449 12.3223 223.312 12.1159C223.146 11.8707 222.922 11.5829 222.591 11.2646C222.341 11.0277 222.067 10.8186 221.738 10.5965C220.41 9.72292 218.696 9.23062 217.179 9.02241C214.828 8.70871 212.132 8.76424 211.877 8.75498C211.009 8.74295 205.407 8.78922 203.966 8.81513C197.57 8.94746 189.74 8.96504 187.689 8.96504C166.514 9.06221 157.297 8.60414 147.039 6.53871C138.312 4.79808 133.471 3.14443 133.471 3.14443C141.168 2.877 186.08 1.00589 194.273 0.787498C199.637 0.635736 203.446 0.603348 206.493 0.780095C208.056 0.868005 209.51 1.00126 211.337 1.31311C212.974 1.59443 214.461 2.07192 215.328 2.39487C217.152 3.07318 218.69 4.05407 219.45 5.05903C219.45 5.05903 219.675 5.29038 219.98 5.70124C220.322 6.17874 220.719 6.76635 220.854 6.98566C221.964 8.6754 222.491 9.7368 222.675 10.107C222.873 10.4956 223.048 10.8991 223.218 11.2942C223.385 11.6866 223.453 11.9244 223.507 12.09C223.624 12.5055 223.652 12.884 223.658 12.9691L223.673 13.2264Z" fill="#CE210F"/>
</g>
</g>
<defs>
<linearGradient id="paint0_linear_1238_1070" x1="214.218" y1="5.91349" x2="202.778" y2="25.6439" gradientUnits="userSpaceOnUse">
<stop stop-color="#E6EBEF"/>
<stop offset="0.0764" stop-color="#BBCEE5"/>
<stop offset="0.1854" stop-color="#85A9D8"/>
<stop offset="0.2796" stop-color="#5D8FCF"/>
<stop offset="0.3543" stop-color="#457EC9"/>
<stop offset="0.4" stop-color="#3C78C7"/>
<stop offset="0.9" stop-color="#2E5C99"/>
</linearGradient>
<clipPath id="clip0_1238_1070">
<rect width="222.999" height="35.0097" fill="white" transform="translate(0.896484 0.401123)"/>
</clipPath>
</defs>
</svg>
