<svg width="217" height="79" viewBox="0 0 217 79" fill="none" xmlns="http://www.w3.org/2000/svg">
<g clip-path="url(#clip0_1238_664)">
<path d="M134.107 55.2507C132.902 55.1532 131.696 55.0556 130.539 55.0069C129.382 54.9581 128.224 54.9093 127.019 54.763C125.861 54.8606 124.656 54.9581 123.498 55.0069C122.341 55.0556 121.136 55.1044 119.978 55.2507C119.93 55.2507 119.882 55.2507 119.834 55.2507C118.628 55.2507 117.326 55.2019 117.326 54.0316C117.326 52.8612 118.001 52.5198 119.11 52.0322C120.412 51.447 120.557 50.5204 120.557 47.2044V27.8445C120.557 27.2106 120.509 26.6741 120.46 26.4791C120.219 26.6741 119.882 27.4056 119.496 28.1859L119.255 28.7223L107.537 53.4464C106.958 54.6655 106.283 55.2995 105.608 55.2995C104.788 55.2995 104.402 54.568 104.113 53.934L104.065 53.8853L92.588 28.2834C92.0093 26.918 91.72 26.7229 91.6236 26.7229C91.5271 26.7229 91.4307 26.7229 91.4307 27.8445V43.7908C91.4307 47.1069 92.0093 50.4229 96.2047 52.0809C97.1209 52.4223 97.9407 52.9099 97.9407 54.0803C97.9407 55.2995 96.6387 55.2995 96.1082 55.2995C95.0473 55.2995 93.9865 55.1532 92.9738 55.0556C91.9611 54.9581 90.9485 54.8118 89.9358 54.8118C88.9231 54.8118 87.8622 54.9093 86.8978 55.0556C85.8851 55.1532 84.8242 55.2995 83.7633 55.2995C83.1847 55.2995 82.2685 55.2995 82.2685 54.0803C82.2685 53.0075 82.9918 52.6661 83.8116 52.2272L84.0045 52.1297C86.8496 50.5692 87.6693 49.0575 87.6693 45.5951V22.7241C87.6693 20.3834 86.946 17.2624 84.9207 16.2383C84.5831 16.0433 84.2456 15.897 84.0045 15.7995C82.7025 15.1655 82.0273 14.8729 82.0273 13.8976C82.0273 13.0198 82.3167 12.6785 83.04 12.6785C83.908 12.6785 84.8242 12.7272 85.6922 12.776C86.5602 12.8248 87.4282 12.8735 88.3445 12.8735C89.2125 12.8735 90.1287 12.8248 90.9967 12.776C91.8647 12.7272 92.7809 12.6785 93.6489 12.6785C94.8062 12.6785 95.3849 12.8248 95.8671 13.8488L107.344 38.3778C107.682 39.0606 107.923 39.597 108.164 40.0846C108.55 40.8649 108.791 41.4501 108.935 41.6939C109.08 41.4988 109.418 40.8649 109.707 40.3772C109.852 40.0846 109.996 39.8408 110.141 39.5482L123.016 14.239C123.643 12.9711 123.932 12.7272 124.608 12.7272C125.476 12.7272 126.392 12.776 127.26 12.8248C128.128 12.8735 128.996 12.9223 129.912 12.9223C130.78 12.9223 131.696 12.8735 132.564 12.8248C133.432 12.776 134.348 12.7272 135.216 12.7272C135.409 12.7272 135.602 12.8248 135.747 12.9223C135.94 13.1174 135.988 13.4587 135.988 13.9464C135.988 15.0192 134.975 15.4093 133.288 15.9945L132.998 16.092C131.069 16.7748 130.105 17.2137 130.105 20.7248V42.1816C130.105 47.1069 130.346 50.2278 134.831 52.0322C136.036 52.5198 136.76 52.8612 136.76 54.0316C136.76 55.2507 135.361 55.2507 134.107 55.2507Z" fill="white"/>
<path d="M157.208 55.6414C154.556 55.6414 152.048 55.0075 149.685 54.4223C148.624 54.1785 147.515 53.8859 146.406 53.6421C146.358 53.6421 146.261 53.5933 146.165 53.5933C145.538 53.4958 144.525 53.3007 144.236 52.2766L142.163 43.9865C142.114 43.7914 142.066 43.6451 142.018 43.4501C141.873 42.9624 141.729 42.426 141.729 41.9871C141.729 41.6458 141.873 40.6217 143.416 40.6217C144.67 40.6217 145.152 41.8896 145.49 42.8161C145.586 43.0112 145.635 43.2063 145.731 43.4013C147.66 47.5464 151.711 51.984 157.304 51.984C161.451 51.984 164.345 49.3507 164.345 45.547C164.345 41.6458 160.391 40.2316 155.761 38.5735C149.782 36.4279 142.404 33.7945 142.404 24.2853C142.404 17.6044 147.949 12.1427 154.797 12.1427C157.979 12.1427 160.391 13.0692 162.175 13.7519C163.284 14.1421 164.104 14.4834 164.779 14.4834C165.02 14.4834 165.55 14.2396 165.936 14.0933C166.467 13.8495 166.901 13.6544 167.238 13.6544C168.492 13.6544 168.637 14.5322 168.637 15.2637C168.54 17.7019 169.022 21.1155 169.263 23.1149C169.408 24.0414 169.456 24.4803 169.456 24.7242C169.456 25.8458 168.829 26.4797 167.817 26.4797C166.467 26.4797 166.129 25.3581 165.695 23.9439L165.599 23.7001C164.297 19.4575 159.378 15.7513 155.183 15.7513C152.048 15.7513 148.914 17.4581 148.914 20.7742C148.914 24.8704 152.916 26.2846 157.594 27.8939C163.814 30.0396 170.855 32.4291 170.855 41.9871C170.951 48.5704 165.695 55.6414 157.208 55.6414Z" fill="white"/>
<path d="M197.618 55.6414C187.588 55.6414 177.172 48.034 177.172 35.2575C177.172 27.6013 179.535 21.4081 183.971 17.3606C187.684 13.9958 192.796 12.1427 198.39 12.1427C202.73 12.1427 206.346 13.5569 208.757 14.5322C209.818 14.9711 210.735 15.3124 211.169 15.3124C211.603 15.3124 211.699 15.1174 211.94 14.6785C212.229 14.1908 212.615 13.4593 213.724 13.4593C214.351 13.4593 214.785 13.8495 214.93 14.4834L215.798 22.6272C215.846 23.1149 215.943 23.6025 215.991 24.0902C216.087 24.7242 216.184 25.3581 216.184 25.797C216.184 26.7235 215.75 27.6988 214.833 27.6988C213.965 27.6988 213.339 26.5285 212.953 25.797C212.905 25.6995 212.856 25.6507 212.856 25.6019C209.384 19.2624 204.707 15.8001 199.692 15.8001C191.446 15.8001 187.443 21.3106 187.443 32.6242C187.443 42.1822 193.278 49.9846 200.415 49.9846C204.659 49.9846 209.047 47.9365 212.519 44.4254C212.663 44.2791 212.76 44.1328 212.905 43.9865C213.58 43.255 214.351 42.3772 215.316 42.3772C215.653 42.3772 216.425 42.5235 216.425 43.6939C216.425 45.6445 210.108 55.6414 197.618 55.6414Z" fill="white"/>
<path d="M92.7817 69.9788C92.8299 70.2714 92.8782 70.6127 92.8782 70.8078C92.8782 71.0029 92.7817 71.1979 92.637 71.1979C92.4442 71.1979 92.2995 70.8078 92.203 70.7103C91.2386 68.9547 89.8884 68.0282 88.5382 68.0282C86.561 68.0282 85.1144 69.1498 85.1144 72.6121C85.1144 75.0504 86.6575 77.3424 88.731 77.3424C90.033 77.3424 91.2386 76.6597 92.0584 75.8306C92.2513 75.6356 92.4924 75.343 92.7335 75.343C92.8782 75.343 92.9264 75.4405 92.9264 75.5868C92.9264 76.0745 91.2386 78.659 87.9595 78.659C85.3555 78.659 82.5586 76.7572 82.5586 73.3924C82.5586 69.0035 85.4519 67.3942 88.1524 67.3942C89.8884 67.3942 91.1904 68.2232 91.5762 68.2232C91.9619 68.2232 91.8173 67.7356 92.2513 67.7356C92.3959 67.7356 92.4442 67.8331 92.4442 67.9306L92.7817 69.9788Z" fill="white"/>
<path d="M106.332 69.3944C106.332 68.4678 105.802 68.1752 105.127 68.0777C104.934 68.0289 104.789 67.9314 104.789 67.6876C104.789 67.5413 104.837 67.4438 105.223 67.4438C105.609 67.4438 105.995 67.5901 107.104 67.5901C107.924 67.5901 109.081 67.4438 109.804 67.4438C111.878 67.4438 114.048 67.8339 114.048 70.4184C114.048 71.4913 113.517 72.0277 112.89 72.4178C112.601 72.6129 112.119 72.6617 112.119 72.8567C112.119 73.1005 113.855 76.2215 114.626 77.0993C114.771 77.2944 114.916 77.3431 115.06 77.3431C115.253 77.3431 115.398 77.2944 115.543 77.2944C115.736 77.2944 115.784 77.3919 115.784 77.587C115.784 78.2697 113.951 78.3672 113.421 78.3672C112.987 78.3672 112.408 78.0746 112.071 77.4407L110.238 74.0759C109.997 73.5882 109.708 73.1981 109.129 73.1981C108.743 73.1981 108.599 73.2956 108.599 73.4907V76.1728C108.599 77.4407 109.129 77.7333 109.804 77.782C109.997 77.782 110.142 77.9283 110.142 78.1722C110.142 78.3672 109.949 78.416 109.226 78.416C108.599 78.416 107.972 78.2697 107.345 78.2697C106.718 78.2697 106.091 78.416 105.464 78.416C105.223 78.416 105.03 78.416 105.03 78.1722C105.03 77.9283 105.271 77.8308 105.464 77.782C106.091 77.587 106.236 77.0018 106.236 76.4654V69.3944H106.332ZM108.743 71.9789C108.743 72.174 108.743 72.5154 109.756 72.5154C111.154 72.5154 111.733 71.8326 111.733 70.2722C111.733 69.1505 111.058 68.0289 109.708 68.0289C108.888 68.0289 108.743 68.2728 108.743 68.858V71.9789Z" fill="white"/>
<path d="M128.565 69.3944C128.565 68.4191 128.034 68.0777 127.359 68.0777C127.166 68.0777 127.021 67.9314 127.021 67.7364C127.021 67.4926 127.166 67.4438 127.938 67.4438C128.565 67.4438 129.191 67.5901 129.818 67.5901C130.445 67.5901 131.072 67.4438 131.699 67.4438C132.085 67.4438 132.133 67.5413 132.133 67.6876C132.133 67.8827 131.892 67.9314 131.651 68.0777C131.12 68.3216 130.879 68.8092 130.879 69.3944V74.2709C130.879 76.124 132.085 77.4407 134.014 77.4407C136.811 77.4407 137.486 75.1975 137.486 73.4419V69.4432C137.486 68.6629 137.1 68.1265 136.232 68.0777C135.991 68.0777 135.75 67.9314 135.75 67.6876C135.75 67.4926 135.943 67.4438 136.328 67.4438C136.811 67.4438 137.245 67.4926 137.727 67.4926C138.209 67.4926 138.643 67.4438 139.125 67.4438C139.415 67.4438 139.463 67.4926 139.463 67.6876C139.463 67.9314 139.173 67.9314 138.932 68.0777C138.498 68.2728 138.354 68.5654 138.354 69.9308V73.2956C138.354 76.8067 136.569 78.5623 133.049 78.5623C130.204 78.5623 128.516 77.3432 128.516 74.3685V69.3944H128.565Z" fill="white"/>
<path d="M155.277 76.4654C155.277 77.4407 156.145 77.7333 156.483 77.782C156.676 77.782 156.82 77.9283 156.82 78.1722C156.82 78.416 156.386 78.416 155.904 78.416C155.422 78.416 154.795 78.2697 154.168 78.2697C153.541 78.2697 152.914 78.416 152.287 78.416C151.998 78.416 151.757 78.416 151.757 78.1722C151.757 77.9283 151.998 77.8308 152.191 77.782C152.818 77.587 152.914 77.0018 152.914 76.4654V69.3944C152.914 68.4191 152.384 68.1265 151.709 68.0777C151.516 68.0777 151.371 67.9314 151.371 67.6876C151.371 67.4438 151.805 67.4438 152.287 67.4438C152.914 67.4438 153.541 67.5901 154.168 67.5901C154.795 67.5901 155.422 67.4438 156.049 67.4438C156.29 67.4438 156.483 67.4438 156.483 67.6876C156.483 67.9314 156.049 68.0289 155.904 68.0777C155.277 68.2728 155.277 68.858 155.277 69.3944V76.4654Z" fill="white"/>
<path d="M168.975 75.5868C168.927 75.4405 168.879 75.2455 168.879 75.0992C168.879 75.0016 168.927 74.8553 169.216 74.8553C169.506 74.8553 169.602 75.2942 169.699 75.5381C170.277 76.806 171.386 77.8788 172.881 77.8788C173.99 77.8788 174.858 77.1961 174.858 76.0745C174.858 73.4899 169.072 74.7578 169.072 70.4664C169.072 68.8572 170.374 67.3942 172.206 67.3942C173.508 67.3942 174.328 68.0282 174.858 68.0282C175.051 68.0282 175.389 67.7843 175.534 67.7843C175.726 67.7843 175.775 67.8819 175.775 68.0769C175.726 68.9547 176.016 70.4177 176.016 70.564C176.016 70.759 175.919 70.9053 175.726 70.9053C175.437 70.9053 175.389 70.6615 175.244 70.2714C174.907 69.101 173.556 68.0769 172.399 68.0769C171.435 68.0769 170.615 68.6134 170.615 69.5399C170.615 72.222 176.402 70.8078 176.402 75.1479C176.402 76.6597 175.196 78.6103 172.881 78.6103C171.869 78.6103 171.001 78.2689 170.084 78.0739C169.94 78.0251 169.699 78.0251 169.602 77.83L168.975 75.5868Z" fill="white"/>
<path d="M189.758 70.1747C189.758 69.3944 189.662 68.224 189.035 68.1265C188.552 68.0777 188.215 67.9314 188.215 67.6876C188.215 67.4438 188.456 67.4438 188.794 67.4438C189.999 67.5901 191.205 67.5413 192.41 67.5901C193.616 67.5901 194.821 67.4438 196.027 67.4438C196.364 67.4438 196.702 67.4438 196.702 67.7364C196.702 68.0777 196.654 68.4191 196.654 68.7605C196.654 69.1018 196.702 69.4432 196.702 69.7845C196.702 69.9796 196.654 70.0771 196.413 70.0771C196.172 70.0771 196.123 69.7845 196.123 69.6382C196.027 68.6629 195.545 68.224 193.76 68.224H192.748C192.314 68.224 192.217 68.3703 192.217 68.9555V71.7351C192.217 71.979 192.458 72.0765 193.085 72.0765C194.002 72.0765 194.677 71.8327 194.918 71.15C195.111 70.7111 195.159 70.6623 195.304 70.6623C195.545 70.6623 195.545 70.9061 195.545 71.1012C195.545 71.5888 195.496 72.0277 195.496 72.5154C195.496 73.003 195.545 73.4419 195.545 73.9296C195.545 74.1734 195.545 74.3685 195.255 74.3685C195.014 74.3685 195.014 73.8808 194.821 73.5882C194.436 72.9543 194.002 72.8567 193.085 72.8567C192.314 72.8567 192.217 73.0518 192.217 73.4419V76.124C192.217 77.2944 192.41 77.4407 193.23 77.4407C194.87 77.4407 195.786 76.953 196.316 76.4166C196.847 75.8802 196.991 75.3438 197.232 75.3438C197.425 75.3438 197.474 75.4901 197.474 75.6364C197.474 75.929 197.329 76.5629 197.232 76.9043C197.04 77.5382 196.316 78.3185 195.593 78.3185C194.532 78.3185 193.519 78.1722 192.458 78.1722C191.398 78.1722 190.385 78.3185 189.324 78.3185C188.842 78.3185 188.601 78.3185 188.601 78.0747C188.601 77.8308 188.89 77.7333 189.179 77.587C189.71 77.3432 189.806 76.953 189.806 76.0753V70.1747H189.758Z" fill="white"/>
<path d="M209.43 75.5868C209.382 75.4405 209.334 75.2455 209.334 75.0992C209.334 75.0016 209.382 74.8553 209.672 74.8553C209.961 74.8553 210.057 75.2942 210.154 75.5381C210.732 76.806 211.842 77.8788 213.336 77.8788C214.446 77.8788 215.314 77.1961 215.314 76.0745C215.314 73.4899 209.527 74.7578 209.527 70.4664C209.527 68.8572 210.829 67.3942 212.661 67.3942C213.963 67.3942 214.783 68.0282 215.314 68.0282C215.506 68.0282 215.844 67.7843 215.989 67.7843C216.182 67.7843 216.23 67.8819 216.23 68.0769C216.182 68.9547 216.471 70.4177 216.471 70.564C216.471 70.759 216.374 70.9053 216.182 70.9053C215.892 70.9053 215.844 70.6615 215.699 70.2714C215.362 69.101 214.012 68.0769 212.854 68.0769C211.89 68.0769 211.07 68.6134 211.07 69.5399C211.07 72.222 216.857 70.8078 216.857 75.1479C216.857 76.6597 215.651 78.6103 213.336 78.6103C212.324 78.6103 211.456 78.2689 210.54 78.0739C210.395 78.0251 210.154 78.0251 210.057 77.83L209.43 75.5868Z" fill="white"/>
<path d="M36.0723 19.6543L39.2067 7.85309V19.4105C37.4225 19.4105 36.0723 19.6543 36.0723 19.6543Z" fill="white"/>
<path d="M20.4465 32.383L15.7207 25.9947L21.7967 29.5546C21.2663 30.5299 20.8323 31.3589 20.4465 32.383Z" fill="white"/>
<path d="M19.3879 42.8179L7.66992 39.697H19.1468C19.1468 40.7698 19.195 41.8426 19.3879 42.8179Z" fill="white"/>
<path d="M26.5738 23.8957L25.6094 15.947L29.1296 22.0914C28.2134 22.6766 27.3936 23.213 26.5738 23.8957Z" fill="white"/>
<path d="M31.9734 58.6173L25.6562 63.4451L29.1765 57.2519C30.0927 57.7883 30.9607 58.2272 31.9734 58.6173Z" fill="white"/>
<path d="M42.2926 59.69L39.1582 71.4912V59.9338C40.2191 59.9338 41.28 59.8851 42.2926 59.69Z" fill="white"/>
<path d="M23.5809 52.424L15.7207 53.3993L21.7967 49.8394C22.3271 50.7659 22.9058 51.5462 23.5809 52.424Z" fill="white"/>
<path d="M57.8658 46.9605L62.5916 53.3488L56.5156 49.7889C57.0461 48.8624 57.4801 47.9846 57.8658 46.9605Z" fill="white"/>
<path d="M58.9785 36.5266L70.6965 39.6964H59.2196C59.1714 38.6235 59.1232 37.5507 58.9785 36.5266Z" fill="white"/>
<path d="M51.7452 55.4478L52.7097 63.3965L49.1895 57.2033C50.1057 56.7157 50.9255 56.1305 51.7452 55.4478Z" fill="white"/>
<path d="M46.3945 20.7765L52.7116 15.9975L49.1914 22.142C48.227 21.6055 47.4072 21.1666 46.3945 20.7765Z" fill="white"/>
<path d="M54.7852 26.97L62.6454 25.9947L56.5694 29.5546C55.9425 28.5793 55.4603 27.799 54.7852 26.97Z" fill="white"/>
<path fill-rule="evenodd" clip-rule="evenodd" d="M39.1587 75.2464L35.0116 59.5439C34.2883 59.3976 33.6132 59.2026 32.9381 58.9587L24.4992 65.347L25.753 54.7649C25.2225 54.2772 24.6921 53.7408 24.2098 53.2044L13.7456 54.4723L20.0627 45.9384C19.8216 45.2556 19.677 44.5729 19.4841 43.8414L3.95651 39.6476L19.4841 35.4538C19.6287 34.6735 19.8216 34.0396 20.0627 33.3569L13.7938 24.8717L24.2581 26.1396C24.7403 25.6032 25.2225 25.1155 25.8012 24.6279L24.5474 14.0458L32.9863 20.434C33.6614 20.1902 34.3365 20.0439 35.0598 19.8976L39.207 4.19514L43.3059 19.8976C44.0292 20.0439 44.7525 20.239 45.4276 20.4828L53.8665 14.0945L52.5645 24.6279C53.095 25.1155 53.5772 25.6032 54.1076 26.1884L64.5719 24.9204L58.2547 33.4544C58.4959 34.1371 58.6405 34.7711 58.8334 35.5513L74.361 39.7451L58.8334 43.939C58.6405 44.7192 58.4959 45.3532 58.2547 46.0359L64.5719 54.5698L54.1076 53.3019C53.6254 53.8384 53.095 54.3748 52.5645 54.8624L53.8183 65.4445L45.3794 59.0563C44.7043 59.3001 44.0292 59.4464 43.3059 59.5927L39.1587 75.2464ZM44.3667 59.3001L39.1587 78.9526L33.9507 59.3001L23.3901 67.2976L24.9332 54.0334L11.8167 55.6427L19.7734 44.963L0.339844 39.6964L19.7734 34.4297L11.865 23.7501L24.9814 25.3593L23.4383 12.0951L33.999 20.0927L39.207 0.440201L44.3667 20.0927L54.9274 12.0951L53.3843 25.3593L66.5007 23.7501L58.5923 34.4297L78.0259 39.6964L58.5923 44.963L66.5007 55.6427L53.3843 54.0822L54.9756 67.3464L44.3667 59.3001Z" fill="white"/>
<path d="M57.4342 39.6968C57.4342 40.087 57.1449 40.3796 56.7591 40.3796C56.4215 40.3796 56.084 40.087 56.084 39.6968C56.084 39.3067 56.3733 39.0141 56.7591 39.0141C57.1449 39.0141 57.4342 39.3067 57.4342 39.6968Z" fill="white"/>
<path d="M48.3212 23.7033C48.6587 23.8983 48.7552 24.2885 48.5623 24.6298C48.3694 24.9712 47.9836 25.0687 47.6461 24.8737C47.3085 24.6786 47.2121 24.2885 47.405 23.9471C47.5978 23.6058 47.9836 23.5082 48.3212 23.7033Z" fill="white"/>
<path d="M30.0465 23.7033C30.384 23.5082 30.7698 23.6058 30.9627 23.9471C31.1556 24.2885 31.0591 24.6786 30.7216 24.8737C30.384 25.0687 29.9982 24.9712 29.8053 24.6298C29.6125 24.2885 29.7089 23.8496 30.0465 23.7033Z" fill="white"/>
<path d="M20.8828 39.6968C20.8828 39.3067 21.1721 39.0141 21.5579 39.0141C21.9437 39.0141 22.233 39.3067 22.233 39.6968C22.233 40.087 21.9437 40.3796 21.5579 40.3796C21.1721 40.3308 20.8828 40.0382 20.8828 39.6968Z" fill="white"/>
<path d="M30.0465 55.6906C29.7089 55.4955 29.6125 55.1054 29.8053 54.764C29.9982 54.4227 30.384 54.3251 30.7216 54.5202C31.0591 54.7153 31.1556 55.1054 30.9627 55.4467C30.7216 55.7881 30.3358 55.8856 30.0465 55.6906Z" fill="white"/>
<path fill-rule="evenodd" clip-rule="evenodd" d="M23.1489 39.6944C23.1489 30.7216 30.334 23.5043 39.1586 23.5043C48.0315 23.5043 55.1684 30.7703 55.1684 39.6944C55.1684 48.6673 47.9833 55.8845 39.1586 55.8845C30.334 55.8845 23.1489 48.6185 23.1489 39.6944ZM19.918 39.6944C19.918 28.966 28.5015 20.237 39.1586 20.237C49.7675 20.237 58.3993 28.966 58.3993 39.6944C58.3993 50.4228 49.7675 59.1518 39.1586 59.1518C28.5497 59.1518 19.918 50.4228 19.918 39.6944ZM57.8207 39.6944C57.8207 39.1092 57.3384 38.6216 56.7598 38.6216C56.1811 38.6216 55.6989 39.1092 55.6989 39.6944C55.6989 40.2796 56.1811 40.7673 56.7598 40.7673C57.3866 40.7673 57.8207 40.2796 57.8207 39.6944ZM48.5138 23.358C48.0315 23.0654 47.3564 23.2605 47.0671 23.7481C46.7778 24.2358 46.9706 24.9185 47.4529 25.2111C47.9351 25.5037 48.6102 25.3086 48.8995 24.821C49.1889 24.2845 48.996 23.6506 48.5138 23.358ZM29.8518 23.3092C29.3695 23.6018 29.1766 24.2358 29.466 24.7722C29.7553 25.2599 30.3822 25.4549 30.9126 25.1623C31.3949 24.8697 31.5878 24.2358 31.2984 23.6994C30.9609 23.2117 30.334 23.0166 29.8518 23.3092ZM20.4966 39.6944C20.4966 40.2796 20.9789 40.7673 21.5575 40.7673C22.1362 40.7673 22.6184 40.2796 22.6184 39.6944C22.6184 39.1092 22.1362 38.6216 21.5575 38.6216C20.9789 38.6216 20.4966 39.1092 20.4966 39.6944ZM29.8035 56.0308C30.2857 56.3234 30.9609 56.1284 31.2502 55.6407C31.5395 55.1531 31.3466 54.4703 30.8644 54.1777C30.3822 53.8852 29.7071 54.0802 29.4177 54.5679C29.1284 55.1043 29.3213 55.7382 29.8035 56.0308ZM48.5138 56.0308C48.996 55.7382 49.1889 55.1043 48.8995 54.5679C48.6102 54.0802 47.9833 53.8852 47.4529 54.1777C46.9224 54.4703 46.7778 55.1043 47.0671 55.6407C47.3564 56.1771 47.9833 56.3234 48.5138 56.0308Z" fill="white"/>
<path d="M48.3212 55.6905C47.9836 55.8856 47.5978 55.788 47.405 55.4467C47.2121 55.1053 47.3085 54.7152 47.6461 54.5201C47.9836 54.3251 48.3694 54.4226 48.5623 54.764C48.707 55.1053 48.6105 55.4954 48.3212 55.6905Z" fill="white"/>
<path fill-rule="evenodd" clip-rule="evenodd" d="M33.2737 48.3279C33.2737 48.6204 33.4666 48.913 33.7559 49.0106C34.2381 49.2056 34.7203 49.2056 35.2026 49.0106C35.4919 48.913 35.6848 48.6204 35.6848 48.3279C35.6848 48.0353 35.4919 47.7914 35.2508 47.6451C35.0579 47.5476 34.8168 47.4501 34.6239 47.4013C34.3346 47.3525 34.0452 47.255 33.7559 47.2063C33.6112 47.1575 33.4666 47.1575 33.3219 47.1087C32.4539 47.0112 31.6823 46.6211 31.0072 46.0359C30.8626 45.8408 30.7179 45.6458 30.6214 45.4019C30.0428 44.0853 30.6214 42.5248 31.9234 41.8908C33.5148 41.1593 35.3472 41.1593 36.9386 41.8421C37.903 42.1834 38.5781 43.11 38.5781 44.134H35.8295C35.733 43.7439 35.3954 43.4025 35.0097 43.3538C34.6721 43.2562 34.2863 43.305 33.9488 43.4513C33.563 43.5976 33.3701 44.0365 33.5148 44.4266C33.7077 44.768 34.0935 45.0118 34.4792 45.1093C35.2508 45.2069 36.0223 45.4019 36.7939 45.6458C37.1315 45.6945 37.4208 45.8408 37.6619 46.0359C37.903 46.2309 38.1441 46.4748 38.2888 46.7674C39.0121 47.9865 38.6263 49.5958 37.4208 50.3272C35.9259 51.0587 34.1899 51.205 32.5986 50.7174C31.393 50.4735 30.525 49.4495 30.525 48.1816H33.2737V48.3279ZM47.8368 45.3532C47.7886 44.0853 47.1617 42.9637 46.1008 42.2809C44.6059 41.2081 42.5323 41.3056 41.1339 42.5248C40.3141 43.2562 39.7837 44.3291 39.7355 45.4507C39.5908 46.5723 39.7354 47.7427 40.1212 48.7667C40.5552 49.7421 41.4232 50.5223 42.4359 50.8637C43.4486 51.2538 44.5095 51.205 45.4739 50.6686C46.8241 50.0346 47.6921 48.718 47.8368 47.255H45.281C45.1363 47.7914 44.847 48.2303 44.4612 48.4742C43.6414 49.0106 42.677 48.4742 42.3395 47.255C41.9537 46.0359 42.3395 44.6217 43.1592 44.0853C43.979 43.5488 44.9435 44.0853 45.281 45.3044H47.8368V45.3532ZM44.1237 38.9649V33.0155C44.0272 32.1865 43.3521 31.6013 42.5323 31.6988C41.809 31.7476 41.2303 32.3816 41.1821 33.113V39.8427C42.1466 39.4038 43.111 39.1112 44.1237 38.9649ZM37.1315 39.7451V33.0643C37.1315 32.2353 36.4563 31.6013 35.6366 31.6013C34.9132 31.6013 34.3346 32.1377 34.1899 32.8205V39.0137C35.2026 39.1112 36.2152 39.355 37.1315 39.7451ZM51.5499 40.6717C50.3926 41.3544 48.9941 41.4032 47.7886 40.8667C45.9561 40.0865 43.8826 40.0865 42.0019 40.8667C41.0857 41.2569 40.1212 41.4032 39.1568 41.4032C38.1923 41.4032 37.2279 41.2569 36.3117 40.8667C34.431 40.1353 32.4057 40.1353 30.525 40.8667C29.3194 41.4032 27.921 41.3544 26.7637 40.6717L27.4388 39.5501C28.2586 39.989 29.223 40.0377 30.0428 39.6476V28.5291H34.1899V29.6019C34.3346 29.4556 34.4792 29.3093 34.6239 29.2118C36.4563 27.7001 39.1568 27.9439 40.6517 29.797C41.4232 28.8704 42.5806 28.2853 43.7861 28.2365C46.1972 28.139 48.2226 29.9921 48.3672 32.4303V39.6964C49.2352 40.0865 50.1997 40.0377 50.9712 39.5988L51.5499 40.6717Z" fill="white"/>
</g>
<defs>
<clipPath id="clip0_1238_664">
<rect width="217" height="79" fill="white"/>
</clipPath>
</defs>
</svg>
