<svg width="161" height="88" viewBox="0 0 161 88" fill="none" xmlns="http://www.w3.org/2000/svg">
<g clip-path="url(#clip0_1238_813)">
<path d="M14.7275 83.2164C16.7598 78.5102 21.4526 66.2061 22.2217 63.7112C22.3827 63.2826 22.487 62.8346 22.5322 62.3787C22.541 62.2149 22.5032 62.0519 22.4233 61.9089C22.3433 61.7658 22.2245 61.6485 22.0806 61.5707C21.6458 61.4555 21.1961 61.4077 20.7469 61.429C20.5422 61.429 20.3658 61.429 20.3658 61.2164C20.3658 61.0037 20.5775 60.9329 21.135 60.9329C22.5464 60.9329 24.1412 61.0392 24.5646 61.0392C24.7763 61.0392 26.2794 60.9329 27.2956 60.9329C27.6766 60.9329 27.8883 61.0037 27.8883 61.1809C27.8883 61.3581 27.7472 61.429 27.472 61.429C26.8823 61.4108 26.2989 61.5555 25.7854 61.8472C25.3338 62.1661 24.8116 62.7615 23.866 65.15C23.4778 66.1352 21.7489 70.3523 19.9424 74.6758C17.8254 79.8072 16.2376 83.6062 15.4331 85.3072C14.4522 87.4335 14.3111 87.9793 13.9583 87.9793C13.6054 87.9793 13.3655 87.4831 12.7022 85.7963L4.12821 64.2711C3.35902 62.3079 2.82976 61.918 1.60894 61.5707C1.1719 61.4684 0.723912 61.4207 0.275213 61.429C0.0705672 61.429 0 61.3227 0 61.1809C0 61.0392 0.345781 60.9329 0.910322 60.9329C2.58983 60.9329 4.57984 61.0392 5.00324 61.0392C5.42665 61.0392 6.92974 60.9329 8.25641 60.9329C8.88446 60.9329 9.20202 61.0037 9.20202 61.1809C9.20202 61.3581 9.09616 61.429 8.84918 61.429C8.40021 61.4134 7.9518 61.4733 7.52251 61.6062C7.3804 61.6592 7.25906 61.7567 7.17644 61.8844C7.09383 62.012 7.05434 62.163 7.06382 62.3149C7.26924 63.3185 7.58644 64.2957 8.00942 65.228L14.7275 83.2164Z" fill="white"/>
<path d="M40.5893 77.3124C40.5893 80.6861 40.5893 83.4644 40.7657 84.9387C40.8645 85.9593 41.0762 86.7318 42.1276 86.8736C42.6493 86.9486 43.1746 86.9959 43.7013 87.0153C43.913 87.0153 43.9836 87.1217 43.9836 87.228C43.9836 87.3343 43.8072 87.5044 43.419 87.5044C41.4996 87.5044 39.2908 87.4052 39.1144 87.4052C38.938 87.4052 36.7363 87.5044 35.6848 87.5044C35.3038 87.5044 35.1273 87.4406 35.1273 87.228C35.1273 87.0153 35.1979 87.0153 35.4096 87.0153C35.7638 87.0026 36.116 86.9551 36.4611 86.8736C37.1667 86.7318 37.3361 85.9593 37.4702 84.9387C37.6466 83.4644 37.6466 80.6861 37.6466 77.3124V71.1249C37.6466 65.6461 37.6466 64.661 37.576 63.534C37.5055 62.4071 37.1597 61.7409 36.3905 61.5707C36.0352 61.48 35.6703 61.4324 35.3038 61.429C35.1626 61.429 35.0215 61.3581 35.0215 61.2164C35.0215 61.0746 35.1979 60.9329 35.586 60.9329C36.7363 60.9329 38.945 61.0392 39.1144 61.0392C39.2838 61.0392 41.4996 60.9329 42.544 60.9329C42.9321 60.9329 43.1085 61.0037 43.1085 61.2164C43.1085 61.429 42.9674 61.429 42.8263 61.429C42.5321 61.4394 42.2394 61.475 41.9512 61.5353C41.0056 61.7054 40.7304 62.3079 40.6598 63.534C40.5893 64.7602 40.5893 65.6603 40.5893 71.1249V77.3124Z" fill="white"/>
<path d="M55.1743 71.1249C55.1743 65.6461 55.1743 64.661 55.1037 63.534C55.0331 62.4071 54.7579 61.7763 53.6006 61.5353C53.2096 61.4632 52.8127 61.4276 52.4151 61.429C52.2739 61.429 52.1328 61.3581 52.1328 61.2164C52.1328 61.0746 52.3092 60.9329 52.6903 60.9329C54.264 60.9329 56.3316 61.0392 56.5433 61.0392C56.755 61.0392 58.8861 60.9329 59.9376 60.9329C60.3187 60.9329 60.4951 61.0037 60.4951 61.2164C60.4951 61.429 60.3539 61.429 60.2128 61.429C59.9187 61.4398 59.626 61.4753 59.3378 61.5353C58.3992 61.7054 58.1169 62.3079 58.0464 63.534C57.9758 64.7602 57.9758 65.6603 57.9758 71.1249V73.2512H58.1169C58.7097 72.5849 65.0467 66.1139 66.3028 64.746C67.2837 63.7254 68.194 62.8111 68.194 62.2157C68.204 62.0646 68.1655 61.9143 68.0842 61.7867C68.003 61.6592 67.8832 61.5611 67.7424 61.507C67.566 61.4361 67.4248 61.3652 67.4248 61.2235C67.4248 61.0817 67.6012 60.9754 67.8482 60.9754C68.5539 60.9754 69.6265 61.0817 70.4663 61.0817C70.6427 61.0817 72.9573 60.9754 73.8324 60.9754C74.2134 60.9754 74.3546 61.0463 74.3546 61.2235C74.3546 61.4006 74.284 61.4715 74.0017 61.4715C73.3248 61.5059 72.6609 61.672 72.047 61.9606C70.6356 62.5914 69.8382 63.4702 68.2646 64.987C67.3895 65.8304 61.2995 71.8053 60.5656 72.6842C61.476 73.7048 68.7515 81.2602 70.1911 82.6068C73.1267 85.3497 73.7194 85.9097 75.406 86.6113C76.0957 86.8911 76.829 87.0471 77.5724 87.072C77.8194 87.072 78.0241 87.1429 78.0241 87.2847C78.0241 87.4264 77.8547 87.5611 77.2619 87.5611H75.4766C74.4957 87.5611 73.8324 87.5611 73.0561 87.4973C71.2072 87.3201 70.3322 86.5476 68.8221 85.371C67.2484 84.0669 59.8317 76.0224 58.1522 73.9457H57.9758V77.3124C57.9758 80.6861 57.9758 83.4644 58.1522 84.9387C58.2581 85.9593 58.4698 86.7318 59.5142 86.8736C59.9674 86.9471 60.4245 86.9944 60.8832 87.0153C61.0878 87.0153 61.1584 87.1217 61.1584 87.228C61.1584 87.3343 60.989 87.5044 60.6009 87.5044C58.8861 87.5044 56.8538 87.4052 56.5786 87.4052C56.3034 87.4052 54.264 87.5044 53.2196 87.5044C52.8314 87.5044 52.655 87.4406 52.655 87.228C52.655 87.0153 52.7256 87.0153 52.9373 87.0153C53.2916 87.003 53.6438 86.9555 53.9887 86.8736C54.6944 86.7318 54.8638 85.9593 55.0049 84.9387C55.1743 83.4644 55.1743 80.6861 55.1743 77.3124V71.1249Z" fill="white"/>
<path d="M89.2592 77.3124C89.2592 80.6861 89.2592 83.4644 89.4356 84.9387C89.5415 85.9593 89.7532 86.7318 90.7976 86.8736C91.3193 86.948 91.8446 86.9953 92.3712 87.0153C92.5829 87.0153 92.6535 87.1217 92.6535 87.228C92.6535 87.3343 92.4771 87.5044 92.096 87.5044C90.1695 87.5044 87.9678 87.4052 87.7914 87.4052C87.615 87.4052 85.4133 87.5044 84.3618 87.5044C83.9737 87.5044 83.7973 87.4406 83.7973 87.228C83.7973 87.0153 83.8678 87.0153 84.0795 87.0153C84.4338 87.003 84.786 86.9555 85.131 86.8736C85.8367 86.7318 86.006 85.9593 86.1472 84.9387C86.3165 83.4644 86.3165 80.6861 86.3165 77.3124V71.1249C86.3165 65.6461 86.3165 64.661 86.253 63.534C86.1895 62.4071 85.8296 61.7409 85.0604 61.5707C84.7051 61.48 84.3403 61.4324 83.9737 61.429C83.8325 61.429 83.6914 61.3581 83.6914 61.2164C83.6914 61.0746 83.8678 60.9329 84.2559 60.9329C85.4133 60.9329 87.615 61.0392 87.7843 61.0392C87.9537 61.0392 90.1625 60.9329 91.2139 60.9329C91.595 60.9329 91.7714 61.0037 91.7714 61.2164C91.7714 61.429 91.6303 61.429 91.4962 61.429C91.202 61.439 90.9092 61.4746 90.6212 61.5353C89.6755 61.7054 89.3933 62.3079 89.3227 63.534C89.2521 64.7602 89.2521 65.6603 89.2521 71.1249L89.2592 77.3124Z" fill="white"/>
<path d="M105.147 82.7259C105.218 85.6106 105.571 86.5249 106.516 86.8013C107.089 86.9402 107.677 87.0116 108.266 87.014C108.436 87.014 108.542 87.0848 108.542 87.2266C108.542 87.3683 108.337 87.503 107.914 87.503C105.916 87.503 104.519 87.4038 104.202 87.4038C103.884 87.4038 102.416 87.503 100.843 87.503C100.497 87.503 100.285 87.503 100.285 87.2266C100.285 86.9502 100.391 87.014 100.567 87.014C101.046 87.0111 101.521 86.9395 101.979 86.8013C102.854 86.5533 103.03 85.5397 103.03 82.3361V62.2002C103.03 60.8252 103.129 60.4424 103.411 60.4424C103.694 60.4424 104.286 61.215 104.639 61.5694C105.161 62.1647 110.376 67.8207 115.768 73.6183C119.233 77.3394 123.043 81.6274 124.165 82.7897L123.777 64.936C123.777 62.6467 123.502 61.8741 122.415 61.5977C121.85 61.485 121.276 61.4257 120.7 61.4205C120.453 61.4205 120.418 61.3142 120.418 61.1725C120.418 61.0307 120.7 60.9244 121.124 60.9244C122.704 60.9244 124.384 61.0307 124.765 61.0307C125.146 61.0307 126.303 60.9244 127.743 60.9244C128.124 60.9244 128.371 60.9244 128.371 61.1725C128.371 61.4205 128.23 61.4205 127.99 61.4205C127.704 61.4168 127.419 61.4525 127.143 61.5269C125.993 61.7678 125.852 62.5404 125.852 64.6525L125.781 85.2491C125.781 87.5668 125.711 87.744 125.464 87.744C125.217 87.744 124.758 87.3613 122.909 85.4972C122.528 85.1428 117.49 79.9759 113.778 75.9714C109.72 71.5771 105.768 67.1473 104.646 65.8857L105.147 82.7259Z" fill="white"/>
<path d="M155.539 78.5443C155.539 75.7092 155.362 75.3123 153.965 74.9225C153.571 74.8504 153.172 74.8148 152.772 74.8162C152.631 74.8162 152.49 74.7453 152.49 74.6035C152.49 74.4618 152.666 74.3271 153.055 74.3271C154.628 74.3271 156.83 74.4334 157.006 74.4334C157.183 74.4334 159.385 74.3271 160.436 74.3271C160.824 74.3271 160.993 74.398 160.993 74.6035C160.993 74.8091 160.859 74.8162 160.718 74.8162C160.424 74.8262 160.131 74.8617 159.843 74.9225C158.898 75.0997 158.615 75.695 158.545 76.9283C158.474 78.0481 158.474 79.1042 158.474 80.5784V84.5191C158.474 86.0997 158.474 86.1705 158.023 86.4186C155.786 87.6093 152.631 87.9991 150.606 87.9991C147.946 87.9991 142.978 87.6448 139.089 84.2356C136.972 82.3716 134.926 78.6151 134.926 74.2208C134.926 68.5932 137.657 64.6241 140.769 62.6538C143.881 60.6834 147.381 60.4424 150.077 60.4424C151.876 60.4784 153.669 60.6776 155.433 61.0378C156.362 61.2335 157.306 61.352 158.255 61.3922C158.601 61.3922 158.672 61.5694 158.672 61.704C158.502 63.3522 158.422 65.0085 158.432 66.6654C158.432 67.2253 158.361 67.3741 158.114 67.3741C157.867 67.3741 157.903 67.1615 157.867 66.8426C157.808 66.0266 157.567 65.2344 157.162 64.5249C156.287 63.1924 153.45 61.6899 148.941 61.6899C146.732 61.6899 144.107 61.9025 141.446 64.0146C139.421 65.6306 137.981 68.8271 137.981 72.9379C137.956 76.5373 139.281 80.0143 141.693 82.6763C142.894 83.8874 144.325 84.8445 145.901 85.4909C147.476 86.1373 149.165 86.46 150.867 86.4399C152.234 86.4952 153.596 86.2534 154.861 85.7311C155.086 85.6196 155.273 85.4436 155.399 85.2254C155.525 85.0072 155.583 84.7565 155.567 84.5049L155.539 78.5443Z" fill="white"/>
<path fill-rule="evenodd" clip-rule="evenodd" d="M56.9273 4.30921H62.0928C76.7426 14.806 82.8961 20.8163 81.8517 26.0611C80.6097 32.2061 72.9038 36.7422 56.9837 43.7802L54.7891 43.6597C72.9461 35.9767 79.396 29.6758 78.0764 24.5586C76.665 19.0515 71.2666 15.2667 56.9061 4.27377L56.9273 4.30921Z" fill="white"/>
<path fill-rule="evenodd" clip-rule="evenodd" d="M67.1249 4.26614H72.2269C87.3637 14.6495 91.2802 21.6096 88.9373 25.8125C84.915 33.1057 75.5859 37.7127 60.8514 43.6379L58.7344 43.7726C74.5909 36.9047 85.0984 31.0149 85.7124 24.558C86.2275 19.1643 81.6053 15.1811 67.1601 4.23779L67.1249 4.26614Z" fill="white"/>
<path fill-rule="evenodd" clip-rule="evenodd" d="M77.3145 4.30832H82.4095C97.1158 14.7342 99.4092 21.1343 96.2549 25.9965C91.4563 33.403 80.4759 37.8753 65.2051 43.8148H62.9258C81.979 35.9688 90.0026 31.5035 92.5642 25.8122C95.5774 19.1498 90.2919 14.3728 77.2651 4.30832H77.3145Z" fill="white"/>
<path fill-rule="evenodd" clip-rule="evenodd" d="M87.4945 4.30832H92.5824C106.357 15.9533 106.908 21.5313 103.923 25.72C98.7712 32.9352 83.0699 40.0867 69.2669 43.8148H66.9805C83.578 38.0029 95.1228 33.6653 100.105 25.635C103.633 19.9649 100.105 14.8405 87.4945 4.30832V4.30832Z" fill="white"/>
<path fill-rule="evenodd" clip-rule="evenodd" d="M97.6814 4.30832H102.769C111.237 13.1324 114.244 20.6878 111.237 25.7838C105.26 35.9546 85.7766 40.9088 73.3496 43.8148H71.0703C88.0065 39.1865 103.193 33.8921 107.42 25.7767C109.868 21.0493 108.443 14.9398 97.6814 4.30832Z" fill="white"/>
<path fill-rule="evenodd" clip-rule="evenodd" d="M118.139 15.6844C120.905 37.6135 100.314 41.5401 100.067 41.7527C98.7046 42.1921 95.642 42.9647 95.642 42.9647C83.1021 45.4666 65.6507 45.6296 56.6251 44.2475C46.9574 42.7662 40.3523 39.6122 38.8633 33.8287C46.1317 45.2965 80.9921 45.3532 99.3962 39.7469C111.301 35.4376 116.389 27.8468 116.248 16.5137C116.191 15.3371 116.156 12.3036 117.412 10.9286C119.141 9.03621 123.297 9.63866 123.664 12.5021C124.222 16.6412 118.591 16.705 118.823 13.3313C118.936 11.7012 121.547 11.042 122.034 12.7076C122.099 12.9458 122.091 13.1982 122.01 13.4315C121.93 13.6649 121.781 13.8685 121.584 14.0155C121.386 14.1626 121.149 14.2463 120.903 14.2558C120.658 14.2652 120.415 14.1999 120.207 14.0684C119.818 13.792 119.79 13.6077 119.938 13.3597C119.977 13.311 120.026 13.2717 120.081 13.2446C120.137 13.2176 120.198 13.2035 120.26 13.2035C120.321 13.2035 120.382 13.2176 120.438 13.2446C120.493 13.2717 120.542 13.311 120.581 13.3597C120.597 13.4159 120.626 13.4677 120.666 13.511C120.705 13.5544 120.754 13.5882 120.808 13.61C120.863 13.6318 120.921 13.641 120.979 13.6369C121.038 13.6329 121.094 13.6156 121.145 13.5865C121.625 13.3242 121.216 12.2256 120.221 12.5871C120.049 12.6905 119.905 12.8358 119.804 13.0096C119.702 13.1835 119.646 13.3802 119.641 13.5815C119.635 13.7829 119.68 13.9825 119.772 14.1617C119.863 14.341 119.998 14.4942 120.164 14.6071C122.359 15.649 123.396 12.9486 122.105 11.6445C121.889 11.4079 121.618 11.2291 121.316 11.1239C121.014 11.0187 120.691 10.9906 120.376 11.042C118.322 11.1483 118.019 13.4589 118.139 15.7057" fill="white"/>
<path fill-rule="evenodd" clip-rule="evenodd" d="M104.865 50.7386C104.865 50.7386 108.584 50.9371 114.371 48.2509C119.769 45.7347 131.37 36.9957 120.171 18.8655C119.91 22.0408 119.91 32.1052 110.292 38.8527C101.323 46.0041 62.7081 49.314 46.781 43.1052C40.1547 39.9158 38.8633 36.0743 38.8633 36.0743C38.8633 36.0743 40.1758 50.2496 46.5058 50.6323L104.865 50.7386Z" fill="white"/>
<path d="M121.989 46.4529C122.463 46.4487 122.928 46.5862 123.324 46.848C123.72 47.1097 124.03 47.4839 124.214 47.923C124.398 48.362 124.448 48.8462 124.358 49.3138C124.268 49.7815 124.041 50.2116 123.706 50.5495C123.372 50.8873 122.945 51.1177 122.48 51.2114C122.015 51.305 121.533 51.2577 121.094 51.0754C120.656 50.8931 120.282 50.584 120.019 50.1875C119.756 49.791 119.616 49.3249 119.617 48.8485C119.613 48.5338 119.671 48.2213 119.788 47.9295C119.905 47.6376 120.08 47.3723 120.301 47.1491C120.521 46.9258 120.785 46.7493 121.075 46.6297C121.364 46.5102 121.675 46.45 121.989 46.4529ZM121.989 46.8286C121.586 46.8073 121.185 46.9079 120.84 47.1173C120.494 47.3267 120.219 47.6354 120.05 48.0034C119.881 48.3714 119.826 48.7819 119.891 49.1819C119.957 49.5818 120.14 49.9529 120.418 50.2471C120.695 50.5413 121.054 50.7452 121.448 50.8324C121.842 50.9196 122.254 50.8862 122.629 50.7364C123.004 50.5866 123.325 50.3273 123.552 49.9921C123.779 49.6568 123.9 49.2609 123.901 48.8556C123.907 48.5963 123.863 48.3382 123.77 48.0961C123.677 47.8541 123.537 47.6329 123.359 47.4452C123.181 47.2575 122.967 47.1071 122.731 47.0025C122.494 46.8979 122.24 46.8412 121.981 46.8357L121.989 46.8286ZM121.544 50.2377H121.121V47.5444C121.368 47.5012 121.618 47.4799 121.869 47.4806C122.158 47.4601 122.446 47.5294 122.694 47.6791C122.778 47.7434 122.844 47.8277 122.887 47.9242C122.93 48.0207 122.949 48.1264 122.941 48.2319C122.941 48.3842 122.89 48.5319 122.795 48.6506C122.7 48.7692 122.567 48.8516 122.419 48.884V48.884C122.652 48.9265 122.814 49.1391 122.864 49.529C122.884 49.7564 122.942 49.9789 123.033 50.1881H122.588C122.484 49.9657 122.424 49.7249 122.412 49.4793C122.409 49.4095 122.391 49.3411 122.36 49.2786C122.329 49.2161 122.284 49.161 122.23 49.1168C122.177 49.0727 122.114 49.0404 122.047 49.0223C121.979 49.0042 121.909 49.0005 121.84 49.0116H121.544V50.2377ZM121.544 48.7635H121.847C122.2 48.7635 122.497 48.6359 122.497 48.3028C122.497 47.9697 122.327 47.835 121.847 47.835C121.746 47.8291 121.645 47.8291 121.544 47.835V48.7635Z" fill="white"/>
<path d="M104.639 3.80606H54.8887V4.51617H104.639V3.80606Z" fill="white"/>
<path d="M81.9693 0H81.2637V4.07539H81.9693V0Z" fill="white"/>
</g>
<defs>
<clipPath id="clip0_1238_813">
<rect width="161" height="88" fill="white"/>
</clipPath>
</defs>
</svg>
