<svg width="232" height="75" viewBox="0 0 232 75" fill="none" xmlns="http://www.w3.org/2000/svg">
<g clip-path="url(#clip0_1238_701)">
<path d="M53.3305 51.2401C53.6638 51.5719 54.6638 51.3728 55.7305 51.3728H63.9971L66.5305 51.3065C67.3971 51.3728 68.3305 51.2401 69.1971 51.041H69.2638H69.3305C70.1971 50.4436 70.5971 49.979 70.5971 49.448C70.5971 48.7843 69.8638 48.3861 67.6638 47.9879C66.1971 47.7224 64.8638 46.5277 63.7305 44.3374C62.5971 42.1472 60.9971 39.0277 58.9305 34.6472C57.1971 35.3772 55.5971 36.1737 53.9971 37.1693L56.0638 41.6826L56.5971 42.7445L57.9305 45.0675C58.2638 45.5985 58.4638 46.1958 58.5305 46.7932C58.5305 47.0587 58.3971 47.3241 58.2638 47.5233C58.1305 47.7887 57.8638 48.0542 57.5971 48.187C56.8638 48.4525 56.0638 48.5852 55.2638 48.5852C54.6638 48.6516 52.7305 48.7843 52.7305 50.1118C52.7971 50.6427 52.9971 50.9746 53.3305 51.2401Z" fill="white"/>
<path d="M25.2663 61.7248V62.123C24.3329 62.123 23.9329 62.3885 23.9329 63.2513C23.9329 64.1142 24.4663 65.1761 24.9329 66.3708L26.9996 71.5478L29.3996 64.9106L28.7329 63.3177C28.3329 62.3885 28.1329 62.2558 27.1996 62.2558V61.7248H32.1329V62.123C30.8663 62.123 30.5329 62.5213 30.5329 63.0522C30.5329 63.8487 31.7329 66.4372 33.4663 71.6142H33.5329C34.1329 70.0213 36.3329 64.6451 36.3329 63.1186C36.3329 62.3885 35.8663 62.1894 34.8663 62.123V61.7248H39.0663V62.123C38.3996 62.1894 37.7996 62.3221 37.3996 63.5168L33.1329 74.4018H32.8663C32.2663 72.1451 30.6663 68.4947 29.8663 65.8398H29.7996C28.7996 68.6274 27.5996 71.5478 26.5996 74.4018H26.3996L22.1996 63.7159C21.7329 62.4549 21.3996 62.123 20.5996 62.123V61.7248H25.2663Z" fill="white"/>
<path d="M33.1357 74.5368H32.669L32.6023 74.4041C32.0023 72.2802 30.5357 68.8952 29.7357 66.3067C28.8023 68.9616 27.669 71.7492 26.669 74.4041L26.6023 74.5368H26.2023L22.0023 63.7846C21.469 62.5236 21.3357 62.3244 20.5357 62.2581H20.4023V61.528H25.2023H25.4023V62.2581H25.2023C24.269 62.3244 24.069 62.4572 24.069 63.1873C24.069 64.0501 24.6023 65.0457 25.069 66.2404L27.0023 70.9528L29.269 64.7802L28.669 63.2537C28.269 62.3244 28.2023 62.3244 27.3357 62.2581H27.2023V61.528H32.469V62.2581H32.269C31.0023 62.2581 30.8023 62.5899 30.8023 62.9882C30.8023 63.6519 31.9357 66.174 33.5357 71.1519C34.269 69.2271 36.2023 64.382 36.2023 63.1209C36.2023 62.4572 35.869 62.3908 34.869 62.2581H34.7357V61.528H39.269V62.2581H39.1357C38.469 62.3244 38.069 62.3908 37.6023 63.5191L33.269 74.4705L33.1357 74.5368ZM33.0023 74.205L37.2023 63.4528C37.6023 62.3244 38.2023 62.059 38.869 61.9926V61.9262H35.0023V61.9926C35.869 62.059 36.469 62.3244 36.469 63.1209C36.469 64.7138 34.269 70.0236 33.6023 71.6829L33.5357 71.8156H33.269L33.3357 71.6829C31.669 66.4395 30.469 63.9837 30.4023 63.0545C30.4023 62.4572 30.869 62.059 32.0023 61.9926V61.9262H27.4023V61.9926C28.2023 61.9926 28.6023 62.3244 28.9357 63.1873L29.6023 64.8466L27.0023 71.9483L24.7357 66.3731C24.269 65.1784 23.7357 64.1829 23.7357 63.1873C23.669 62.789 23.8023 62.4572 24.069 62.1917C24.3357 61.9926 24.669 61.9262 25.0023 61.9262V61.8598H20.7357V61.9262C21.469 61.9926 21.869 62.4572 22.3357 63.5855L26.469 74.0722C27.469 71.2846 28.669 68.4306 29.6023 65.7094L29.669 65.5767H29.9357L30.0023 65.7094C30.7357 68.3643 32.3357 71.9483 33.0023 74.205Z" fill="white"/>
<path d="M51.665 69.3573L50.7983 71.6139C50.5983 72.0121 50.465 72.4767 50.465 72.9413C50.465 73.605 50.9316 73.8042 51.7316 73.8705V74.2688H47.9316V73.8705C49.1983 73.7378 49.5316 73.2732 51.1316 69.3573L52.665 65.4413C52.9316 64.844 53.1316 64.2466 53.3316 63.5829C53.3316 63.4502 53.3316 63.3174 53.3983 63.2511L54.265 61.9236C54.3983 61.7245 54.465 61.6581 54.5983 61.6581C54.9316 61.6581 54.9316 62.2555 55.465 63.7157L58.465 71.282C59.3983 73.605 59.5983 73.8042 60.865 73.9369V74.3351H55.9983V73.9369C57.065 73.8042 57.3316 73.605 57.3316 73.2068C57.3316 72.7422 57.1983 72.2776 56.9983 71.8794L56.065 69.4236L51.665 69.3573ZM55.865 68.8263L54.1316 64.4458C53.9983 64.1139 53.9316 63.782 53.865 63.5829H53.7983C53.5316 64.3794 52.9983 65.7732 52.7983 66.1714L51.7983 68.8263H55.865V68.8263Z" fill="white"/>
<path d="M55.8675 74.4033V73.6732H56.0008C57.0674 73.5405 57.2008 73.4077 57.2008 73.1423C57.2008 72.6777 57.0675 72.2794 56.8675 71.8812L56.0008 69.5582H51.8008L51.0008 71.7485C50.8008 72.1467 50.6674 72.5449 50.6674 73.0095C50.6674 73.5405 51.0008 73.7396 51.8008 73.7396H51.9341V74.4697H47.8008V73.6732H47.9341C49.1341 73.5405 49.4008 73.2086 51.0008 69.2263L52.5341 65.3104C52.8008 64.7131 53.0008 64.1157 53.2008 63.5184C53.2008 63.3856 53.2674 63.1865 53.3341 63.0538L54.2008 61.7263C54.2675 61.5272 54.4674 61.3945 54.6674 61.3945C55.0008 61.3945 55.0675 61.66 55.2008 61.9918C55.3341 62.3237 55.4674 62.8546 55.7341 63.5847L58.7341 71.1511C59.6674 73.4741 59.8008 73.5405 61.0008 73.6732H61.1341V74.4033H55.8675ZM56.2008 74.0715H60.8008V74.0051C59.6674 73.8723 59.2674 73.4741 58.4008 71.2839L55.4008 63.7175C55.1341 62.9874 55.0008 62.4564 54.8675 62.1246C54.7341 61.7927 54.7341 61.7927 54.6674 61.7927C54.6008 61.7927 54.6008 61.7927 54.4674 61.9254L53.6008 63.2529C53.5341 63.3856 53.5341 63.3192 53.5341 63.5184C53.4008 64.1821 53.1341 64.8458 52.8675 65.4431L51.3341 69.3591C49.8674 73.1423 49.4008 73.806 48.1341 74.0051V74.0715H51.6008V74.0051C50.8675 73.9387 50.3341 73.6069 50.3341 72.9431C50.3341 72.4785 50.4674 72.0139 50.7341 71.5493L51.6008 69.2927L51.6674 69.16H56.3341L57.3341 71.6821C57.5341 72.1467 57.6008 72.6113 57.6674 73.0759C57.5341 73.6732 57.1341 73.9387 56.2008 74.0715ZM51.6674 68.9608L52.7341 66.1069C52.8674 65.7086 53.4674 64.3148 53.6674 63.5184L53.7341 63.3856H54.0008L54.0674 63.5184C54.1341 63.7175 54.2008 64.0493 54.3341 64.3812L56.0674 68.7617L55.9341 68.8281L56.0674 68.7617L56.1341 68.9608H51.6674V68.9608ZM53.0674 66.2396L52.1341 68.629H55.6674L54.0674 64.5139C54.0008 64.3812 53.9341 64.2485 53.9341 64.1157C53.6675 64.8458 53.2674 65.9077 53.0674 66.2396Z" fill="white"/>
<path d="M84.3352 61.3272V64.6458H84.0685C83.6018 62.8538 82.7352 62.5219 80.6685 62.5219C79.0018 62.5219 78.8685 62.5883 78.8685 64.2476C78.8685 66.106 78.6685 70.9511 78.6685 72.0795C78.6685 73.4733 79.0685 73.7387 80.6685 73.8715V74.2697H74.9352V73.8715C76.8018 73.8715 77.0018 73.606 77.0018 72.0795C77.0018 70.9511 77.2018 66.106 77.2018 64.2476C77.2018 62.6547 77.1352 62.5883 75.6018 62.5883C73.5352 62.5883 72.6018 63.3184 72.0018 64.6458H71.5352L72.4018 61.3272H72.8018C73.2685 61.7918 73.8685 62.0573 74.5352 61.991H82.0018C83.2685 61.991 83.4018 61.8582 84.0018 61.3272H84.3352V61.3272Z" fill="white"/>
<path d="M74.8004 74.4038V73.6737H75.0004C76.8671 73.6073 76.8671 73.5409 76.9337 72.0807C76.9337 70.9524 77.1337 66.1073 77.1337 64.2489C77.1337 63.4524 77.0671 63.0542 76.9337 62.9215C76.8004 62.7887 76.4671 62.7223 75.6671 62.7223C73.6004 62.7223 72.8004 63.3861 72.2004 64.6471L72.1337 64.7135H71.4004L72.3337 61.063H72.9337L73.0004 61.1294C73.4004 61.594 74.0004 61.7931 74.6004 61.7268H82.0671C83.3337 61.7268 83.3337 61.6604 83.9337 61.1294L84.0004 61.063H84.3337H84.5337V64.7135H83.9337V64.5808C83.4671 62.8551 82.7337 62.5896 80.6671 62.5896C79.0004 62.656 79.0671 62.4569 79.0004 64.1825C79.0004 66.0409 78.8004 70.8861 78.8004 72.0144C78.8671 73.3418 79.0004 73.4746 80.6671 73.6073H80.8004V74.3374L74.8004 74.4038ZM75.1337 74.0719H80.4671V74.0055C78.9337 73.9392 78.4004 73.4082 78.4671 72.0807C78.4671 70.9524 78.6671 66.1073 78.6671 64.2489C78.6671 63.3861 78.6671 62.9215 79.0004 62.656C79.3337 62.3905 79.8004 62.3905 80.6671 62.3905C82.6671 62.3905 83.6671 62.7223 84.2004 64.448V61.5276H84.1337C83.6004 61.9923 83.2671 62.1914 82.0671 62.1914H74.6004C73.9337 62.2577 73.2671 61.9923 72.8004 61.5276H72.6004L71.8671 64.5144H72.0004C72.6671 63.2533 73.6671 62.4569 75.7337 62.4569C76.4671 62.4569 76.9337 62.4569 77.2004 62.7223C77.4671 63.0542 77.4671 63.4524 77.4671 64.2489C77.4671 66.1073 77.2671 70.9524 77.2671 72.0807C77.2671 72.8108 77.2004 73.3418 76.8671 73.6737C76.3337 74.0055 75.8004 74.1383 75.2004 74.0055L75.1337 74.0719Z" fill="white"/>
<path d="M96.8008 73.8708C98.4008 73.8708 98.6675 73.6053 98.6675 72.0788C98.7341 69.4903 98.7341 66.769 98.7341 63.9151C98.7341 62.3885 98.4675 62.123 97.0008 62.123V61.7248H106.601L107.001 63.9814H106.667C105.734 62.8531 105.201 62.1894 103.334 62.1894H101.601C100.601 62.1894 100.401 62.2558 100.401 62.9859V67.3H102.467C104.201 67.3 104.334 67.0345 104.667 65.5744H105.134V69.8885H104.667C104.467 68.362 104.134 67.9637 102.667 67.9637H100.467V72.9416C100.467 73.6053 100.801 73.8044 101.734 73.8044H104.334C106.201 73.8044 106.601 73.4726 107.867 71.3487H108.267C108.067 71.8797 107.734 73.539 107.601 74.269H96.8675L96.8008 73.8708Z" fill="white"/>
<path d="M96.666 74.4045V73.6744H96.866C98.466 73.608 98.466 73.5417 98.5327 72.0815C98.5994 69.493 98.5993 66.7717 98.5993 63.9178C98.5327 62.3912 98.5327 62.3912 96.9993 62.3248H96.7993V61.5948H106.666L107.133 64.1832H106.533L106.466 64.1169C105.533 62.9886 105.066 62.3912 103.266 62.3912H101.533C101.266 62.3248 100.933 62.3912 100.666 62.524C100.599 62.5903 100.533 62.7231 100.533 63.0549V67.17H102.399C104.066 67.1036 104.066 67.0372 104.399 65.5771V65.4443H105.133V70.0903H104.399V69.9576C104.133 68.431 103.999 68.2319 102.599 68.1655H100.666V72.9443C100.666 73.5417 100.799 73.5417 101.799 73.608H104.399C106.266 73.608 106.466 73.3425 107.799 71.2187L107.866 71.1523H108.599L108.533 71.3514C108.333 71.816 107.999 73.5417 107.866 74.2717V74.4045H96.666ZM96.9993 74.0726H107.466C107.599 73.3425 107.866 72.0815 108.066 71.4841H107.999C106.799 73.5417 106.266 74.0063 104.399 73.9399H101.799C101.399 74.0063 101.066 73.9399 100.733 73.7408C100.466 73.5417 100.333 73.2762 100.399 72.9443V67.8337H102.733C104.133 67.7673 104.666 68.2983 104.866 69.7585H104.999V65.7762H104.866C104.599 67.1036 104.199 67.5682 102.533 67.5018H100.333V63.0549C100.333 62.7231 100.399 62.4576 100.599 62.2585C100.933 62.1257 101.266 62.0594 101.666 62.0594H103.399C105.266 62.0594 105.933 62.7231 106.799 63.8514H106.866L106.533 61.9266H97.266V61.993C97.7327 61.9266 98.266 62.0594 98.666 62.3912C98.9993 62.8558 99.1327 63.3868 98.9993 63.9841C98.9993 66.8381 98.9327 69.5594 98.9327 72.1479C98.9327 72.8779 98.866 73.4089 98.5327 73.7408C98.1327 74.0726 97.5994 74.2054 97.066 74.139L96.9993 74.0726Z" fill="white"/>
<path d="M120.334 73.8708C121.734 73.8708 122.001 73.6053 122.001 72.0788C122.001 69.1584 122.067 66.7027 122.067 63.9151C122.067 62.3885 121.801 62.123 120.601 62.123V61.7248H124.467C127.667 61.7248 129.801 62.7204 129.801 64.977C129.801 67.2336 127.467 67.831 126.867 67.9637L130.134 72.8089C130.467 73.4726 131.134 73.8708 131.867 73.8708V74.269H129.667C129.467 74.269 129.267 74.2027 128.867 73.539L125.467 68.2956H123.734V72.1451C123.734 73.6717 124.001 73.9372 125.467 73.9372V74.3354H120.401L120.334 73.8708ZM123.667 67.7646C126.667 67.7646 127.934 67.1673 127.934 64.9106C127.934 63.1186 126.467 62.1894 124.934 62.1894C123.801 62.1894 123.601 62.4549 123.601 63.185L123.667 67.7646Z" fill="white"/>
<path d="M128.666 73.608L125.333 68.431H123.866V72.0814C123.933 73.608 123.933 73.608 125.399 73.6744H125.599V74.4045H120.199V73.6744H120.399C121.799 73.608 121.866 73.5416 121.933 72.0814C121.933 69.493 121.999 67.2363 121.999 64.8469C121.999 64.5151 121.999 64.2496 121.999 63.9177C121.933 62.3912 121.866 62.3912 120.733 62.3248H120.533V61.5947H124.533C127.733 61.5947 130.066 62.5903 130.066 64.9797C130.066 67.1036 128.066 67.8337 127.199 68.0328L130.333 72.6788C130.599 73.2761 131.199 73.6744 131.933 73.6744H132.066V74.4045H129.666C129.399 74.4045 129.066 74.2717 128.666 73.608ZM125.466 68.0991L128.933 73.4089C129.399 74.0726 129.533 74.0726 129.599 74.0726H131.666V74.0062C130.933 73.9399 130.333 73.4753 129.999 72.8779L126.599 67.9L126.866 67.8337C127.466 67.7009 129.666 67.1036 129.666 65.0461C129.666 62.9222 127.666 61.993 124.466 61.993H120.799V62.0593C121.199 61.993 121.666 62.1257 121.933 62.4576C122.199 62.9222 122.333 63.4531 122.266 63.9841C122.266 64.316 122.266 64.5815 122.266 64.9133C122.266 67.3027 122.199 69.5593 122.199 72.1478C122.266 72.6788 122.133 73.2761 121.866 73.7407C121.466 74.0726 120.999 74.2053 120.533 74.139V74.2053H125.266V74.139C124.799 74.2053 124.266 74.0726 123.866 73.7407C123.533 73.2761 123.399 72.7452 123.533 72.1478V68.1655L125.466 68.0991ZM123.466 67.9664V63.254C123.399 62.9222 123.533 62.5903 123.799 62.3248C124.133 62.1257 124.599 61.993 124.999 62.0593C126.599 62.0593 128.133 63.0549 128.133 64.9797C128.133 66.108 127.799 66.9045 127.066 67.3691C126.333 67.8337 125.199 67.9664 123.733 67.9664H123.466ZM123.799 63.254V67.6345C126.733 67.5682 127.733 67.0372 127.733 64.9797C127.733 63.254 126.399 62.4576 124.933 62.3912C123.866 62.4576 123.866 62.5239 123.799 63.254Z" fill="white"/>
<path d="M146.534 61.7249V62.1231C145.6 62.1231 145.2 62.3886 145.2 63.2515C145.2 64.1143 145.734 65.1762 146.2 66.3709L148.267 71.5479L150.667 64.9108L150 63.3178C149.6 62.3886 149.4 62.2559 148.467 62.2559V61.7249H153.4V62.1231C152.134 62.1231 151.8 62.5214 151.8 63.0523C151.8 63.8488 153 66.4373 154.734 71.6143H154.8C155.4 70.0214 157.6 64.6453 157.6 63.1187C157.6 62.3886 157.134 62.1895 156.134 62.1231V61.7249H160.334V62.1231C159.667 62.1895 159.067 62.3223 158.667 63.5169L154.4 74.4019H154.134C153.534 72.1453 151.934 68.4948 151.134 65.84H151.067C150.067 68.6276 148.867 71.5479 147.867 74.4019H147.667L143.534 63.7161C143.067 62.455 142.734 62.1231 141.934 62.1231V61.7249H146.534Z" fill="white"/>
<path d="M154.401 74.5372H154.001V74.4045C153.401 72.2806 151.934 68.8956 151.134 66.3071C150.201 68.962 149.067 71.7496 148.067 74.4045L148.001 74.5372H147.601L143.401 63.785C142.867 62.5239 142.734 62.3248 141.934 62.3248H141.801V61.5947H146.601H146.801V62.3248H146.601C145.667 62.3912 145.467 62.5239 145.467 63.254C145.467 64.1169 146.001 65.1124 146.467 66.3071L148.334 71.0195L150.601 64.8469L150.001 63.3204C149.601 62.3912 149.534 62.3912 148.667 62.3248H148.534V61.5947H153.801V62.3248H153.601C152.334 62.3248 152.134 62.6567 152.134 63.0549C152.134 63.7186 153.267 66.2407 154.867 71.2186C155.601 69.2938 157.534 64.4487 157.534 63.1876C157.534 62.5239 157.201 62.4576 156.201 62.3248H156.067V61.5947H160.601V62.3248H160.467C159.801 62.3912 159.401 62.4576 158.934 63.5859L154.601 74.5372H154.401ZM154.334 74.2053L158.534 63.4531C158.934 62.3248 159.534 62.0593 160.201 61.993V61.9266H156.334V61.993C157.201 62.0593 157.801 62.3248 157.801 63.1213C157.801 64.7142 155.601 70.0239 154.934 71.6832L154.867 71.816H154.667V71.6832C153.001 66.4399 151.801 63.9177 151.734 63.0549C151.734 62.4576 152.201 62.0593 153.334 61.993V61.9266H148.734V61.993C149.534 61.993 149.934 62.3248 150.267 63.1876L150.934 64.8469L148.334 71.9487L146.067 66.3735C145.601 65.1788 145.067 64.1832 145.067 63.1876C145.001 62.7894 145.134 62.4576 145.401 62.1921C145.667 61.993 146.001 61.9266 146.334 61.9266V61.8602H142.067V61.9266C142.801 61.993 143.201 62.4576 143.667 63.5859L147.801 74.0726C148.801 71.285 150.001 68.431 150.934 65.7098L151.001 65.577H151.267V65.7098C152.067 68.3646 153.601 71.9487 154.334 74.2053Z" fill="white"/>
<path d="M172.999 69.3572L172.132 71.6138C171.932 72.012 171.799 72.4766 171.799 72.9412C171.799 73.605 172.266 73.8041 173.066 73.8704V74.2687H169.266V73.8704C170.532 73.7377 170.866 73.2731 172.466 69.3572L173.999 65.4412C174.266 64.8439 174.466 64.2465 174.666 63.5828C174.666 63.4501 174.666 63.3173 174.732 63.251L175.599 61.9235C175.732 61.7244 175.799 61.6581 175.932 61.6581C176.266 61.6581 176.266 62.2554 176.799 63.7156L179.799 71.2819C180.732 73.605 180.932 73.8041 182.199 73.9368V74.335H177.332V73.9368C178.399 73.8041 178.666 73.605 178.666 73.2067C178.666 72.7421 178.532 72.2775 178.332 71.8793L177.399 69.4235L172.999 69.3572ZM177.199 68.8262L175.466 64.4457C175.332 64.1138 175.266 63.7819 175.199 63.5828H175.132C174.866 64.3793 174.332 65.7731 174.132 66.1713L173.132 68.8262H177.199V68.8262Z" fill="white"/>
<path d="M177.133 74.4033V73.6732H177.266C178.333 73.5405 178.466 73.4077 178.466 73.1423C178.466 72.6777 178.333 72.2794 178.133 71.8812L177.266 69.5582H173.066L172.266 71.7485C172.066 72.1467 171.933 72.5449 171.933 73.0095C171.933 73.5405 172.266 73.6732 173.066 73.7396H173.2V74.4697H169.066V73.6732H169.2C170.4 73.5405 170.666 73.2086 172.266 69.2263L173.8 65.3104C174.066 64.7131 174.266 64.1157 174.466 63.5184C174.466 63.3856 174.466 63.1865 174.6 63.0538L175.466 61.7263C175.533 61.5272 175.733 61.3945 175.933 61.3945C176.266 61.3945 176.333 61.66 176.466 61.9918C176.6 62.3237 176.733 62.8546 177 63.5847L179.933 71.1511C180.866 73.4741 181 73.5405 182.2 73.6732H182.333V74.4033H177.133ZM177.466 74.0715H182.066V74.0051C180.933 73.8723 180.533 73.4741 179.666 71.2839L176.733 63.7175C176.466 62.9874 176.333 62.4564 176.2 62.1246C176.066 61.7927 176.066 61.7927 176 61.7927C175.933 61.7927 175.933 61.7927 175.8 61.9918L174.933 63.3193C174.866 63.452 174.866 63.3856 174.866 63.5847C174.733 64.2485 174.466 64.9122 174.2 65.5095L172.666 69.4254C171.2 73.2086 170.733 73.8723 169.466 74.0715V74.1378H172.933V74.0715C172.2 74.0051 171.6 73.6732 171.666 73.0095C171.666 72.5449 171.8 72.0803 172 71.6157L172.866 69.3591L172.933 69.2263H177.6L178.6 71.7485C178.8 72.2131 178.866 72.6777 178.933 73.1423C178.866 73.6732 178.466 73.9387 177.466 74.0715ZM173 68.9608L174.066 66.1069C174.2 65.7086 174.8 64.3148 175.066 63.5184V63.3856H175.333V63.5184C175.4 63.7175 175.466 64.0493 175.6 64.3812L177.333 68.7617L177.2 68.8281L177.333 68.7617L177.4 68.9608H173V68.9608ZM174.4 66.2396L173.466 68.629H177L175.333 64.5139C175.266 64.3812 175.2 64.2485 175.2 64.1157C174.933 64.8458 174.533 65.9077 174.4 66.2396Z" fill="white"/>
<path d="M196.667 61.7249V62.1231C195.801 62.1231 195.401 62.3886 195.401 62.7205C195.401 63.3178 196.201 64.3798 198.334 67.8311C200.467 64.4462 201.334 63.5833 201.334 62.7869C201.334 62.3223 201.067 62.1231 200.267 62.1231V61.7249H203.934V62.1231C203.267 62.1895 202.801 62.3886 201.867 63.7161L198.601 68.3621V72.0125C198.601 73.6718 198.867 73.7382 200.601 73.8046V74.2028H194.867V73.8046C196.601 73.8046 196.867 73.7382 196.867 72.0125V68.3621L193.534 63.3842C192.867 62.3886 192.534 62.2559 191.867 62.1231V61.7249H196.667Z" fill="white"/>
<path d="M194.668 74.4015V73.6714H194.868C196.668 73.6051 196.668 73.7378 196.735 72.0785V68.4281L193.401 63.5166C192.735 62.521 192.468 62.521 191.801 62.3219H191.668V61.6582H196.668H196.868V62.3883H196.668C195.801 62.3883 195.601 62.5874 195.601 62.7865C195.601 63.2511 196.335 64.313 198.335 67.5653C200.401 64.3794 201.201 63.5166 201.135 62.8529C201.135 62.521 201.001 62.3883 200.268 62.3883H200.068V61.6582H204.068V62.3883H204.001C203.401 62.4546 203.001 62.5874 202.001 63.9148L198.735 68.5608V72.2113C198.801 73.8706 198.801 73.7378 200.601 73.8042H200.801V74.5343L194.668 74.4015ZM195.001 74.0697H200.401V74.0033C199.868 74.0697 199.268 73.9369 198.801 73.6714C198.468 73.3396 198.401 72.875 198.401 72.0122V68.3617L201.735 63.6493C202.601 62.3883 203.135 62.1228 203.801 61.99V61.9237H200.468V61.99C200.735 61.99 201.001 62.0564 201.201 62.1891C201.401 62.3219 201.535 62.5874 201.535 62.8529C201.535 63.7821 200.668 64.5785 198.535 67.9635L198.401 68.1626L198.268 67.9635C196.135 64.5785 195.335 63.5166 195.335 62.7865C195.335 62.3219 195.801 62.0564 196.601 62.0564V61.99H192.001V62.0564C192.735 62.1891 193.335 62.7201 193.668 63.3838L197.001 68.3617V72.1449C197.001 73.0077 196.935 73.4723 196.601 73.8042C196.068 74.0697 195.535 74.136 195.001 74.0697L194.935 74.136L195.001 74.0697Z" fill="white"/>
<path d="M222.4 64.7774H222.066C221.466 62.9853 220.466 61.9234 219.133 61.9234C218.133 61.9234 216.8 62.5871 216.8 64.0473C216.8 67.3659 223.333 66.7022 223.333 70.6181C223.333 72.211 221.866 74.3349 218.866 74.3349C218 74.3349 216 74.0694 215.6 73.7376C215.2 73.4057 215.133 71.2154 215.066 70.5517H215.4C215.733 71.3482 216.666 73.9367 219.066 73.9367C220.4 73.9367 221.933 73.1402 221.933 71.4146C221.933 67.8305 215.4 68.9588 215.4 64.7774C215.4 63.1845 216.6 61.5252 219.533 61.5252C220.533 61.4588 221.6 61.6579 222.466 62.1225L222.4 64.7774Z" fill="white"/>
<path d="M215.399 73.9378C215.132 73.4732 214.932 72.9423 214.932 72.3449C214.865 71.6812 214.865 70.9511 214.799 70.6193V70.4201H215.399L215.465 70.5529C215.732 71.3493 216.732 73.8715 218.999 73.8051C220.332 73.8051 221.665 73.075 221.665 71.4821C221.665 69.8228 220.132 69.2255 218.465 68.5617C216.865 67.898 215.132 67.0352 215.132 64.9113C215.132 63.252 216.399 61.46 219.465 61.46C220.532 61.3936 221.532 61.6591 222.465 62.0573L222.532 62.1237V65.044H221.932L221.865 64.9113C221.265 63.1193 220.332 62.1901 219.065 62.1901C217.932 62.1237 216.932 63.0529 216.865 64.1812C216.865 65.7077 218.399 66.3715 220.065 67.1016C221.665 67.8316 223.399 68.6945 223.399 70.752C223.399 72.4113 221.865 74.6016 218.732 74.6016C217.865 74.6016 215.865 74.4024 215.399 73.9378ZM215.265 72.2785C215.265 72.7432 215.399 73.2078 215.599 73.6724C215.865 74.0042 217.932 74.2697 218.799 74.2697C221.732 74.2697 223.132 72.2122 223.132 70.752C223.132 68.8936 221.599 68.1635 219.932 67.367C218.332 66.637 216.599 65.9732 216.599 64.1812C216.665 62.8538 217.799 61.8582 219.132 61.8582C220.532 61.8582 221.599 62.9201 222.199 64.7122V62.3892C221.332 61.9909 220.332 61.7918 219.399 61.8582C216.532 61.8582 215.399 63.4511 215.399 64.9777C215.399 66.9688 216.932 67.6325 218.599 68.3626C220.199 69.0263 221.932 69.6901 221.932 71.6148C221.932 73.4732 220.332 74.2697 218.932 74.2697C216.465 74.2697 215.465 71.8139 215.132 70.8847C215.132 71.1502 215.199 71.7476 215.265 72.2785Z" fill="white"/>
<path d="M80.6008 21.0389V21.9681C77.1341 21.9681 76.6008 22.9637 76.6008 24.3575C76.6008 26.3486 80.0008 32.8531 84.5341 44.9327C87.8675 37.1672 92.5341 27.4106 92.5341 24.9548C92.5341 23.1628 91.3341 22.2336 88.6675 22.0345V21.1053H98.4675V22.0345C96.4675 22.4327 95.6008 22.9637 93.7341 26.946C90.4008 34.0477 85.6675 44.0699 83.6008 50.2424H82.8675L72.2008 24.2911C71.7341 22.8309 70.3341 21.9017 68.8008 22.0345V21.1053L80.6008 21.0389Z" fill="white"/>
<path d="M95.666 48.9154C98.5993 48.5835 99.3993 47.5216 102.933 38.495L106.466 29.4021C107.199 27.411 107.999 25.6189 107.999 25.1543C107.933 24.8888 108.066 24.557 108.199 24.3579L110.199 21.3048C110.533 20.8402 110.666 20.7738 110.933 20.7738C111.733 20.7738 111.666 22.1012 112.933 25.4862L119.733 42.9419C121.799 48.1853 122.333 48.7827 125.133 48.9818V49.911H113.999V48.9818C116.466 48.7827 117.066 48.2517 117.066 47.3225C116.999 46.2605 116.733 45.1986 116.333 44.2694L114.199 38.6278H104.133L102.199 43.8048C101.599 45.3313 101.399 45.995 101.399 46.8579C101.399 48.3844 102.466 48.9154 104.333 48.9818V49.911H95.666V48.9154V48.9154ZM113.733 37.3004L109.866 27.2782C109.599 26.5481 109.333 25.7517 109.199 25.2871H109.133C108.599 27.0791 107.266 30.3313 106.933 31.2605L104.599 37.3004H113.733Z" fill="white"/>
<path d="M156.202 42.8111L154.736 50.1784L151.002 49.9129C149.802 49.8465 148.536 49.8465 147.269 49.8465H129.936V48.9173C133.869 48.9173 134.402 48.2536 134.402 44.8686V26.0854C134.402 22.6341 133.869 22.0368 130.669 22.0368V21.1076H142.736V22.0368C138.869 22.0368 138.336 22.7005 138.336 26.0854V44.8686C138.336 48.1208 138.869 48.7846 141.869 48.7846H144.802C148.536 48.7846 152.536 47.7226 155.136 42.8775L156.202 42.8111Z" fill="white"/>
<path d="M190.265 35.4415C190.265 44.0035 184.265 50.1761 175.332 50.1761C166.398 50.1761 160.398 44.0035 160.398 35.4415C160.398 26.8796 166.398 20.707 175.332 20.707C184.265 20.707 190.265 26.8796 190.265 35.4415ZM164.532 35.4415C164.532 44.0035 167.932 49.2469 175.332 49.2469C182.732 49.2469 186.132 44.0035 186.132 35.4415C186.132 26.8796 182.732 21.6362 175.332 21.6362C167.932 21.6362 164.532 26.8796 164.532 35.4415Z" fill="white"/>
<path d="M195.065 48.915C197.932 48.5832 198.932 48.1186 198.932 44.2026V26.1495C198.932 22.7646 197.399 22.2336 194.332 21.9681V21.0389H201.465C204.999 25.2867 219.799 41.1495 221.932 43.5389C222.065 38.1628 222.132 30.3973 222.132 26.0832C222.132 23.0301 221.332 22.3663 217.932 21.9681V21.0389H227.665V21.9681C224.399 22.3663 223.532 23.0301 223.532 26.0832C223.532 27.7424 223.199 41.946 222.932 49.7778C222.599 49.7778 222.199 49.7115 222.132 49.5787C219.799 46.061 207.465 34.2469 200.465 25.3531H200.332V44.1363C200.332 48.0522 201.332 48.5168 204.199 48.8486L204.399 49.7778H195.065V48.915Z" fill="white"/>
<path d="M28.4669 29.8008L37.0003 13.7388L40.0003 7.89813L41.2003 10.6857C41.8669 12.0795 43.0003 14.3362 44.2003 16.7919C45.4669 19.3141 46.8003 21.9689 47.5336 23.4955L48.0669 24.6902C50.0003 24.3583 51.9336 24.0928 53.8669 24.0928L50.3336 16.3937L44.6003 3.9822C44.1336 2.85388 43.4669 1.8583 42.6669 0.929101C42.1336 0.398127 41.4669 0.0662689 40.7336 0.0662689C40.0669 0.0662689 39.4003 0.464499 39.0669 1.06184L28.7336 21.1725V21.2388C28.6003 21.5043 26.6669 25.4203 25.4003 27.9424L20.9336 36.1061C22.5336 35.4424 24.2669 34.5795 26.4003 33.4512L28.4669 29.8008Z" fill="white"/>
<path d="M36.6689 37.8973C57.3355 26.8796 69.0022 31.5256 63.5355 39.7557C76.2022 31.9902 60.6689 17.7867 33.6689 31.7911C19.3355 39.1584 15.8689 41.1495 7.93555 39.1584C12.8022 44.1362 23.9355 44.6672 36.6689 37.8973Z" fill="white"/>
<path d="M37.4661 39.4266C31.5995 42.5461 25.7995 44.2718 20.5995 44.6036C11.9328 48.9178 7.33281 49.1169 0.132812 47.2585C6.19948 53.4974 20.4661 55.024 35.8661 45.732C44.5328 40.4886 51.5328 35.4443 56.6661 33.1213C52.3995 33.2541 45.9328 34.847 37.4661 39.4266Z" fill="white"/>
<path d="M226.533 62.3901C226.533 60.9963 227.733 59.868 229.133 59.9344C230.533 59.9344 231.667 61.1291 231.6 62.5229C231.6 63.9167 230.467 64.9786 229.067 65.045C227.733 64.9786 226.533 63.8503 226.533 62.3901ZM231.2 62.3901C231.133 61.2618 230.133 60.399 229 60.4654C227.867 60.5317 227 61.5273 227.067 62.6556C227.133 63.7176 228.067 64.5804 229.133 64.5804C230.267 64.5804 231.2 63.5848 231.2 62.3901ZM227.867 63.7176V63.5848C228.067 63.5848 228.2 63.5185 228.2 63.253V61.5273C228.2 61.2618 228.067 61.1955 227.867 61.1955V61.0627H229.267C229.733 61.0627 230.133 61.2618 230.133 61.7264C230.133 62.0583 229.867 62.3901 229.533 62.4565L229.933 63.0539C230.067 63.253 230.267 63.4521 230.467 63.6512V63.7176H229.933C229.667 63.7176 229.467 63.1202 229.067 62.4565H228.8V63.1866C228.8 63.4521 228.933 63.5185 229.133 63.5185V63.7176H227.867ZM228.8 62.3238H229.067C229.4 62.3238 229.533 62.0583 229.533 61.6601C229.533 61.2618 229.333 61.0627 229.067 61.0627H228.8V62.3238V62.3238Z" fill="white"/>
</g>
<defs>
<clipPath id="clip0_1238_701">
<rect width="232" height="75" fill="white"/>
</clipPath>
</defs>
</svg>
