<svg width="237" height="59" viewBox="0 0 237 59" fill="none" xmlns="http://www.w3.org/2000/svg">
<g clip-path="url(#clip0_1238_1041)">
<mask id="mask0_1238_1041" style="mask-type:alpha" maskUnits="userSpaceOnUse" x="0" y="0" width="58" height="59">
<path d="M0.578125 0.799377H57.113V58.088H0.578125V0.799377Z" fill="white"/>
</mask>
<g mask="url(#mask0_1238_1041)">
<path fill-rule="evenodd" clip-rule="evenodd" d="M13.096 8.11597C8.81934 8.11597 4.61845 8.86164 0.610246 10.332L0.566406 10.3481V11.8689C0.808777 11.7734 1.22421 11.6327 1.83045 11.4902C2.13629 11.4219 2.43941 11.3596 2.73877 11.3084C2.83877 11.2913 2.95024 11.276 3.05713 11.2599C6.98308 10.6908 10.3619 11.5002 12.3921 13.8623C16.8341 19.0289 13.1532 29.6419 4.17066 37.5664C3.02602 38.576 1.85112 39.4904 0.662019 40.3116C0.630496 40.333 0.598555 40.3535 0.566406 40.3747V42.9049C0.927353 42.6526 1.28747 42.3956 1.64507 42.1272C2.13357 42.965 5.38606 48.2304 5.44368 48.3191C5.68563 48.161 6.38686 47.7078 7.23673 47.1226C8.2154 46.441 9.37339 45.5906 10.4487 44.6868C10.4969 44.6443 10.5447 44.6015 10.5907 44.5596L5.62301 38.7845C6.12675 38.2833 7.8081 36.5885 9.14334 34.9767C9.45585 35.2221 13.5956 38.4742 15.2502 39.9791C16.5623 38.5311 17.7524 37.0328 18.806 35.5063C16.5241 33.9885 11.7858 31.2473 11.7858 31.2473C12.5756 29.981 13.2509 28.7123 13.8033 27.4593C13.8033 27.4593 19.3298 29.6497 21.5834 30.7745C22.1761 29.5553 22.6771 28.3317 23.0777 27.1134C23.1366 26.9333 23.1931 26.7544 23.2476 26.5766C20.4488 25.4269 15.4521 24.2196 14.9993 24.1114C15.2947 23.0174 15.4872 21.9504 15.5686 20.9258C19.6131 21.3326 23.3196 22.2713 24.0868 22.4734C24.2006 21.2873 24.1862 20.1632 24.042 19.1138C19.5275 18.2898 15.983 18.283 15.5203 18.2864C15.4178 17.4738 15.231 16.7013 14.955 15.9789C14.9577 15.9789 18.9605 15.6237 23.1455 16.1198C22.9288 15.6804 22.6497 15.1801 22.3765 14.7771C22.1602 14.4573 21.6788 13.8625 21.6788 13.8625C21.6788 13.8625 18.1409 13.5924 14.0407 14.2151C13.6492 13.6456 13.2135 13.1714 12.7754 12.7775C12.8591 12.7576 15.9558 12.0295 19.6964 12.0437C18.6657 11.3266 17.5961 10.8453 17.5961 10.8453V10.8449C14.7012 10.9022 11.6654 11.7188 11.4238 11.7846C10.5971 11.293 9.95312 11.0946 9.87254 11.0709C9.87024 11.0699 9.86795 11.069 9.86544 11.068C9.86795 11.0671 9.86899 11.0656 9.87129 11.0648C10.1043 10.9926 12.3401 10.3073 13.9789 10.1269C13.9789 10.1269 13.9755 10.1263 13.9724 10.1263C11.7426 9.83019 8.67467 10.5392 8.32061 10.6237C7.84088 10.527 7.17619 10.4387 6.68789 10.3921C6.68789 10.3921 8.34044 9.90724 10.526 9.59673C12.5161 9.31438 19.1885 8.48319 23.4518 14.3006C27.4886 19.8095 26.021 28.3588 20.5419 36.5578C19.0964 38.7595 17.3643 40.9322 15.3696 43.0062C13.691 44.7742 11.9908 46.3054 10.3696 47.6107C7.84004 49.6604 5.12219 51.4345 2.32146 52.8327C1.73734 53.1474 1.15177 53.4431 0.566406 53.7289V56.3943C5.24974 54.1473 8.02396 52.0077 8.02396 52.0077L11.9668 57.6825C11.9668 57.6825 15.0222 55.7437 18.0875 53.1851L18.0879 53.1847C18.0875 53.1843 18.0871 53.1843 18.0866 53.1836L13.3613 47.7616C13.3609 47.7612 13.3605 47.7607 13.3605 47.7607C15.1636 46.1388 16.8113 44.4447 18.2906 42.7057C18.2906 42.7057 23.1923 47.1171 23.7288 47.6373C25.2839 45.8598 26.7126 43.9898 27.9796 42.0432C25.429 39.9895 22.1038 37.6752 22.0537 37.64L22.0518 37.6386V37.639L22.0514 37.6386C22.0514 37.6386 24.0495 34.4 24.8616 32.4227C24.8616 32.4227 28.095 34.212 31.1498 36.2245C31.897 34.5299 32.5189 32.7704 32.9617 30.9741C30.9559 29.7471 26.4926 27.7264 26.4926 27.7264C26.8755 26.2052 27.103 24.7164 27.1684 23.2796C27.1684 23.2796 30.4133 24.3233 33.6827 25.9855C33.7333 24.5915 33.646 23.214 33.4065 21.8814C30.6386 20.534 26.955 19.6198 26.955 19.6198C26.7598 18.4942 26.4415 17.412 25.9968 16.4016C25.9968 16.4016 29.3472 17.0365 32.3058 18.2544C31.564 16.5942 30.6568 15.6478 30.6568 15.6478C28.7614 14.5942 24.4449 13.7958 24.4449 13.7958C23.9779 13.1949 23.4445 12.6199 22.8833 12.1201C24.2409 12.31 26.3571 12.7972 26.3571 12.7972C24.0307 11.6435 21.408 10.9767 21.3769 10.9691C21.3736 10.9668 20.8569 10.6226 20.236 10.2872C20.236 10.2872 26.7414 11.6384 30.2768 14.3404C30.5975 14.5857 30.9027 14.8586 31.2154 15.1612C31.572 15.5069 31.8828 15.8951 32.1577 16.2763C39.1992 26.0452 33.1084 44.8724 15.9446 58.0391H22.3297C21.9792 57.6452 21.1226 56.6824 21.0272 56.5738C23.037 54.6957 24.9296 52.6553 26.6554 50.4896L30.9041 54.7789L30.9048 54.7772C32.569 52.8571 34.1122 50.8035 35.4758 48.6463C35.4758 48.6463 33.2437 46.4749 30.8686 44.3799C32.7763 41.255 33.9539 38.1415 33.9539 38.1415C34.136 38.278 36.4488 40.0202 38.8214 42.2593C39.9668 39.7145 40.6764 36.4787 40.6764 36.4787C38.2043 34.1953 35.6672 32.5662 35.6672 32.5662C36.0472 30.8397 36.2864 29.0638 36.3357 27.31C36.3357 27.31 39.0226 28.9275 41.344 30.9982C41.3655 29.4643 41.234 27.9323 40.9152 26.4367C38.6118 24.4143 36.053 23.0608 36.053 23.0608C36.0524 23.058 35.8062 21.3626 34.9869 19.3155C34.9927 19.3189 34.9992 19.3218 35.0052 19.3246C35.1635 19.4044 36.3845 20.0347 38.541 21.5923C36.8599 19.3796 33.9641 17.2021 33.9641 17.2021C33.6875 16.7248 33.3681 16.2542 33.0187 15.7973C35.3971 17.4446 37.5674 19.3802 39.4838 21.5519C40.1944 22.4556 40.8478 23.606 41.3516 24.9255C41.4898 25.2862 41.6085 25.6451 41.7138 26.0009C43.2899 31.3955 42.321 37.4601 40.5411 42.4259C38.4899 48.1493 35.0752 53.4948 31.0676 58.0391H38.6262C39.3575 56.9861 40.0161 55.9824 40.6919 54.8297C40.1871 54.0519 37.8872 51.3234 37.8872 51.3234C39.1529 49.2241 40.2927 46.9541 41.1931 44.6976C41.1931 44.6976 42.7317 46.4228 43.9362 48.1989C45.1199 45.3267 45.6725 42.3287 45.6725 42.3287C44.8602 40.9542 43.0454 38.8234 43.0454 38.8234C43.4319 37.0127 43.6721 35.1385 43.7045 33.2651C44.613 34.3644 45.8382 36.1038 45.8382 36.1038C45.8382 36.1038 45.8376 36.0996 45.8372 36.0932C45.6057 32.6857 43.8717 29.5864 43.4872 28.9366C43.4765 28.8721 43.4644 28.8027 43.4494 28.7241C43.2231 27.5427 42.8143 26.2204 42.6012 25.5683C44.5523 28.4873 45.8055 31.7674 45.8055 31.7674C46.6086 33.8778 47.0893 36.5432 47.0893 39.4442C47.0893 40.98 46.7858 48.9953 40.7474 58.0391H42.6578C43.778 55.9126 45.0201 53.2687 45.8514 51.023C45.8518 51.0239 45.8522 51.0254 45.8526 51.0266C45.8794 51.0984 46.2938 52.209 46.6023 53.3627C47.2434 51.0658 47.7014 48.6776 47.9551 46.2194L47.9555 46.2179C47.876 45.8992 47.7054 45.3827 47.6092 45.068C47.6092 45.068 48.0187 42.981 48.1812 40.5997C48.402 42.2341 48.5168 43.8948 48.5168 45.5737C48.5168 48.4821 48.178 51.3367 47.5223 54.0931C47.185 55.4516 46.7739 56.7876 46.3276 58.0391H47.9582C49.3141 54.0713 50.0149 49.8909 50.0149 45.6886C50.0149 24.971 33.4529 8.11597 13.096 8.11597ZM0.566406 32.8678V37.8636C1.4384 37.2906 2.31227 36.6518 3.16986 35.9514L0.566406 32.8678ZM1.75405 12.1807C1.34759 12.4569 0.953031 12.7509 0.566406 13.0601V14.2221C1.58704 13.4002 2.89534 12.5104 4.02933 11.8543C3.29658 11.9025 2.53648 12.0109 1.75405 12.1807ZM5.08294 31.8596C3.75168 30.9152 0.569955 28.6617 0.566406 28.6592V25.9243C2.86173 22.6118 3.19366 18.8102 1.1787 16.9544C0.989147 16.7798 0.784144 16.6308 0.566406 16.5015V15.139L0.601687 15.16C0.601687 15.16 3.47924 12.8508 5.76538 11.8556C6.31651 11.896 6.84447 11.9743 7.34716 12.0911C3.931 13.5605 1.40876 15.3829 1.23402 15.5107C1.58474 15.7213 1.90456 15.9852 1.94652 16.0199C1.99057 15.9918 5.30256 13.8917 8.94773 12.633C9.44207 12.8622 9.92014 13.1475 10.3335 13.4703C6.36452 14.6012 2.54901 16.6206 2.54901 16.6206C2.76403 16.8742 2.95358 17.1485 3.11746 17.4419C3.14314 17.4315 3.16694 17.422 3.1851 17.4141C7.24758 15.6514 11.5639 14.7479 11.5639 14.7479C11.9015 15.2169 12.1796 15.7403 12.3921 16.3173C12.3921 16.3173 8.51831 16.7665 3.53498 18.3867C3.75502 19.085 3.81535 19.6099 3.81577 19.6145C3.81577 19.6145 8.51372 18.5491 12.8461 18.4309C12.9067 19.1366 12.885 19.9286 12.7854 20.7414C10.2193 20.6043 4.1074 20.934 3.86733 20.9531C3.86733 20.9531 3.8452 21.8456 3.6164 22.6859C3.6164 22.6859 8.08221 22.8311 12.1445 23.599C11.8303 24.5854 11.4293 25.5577 10.9535 26.5074C8.2465 25.683 4.13788 24.6817 3.05713 24.43C2.77238 25.1405 2.41519 25.8454 1.9912 26.528C1.9912 26.528 7.01106 28.7489 8.9375 29.8353H8.94167L8.94063 29.8372C8.10454 31.107 6.44698 32.8832 6.44698 32.8832C5.96642 32.519 5.51174 32.178 5.08294 31.8596Z" fill="white"/>
<path fill-rule="evenodd" clip-rule="evenodd" d="M13.096 8.1141C33.4529 8.1141 50.0149 24.9691 50.0149 45.6869C50.0149 49.889 49.3141 54.0695 47.9582 58.0372H57.0201V0.799377H0.566406V10.3463L0.610455 10.3302C4.61845 8.85977 8.81934 8.1141 13.096 8.1141ZM0.566406 25.9224C2.86173 22.61 3.19366 18.8084 1.1787 16.9525C0.989147 16.7779 0.784144 16.6289 0.566406 16.4996V25.9224ZM12.3921 13.8604C10.3619 11.4983 6.98308 10.6889 3.05713 11.2581C2.95024 11.2742 2.83877 11.2894 2.73877 11.3065C2.43941 11.3578 2.13629 11.42 1.83045 11.4884C1.22421 11.6308 0.808777 11.7716 0.566406 11.867V13.0582C0.953031 12.7492 1.34759 12.455 1.75405 12.1788C2.53648 12.009 3.29658 11.9007 4.02933 11.8524C2.89534 12.5086 1.58704 13.3984 0.566406 14.2202V15.1372L0.601687 15.1581C0.601687 15.1581 3.47924 12.8489 5.76538 11.8537C6.31651 11.8941 6.84447 11.9724 7.34716 12.0893C3.931 13.5586 1.40876 15.381 1.23402 15.5088C1.58474 15.7194 1.90456 15.9834 1.94652 16.0181C1.99057 15.9899 5.30256 13.8898 8.94773 12.6311C9.44208 12.8605 9.92014 13.1457 10.3335 13.4684C6.36453 14.5993 2.54901 16.6188 2.54901 16.6188C2.76403 16.8723 2.95358 17.1466 3.11746 17.44C3.14314 17.4296 3.16694 17.4201 3.1851 17.4123C7.24758 15.6498 11.5639 14.746 11.5639 14.746C11.9015 15.215 12.1796 15.7385 12.3921 16.3155C12.3921 16.3155 8.51831 16.7646 3.53498 18.3848C3.75502 19.0831 3.81535 19.608 3.81577 19.6127C3.81577 19.6127 8.51372 18.5472 12.8463 18.4291C12.9067 19.1348 12.885 19.9268 12.7854 20.7395C10.2193 20.6024 4.1074 20.9322 3.86733 20.9512C3.86733 20.9512 3.8452 21.8438 3.6164 22.6841C3.6164 22.6841 8.08221 22.8293 12.1445 23.5972C11.8303 24.5835 11.4293 25.5558 10.9535 26.5056C8.2465 25.6811 4.13788 24.6798 3.05713 24.4281C2.77238 25.1387 2.41519 25.8435 1.9912 26.5261C1.9912 26.5261 7.01127 28.747 8.9375 29.8335H8.94168L8.94063 29.8354C8.10475 31.1051 6.44699 32.8814 6.44699 32.8814C5.96642 32.5171 5.51174 32.1761 5.08294 31.8578C3.75168 30.9134 0.569955 28.6598 0.566406 28.6573V32.8659L3.16986 35.9496C2.31227 36.6499 1.4384 37.2887 0.566406 37.8617V40.3728C0.598555 40.3516 0.630496 40.3311 0.662019 40.3097C1.85112 39.4885 3.02602 38.5741 4.17066 37.5645C13.1532 29.64 16.8341 19.027 12.3921 13.8604ZM23.4518 14.2988C19.1885 8.48132 12.5161 9.31251 10.526 9.59486C8.34044 9.90537 6.6879 10.3903 6.6879 10.3903C7.17619 10.4368 7.84088 10.5251 8.32061 10.6218C8.67467 10.5374 11.7426 9.82832 13.9724 10.1244C13.9755 10.1244 13.9789 10.1251 13.9789 10.1251C12.3401 10.3054 10.1043 10.9908 9.87108 11.0629C9.86899 11.0638 9.86795 11.0653 9.86544 11.0661C9.86795 11.0672 9.87024 11.068 9.87254 11.0691C9.95312 11.0928 10.5971 11.2911 11.4238 11.7828C11.6654 11.717 14.7012 10.9006 17.5961 10.843V10.8434C17.5961 10.8434 18.6657 11.3247 19.6964 12.0419C15.9558 12.0277 12.8591 12.7558 12.7754 12.7757C13.2135 13.1696 13.6492 13.6437 14.0407 14.2133C18.1409 13.5906 21.6788 13.8606 21.6788 13.8606C21.6788 13.8606 22.1602 14.4554 22.3765 14.7752C22.6497 15.1782 22.9288 15.6786 23.1455 16.118C18.9605 15.6218 14.9577 15.977 14.955 15.977C15.231 16.6994 15.4178 17.4722 15.5203 18.2845C15.983 18.2811 19.5275 18.2879 24.042 19.1119C24.1862 20.1613 24.2006 21.2854 24.0868 22.4716C23.3196 22.2694 19.6131 21.3307 15.5686 20.9239C15.4872 21.9488 15.2947 23.0155 14.9993 24.1096C15.4521 24.2177 20.4488 25.425 23.2476 26.5748C23.1933 26.7526 23.1366 26.9314 23.0777 27.1115C22.6771 28.3298 22.1761 29.5534 21.5834 30.7726C19.3298 29.6478 13.8033 27.4574 13.8033 27.4574C13.2509 28.7104 12.5756 29.9791 11.7858 31.2454C11.7858 31.2454 16.5241 33.9866 18.806 35.5044C17.7524 37.0309 16.5623 38.5293 15.2502 39.9772C13.5956 38.4723 9.45585 35.2202 9.14334 34.9749C7.8081 36.5867 6.12675 38.2814 5.62301 38.7826L10.5907 44.5577C10.5447 44.5996 10.4969 44.6424 10.4487 44.6849C9.3736 45.5887 8.2154 46.4392 7.23673 47.1207C6.38686 47.7059 5.68584 48.1591 5.44368 48.3172C5.38606 48.2285 2.13357 42.9631 1.64507 42.1253C1.28747 42.3937 0.927353 42.6507 0.566406 42.903V53.727C1.15177 53.4413 1.73714 53.1456 2.32146 52.8308C5.12219 51.4326 7.84005 49.6585 10.3696 47.6088C11.9908 46.3035 13.691 44.7724 15.3696 43.0046C17.3643 40.9303 19.0964 38.7576 20.5419 36.556C26.021 28.3569 27.4886 19.8076 23.4518 14.2988ZM32.1577 16.2744C31.8828 15.8934 31.572 15.505 31.2154 15.1594C30.9027 14.8567 30.5975 14.5839 30.2768 14.3386C26.7414 11.6365 20.236 10.2853 20.236 10.2853C20.8569 10.6208 21.3736 10.9649 21.3769 10.9673C21.4078 10.9749 24.0307 11.6416 26.3571 12.7954C26.3571 12.7954 24.2409 12.3081 22.8833 12.1183C23.4445 12.618 23.9779 13.1931 24.4449 13.794C24.4449 13.794 28.7614 14.5923 30.6568 15.646C30.6568 15.646 31.564 16.5923 32.3058 18.2526C29.3472 17.0347 25.9968 16.3997 25.9968 16.3997C26.4415 17.4102 26.7598 18.4924 26.955 19.618C26.955 19.618 30.6386 20.5321 33.4065 21.8795C33.646 23.2121 33.7333 24.5896 33.6827 25.9836C30.4133 24.3215 27.1684 23.2778 27.1684 23.2778C27.103 24.7145 26.8755 26.2033 26.4926 27.7245C26.4926 27.7245 30.9559 29.7454 32.9617 30.9722C32.5189 32.7685 31.897 34.5281 31.1498 36.2226C28.0951 34.2102 24.8616 32.4208 24.8616 32.4208C24.0495 34.3981 22.0514 37.6367 22.0514 37.6367L22.0518 37.6371V37.6367L22.0537 37.6382C22.1038 37.6733 25.429 39.9876 27.9796 42.0413C26.7126 43.9879 25.2839 45.858 23.7288 47.6355C23.1923 47.1152 18.2906 42.7038 18.2906 42.7038C16.8113 44.4428 15.1636 46.1369 13.3605 47.7589C13.3605 47.7589 13.3609 47.7593 13.3613 47.7597L18.0866 53.1818C18.0871 53.1824 18.0875 53.1824 18.0879 53.1828L18.0875 53.1833C15.0222 55.7418 11.9668 57.6806 11.9668 57.6806L8.02396 52.0058C8.02396 52.0058 5.24974 54.1455 0.566406 56.3924V58.0372H15.9446C33.1084 44.8706 39.1992 26.0433 32.1577 16.2744ZM31.0676 58.0372C35.0752 53.4929 38.4899 48.1475 40.5414 42.424C42.321 37.4583 43.2899 31.3936 41.7138 25.9991C41.6083 25.6433 41.4896 25.2843 41.3516 24.9236C40.8478 23.6041 40.1944 22.4538 39.4838 21.5502C37.5674 19.3784 35.3971 17.4428 33.0187 15.7954C33.3681 16.2524 33.6875 16.7229 33.9641 17.2002C33.9641 17.2002 36.8599 19.3777 38.541 21.5904C36.3845 20.0328 35.1635 19.4025 35.0052 19.3227C34.9992 19.32 34.9927 19.317 34.9869 19.3136C35.8063 21.3608 36.0524 23.0562 36.053 23.0589C36.053 23.0589 38.6118 24.4125 40.9152 26.4349C41.234 27.9304 41.3655 29.4624 41.344 30.9963C39.0226 28.9257 36.3357 27.3082 36.3357 27.3082C36.2864 29.062 36.0472 30.8378 35.6672 32.5643C35.6672 32.5643 38.2043 34.1934 40.6764 36.4768C40.6764 36.4768 39.9669 39.7127 38.8214 42.2574C36.4488 40.0183 34.136 38.2761 33.9539 38.1396C33.9539 38.1396 32.7763 41.2531 30.8686 44.378C33.2437 46.473 35.4758 48.6444 35.4758 48.6444C34.1122 50.8017 32.569 52.8552 30.9046 54.7754L30.9041 54.777L26.6554 50.4878C24.9296 52.6535 23.037 54.6939 21.0272 56.5719C21.1227 56.6805 21.9792 57.6433 22.3297 58.0372H31.0676ZM38.6262 58.0372H40.7474C46.7858 48.9935 47.0893 40.9782 47.0893 39.4424C47.0893 36.5414 46.6086 33.8762 45.8055 31.7655C45.8055 31.7655 44.5523 28.4854 42.6012 25.5664C42.8143 26.2185 43.2231 27.5408 43.4494 28.7223C43.4644 28.8008 43.4765 28.8702 43.4872 28.9348C43.8717 29.5846 45.6057 32.6839 45.8372 36.0914C45.8376 36.0977 45.8382 36.102 45.8382 36.102C45.8382 36.102 44.613 34.3626 43.7045 33.2632C43.6721 35.1366 43.4319 37.0108 43.0454 38.8216C43.0454 38.8216 44.8602 40.9523 45.6725 42.3269C45.6725 42.3269 45.1199 45.3248 43.9362 48.197C42.7317 46.421 41.1931 44.6957 41.1931 44.6957C40.2927 46.9522 39.1529 49.2223 37.8872 51.3215C37.8872 51.3215 40.1871 54.05 40.6919 54.8278C40.0161 55.9805 39.3575 56.9842 38.6262 58.0372ZM42.6578 58.0372C43.778 55.9107 45.0201 53.2669 45.8512 51.0212C45.8518 51.022 45.8522 51.0235 45.8526 51.0248C45.8794 51.0965 46.2938 52.2071 46.6023 53.3608C47.2434 51.0639 47.7014 48.6758 47.9551 46.2176L47.9555 46.2161C47.876 45.8973 47.7054 45.3809 47.6092 45.0661C47.6092 45.0661 48.0188 42.9792 48.1812 40.5978C48.402 42.2322 48.5169 43.8929 48.5169 45.5718C48.5169 48.4802 48.1778 51.3348 47.5223 54.0913C47.185 55.4497 46.7739 56.7857 46.3276 58.0372H42.6578Z" fill="#328FB0"/>
</g>
<path d="M93.2305 29.8042V20.6901H98.4595V29.5376C98.4595 32.9412 100.055 34.3743 103.126 34.3743C106.196 34.3743 107.792 32.9412 107.792 29.5376V20.6901H113.021V29.8042C113.021 36.1722 109.843 38.9183 103.126 38.9183C96.4089 38.9183 93.2305 36.1722 93.2305 29.8042ZM136.557 31.0865L126.817 20.6901H121.659V38.5534H126.528V27.2307L137.157 38.5534H141.426V20.6901H136.557V31.0865ZM150.543 38.5556H155.772V20.6901H150.543V38.5534V38.5556ZM215.341 20.6922H225.417C232.423 20.6922 235.636 23.7747 235.636 29.625C235.636 35.4754 232.421 38.5578 225.417 38.5578H215.341V20.6901V20.6922ZM220.57 33.7495H225.223C228.63 33.7495 230.165 32.4868 230.165 29.6228C230.165 26.7588 228.63 25.4962 225.223 25.4962H220.57V33.7495ZM195.309 31.5191H206.176V27.7266H195.309V25.0658H207.015V20.6901H190.077V38.5534H207.11V34.1777H195.306V31.5169L195.309 31.5191ZM163.522 25.4962H170.31V38.5534H175.539V25.4962H182.327V20.6901H163.52V25.4962H163.522Z" fill="white"/>
</g>
<defs>
<clipPath id="clip0_1238_1041">
<rect width="235.562" height="57.2886" fill="white" transform="translate(0.578125 0.799377)"/>
</clipPath>
</defs>
</svg>
