<svg width="109" height="93" viewBox="0 0 109 93" fill="none" xmlns="http://www.w3.org/2000/svg">
<g clip-path="url(#clip0_1238_831)">
<path d="M50.8867 7.62008L52.125 5.41513L53.3632 7.62008L52.125 18.9988L50.8867 7.62008Z" fill="white"/>
<path d="M52.1202 5.42093L50.8867 7.62109L52.1202 18.9998L53.3584 7.62109L52.1202 5.42093Z" fill="white"/>
<path d="M52.1202 0L50.8867 2.57802L52.1202 3.81681L53.3584 2.57802L52.1202 0Z" fill="white"/>
<path d="M60.5765 9.39837L62.6993 8.02087L62.7662 10.5511L56.3789 20.0405L60.5765 9.39837Z" fill="white"/>
<path d="M62.6993 8.02087L60.5765 9.39837L56.3789 20.0405L62.7662 10.5511L62.6993 8.02087Z" fill="white"/>
<path d="M65.2226 3.22784L62.9277 4.94015L63.4441 6.60462L65.1126 6.08806L65.2226 3.22784Z" fill="white"/>
<path d="M55.8218 7.91968L57.5477 6.07346L58.217 8.51277L54.2871 19.2553L55.8218 7.91968Z" fill="white"/>
<path d="M57.5477 6.07346L55.8218 7.91968L54.2871 19.2553L58.217 8.51277L57.5477 6.07346Z" fill="white"/>
<path d="M58.8528 0.817108L57.0312 3.02206L57.9348 4.51912L59.4313 3.61993L58.8528 0.817108Z" fill="white"/>
<path d="M47.8658 20.0405L41.4785 10.5511L41.5454 8.02087L43.6634 9.39837L47.8658 20.0405Z" fill="white"/>
<path d="M41.5454 8.02087L43.6634 9.39837L47.8658 20.0405L41.4785 10.5511L41.5454 8.02087Z" fill="white"/>
<path d="M39.0254 3.22784L41.3202 4.94015L40.7991 6.60462L39.1306 6.08806L39.0254 3.22784Z" fill="white"/>
<path d="M49.9581 19.2553L46.0234 8.51277L46.6928 6.07346L48.4235 7.91968L49.9581 19.2553Z" fill="white"/>
<path d="M46.6928 6.07346L48.4235 7.91968L49.9581 19.2553L46.0234 8.51277L46.6928 6.07346Z" fill="white"/>
<path d="M45.3949 0.817078L47.2116 3.02203L46.3128 4.51909L44.8164 3.6199L45.3949 0.817078Z" fill="white"/>
<path d="M84.2586 33.152C83.9334 36.5862 83.0633 39.9486 81.6816 43.1006C82.9295 43.8898 84.0721 44.8751 85.0617 46.0612C85.1287 46.1138 85.1908 46.1712 85.2578 46.2191C86.5056 43.3732 87.5239 40.6134 88.0163 37.4471C87.5287 36.1222 85.6737 34.0512 84.2586 33.152V33.152Z" fill="white"/>
<path d="M78.2384 46.7163C78.0997 46.635 77.9563 46.5633 77.8129 46.4868C75.9292 45.7311 73.8304 45.4441 71.6885 45.7932C66.9315 46.5681 63.6853 51.0736 64.455 55.8327C64.9044 58.602 67.0463 60.6778 69.6519 61.1848C69.0399 60.9887 68.4519 60.6969 67.9164 60.3095C66.5921 59.3529 65.7172 57.9372 65.459 56.3253C65.1578 54.4743 65.5976 52.6137 66.6973 51.088C67.7969 49.5622 69.4224 48.5626 71.2774 48.2612C73.4336 47.9073 75.5993 48.4191 77.3683 49.6961C79.142 50.9732 80.3085 52.8672 80.6575 55.0244C81.0687 57.5593 80.4663 60.1039 78.9651 62.1844C77.4639 64.2698 75.2407 65.6425 72.7069 66.0491C72.0901 66.1495 71.4782 66.1974 70.8758 66.1974C65.3873 66.1974 60.5394 62.2084 59.6311 56.6171C58.4311 49.1939 63.4893 42.1725 70.914 40.9624C73.8638 40.4841 77.287 41.082 79.9117 42.0864C81.4942 38.4131 82.3882 34.3667 82.3882 30.1147C82.3882 29.1198 82.3356 28.1393 82.24 27.1684H82.2161C81.8049 22.9259 80.5141 19.0278 78.4487 15.2157C77.8416 15.297 77.2296 15.3497 76.5985 15.3353C73.9738 15.2875 71.569 14.3835 69.6041 12.9295C68.6622 12.2838 67.7969 11.4707 67.051 10.4615V9.23224H65.22V10.4615L58.7036 20.8261C58.7036 20.8261 59.0813 21.6058 58.7036 23.7103C58.4406 25.1739 55.7585 29.0959 53.8223 31.033C60.463 33.3432 59.3203 27.6658 63.0733 27.6658C64.1634 27.6658 65.0909 27.9193 66.0184 28.2541C68.4805 26.9866 70.5316 25.3174 70.8471 22.1941C70.8853 21.7971 71.4351 21.7493 71.6359 22.1415C72.8264 24.4421 72.4391 26.4079 71.2009 28.3019C70.6319 29.1102 69.8048 30.0573 68.8487 31.0569C66.812 33.0658 64.1968 35.1368 61.8638 37.5809C61.8351 37.6096 61.8064 37.6383 61.7777 37.667C61.5769 37.8439 61.3905 38.0066 61.2279 38.1501L61.0892 38.2648C60.1904 39.0732 59.306 39.9054 58.4837 40.8046C56.8247 42.4452 55.5386 44.4588 54.7163 46.6924C54.6828 46.7881 54.6446 46.8837 54.6111 46.9794C53.1243 52.0876 54.0135 57.5641 56.9155 61.9118C58.3259 64.0259 60.2 65.8721 62.5187 67.2687C66.702 69.7941 71.6551 69.9042 75.7953 68.0292C75.8192 68.0245 75.8431 68.0149 75.867 68.0053L75.8575 67.9958C76.0774 67.8953 76.2925 67.7949 76.5077 67.6801C76.6224 67.6227 76.7372 67.5653 76.8519 67.4983C76.9667 67.4361 77.0814 67.374 77.1914 67.3118C77.6981 67.0248 78.1667 66.7091 78.5969 66.3743C78.7977 66.2165 78.9794 66.0587 79.1611 65.896C80.299 64.9251 81.3077 63.7676 82.1253 62.4188C85.3811 57.0093 83.6456 49.9831 78.2479 46.7211L78.2384 46.7163Z" fill="white"/>
<path d="M19.9824 33.1519C20.3075 36.586 21.1776 39.9485 22.5593 43.1004C21.3115 43.8896 20.1689 44.8749 19.1792 46.0611C19.1123 46.1137 19.0501 46.1711 18.9832 46.2189C17.7354 43.3731 16.717 40.6133 16.2246 37.447C16.7123 36.1221 18.5673 34.0511 19.9824 33.1519V33.1519Z" fill="white"/>
<path d="M26.0087 46.7163C26.1473 46.635 26.2908 46.5633 26.4342 46.4868C28.3179 45.7311 30.4167 45.4441 32.5585 45.7932C37.3156 46.5681 40.5618 51.0736 39.7921 55.8327C39.3427 58.602 37.2008 60.6778 34.5952 61.1848C35.2072 60.9887 35.7952 60.6969 36.3307 60.3095C37.655 59.3529 38.5299 57.9372 38.7881 56.3253C39.0893 54.4743 38.6494 52.6137 37.5498 51.088C36.4502 49.5622 34.8247 48.5626 32.9697 48.2612C30.8135 47.9073 28.6478 48.4191 26.8788 49.6961C25.1051 50.9732 23.9386 52.8672 23.5896 55.0244C23.1784 57.5593 23.7808 60.1039 25.282 62.1844C26.7832 64.2698 29.0063 65.6425 31.5402 66.0491C32.1569 66.1495 32.7689 66.1974 33.3761 66.1974C38.8646 66.1974 43.7124 62.2084 44.6208 56.6171C45.8208 49.1939 40.7626 42.1725 33.3378 40.9624C30.388 40.4841 26.9649 41.082 24.3402 42.0864C22.7577 38.4131 21.8636 34.3667 21.8636 30.1147C21.8636 29.1198 21.9162 28.1393 22.0119 27.1684H22.0358C22.4469 22.9259 23.7378 19.0278 25.8031 15.2157C26.4103 15.297 27.0223 15.3497 27.6533 15.3353C30.2781 15.2875 32.6828 14.3835 34.6478 12.9295C35.5896 12.2838 36.455 11.4707 37.2008 10.4615V9.23224H39.0319V10.4615L45.5483 20.8261C45.5483 20.8261 45.1706 21.6058 45.5483 23.7103C45.8112 25.1739 48.4933 29.0959 50.4296 31.033C43.7889 33.3432 44.9315 27.6658 41.1785 27.6658C40.0885 27.6658 39.161 27.9193 38.2335 28.2541C35.7713 26.9866 33.7203 25.3174 33.4048 22.1941C33.3665 21.7971 32.8167 21.7493 32.6159 22.1415C31.4255 24.4421 31.8127 26.4079 33.051 28.3019C33.6199 29.1102 34.447 30.0573 35.4032 31.0569C37.4399 33.0658 40.055 35.1368 42.3881 37.5809C42.4168 37.6096 42.4455 37.6383 42.4742 37.667C42.675 37.8439 42.8614 38.0066 43.024 38.1501L43.1626 38.2648C44.0614 39.0732 44.9459 39.9054 45.7682 40.8046C47.4272 42.4452 48.7132 44.4588 49.5356 46.6924C49.569 46.7881 49.6073 46.8837 49.6407 46.9794C51.1276 52.0876 50.2384 57.5641 47.3363 61.9118C45.926 64.0259 44.0519 65.8721 41.7331 67.2687C37.5498 69.7941 32.5968 69.9042 28.4565 68.0292C28.4326 68.0245 28.4087 68.0149 28.3848 68.0053L28.3944 67.9958C28.1744 67.8953 27.9593 67.7949 27.7442 67.6801C27.6294 67.6227 27.5147 67.5653 27.3999 67.4983C27.2852 67.4361 27.1705 67.374 27.0605 67.3118C26.5537 67.0248 26.0852 66.7091 25.6549 66.3743C25.4541 66.2165 25.2724 66.0587 25.0908 65.896C23.9529 64.9251 22.9441 63.7676 22.1266 62.4188C18.8708 57.0093 20.6063 49.9831 26.0039 46.7211L26.0087 46.7163Z" fill="white"/>
<path d="M0 87.3021V87.2686C0 84.1214 2.35699 81.5434 5.70841 81.5434C7.74986 81.5434 8.98333 82.256 10.0399 83.27L8.7921 84.7097C7.90763 83.887 6.95623 83.3322 5.69407 83.3322C3.57612 83.3322 2.04145 85.0732 2.04145 87.2399V87.2734C2.04145 89.44 3.57612 91.2145 5.69407 91.2145C7.05184 91.2145 7.92197 90.6597 8.87337 89.7748L10.1212 91.0423C8.96899 92.2429 7.70205 93.0034 5.63191 93.0034C2.4048 93.0034 0 90.4875 0 87.3068L0 87.3021Z" fill="white"/>
<path d="M17.3789 81.7291H22.3128C23.7041 81.7291 24.7941 82.1404 25.5065 82.8387C26.0897 83.4414 26.4244 84.264 26.4244 85.2254V85.2541C26.4244 87.0716 25.3343 88.1669 23.7853 88.607L26.7734 92.8016H24.4786L21.7582 88.9418H19.3247V92.8016H17.3789V81.7291ZM22.1694 87.2199C23.5606 87.2199 24.4451 86.4929 24.4451 85.3689V85.3354C24.4451 84.1492 23.5893 83.4988 22.155 83.4988H19.3247V87.2151H22.1694V87.2199Z" fill="white"/>
<path d="M36.8945 88.4396L32.4961 81.7291H34.7909L37.889 86.6316L41.0205 81.7291H43.2484L38.8547 88.387V92.8016H36.8945V88.4348V88.4396Z" fill="white"/>
<path d="M48.8867 91.1894L50.058 89.7976C51.1194 90.7159 52.176 91.2372 53.5529 91.2372C54.7577 91.2372 55.5131 90.6824 55.5131 89.8454V89.8119C55.5131 89.0227 55.0684 88.5923 53.0126 88.1187C50.6557 87.5496 49.3266 86.8513 49.3266 84.8137V84.7802C49.3266 82.8814 50.909 81.5661 53.1083 81.5661C54.7194 81.5661 56.0007 82.0587 57.1242 82.9579L56.082 84.4311C55.0876 83.6897 54.0883 83.2927 53.0796 83.2927C51.9417 83.2927 51.2772 83.8762 51.2772 84.608V84.6415C51.2772 85.4977 51.784 85.8755 53.9019 86.3825C56.2445 86.9517 57.4589 87.7887 57.4589 89.6254V89.6589C57.4589 91.7299 55.8286 92.9639 53.5051 92.9639C51.8126 92.9639 50.2158 92.3804 48.8867 91.1942V91.1894Z" fill="white"/>
<path d="M67.4545 83.538H63.9453V81.7349H72.9286V83.538H69.4195V92.8074H67.4593V83.538H67.4545Z" fill="white"/>
<path d="M82.696 81.6536H84.4984L89.3701 92.8075H87.3143L86.1908 90.1338H80.9557L79.8179 92.8075H77.8242L82.696 81.6536V81.6536ZM85.4785 88.4072L83.5661 83.9781L81.6681 88.4072H85.4785Z" fill="white"/>
<path d="M96.4844 81.7291H98.4302V91.032H104.249V92.8017H96.4844V81.7291V81.7291Z" fill="white"/>
<path d="M104.248 83.9754V83.9611C104.248 82.6696 105.3 81.5839 106.629 81.5839C107.958 81.5839 108.995 82.6553 108.995 83.9467V83.9611C108.995 85.2525 107.944 86.3382 106.615 86.3382C105.286 86.3382 104.248 85.2668 104.248 83.9754ZM108.723 83.9611V83.9467C108.723 82.7844 107.824 81.847 106.629 81.847C105.434 81.847 104.521 82.7988 104.521 83.9611V83.9754C104.521 85.1377 105.419 86.0751 106.615 86.0751C107.81 86.0751 108.718 85.1233 108.718 83.9611H108.723ZM105.644 82.6266H106.768C107.107 82.6266 107.37 82.727 107.547 82.904C107.686 83.0427 107.757 83.234 107.757 83.4541V83.4684C107.757 83.875 107.533 84.1332 107.212 84.248L107.829 85.152H107.179L106.639 84.3389H106.199V85.152H105.639V82.6266H105.644ZM106.758 83.8606C107.04 83.8606 107.193 83.7123 107.193 83.5019V83.4875C107.193 83.2436 107.021 83.1193 106.748 83.1193H106.203V83.8606H106.763H106.758Z" fill="white"/>
</g>
<defs>
<clipPath id="clip0_1238_831">
<rect width="109" height="93" fill="white"/>
</clipPath>
</defs>
</svg>
