<svg width="128" height="125" viewBox="0 0 128 125" fill="none" xmlns="http://www.w3.org/2000/svg">
<g clip-path="url(#clip0_8_29709)">
<path d="M58.8104 93.3497C57.6524 92.5109 56.3318 91.9236 54.9335 91.6256C54.749 91.6155 54.5642 91.6155 54.3797 91.6256C53.9103 91.6199 53.446 91.7225 53.0227 91.9254C52.5994 92.1283 52.2284 92.426 51.9386 92.7955C51.7951 92.9802 51.6925 93.165 51.5694 93.3497C50.9806 94.4722 50.6182 95.6997 50.5028 96.9622C50.5028 97.4753 50.4002 97.9884 50.4002 98.5221C50.4002 99.0558 50.4002 99.0763 50.4002 99.3842V99.5689V99.9589C50.4002 100.308 50.4002 100.677 50.4002 101.067C50.4002 101.457 50.4002 102.319 50.4002 102.976C50.4002 104.023 50.4002 105.029 50.4002 106.178C50.4002 106.65 50.4002 107.04 50.4002 107.512C50.4002 107.984 50.4002 108.374 50.4002 108.805C50.42 109.01 50.42 109.216 50.4002 109.421C50.4002 109.852 50.4002 110.242 50.4002 110.673C50.2943 111.979 50.0326 113.268 49.6207 114.511C49.0811 116.098 48.3943 117.63 47.5694 119.089L47.0566 119.951L46.5643 120.669C46.4002 120.936 46.2156 121.162 46.0515 121.408L45.5592 122.024C44.6506 123.288 43.4463 124.31 42.0515 125C42.0515 125 41.354 124.035 40.2258 122.229L39.7745 121.552C38.4822 119.499 36.7592 116.605 34.9951 113.198L34.4412 112.13C33.7028 110.735 33.0053 109.257 32.3899 107.718L31.5899 105.932C31.1797 105.008 30.8104 104.085 30.4207 103.14C30.031 102.196 29.8669 101.621 29.5592 100.841C29.2515 100.062 28.9643 99.3226 28.7181 98.5221C28.472 97.7216 28.3079 97.1469 28.1028 96.4696C28.096 96.3945 28.096 96.3189 28.1028 96.2438C27.7951 95.0944 27.5079 94.0065 27.3028 92.8981L27.0566 91.605C26.8097 90.2905 26.6589 88.9596 26.6053 87.6231C26.4926 85.6487 26.5819 83.668 26.872 81.7118C26.872 81.4244 26.872 81.096 27.0566 80.8292C27.2171 79.896 27.4714 78.9813 27.8156 78.0993C28.3067 76.4078 29.3458 74.9276 30.7694 73.8916C31.2201 73.7285 31.7136 73.7285 32.1643 73.8916C32.2879 74.0851 32.3716 74.3015 32.4104 74.5279C32.4575 74.755 32.4336 74.9911 32.3418 75.2041C32.2501 75.4171 32.095 75.5967 31.8976 75.7183C31.7284 75.8235 31.5499 75.9128 31.3643 75.9852V76.2315C31.3905 76.5775 31.4454 76.9208 31.5284 77.2577C32.0726 79.2729 33.3636 81.005 35.1386 82.1017C35.9197 82.5741 36.7357 82.9858 37.5797 83.3333L38.1951 83.5796L39.0976 83.9696L41.5181 84.8522L44.2874 85.8579L47.4874 86.9458L48.554 87.2947L49.8053 87.7668L50.831 88.1568C51.5694 88.4441 52.2053 88.6699 52.7181 88.9367C53.0361 89.073 53.3445 89.2307 53.6412 89.4088L53.8258 89.5114L54.0925 89.6756L54.954 90.2298L55.3643 90.5172C55.4634 90.5807 55.5593 90.6492 55.6515 90.7224C56.7758 91.5086 57.8324 92.3874 58.8104 93.3497Z" fill="url(#paint0_linear_8_29709)"/>
<path style="mix-blend-mode:multiply" opacity="0.5" d="M50.4207 110.694C50.3148 112 50.0532 113.288 49.6412 114.532C49.1016 116.118 48.4149 117.651 47.5899 119.109L47.0771 119.971L46.5848 120.69C46.4207 120.957 46.2361 121.182 46.072 121.429L45.5797 122.044C44.6629 123.303 43.4514 124.318 42.0515 125C42.0515 125 41.354 124.035 40.2258 122.229L39.7745 121.552C38.4822 119.499 36.7592 116.605 34.9951 113.198L34.4412 112.131C33.7028 110.735 33.0053 109.257 32.3899 107.718L31.5899 105.932C31.1797 105.008 30.8104 104.085 30.4207 103.14C30.031 102.196 29.8669 101.622 29.5592 100.842C29.2515 100.062 28.9643 99.3227 28.7181 98.5222C28.472 97.7217 28.3079 97.147 28.1233 96.4696V96.2439C27.8156 95.0944 27.5284 94.0066 27.3233 92.8982L27.0771 91.6051C26.8302 90.2905 26.6794 88.9597 26.6258 87.6232C26.5131 85.6488 26.6024 83.668 26.8925 81.7118C26.8925 81.4245 26.8925 81.0961 27.0771 80.8293C27.2376 79.896 27.4919 78.9814 27.8361 78.0994C27.8361 78.7767 27.8361 79.4746 27.8361 80.2545C27.8361 80.5624 27.8361 80.8703 27.8361 81.1987C27.8361 81.5271 27.8361 81.8145 27.8361 82.1634C28.4213 85.7775 29.6585 89.255 31.4874 92.4261C31.754 92.8777 32.0002 93.3498 32.2669 93.7808C32.5335 94.2118 33.0463 95.115 33.4771 95.8334C33.9079 96.5517 34.2156 96.8802 34.5643 97.3933C37.0925 101.103 40.1865 104.393 43.7335 107.143C45.3035 108.363 47.0278 109.371 48.8617 110.14C49.3682 110.36 49.8891 110.545 50.4207 110.694Z" fill="url(#paint1_linear_8_29709)"/>
<path style="mix-blend-mode:multiply" opacity="0.5" d="M41.5796 101.56C39.5785 100.117 37.7419 98.4578 36.1026 96.6133C35.5898 96.0386 35.118 95.4434 34.6257 94.8481C34.5527 94.7677 34.4906 94.678 34.4411 94.5813C31.9362 91.001 30.159 86.9631 29.2103 82.6971C29.2103 82.3892 29.0873 82.0608 29.0052 81.7529C28.8512 81.1172 28.7347 80.4729 28.6565 79.8235C28.6565 80.0698 28.8411 80.7882 29.1078 81.876C29.1078 82.1634 29.2719 82.4918 29.3539 82.8202C30.4292 86.8361 32.3063 90.5926 34.8719 93.8629C35.3426 94.4292 35.857 94.9576 36.4103 95.4434C36.6189 95.64 36.838 95.825 37.0667 95.9975C37.9847 96.6796 38.9754 97.2578 40.0206 97.7217C42.3705 98.7581 44.8577 99.4494 47.4052 99.7742C48.4514 99.8974 49.4565 99.9795 50.4206 100.021C50.4206 102.073 50.5437 104.126 50.5847 106.178C47.348 105.149 44.3048 103.588 41.5796 101.56Z" fill="url(#paint2_linear_8_29709)"/>
<path style="mix-blend-mode:multiply" opacity="0.5" d="M54.3795 91.564C53.9102 91.5584 53.4458 91.661 53.0225 91.8639C52.5992 92.0668 52.2283 92.3645 51.9385 92.734C50.9965 92.1311 50.0167 91.5895 49.0051 91.1125C46.6946 90.0934 44.3324 89.1959 41.9282 88.4236C40.1308 87.8191 38.3821 87.078 36.6975 86.2069L35.3436 85.3653L34.1744 84.4622C33.7789 84.1348 33.4022 83.7853 33.0462 83.4154C32.6495 83.0087 32.2795 82.5768 31.9385 82.1223C32.4168 82.6653 32.9534 83.154 33.5385 83.5796C34.1893 84.0548 34.875 84.4802 35.5898 84.8522C35.609 84.8431 35.63 84.8383 35.6513 84.8383C35.6726 84.8383 35.6936 84.8431 35.7128 84.8522L36.9026 85.3653C38.7606 86.1149 40.6741 86.7188 42.6257 87.1716C45.13 87.6677 47.6027 88.312 50.0308 89.101C50.7326 89.3748 51.4176 89.69 52.0821 90.0451C52.7385 90.4967 53.5795 91.0098 54.3795 91.564Z" fill="url(#paint3_linear_8_29709)"/>
<path style="mix-blend-mode:multiply" opacity="0.5" d="M58.8105 93.3497C57.6524 92.5109 56.3318 91.9236 54.9335 91.6256C54.7491 91.6155 54.5642 91.6155 54.3797 91.6256C53.9104 91.6199 53.446 91.7226 53.0227 91.9254C52.5994 92.1283 52.2285 92.4261 51.9387 92.7955C51.7951 92.9803 51.6925 93.165 51.5694 93.3497C50.9806 94.4722 50.6182 95.6997 50.5028 96.9622C50.5028 97.4753 50.4002 97.9885 50.4002 98.5221C50.4002 99.0558 50.4002 99.0763 50.4002 99.3842V99.5689V99.9589C50.4002 100.308 50.4002 100.677 50.4002 101.067C50.4002 101.457 50.4002 102.319 50.4002 102.976C50.4002 104.023 50.4002 105.029 50.4002 106.178C50.4002 106.65 50.4002 107.04 50.4002 107.512C50.4002 107.984 50.4002 108.374 50.4002 108.805C50.42 109.01 50.42 109.216 50.4002 109.421C50.4002 109.852 50.4002 110.242 50.4002 110.673C50.2944 111.979 50.0327 113.268 49.6207 114.511C49.0811 116.098 48.3944 117.63 47.5694 119.089L47.0566 119.951L46.5643 120.669C46.4002 120.936 46.2156 121.162 46.0515 121.408L45.5592 122.024C44.6507 123.288 43.4463 124.31 42.0515 125C42.0515 125 41.3541 124.035 40.2259 122.229L39.7746 121.552C38.4823 119.499 36.7592 116.605 34.9951 113.198L34.4412 112.131C33.7028 110.735 33.0053 109.257 32.39 107.718L31.59 105.932C31.1797 105.008 30.8105 104.085 30.4207 103.14C30.031 102.196 29.8669 101.621 29.5592 100.842C29.2515 100.062 28.9643 99.3226 28.7182 98.5221C28.472 97.7216 28.3079 97.1469 28.1233 96.4696C28.3284 97.1059 28.5951 97.7832 28.8618 98.5221C31.0771 104.208 34.8105 112.315 37.4771 112.131C37.7086 112.162 37.9431 112.162 38.1746 112.131C39.4108 111.774 40.5525 111.146 41.5174 110.295C42.4822 109.443 43.2461 108.387 43.7541 107.204C44.1917 106.44 44.3783 105.556 44.2874 104.68C43.6055 103.461 42.6845 102.393 41.5797 101.539C40.9028 100.944 40.2259 100.39 39.713 99.9794C40.9177 100.865 42.3311 101.424 43.8156 101.601C44.2043 101.642 44.5962 101.642 44.9848 101.601C45.2225 101.561 45.456 101.499 45.6823 101.416C46.4345 101.097 47.0363 100.502 47.3643 99.7537C47.4655 99.554 47.5546 99.3483 47.631 99.1379C47.8272 98.71 47.9784 98.2629 48.0823 97.8037L48.2464 97.2496C48.6259 95.6456 48.8593 94.0106 48.9438 92.3645C48.9629 92.1528 48.9629 91.9399 48.9438 91.7282C48.9438 91.3998 48.9438 91.1535 48.9438 91.0509L47.4669 90.3941L46.6053 90.0246H49.0669C49.99 90.0246 51.0156 90.0246 51.8976 90.0246C52.5958 90.0199 53.2885 89.9021 53.9489 89.6757L54.8105 90.2298L55.2207 90.5172C55.3199 90.5807 55.4157 90.6492 55.5079 90.7225C56.6819 91.502 57.7868 92.381 58.8105 93.3497Z" fill="url(#paint4_linear_8_29709)"/>
<path style="mix-blend-mode:screen" d="M44.2874 85.899C44.0057 85.9955 43.737 86.1265 43.4874 86.289C43.4088 86.3209 43.3437 86.3789 43.3028 86.4532C43.2114 86.4813 43.1321 86.5391 43.0771 86.6174C42.8868 86.7848 42.721 86.9782 42.5848 87.1921C42.3055 87.5673 42.0842 87.9825 41.9284 88.4236C41.6412 88.9778 41.4156 89.6346 41.1079 90.312C41.1193 90.3522 41.1193 90.3949 41.1079 90.4351C40.9438 90.8661 40.7182 91.2972 40.513 91.7693C40.3079 92.2413 40.1233 92.4671 39.9182 92.8161C39.8093 93.0621 39.6641 93.2905 39.4874 93.4934L39.2207 93.8834C39.0361 94.1092 38.8105 94.3965 38.5848 94.6223C38.1297 95.0991 37.6431 95.5448 37.1284 95.9565C36.8334 96.1739 36.5251 96.3727 36.2053 96.5517C35.7262 96.8544 35.2257 97.1219 34.7079 97.3522C33.2031 97.9924 31.6011 98.374 29.9694 98.4811H28.7182C28.513 97.8243 28.3079 97.1059 28.1028 96.4285C28.4734 96.678 28.8822 96.8651 29.313 96.9827C30.0415 97.2118 30.8219 97.2169 31.5533 96.9974C32.2847 96.7778 32.9335 96.3437 33.4156 95.7512C33.6815 95.4524 33.9281 95.1371 34.1541 94.807L34.3387 94.4786L34.6464 93.945V93.7808C34.829 93.4438 34.9867 93.094 35.1182 92.734C35.8672 90.6183 36.3964 88.431 36.6977 86.2069C36.6977 85.94 36.8002 85.6527 36.8618 85.4269C36.9233 85.2011 36.8618 85.3037 36.8618 85.2627C36.8618 85.2216 36.9643 84.8727 37.0259 84.7085C37.1625 84.2616 37.3411 83.8286 37.5592 83.4154L38.1746 83.6617L39.0771 84.0517L41.4977 84.9343L44.2874 85.899Z" fill="url(#paint5_linear_8_29709)"/>
<path style="mix-blend-mode:multiply" opacity="0.5" d="M58.8104 93.3497C57.6524 92.5109 56.3318 91.9236 54.9335 91.6256C54.749 91.6155 54.5642 91.6155 54.3797 91.6256C53.9103 91.6199 53.446 91.7225 53.0227 91.9254C52.5994 92.1283 52.2284 92.426 51.9386 92.7955C51.7951 92.9802 51.6925 93.165 51.5694 93.3497C50.9806 94.4722 50.6182 95.6997 50.5028 96.9622C50.5028 97.4753 50.4002 97.9884 50.4002 98.5221C50.4002 99.0558 50.4002 99.0763 50.4002 99.3842V99.5689V99.9589C50.4002 100.308 50.4002 100.677 50.4002 101.067C50.4002 101.457 50.4002 102.319 50.4002 102.976C50.4002 104.023 50.4002 105.029 50.4002 106.178C50.4002 106.65 50.4002 107.04 50.4002 107.512C50.4002 107.984 50.4002 108.374 50.4002 108.805C50.42 109.01 50.42 109.216 50.4002 109.421C50.4002 109.852 50.4002 110.242 50.4002 110.673C50.2943 111.979 50.0326 113.268 49.6207 114.511C49.0811 116.098 48.3943 117.63 47.5694 119.089L47.0566 119.951L46.5643 120.669C46.4002 120.936 46.2156 121.162 46.0515 121.408L45.5592 122.024C44.6506 123.288 43.4463 124.31 42.0515 125C42.0515 125 41.354 124.035 40.2258 122.229L39.7745 121.552C38.4822 119.499 36.7592 116.605 34.9951 113.198L34.4412 112.13C33.7028 110.735 33.0053 109.257 32.3899 107.718L31.5899 105.932C31.1797 105.008 30.8104 104.085 30.4207 103.14C30.031 102.196 29.8669 101.621 29.5592 100.841C29.2515 100.062 28.9643 99.3226 28.7181 98.5221C28.472 97.7216 28.3079 97.1469 28.1028 96.4696C28.096 96.3945 28.096 96.3189 28.1028 96.2438C27.7951 95.0944 27.5079 94.0065 27.3028 92.8981L27.0566 91.605C26.8097 90.2905 26.6589 88.9596 26.6053 87.6231C26.4926 85.6487 26.5819 83.668 26.872 81.7118C26.872 81.4244 26.872 81.096 27.0566 80.8292C27.2171 79.896 27.4714 78.9813 27.8156 78.0993C28.3067 76.4078 29.3458 74.9276 30.7694 73.8916C31.2201 73.7285 31.7136 73.7285 32.1643 73.8916C32.2879 74.0851 32.3716 74.3015 32.4104 74.5279C32.4575 74.755 32.4336 74.9911 32.3418 75.2041C32.2501 75.4171 32.095 75.5967 31.8976 75.7183C31.7284 75.8235 31.5499 75.9128 31.3643 75.9852V76.1494C31.36 76.1834 31.36 76.2179 31.3643 76.252C31.3905 76.598 31.4454 76.9413 31.5284 77.2783C32.0773 79.2859 33.3677 81.0099 35.1386 82.1017C35.9197 82.5741 36.7357 82.9858 37.5797 83.3333L38.1951 83.5796L39.0976 83.9696L41.5181 84.8522L44.2874 85.8579L47.4874 86.9458L48.554 87.2947L49.8053 87.7668L50.831 88.1568C51.5694 88.4441 52.2053 88.6699 52.7181 88.9367C53.0361 89.073 53.3445 89.2307 53.6412 89.4088L53.8258 89.5114L54.0925 89.6756L54.954 90.2298L55.3643 90.5172C55.4634 90.5807 55.5593 90.6492 55.6515 90.7224C56.7758 91.5086 57.8324 92.3874 58.8104 93.3497Z" fill="url(#paint6_linear_8_29709)"/>
<path style="mix-blend-mode:multiply" opacity="0.5" d="M30.0923 91.1536L29.9487 91.2972L30.0923 91.1536Z" fill="url(#paint7_linear_8_29709)"/>
<path d="M77.9487 49.6305C77.9487 50.1026 77.8051 50.5952 77.7231 51.0468C77.641 51.4984 77.7231 51.4778 77.5385 51.7036C77.4959 51.9141 77.4341 52.1202 77.3539 52.3194C77.3539 52.5452 77.2103 52.7299 77.1692 52.9146C76.7515 53.8896 76.104 54.7487 75.2821 55.4187L75.118 55.5419C75.0131 55.6334 74.8957 55.7094 74.7692 55.7677L74.4 55.9524C73.5552 56.3693 72.6333 56.6069 71.6923 56.6502H70.359H69.8462H69.4564C69.4403 56.6576 69.4228 56.6614 69.4051 56.6614C69.3874 56.6614 69.37 56.6576 69.3539 56.6502C69.1173 56.6375 68.8831 56.5962 68.6564 56.5271C68.5481 56.5487 68.4366 56.5487 68.3282 56.5271C68.199 56.5456 68.0677 56.5456 67.9385 56.5271L67.2616 56.3629H66.8923L65.9898 56.055C64.2731 55.4635 62.6062 54.736 61.0051 53.8793L60.718 53.3662C60.5527 53.3004 60.3946 53.2179 60.2462 53.1199H60.0821L58.6051 52.2988L58.2769 52.1141C57.8051 51.8268 57.2923 51.4778 56.759 51.0878L56.4308 50.8621C56.0821 50.5747 55.6923 50.3079 55.3436 50L54.8103 49.5279C54.4821 49.2611 54.1744 48.9737 53.8051 48.7069C52.4513 47.4138 51.0359 45.977 49.7026 44.4581C49.2103 43.9655 48.759 43.4113 48.2872 42.8571C47.8154 42.303 47.1795 41.6256 46.7692 41.0509C46.359 40.4762 46.1949 40.3736 45.9282 40.0246C45.6616 39.6757 45.1077 38.9778 44.6975 38.4647C44.7053 38.4309 44.7053 38.3958 44.6975 38.3621L43.0769 36.3916C42.4 35.509 41.8051 34.7085 41.2718 33.9696L40.2257 32.4302L39.4872 31.3834C38.8308 30.4187 38.441 29.7619 38.4 29.7209C38.359 29.6798 38.9334 29.7209 39.7334 28.9614C40.5334 28.202 42.4 25.4105 44.3077 19.4992C44.3077 19.3144 44.4513 19.1092 44.5333 18.9039C45.1907 17.0839 46.0076 15.3255 46.9744 13.6494C49.9828 8.75146 53.4885 4.17739 57.4359 0C56.826 0.936418 56.3301 1.94247 55.959 2.99672C55.6534 3.74672 55.6534 4.58661 55.959 5.33662C56.2713 5.92465 56.8015 6.36678 57.4359 6.56814L58.359 6.91708C59.118 7.18391 60.0821 7.55337 61.3949 8.12808C62.7107 8.77063 63.9911 9.4832 65.2308 10.2627C66.431 11.0136 67.4813 11.981 68.3282 13.1158C70.0404 15.4006 71.4215 17.9158 72.4308 20.587C73.2514 22.6022 73.9702 24.6573 74.5846 26.7447C75.1385 28.6125 75.6103 30.4598 76.041 32.3276C76.2872 33.4565 76.5333 34.5854 76.7385 35.7143C77.7269 40.2834 78.1335 44.9593 77.9487 49.6305Z" fill="url(#paint8_linear_8_29709)"/>
<path style="mix-blend-mode:multiply" opacity="0.5" d="M77.9489 49.6306C77.9489 50.1027 77.8053 50.5953 77.7232 51.0468C77.6412 51.4984 77.7232 51.4779 77.5386 51.7036C77.496 51.9141 77.4342 52.1202 77.354 52.3194C77.354 52.5452 77.2104 52.7299 77.1694 52.9146C76.7516 53.8896 76.1041 54.7488 75.2822 55.4188L75.1181 55.5419C75.0132 55.6334 74.8958 55.7095 74.7694 55.7677L74.4001 55.9524C73.5553 56.3694 72.6334 56.607 71.6924 56.6503H70.3591H69.8463H69.4566C69.4405 56.6577 69.423 56.6615 69.4053 56.6615C69.3876 56.6615 69.3701 56.6577 69.354 56.6503C69.1174 56.6376 68.8832 56.5962 68.6566 56.5271H68.3078C68.1786 56.5457 68.0473 56.5457 67.9181 56.5271L67.2412 56.3629H66.8719L66.0719 55.4188H65.7848L65.0053 54.9056L60.6566 52.0115L57.4566 49.959H57.354L55.9796 49.0353L55.6309 48.789H55.4668C55.1766 48.6124 54.8958 48.4206 54.6258 48.2143L54.4207 48.1117L54.154 47.9064L53.2719 47.0854L52.2668 46.0797L48.0617 41.9746L46.4207 40.3736L45.5181 39.491L44.8207 38.7726L42.7694 36.8637L40.4104 34.2775C40.7375 34.2186 41.055 34.115 41.354 33.9697H41.5181C42.104 33.6089 42.63 33.1587 43.0771 32.6355L43.3027 32.4097C43.6829 31.971 44.0389 31.5119 44.3694 31.0345C45.0908 30.0055 45.7418 28.9289 46.3181 27.812C48.6566 23.4401 50.8514 17.8161 53.7232 12.9926L53.9694 12.6027C54.0461 12.4518 54.1353 12.3076 54.236 12.1716C54.4822 11.7406 54.7489 11.3506 55.0155 10.9606C55.2822 10.5706 55.6309 10.0575 55.9591 9.62647C56.2873 9.19544 56.6976 8.70283 57.0463 8.27179L58.1745 7.06079C58.9335 7.32762 59.8976 7.69708 61.2104 8.27179C59.4889 10.1602 57.8793 12.1477 56.3899 14.2242C52.1232 20.2381 48.8822 25.1232 46.7283 28.592C45.9899 29.7414 45.4155 30.6445 44.9027 31.5271C44.636 31.9992 44.3899 32.4303 44.1437 32.7792C43.8976 33.1281 44.0001 33.0255 43.9181 33.1281C43.3642 34.0723 43.0976 34.6059 43.0976 34.6059L46.8309 35.3654L47.1386 34.6675C47.1386 34.6675 47.1386 34.6675 47.1386 34.5444C47.1386 34.4212 47.4053 33.9697 47.6104 33.5797C47.8155 33.1897 48.2463 32.1839 48.6976 31.3424C51.2822 26.3547 56.595 18.0419 64.636 14.3679C64.8754 14.2292 65.1301 14.1189 65.395 14.0394H65.5591C66.4467 13.6521 67.3665 13.343 68.3078 13.1158C70.02 15.4006 71.4011 17.9158 72.4104 20.5871C71.713 20.4434 71.036 20.3613 70.3591 20.2792H70.0514C69.4249 20.2061 68.795 20.165 68.1642 20.156C65.381 19.8969 62.5767 20.3225 59.9954 21.3957C57.4141 22.4689 55.1341 24.1572 53.354 26.3137C51.5899 28.4894 50.2976 30.4188 49.2514 31.8555C48.8001 32.5945 48.3899 33.2307 48.0822 33.9081C47.8907 34.2006 47.726 34.5097 47.5899 34.8317C47.2072 35.5791 46.8648 36.3465 46.5642 37.1306C46.2989 37.7919 46.1063 38.4801 45.9899 39.1831L47.3848 37.459L48.5335 36.0838C48.6007 35.9819 48.6761 35.8858 48.7591 35.7964L48.9232 35.6322L49.436 35.078C49.7848 34.7086 50.2155 34.2775 50.7489 33.7849C55.7551 29.0788 62.342 26.4205 69.2104 26.3342H70.8514C71.5694 26.3342 72.3283 26.4573 73.1078 26.56L74.6258 26.8268C75.1796 28.6946 75.6514 30.5419 76.0822 32.4097C75.6514 32.4097 75.2822 32.225 74.8719 32.1634C73.2309 31.8145 71.6309 31.5477 70.1335 31.3835C69.7232 31.3835 69.2924 31.3834 68.9027 31.2808C66.0934 30.9739 63.2528 31.1264 60.4924 31.7324C57.4678 32.3558 54.5511 33.4209 51.836 34.8933C51.3542 35.1749 50.8886 35.4833 50.4412 35.8169C50.2891 35.9148 50.145 36.0246 50.0104 36.1454L49.6617 36.4327C49.2023 36.8064 48.7892 37.2336 48.4309 37.7053C48.2829 37.8602 48.1647 38.0411 48.0822 38.2389L48.7386 37.8284C49.0749 37.6027 49.4242 37.3971 49.7848 37.2127C49.9297 37.1148 50.0804 37.0257 50.236 36.9458L50.8309 36.638L51.1591 36.4943C51.6104 36.2685 52.1027 36.0632 52.636 35.8375C57.6269 33.7118 63.0801 32.906 68.4719 33.4976C68.8042 33.5239 69.1337 33.5789 69.4566 33.6618C71.5665 33.959 73.6327 34.5104 75.6104 35.3038C75.9591 35.4475 76.3694 35.5706 76.7386 35.7348C77.7253 40.2973 78.1319 44.9661 77.9489 49.6306Z" fill="url(#paint9_linear_8_29709)"/>
<path style="mix-blend-mode:multiply" opacity="0.5" d="M69.8872 62.0484L61.1693 54.0229L46.5026 40.4967L45.1283 38.7725C43.8359 37.1305 42.7077 35.5911 41.7641 34.2775C39.9385 31.7323 38.8103 29.9671 38.8103 29.9671C38.8103 29.9671 41.2513 30.6034 44.8616 19.7044C44.8616 19.4991 44.9847 19.2939 45.0667 19.0886C43.2821 25.2463 46.6667 29.0435 53.5795 37.0073C60.4924 44.9712 66.4616 50.5952 68.5539 57.3481C69.4975 60.2216 69.8872 62.0484 69.8872 62.0484Z" fill="url(#paint10_linear_8_29709)"/>
<path style="mix-blend-mode:screen" d="M57.4361 0C56.8262 0.936418 56.3303 1.94247 55.9592 2.99672C52.518 6.10604 49.5406 9.69353 47.1182 13.6494C50.0813 8.75809 53.5388 4.18427 57.4361 0V0Z" fill="url(#paint11_linear_8_29709)"/>
<path style="mix-blend-mode:screen" d="M58.236 6.91706C57.8398 7.30149 57.4633 7.70567 57.1078 8.12807C56.7181 8.5591 56.3693 9.01066 56.0206 9.48275C55.6719 9.95483 55.4052 10.3653 55.077 10.8169C54.7488 11.2685 54.5437 11.5969 54.2975 12.0279C54.1968 12.1639 54.1076 12.3081 54.0309 12.4589L53.7847 12.8489C52.554 14.9015 51.7334 16.5846 51.5283 16.954C53.0237 13.3021 54.9742 9.85394 57.3334 6.69128L58.236 6.91706Z" fill="url(#paint12_linear_8_29709)"/>
<path style="mix-blend-mode:multiply" opacity="0.5" d="M61.2513 50.8416C83.6103 14.6552 59.8154 11.8432 59.8154 11.8432C59.8154 11.8432 64.5129 10.9606 69.0257 18.0008C74.6257 26.7036 78.5847 43.2061 76.1847 51.9705C73.8462 60.3859 61.2513 50.8416 61.2513 50.8416Z" fill="url(#paint13_linear_8_29709)"/>
<path d="M13.1079 49.7332C11.4258 51.5599 10.113 52.9557 9.00529 54.0641C7.09759 55.9934 6.154 56.8145 6.154 56.8145C5.70529 55.9699 5.34112 55.083 5.06683 54.1667C4.5228 52.7106 4.28921 51.1567 4.38106 49.6049C4.47291 48.0531 4.88817 46.5377 5.60016 45.156C6.70675 43.5075 8.25749 42.2065 10.0727 41.4037C11.8879 40.6008 13.8933 40.3291 15.8566 40.6199C15.9591 41.0509 17.8668 44.4787 13.1079 49.7332Z" fill="url(#paint14_radial_8_29709)"/>
<path d="M15.4873 43.1035C8.43084 41.7899 5.6411 49.3843 8.3693 53.6125C11.0975 57.8408 15.4873 43.1035 15.4873 43.1035Z" fill="url(#paint15_radial_8_29709)"/>
<path d="M91.6718 72.9474C91.2017 72.2162 90.6661 71.5292 90.0718 70.8949L89.8257 70.6691C89.268 69.9803 88.5735 69.4148 87.7861 69.0085C86.9987 68.6022 86.1356 68.3639 85.2513 68.3087C83.2001 68.4729 78.277 77.4014 67.118 84.729C66.2975 85.2832 65.4565 85.7963 64.5744 86.3095L63.118 87.11C62.1744 87.6231 61.2103 88.1157 60.2257 88.5673L59.3847 88.9367C58.0934 89.5322 56.772 90.0598 55.4257 90.5172C55.2941 90.5955 55.1472 90.6445 54.9949 90.6609C54.9224 90.6895 54.8418 90.6895 54.7693 90.6609L54.4206 90.8046L53.7641 91.0098C52.7757 91.3525 51.769 91.6403 50.7488 91.8719C50.3795 91.995 50.0308 92.0771 49.6821 92.1592C49.4551 92.2308 49.2214 92.279 48.9847 92.3029H48.6565C48.28 92.4228 47.8963 92.5187 47.5077 92.5903H47.3231C46.8924 92.6929 46.4411 92.775 46.0103 92.8366L43.8565 93.1855H43.5488C43.0154 93.1855 42.4821 93.3497 41.9077 93.4113H41.1488H41.0257H40.3283C40.0894 93.4323 39.8492 93.4323 39.6103 93.4113H39.2001H38.5026C37.3129 93.4113 36.1642 93.4113 35.0565 93.4113H34.1129C33.5385 93.4113 32.9642 93.4113 32.3898 93.2471H32.1231H31.6103C30.4821 93.1034 29.3744 92.8982 28.3077 92.6518C27.9795 92.6518 27.6513 92.5082 27.3642 92.4055C26.6115 92.229 25.8714 92.0028 25.1488 91.7282C24.8001 91.7282 24.4513 91.4819 24.1231 91.3587H23.9385H23.7334C16.2186 88.1203 9.98675 82.4836 6.01031 75.3284C0.512874 66.564 -0.840972 57.3481 0.451335 56.5271C0.947738 56.4421 1.43527 56.3115 1.90775 56.1371H2.05134C2.99123 55.8249 3.86689 55.3451 4.63595 54.7208L4.98467 54.3308C5.47698 53.7151 6.318 52.5246 7.44621 50.9441C9.3628 48.2143 11.4167 45.5837 13.6001 43.0624C14.277 42.3029 14.9949 41.523 15.6513 40.7635C16.3077 40.0041 16.9642 39.4704 17.7026 38.8341C20.4957 36.1934 23.7133 34.0423 27.2206 32.4712C31.0471 30.7214 35.3646 30.3657 39.4257 31.4655H39.6513C40.4513 31.7118 41.2924 31.9991 42.1334 32.3275C42.386 32.414 42.6326 32.5169 42.8718 32.6354L43.3847 32.8407L43.7334 33.0049C44.8 33.4564 45.7847 33.9696 46.9539 34.5443L47.3847 34.7496L48.718 35.4885L49.7436 36.0837C50.0513 36.2274 50.3385 36.4326 50.6052 36.5763C50.8718 36.72 51.6103 37.1716 52.0821 37.5L53.0872 38.1568C54.2359 38.8957 55.4052 39.6757 56.5539 40.5172L57.6 41.2561C57.8337 41.4017 58.0596 41.5592 58.277 41.7282C58.9334 42.2003 59.5488 42.6724 60.1847 43.165L61.3949 44.0681L62.3795 44.8275L63.7539 45.9359C67.3231 48.8095 70.7283 51.683 73.6821 54.3103L74.1129 54.6798L74.6052 55.0903C74.7422 55.1908 74.8662 55.308 74.9744 55.4392L78.1744 58.2307L79.0975 59.0517C82.0718 61.6584 84.1847 63.3415 84.9436 63.362C85.7659 63.3346 86.5692 63.1073 87.284 62.6996C87.9988 62.2919 88.6036 61.7161 89.0462 61.0221C89.2479 60.7249 89.4328 60.4165 89.6001 60.0985L89.8462 61.9252L91.6718 72.9474Z" fill="url(#paint16_radial_8_29709)"/>
<path style="mix-blend-mode:multiply" opacity="0.5" d="M2.40016 61.8226C2.37322 62.0133 2.37322 62.2067 2.40016 62.3973C2.33276 62.2117 2.33276 62.0083 2.40016 61.8226Z" fill="url(#paint17_linear_8_29709)"/>
<path style="mix-blend-mode:multiply" opacity="0.5" d="M13.9489 69.1297C12.5732 69.346 11.1657 69.2263 9.84632 68.7807C8.34974 67.7614 7.09037 66.4313 6.15401 64.8809C5.37005 63.7068 4.43945 62.6376 3.38478 61.6994C3.30447 61.6755 3.21893 61.6755 3.13862 61.6994C2.95816 61.644 2.76524 61.644 2.58478 61.6994C2.44119 61.6994 2.35914 61.8226 2.33862 61.9047C2.33862 61.1863 2.68734 60.0164 3.91811 60.0164C4.6976 60.0164 5.96939 62.4794 7.36426 64.7988L8.00016 65.6814C8.52959 66.7893 9.30066 67.7642 10.2566 68.5344C11.4185 69.0379 12.6878 69.2425 13.9489 69.1297Z" fill="url(#paint18_linear_8_29709)"/>
<path d="M128 44.4171C128.007 44.5196 128.007 44.6225 128 44.725C127.602 46.0478 127.136 47.3494 126.605 48.6248C126.359 49.1585 126.113 49.7537 125.826 50.39C125.313 51.5189 124.656 52.7299 123.939 53.982C123.795 54.2283 123.672 54.4746 123.508 54.7209C121.209 58.6299 118.172 62.0531 114.564 64.7989C104.574 72.1675 102.256 72.3933 102.256 72.4138L102.544 72.5575C102.625 72.5415 102.709 72.5415 102.79 72.5575C103.303 72.8038 104.144 73.2348 105.108 73.789C105.267 73.87 105.418 73.9663 105.559 74.0764C106.124 74.3959 106.672 74.7453 107.2 75.1232L107.754 75.4926L108.308 75.8621C110.345 77.1954 111.904 79.1439 112.759 81.4245C112.759 81.5271 112.759 81.6092 112.759 81.6913C113.255 85.2285 113.311 88.8138 112.923 92.3646H112.821C112.472 92.2414 111.774 91.9951 110.769 91.6051C110.538 91.5158 110.312 91.413 110.092 91.2972C109.908 91.2972 109.703 91.133 109.497 91.0715L108.923 90.7841C108.144 90.4146 107.282 89.9836 106.38 89.45H106.154C105.85 89.2419 105.535 89.0501 105.21 88.8752L104.185 88.2184L102.954 87.3974C102.646 87.1716 102.318 86.9664 102.031 86.7201C101.744 86.4738 100.964 85.9196 100.41 85.4885L99.5898 84.7701C99.3026 84.5444 99.0359 84.3186 98.7488 84.0518L97.6411 82.9844L96.6975 81.9171C94.3928 79.1506 92.449 76.1021 90.9129 72.8449C90.5642 72.1881 90.277 71.5107 90.0103 70.8949C89.1418 69.1375 87.6276 67.7842 85.7847 67.1183C87.2538 65.3015 88.5259 63.3337 89.5795 61.248C90.9129 57.5124 93.2924 52.771 96.8411 50.6774C100.966 48.8866 105.324 47.691 109.785 47.1265C118.38 45.3613 128 44.4171 128 44.4171Z" fill="url(#paint19_linear_8_29709)"/>
<g style="mix-blend-mode:multiply" opacity="0.4">
<path d="M82.1949 63.6289C80.9528 61.9448 79.5288 60.4029 77.9488 59.0312C77.6411 58.7849 77.3539 58.477 77.0667 58.2102C77.014 58.1896 76.9554 58.1896 76.9026 58.2102C76.4411 58.3961 75.9395 58.4597 75.4462 58.3949C75.1539 58.3572 74.881 58.2279 74.6667 58.0254C74.4188 57.72 74.3009 57.3293 74.3385 56.9376C74.3385 56.8144 74.3385 56.6502 74.3385 56.486C74.3484 56.322 74.3484 56.1575 74.3385 55.9934C74.3385 55.9934 74.3385 55.8087 74.3385 55.7266L73.6206 55.0903L73.2924 54.8029L71.3642 53.0788C71.4233 53.8601 71.3888 54.6456 71.2616 55.4187C71.2369 55.7379 71.182 56.0541 71.0975 56.3629C71.1067 56.4859 71.1067 56.6094 71.0975 56.7323C71.116 56.8617 71.116 56.993 71.0975 57.1223V57.2249C70.8603 58.2455 70.3497 59.1822 69.6206 59.9343C69.5048 60.065 69.3432 60.1458 69.1693 60.1601C68.5744 60.1601 68.2462 58.4975 67.4872 56.055C67.4657 55.8865 67.4244 55.7212 67.3642 55.5624C67.2616 55.2135 67.1385 54.9056 67.0154 54.5156C66.8923 54.1256 67.0154 54.3103 67.0154 54.1667C67.0154 54.023 67.0154 54.1667 67.0154 54.1667C67.0059 54.0986 67.0059 54.0295 67.0154 53.9614C66.596 52.6827 66.0888 51.4345 65.4975 50.2258C64.9944 49.2311 64.4256 48.2711 63.7949 47.3522C63.3761 46.6819 62.9171 46.0376 62.4206 45.4228L61.7436 44.9097L60.9436 44.335L60.2462 43.8218C60.0843 43.7291 59.933 43.619 59.7949 43.4934L57.4359 42.3029L56.8411 41.8924C56.5949 41.7282 56.3488 41.6051 56.1436 41.4409C54.6988 40.5092 53.183 39.6925 51.6103 38.9983C51.5463 38.9561 51.4774 38.9216 51.4052 38.8957L49.8667 38.28C49.4984 38.1226 49.1218 37.9855 48.7385 37.8695L48.3898 37.7463C48.0691 37.6153 47.7402 37.5056 47.4052 37.4179L46.5847 37.1511C45.5511 36.8277 44.4847 36.6211 43.4052 36.5353C43.3382 36.5159 43.2671 36.5159 43.2 36.5353H43.077C42.9342 36.513 42.7889 36.513 42.6462 36.5353C41.1077 36.5353 40.759 37.3358 40.7385 38.0337C40.7385 39.3883 47.8154 44.766 47.5077 47.3317C47.4863 47.5021 47.4863 47.6744 47.5077 47.8448C47.7334 50.4926 51.877 55.4187 51.877 55.4187L49.5385 55.5829C50.0688 58.2352 50.3843 60.9259 50.4821 63.6289C50.277 65.2299 49.1693 68.8424 42.3795 72.0443L40.9436 72.6601C33.9488 75.5337 34.0513 74.0353 32.4718 74.3227C32.1786 74.3368 31.8918 74.4138 31.6308 74.5484C30.4001 75.0205 30.9129 75.3284 31.959 75.5131C32.4513 75.6158 33.0667 75.6773 33.6616 75.7389H34.4001H35.118H35.6103H35.7744C36.3429 75.6893 36.8949 75.5215 37.3949 75.2463C37.6248 75.1692 37.8451 75.0659 38.0513 74.9384C38.7077 74.5895 39.3642 74.1995 39.877 73.8916L39.5488 74.1585L38.3385 75.1026C37.4385 75.8091 36.5886 76.5772 35.7949 77.4015C34.8718 78.3662 34.1949 79.2693 34.2975 79.9261C34.5847 81.5476 41.9077 77.5862 47.0154 81.3424C48.4111 81.1799 49.7314 80.6223 50.8214 79.7352C51.9115 78.8481 52.726 77.6682 53.1693 76.3341C53.7231 74.6921 53.6411 73.3169 53.8872 73.2964C54.1334 73.2759 55.4257 74.3021 56.1847 75.7184C56.5213 76.2969 56.7269 76.9423 56.7872 77.609C56.8474 78.2758 56.7608 78.9476 56.5334 79.5772C55.0755 82.4842 53.3154 85.2292 51.2821 87.7668C51.159 87.931 51.0154 88.0747 50.9334 88.1979L50.1539 89.142V89.2652H50.4821H51.6103C52.056 89.2488 52.4975 89.1729 52.9231 89.0394C53.8736 88.8177 54.7329 88.3089 55.3847 87.5821C56.7044 85.8362 58.4199 84.4292 60.3898 83.477V87.3358V87.8079C60.5 87.6518 60.5832 87.4784 60.6359 87.2947C61.8462 84.4006 60.8411 78.5714 62.5026 77.032C63.8154 75.8826 63.5898 79.6593 63.3642 82.0197C67.1241 80.167 70.7808 78.1114 74.318 75.8621C82.1949 70.6486 83.0359 65.8456 82.1949 63.6289ZM59.118 44.8481C59.581 44.8119 60.0468 44.8606 60.4924 44.9918C60.6678 45.0488 60.8338 45.1318 60.9847 45.2381C61.2921 45.429 61.535 45.7078 61.6821 46.0386C61.7794 46.3084 61.828 46.5933 61.8257 46.8801C61.8257 46.8801 58.9334 45.6691 58.7283 45.1355C58.6462 44.9918 58.7693 44.8892 59.118 44.8481ZM56.9642 47.2085C57.477 45.5665 60.1436 47.7832 62.0103 49.5895C63.0359 50.5747 63.8154 51.4368 63.8154 51.4368C64.4142 51.8724 64.8538 52.4925 65.0667 53.202C65.0667 53.202 65.0667 53.202 65.0667 53.3046C65.0758 53.3238 65.0806 53.3449 65.0806 53.3662C65.0806 53.3875 65.0758 53.4085 65.0667 53.4277C65.2308 53.7972 65.3539 54.2282 65.4975 54.6593C65.6411 55.0903 65.4975 54.9877 65.6411 55.1519C65.6252 55.2745 65.6252 55.3987 65.6411 55.5213C65.9104 56.5881 66.1091 57.6714 66.2359 58.7644C66.5721 60.0351 66.493 61.3801 66.0103 62.6026C65.2308 63.3005 60.8001 56.9786 58.3385 52.0936C58.1539 51.7241 57.9693 51.3547 57.8052 50.9647C57.5807 50.5321 57.382 50.0866 57.2103 49.6305C57.0719 49.3592 56.9751 49.0686 56.9231 48.7685C56.8251 48.5385 56.7562 48.2972 56.718 48.0501C56.7088 47.9751 56.7088 47.8993 56.718 47.8243C56.7509 47.6026 56.8352 47.3918 56.9642 47.2085ZM61.2718 71.5517C62.1129 72.619 58.5847 76.1699 57.477 75C57.4359 75.041 60.4103 70.5049 61.2718 71.5928V71.5517Z" fill="#C74CBD"/>
</g>
<path style="mix-blend-mode:multiply" opacity="0.5" d="M45.3539 60.5706C45.3539 60.5706 36.595 70.9565 27.118 68.3703C17.6411 65.7841 17.6821 52.0936 19.7745 48.4606C20.5153 47.6058 21.3477 46.8349 22.2565 46.1617C24.0281 44.7845 26.0559 43.774 28.2218 43.189C30.3877 42.604 32.6484 42.4563 34.8719 42.7545C36.9999 43.078 38.9894 44.0093 40.6013 45.4365C42.2133 46.8638 43.3792 48.7263 43.9591 50.8005C43.9641 50.8345 43.9641 50.8691 43.9591 50.9031C43.9591 50.9031 43.9591 50.9031 43.9591 51.0057C44.9864 54.0862 45.4587 57.3248 45.3539 60.5706Z" fill="url(#paint20_linear_8_29709)"/>
<path d="M21.5386 49.2611C18.7489 52.6888 17.6207 66.8514 29.2514 68.6782C40.8822 70.5049 44.8001 63.0337 45.2514 61.2069C46.0104 58.0665 44.6155 44.9918 34.5027 44.1913C32.1045 44.0535 29.7049 44.4351 27.4675 45.3101C25.2302 46.185 23.2079 47.5327 21.5386 49.2611Z" fill="url(#paint21_radial_8_29709)"/>
<path d="M43.4053 56.445C43.5264 58.0396 43.1722 59.6344 42.3876 61.0276C41.603 62.4209 40.4232 63.5501 38.9974 64.2725C37.5715 64.9949 35.9636 65.2781 34.3769 65.0862C32.7902 64.8944 31.296 64.2361 30.0831 63.1947C28.8703 62.1532 27.9932 60.7753 27.5629 59.2352C27.1326 57.695 27.1682 56.0618 27.6654 54.5419C28.1626 53.022 29.0989 51.6838 30.3561 50.6963C31.6133 49.7089 33.1348 49.1166 34.7284 48.9943C35.7871 48.913 36.8515 49.0413 37.8606 49.3718C38.8698 49.7024 39.804 50.2286 40.6098 50.9206C41.4156 51.6125 42.0772 52.4565 42.5569 53.4044C43.0366 54.3524 43.3248 55.3856 43.4053 56.445Z" fill="url(#paint22_radial_8_29709)"/>
<path style="mix-blend-mode:screen" d="M40.9027 56.2603C40.9769 57.2518 40.7557 58.243 40.267 59.1087C39.7784 59.9744 39.0442 60.6757 38.1574 61.1241C37.2705 61.5724 36.2707 61.7476 35.2843 61.6276C34.298 61.5075 33.3693 61.0976 32.6157 60.4496C31.8621 59.8017 31.3174 58.9447 31.0503 57.987C30.7833 57.0293 30.806 56.014 31.1155 55.0692C31.425 54.1244 32.0075 53.2926 32.7893 52.679C33.5711 52.0653 34.5171 51.6974 35.5079 51.6215C36.1672 51.5684 36.8305 51.6465 37.4594 51.8513C38.0883 52.0562 38.6705 52.3838 39.1721 52.8151C39.6738 53.2465 40.085 53.773 40.3821 54.3644C40.6791 54.9557 40.8561 55.6001 40.9027 56.2603Z" fill="url(#paint23_radial_8_29709)"/>
<path d="M39.8359 56.0755C39.8987 56.8857 39.7198 57.6964 39.3217 58.4048C38.9237 59.1132 38.3245 59.6874 37.6 60.0547C36.8756 60.4221 36.0585 60.566 35.2522 60.4682C34.4459 60.3705 33.6868 60.0355 33.0709 59.5056C32.4551 58.9758 32.0103 58.275 31.7928 57.492C31.5754 56.709 31.5951 55.879 31.8495 55.1073C32.1038 54.3355 32.5814 53.6566 33.2217 53.1566C33.862 52.6567 34.6362 52.3581 35.4462 52.2988C36.5282 52.2196 37.5976 52.5724 38.4203 53.2802C39.243 53.988 39.752 54.9931 39.8359 56.0755Z" fill="#1C1249"/>
<path style="mix-blend-mode:screen" d="M43.7745 53.633C44.0412 57.1428 40.9437 57.5533 37.436 57.7381C33.9283 57.9228 26.5642 55.0082 26.3181 51.5804C26.0719 48.1527 30.7694 44.5197 36.5745 45.1149C39.9796 45.5049 43.5078 50.1231 43.7745 53.633Z" fill="url(#paint24_radial_8_29709)"/>
<path d="M29.4977 56.8145C29.4977 57.615 28.6771 58.3539 27.4464 58.436C26.2156 58.5181 25.3951 57.9434 25.2515 57.1224C25.1079 56.3013 26.072 55.583 27.3028 55.5009C28.5336 55.4188 29.4361 56.014 29.4977 56.8145Z" fill="white"/>
<path d="M9.7642 46.4901C9.7642 47.1059 8.88215 47.4753 8.0001 47.3317C7.11805 47.188 6.52317 46.5927 6.62574 45.977C6.7283 45.3612 7.50779 44.9918 8.36933 45.1354C9.23087 45.2791 9.84625 45.8744 9.7642 46.4901Z" fill="white"/>
<path d="M6.15384 64.881C4.99481 64.2354 3.68518 63.9096 2.35897 63.9368C2.31947 63.4518 2.31947 62.9645 2.35897 62.4795C2.34291 62.1537 2.44488 61.833 2.64615 61.5764C2.82661 61.5209 3.01954 61.5209 3.2 61.5764C3.2803 61.5524 3.36585 61.5524 3.44615 61.5764C4.48736 62.5565 5.39748 63.6672 6.15384 64.881Z" fill="#1C1249"/>
<path d="M3.26162 61.5764L3.44624 61.7201C3.36594 61.6961 3.28039 61.6961 3.20009 61.7201C3.01963 61.6646 2.8267 61.6646 2.64624 61.7201C2.71805 61.6308 2.81766 61.5681 2.92919 61.5421C3.04072 61.5161 3.15775 61.5281 3.26162 61.5764Z" fill="#1C1249"/>
<path d="M29.0256 33.867C29.0256 33.867 33.559 34.9754 35.5282 32.7586C35.5282 32.8407 30.9744 30.7882 29.0256 33.867Z" fill="white"/>
<path style="mix-blend-mode:screen" d="M64.5333 86.3506L63.0769 87.1511C62.1333 87.6642 61.1692 88.1569 60.1846 88.6084L59.3436 88.9779C58.0523 89.5734 56.7309 90.1009 55.3846 90.5583C55.253 90.6366 55.1061 90.6856 54.9538 90.702C54.8813 90.7306 54.8007 90.7306 54.7282 90.702L54.3795 90.8457L53.7231 91.051C52.7346 91.3937 51.7279 91.6815 50.7077 91.913C50.3385 92.0362 49.9897 92.1183 49.641 92.2004C49.4141 92.2719 49.1804 92.3201 48.9436 92.3441H48.6154C48.2389 92.4639 47.8552 92.5599 47.4667 92.6314H47.282C46.8513 92.734 46.4 92.8161 45.9692 92.8777L43.8154 93.2266H43.5077C42.9743 93.2266 42.441 93.3908 41.8667 93.4524H41.1077H41.0256H40.3282C40.0893 93.4734 39.8491 93.4734 39.6102 93.4524H39.2H38.5026C37.3128 93.4524 36.1641 93.4524 35.0564 93.4524H34.1128C33.5385 93.4524 32.9641 93.4524 32.3897 93.2882H32.1231H31.6103C30.482 93.1445 29.3744 92.9393 28.3077 92.693C27.9795 92.693 27.6513 92.5493 27.3641 92.4467C26.6115 92.2702 25.8714 92.0439 25.1487 91.7693C24.8 91.7693 24.4513 91.523 24.1231 91.3999H23.9385H23.7333C16.2186 88.1614 9.98669 82.5247 6.01025 75.3695C10.1128 80.9524 16.2667 87.6848 24.6154 90.5994H24.7795L25.1282 90.7225L26.1333 91.0099H26.4205L27.1179 91.1741C27.4353 91.26 27.7572 91.3286 28.082 91.3794C28.4923 91.5025 28.9231 91.5641 29.3333 91.6462C29.8872 91.7693 30.4205 91.8514 30.9744 91.9335H31.6103H32.0615C32.4308 91.9335 32.841 91.9335 33.2103 92.0567C33.4834 92.0759 33.7576 92.0759 34.0308 92.0567H35.4051C36.3897 92.0567 37.4564 92.0567 38.3385 92.0567H39.241C39.4661 92.0784 39.6928 92.0784 39.9179 92.0567H41.2923H42.9744C43.0619 92.035 43.1535 92.035 43.241 92.0567L44.7385 91.8925H45.2308L47.4051 91.5641C47.8427 91.5641 48.2735 91.482 48.6974 91.3178H49.0667H49.6C49.7391 91.3154 49.8745 91.2726 49.9897 91.1946C51.0151 91.0501 52.0247 90.8095 53.0051 90.4762C53.0502 90.4966 53.0992 90.5072 53.1487 90.5072C53.1982 90.5072 53.2472 90.4966 53.2923 90.4762C53.8051 90.3531 54.2974 90.2094 54.7897 90.0452H55.0359C56.2256 89.6963 57.3333 89.3268 58.441 88.8958C58.7487 88.7521 59.0769 88.6495 59.4051 88.4853C60.6164 88.0324 61.8012 87.5116 62.9538 86.9253C63.4667 86.9048 64 86.638 64.5333 86.3506Z" fill="url(#paint25_linear_8_29709)"/>
<path style="mix-blend-mode:multiply" opacity="0.5" d="M47.3028 92.0361C47.3791 92.7949 47.3095 93.5613 47.0977 94.2939C47.2408 93.55 47.3095 92.7937 47.3028 92.0361Z" fill="url(#paint26_linear_8_29709)"/>
<path style="mix-blend-mode:multiply" opacity="0.5" d="M49.0873 109.934C49.0873 109.934 48.8822 110.242 48.554 110.632L49.0873 109.934Z" fill="url(#paint27_linear_8_29709)"/>
<path style="mix-blend-mode:multiply" opacity="0.5" d="M112.923 92.3645H112.821C112.472 92.2414 111.774 91.9951 110.769 91.6051C110.538 91.5157 110.312 91.4129 110.092 91.2972C109.908 91.2972 109.703 91.133 109.498 91.0714L108.923 90.7841C108.144 90.4146 107.282 89.9836 106.38 89.4499H106.154C105.85 89.2419 105.535 89.05 105.21 88.8752L104.185 88.2184L102.954 87.3974C102.646 87.1716 102.318 86.9663 102.031 86.72C101.744 86.4737 100.964 85.9195 100.41 85.4885L99.5898 84.7701C99.3027 84.5443 99.036 84.3186 98.7488 84.0517L97.6411 82.9844C103.918 88.4236 111.056 90.702 111.487 90.0041C111.918 89.3062 104.246 82.6765 103.549 82.1018C105.832 83.6305 108.249 84.9495 110.769 86.0427C112.656 86.6995 112.821 83.1691 112.821 81.5271C112.821 81.6297 112.821 81.7118 112.821 81.7939C113.288 85.2999 113.323 88.8501 112.923 92.3645Z" fill="url(#paint28_linear_8_29709)"/>
<path style="mix-blend-mode:multiply" opacity="0.5" d="M127.918 44.725C127.52 46.0478 127.054 47.3494 126.523 48.6248C126.277 49.1585 126.031 49.7537 125.744 50.39C125.231 51.5189 124.574 52.7299 123.857 53.982C123.713 54.2283 123.59 54.4746 123.426 54.7209C121.127 58.6299 118.09 62.053 114.482 64.7989C104.492 72.1675 102.174 72.3933 102.174 72.4138L102.462 72.5575C102.543 72.5414 102.627 72.5414 102.708 72.5575C103.221 72.8038 104.062 73.2348 105.026 73.789C105.185 73.87 105.336 73.9662 105.477 74.0764C106.042 74.3959 106.59 74.7453 107.118 75.1232L107.672 75.4926L108.226 75.8621C103.145 73.375 97.9266 71.182 92.595 69.2939C95.134 69.7028 97.6964 69.9496 100.267 70.0329C105.518 70.0329 115.795 63.4237 115.118 63.1568C112.246 62.0279 98.5642 63.0542 98.5642 63.0542C98.5642 63.0542 116.513 59.9138 121.764 55.4598C122.051 55.234 122.318 55.0287 122.544 54.8235L105.539 58.9286C108.657 57.9844 121.744 53.9409 124.821 50.431C114.708 53.3662 101.887 55.1724 100.328 55.4187C102.257 54.8851 121.026 49.9179 127.918 44.725Z" fill="url(#paint29_linear_8_29709)"/>
<path style="mix-blend-mode:screen" d="M78.6053 66.2151C78.1746 68.2676 68.2258 73.2143 56.2258 75.9442C55.2276 76.1631 54.2224 76.3683 53.2105 76.5599C47.5174 77.7214 41.6891 78.0738 35.8976 77.6067C37.3422 76.1895 38.8994 74.8921 40.5541 73.7274C39.4669 74.4458 36.7182 76.1905 35.631 76.0057C34.5438 75.821 29.0053 75.6568 31.5284 74.6305C34.0515 73.6043 32.8207 76.0468 40.8617 72.7422C48.9028 69.4376 51.3028 66.5846 51.5079 64.963C51.3984 62.2609 51.083 59.5711 50.5643 56.9171L51.7951 55.4803C51.7951 55.4803 47.6925 50.4721 47.3848 47.7422C54.2125 48.2369 60.8004 50.4696 66.5233 54.2282C68.0617 55.1724 69.4771 56.1576 70.7899 57.1223C75.8976 60.7964 78.9746 64.532 78.6053 66.2151Z" fill="url(#paint30_linear_8_29709)"/>
<path d="M18.2361 55.4187C18.2361 55.4187 18.5438 64.6552 24.1643 67.6108C27.4977 69.3735 31.3168 69.9936 35.0361 69.376C31.1726 70.463 27.0843 70.463 23.2207 69.376C17.2515 67.5082 18.2361 55.4187 18.2361 55.4187Z" fill="url(#paint31_radial_8_29709)"/>
<path d="M72.1026 111.946C72.2181 113.63 72.17 115.321 71.959 116.995C71.9407 117.326 71.8996 117.655 71.8359 117.98C71.8359 118.268 71.7334 118.555 71.6718 118.842C71.6103 119.13 71.5282 119.417 71.4667 119.704C71.4066 119.962 71.3312 120.215 71.2411 120.464C70.8958 121.977 70.1923 123.385 69.1898 124.569C69.1898 124.569 68.1641 123.953 66.4205 122.722L65.6411 122.209C63.5898 120.772 60.9436 118.781 58.0103 116.359L57.0667 115.579C55.877 114.553 54.6462 113.526 53.4154 112.315L51.9795 110.981L50.4411 109.442L49.8462 108.826C49.2923 108.251 48.718 107.656 48.1846 107.04C47.6513 106.424 47.118 105.85 46.6052 105.234C46.3079 104.913 46.0272 104.578 45.7641 104.228C45.5795 104.023 45.3949 103.777 45.2308 103.571C45.1695 103.501 45.1145 103.426 45.0667 103.346C44.6154 102.75 44.1641 102.196 43.7539 101.601C42.9949 100.554 42.2975 99.5485 41.7026 98.4196C41.1077 97.2907 40.8 96.7775 40.3898 95.9565C39.9795 95.1355 39.7539 94.5403 39.5077 93.904C39.4512 93.7914 39.4032 93.6748 39.3641 93.555L39.118 92.9187C38.8308 92.0156 38.5846 91.1946 38.4 90.4352C38.3189 90.1454 38.2572 89.8506 38.2154 89.5526C38.0383 88.6451 37.9286 87.7258 37.8872 86.8022C37.8872 86.4738 37.8872 86.1864 37.8872 85.899C37.9217 85.1614 38.0109 84.4273 38.1539 83.7028C38.2835 82.9516 38.601 82.2455 39.077 81.6503C39.4207 81.3159 39.8707 81.1125 40.3487 81.0756C40.5394 81.1957 40.6966 81.3623 40.8055 81.5597C40.9144 81.7571 40.9715 81.979 40.9715 82.2045C40.9715 82.43 40.9144 82.6518 40.8055 82.8492C40.6966 83.0466 40.5394 83.2132 40.3487 83.3334C40.5105 83.6523 40.7029 83.9548 40.9231 84.2365C41.0337 84.3968 41.1572 84.5478 41.2923 84.688C41.8043 85.296 42.4061 85.822 43.077 86.248C43.9864 86.8502 45.0149 87.2492 46.0923 87.4179C46.9884 87.5532 47.8939 87.615 48.8 87.6027H49.5795C50.0103 87.6027 50.4821 87.6027 50.9539 87.6027C52.2462 87.6027 53.6411 87.6027 55.0564 87.4179H55.959L59.3231 87.2127H60C60.0809 87.2327 60.1653 87.2327 60.2462 87.2127H60.4308H62.6667H62.8513C63.8826 87.1422 64.9175 87.1422 65.9487 87.2127H66.4616C68.4385 87.4996 70.3737 88.0234 72.2257 88.7726C70.6667 88.3554 69.0256 88.3554 67.4667 88.7726C67.0201 88.9394 66.6216 89.214 66.3066 89.5721C65.9917 89.9302 65.7701 90.3607 65.6616 90.8252C65.5975 91.0402 65.5495 91.2598 65.518 91.482C65.4312 93.7644 65.9253 96.0315 66.9539 98.0706C67.7128 99.8769 68.6564 101.806 69.518 103.797C70.135 105.131 70.6693 106.502 71.118 107.902C71.6197 109.202 71.9507 110.561 72.1026 111.946Z" fill="url(#paint32_linear_8_29709)"/>
<path style="mix-blend-mode:multiply" opacity="0.5" d="M71.959 116.995C71.9407 117.326 71.8996 117.655 71.8359 117.98C71.8359 118.268 71.7334 118.555 71.6718 118.842C71.6103 119.13 71.5282 119.417 71.4667 119.704C71.4066 119.962 71.3312 120.215 71.2411 120.464C70.8958 121.977 70.1923 123.385 69.1898 124.569C69.1898 124.569 68.1641 123.953 66.4205 122.722L65.6411 122.209C63.5898 120.772 60.9436 118.781 58.0103 116.359L57.0667 115.579C55.877 114.553 54.6462 113.526 53.4154 112.315L51.9795 110.981L50.4411 109.442L49.8462 108.826C49.2923 108.251 48.718 107.656 48.1846 107.04C47.6513 106.424 47.118 105.85 46.6052 105.234C46.3079 104.913 46.0272 104.578 45.7641 104.228C45.5795 104.023 45.3949 103.777 45.2308 103.571C45.1695 103.501 45.1145 103.426 45.0667 103.346C44.6154 102.75 44.1641 102.196 43.7539 101.601C42.9949 100.554 42.2975 99.5484 41.7026 98.4195C41.1077 97.2906 40.8 96.7775 40.3898 95.9565C39.9795 95.1355 39.7539 94.5402 39.5077 93.9039C39.4512 93.7914 39.4032 93.6748 39.3641 93.555L39.118 92.9187C38.8308 92.0156 38.5846 91.1946 38.4 90.4351C38.3189 90.1454 38.2572 89.8505 38.2154 89.5525C38.0383 88.6451 37.9286 87.7258 37.8872 86.8021C38.1045 87.4617 38.3649 88.1062 38.6667 88.7315C38.8103 88.9983 38.9539 89.2857 39.077 89.5731C39.2 89.8604 39.3846 90.1478 39.5693 90.4351C39.7539 90.7225 40.1026 91.3177 40.4308 91.7898L41.1487 92.8366L41.8257 93.6781C43.3469 95.4741 45.0596 97.0984 46.9334 98.5222L47.6308 99.0763C47.9592 99.3408 48.3016 99.5875 48.6564 99.8153C49.1077 100.185 49.6 100.493 50.0513 100.821L50.4 101.047C50.7925 101.346 51.2036 101.62 51.6308 101.868C55.4149 104.34 59.57 106.19 63.9385 107.348C66.3694 108.044 68.9058 108.294 71.4257 108.087C71.8337 109.331 72.0886 110.62 72.1846 111.925C72.2743 113.619 72.1987 115.316 71.959 116.995Z" fill="url(#paint33_linear_8_29709)"/>
<path style="mix-blend-mode:multiply" opacity="0.5" d="M69.7437 103.92C66.3699 104.181 62.9761 103.897 59.6924 103.079C57.2868 102.489 54.9493 101.65 52.7181 100.575C52.0412 100.246 51.3437 99.8973 50.6668 99.5279C50.5857 99.4614 50.496 99.4062 50.4001 99.3637C49.6024 98.8774 48.8352 98.3427 48.1027 97.7627C46.4345 96.4788 44.9017 95.0276 43.5283 93.4318C43.3043 93.2033 43.0921 92.9635 42.8924 92.7134C42.1745 91.8924 41.6001 91.1124 41.0873 90.4351C41.0873 90.4351 40.7181 89.8809 40.5335 89.6551C39.9386 88.7931 39.5899 88.1978 39.4463 87.972C39.5899 88.1978 40.0206 88.8136 40.636 89.6551C40.8001 89.8604 40.9848 90.0862 41.1694 90.353C41.7027 91.0303 42.3796 91.8103 43.2206 92.6313C43.4258 92.8776 43.6719 93.1239 43.8976 93.3702C45.2536 94.7585 46.737 96.016 48.3283 97.1264C49.0258 97.578 49.7232 98.009 50.4822 98.4195H50.5848C51.2398 98.771 51.9266 99.0596 52.636 99.2816C52.8827 99.4007 53.1452 99.4837 53.4155 99.5279C54.5288 99.818 55.6709 99.9832 56.8207 100.02C59.3719 100.046 61.9137 99.7074 64.3694 99.0147C65.3488 98.7491 66.3141 98.434 67.2617 98.0706C67.9386 100 68.8822 101.929 69.7437 103.92Z" fill="url(#paint34_linear_8_29709)"/>
<path style="mix-blend-mode:multiply" opacity="0.5" d="M67.6925 88.9368C67.2458 89.1036 66.8473 89.3783 66.5324 89.7363C66.2175 90.0944 65.9959 90.5249 65.8874 90.9894C64.7812 90.7998 63.6646 90.6764 62.5438 90.6199C60.2515 90.5476 57.957 90.6092 55.672 90.8046H54.7284C54.2566 90.8046 53.7643 90.8046 53.2925 90.8046C53.1703 90.8253 53.0455 90.8253 52.9232 90.8046C51.6918 90.8757 50.4565 90.8413 49.2309 90.702C48.7181 90.702 48.1848 90.5583 47.672 90.4762H47.5489C47.4808 90.4853 47.4118 90.4853 47.3438 90.4762C46.9738 90.4119 46.61 90.3158 46.2566 90.1889C45.7604 90.0418 45.2739 89.8636 44.8002 89.6552C44.5054 89.5348 44.2178 89.3978 43.9386 89.2447C43.7116 89.1446 43.4922 89.0279 43.2822 88.8958C43.9378 89.2194 44.6253 89.4739 45.3335 89.6552C46.11 89.8346 46.8983 89.9581 47.6925 90.0247H47.8771C48.3005 90.0554 48.7255 90.0554 49.1489 90.0247C49.9501 90.031 50.7511 89.9968 51.5489 89.922C52.3284 89.922 53.1079 89.7578 53.8668 89.6552L55.1181 89.491C56.6156 89.2858 58.072 89.0189 59.3848 88.8137C59.6648 88.7936 59.9458 88.7936 60.2258 88.8137C61.0377 88.5654 61.8675 88.3801 62.7079 88.2595C63.4271 88.2546 64.1462 88.2889 64.8617 88.3621C65.8153 88.5004 66.7604 88.6923 67.6925 88.9368Z" fill="url(#paint35_linear_8_29709)"/>
<path style="mix-blend-mode:multiply" opacity="0.5" d="M72.1028 111.946C72.2183 113.63 72.1702 115.321 71.9592 116.995C71.9409 117.326 71.8998 117.655 71.8361 117.98C71.8361 118.268 71.7336 118.555 71.672 118.842C71.6105 119.13 71.5284 119.417 71.4669 119.704C71.4068 119.962 71.3314 120.215 71.2413 120.464C70.896 121.977 70.1925 123.385 69.19 124.569C69.19 124.569 68.1643 123.953 66.4207 122.722L65.6413 122.209C63.59 120.772 60.9438 118.781 58.0105 116.359L57.0669 115.579C55.8772 114.553 54.6464 113.526 53.4156 112.315L51.9797 110.981L50.4413 109.442L49.8464 108.826C49.2925 108.251 48.7182 107.656 48.1848 107.04C47.6515 106.424 47.1182 105.85 46.6054 105.234C46.3081 104.913 46.0274 104.578 45.7643 104.228C45.5797 104.023 45.3951 103.777 45.231 103.571C45.1697 103.501 45.1147 103.426 45.0669 103.346L45.272 103.571C45.4977 103.797 45.7438 104.043 45.9695 104.31C46.2156 104.577 46.4413 104.844 46.7284 105.111C47.8156 106.26 49.1079 107.533 50.4413 108.785C54.0925 112.192 58.1336 115.25 59.8772 114.388L60.513 114.019C61.5073 113.207 62.3124 112.187 62.8722 111.031C63.4319 109.876 63.7329 108.612 63.7541 107.328C63.8488 106.491 63.6841 105.645 63.2823 104.906C62.2044 104.018 60.9434 103.38 59.59 103.038C58.7284 102.73 57.9079 102.484 57.272 102.299C58.3062 102.605 59.3957 102.675 60.4606 102.505C61.5256 102.334 62.5388 101.927 63.4259 101.314C63.9717 100.712 64.2782 99.9302 64.2874 99.1174C64.2613 96.1787 63.6693 93.2727 62.5438 90.5583H59.9592C60.1233 90.5583 62.8925 89.4499 64.8618 88.5057C65.5345 88.245 66.1534 87.8623 66.6874 87.3768C68.6643 87.6638 70.5996 88.1875 72.4515 88.9368C70.8926 88.5196 69.2515 88.5196 67.6925 88.9368C67.2459 89.1035 66.8474 89.3782 66.5325 89.7363C66.2175 90.0944 65.9959 90.5248 65.8874 90.9893C65.8234 91.2044 65.7754 91.4239 65.7438 91.6461C65.6571 93.9286 66.1512 96.1957 67.1797 98.2348C67.9387 100.041 68.8823 101.97 69.7438 103.961C70.3608 105.296 70.8952 106.667 71.3438 108.066C71.7552 109.323 72.0101 110.626 72.1028 111.946Z" fill="url(#paint36_linear_8_29709)"/>
<path style="mix-blend-mode:screen" d="M56.1848 87.541C55.9523 87.7479 55.7456 87.9823 55.5694 88.2389C55.4676 88.3777 55.3848 88.5296 55.3232 88.6904C55.2175 88.912 55.1416 89.1467 55.0976 89.3883C54.9952 89.8532 54.947 90.3285 54.954 90.8046C55.1291 93.1928 54.8649 95.593 54.1745 97.8858C53.9522 98.5067 53.6705 99.1047 53.3335 99.6716C53.1474 99.9851 52.9418 100.287 52.7181 100.575C52.395 101.05 52.0312 101.496 51.6309 101.909C50.4851 103.05 49.1532 103.987 47.6925 104.68L46.8309 105.07H46.6463C46.1745 104.516 45.7232 103.961 45.2925 103.387C45.7278 103.45 46.1699 103.45 46.6053 103.387C47.3845 103.327 48.1274 103.033 48.7355 102.542C49.3436 102.05 49.7882 101.386 50.0104 100.636C50.113 100.287 50.2156 99.9179 50.2976 99.5073C50.3074 99.3844 50.3074 99.2608 50.2976 99.1379C50.3507 98.8669 50.385 98.5926 50.4002 98.3169C50.3923 95.6558 49.9772 93.0115 49.1694 90.4762C49.1694 90.2299 49.0668 89.963 49.0053 89.7167C49.0153 89.6555 49.0153 89.5932 49.0053 89.532C48.9954 89.3474 48.9954 89.1624 49.0053 88.9778C48.9536 88.514 48.9536 88.0459 49.0053 87.5821C51.0976 87.8284 53.6617 87.7052 56.1848 87.541Z" fill="url(#paint37_linear_8_29709)"/>
<path style="mix-blend-mode:multiply" opacity="0.5" d="M60.6156 114.06C57.6835 112.737 54.9273 111.055 52.4105 109.052C51.8156 108.559 51.2002 108.087 50.6053 107.553C50.0105 107.02 49.0874 106.178 48.3489 105.501C48.1643 105.275 47.9592 105.07 47.754 104.844C47.3794 104.493 47.0298 104.115 46.7079 103.715C46.1335 103.038 45.5797 102.381 45.0258 101.663L44.472 100.944C43.9592 100.246 43.4669 99.5689 43.0566 98.8916C42.0114 97.3071 41.0989 95.6389 40.3284 93.9039C40.1811 93.5967 40.051 93.2814 39.9387 92.9597C39.5899 92.0977 39.3438 91.3177 39.1181 90.5582C39.1181 90.2709 38.9951 89.963 38.9335 89.6962C38.861 89.4194 38.8062 89.1384 38.7694 88.8546C38.6742 88.3125 38.6262 87.7631 38.6258 87.2126C38.5847 86.8649 38.5847 86.5135 38.6258 86.1658C38.6085 85.4452 38.7933 84.7342 39.1592 84.1133C39.2308 83.9738 39.3323 83.8518 39.4564 83.756C39.5805 83.6602 39.7241 83.593 39.8771 83.5591C40.126 83.4948 40.3872 83.4948 40.6361 83.5591C40.8268 83.4389 40.9839 83.2723 41.0928 83.0749C41.2017 82.8775 41.2588 82.6557 41.2588 82.4302C41.2588 82.2047 41.2017 81.9829 41.0928 81.7854C40.9839 81.588 40.8268 81.4214 40.6361 81.3013C40.1581 81.3382 39.7081 81.5416 39.3643 81.876C38.8884 82.4712 38.5708 83.1773 38.4412 83.9285C38.2982 84.653 38.2091 85.3871 38.1746 86.1247C38.1746 86.4121 38.1746 86.6995 38.1746 87.0279C38.2159 87.9515 38.3256 88.8708 38.5028 89.7783C38.5446 90.0763 38.6063 90.3711 38.6874 90.6609C38.872 91.4203 39.1181 92.2413 39.4053 93.1445L39.6515 93.7807C39.6905 93.9005 39.7385 94.0171 39.7951 94.1297C40.0412 94.7865 40.3284 95.4844 40.6771 96.1822C41.0258 96.8801 41.5181 97.8243 41.9899 98.6453C42.4617 99.4663 43.3233 100.698 44.0412 101.827C44.4515 102.422 44.9028 102.976 45.354 103.571C45.4019 103.651 45.4568 103.727 45.5182 103.797C45.6823 104.002 45.8669 104.249 46.0515 104.454C46.3145 104.803 46.5952 105.139 46.8925 105.46C47.4053 106.075 47.9387 106.671 48.472 107.266C49.0053 107.861 49.5797 108.477 50.1335 109.052L50.7284 109.667L52.2669 111.207L53.7028 112.541C54.9335 113.67 56.1643 114.778 57.354 115.805L58.2976 116.585C61.0053 118.781 63.5899 120.772 65.6412 122.208L66.2771 122.681C68.0207 123.912 69.0464 124.528 69.0464 124.528C70.0488 123.344 70.7523 121.936 71.0976 120.423C71.1878 120.174 71.2632 119.921 71.3233 119.663C71.3233 119.376 71.4669 119.109 71.5284 118.801C71.5899 118.493 71.631 118.227 71.6925 117.939C71.7562 117.614 71.7973 117.285 71.8156 116.954C67.9285 116.735 64.1227 115.751 60.6156 114.06ZM39.8976 81.4655C39.8761 81.6741 39.8349 81.8803 39.7746 82.0812C39.6515 82.4096 38.872 83.0049 38.872 83.0049C38.872 83.0049 38.4412 81.8555 39.8976 81.4655Z" fill="url(#paint38_linear_8_29709)"/>
<path style="mix-blend-mode:screen" d="M36.8 36.1454C36.8 36.1454 23.1795 38.5879 16.5744 46.7981C12.6491 51.545 10.425 57.4701 10.2564 63.6289C9.15799 61.2092 7.71383 58.9621 5.96926 56.9582C4.75587 56.1724 3.28881 55.8788 1.8667 56.1372H2.05131C2.99121 55.825 3.86686 55.3452 4.63593 54.7209L4.98465 54.3309C5.47696 53.7152 6.31798 52.5247 7.44619 50.9442C9.36278 48.2144 11.4167 45.5838 13.6 43.0624C14.277 42.303 14.9949 41.523 15.6513 40.7636C16.3077 40.0042 16.9641 39.4705 17.7026 38.8342C20.4957 36.1935 23.7133 34.0424 27.2205 32.4713L29.3744 33.3334L31.5693 34.216L36.8 36.1454Z" fill="url(#paint39_linear_8_29709)"/>
<path style="mix-blend-mode:screen" d="M126.769 45.3818C120.144 49.4869 93.2925 57.4508 93.1489 56.7119C93.4653 55.28 94.1099 53.9413 95.0319 52.8014C95.9539 51.6616 97.1281 50.7517 98.4617 50.1437C102.072 48.5017 126.769 45.3818 126.769 45.3818Z" fill="url(#paint40_linear_8_29709)"/>
<path style="mix-blend-mode:screen" d="M99.8359 58.6617C102.814 59.1317 105.862 58.8711 108.718 57.9023C112.42 56.9265 115.954 55.3972 119.2 53.3662C119.18 52.8736 99.8359 58.6617 99.8359 58.6617Z" fill="url(#paint41_linear_8_29709)"/>
<path d="M54.1746 49.2611C56.9233 50.1848 56.7181 52.0115 56.7181 52.0115C56.3496 51.6898 56.0067 51.3398 55.6925 50.9647L54.1746 49.2611Z" fill="white"/>
<path d="M51.4668 43.8218C54.0924 44.1297 55.5694 48.5632 55.4668 48.5426C54.6278 48.4125 53.8326 48.0816 53.1488 47.5779C52.4626 46.3861 51.899 45.1276 51.4668 43.8218Z" fill="white"/>
<path style="mix-blend-mode:screen" d="M95.9795 72.0443C95.9795 72.0443 110.338 83.2717 111.487 82.307C112.636 81.3423 109.744 77.812 106.831 75.6773C103.918 73.5427 95.9795 72.0443 95.9795 72.0443Z" fill="url(#paint42_linear_8_29709)"/>
<path style="mix-blend-mode:screen" d="M2.78982 64.6552C3.30384 65.1094 3.90666 65.4516 4.55997 65.66C5.21329 65.8685 5.9028 65.9387 6.58469 65.8662C6.58469 65.8662 4.26675 63.8136 3.44623 63.8136C3.33754 63.7911 3.22473 63.7995 3.12053 63.8377C3.01634 63.876 2.92493 63.9427 2.85664 64.0303C2.78835 64.1178 2.7459 64.2228 2.73409 64.3332C2.72228 64.4436 2.74159 64.5552 2.78982 64.6552Z" fill="url(#paint43_linear_8_29709)"/>
<path style="mix-blend-mode:screen" d="M128 44.4171C128.007 44.5196 128.007 44.6225 128 44.725C127.602 46.0477 127.136 47.3494 126.605 48.6248C126.359 49.1585 126.113 49.7537 125.826 50.39C125.313 51.5189 124.656 52.7299 123.939 53.9819C123.795 54.2282 123.672 54.4745 123.508 54.7209C121.209 58.6298 118.172 62.053 114.564 64.7989C104.574 72.1675 102.256 72.3933 102.256 72.4138L102.544 72.5575C102.625 72.5414 102.709 72.5414 102.79 72.5575C103.303 72.8038 104.144 73.2348 105.108 73.789C105.267 73.87 105.418 73.9662 105.559 74.0764C106.124 74.3958 106.672 74.7453 107.2 75.1231L107.754 75.4926L108.308 75.8621C110.345 77.1954 111.904 79.1439 112.759 81.4245C112.759 81.5271 112.759 81.6092 112.759 81.6913C113.256 85.2285 113.311 88.8137 112.923 92.3645H112.821C112.472 92.2414 111.774 91.9951 110.769 91.6051C110.538 91.5157 110.312 91.4129 110.092 91.2972C109.908 91.2972 109.703 91.133 109.498 91.0714L108.923 90.7841C108.144 90.4146 107.282 89.9836 106.38 89.4499H106.154C105.85 89.2419 105.535 89.05 105.21 88.8752L104.185 88.2184L102.954 87.3974C102.646 87.1716 102.318 86.9663 102.031 86.72C101.744 86.4737 100.964 85.9195 100.41 85.4885L99.5898 84.7701C99.3026 84.5443 99.036 84.3186 98.7488 84.0517L97.6411 82.9844L96.6975 81.9171C94.3928 79.1505 92.449 76.102 90.9129 72.8448C90.5642 72.188 90.277 71.5107 90.0103 70.8949C89.4527 70.2061 88.7581 69.6406 87.9707 69.2343C87.1833 68.828 86.3202 68.5897 85.436 68.5345C83.3847 68.6987 78.4616 77.6273 67.3026 84.9548C66.4821 85.509 65.6411 86.0222 64.759 86.5353L63.3026 87.3358C64.3339 87.2653 65.3688 87.2653 66.4001 87.3358H66.9129C68.8898 87.6227 70.8251 88.1465 72.677 88.8957C71.1181 88.4786 69.477 88.4786 67.918 88.8957C67.4714 89.0625 67.0729 89.3372 66.7579 89.6953C66.443 90.0533 66.2214 90.4838 66.1129 90.9483C66.0489 91.1634 66.0009 91.3829 65.9693 91.6051C65.8826 93.8876 66.3766 96.1547 67.4052 98.1938C68.1642 100 69.1078 101.929 69.9693 103.92C70.5863 105.255 71.1207 106.626 71.5693 108.025C71.9774 109.269 72.2322 110.558 72.3283 111.864C72.3745 113.582 72.2508 115.301 71.9591 116.995C71.9408 117.326 71.8997 117.655 71.836 117.98C71.836 118.268 71.7334 118.555 71.6719 118.842C71.6103 119.13 71.5283 119.417 71.4667 119.704C71.4066 119.962 71.3313 120.215 71.2411 120.464C70.8958 121.977 70.1923 123.385 69.1898 124.569C69.1898 124.569 68.1642 123.953 66.4206 122.722L65.6411 122.209C63.5898 120.772 60.9437 118.781 58.0103 116.359L57.0667 115.579C55.877 114.553 54.6462 113.526 53.4155 112.315L51.9796 110.981L50.4411 109.442C50.4411 109.873 50.4411 110.263 50.4411 110.694C50.3352 112 50.0735 113.288 49.6616 114.532C49.122 116.118 48.4352 117.651 47.6103 119.109L47.0975 119.971L46.6052 120.69C46.4411 120.956 46.2565 121.182 46.0924 121.429L45.6001 122.044C44.6775 123.306 43.4588 124.321 42.0514 125C42.0514 125 41.3539 124.035 40.2257 122.229L39.7744 121.552C38.4821 119.499 36.759 116.605 34.9949 113.198L34.4411 112.131C33.7026 110.735 33.0052 109.257 32.3898 107.718L31.5898 105.932C31.1796 105.008 30.8103 104.085 30.4206 103.14C30.0308 102.196 29.8667 101.622 29.559 100.842C29.2513 100.062 28.9642 99.3227 28.718 98.5222C28.4719 97.7217 28.3078 97.147 28.1026 96.4696C28.0958 96.3945 28.0958 96.3189 28.1026 96.2438C27.7949 95.0944 27.5078 94.0066 27.3026 92.8982C26.55 92.7217 25.8099 92.4954 25.0872 92.2208C24.7385 92.2208 24.3898 91.9745 24.0616 91.8514H23.877H23.6719C16.1571 88.6129 9.92522 82.9762 5.94878 75.821C0.512886 66.564 -0.84096 57.3481 0.451348 56.5271C0.94775 56.4421 1.43528 56.3116 1.90776 56.1371H2.05135C2.99124 55.825 3.8669 55.3451 4.63596 54.7209L4.98468 54.3309C4.42906 52.8458 4.19654 51.2591 4.30266 49.677C4.40878 48.0948 4.8511 46.5535 5.60007 45.156C6.70665 43.5075 8.25739 42.2065 10.0726 41.4036C11.8878 40.6008 13.8932 40.3291 15.8565 40.6199C16.4924 39.9631 17.1693 39.3268 17.9078 38.6905C20.7008 36.0498 23.9185 33.8987 27.4257 32.3276C31.2522 30.5778 35.5698 30.222 39.6308 31.3218C38.9744 30.3571 38.5847 29.7003 38.5437 29.6593C38.5026 29.6182 39.077 29.6593 39.877 28.8998C40.677 28.1404 42.5437 25.3489 44.4514 19.4376C44.4514 19.2529 44.5949 19.0476 44.677 18.8424C45.3344 17.0223 46.1512 15.264 47.118 13.5878C50.0847 8.71793 53.542 4.16489 57.436 0C56.826 0.936418 56.3302 1.94247 55.959 2.99672C55.6535 3.74672 55.6535 4.58661 55.959 5.33662C56.2714 5.92465 56.8016 6.36678 57.436 6.56814L58.359 6.91708C59.118 7.18391 60.0821 7.55337 61.3949 8.12808C62.7107 8.77063 63.9912 9.4832 65.2308 10.2627C66.431 11.0136 67.4813 11.981 68.3283 13.1158C70.0404 15.4006 71.4216 17.9158 72.4308 20.587C73.2514 22.6022 73.9703 24.6573 74.5847 26.7447C75.1385 28.6125 75.6103 30.4598 76.0411 32.3276C76.2872 33.4565 76.5334 34.5854 76.7385 35.7143C77.7269 40.2834 78.1336 44.9593 77.9488 49.6305C77.9488 50.1026 77.8052 50.5952 77.7231 51.0468C77.6411 51.4984 77.7231 51.4778 77.5385 51.7036C77.4959 51.9141 77.4342 52.1202 77.3539 52.3194C77.3539 52.5452 77.2103 52.7299 77.1693 52.9146C76.7516 53.8896 76.104 54.7487 75.2821 55.4187L78.4821 58.2102L79.4052 59.0312C82.3796 61.6379 84.4924 63.321 85.2514 63.3415C86.0737 63.3141 86.8769 63.0868 87.5917 62.6791C88.3065 62.2714 88.9114 61.6957 89.3539 61.0016C90.6873 57.266 93.0667 52.5246 96.6155 50.431C100.74 48.6402 105.098 47.4446 109.559 46.8801C118.38 45.3612 128 44.4171 128 44.4171Z" fill="url(#paint44_linear_8_29709)"/>
</g>
<defs>
<linearGradient id="paint0_linear_8_29709" x1="18.6258" y1="76.0467" x2="52.8426" y2="111.658" gradientUnits="userSpaceOnUse">
<stop offset="0.01" stop-color="#FF3B59"/>
<stop offset="0.22" stop-color="#FC3959"/>
<stop offset="0.39" stop-color="#F23359"/>
<stop offset="0.54" stop-color="#E22A58"/>
<stop offset="0.68" stop-color="#CA1C58"/>
<stop offset="0.81" stop-color="#AD0B57"/>
<stop offset="0.88" stop-color="#9A0057"/>
<stop offset="0.99" stop-color="#9A00AE"/>
</linearGradient>
<linearGradient id="paint1_linear_8_29709" x1="37.8874" y1="45.6076" x2="38.8116" y2="130.993" gradientUnits="userSpaceOnUse">
<stop stop-color="#CA528D"/>
<stop offset="1" stop-color="#8E7090"/>
</linearGradient>
<linearGradient id="paint2_linear_8_29709" x1="39.2411" y1="61.3506" x2="39.7751" y2="109.688" gradientUnits="userSpaceOnUse">
<stop stop-color="#CA528D"/>
<stop offset="1" stop-color="#8E7090"/>
</linearGradient>
<linearGradient id="paint3_linear_8_29709" x1="43.0154" y1="74.4458" x2="43.2208" y2="94.2118" gradientUnits="userSpaceOnUse">
<stop stop-color="#CA528D"/>
<stop offset="1" stop-color="#8E7090"/>
</linearGradient>
<linearGradient id="paint4_linear_8_29709" x1="43.1387" y1="65.6404" x2="43.837" y2="129.433" gradientUnits="userSpaceOnUse">
<stop stop-color="#CA528D"/>
<stop offset="1" stop-color="#8E7090"/>
</linearGradient>
<linearGradient id="paint5_linear_8_29709" x1="38.4823" y1="118.76" x2="34.4774" y2="70.5258" gradientUnits="userSpaceOnUse">
<stop/>
<stop offset="0.1" stop-color="#090503"/>
<stop offset="0.26" stop-color="#21110C"/>
<stop offset="0.47" stop-color="#49251A"/>
<stop offset="0.71" stop-color="#80402D"/>
<stop offset="0.98" stop-color="#C56346"/>
<stop offset="0.99" stop-color="#CA6648"/>
</linearGradient>
<linearGradient id="paint6_linear_8_29709" x1="-22.7485" y1="142.693" x2="61.1848" y2="81.4736" gradientUnits="userSpaceOnUse">
<stop stop-color="#CA528D"/>
<stop offset="1" stop-color="#8E7090"/>
</linearGradient>
<linearGradient id="paint7_linear_8_29709" x1="29.6857" y1="91.4303" x2="30.1742" y2="91.085" gradientUnits="userSpaceOnUse">
<stop stop-color="#CA528D"/>
<stop offset="1" stop-color="#8E7090"/>
</linearGradient>
<linearGradient id="paint8_linear_8_29709" x1="41.8667" y1="13.2594" x2="84.431" y2="47.6345" gradientUnits="userSpaceOnUse">
<stop offset="0.01" stop-color="#FF3B59"/>
<stop offset="0.22" stop-color="#FC3959"/>
<stop offset="0.39" stop-color="#F23359"/>
<stop offset="0.54" stop-color="#E22A58"/>
<stop offset="0.68" stop-color="#CA1C58"/>
<stop offset="0.81" stop-color="#AD0B57"/>
<stop offset="0.88" stop-color="#9A0057"/>
<stop offset="0.99" stop-color="#9A00AE"/>
</linearGradient>
<linearGradient id="paint9_linear_8_29709" x1="45.436" y1="17.5698" x2="83.5674" y2="48.3556" gradientUnits="userSpaceOnUse">
<stop stop-color="#CA528D"/>
<stop offset="1" stop-color="#8E7090"/>
</linearGradient>
<linearGradient id="paint10_linear_8_29709" x1="-42.0726" y1="-3.9771" x2="85.7794" y2="53.0158" gradientUnits="userSpaceOnUse">
<stop stop-color="#CA528D"/>
<stop offset="1" stop-color="#8E7090"/>
</linearGradient>
<linearGradient id="paint11_linear_8_29709" x1="46.031" y1="3.48933" x2="54.0948" y2="7.83657" gradientUnits="userSpaceOnUse">
<stop/>
<stop offset="0.1" stop-color="#090503"/>
<stop offset="0.26" stop-color="#21110C"/>
<stop offset="0.47" stop-color="#49251A"/>
<stop offset="0.71" stop-color="#80402D"/>
<stop offset="0.98" stop-color="#C56346"/>
<stop offset="0.99" stop-color="#CA6648"/>
</linearGradient>
<linearGradient id="paint12_linear_8_29709" x1="51.3847" y1="10.0369" x2="55.7346" y2="12.3746" gradientUnits="userSpaceOnUse">
<stop/>
<stop offset="0.1" stop-color="#090503"/>
<stop offset="0.26" stop-color="#21110C"/>
<stop offset="0.47" stop-color="#49251A"/>
<stop offset="0.71" stop-color="#80402D"/>
<stop offset="0.98" stop-color="#C56346"/>
<stop offset="0.99" stop-color="#CA6648"/>
</linearGradient>
<linearGradient id="paint13_linear_8_29709" x1="50.0435" y1="40.803" x2="84.1045" y2="25.9207" gradientUnits="userSpaceOnUse">
<stop stop-color="#CA528D"/>
<stop offset="1" stop-color="#8E7090"/>
</linearGradient>
<radialGradient id="paint14_radial_8_29709" cx="0" cy="0" r="1" gradientUnits="userSpaceOnUse" gradientTransform="translate(13.6002 42.8982) scale(19.4051 19.4171)">
<stop offset="0.01" stop-color="#F0E6DB"/>
<stop offset="0.23" stop-color="#EEE3D9"/>
<stop offset="0.42" stop-color="#E7D8D3"/>
<stop offset="0.59" stop-color="#DCC7C8"/>
<stop offset="0.76" stop-color="#CDAEB9"/>
<stop offset="0.82" stop-color="#C7A4B3"/>
<stop offset="0.86" stop-color="#CEA4B4"/>
<stop offset="0.93" stop-color="#E1A3B8"/>
<stop offset="1" stop-color="#FFA2BD"/>
</radialGradient>
<radialGradient id="paint15_radial_8_29709" cx="0" cy="0" r="1" gradientUnits="userSpaceOnUse" gradientTransform="translate(10.5756 37.3573) rotate(-4.31264) scale(14.8718 14.8809)">
<stop offset="0.01" stop-color="#F4D956"/>
<stop offset="0.17" stop-color="#F3D655"/>
<stop offset="0.31" stop-color="#F1CB53"/>
<stop offset="0.44" stop-color="#ECBA4F"/>
<stop offset="0.56" stop-color="#E6A149"/>
<stop offset="0.68" stop-color="#DE8142"/>
<stop offset="0.8" stop-color="#D55A3A"/>
<stop offset="0.82" stop-color="#D35338"/>
<stop offset="0.84" stop-color="#D2523F"/>
<stop offset="0.88" stop-color="#CF5052"/>
<stop offset="0.93" stop-color="#CA4C72"/>
<stop offset="0.98" stop-color="#C3479D"/>
<stop offset="1" stop-color="#BF44B5"/>
</radialGradient>
<radialGradient id="paint16_radial_8_29709" cx="0" cy="0" r="1" gradientUnits="userSpaceOnUse" gradientTransform="translate(45.0052 26.8267) scale(66.5846 66.6256)">
<stop offset="0.01" stop-color="#FFE360"/>
<stop offset="0.17" stop-color="#FEE05F"/>
<stop offset="0.31" stop-color="#FCD55D"/>
<stop offset="0.44" stop-color="#F9C459"/>
<stop offset="0.56" stop-color="#F4AB53"/>
<stop offset="0.69" stop-color="#EE8B4C"/>
<stop offset="0.8" stop-color="#E66443"/>
<stop offset="0.82" stop-color="#E55E42"/>
<stop offset="0.84" stop-color="#E35D49"/>
<stop offset="0.88" stop-color="#DF5A5C"/>
<stop offset="0.93" stop-color="#D7567C"/>
<stop offset="0.98" stop-color="#CC4FA7"/>
<stop offset="1" stop-color="#C74CBD"/>
</radialGradient>
<linearGradient id="paint17_linear_8_29709" x1="2.31811" y1="62.151" x2="2.40016" y2="62.151" gradientUnits="userSpaceOnUse">
<stop stop-color="#CA528D"/>
<stop offset="1" stop-color="#8E7090"/>
</linearGradient>
<linearGradient id="paint18_linear_8_29709" x1="2.40016" y1="64.573" x2="13.9489" y2="64.573" gradientUnits="userSpaceOnUse">
<stop stop-color="#CA528D"/>
<stop offset="1" stop-color="#8E7090"/>
</linearGradient>
<linearGradient id="paint19_linear_8_29709" x1="57.3949" y1="-9.68798" x2="126.167" y2="81.5275" gradientUnits="userSpaceOnUse">
<stop offset="0.01" stop-color="#FF3B59"/>
<stop offset="0.22" stop-color="#FC3959"/>
<stop offset="0.39" stop-color="#F23359"/>
<stop offset="0.54" stop-color="#E22A58"/>
<stop offset="0.68" stop-color="#CA1C58"/>
<stop offset="0.81" stop-color="#AD0B57"/>
<stop offset="0.88" stop-color="#9A0057"/>
<stop offset="0.99" stop-color="#9A00AE"/>
</linearGradient>
<linearGradient id="paint20_linear_8_29709" x1="21.1637" y1="42.4663" x2="32.0222" y2="55.9677" gradientUnits="userSpaceOnUse">
<stop stop-color="#CA528D"/>
<stop offset="1" stop-color="#8E7090"/>
</linearGradient>
<radialGradient id="paint21_radial_8_29709" cx="0" cy="0" r="1" gradientUnits="userSpaceOnUse" gradientTransform="translate(38.4154 47.0111) rotate(-4.31264) scale(25.1488 25.1641)">
<stop offset="0.01" stop-color="#F0E6DB"/>
<stop offset="0.23" stop-color="#EEE3D9"/>
<stop offset="0.42" stop-color="#E7D8D3"/>
<stop offset="0.59" stop-color="#DCC7C8"/>
<stop offset="0.76" stop-color="#CDAEB9"/>
<stop offset="0.82" stop-color="#C7A4B3"/>
<stop offset="0.86" stop-color="#CEA4B4"/>
<stop offset="0.93" stop-color="#E1A3B8"/>
<stop offset="1" stop-color="#FFA2BD"/>
</radialGradient>
<radialGradient id="paint22_radial_8_29709" cx="0" cy="0" r="1" gradientUnits="userSpaceOnUse" gradientTransform="translate(35.2703 55.2347) rotate(-4.31264) scale(9.37439 9.3801)">
<stop offset="0.01" stop-color="#F4D956"/>
<stop offset="0.15" stop-color="#F3D555"/>
<stop offset="0.29" stop-color="#F0CA53"/>
<stop offset="0.43" stop-color="#ECB74E"/>
<stop offset="0.56" stop-color="#E59C48"/>
<stop offset="0.69" stop-color="#DD7A41"/>
<stop offset="0.81" stop-color="#D35338"/>
<stop offset="0.84" stop-color="#D2523F"/>
<stop offset="0.88" stop-color="#CF5052"/>
<stop offset="0.92" stop-color="#CA4C72"/>
<stop offset="0.97" stop-color="#C3479D"/>
<stop offset="1" stop-color="#BF44B5"/>
</radialGradient>
<radialGradient id="paint23_radial_8_29709" cx="0" cy="0" r="1" gradientUnits="userSpaceOnUse" gradientTransform="translate(36.3536 55.6882) rotate(-4.31264) scale(7.89746 7.90227)">
<stop stop-color="#FF4000"/>
<stop offset="0.25" stop-color="#FD3F00"/>
<stop offset="0.38" stop-color="#F53D00"/>
<stop offset="0.49" stop-color="#E73A00"/>
<stop offset="0.59" stop-color="#D33500"/>
<stop offset="0.68" stop-color="#BA2F00"/>
<stop offset="0.76" stop-color="#9B2700"/>
<stop offset="0.83" stop-color="#751D00"/>
<stop offset="0.9" stop-color="#4A1300"/>
<stop offset="0.97" stop-color="#1B0700"/>
<stop offset="1"/>
</radialGradient>
<radialGradient id="paint24_radial_8_29709" cx="0" cy="0" r="1" gradientUnits="userSpaceOnUse" gradientTransform="translate(38.2782 49.2856) rotate(-4.31264) scale(11.4667 11.4737)">
<stop stop-color="#FF4000"/>
<stop offset="0.25" stop-color="#FD3F00"/>
<stop offset="0.38" stop-color="#F53D00"/>
<stop offset="0.49" stop-color="#E73A00"/>
<stop offset="0.59" stop-color="#D33500"/>
<stop offset="0.68" stop-color="#BA2F00"/>
<stop offset="0.76" stop-color="#9B2700"/>
<stop offset="0.83" stop-color="#751D00"/>
<stop offset="0.9" stop-color="#4A1300"/>
<stop offset="0.97" stop-color="#1B0700"/>
<stop offset="1"/>
</radialGradient>
<linearGradient id="paint25_linear_8_29709" x1="35.4461" y1="79.8851" x2="32.612" y2="93.308" gradientUnits="userSpaceOnUse">
<stop/>
<stop offset="0.1" stop-color="#090503"/>
<stop offset="0.26" stop-color="#21110C"/>
<stop offset="0.47" stop-color="#49251A"/>
<stop offset="0.71" stop-color="#80402D"/>
<stop offset="0.98" stop-color="#C56346"/>
<stop offset="0.99" stop-color="#CA6648"/>
</linearGradient>
<linearGradient id="paint26_linear_8_29709" x1="46.9965" y1="90.4748" x2="47.3415" y2="94.5037" gradientUnits="userSpaceOnUse">
<stop stop-color="#CA528D"/>
<stop offset="1" stop-color="#8E7090"/>
</linearGradient>
<linearGradient id="paint27_linear_8_29709" x1="48.7747" y1="109.442" x2="48.8642" y2="110.629" gradientUnits="userSpaceOnUse">
<stop stop-color="#CA528D"/>
<stop offset="1" stop-color="#8E7090"/>
</linearGradient>
<linearGradient id="paint28_linear_8_29709" x1="65.4155" y1="61.6995" x2="119.215" y2="90.7359" gradientUnits="userSpaceOnUse">
<stop stop-color="#CA528D"/>
<stop offset="1" stop-color="#8E7090"/>
</linearGradient>
<linearGradient id="paint29_linear_8_29709" x1="63.9796" y1="32.0813" x2="124.201" y2="64.5626" gradientUnits="userSpaceOnUse">
<stop stop-color="#CA528D"/>
<stop offset="1" stop-color="#8E7090"/>
</linearGradient>
<linearGradient id="paint30_linear_8_29709" x1="80.2787" y1="70.2423" x2="18.7537" y2="57.771" gradientUnits="userSpaceOnUse">
<stop/>
<stop offset="0.1" stop-color="#090503"/>
<stop offset="0.26" stop-color="#21110C"/>
<stop offset="0.47" stop-color="#49251A"/>
<stop offset="0.71" stop-color="#80402D"/>
<stop offset="0.98" stop-color="#C56346"/>
<stop offset="0.99" stop-color="#CA6648"/>
</linearGradient>
<radialGradient id="paint31_radial_8_29709" cx="0" cy="0" r="1" gradientUnits="userSpaceOnUse" gradientTransform="translate(22.607 59.4419) rotate(-4.31264) scale(23.077 23.091)">
<stop offset="0.01" stop-color="#FFE360"/>
<stop offset="0.17" stop-color="#FEE05F"/>
<stop offset="0.31" stop-color="#FCD55D"/>
<stop offset="0.44" stop-color="#F9C459"/>
<stop offset="0.56" stop-color="#F4AB53"/>
<stop offset="0.69" stop-color="#EE8B4C"/>
<stop offset="0.8" stop-color="#E66443"/>
<stop offset="0.82" stop-color="#E55E42"/>
<stop offset="0.84" stop-color="#E35D49"/>
<stop offset="0.88" stop-color="#DF5A5C"/>
<stop offset="0.93" stop-color="#D7567C"/>
<stop offset="0.98" stop-color="#CC4FA7"/>
<stop offset="1" stop-color="#C74CBD"/>
</radialGradient>
<linearGradient id="paint32_linear_8_29709" x1="36.677" y1="73.2964" x2="75.7789" y2="114.015" gradientUnits="userSpaceOnUse">
<stop offset="0.01" stop-color="#FF3B59"/>
<stop offset="0.22" stop-color="#FC3959"/>
<stop offset="0.39" stop-color="#F23359"/>
<stop offset="0.54" stop-color="#E22A58"/>
<stop offset="0.68" stop-color="#CA1C58"/>
<stop offset="0.81" stop-color="#AD0B57"/>
<stop offset="0.88" stop-color="#9A0057"/>
<stop offset="0.99" stop-color="#9A00AE"/>
</linearGradient>
<linearGradient id="paint33_linear_8_29709" x1="54.6052" y1="60.3038" x2="55.3445" y2="129.495" gradientUnits="userSpaceOnUse">
<stop stop-color="#CA528D"/>
<stop offset="1" stop-color="#8E7090"/>
</linearGradient>
<linearGradient id="paint34_linear_8_29709" x1="54.3591" y1="76.4983" x2="54.6672" y2="106.219" gradientUnits="userSpaceOnUse">
<stop stop-color="#CA528D"/>
<stop offset="1" stop-color="#8E7090"/>
</linearGradient>
<linearGradient id="paint35_linear_8_29709" x1="55.4463" y1="86.5969" x2="55.5079" y2="91.3999" gradientUnits="userSpaceOnUse">
<stop stop-color="#CA528D"/>
<stop offset="1" stop-color="#8E7090"/>
</linearGradient>
<linearGradient id="paint36_linear_8_29709" x1="58.4207" y1="61.7816" x2="59.1396" y2="129.331" gradientUnits="userSpaceOnUse">
<stop stop-color="#CA528D"/>
<stop offset="1" stop-color="#8E7090"/>
</linearGradient>
<linearGradient id="paint37_linear_8_29709" x1="55.9778" y1="128.33" x2="47.103" y2="72.6421" gradientUnits="userSpaceOnUse">
<stop/>
<stop offset="0.1" stop-color="#090503"/>
<stop offset="0.26" stop-color="#21110C"/>
<stop offset="0.47" stop-color="#49251A"/>
<stop offset="0.71" stop-color="#80402D"/>
<stop offset="0.98" stop-color="#C56346"/>
<stop offset="0.99" stop-color="#CA6648"/>
</linearGradient>
<linearGradient id="paint38_linear_8_29709" x1="49.6498" y1="108.224" x2="58.2803" y2="98.1923" gradientUnits="userSpaceOnUse">
<stop stop-color="#CA528D"/>
<stop offset="1" stop-color="#8E7090"/>
</linearGradient>
<linearGradient id="paint39_linear_8_29709" x1="35.6718" y1="52.6273" x2="-7.24469" y2="40.8592" gradientUnits="userSpaceOnUse">
<stop/>
<stop offset="0.1" stop-color="#090503"/>
<stop offset="0.26" stop-color="#21110C"/>
<stop offset="0.47" stop-color="#49251A"/>
<stop offset="0.71" stop-color="#80402D"/>
<stop offset="0.98" stop-color="#C56346"/>
<stop offset="0.99" stop-color="#CA6648"/>
</linearGradient>
<linearGradient id="paint40_linear_8_29709" x1="111.823" y1="64.8995" x2="108.455" y2="39.3624" gradientUnits="userSpaceOnUse">
<stop/>
<stop offset="0.1" stop-color="#090503"/>
<stop offset="0.26" stop-color="#21110C"/>
<stop offset="0.47" stop-color="#49251A"/>
<stop offset="0.71" stop-color="#80402D"/>
<stop offset="0.98" stop-color="#C56346"/>
<stop offset="0.99" stop-color="#CA6648"/>
</linearGradient>
<linearGradient id="paint41_linear_8_29709" x1="95.7204" y1="46.6622" x2="122.437" y2="64.4757" gradientUnits="userSpaceOnUse">
<stop/>
<stop offset="0.1" stop-color="#090503"/>
<stop offset="0.26" stop-color="#21110C"/>
<stop offset="0.47" stop-color="#49251A"/>
<stop offset="0.71" stop-color="#80402D"/>
<stop offset="0.98" stop-color="#C56346"/>
<stop offset="0.99" stop-color="#CA6648"/>
</linearGradient>
<linearGradient id="paint42_linear_8_29709" x1="100.195" y1="80.9465" x2="109.657" y2="70.7501" gradientUnits="userSpaceOnUse">
<stop/>
<stop offset="0.1" stop-color="#090503"/>
<stop offset="0.26" stop-color="#21110C"/>
<stop offset="0.47" stop-color="#49251A"/>
<stop offset="0.71" stop-color="#80402D"/>
<stop offset="0.98" stop-color="#C56346"/>
<stop offset="0.99" stop-color="#CA6648"/>
</linearGradient>
<linearGradient id="paint43_linear_8_29709" x1="-7.91787" y1="77.0115" x2="8.00938" y2="61.894" gradientUnits="userSpaceOnUse">
<stop/>
<stop offset="0.1" stop-color="#090503"/>
<stop offset="0.26" stop-color="#21110C"/>
<stop offset="0.47" stop-color="#49251A"/>
<stop offset="0.71" stop-color="#80402D"/>
<stop offset="0.98" stop-color="#C56346"/>
<stop offset="0.99" stop-color="#CA6648"/>
</linearGradient>
<linearGradient id="paint44_linear_8_29709" x1="6.55857e-05" y1="62.5" x2="128" y2="62.5" gradientUnits="userSpaceOnUse">
<stop offset="0.01" stop-color="#1304C5"/>
<stop offset="0.25" stop-color="#0D0387"/>
<stop offset="0.51" stop-color="#07024D"/>
<stop offset="0.73" stop-color="#030123"/>
<stop offset="0.9" stop-color="#01000A"/>
<stop offset="1"/>
</linearGradient>
<clipPath id="clip0_8_29709">
<rect width="128" height="125" fill="white"/>
</clipPath>
</defs>
</svg>
