<svg width="166" height="164" viewBox="0 0 166 164" fill="none" xmlns="http://www.w3.org/2000/svg">
<g clip-path="url(#clip0_492_18829)" filter="url(#filter0_d_492_18829)">
<path d="M89.4053 116.5C90.8348 115.454 92.4649 114.721 94.1909 114.349C94.4186 114.336 94.6468 114.336 94.8745 114.349C95.4539 114.342 96.0271 114.47 96.5496 114.723C97.0721 114.976 97.53 115.348 97.8877 115.809C98.0649 116.039 98.1915 116.27 98.3435 116.5C99.0703 117.901 99.5177 119.433 99.6601 121.009C99.6601 121.649 99.7867 122.29 99.7867 122.956C99.7867 123.622 99.7867 123.647 99.7867 124.032V124.262V124.749C99.7867 125.184 99.7867 125.645 99.7867 126.132C99.7867 126.619 99.7867 127.695 99.7867 128.514C99.7867 129.821 99.7867 131.076 99.7867 132.51C99.7867 133.1 99.7867 133.586 99.7867 134.175C99.7867 134.765 99.7867 135.251 99.7867 135.789C99.7623 136.045 99.7623 136.302 99.7867 136.558C99.7867 137.096 99.7867 137.582 99.7867 138.12C99.9174 139.75 100.24 141.358 100.749 142.91C101.415 144.89 102.263 146.803 103.281 148.623L103.914 149.699L104.522 150.595C104.724 150.928 104.952 151.21 105.155 151.517L105.762 152.286C106.884 153.863 108.37 155.139 110.092 156C110.092 156 110.953 154.796 112.346 152.542L112.903 151.697C114.498 149.135 116.625 145.523 118.802 141.271L119.486 139.939C120.398 138.197 121.259 136.353 122.018 134.432L123.006 132.203C123.512 131.05 123.968 129.898 124.449 128.719C124.93 127.541 125.133 126.824 125.512 125.85C125.892 124.877 126.247 123.955 126.551 122.956C126.854 121.957 127.057 121.239 127.31 120.394C127.319 120.3 127.319 120.206 127.31 120.112C127.69 118.678 128.044 117.32 128.298 115.937L128.601 114.323C128.906 112.683 129.092 111.022 129.159 109.354C129.298 106.89 129.187 104.418 128.829 101.976C128.829 101.618 128.829 101.208 128.601 100.875C128.403 99.7102 128.09 98.5688 127.665 97.468C127.058 95.357 125.776 93.5098 124.018 92.2168C123.462 92.0133 122.853 92.0133 122.297 92.2168C122.144 92.4583 122.041 92.7283 121.993 93.0108C121.935 93.2943 121.964 93.589 122.078 93.8548C122.191 94.1206 122.382 94.3447 122.626 94.4966C122.835 94.6278 123.055 94.7393 123.284 94.8296V95.1369C123.252 95.5688 123.184 95.9972 123.082 96.4177C122.41 98.9327 120.816 101.094 118.625 102.463C117.661 103.053 116.654 103.566 115.612 104L114.852 104.307L113.738 104.794L110.751 105.896L107.332 107.151L103.382 108.508L102.066 108.944L100.521 109.533L99.255 110.02C98.3435 110.378 97.5585 110.66 96.9255 110.993C96.533 111.163 96.1523 111.36 95.7861 111.582L95.5582 111.71L95.229 111.915L94.1656 112.607L93.6592 112.966C93.5368 113.045 93.4185 113.13 93.3047 113.222C91.9169 114.203 90.6125 115.3 89.4053 116.5Z" fill="url(#paint0_linear_492_18829)"/>
<path style="mix-blend-mode:multiply" opacity="0.5" d="M99.7613 138.146C99.892 139.776 100.215 141.384 100.724 142.936C101.39 144.916 102.237 146.828 103.256 148.648L103.889 149.724L104.496 150.621C104.699 150.954 104.927 151.235 105.129 151.543L105.737 152.311C106.869 153.883 108.364 155.149 110.092 156C110.092 156 110.953 154.796 112.346 152.542L112.903 151.697C114.498 149.135 116.625 145.523 118.802 141.271L119.486 139.939C120.398 138.197 121.258 136.353 122.018 134.432L123.006 132.203C123.512 131.05 123.968 129.898 124.449 128.719C124.93 127.541 125.132 126.824 125.512 125.85C125.892 124.877 126.247 123.955 126.55 122.956C126.854 121.957 127.057 121.239 127.285 120.394V120.112C127.665 118.678 128.019 117.32 128.272 115.937L128.576 114.323C128.881 112.683 129.067 111.022 129.133 109.354C129.272 106.89 129.162 104.418 128.804 101.976C128.804 101.618 128.804 101.208 128.576 100.875C128.378 99.7102 128.064 98.5688 127.639 97.468C127.639 98.3133 127.639 99.1842 127.639 100.158C127.639 100.542 127.639 100.926 127.639 101.336C127.639 101.746 127.639 102.104 127.639 102.54C126.917 107.05 125.39 111.39 123.132 115.348C122.803 115.911 122.499 116.5 122.17 117.038C121.841 117.576 121.208 118.703 120.676 119.6C120.144 120.497 119.765 120.906 119.334 121.547C116.213 126.176 112.394 130.282 108.016 133.714C106.078 135.238 103.949 136.495 101.686 137.454C101.06 137.729 100.418 137.96 99.7613 138.146Z" fill="url(#paint1_linear_492_18829)"/>
<path style="mix-blend-mode:multiply" opacity="0.5" d="M110.675 126.747C113.145 124.945 115.412 122.875 117.436 120.573C118.069 119.856 118.651 119.113 119.259 118.37C119.349 118.27 119.425 118.158 119.487 118.037C122.579 113.569 124.772 108.53 125.943 103.206C125.943 102.822 126.095 102.412 126.197 102.028C126.387 101.234 126.53 100.43 126.627 99.6197C126.627 99.9271 126.399 100.824 126.07 102.181C126.07 102.54 125.867 102.95 125.766 103.36C124.439 108.371 122.122 113.059 118.955 117.141C118.374 117.848 117.739 118.507 117.056 119.113C116.798 119.359 116.528 119.59 116.246 119.805C115.112 120.656 113.89 121.378 112.599 121.957C109.699 123.25 106.629 124.113 103.484 124.518C102.193 124.672 100.952 124.774 99.7619 124.826C99.7619 127.387 99.61 129.949 99.5593 132.51C103.555 131.226 107.311 129.278 110.675 126.747Z" fill="url(#paint2_linear_492_18829)"/>
<path style="mix-blend-mode:multiply" opacity="0.5" d="M94.8755 114.272C95.4549 114.265 96.028 114.393 96.5506 114.646C97.0731 114.899 97.531 115.271 97.8887 115.732C99.0515 114.98 100.261 114.304 101.51 113.708C104.362 112.437 107.277 111.316 110.245 110.353C112.464 109.598 114.622 108.673 116.702 107.586L118.373 106.536L119.816 105.409C120.304 105 120.769 104.564 121.209 104.102C121.699 103.595 122.155 103.056 122.576 102.489C121.986 103.166 121.323 103.776 120.601 104.307C119.798 104.9 118.951 105.431 118.069 105.896C118.045 105.884 118.019 105.878 117.993 105.878C117.967 105.878 117.941 105.884 117.917 105.896L116.449 106.536C114.155 107.471 111.793 108.225 109.384 108.79C106.293 109.409 103.241 110.213 100.243 111.198C99.3771 111.54 98.5316 111.933 97.7114 112.376C96.9012 112.94 95.863 113.58 94.8755 114.272Z" fill="url(#paint3_linear_492_18829)"/>
<path style="mix-blend-mode:multiply" opacity="0.5" d="M89.4057 116.5C90.8352 115.454 92.4653 114.721 94.1912 114.349C94.419 114.336 94.6472 114.336 94.8749 114.349C95.4542 114.342 96.0274 114.47 96.5499 114.723C97.0725 114.976 97.5303 115.348 97.888 115.809C98.0653 116.039 98.1919 116.27 98.3438 116.5C99.0707 117.901 99.518 119.433 99.6605 121.009C99.6605 121.649 99.7871 122.29 99.7871 122.956C99.7871 123.622 99.7871 123.647 99.7871 124.032V124.262V124.749C99.7871 125.184 99.7871 125.645 99.7871 126.132C99.7871 126.619 99.7871 127.695 99.7871 128.514C99.7871 129.821 99.7871 131.076 99.7871 132.51C99.7871 133.1 99.7871 133.586 99.7871 134.175C99.7871 134.765 99.7871 135.251 99.7871 135.789C99.7627 136.045 99.7627 136.302 99.7871 136.558C99.7871 137.096 99.7871 137.582 99.7871 138.12C99.9178 139.75 100.241 141.358 100.749 142.91C101.415 144.89 102.263 146.803 103.281 148.623L103.914 149.699L104.522 150.595C104.725 150.928 104.952 151.21 105.155 151.517L105.763 152.286C106.884 153.863 108.371 155.139 110.093 156C110.093 156 110.953 154.796 112.346 152.542L112.903 151.697C114.498 149.135 116.625 145.523 118.803 141.271L119.486 139.939C120.398 138.197 121.259 136.353 122.018 134.432L123.006 132.203C123.512 131.05 123.968 129.898 124.449 128.719C124.93 127.541 125.133 126.824 125.513 125.85C125.893 124.877 126.247 123.955 126.551 122.956C126.855 121.957 127.057 121.239 127.285 120.394C127.032 121.188 126.703 122.033 126.374 122.956C123.639 130.051 119.031 140.169 115.739 139.939C115.453 139.978 115.164 139.978 114.878 139.939C113.352 139.493 111.943 138.711 110.752 137.648C109.561 136.585 108.618 135.267 107.991 133.791C107.451 132.837 107.22 131.734 107.333 130.64C108.174 129.12 109.311 127.786 110.675 126.721C111.51 125.978 112.346 125.287 112.979 124.774C111.492 125.88 109.747 126.577 107.915 126.798C107.435 126.849 106.951 126.849 106.472 126.798C106.178 126.748 105.89 126.671 105.611 126.567C104.682 126.169 103.939 125.427 103.535 124.493C103.41 124.243 103.3 123.987 103.205 123.724C102.963 123.19 102.776 122.632 102.648 122.059L102.446 121.367C101.977 119.366 101.689 117.325 101.585 115.271C101.561 115.007 101.561 114.741 101.585 114.477C101.585 114.067 101.585 113.76 101.585 113.632L103.408 112.812L104.471 112.351H101.433C100.293 112.351 99.0275 112.351 97.9387 112.351C97.077 112.345 96.2219 112.198 95.4066 111.915L94.3432 112.607L93.8368 112.966C93.7144 113.045 93.5961 113.13 93.4823 113.222C92.0332 114.195 90.6693 115.292 89.4057 116.5Z" fill="url(#paint4_linear_492_18829)"/>
<path style="mix-blend-mode:screen" d="M107.333 107.202C107.68 107.322 108.012 107.486 108.32 107.689C108.417 107.728 108.498 107.801 108.548 107.894C108.661 107.929 108.759 108.001 108.827 108.099C109.062 108.307 109.266 108.549 109.434 108.816C109.779 109.284 110.052 109.802 110.245 110.353C110.599 111.044 110.878 111.864 111.257 112.709C111.243 112.76 111.243 112.813 111.257 112.863C111.46 113.401 111.738 113.939 111.992 114.528C112.245 115.117 112.473 115.399 112.726 115.834C112.86 116.142 113.04 116.427 113.258 116.68L113.587 117.166C113.815 117.448 114.093 117.807 114.372 118.089C114.934 118.684 115.534 119.24 116.17 119.754C116.534 120.025 116.914 120.273 117.309 120.497C117.9 120.874 118.518 121.208 119.157 121.496C121.015 122.294 122.992 122.771 125.006 122.904H126.551C126.804 122.085 127.057 121.188 127.311 120.343C126.853 120.654 126.348 120.888 125.817 121.034C124.917 121.32 123.954 121.327 123.051 121.053C122.148 120.779 121.348 120.237 120.753 119.498C120.424 119.125 120.12 118.731 119.841 118.319L119.613 117.909L119.233 117.243V117.038C119.008 116.618 118.813 116.181 118.651 115.732C117.726 113.092 117.073 110.362 116.701 107.586C116.701 107.253 116.575 106.895 116.499 106.613C116.423 106.331 116.499 106.459 116.499 106.408C116.499 106.357 116.372 105.921 116.296 105.716C116.127 105.159 115.907 104.618 115.638 104.102L114.878 104.41L113.764 104.897L110.776 105.998L107.333 107.202Z" fill="url(#paint5_linear_492_18829)"/>
<path style="mix-blend-mode:multiply" opacity="0.5" d="M89.4053 116.5C90.8348 115.454 92.4649 114.721 94.1909 114.349C94.4186 114.336 94.6468 114.336 94.8745 114.349C95.4539 114.342 96.0271 114.47 96.5496 114.723C97.0721 114.976 97.53 115.348 97.8877 115.809C98.0649 116.039 98.1915 116.27 98.3435 116.5C99.0703 117.901 99.5177 119.433 99.6601 121.009C99.6601 121.649 99.7867 122.29 99.7867 122.956C99.7867 123.622 99.7867 123.647 99.7867 124.032V124.262V124.749C99.7867 125.184 99.7867 125.645 99.7867 126.132C99.7867 126.619 99.7867 127.695 99.7867 128.514C99.7867 129.821 99.7867 131.076 99.7867 132.51C99.7867 133.1 99.7867 133.586 99.7867 134.175C99.7867 134.765 99.7867 135.251 99.7867 135.789C99.7623 136.045 99.7623 136.302 99.7867 136.558C99.7867 137.096 99.7867 137.582 99.7867 138.12C99.9174 139.75 100.24 141.358 100.749 142.91C101.415 144.89 102.263 146.803 103.281 148.623L103.914 149.699L104.522 150.595C104.724 150.928 104.952 151.21 105.155 151.517L105.762 152.286C106.884 153.863 108.37 155.139 110.092 156C110.092 156 110.953 154.796 112.346 152.542L112.903 151.697C114.498 149.135 116.625 145.523 118.802 141.271L119.486 139.939C120.398 138.197 121.259 136.353 122.018 134.432L123.006 132.203C123.512 131.05 123.968 129.898 124.449 128.719C124.93 127.541 125.133 126.824 125.512 125.85C125.892 124.877 126.247 123.955 126.551 122.956C126.854 121.957 127.057 121.239 127.31 120.394C127.319 120.3 127.319 120.206 127.31 120.112C127.69 118.678 128.044 117.32 128.298 115.937L128.601 114.323C128.906 112.683 129.092 111.022 129.159 109.354C129.298 106.89 129.187 104.418 128.829 101.976C128.829 101.618 128.829 101.208 128.601 100.875C128.403 99.7102 128.09 98.5688 127.665 97.468C127.058 95.357 125.776 93.5098 124.018 92.2168C123.462 92.0133 122.853 92.0133 122.297 92.2168C122.144 92.4583 122.041 92.7283 121.993 93.0108C121.935 93.2943 121.964 93.589 122.078 93.8548C122.191 94.1206 122.382 94.3447 122.626 94.4966C122.835 94.6278 123.055 94.7393 123.284 94.8296V95.0345C123.289 95.077 123.289 95.12 123.284 95.1626C123.252 95.5944 123.184 96.0228 123.082 96.4434C122.404 98.9488 120.811 101.1 118.625 102.463C117.661 103.053 116.654 103.566 115.612 104L114.852 104.307L113.738 104.794L110.751 105.896L107.332 107.151L103.382 108.508L102.066 108.944L100.521 109.533L99.255 110.02C98.3435 110.378 97.5585 110.66 96.9255 110.993C96.533 111.163 96.1523 111.36 95.7861 111.582L95.5582 111.71L95.229 111.915L94.1656 112.607L93.6592 112.966C93.5368 113.045 93.4185 113.13 93.3047 113.222C91.9169 114.203 90.6125 115.3 89.4053 116.5Z" fill="url(#paint6_linear_492_18829)"/>
<path style="mix-blend-mode:multiply" opacity="0.5" d="M124.854 113.76L125.031 113.939L124.854 113.76Z" fill="url(#paint7_linear_492_18829)"/>
<path d="M65.783 61.9389C65.783 62.5281 65.9603 63.1429 66.0615 63.7064C66.1628 64.27 66.0615 64.2443 66.2894 64.5261C66.342 64.7888 66.4183 65.046 66.5173 65.2946C66.5173 65.5764 66.6946 65.8069 66.7452 66.0374C67.2609 67.2542 68.0601 68.3264 69.0747 69.1626L69.2772 69.3163C69.4067 69.4305 69.5516 69.5254 69.7077 69.598L70.1635 69.8286C71.2063 70.3489 72.3442 70.6454 73.5058 70.6995H75.1516H75.7846H76.2657C76.2856 70.7087 76.3072 70.7135 76.329 70.7135C76.3509 70.7135 76.3724 70.7087 76.3923 70.6995C76.6844 70.6836 76.9734 70.632 77.2532 70.5458C77.3869 70.5727 77.5246 70.5727 77.6583 70.5458C77.8179 70.5689 77.9799 70.5689 78.1394 70.5458L78.975 70.3409H79.4308L80.5449 69.9566C82.6639 69.2184 84.7214 68.3105 86.6978 67.2414L87.0522 66.601C87.2562 66.5189 87.4514 66.4159 87.6346 66.2936H87.8372L89.6603 65.269L90.0654 65.0384C90.6478 64.6798 91.2808 64.2443 91.9391 63.7576L92.3442 63.4759C92.7747 63.1172 93.2558 62.7842 93.6862 62.4L94.3446 61.8108C94.7497 61.4778 95.1295 61.1192 95.5853 60.7862C97.2564 59.1724 99.0035 57.3793 100.649 55.4837C101.257 54.869 101.814 54.1773 102.396 53.4857C102.979 52.7941 103.764 51.9488 104.27 51.2315C104.777 50.5143 104.979 50.3862 105.308 49.9507C105.638 49.5153 106.321 48.6443 106.828 48.0039C106.818 47.9618 106.818 47.918 106.828 47.8759L108.828 45.4167C109.663 44.3153 110.398 43.3163 111.056 42.3941L112.347 40.4729L113.259 39.1665C114.069 37.9626 114.55 37.1429 114.601 37.0916C114.652 37.0404 113.943 37.0916 112.955 36.1438C111.968 35.1961 109.663 31.7123 107.309 24.335C107.309 24.1044 107.131 23.8483 107.03 23.5921C106.219 21.3207 105.21 19.1263 104.017 17.0345C100.304 10.9218 95.9761 5.21339 91.1035 0C91.8564 1.16865 92.4685 2.4242 92.9266 3.7399C93.3038 4.67591 93.3038 5.72409 92.9266 6.6601C92.5411 7.39397 91.8866 7.94574 91.1035 8.19704L89.9641 8.63251C89.0272 8.96552 87.8372 9.4266 86.2167 10.1438C84.5925 10.9457 83.0119 11.835 81.4817 12.8079C80.0003 13.7449 78.7038 14.9523 77.6583 16.3685C75.5449 19.2199 73.84 22.3589 72.5942 25.6926C71.5813 28.2075 70.694 30.7723 69.9356 33.3773C69.2519 35.7084 68.6696 38.0138 68.1378 40.3448C67.834 41.7537 67.5301 43.1626 67.2769 44.5714C66.0569 50.2737 65.5549 56.1092 65.783 61.9389Z" fill="url(#paint8_linear_492_18829)"/>
<path style="mix-blend-mode:multiply" opacity="0.5" d="M65.7826 61.9389C65.7826 62.5281 65.9599 63.1429 66.0611 63.7064C66.1624 64.27 66.0611 64.2443 66.289 64.5261C66.3416 64.7888 66.4179 65.046 66.5169 65.2946C66.5169 65.5764 66.6941 65.8069 66.7448 66.0374C67.2604 67.2542 68.0597 68.3264 69.0743 69.1626L69.2768 69.3163C69.4063 69.4305 69.5512 69.5254 69.7073 69.598L70.1631 69.8286C71.2059 70.3489 72.3438 70.6454 73.5054 70.6995H75.1512H75.7842H76.2653C76.2852 70.7087 76.3068 70.7135 76.3286 70.7135C76.3505 70.7135 76.372 70.7087 76.3919 70.6995C76.6839 70.6836 76.973 70.632 77.2528 70.5458H77.6833C77.8428 70.5689 78.0048 70.5689 78.1643 70.5458L78.9999 70.3409H79.4557L80.4432 69.1626H80.7977L81.7598 68.5222L87.1278 64.9103L91.0778 62.3488H91.2044L92.9009 61.1961L93.3313 60.8887H93.5339C93.8922 60.6682 94.2387 60.4288 94.572 60.1714L94.8252 60.0434L95.1544 59.7872L96.2432 58.7626L97.4839 57.5074L102.675 52.3842L104.7 50.3862L105.814 49.2847L106.675 48.3882L109.207 46.0059L112.119 42.7783C111.715 42.7048 111.323 42.5755 110.954 42.3941H110.752C110.029 41.9438 109.379 41.3821 108.827 40.7291L108.549 40.4473C108.08 39.8997 107.64 39.3268 107.232 38.731C106.342 37.4468 105.538 36.1032 104.827 34.7094C101.94 29.2532 99.231 22.2345 95.6861 16.2148L95.3823 15.7281C95.2876 15.5398 95.1775 15.3599 95.0531 15.1901C94.7493 14.6522 94.4201 14.1655 94.0909 13.6788C93.7618 13.1921 93.3313 12.5517 92.9262 12.0138C92.5211 11.4759 92.0147 10.8611 91.5842 10.3232L90.1916 8.81182C89.2547 9.14483 88.0647 9.60591 86.4441 10.3232C88.5691 12.6798 90.5559 15.1603 92.3945 17.7517C97.6611 25.2571 101.662 31.3537 104.32 35.6828C105.232 37.1172 105.941 38.2443 106.574 39.3458C106.903 39.935 107.207 40.4729 107.511 40.9084C107.815 41.3438 107.688 41.2158 107.789 41.3438C108.473 42.5222 108.802 43.1882 108.802 43.1882L104.194 44.136L103.814 43.265C103.814 43.265 103.814 43.265 103.814 43.1113C103.814 42.9576 103.485 42.3941 103.232 41.9074C102.978 41.4207 102.447 40.1655 101.89 39.1153C98.6993 32.8906 92.1413 22.5163 82.2156 17.931C81.9202 17.7579 81.6058 17.6204 81.2788 17.5212H81.0762C79.9805 17.0378 78.8452 16.6521 77.6833 16.3685C75.5698 19.2199 73.865 22.3589 72.6191 25.6926C73.48 25.5133 74.3156 25.4108 75.1512 25.3084H75.531C76.3044 25.2172 77.0819 25.1659 77.8605 25.1547C81.296 24.8313 84.7576 25.3624 87.9439 26.7018C91.1302 28.0411 93.9445 30.1482 96.1419 32.8394C98.3195 35.5547 99.9147 37.9626 101.206 39.7557C101.763 40.6778 102.269 41.4719 102.649 42.3172C102.886 42.6823 103.089 43.0681 103.257 43.4699C103.729 44.4027 104.152 45.3604 104.523 46.3389C104.851 47.1642 105.088 48.0231 105.232 48.9005L103.51 46.7488L102.092 45.0325C102.009 44.9054 101.916 44.7855 101.814 44.6739L101.611 44.469L100.978 43.7773C100.548 43.3163 100.016 42.7783 99.3576 42.1635C93.178 36.2903 85.0474 32.9727 76.5691 32.865H74.5435C73.6573 32.865 72.7204 33.0187 71.7583 33.1468L69.8845 33.4798C69.2009 35.8108 68.6185 38.1163 68.0868 40.4473C68.6185 40.4473 69.0743 40.2167 69.5807 40.1399C71.6063 39.7044 73.5813 39.3714 75.4297 39.1665C75.9361 39.1665 76.4679 39.1665 76.949 39.0384C80.4167 38.6554 83.923 38.8457 87.3304 39.602C91.064 40.38 94.6642 41.7092 98.0156 43.5468C98.6103 43.8983 99.1852 44.2831 99.7374 44.6995C99.9251 44.8216 100.103 44.9587 100.269 45.1094L100.7 45.468C101.267 45.9344 101.777 46.4675 102.219 47.0562C102.402 47.2495 102.547 47.4753 102.649 47.7222L101.839 47.2099C101.424 46.9281 100.993 46.6715 100.548 46.4414C100.369 46.3192 100.183 46.208 99.9906 46.1084L99.2563 45.7241L98.8512 45.5448C98.2941 45.2631 97.6865 45.0069 97.0281 44.7251C90.8676 42.0723 84.1362 41.0667 77.4807 41.8049C77.0705 41.8378 76.6639 41.9064 76.2653 42.0098C73.6609 42.3808 71.1103 43.0689 68.6691 44.0591C68.2387 44.2384 67.7323 44.3921 67.2765 44.597C66.0586 50.2909 65.5566 56.1177 65.7826 61.9389Z" fill="url(#paint9_linear_492_18829)"/>
<path style="mix-blend-mode:multiply" opacity="0.5" d="M75.7332 77.4365L86.4944 67.4207L104.599 50.5399L106.295 48.3882C107.89 46.3389 109.283 44.4177 110.448 42.7783C112.701 39.602 114.094 37.399 114.094 37.399C114.094 37.399 111.081 38.1931 106.624 24.5911C106.624 24.335 106.472 24.0788 106.371 23.8227C108.574 31.5074 104.396 36.2463 95.863 46.1852C87.33 56.1241 79.9617 63.1429 77.379 71.5704C76.2143 75.1567 75.7332 77.4365 75.7332 77.4365Z" fill="url(#paint10_linear_492_18829)"/>
<path style="mix-blend-mode:screen" d="M91.1036 0C91.8565 1.16865 92.4686 2.4242 92.9267 3.7399C97.1745 7.62034 100.85 12.0975 103.84 17.0345C100.182 10.9301 95.9144 5.22197 91.1036 0V0Z" fill="url(#paint11_linear_492_18829)"/>
<path style="mix-blend-mode:screen" d="M90.1147 8.63251C90.6038 9.11228 91.0686 9.6167 91.5074 10.1438C91.9884 10.6818 92.4189 11.2453 92.8493 11.8345C93.2798 12.4236 93.609 12.936 94.0141 13.4995C94.4192 14.0631 94.6724 14.4729 94.9763 15.0108C95.1006 15.1806 95.2107 15.3605 95.3054 15.5488L95.6093 16.0355C97.1285 18.597 98.1413 20.6975 98.3945 21.1586C96.5486 16.6011 94.141 12.2977 91.2288 8.35074L90.1147 8.63251Z" fill="url(#paint12_linear_492_18829)"/>
<path style="mix-blend-mode:multiply" opacity="0.5" d="M86.3936 63.4502C58.7942 18.2897 88.166 14.7803 88.166 14.7803C88.166 14.7803 82.3676 13.6788 76.7971 22.465C69.8846 33.3261 64.9977 53.9212 67.9602 64.8591C70.8468 75.3616 86.3936 63.4502 86.3936 63.4502Z" fill="url(#paint13_linear_492_18829)"/>
<path d="M145.821 62.067C147.897 64.3468 149.518 66.0887 150.885 67.4719C153.24 69.8798 154.405 70.9044 154.405 70.9044C154.959 69.8504 155.408 68.7435 155.747 67.6C156.418 65.7828 156.707 63.8436 156.593 61.9069C156.48 59.9703 155.967 58.079 155.088 56.3547C153.722 54.2974 151.808 52.6737 149.568 51.6717C147.327 50.6698 144.851 50.3307 142.428 50.6936C142.301 51.2315 139.947 55.5094 145.821 62.067Z" fill="url(#paint14_radial_492_18829)"/>
<path d="M142.884 53.7931C151.594 52.1537 155.038 61.6315 151.67 66.9084C148.303 72.1852 142.884 53.7931 142.884 53.7931Z" fill="url(#paint15_radial_492_18829)"/>
<path d="M48.8418 91.0384C49.4222 90.1259 50.0832 89.2685 50.8168 88.4768L51.1207 88.1951C51.809 87.3354 52.6663 86.6297 53.6383 86.1226C54.6102 85.6156 55.6757 85.3182 56.7671 85.2493C59.2992 85.4542 65.3761 96.597 79.1505 105.742C80.1633 106.433 81.2014 107.074 82.2902 107.714L84.088 108.713C85.2527 109.354 86.4428 109.968 87.6582 110.532L88.6963 110.993C90.2902 111.736 91.9213 112.395 93.5832 112.966C93.7456 113.063 93.927 113.124 94.1149 113.145C94.2044 113.181 94.3039 113.181 94.3934 113.145L94.8239 113.324L95.6341 113.58C96.8543 114.008 98.0969 114.367 99.3562 114.656C99.812 114.81 100.242 114.912 100.673 115.015C100.953 115.104 101.242 115.164 101.534 115.194H101.939C102.404 115.344 102.877 115.463 103.357 115.553H103.585C104.116 115.681 104.674 115.783 105.205 115.86L107.864 116.296H108.244C108.902 116.296 109.56 116.5 110.269 116.577H111.206H111.358H112.219C112.514 116.604 112.81 116.604 113.105 116.577H113.612H114.473C115.941 116.577 117.359 116.577 118.726 116.577H119.891C120.6 116.577 121.309 116.577 122.018 116.372H122.347H122.98C124.373 116.193 125.74 115.937 127.057 115.63C127.462 115.63 127.867 115.45 128.222 115.322C129.151 115.102 130.064 114.819 130.956 114.477C131.387 114.477 131.817 114.169 132.222 114.016H132.45H132.703C141.979 109.974 149.672 102.94 154.58 94.0099C161.366 83.0719 163.037 71.5704 161.442 70.5458C160.829 70.4397 160.228 70.2768 159.644 70.0591H159.467C158.307 69.6696 157.226 69.0707 156.277 68.2916L155.846 67.8049C155.239 67.0365 154.2 65.5507 152.808 63.5783C150.442 60.1715 147.907 56.8885 145.212 53.7419C144.376 52.7941 143.49 51.8207 142.68 50.8729C141.869 49.9251 141.059 49.2591 140.148 48.465C136.7 45.1694 132.728 42.4849 128.399 40.5241C123.675 38.3404 118.346 37.8964 113.333 39.269H113.055C112.067 39.5764 111.029 39.935 109.991 40.3448C109.679 40.4528 109.375 40.5811 109.079 40.7291L108.446 40.9852L108.016 41.1901C106.699 41.7537 105.484 42.3941 104.041 43.1113L103.509 43.3675L101.863 44.2897L100.597 45.0325C100.217 45.2118 99.8626 45.468 99.5335 45.6473C99.2043 45.8266 98.2928 46.3901 97.7104 46.8L96.4697 47.6197C95.0518 48.5419 93.6085 49.5153 92.1905 50.5655L90.8992 51.4877C90.6108 51.6693 90.3319 51.866 90.0636 52.0768C89.2533 52.666 88.4937 53.2552 87.7088 53.87L86.2149 54.997L84.9995 55.9448L83.303 57.3281C78.8973 60.9143 74.6941 64.5005 71.0479 67.7793L70.5162 68.2404L69.9085 68.7527C69.7393 68.8782 69.5862 69.0245 69.4527 69.1882L65.5027 72.6719L64.3633 73.6966C60.6918 76.9498 58.0838 79.0502 57.1469 79.0759C56.1319 79.0417 55.1404 78.7579 54.258 78.2491C53.3757 77.7403 52.6291 77.0218 52.0828 76.1557C51.8338 75.7847 51.6056 75.3998 51.3992 75.003L51.0953 77.2828L48.8418 91.0384Z" fill="url(#paint16_radial_492_18829)"/>
<path style="mix-blend-mode:multiply" opacity="0.5" d="M159.037 77.1547C159.07 77.3926 159.07 77.634 159.037 77.8719C159.12 77.6402 159.12 77.3864 159.037 77.1547Z" fill="url(#paint17_linear_492_18829)"/>
<path style="mix-blend-mode:multiply" opacity="0.5" d="M144.782 86.2739C146.48 86.5439 148.217 86.3945 149.846 85.8384C151.693 84.5663 153.248 82.9063 154.404 80.9714C155.371 79.5061 156.52 78.1718 157.822 77.001C157.921 76.9711 158.027 76.9711 158.126 77.001C158.349 76.9318 158.587 76.9318 158.809 77.001C158.987 77.001 159.088 77.1547 159.113 77.2571C159.113 76.3606 158.683 74.9005 157.164 74.9005C156.201 74.9005 154.632 77.9744 152.91 80.869L152.125 81.9704C151.471 83.3531 150.52 84.5698 149.34 85.531C147.905 86.1594 146.339 86.4147 144.782 86.2739Z" fill="url(#paint18_linear_492_18829)"/>
<path d="M3.99976 55.4325C3.99111 55.5604 3.99111 55.6888 3.99976 55.8168C4.49166 57.4676 5.06634 59.092 5.72155 60.6837C6.02539 61.3498 6.32925 62.0926 6.68373 62.8867C7.31675 64.2956 8.12701 65.8069 9.01323 67.3695C9.19047 67.6768 9.34239 67.9842 9.54495 68.2916C12.3819 73.1701 16.1318 77.4422 20.5847 80.869C32.9158 90.065 35.777 90.3468 35.777 90.3724L35.4225 90.5517C35.3222 90.5317 35.219 90.5317 35.1187 90.5517C34.4857 90.8591 33.4475 91.397 32.2574 92.0887C32.0608 92.1897 31.8742 92.3098 31.7004 92.4473C31.0027 92.846 30.3265 93.2821 29.6748 93.7537L28.9911 94.2148L28.3075 94.6759C25.7929 96.3399 23.8682 98.7716 22.8129 101.618C22.8129 101.746 22.8129 101.848 22.8129 101.951C22.2001 106.365 22.132 110.84 22.6103 115.271H22.7369C23.1674 115.117 24.0283 114.81 25.269 114.323C25.5547 114.212 25.8337 114.083 26.1046 113.939C26.3325 113.939 26.5857 113.734 26.8389 113.657L27.5478 113.299C28.51 112.837 29.5735 112.3 30.6876 111.634H30.9661C31.3416 111.374 31.7304 111.134 32.1308 110.916L33.3969 110.097L34.9161 109.072C35.2959 108.79 35.701 108.534 36.0555 108.227C36.41 107.919 37.3722 107.228 38.0558 106.69L39.0687 105.793C39.4232 105.511 39.7523 105.23 40.1068 104.897L41.4741 103.565L42.6389 102.233C45.4837 98.7799 47.8831 94.9753 49.7792 90.9104C50.2097 90.0906 50.5642 89.2453 50.8933 88.4768C51.9654 86.2835 53.8345 84.5946 56.1094 83.7635C54.296 81.4962 52.7257 79.0404 51.4251 76.4374C49.7793 71.7754 46.8421 65.8581 42.4616 63.2453C37.3701 61.0104 31.9906 59.5183 26.4844 58.8138C15.8751 56.6108 3.99976 55.4325 3.99976 55.4325Z" fill="url(#paint19_linear_492_18829)"/>
<g style="mix-blend-mode:multiply" opacity="0.4">
<path d="M60.5405 79.4089C62.0738 77.3071 63.8315 75.3828 65.7818 73.6709C66.1616 73.3635 66.5161 72.9793 66.8706 72.6463C66.9357 72.6206 67.008 72.6206 67.0732 72.6463C67.6429 72.8783 68.2621 72.9577 68.8709 72.8768C69.2318 72.8298 69.5686 72.6684 69.8331 72.4158C70.1391 72.0346 70.2846 71.5469 70.2382 71.0581C70.2382 70.9044 70.2382 70.6995 70.2382 70.4946C70.2261 70.2898 70.2261 70.0845 70.2382 69.8798C70.2382 69.8798 70.2382 69.6493 70.2382 69.5468L71.1245 68.7527L71.5296 68.3941L73.9097 66.2424C73.8367 67.2174 73.8792 68.1977 74.0363 69.1626C74.0668 69.5609 74.1346 69.9555 74.2389 70.3409C74.2276 70.4944 74.2276 70.6485 74.2389 70.802C74.216 70.9634 74.216 71.1273 74.2389 71.2887V71.4167C74.5317 72.6904 75.1619 73.8594 76.062 74.798C76.2048 74.9611 76.4044 75.062 76.619 75.0798C77.3533 75.0798 77.7584 73.0049 78.6953 69.9566C78.7218 69.7464 78.7728 69.54 78.8472 69.3419C78.9738 68.9064 79.1257 68.5222 79.2777 68.0355C79.4296 67.5488 79.2777 67.7793 79.2777 67.6C79.2777 67.4207 79.2777 67.6 79.2777 67.6C79.2894 67.515 79.2894 67.4288 79.2777 67.3438C79.7954 65.748 80.4215 64.1903 81.1514 62.6818C81.7724 61.4404 82.4744 60.2424 83.253 59.0956C83.77 58.2591 84.3365 57.455 84.9495 56.6877L85.785 56.0473L86.7725 55.33L87.6334 54.6897C87.8333 54.5739 88.0201 54.4365 88.1905 54.2798L91.1023 52.7941L91.8366 52.2818C92.1405 52.0768 92.4443 51.9232 92.6975 51.7182C94.481 50.5555 96.3521 49.5362 98.2934 48.6699C98.3724 48.6172 98.4574 48.5742 98.5466 48.5419L100.446 47.7734C100.9 47.577 101.365 47.406 101.838 47.2611L102.269 47.1074C102.664 46.944 103.07 46.807 103.484 46.6975L104.497 46.3645C105.773 45.9609 107.089 45.7032 108.422 45.5961C108.504 45.5719 108.592 45.5719 108.675 45.5961H108.827C109.003 45.5682 109.182 45.5682 109.358 45.5961C111.257 45.5961 111.688 46.5951 111.713 47.466C111.713 49.1567 102.978 55.868 103.357 59.0699C103.384 59.2826 103.384 59.4977 103.357 59.7103C103.079 63.0148 97.9642 69.1626 97.9642 69.1626L100.851 69.3675C100.196 72.6775 99.8067 76.0355 99.686 79.4089C99.9392 81.4069 101.307 85.9153 109.688 89.9113L111.46 90.6798C120.094 94.266 119.968 92.3961 121.917 92.7547C122.279 92.7724 122.633 92.8684 122.956 93.0364C124.475 93.6256 123.842 94.0098 122.55 94.2404C121.943 94.3685 121.183 94.4453 120.449 94.5222H119.537H118.651H118.043H117.841C117.139 94.4602 116.458 94.2508 115.84 93.9074C115.557 93.8112 115.285 93.6823 115.03 93.5231C114.22 93.0877 113.41 92.601 112.777 92.2167L113.182 92.5498L114.676 93.7281C115.787 94.6097 116.836 95.5684 117.815 96.597C118.955 97.801 119.79 98.9281 119.664 99.7478C119.309 101.771 110.27 96.8276 103.965 101.515C102.242 101.312 100.613 100.617 99.2671 99.5096C97.9216 98.4024 96.9162 96.93 96.369 95.265C95.6854 93.2158 95.7866 91.4995 95.4828 91.4739C95.1789 91.4483 93.5838 92.7291 92.6469 94.4965C92.2314 95.2186 91.9775 96.024 91.9031 96.8561C91.8288 97.6882 91.9357 98.5266 92.2164 99.3123C94.016 102.94 96.1887 106.366 98.6985 109.533C98.8504 109.738 99.0277 109.917 99.1289 110.071L100.091 111.249V111.403H99.686H98.2934C97.7432 111.382 97.1982 111.288 96.6729 111.121C95.4997 110.844 94.4389 110.21 93.6344 109.302C92.0053 107.124 89.8877 105.368 87.4562 104.179V108.995V109.584C87.3201 109.39 87.2174 109.173 87.1523 108.944C85.6584 105.332 86.8991 98.0571 84.8482 96.136C83.2277 94.7015 83.5062 99.4148 83.7847 102.361C79.1435 100.048 74.6298 97.483 70.2636 94.6759C60.5405 88.1695 59.5023 82.1754 60.5405 79.4089ZM89.0261 55.9704C88.4545 55.9253 87.8796 55.986 87.3296 56.1498C87.113 56.2209 86.9081 56.3245 86.7219 56.4571C86.3425 56.6954 86.0425 57.0434 85.861 57.4562C85.7409 57.7929 85.6809 58.1485 85.6838 58.5064C85.6838 58.5064 89.2539 56.9951 89.5071 56.3291C89.6084 56.1498 89.4565 56.0217 89.0261 55.9704ZM91.6847 58.9163C91.0517 56.867 87.76 59.6335 85.4559 61.8877C84.1898 63.1172 83.2277 64.1931 83.2277 64.1931C82.4885 64.7368 81.9459 65.5106 81.6831 66.3961C81.6831 66.3961 81.6831 66.3961 81.6831 66.5241C81.6719 66.5482 81.666 66.5744 81.666 66.601C81.666 66.6276 81.6719 66.6538 81.6831 66.6778C81.4805 67.1389 81.3286 67.6768 81.1514 68.2148C80.9741 68.7527 81.1514 68.6246 80.9741 68.8296C80.9938 68.9826 80.9938 69.1376 80.9741 69.2906C80.6417 70.6219 80.3964 71.974 80.2398 73.3379C79.8249 74.9238 79.9225 76.6024 80.5184 78.1281C81.4805 78.999 86.9498 71.1094 89.9882 65.0128C90.2161 64.5517 90.444 64.0906 90.6466 63.6039C90.9237 63.0641 91.1689 62.5081 91.3809 61.9389C91.5517 61.6003 91.6712 61.2376 91.7354 60.8631C91.8564 60.5761 91.9415 60.2749 91.9886 59.9665C91.9999 59.8729 91.9999 59.7783 91.9886 59.6847C91.9479 59.4081 91.8438 59.1449 91.6847 58.9163ZM86.3674 89.2965C85.3293 90.6286 89.6844 95.0601 91.0517 93.6C91.1023 93.6512 87.4309 87.9901 86.3674 89.3478V89.2965Z" fill="#C74CBD"/>
</g>
<path style="mix-blend-mode:multiply" opacity="0.5" d="M106.016 75.5921C106.016 75.5921 116.828 88.5537 128.526 85.3261C140.224 82.0985 140.173 65.0128 137.591 60.4788C136.676 59.4121 135.649 58.45 134.527 57.6098C132.34 55.8911 129.837 54.6299 127.163 53.8999C124.49 53.1698 121.699 52.9855 118.955 53.3576C116.328 53.7613 113.872 54.9236 111.882 56.7048C109.893 58.486 108.454 60.8105 107.738 63.399C107.732 63.4415 107.732 63.4846 107.738 63.5271C107.738 63.5271 107.738 63.5271 107.738 63.6552C106.47 67.4996 105.887 71.5414 106.016 75.5921Z" fill="url(#paint20_linear_492_18829)"/>
<path d="M135.413 61.4778C138.856 65.7557 140.249 83.4305 125.892 85.7103C111.536 87.9901 106.699 78.666 106.142 76.3862C105.205 72.467 106.927 56.1498 119.41 55.1507C122.37 54.9788 125.333 55.455 128.094 56.547C130.856 57.6389 133.352 59.3208 135.413 61.4778Z" fill="url(#paint21_radial_492_18829)"/>
<path d="M108.422 70.4433C108.272 72.4334 108.71 74.4237 109.678 76.1624C110.646 77.9012 112.103 79.3105 113.863 80.212C115.623 81.1136 117.608 81.467 119.566 81.2276C121.525 80.9882 123.369 80.1667 124.866 78.8669C126.363 77.5672 127.446 75.8476 127.977 73.9255C128.508 72.0033 128.464 69.9651 127.851 68.0683C127.237 66.1715 126.081 64.5013 124.529 63.269C122.978 62.0367 121.099 61.2975 119.132 61.1448C117.826 61.0434 116.512 61.2035 115.266 61.616C114.02 62.0285 112.867 62.6853 111.873 63.5488C110.878 64.4124 110.061 65.4657 109.469 66.6487C108.877 67.8317 108.521 69.1212 108.422 70.4433Z" fill="url(#paint22_radial_492_18829)"/>
<path style="mix-blend-mode:screen" d="M111.511 70.2128C111.419 71.4502 111.692 72.6872 112.295 73.7676C112.899 74.848 113.805 75.7233 114.899 76.2828C115.994 76.8423 117.228 77.061 118.446 76.9112C119.663 76.7614 120.81 76.2498 121.74 75.4411C122.67 74.6324 123.343 73.5629 123.672 72.3677C124.002 71.1726 123.974 69.9054 123.592 68.7263C123.21 67.5472 122.491 66.5092 121.526 65.7434C120.561 64.9775 119.393 64.5183 118.17 64.4237C117.356 64.3573 116.537 64.4548 115.761 64.7104C114.985 64.9661 114.266 65.3749 113.647 65.9132C113.028 66.4516 112.52 67.1087 112.153 67.8467C111.787 68.5847 111.568 69.3889 111.511 70.2128Z" fill="url(#paint23_radial_492_18829)"/>
<path d="M112.828 69.9823C112.751 70.9934 112.972 72.0051 113.463 72.8892C113.954 73.7733 114.694 74.4899 115.588 74.9484C116.483 75.4068 117.491 75.5864 118.486 75.4644C119.482 75.3424 120.419 74.9243 121.179 74.2631C121.939 73.6019 122.488 72.7273 122.757 71.7501C123.025 70.7729 123.001 69.7371 122.687 68.7739C122.373 67.8107 121.783 66.9635 120.993 66.3395C120.202 65.7156 119.247 65.343 118.247 65.269C116.911 65.1701 115.591 65.6105 114.576 66.4938C113.56 67.3771 112.932 68.6314 112.828 69.9823Z" fill="#1C1249"/>
<path style="mix-blend-mode:screen" d="M107.966 66.934C107.637 71.3143 111.46 71.8266 115.79 72.0571C120.12 72.2877 129.21 68.6502 129.514 64.3724C129.818 60.0946 124.019 55.5606 116.854 56.3034C112.651 56.7901 108.295 62.5537 107.966 66.934Z" fill="url(#paint24_radial_492_18829)"/>
<path d="M125.589 70.9044C125.589 71.9035 126.602 72.8256 128.121 72.9281C129.64 73.0305 130.653 72.3133 130.83 71.2887C131.007 70.264 129.817 69.3675 128.298 69.265C126.779 69.1626 125.665 69.9054 125.589 70.9044Z" fill="white"/>
<path d="M149.948 58.0197C149.948 58.7882 151.037 59.2493 152.125 59.0699C153.214 58.8906 153.948 58.1478 153.822 57.3793C153.695 56.6108 152.733 56.1497 151.67 56.3291C150.606 56.5084 149.846 57.2512 149.948 58.0197Z" fill="white"/>
<path d="M154.404 80.9714C155.835 80.1658 157.451 79.7592 159.088 79.7931C159.137 79.1879 159.137 78.5796 159.088 77.9744C159.108 77.5678 158.982 77.1676 158.734 76.8473C158.511 76.7781 158.273 76.7781 158.05 76.8473C157.951 76.8174 157.846 76.8174 157.746 76.8473C156.461 78.0704 155.338 79.4567 154.404 80.9714Z" fill="#1C1249"/>
<path d="M157.975 76.8473L157.747 77.0266C157.846 76.9967 157.952 76.9967 158.051 77.0266C158.273 76.9574 158.512 76.9574 158.734 77.0266C158.646 76.9152 158.523 76.837 158.385 76.8045C158.247 76.772 158.103 76.7871 157.975 76.8473Z" fill="#1C1249"/>
<path d="M126.172 42.266C126.172 42.266 120.576 43.6493 118.145 40.8828C118.145 40.9852 123.766 38.4237 126.172 42.266Z" fill="white"/>
<path style="mix-blend-mode:screen" d="M82.3426 107.766L84.1404 108.765C85.3051 109.405 86.4952 110.02 87.7106 110.583L88.7487 111.044C90.3426 111.788 91.9737 112.446 93.6356 113.017C93.798 113.114 93.9794 113.176 94.1673 113.196C94.2568 113.232 94.3563 113.232 94.4458 113.196L94.8763 113.375L95.6865 113.632C96.9067 114.059 98.1493 114.418 99.4086 114.707C99.8644 114.861 100.295 114.964 100.725 115.066C101.005 115.155 101.294 115.215 101.586 115.245H101.991C102.456 115.395 102.93 115.515 103.409 115.604H103.637C104.169 115.732 104.726 115.834 105.258 115.911L107.916 116.347H108.296C108.954 116.347 109.613 116.552 110.322 116.629H111.259H111.36H112.221C112.516 116.655 112.812 116.655 113.107 116.629H113.613H114.474C115.943 116.629 117.361 116.629 118.728 116.629H119.893C120.602 116.629 121.311 116.629 122.02 116.424H122.349H122.982C124.375 116.244 125.742 115.988 127.059 115.681C127.464 115.681 127.869 115.501 128.223 115.373C129.152 115.153 130.066 114.871 130.958 114.528C131.388 114.528 131.819 114.221 132.224 114.067H132.452H132.705C141.981 110.025 149.674 102.991 154.582 94.0611C149.518 101.029 141.922 109.431 131.616 113.068H131.414L130.983 113.222L129.743 113.58H129.388L128.527 113.785C128.135 113.892 127.738 113.978 127.337 114.041C126.831 114.195 126.299 114.272 125.793 114.374C125.109 114.528 124.451 114.631 123.767 114.733H122.982H122.425C121.969 114.733 121.463 114.733 121.007 114.887C120.67 114.911 120.331 114.911 119.994 114.887H118.298C117.082 114.887 115.766 114.887 114.677 114.887H113.563C113.285 114.914 113.005 114.914 112.727 114.887H111.031H108.954C108.846 114.86 108.733 114.86 108.625 114.887L106.777 114.682H106.169L103.485 114.272C102.945 114.272 102.413 114.169 101.89 113.965H101.434H100.776C100.604 113.962 100.437 113.908 100.295 113.811C99.0292 113.63 97.783 113.33 96.5727 112.914C96.517 112.94 96.4566 112.953 96.3955 112.953C96.3344 112.953 96.2739 112.94 96.2183 112.914C95.5852 112.761 94.9775 112.581 94.3699 112.376H94.066C92.5974 111.941 91.2301 111.48 89.8628 110.942C89.483 110.763 89.0779 110.634 88.6727 110.43C87.1776 109.864 85.7151 109.214 84.2923 108.483C83.6593 108.457 83.0009 108.124 82.3426 107.766Z" fill="url(#paint25_linear_492_18829)"/>
<path style="mix-blend-mode:multiply" opacity="0.5" d="M103.61 114.861C103.516 115.808 103.602 116.765 103.863 117.679C103.687 116.75 103.602 115.807 103.61 114.861Z" fill="url(#paint26_linear_492_18829)"/>
<path style="mix-blend-mode:multiply" opacity="0.5" d="M101.408 137.198C101.408 137.198 101.661 137.582 102.066 138.069L101.408 137.198Z" fill="url(#paint27_linear_492_18829)"/>
<path style="mix-blend-mode:multiply" opacity="0.5" d="M22.6108 115.271H22.7374C23.1679 115.117 24.0288 114.81 25.2695 114.323C25.5552 114.212 25.8342 114.083 26.1051 113.939C26.3329 113.939 26.5861 113.734 26.8393 113.657L27.5483 113.299C28.5105 112.837 29.574 112.3 30.6881 111.634H30.9666C31.3421 111.374 31.7309 111.134 32.1313 110.916L33.3974 110.097L34.9166 109.072C35.2964 108.79 35.7015 108.534 36.056 108.227C36.4105 107.919 37.3727 107.228 38.0563 106.69L39.0692 105.793C39.4236 105.511 39.7528 105.23 40.1073 104.897L41.4746 103.565C33.7265 110.353 24.915 113.196 24.3833 112.325C23.8515 111.454 33.3214 103.18 34.1823 102.463C31.3639 104.371 28.3809 106.017 25.2695 107.381C22.94 108.201 22.7374 103.795 22.7374 101.746C22.7374 101.874 22.7374 101.976 22.7374 102.079C22.1604 106.454 22.1178 110.885 22.6108 115.271Z" fill="url(#paint28_linear_492_18829)"/>
<path style="mix-blend-mode:multiply" opacity="0.5" d="M4.1012 55.8168C4.59311 57.4676 5.16778 59.092 5.82299 60.6838C6.12684 61.3498 6.43069 62.0926 6.78518 62.8867C7.41819 64.2956 8.22844 65.8069 9.11466 67.3695C9.2919 67.6769 9.44383 67.9842 9.6464 68.2916C12.4834 73.1701 16.2332 77.4422 20.6861 80.869C33.0172 90.065 35.8784 90.3468 35.8784 90.3724L35.524 90.5517C35.4236 90.5317 35.3204 90.5317 35.2201 90.5517C34.5871 90.8591 33.549 91.3971 32.3589 92.0887C32.1622 92.1898 31.9757 92.3099 31.8018 92.4473C31.1042 92.846 30.428 93.2821 29.7762 93.7537L29.0925 94.2148L28.4089 94.6759C34.6799 91.572 41.1219 88.8352 47.7031 86.4788C44.569 86.9891 41.406 87.2971 38.2332 87.401C31.7512 87.401 19.0656 79.1527 19.9012 78.8197C23.4461 77.4108 40.3349 78.6916 40.3349 78.6916C40.3349 78.6916 18.1794 74.7724 11.6974 69.2138C11.3429 68.932 11.0137 68.6759 10.7352 68.4197L31.7259 73.5429C27.8772 72.3645 11.7227 67.3182 7.9246 62.9379C20.4076 66.601 36.2329 68.8552 38.1573 69.1626C35.7772 68.4966 12.6089 62.2975 4.1012 55.8168Z" fill="url(#paint29_linear_492_18829)"/>
<path style="mix-blend-mode:screen" d="M64.9714 82.6364C65.5031 85.198 77.7836 91.3714 92.5961 94.7783C93.8283 95.0516 95.069 95.3077 96.3182 95.5468C103.346 96.9963 110.54 97.4361 117.689 96.8532C115.906 95.0845 113.983 93.4654 111.941 92.0118C113.283 92.9084 116.676 95.0857 118.018 94.8552C119.36 94.6246 126.196 94.4197 123.082 93.1389C119.968 91.8581 121.487 94.9064 111.561 90.7823C101.636 86.6581 98.673 83.0975 98.4198 81.0739C98.5549 77.7017 98.9443 74.3448 99.5845 71.0325L98.0653 69.2394C98.0653 69.2394 103.129 62.9892 103.509 59.5823C95.0814 60.1997 86.9493 62.986 79.8852 67.6768C77.9861 68.8552 76.239 70.0847 74.6185 71.2887C68.3137 75.8739 64.5156 80.5359 64.9714 82.6364Z" fill="url(#paint30_linear_492_18829)"/>
<path d="M139.49 69.1626C139.49 69.1626 139.11 80.6897 132.172 84.3783C128.057 86.5782 123.343 87.352 118.752 86.5813C123.521 87.9379 128.568 87.9379 133.337 86.5813C140.705 84.2502 139.49 69.1626 139.49 69.1626Z" fill="url(#paint31_radial_492_18829)"/>
<path d="M72.9978 139.708C72.8553 141.81 72.9146 143.92 73.175 146.01C73.1976 146.423 73.2484 146.834 73.327 147.239C73.327 147.598 73.4536 147.957 73.5295 148.315C73.6055 148.674 73.7068 149.033 73.7827 149.391C73.8569 149.712 73.9499 150.029 74.0613 150.339C74.4875 152.227 75.3559 153.984 76.5933 155.462C76.5933 155.462 77.8593 154.694 80.0116 153.157L80.9738 152.516C83.5058 150.723 86.7722 148.238 90.393 145.216L91.5577 144.242C93.0263 142.962 94.5456 141.681 96.0648 140.169L97.8372 138.504L99.7363 136.583L100.471 135.815C101.154 135.098 101.863 134.355 102.522 133.586C103.18 132.818 103.838 132.1 104.471 131.332C104.838 130.932 105.185 130.513 105.509 130.077C105.737 129.821 105.965 129.513 106.168 129.257C106.243 129.17 106.311 129.075 106.37 128.975C106.927 128.233 107.484 127.541 107.991 126.798C108.928 125.492 109.789 124.236 110.523 122.828C111.257 121.419 111.637 120.778 112.143 119.754C112.65 118.729 112.928 117.986 113.232 117.192C113.302 117.052 113.361 116.906 113.409 116.757L113.713 115.963C114.068 114.835 114.372 113.811 114.599 112.863C114.7 112.501 114.776 112.133 114.827 111.762C115.046 110.629 115.181 109.482 115.232 108.329C115.232 107.919 115.232 107.561 115.232 107.202C115.19 106.281 115.08 105.365 114.903 104.461C114.743 103.524 114.351 102.642 113.764 101.9C113.339 101.482 112.784 101.228 112.194 101.182C111.959 101.332 111.765 101.54 111.63 101.787C111.496 102.033 111.425 102.31 111.425 102.591C111.425 102.873 111.496 103.149 111.63 103.396C111.765 103.642 111.959 103.85 112.194 104C111.994 104.398 111.757 104.776 111.485 105.127C111.349 105.327 111.196 105.516 111.029 105.691C110.397 106.449 109.654 107.106 108.826 107.637C107.704 108.389 106.434 108.887 105.104 109.098C103.998 109.266 102.88 109.343 101.762 109.328H100.8C100.268 109.328 99.6856 109.328 99.1033 109.328C97.5081 109.328 95.7863 109.328 94.0392 109.098H92.925L88.7725 108.841H87.9369C87.8371 108.866 87.7328 108.866 87.6331 108.841H87.4052H84.6452H84.4174C83.1444 108.753 81.8669 108.753 80.594 108.841H79.9609C77.5207 109.2 75.1319 109.853 72.8459 110.788C74.7702 110.268 76.7959 110.268 78.7202 110.788C79.2716 110.996 79.7635 111.339 80.1522 111.786C80.5409 112.233 80.8145 112.77 80.9485 113.35C81.0275 113.618 81.0867 113.892 81.1257 114.169C81.2328 117.018 80.6229 119.847 79.3533 122.392C78.4164 124.646 77.2517 127.054 76.1882 129.539C75.4266 131.204 74.767 132.915 74.2132 134.662C73.5939 136.284 73.1853 137.98 72.9978 139.708Z" fill="url(#paint32_linear_492_18829)"/>
<path style="mix-blend-mode:multiply" opacity="0.5" d="M73.175 146.01C73.1976 146.423 73.2484 146.834 73.327 147.239C73.327 147.598 73.4536 147.957 73.5295 148.315C73.6055 148.674 73.7068 149.033 73.7827 149.391C73.8569 149.712 73.9499 150.029 74.0613 150.339C74.4875 152.227 75.3559 153.984 76.5933 155.462C76.5933 155.462 77.8593 154.694 80.0116 153.157L80.9738 152.516C83.5058 150.723 86.7722 148.238 90.393 145.216L91.5577 144.242C93.0263 142.962 94.5456 141.681 96.0648 140.169L97.8372 138.504L99.7363 136.583L100.471 135.815C101.154 135.098 101.863 134.355 102.522 133.586C103.18 132.818 103.838 132.101 104.471 131.332C104.838 130.932 105.185 130.513 105.509 130.077C105.737 129.821 105.965 129.513 106.168 129.257C106.243 129.17 106.311 129.075 106.37 128.975C106.927 128.233 107.484 127.541 107.991 126.798C108.928 125.492 109.789 124.236 110.523 122.828C111.257 121.419 111.637 120.778 112.143 119.754C112.65 118.729 112.928 117.986 113.232 117.192C113.302 117.052 113.361 116.906 113.409 116.757L113.713 115.963C114.068 114.835 114.372 113.811 114.599 112.863C114.7 112.501 114.776 112.133 114.827 111.762C115.046 110.629 115.181 109.482 115.232 108.329C114.964 109.152 114.643 109.957 114.27 110.737C114.093 111.07 113.916 111.429 113.764 111.787C113.612 112.146 113.384 112.504 113.156 112.863C112.928 113.222 112.498 113.965 112.093 114.554L111.206 115.86L110.371 116.91C108.493 119.152 106.379 121.179 104.066 122.956L103.205 123.647C102.8 123.977 102.377 124.285 101.939 124.569C101.382 125.031 100.774 125.415 100.217 125.825L99.7869 126.106C99.3024 126.48 98.795 126.822 98.2677 127.131C93.5966 130.216 88.4677 132.525 83.0754 133.97C80.0748 134.839 76.9438 135.151 73.8334 134.893C73.3297 136.445 73.0151 138.053 72.8965 139.683C72.7859 141.796 72.8792 143.915 73.175 146.01Z" fill="url(#paint33_linear_492_18829)"/>
<path style="mix-blend-mode:multiply" opacity="0.5" d="M75.9102 129.693C80.0748 130.018 84.264 129.663 88.3172 128.642C91.2867 127.907 94.172 126.859 96.9262 125.517C97.7618 125.107 98.6227 124.672 99.4583 124.211C99.5584 124.128 99.6691 124.059 99.7874 124.006C100.772 123.399 101.719 122.732 102.623 122.008C104.683 120.406 106.575 118.594 108.27 116.603C108.546 116.318 108.808 116.019 109.055 115.706C109.941 114.682 110.65 113.708 111.283 112.863C111.283 112.863 111.739 112.171 111.967 111.89C112.701 110.814 113.131 110.071 113.309 109.789C113.131 110.071 112.6 110.839 111.84 111.89C111.637 112.146 111.41 112.428 111.182 112.761C110.523 113.606 109.688 114.579 108.65 115.604C108.396 115.911 108.093 116.219 107.814 116.526C106.14 118.259 104.309 119.828 102.345 121.214C101.484 121.777 100.623 122.315 99.6862 122.828H99.5596C98.751 123.266 97.9032 123.626 97.0275 123.903C96.723 124.052 96.399 124.156 96.0653 124.211C94.6911 124.573 93.2814 124.779 91.8621 124.826C88.7129 124.858 85.5754 124.435 82.5442 123.57C81.3352 123.239 80.1436 122.846 78.974 122.392C78.1384 124.8 76.9737 127.208 75.9102 129.693Z" fill="url(#paint34_linear_492_18829)"/>
<path style="mix-blend-mode:multiply" opacity="0.5" d="M78.4428 110.993C78.9941 111.201 79.486 111.544 79.8748 111.991C80.2635 112.438 80.537 112.975 80.671 113.555C82.0365 113.318 83.4147 113.164 84.7983 113.094C87.6277 113.003 90.46 113.08 93.2806 113.324H94.4454C95.0277 113.324 95.6354 113.324 96.2178 113.324C96.3687 113.35 96.5227 113.35 96.6736 113.324C98.1936 113.413 99.7184 113.37 101.231 113.196C101.864 113.196 102.523 113.017 103.156 112.914H103.308C103.392 112.926 103.477 112.926 103.561 112.914C104.017 112.834 104.466 112.714 104.903 112.556C105.515 112.372 106.116 112.15 106.701 111.89C107.064 111.739 107.419 111.568 107.764 111.377C108.044 111.252 108.315 111.107 108.574 110.942C107.765 111.346 106.916 111.663 106.042 111.89C105.084 112.114 104.111 112.268 103.13 112.351H102.902C102.38 112.389 101.855 112.389 101.333 112.351C100.344 112.359 99.3548 112.316 98.3701 112.223C97.4079 112.223 96.4457 112.018 95.5088 111.89L93.9643 111.685C92.1159 111.429 90.3181 111.096 88.6976 110.839C88.352 110.814 88.0051 110.814 87.6595 110.839C86.6573 110.53 85.633 110.298 84.5957 110.148C83.7078 110.142 82.8203 110.184 81.937 110.276C80.7599 110.448 79.5933 110.688 78.4428 110.993Z" fill="url(#paint35_linear_492_18829)"/>
<path style="mix-blend-mode:multiply" opacity="0.5" d="M72.9987 139.708C72.8561 141.81 72.9155 143.92 73.1759 146.01C73.1984 146.423 73.2492 146.834 73.3278 147.239C73.3278 147.598 73.4544 147.957 73.5304 148.315C73.6064 148.674 73.7076 149.033 73.7836 149.391C73.8578 149.712 73.9508 150.029 74.0621 150.339C74.4883 152.227 75.3567 153.984 76.5942 155.462C76.5942 155.462 77.8602 154.694 80.0124 153.157L80.9746 152.516C83.5067 150.723 86.773 148.238 90.3938 145.216L91.5586 144.242C93.0272 142.962 94.5464 141.681 96.0656 140.169L97.8381 138.504L99.7371 136.583L100.471 135.815C101.155 135.098 101.864 134.355 102.522 133.586C103.181 132.818 103.839 132.1 104.472 131.332C104.839 130.932 105.185 130.513 105.51 130.077C105.738 129.821 105.966 129.513 106.169 129.257C106.244 129.17 106.312 129.075 106.371 128.975L106.118 129.257C105.839 129.539 105.536 129.846 105.257 130.179C104.953 130.512 104.675 130.845 104.32 131.178C102.978 132.613 101.383 134.201 99.7371 135.764C95.2301 140.016 90.2419 143.833 88.0897 142.757L87.3047 142.296C86.0775 141.282 85.0837 140.01 84.3927 138.567C83.7017 137.125 83.3302 135.547 83.3041 133.945C83.1872 132.901 83.3905 131.845 83.8865 130.922C85.217 129.814 86.7735 129.018 88.4442 128.591C89.5076 128.207 90.5205 127.899 91.3054 127.669C90.0288 128.051 88.6839 128.139 87.3694 127.926C86.0549 127.713 84.8043 127.205 83.7092 126.439C83.0355 125.688 82.6572 124.713 82.6458 123.699C82.678 120.031 83.4087 116.404 84.798 113.017H87.9884C87.7858 113.017 84.3676 111.633 81.9368 110.455C81.1064 110.13 80.3424 109.652 79.6833 109.046C77.243 109.404 74.8542 110.058 72.5682 110.993C74.4925 110.472 76.5183 110.472 78.4426 110.993C78.9939 111.201 79.4858 111.544 79.8745 111.991C80.2633 112.438 80.5368 112.975 80.6708 113.555C80.7498 113.823 80.8091 114.097 80.848 114.374C80.9551 117.223 80.3452 120.052 79.0756 122.597C78.1387 124.851 76.974 127.259 75.9105 129.744C75.1489 131.409 74.4893 133.12 73.9355 134.867C73.4277 136.436 73.1131 138.062 72.9987 139.708Z" fill="url(#paint36_linear_492_18829)"/>
<path style="mix-blend-mode:screen" d="M92.6466 109.251C92.9336 109.509 93.1887 109.802 93.4062 110.122C93.5319 110.295 93.6341 110.485 93.7101 110.686C93.8406 110.962 93.9343 111.255 93.9886 111.557C94.115 112.137 94.1745 112.73 94.1658 113.324C93.9497 116.305 94.2758 119.3 95.128 122.162C95.4025 122.936 95.7501 123.683 96.1662 124.39C96.3959 124.781 96.6496 125.158 96.9258 125.517C97.3246 126.11 97.7737 126.668 98.2678 127.182C99.6821 128.606 101.326 129.776 103.129 130.64L104.193 131.127H104.421C105.003 130.435 105.56 129.744 106.092 129.027C105.554 129.105 105.009 129.105 104.471 129.027C103.509 128.953 102.592 128.585 101.842 127.972C101.091 127.359 100.542 126.53 100.268 125.594C100.141 125.159 100.015 124.698 99.9136 124.185C99.9015 124.032 99.9015 123.878 99.9136 123.724C99.848 123.386 99.8057 123.044 99.787 122.7C99.7967 119.378 100.309 116.078 101.306 112.914C101.306 112.607 101.433 112.274 101.509 111.967C101.496 111.89 101.496 111.812 101.509 111.736C101.521 111.506 101.521 111.275 101.509 111.044C101.573 110.465 101.573 109.881 101.509 109.302C98.9261 109.61 95.761 109.456 92.6466 109.251Z" fill="url(#paint37_linear_492_18829)"/>
<path style="mix-blend-mode:multiply" opacity="0.5" d="M87.1783 142.347C90.7975 140.696 94.1997 138.597 97.3065 136.097C98.0408 135.482 98.8004 134.893 99.5347 134.227C100.269 133.561 101.408 132.51 102.32 131.665C102.548 131.383 102.801 131.127 103.054 130.845C103.517 130.407 103.948 129.936 104.346 129.436C105.055 128.591 105.738 127.771 106.422 126.875L107.106 125.978C107.739 125.107 108.346 124.262 108.853 123.417C110.143 121.439 111.269 119.357 112.22 117.192C112.402 116.809 112.563 116.415 112.701 116.014C113.132 114.938 113.436 113.965 113.714 113.017C113.714 112.658 113.866 112.274 113.942 111.941C114.032 111.596 114.099 111.245 114.145 110.891C114.262 110.214 114.321 109.528 114.322 108.841C114.373 108.407 114.373 107.969 114.322 107.535C114.343 106.636 114.115 105.748 113.664 104.973C113.575 104.799 113.45 104.647 113.297 104.528C113.144 104.408 112.966 104.324 112.777 104.282C112.47 104.202 112.148 104.202 111.84 104.282C111.605 104.132 111.411 103.924 111.277 103.678C111.142 103.431 111.072 103.154 111.072 102.873C111.072 102.591 111.142 102.315 111.277 102.068C111.411 101.822 111.605 101.614 111.84 101.464C112.431 101.51 112.986 101.764 113.41 102.181C113.998 102.924 114.39 103.805 114.55 104.743C114.726 105.647 114.836 106.563 114.879 107.484C114.879 107.842 114.879 108.201 114.879 108.611C114.828 109.764 114.692 110.911 114.474 112.043C114.422 112.415 114.346 112.783 114.246 113.145C114.018 114.093 113.714 115.117 113.36 116.244L113.056 117.038C113.008 117.188 112.948 117.333 112.879 117.474C112.575 118.294 112.22 119.165 111.79 120.035C111.359 120.906 110.752 122.085 110.169 123.109C109.587 124.134 108.523 125.671 107.637 127.08C107.131 127.823 106.574 128.514 106.017 129.257C105.958 129.357 105.89 129.451 105.814 129.539C105.612 129.795 105.384 130.102 105.156 130.359C104.831 130.795 104.485 131.214 104.118 131.614C103.485 132.382 102.826 133.125 102.168 133.868C101.51 134.611 100.801 135.379 100.117 136.097L99.3828 136.865L97.4837 138.786L95.7113 140.451C94.192 141.86 92.6728 143.243 91.2042 144.524L90.0395 145.498C86.6972 148.238 83.5068 150.723 80.9747 152.516L80.1898 153.105C78.0376 154.642 76.7715 155.411 76.7715 155.411C75.5341 153.933 74.6657 152.176 74.2395 150.288C74.1282 149.978 74.0352 149.661 73.961 149.34C73.961 148.981 73.7837 148.648 73.7078 148.264C73.6318 147.88 73.5812 147.547 73.5052 147.188C73.4266 146.782 73.3758 146.372 73.3533 145.959C78.1513 145.685 82.8491 144.458 87.1783 142.347ZM112.752 101.669C112.779 101.929 112.829 102.187 112.904 102.437C113.056 102.847 114.018 103.59 114.018 103.59C114.018 103.59 114.55 102.156 112.752 101.669Z" fill="url(#paint38_linear_492_18829)"/>
<path style="mix-blend-mode:screen" d="M116.574 45.1094C116.574 45.1094 133.387 48.1576 141.541 58.4039C146.386 64.3281 149.131 71.7226 149.339 79.4089C150.695 76.3891 152.478 73.5847 154.631 71.0837C156.129 70.103 157.94 69.7366 159.695 70.0591H159.467C158.307 69.6696 157.226 69.0707 156.277 68.2916L155.847 67.8049C155.239 67.0365 154.201 65.5507 152.808 63.5783C150.442 60.1715 147.907 56.8885 145.212 53.7419C144.376 52.7941 143.49 51.8207 142.68 50.8729C141.87 49.9251 141.059 49.2591 140.148 48.465C136.7 45.1694 132.728 42.4849 128.399 40.5241L125.741 41.6L123.031 42.7015L116.574 45.1094Z" fill="url(#paint39_linear_492_18829)"/>
<path style="mix-blend-mode:screen" d="M5.51921 56.6365C13.6977 61.7596 46.8423 71.6985 47.0195 70.7764C46.629 68.9894 45.8333 67.3187 44.6952 65.8961C43.5571 64.4736 42.1077 63.3381 40.4615 62.5793C36.0051 60.5301 5.51921 56.6365 5.51921 56.6365Z" fill="url(#paint40_linear_492_18829)"/>
<path style="mix-blend-mode:screen" d="M38.7656 73.2099C35.0891 73.7964 31.3267 73.4711 27.8018 72.2621C23.232 71.0443 18.8699 69.1358 14.8631 66.601C14.8884 65.9862 38.7656 73.2099 38.7656 73.2099Z" fill="url(#paint41_linear_492_18829)"/>
<path d="M95.1289 61.4778C91.736 62.6305 91.9892 64.9103 91.9892 64.9103C92.4441 64.5088 92.8674 64.072 93.2552 63.6039L95.1289 61.4778Z" fill="white"/>
<path d="M98.4707 54.6897C95.2297 55.0739 93.4066 60.6069 93.5332 60.5813C94.5689 60.4189 95.5504 60.0059 96.3944 59.3773C97.2416 57.8899 97.9372 56.3193 98.4707 54.6897Z" fill="white"/>
<path style="mix-blend-mode:screen" d="M43.5254 89.9113C43.5254 89.9113 25.801 103.923 24.3831 102.719C22.9651 101.515 26.5353 97.1093 30.1308 94.4453C33.7263 91.7813 43.5254 89.9113 43.5254 89.9113Z" fill="url(#paint42_linear_492_18829)"/>
<path style="mix-blend-mode:screen" d="M158.556 80.6896C157.921 81.2565 157.177 81.6835 156.371 81.9437C155.564 82.2039 154.713 82.2915 153.872 82.201C153.872 82.201 156.733 79.6394 157.746 79.6394C157.88 79.6113 158.019 79.6217 158.148 79.6695C158.276 79.7173 158.389 79.8005 158.473 79.9098C158.558 80.019 158.61 80.15 158.625 80.2878C158.639 80.4256 158.615 80.5648 158.556 80.6896Z" fill="url(#paint43_linear_492_18829)"/>
<path style="mix-blend-mode:screen" d="M4.0002 55.4325C3.99156 55.5604 3.99156 55.6888 4.0002 55.8167C4.49211 57.4676 5.06679 59.092 5.722 60.6837C6.02585 61.3498 6.3297 62.0926 6.68417 62.8867C7.31718 64.2956 8.12746 65.8069 9.01367 67.3695C9.19092 67.6768 9.34283 67.9842 9.54539 68.2916C12.3824 73.1701 16.1322 77.4422 20.5851 80.869C32.9162 90.065 35.7775 90.3468 35.7775 90.3724L35.423 90.5517C35.3226 90.5317 35.2194 90.5317 35.1191 90.5517C34.4861 90.8591 33.448 91.397 32.2579 92.0887C32.0612 92.1898 31.8747 92.3098 31.7009 92.4473C31.0032 92.846 30.327 93.2821 29.6752 93.7537L28.9915 94.2148L28.3079 94.6759C25.7933 96.3399 23.8686 98.7716 22.8133 101.618C22.8133 101.746 22.8133 101.848 22.8133 101.951C22.2005 106.365 22.1325 110.84 22.6108 115.271H22.7374C23.1678 115.117 24.0287 114.81 25.2694 114.323C25.5551 114.212 25.8341 114.083 26.105 113.939C26.3329 113.939 26.5861 113.734 26.8393 113.657L27.5483 113.299C28.5105 112.837 29.5739 112.3 30.688 111.633H30.9666C31.3421 111.374 31.7309 111.134 32.1313 110.916L33.3973 110.097L34.9166 109.072C35.2964 108.79 35.7015 108.534 36.056 108.227C36.4105 107.919 37.3726 107.228 38.0563 106.69L39.0691 105.793C39.4236 105.511 39.7528 105.23 40.1073 104.897L41.4746 103.565L42.6393 102.233C45.4842 98.7799 47.8835 94.9753 49.7797 90.9103C50.2101 90.0906 50.5646 89.2453 50.8938 88.4769C51.5822 87.6172 52.4395 86.9115 53.4114 86.4044C54.3834 85.8973 55.4488 85.5999 56.5403 85.531C59.0723 85.736 65.1492 96.8788 78.9236 106.024C79.9364 106.715 80.9746 107.356 82.0633 107.996L83.8611 108.995C82.5881 108.907 81.3107 108.907 80.0377 108.995H79.4047C76.9645 109.353 74.5756 110.007 72.2896 110.942C74.2139 110.421 76.2397 110.421 78.164 110.942C78.7153 111.15 79.2072 111.493 79.596 111.94C79.9847 112.387 80.2582 112.924 80.3922 113.503C80.4712 113.772 80.5305 114.046 80.5694 114.323C80.6765 117.172 80.0666 120.001 78.797 122.546C77.8601 124.8 76.6954 127.208 75.6319 129.693C74.8703 131.358 74.2107 133.069 73.6569 134.816C73.1532 136.368 72.8386 137.977 72.7201 139.606C72.6631 141.751 72.8157 143.896 73.1758 146.01C73.1984 146.423 73.2492 146.834 73.3278 147.239C73.3278 147.598 73.4544 147.957 73.5303 148.315C73.6063 148.674 73.7076 149.033 73.7835 149.391C73.8577 149.712 73.9507 150.029 74.0621 150.339C74.4883 152.227 75.3567 153.984 76.5941 155.462C76.5941 155.462 77.8601 154.694 80.0124 153.157L80.9746 152.516C83.5066 150.723 86.773 148.238 90.3938 145.216L91.5585 144.242C93.0271 142.962 94.5464 141.681 96.0656 140.169L97.838 138.504L99.7371 136.583C99.7371 137.121 99.7371 137.608 99.7371 138.146C99.8677 139.776 100.191 141.384 100.699 142.936C101.365 144.916 102.213 146.828 103.231 148.648L103.864 149.724L104.472 150.621C104.675 150.954 104.902 151.235 105.105 151.543L105.713 152.311C106.851 153.886 108.356 155.153 110.093 156C110.093 156 110.954 154.796 112.347 152.542L112.904 151.697C114.499 149.135 116.626 145.523 118.803 141.271L119.487 139.939C120.399 138.197 121.26 136.353 122.019 134.432L123.007 132.203C123.513 131.05 123.969 129.898 124.45 128.719C124.931 127.541 125.134 126.824 125.513 125.85C125.893 124.877 126.248 123.955 126.551 122.956C126.855 121.957 127.058 121.239 127.311 120.394C127.319 120.3 127.319 120.206 127.311 120.112C127.691 118.678 128.045 117.32 128.299 115.937C129.228 115.717 130.141 115.434 131.033 115.092C131.464 115.092 131.894 114.784 132.299 114.631H132.527H132.78C142.056 110.589 149.749 103.554 154.657 94.6246C161.367 83.0719 163.038 71.5704 161.443 70.5458C160.83 70.4397 160.229 70.2768 159.645 70.0591H159.468C158.308 69.6696 157.227 69.0707 156.278 68.2916L155.847 67.8049C156.533 65.9515 156.82 63.9714 156.689 61.9969C156.558 60.0223 156.012 58.0987 155.088 56.3547C153.722 54.2973 151.808 52.6737 149.567 51.6717C147.326 50.6698 144.851 50.3307 142.427 50.6936C141.643 49.8739 140.807 49.0798 139.895 48.2857C136.448 44.9901 132.476 42.3056 128.147 40.3448C123.423 38.1611 118.094 37.7171 113.081 39.0897C113.891 37.8857 114.372 37.066 114.423 37.0148C114.474 36.9635 113.765 37.0148 112.777 36.067C111.79 35.1192 109.485 31.6355 107.131 24.2581C107.131 24.0276 106.953 23.7714 106.852 23.5153C106.041 21.2438 105.032 19.0494 103.839 16.9576C100.177 10.88 95.9094 5.19778 91.1028 0C91.8557 1.16865 92.4677 2.4242 92.9258 3.7399C93.303 4.67591 93.303 5.72409 92.9258 6.6601C92.5403 7.39397 91.8858 7.94574 91.1028 8.19704L89.9633 8.63251C89.0265 8.96552 87.8364 9.4266 86.2159 10.1438C84.5917 10.9457 83.0112 11.835 81.481 12.8079C79.9995 13.7449 78.703 14.9523 77.6576 16.3685C75.5441 19.2199 73.8393 22.3589 72.5935 25.6926C71.5806 28.2075 70.6932 30.7723 69.9348 33.3773C69.2512 35.7084 68.6688 38.0138 68.1371 40.3448C67.8332 41.7537 67.5294 43.1626 67.2762 44.5714C66.0561 50.2737 65.5541 56.1092 65.7823 61.9389C65.7823 62.5281 65.9595 63.1429 66.0608 63.7064C66.1621 64.27 66.0608 64.2443 66.2887 64.5261C66.3412 64.7888 66.4175 65.046 66.5166 65.2946C66.5166 65.5764 66.6938 65.8069 66.7444 66.0374C67.2601 67.2542 68.0594 68.3264 69.0739 69.1626L65.1239 72.6463L63.9845 73.6709C60.313 76.9241 57.705 79.0246 56.7682 79.0502C55.7531 79.016 54.7616 78.7323 53.8793 78.2235C52.9969 77.7147 52.2503 76.9962 51.704 76.1301C50.0582 71.468 47.121 65.5507 42.7406 62.9379C37.6491 60.703 32.2696 59.2109 26.7634 58.5064C15.8755 56.6108 4.0002 55.4325 4.0002 55.4325Z" fill="url(#paint44_linear_492_18829)"/>
</g>
<defs>
<filter id="filter0_d_492_18829" x="0" y="0" width="166" height="164" filterUnits="userSpaceOnUse" color-interpolation-filters="sRGB">
<feFlood flood-opacity="0" result="BackgroundImageFix"/>
<feColorMatrix in="SourceAlpha" type="matrix" values="0 0 0 0 0 0 0 0 0 0 0 0 0 0 0 0 0 0 127 0" result="hardAlpha"/>
<feOffset dy="4"/>
<feGaussianBlur stdDeviation="2"/>
<feComposite in2="hardAlpha" operator="out"/>
<feColorMatrix type="matrix" values="0 0 0 0 0 0 0 0 0 0 0 0 0 0 0 0 0 0 0.25 0"/>
<feBlend mode="normal" in2="BackgroundImageFix" result="effect1_dropShadow_492_18829"/>
<feBlend mode="normal" in="SourceGraphic" in2="effect1_dropShadow_492_18829" result="shape"/>
</filter>
<linearGradient id="paint0_linear_492_18829" x1="139.008" y1="94.9064" x2="96.2895" y2="138.881" gradientUnits="userSpaceOnUse">
<stop offset="0.01" stop-color="#FF3B59"/>
<stop offset="0.22" stop-color="#FC3959"/>
<stop offset="0.39" stop-color="#F23359"/>
<stop offset="0.54" stop-color="#E22A58"/>
<stop offset="0.68" stop-color="#CA1C58"/>
<stop offset="0.81" stop-color="#AD0B57"/>
<stop offset="0.88" stop-color="#9A0057"/>
<stop offset="0.99" stop-color="#9A00AE"/>
</linearGradient>
<linearGradient id="paint1_linear_492_18829" x1="115.232" y1="56.9182" x2="114.066" y2="163.48" gradientUnits="userSpaceOnUse">
<stop stop-color="#CA528D"/>
<stop offset="1" stop-color="#8E7090"/>
</linearGradient>
<linearGradient id="paint2_linear_492_18829" x1="113.562" y1="76.5655" x2="112.888" y2="136.89" gradientUnits="userSpaceOnUse">
<stop stop-color="#CA528D"/>
<stop offset="1" stop-color="#8E7090"/>
</linearGradient>
<linearGradient id="paint3_linear_492_18829" x1="108.903" y1="92.9084" x2="108.644" y2="117.576" gradientUnits="userSpaceOnUse">
<stop stop-color="#CA528D"/>
<stop offset="1" stop-color="#8E7090"/>
</linearGradient>
<linearGradient id="paint4_linear_492_18829" x1="108.751" y1="81.9192" x2="107.869" y2="161.533" gradientUnits="userSpaceOnUse">
<stop stop-color="#CA528D"/>
<stop offset="1" stop-color="#8E7090"/>
</linearGradient>
<linearGradient id="paint5_linear_492_18829" x1="114.498" y1="148.213" x2="119.551" y2="88.0254" gradientUnits="userSpaceOnUse">
<stop/>
<stop offset="0.1" stop-color="#090503"/>
<stop offset="0.26" stop-color="#21110C"/>
<stop offset="0.47" stop-color="#49251A"/>
<stop offset="0.71" stop-color="#80402D"/>
<stop offset="0.98" stop-color="#C56346"/>
<stop offset="0.99" stop-color="#CA6648"/>
</linearGradient>
<linearGradient id="paint6_linear_492_18829" x1="190.08" y1="178.081" x2="85.6872" y2="102.77" gradientUnits="userSpaceOnUse">
<stop stop-color="#CA528D"/>
<stop offset="1" stop-color="#8E7090"/>
</linearGradient>
<linearGradient id="paint7_linear_492_18829" x1="125.356" y1="114.105" x2="124.749" y2="113.68" gradientUnits="userSpaceOnUse">
<stop stop-color="#CA528D"/>
<stop offset="1" stop-color="#8E7090"/>
</linearGradient>
<linearGradient id="paint8_linear_492_18829" x1="110.322" y1="16.5478" x2="57.3272" y2="58.8791" gradientUnits="userSpaceOnUse">
<stop offset="0.01" stop-color="#FF3B59"/>
<stop offset="0.22" stop-color="#FC3959"/>
<stop offset="0.39" stop-color="#F23359"/>
<stop offset="0.54" stop-color="#E22A58"/>
<stop offset="0.68" stop-color="#CA1C58"/>
<stop offset="0.81" stop-color="#AD0B57"/>
<stop offset="0.88" stop-color="#9A0057"/>
<stop offset="0.99" stop-color="#9A00AE"/>
</linearGradient>
<linearGradient id="paint9_linear_492_18829" x1="105.916" y1="21.9271" x2="58.4404" y2="59.8382" gradientUnits="userSpaceOnUse">
<stop stop-color="#CA528D"/>
<stop offset="1" stop-color="#8E7090"/>
</linearGradient>
<linearGradient id="paint10_linear_492_18829" x1="213.934" y1="-4.96336" x2="55.5461" y2="64.8705" gradientUnits="userSpaceOnUse">
<stop stop-color="#CA528D"/>
<stop offset="1" stop-color="#8E7090"/>
</linearGradient>
<linearGradient id="paint11_linear_492_18829" x1="105.182" y1="4.35468" x2="95.1792" y2="9.68831" gradientUnits="userSpaceOnUse">
<stop/>
<stop offset="0.1" stop-color="#090503"/>
<stop offset="0.26" stop-color="#21110C"/>
<stop offset="0.47" stop-color="#49251A"/>
<stop offset="0.71" stop-color="#80402D"/>
<stop offset="0.98" stop-color="#C56346"/>
<stop offset="0.99" stop-color="#CA6648"/>
</linearGradient>
<linearGradient id="paint12_linear_492_18829" x1="98.5718" y1="12.5261" x2="93.1761" y2="15.3941" gradientUnits="userSpaceOnUse">
<stop/>
<stop offset="0.1" stop-color="#090503"/>
<stop offset="0.26" stop-color="#21110C"/>
<stop offset="0.47" stop-color="#49251A"/>
<stop offset="0.71" stop-color="#80402D"/>
<stop offset="0.98" stop-color="#C56346"/>
<stop offset="0.99" stop-color="#CA6648"/>
</linearGradient>
<linearGradient id="paint13_linear_492_18829" x1="100.228" y1="50.9221" x2="58.0373" y2="32.6888" gradientUnits="userSpaceOnUse">
<stop stop-color="#CA528D"/>
<stop offset="1" stop-color="#8E7090"/>
</linearGradient>
<radialGradient id="paint14_radial_492_18829" cx="0" cy="0" r="1" gradientUnits="userSpaceOnUse" gradientTransform="translate(145.213 53.537) rotate(180) scale(23.9532 24.2325)">
<stop offset="0.01" stop-color="#F0E6DB"/>
<stop offset="0.23" stop-color="#EEE3D9"/>
<stop offset="0.42" stop-color="#E7D8D3"/>
<stop offset="0.59" stop-color="#DCC7C8"/>
<stop offset="0.76" stop-color="#CDAEB9"/>
<stop offset="0.82" stop-color="#C7A4B3"/>
<stop offset="0.86" stop-color="#CEA4B4"/>
<stop offset="0.93" stop-color="#E1A3B8"/>
<stop offset="1" stop-color="#FFA2BD"/>
</radialGradient>
<radialGradient id="paint15_radial_492_18829" cx="0" cy="0" r="1" gradientUnits="userSpaceOnUse" gradientTransform="translate(148.947 46.6219) rotate(-175.64) scale(18.3586 18.5702)">
<stop offset="0.01" stop-color="#F4D956"/>
<stop offset="0.17" stop-color="#F3D655"/>
<stop offset="0.31" stop-color="#F1CB53"/>
<stop offset="0.44" stop-color="#ECBA4F"/>
<stop offset="0.56" stop-color="#E6A149"/>
<stop offset="0.68" stop-color="#DE8142"/>
<stop offset="0.8" stop-color="#D55A3A"/>
<stop offset="0.82" stop-color="#D35338"/>
<stop offset="0.84" stop-color="#D2523F"/>
<stop offset="0.88" stop-color="#CF5052"/>
<stop offset="0.93" stop-color="#CA4C72"/>
<stop offset="0.98" stop-color="#C3479D"/>
<stop offset="1" stop-color="#BF44B5"/>
</radialGradient>
<radialGradient id="paint16_radial_492_18829" cx="0" cy="0" r="1" gradientUnits="userSpaceOnUse" gradientTransform="translate(106.446 33.4798) rotate(180) scale(82.1904 83.1488)">
<stop offset="0.01" stop-color="#FFE360"/>
<stop offset="0.17" stop-color="#FEE05F"/>
<stop offset="0.31" stop-color="#FCD55D"/>
<stop offset="0.44" stop-color="#F9C459"/>
<stop offset="0.56" stop-color="#F4AB53"/>
<stop offset="0.69" stop-color="#EE8B4C"/>
<stop offset="0.8" stop-color="#E66443"/>
<stop offset="0.82" stop-color="#E55E42"/>
<stop offset="0.84" stop-color="#E35D49"/>
<stop offset="0.88" stop-color="#DF5A5C"/>
<stop offset="0.93" stop-color="#D7567C"/>
<stop offset="0.98" stop-color="#CC4FA7"/>
<stop offset="1" stop-color="#C74CBD"/>
</radialGradient>
<linearGradient id="paint17_linear_492_18829" x1="159.138" y1="77.5645" x2="159.037" y2="77.5645" gradientUnits="userSpaceOnUse">
<stop stop-color="#CA528D"/>
<stop offset="1" stop-color="#8E7090"/>
</linearGradient>
<linearGradient id="paint18_linear_492_18829" x1="159.037" y1="80.5872" x2="144.782" y2="80.5872" gradientUnits="userSpaceOnUse">
<stop stop-color="#CA528D"/>
<stop offset="1" stop-color="#8E7090"/>
</linearGradient>
<linearGradient id="paint19_linear_492_18829" x1="91.153" y1="-12.0906" x2="5.07078" y2="100.838" gradientUnits="userSpaceOnUse">
<stop offset="0.01" stop-color="#FF3B59"/>
<stop offset="0.22" stop-color="#FC3959"/>
<stop offset="0.39" stop-color="#F23359"/>
<stop offset="0.54" stop-color="#E22A58"/>
<stop offset="0.68" stop-color="#CA1C58"/>
<stop offset="0.81" stop-color="#AD0B57"/>
<stop offset="0.88" stop-color="#9A0057"/>
<stop offset="0.99" stop-color="#9A00AE"/>
</linearGradient>
<linearGradient id="paint20_linear_492_18829" x1="135.876" y1="52.9979" x2="122.293" y2="69.7021" gradientUnits="userSpaceOnUse">
<stop stop-color="#CA528D"/>
<stop offset="1" stop-color="#8E7090"/>
</linearGradient>
<radialGradient id="paint21_radial_492_18829" cx="0" cy="0" r="1" gradientUnits="userSpaceOnUse" gradientTransform="translate(114.58 58.6698) rotate(-175.64) scale(31.045 31.4028)">
<stop offset="0.01" stop-color="#F0E6DB"/>
<stop offset="0.23" stop-color="#EEE3D9"/>
<stop offset="0.42" stop-color="#E7D8D3"/>
<stop offset="0.59" stop-color="#DCC7C8"/>
<stop offset="0.76" stop-color="#CDAEB9"/>
<stop offset="0.82" stop-color="#C7A4B3"/>
<stop offset="0.86" stop-color="#CEA4B4"/>
<stop offset="0.93" stop-color="#E1A3B8"/>
<stop offset="1" stop-color="#FFA2BD"/>
</radialGradient>
<radialGradient id="paint22_radial_492_18829" cx="0" cy="0" r="1" gradientUnits="userSpaceOnUse" gradientTransform="translate(118.463 68.9329) rotate(-175.64) scale(11.5722 11.7056)">
<stop offset="0.01" stop-color="#F4D956"/>
<stop offset="0.15" stop-color="#F3D555"/>
<stop offset="0.29" stop-color="#F0CA53"/>
<stop offset="0.43" stop-color="#ECB74E"/>
<stop offset="0.56" stop-color="#E59C48"/>
<stop offset="0.69" stop-color="#DD7A41"/>
<stop offset="0.81" stop-color="#D35338"/>
<stop offset="0.84" stop-color="#D2523F"/>
<stop offset="0.88" stop-color="#CF5052"/>
<stop offset="0.92" stop-color="#CA4C72"/>
<stop offset="0.97" stop-color="#C3479D"/>
<stop offset="1" stop-color="#BF44B5"/>
</radialGradient>
<radialGradient id="paint23_radial_492_18829" cx="0" cy="0" r="1" gradientUnits="userSpaceOnUse" gradientTransform="translate(117.126 69.4989) rotate(-175.64) scale(9.74904 9.86142)">
<stop stop-color="#FF4000"/>
<stop offset="0.25" stop-color="#FD3F00"/>
<stop offset="0.38" stop-color="#F53D00"/>
<stop offset="0.49" stop-color="#E73A00"/>
<stop offset="0.59" stop-color="#D33500"/>
<stop offset="0.68" stop-color="#BA2F00"/>
<stop offset="0.76" stop-color="#9B2700"/>
<stop offset="0.83" stop-color="#751D00"/>
<stop offset="0.9" stop-color="#4A1300"/>
<stop offset="0.97" stop-color="#1B0700"/>
<stop offset="1"/>
</radialGradient>
<radialGradient id="paint24_radial_492_18829" cx="0" cy="0" r="1" gradientUnits="userSpaceOnUse" gradientTransform="translate(114.751 61.5085) rotate(-175.64) scale(14.1551 14.3183)">
<stop stop-color="#FF4000"/>
<stop offset="0.25" stop-color="#FD3F00"/>
<stop offset="0.38" stop-color="#F53D00"/>
<stop offset="0.49" stop-color="#E73A00"/>
<stop offset="0.59" stop-color="#D33500"/>
<stop offset="0.68" stop-color="#BA2F00"/>
<stop offset="0.76" stop-color="#9B2700"/>
<stop offset="0.83" stop-color="#751D00"/>
<stop offset="0.9" stop-color="#4A1300"/>
<stop offset="0.97" stop-color="#1B0700"/>
<stop offset="1"/>
</radialGradient>
<linearGradient id="paint25_linear_492_18829" x1="118.247" y1="99.6966" x2="121.82" y2="116.433" gradientUnits="userSpaceOnUse">
<stop/>
<stop offset="0.1" stop-color="#090503"/>
<stop offset="0.26" stop-color="#21110C"/>
<stop offset="0.47" stop-color="#49251A"/>
<stop offset="0.71" stop-color="#80402D"/>
<stop offset="0.98" stop-color="#C56346"/>
<stop offset="0.99" stop-color="#CA6648"/>
</linearGradient>
<linearGradient id="paint26_linear_492_18829" x1="103.988" y1="112.912" x2="103.553" y2="117.94" gradientUnits="userSpaceOnUse">
<stop stop-color="#CA528D"/>
<stop offset="1" stop-color="#8E7090"/>
</linearGradient>
<linearGradient id="paint27_linear_492_18829" x1="101.794" y1="136.584" x2="101.681" y2="138.065" gradientUnits="userSpaceOnUse">
<stop stop-color="#CA528D"/>
<stop offset="1" stop-color="#8E7090"/>
</linearGradient>
<linearGradient id="paint28_linear_492_18829" x1="81.2531" y1="77.001" x2="14.5174" y2="112.626" gradientUnits="userSpaceOnUse">
<stop stop-color="#CA528D"/>
<stop offset="1" stop-color="#8E7090"/>
</linearGradient>
<linearGradient id="paint29_linear_492_18829" x1="83.0252" y1="40.0374" x2="8.32334" y2="79.8889" gradientUnits="userSpaceOnUse">
<stop stop-color="#CA528D"/>
<stop offset="1" stop-color="#8E7090"/>
</linearGradient>
<linearGradient id="paint30_linear_492_18829" x1="62.9059" y1="87.6624" x2="138.916" y2="72.4231" gradientUnits="userSpaceOnUse">
<stop/>
<stop offset="0.1" stop-color="#090503"/>
<stop offset="0.26" stop-color="#21110C"/>
<stop offset="0.47" stop-color="#49251A"/>
<stop offset="0.71" stop-color="#80402D"/>
<stop offset="0.98" stop-color="#C56346"/>
<stop offset="0.99" stop-color="#CA6648"/>
</linearGradient>
<radialGradient id="paint31_radial_492_18829" cx="0" cy="0" r="1" gradientUnits="userSpaceOnUse" gradientTransform="translate(134.094 74.1835) rotate(-175.64) scale(28.4875 28.8158)">
<stop offset="0.01" stop-color="#FFE360"/>
<stop offset="0.17" stop-color="#FEE05F"/>
<stop offset="0.31" stop-color="#FCD55D"/>
<stop offset="0.44" stop-color="#F9C459"/>
<stop offset="0.56" stop-color="#F4AB53"/>
<stop offset="0.69" stop-color="#EE8B4C"/>
<stop offset="0.8" stop-color="#E66443"/>
<stop offset="0.82" stop-color="#E55E42"/>
<stop offset="0.84" stop-color="#E35D49"/>
<stop offset="0.88" stop-color="#DF5A5C"/>
<stop offset="0.93" stop-color="#D7567C"/>
<stop offset="0.98" stop-color="#CC4FA7"/>
<stop offset="1" stop-color="#C74CBD"/>
</radialGradient>
<linearGradient id="paint32_linear_492_18829" x1="116.726" y1="91.4739" x2="67.9083" y2="141.756" gradientUnits="userSpaceOnUse">
<stop offset="0.01" stop-color="#FF3B59"/>
<stop offset="0.22" stop-color="#FC3959"/>
<stop offset="0.39" stop-color="#F23359"/>
<stop offset="0.54" stop-color="#E22A58"/>
<stop offset="0.68" stop-color="#CA1C58"/>
<stop offset="0.81" stop-color="#AD0B57"/>
<stop offset="0.88" stop-color="#9A0057"/>
<stop offset="0.99" stop-color="#9A00AE"/>
</linearGradient>
<linearGradient id="paint33_linear_492_18829" x1="94.5962" y1="75.2591" x2="93.6633" y2="161.61" gradientUnits="userSpaceOnUse">
<stop stop-color="#CA528D"/>
<stop offset="1" stop-color="#8E7090"/>
</linearGradient>
<linearGradient id="paint34_linear_492_18829" x1="94.9006" y1="95.4699" x2="94.5119" y2="132.561" gradientUnits="userSpaceOnUse">
<stop stop-color="#CA528D"/>
<stop offset="1" stop-color="#8E7090"/>
</linearGradient>
<linearGradient id="paint35_linear_492_18829" x1="93.5592" y1="108.073" x2="93.4814" y2="114.067" gradientUnits="userSpaceOnUse">
<stop stop-color="#CA528D"/>
<stop offset="1" stop-color="#8E7090"/>
</linearGradient>
<linearGradient id="paint36_linear_492_18829" x1="89.8874" y1="77.1034" x2="88.9804" y2="161.405" gradientUnits="userSpaceOnUse">
<stop stop-color="#CA528D"/>
<stop offset="1" stop-color="#8E7090"/>
</linearGradient>
<linearGradient id="paint37_linear_492_18829" x1="92.9021" y1="160.156" x2="104.094" y2="90.6956" gradientUnits="userSpaceOnUse">
<stop/>
<stop offset="0.1" stop-color="#090503"/>
<stop offset="0.26" stop-color="#21110C"/>
<stop offset="0.47" stop-color="#49251A"/>
<stop offset="0.71" stop-color="#80402D"/>
<stop offset="0.98" stop-color="#C56346"/>
<stop offset="0.99" stop-color="#CA6648"/>
</linearGradient>
<linearGradient id="paint38_linear_492_18829" x1="100.714" y1="135.063" x2="89.9262" y2="122.661" gradientUnits="userSpaceOnUse">
<stop stop-color="#CA528D"/>
<stop offset="1" stop-color="#8E7090"/>
</linearGradient>
<linearGradient id="paint39_linear_492_18829" x1="117.967" y1="65.6788" x2="171.023" y2="51.2893" gradientUnits="userSpaceOnUse">
<stop/>
<stop offset="0.1" stop-color="#090503"/>
<stop offset="0.26" stop-color="#21110C"/>
<stop offset="0.47" stop-color="#49251A"/>
<stop offset="0.71" stop-color="#80402D"/>
<stop offset="0.98" stop-color="#C56346"/>
<stop offset="0.99" stop-color="#CA6648"/>
</linearGradient>
<linearGradient id="paint40_linear_492_18829" x1="23.9687" y1="80.9945" x2="28.2162" y2="49.1363" gradientUnits="userSpaceOnUse">
<stop/>
<stop offset="0.1" stop-color="#090503"/>
<stop offset="0.26" stop-color="#21110C"/>
<stop offset="0.47" stop-color="#49251A"/>
<stop offset="0.71" stop-color="#80402D"/>
<stop offset="0.98" stop-color="#C56346"/>
<stop offset="0.99" stop-color="#CA6648"/>
</linearGradient>
<linearGradient id="paint41_linear_492_18829" x1="43.8458" y1="58.2344" x2="10.6451" y2="80.1292" gradientUnits="userSpaceOnUse">
<stop/>
<stop offset="0.1" stop-color="#090503"/>
<stop offset="0.26" stop-color="#21110C"/>
<stop offset="0.47" stop-color="#49251A"/>
<stop offset="0.71" stop-color="#80402D"/>
<stop offset="0.98" stop-color="#C56346"/>
<stop offset="0.99" stop-color="#CA6648"/>
</linearGradient>
<linearGradient id="paint42_linear_492_18829" x1="38.3217" y1="101.021" x2="26.5046" y2="88.4256" gradientUnits="userSpaceOnUse">
<stop/>
<stop offset="0.1" stop-color="#090503"/>
<stop offset="0.26" stop-color="#21110C"/>
<stop offset="0.47" stop-color="#49251A"/>
<stop offset="0.71" stop-color="#80402D"/>
<stop offset="0.98" stop-color="#C56346"/>
<stop offset="0.99" stop-color="#CA6648"/>
</linearGradient>
<linearGradient id="paint43_linear_492_18829" x1="171.773" y1="96.1103" x2="151.909" y2="77.4615" gradientUnits="userSpaceOnUse">
<stop/>
<stop offset="0.1" stop-color="#090503"/>
<stop offset="0.26" stop-color="#21110C"/>
<stop offset="0.47" stop-color="#49251A"/>
<stop offset="0.71" stop-color="#80402D"/>
<stop offset="0.98" stop-color="#C56346"/>
<stop offset="0.99" stop-color="#CA6648"/>
</linearGradient>
<linearGradient id="paint44_linear_492_18829" x1="162" y1="78" x2="4.00019" y2="78" gradientUnits="userSpaceOnUse">
<stop offset="0.01" stop-color="#1304C5"/>
<stop offset="0.25" stop-color="#0D0387"/>
<stop offset="0.51" stop-color="#07024D"/>
<stop offset="0.73" stop-color="#030123"/>
<stop offset="0.9" stop-color="#01000A"/>
<stop offset="1"/>
</linearGradient>
<clipPath id="clip0_492_18829">
<rect width="158" height="156" fill="white" transform="matrix(-1 0 0 1 162 0)"/>
</clipPath>
</defs>
</svg>
