<svg width="985" height="830" viewBox="0 0 985 830" fill="none" xmlns="http://www.w3.org/2000/svg">
<path d="M344.751 89.2569L338.482 14.6406L347.522 91.5704L344.751 89.2569Z" fill="url(#paint0_linear_1_9748)"/>
<path d="M225.326 137.077C225.326 137.077 331.555 56.9711 415.998 56.2115C500.476 55.4173 535.043 66.3974 535.043 66.3974L589.249 95.3669L249.363 175.301L225.326 137.077Z" fill="url(#paint1_linear_1_9748)"/>
<path d="M228.168 141.601C228.168 141.601 363.249 58.7326 388.533 67.6755C423.481 80.0022 405.713 105.933 405.713 105.933L251.824 176.993L228.168 141.601Z" fill="#ADC7F6"/>
<path d="M551.53 106.693L540.169 106.935L531.094 107.142L513.257 107.522L465.667 108.523L459.605 1.41567L478.136 0.448872L487.141 0L505.013 90.1197L530.887 103.897L526.696 32.595L535.147 32.3188L540.654 32.1116L551.53 106.693Z" fill="white"/>
<path opacity="0.26" d="M461.51 38.4992L494.483 36.98L498.986 59.6653L462.549 59.1128L461.51 38.4992Z" fill="#ADC7F6"/>
<path opacity="0.85" d="M540.515 109.145L467.156 123.751L465.493 117.397L459.605 1.41578L478.136 0.448975L461.683 2.76239L475.573 106.693L513.257 107.522L531.129 107.902L531.094 107.142L526.696 32.5951L535.147 32.3189L528.947 33.5619L540.169 106.935L540.515 109.145Z" fill="#ADC7F6"/>
<path opacity="0.7" d="M323.416 123.749L314.861 105.933C314.861 105.933 370.66 75.3748 380.705 88.0123C390.714 100.65 323.416 123.749 323.416 123.749Z" fill="#ADC7F6"/>
<path opacity="0.7" d="M261.834 157.726L254.18 137.078L256.847 134.419L270.943 165.287L277.697 162.042L265.956 127.686L268.311 123.75L289.993 167.601L267.965 183.449L261.834 157.726Z" fill="#ADC7F6"/>
<path d="M741.822 293.113L487.211 388.205L474.118 393.108L446.271 403.501L410.561 416.829L397.919 417.416L126.163 430.157C126.163 430.157 124.639 364.864 125.263 335.756C125.367 331.302 125.505 327.711 125.713 325.294C125.851 323.809 125.99 322.773 126.163 322.29C128.518 316.213 141.091 311.379 141.091 311.379V279.854L159.171 270.152L158.964 265.49L157.059 225.161L150.582 221.95L149.369 215.044L391.511 79.2776L618.759 93.2617L618.828 93.3653L629.323 110.388L629.981 111.458L632.614 115.74L665.137 168.534L668.116 173.368L675.528 185.384L688.586 206.619L697.868 221.674L741.822 293.113Z" fill="url(#paint2_linear_1_9748)"/>
<path opacity="0.79" d="M688.551 206.618L437.993 205.962C426.321 205.928 414.683 206.998 403.184 209.173C390.888 211.487 378.765 215.043 366.92 219.843L141.092 311.378V279.853L159.172 270.151L158.964 265.49L156.816 219.497L393.451 99.2344L629.947 111.388L665.103 168.499L668.081 173.333L675.494 185.349L688.551 206.618Z" fill="url(#paint3_linear_1_9748)"/>
<path d="M178.324 259.724L177.943 282.789L178.324 320.563L178.601 282.824L178.324 259.724Z" fill="url(#paint4_linear_1_9748)"/>
<path d="M168.662 265.387L168.281 288.452L168.662 326.227L168.939 288.487L168.662 265.387Z" fill="url(#paint5_linear_1_9748)"/>
<path d="M157.855 268.528L157.439 291.628L157.855 329.368L158.098 291.628L157.855 268.528Z" fill="url(#paint6_linear_1_9748)"/>
<path d="M145.594 278.646L145.213 298.5L145.594 330.922L145.836 298.5L145.594 278.646Z" fill="url(#paint7_linear_1_9748)"/>
<path d="M188.369 253.233L187.607 278.024L188.473 313.865L189.443 278.163L188.369 253.233Z" fill="url(#paint8_linear_1_9748)"/>
<path d="M741.822 293.113L487.212 388.205L397.919 417.416L126.164 430.157C126.164 430.157 124.155 343.352 125.713 325.294L376.687 228.476C394.664 221.535 413.506 218.117 432.452 218.359L697.8 221.708L741.822 293.113Z" fill="url(#paint9_linear_1_9748)"/>
<path d="M391.477 79.2776L656.409 95.6787L652.114 111.424L393.416 99.2696L391.477 79.2776Z" fill="white"/>
<path d="M197.064 193.568L196.648 216.668L197.029 254.408L197.306 216.703L197.064 193.568Z" fill="url(#paint10_linear_1_9748)"/>
<path d="M187.367 199.231L186.986 222.331L187.367 260.071L187.644 222.331L187.367 199.231Z" fill="url(#paint11_linear_1_9748)"/>
<path d="M176.559 202.373L176.178 225.472L176.559 263.246L176.801 225.507L176.559 202.373Z" fill="url(#paint12_linear_1_9748)"/>
<path d="M164.299 212.525L163.918 232.344L164.299 264.766L164.541 232.379L164.299 212.525Z" fill="url(#paint13_linear_1_9748)"/>
<path d="M207.109 187.077L206.312 211.903L207.178 247.709L208.148 212.041L207.109 187.077Z" fill="url(#paint14_linear_1_9748)"/>
<path d="M333.773 121.057L333.08 157.622L333.98 236.866L334.535 157.691L333.773 121.057Z" fill="url(#paint15_linear_1_9748)"/>
<path d="M314.307 121.057L313.406 169.5L314.307 248.743L314.861 169.569L314.307 121.057Z" fill="url(#paint16_linear_1_9748)"/>
<path d="M296.159 137.079L295.154 174.404L296.02 253.647L296.609 174.473L296.159 137.079Z" fill="url(#paint17_linear_1_9748)"/>
<path d="M276.83 153.583L276.346 185.556L277.073 264.765L277.558 185.591L276.83 153.583Z" fill="url(#paint18_linear_1_9748)"/>
<path d="M241.847 174.472L241.051 206.446L241.986 280.44L242.298 206.48L241.847 174.472Z" fill="url(#paint19_linear_1_9748)"/>
<path d="M352.614 100.961L350.847 152.996L352.822 228.199L355.038 153.307L352.614 100.961Z" fill="url(#paint20_linear_1_9748)"/>
<path d="M553.504 97.0254L569.956 140.67L593.128 211.66L567.67 140.462L553.504 97.0254Z" fill="url(#paint21_linear_1_9748)"/>
<path d="M579.967 97.9575L599.744 140.221L628.388 209.209L597.458 140.186L579.967 97.9575Z" fill="url(#paint22_linear_1_9748)"/>
<path d="M406.336 89.29L409.869 135.766L412.224 210.416L407.721 134.971L406.336 89.29Z" fill="url(#paint23_linear_1_9748)"/>
<path d="M375.959 97.1279L379.492 143.638L381.847 218.289L377.344 142.809L375.959 97.1279Z" fill="url(#paint24_linear_1_9748)"/>
<path d="M431.482 97.5439L438.617 143.64L446.791 217.876L436.435 142.984L431.482 97.5439Z" fill="url(#paint25_linear_1_9748)"/>
<path d="M464.593 94.1243L471.382 140.254L478.968 214.56L469.2 139.598L464.593 94.1243Z" fill="url(#paint26_linear_1_9748)"/>
<path d="M497.047 100.961L507.403 146.436L520.773 219.912L505.186 145.918L497.047 100.961Z" fill="url(#paint27_linear_1_9748)"/>
<path d="M610.724 103.033L630.502 145.296L659.146 214.284L628.216 145.296L610.724 103.033Z" fill="url(#paint28_linear_1_9748)"/>
<path d="M527.908 100.548L541.624 148.577L555.894 216.806L536.567 147.748L527.908 100.548Z" fill="url(#paint29_linear_1_9748)"/>
<path d="M675.458 185.383L401.694 180.791L399.824 180.756L141.091 283.099L140.814 283.203L139.117 273.776L158.929 265.524L399.304 165.288L400.897 165.322L668.046 173.367H668.081L675.458 185.383Z" fill="url(#paint30_linear_1_9748)"/>
<path d="M437.646 218.428L440.382 282.548L451.743 387.308L444.712 282.548L437.646 218.428Z" fill="url(#paint31_linear_1_9748)"/>
<path d="M471.798 220.775L474.154 282.547L482.64 371.458L478.864 282.547L471.798 220.775Z" fill="url(#paint32_linear_1_9748)"/>
<path d="M505.187 220.775L509.898 282.547L516.963 366.797L512.738 280.613L505.187 220.775Z" fill="url(#paint33_linear_1_9748)"/>
<path d="M535.045 220.775L540.517 282.547L548.795 349.015L544.466 282.547L535.045 220.775Z" fill="url(#paint34_linear_1_9748)"/>
<path d="M568.017 221.951L572.728 279.717L578.616 334.411L576.26 278.198L568.017 221.951Z" fill="url(#paint35_linear_1_9748)"/>
<path d="M594.201 221.743L602.202 285.276L622.152 388.274L606.497 284.792L594.201 221.743Z" fill="url(#paint36_linear_1_9748)"/>
<path d="M628.387 220.293L635.833 281.547L651.558 369.112L640.509 281.029L628.387 220.293Z" fill="url(#paint37_linear_1_9748)"/>
<path d="M661.638 216.598L671.406 277.576L685.364 360.651L674.073 275.366L661.638 216.598Z" fill="url(#paint38_linear_1_9748)"/>
<path d="M691.355 213.318L701.885 274.192L715.566 339.416L705.799 273.777L691.355 213.318Z" fill="url(#paint39_linear_1_9748)"/>
<path d="M332.94 239.767L330.827 303.886L329.996 408.715L332.455 303.99L332.94 239.767Z" fill="url(#paint40_linear_1_9748)"/>
<path d="M310.6 254.959L308.487 319.045L307.656 423.908L310.115 319.148L310.6 254.959Z" fill="url(#paint41_linear_1_9748)"/>
<path d="M289.992 260.967L287.88 325.052L287.014 429.915L289.507 325.155L289.992 260.967Z" fill="url(#paint42_linear_1_9748)"/>
<path d="M241.848 272.88L239.735 327.918L238.904 418.004L241.363 328.022L241.848 272.88Z" fill="url(#paint43_linear_1_9748)"/>
<path d="M163.916 304.784L163.05 359.857L163.016 449.839L163.916 359.892V304.784Z" fill="url(#paint44_linear_1_9748)"/>
<path d="M152.209 313.001L151.343 368.074L151.308 458.056L152.209 368.074V313.001Z" fill="url(#paint45_linear_1_9748)"/>
<path d="M140.814 317.249L139.949 372.357L139.914 462.338L140.814 372.357V317.249Z" fill="url(#paint46_linear_1_9748)"/>
<path d="M131.15 318.354L130.284 373.427L130.25 463.443L131.116 373.461L131.15 318.354Z" fill="url(#paint47_linear_1_9748)"/>
<path d="M354.034 229.373L350.847 298.189L351.332 397.769L355.523 298.706L354.034 229.373Z" fill="url(#paint48_linear_1_9748)"/>
<path d="M378.591 223.952L377.69 296.911L377.101 396.457L380.704 294.943L378.591 223.952Z" fill="url(#paint49_linear_1_9748)"/>
<path d="M410.907 219.913L409.937 296.083L411.219 378.261L413.851 296.532L410.907 219.913Z" fill="url(#paint50_linear_1_9748)"/>
<path d="M755.191 293.77L528.393 369.871L511.075 376.466L483.4 378.849L482.638 371.494V371.46L473.979 285.932C473.979 285.932 427.151 277.714 392.965 286.968C362 295.324 126.336 384.132 126.336 384.132V381.853C126.336 381.853 347.28 296.602 389.709 282.583C432.139 268.564 473.494 275.539 473.494 275.539L518.695 247.26H753.251L754.325 272.777L755.191 293.77Z" fill="url(#paint51_linear_1_9748)"/>
<path d="M756.161 284.896L620.941 331.302L560.57 247.225H753.251L756.161 284.896Z" fill="#ADC7F6"/>
<path opacity="0.85" d="M568.018 371.494L511.873 382.37L482.64 385.823L473.496 275.504L518.661 247.225L567.602 367.005L568.018 371.494Z" fill="#ADC7F6"/>
<path opacity="0.79" d="M514.61 271.498L523.823 289.038L486.52 301.606L489.464 326.225L533.452 312.552L541.903 335.721L491.819 351.984L494.59 376.326L487.489 380.194L478.865 289.729L514.61 271.498Z" fill="url(#paint52_linear_1_9748)"/>
<path d="M156.781 219.533L395.598 105.934L632.544 115.74L652.113 111.424L393.416 99.2695L156.781 219.533Z" fill="url(#paint53_linear_1_9748)"/>
<path d="M395.598 105.934L632.544 115.74L652.114 111.424L393.416 99.2695L395.598 105.934Z" fill="#ADC7F6"/>
<g style="mix-blend-mode:multiply" opacity="0.39">
<path d="M483.367 378.848L474.084 393.074L467.469 403.225L446.237 403.467L125.679 407.092V335.549L125.228 335.722C125.332 331.268 125.471 327.677 125.679 325.26C125.817 323.775 125.956 322.739 126.129 322.256C128.484 316.179 141.057 311.345 141.057 311.345V283.031L140.78 283.135L139.048 273.743L158.895 265.491L156.99 225.161L150.513 221.95L149.3 215.044L391.442 79.2778L393.416 99.2699L396.707 105.968L397.954 108.524L400.898 165.323L401.694 180.792L403.149 209.174L403.738 220.811L399.131 361.998L423.481 367.695L433.456 304.335L473.461 275.504L483.367 378.848Z" fill="#5EA1AB"/>
</g>
<g style="mix-blend-mode:multiply" opacity="0.62">
<path d="M140.814 283.205L399.824 180.758L215.317 260.968L214.52 278.647L292.694 248.745L141.092 311.415L140.814 283.205Z" fill="#5EA1AB"/>
</g>
<g style="mix-blend-mode:multiply" opacity="0.62">
<path d="M395.598 105.934L215.697 197.572V241.424L164.297 263.246H164.263L158.929 265.525L157.058 225.161L150.547 221.95L164.263 215.044L164.332 214.975L393.416 99.2695L395.598 105.934Z" fill="#5EA1AB"/>
</g>
<g style="mix-blend-mode:multiply" opacity="0.62">
<path d="M125.125 414.585L125.714 325.294L248.603 278.646L147.846 321.772L145.837 377.329L350.849 301.159L145.837 382.888L145.214 406.92L125.125 414.585Z" fill="#5EA1AB"/>
</g>
<path opacity="0.62" d="M427.81 218.359L697.833 221.708L702.198 226.024C702.198 226.024 429.16 219.809 412.223 224.263C395.286 228.717 395.286 228.717 395.286 228.717L267.756 270.531C267.756 270.497 380.704 217.875 427.81 218.359Z" fill="#5EA1AB"/>
<g style="mix-blend-mode:screen" opacity="0.63">
<path d="M414.82 115.741L419.15 134.144L604.453 246.673L699.945 245.741L628.387 121.99L414.82 115.741Z" fill="url(#paint54_linear_1_9748)"/>
</g>
<g style="mix-blend-mode:multiply" opacity="0.44">
<path d="M210.605 396.458L219.23 295.807L336.265 251.438V358.615L210.605 396.458Z" fill="#5EA1AB"/>
</g>
<path d="M656.789 328.125L656.408 327.193L653.603 319.873L639.921 218.842L639.61 216.425L639.125 212.869L647.749 216.356L648.477 216.632L648.65 219.049L656.72 327.4L656.789 328.125Z" fill="url(#paint55_linear_1_9748)"/>
<path d="M705.593 318.042L704.277 311.723L699.947 245.739L698.493 223.917L698.146 218.289L701.887 217.909L702.199 225.989L703.099 250.642L705.593 318.042Z" fill="url(#paint56_linear_1_9748)"/>
<path d="M725.507 323.671L724.226 317.352L719.861 251.16L718.822 235.519L718.06 223.952L721.836 223.538L722.286 235.83L722.736 248.536L725.507 323.671Z" fill="url(#paint57_linear_1_9748)"/>
<path d="M900.005 273.5C900.005 273.5 821.277 316.212 773.271 279.646C772.302 278.887 771.297 278.092 770.362 277.298L749.823 285.93C749.823 285.93 742.411 256.443 731.708 248.467C728.556 246.119 725.508 246.637 722.737 248.57C721.733 249.261 720.763 250.159 719.828 251.16C714.771 256.719 711.307 265.731 711.307 265.731C711.307 265.731 708.502 259.412 703.064 250.642C702.094 249.088 701.055 247.431 699.912 245.739C696.379 240.491 692.015 234.655 686.889 228.993C680.862 222.329 665.484 219.704 648.616 219.048C645.741 218.945 587.656 204.512 586.201 204.719L585.439 202.785L586.201 194.153C586.201 194.153 604.143 194.671 631.194 195.707H631.228C712.208 198.746 874.721 206.1 882.549 216.631C891.797 229.062 896.507 240.387 898.793 249.641C902.465 264.177 900.005 273.5 900.005 273.5Z" fill="url(#paint58_linear_1_9748)"/>
<path d="M776.285 275.779L773.272 279.646C772.302 278.886 771.298 278.127 770.363 277.298L749.823 285.93C749.823 285.93 742.411 256.443 731.709 248.467C728.557 246.119 725.509 246.637 722.738 248.57L725.509 323.704L724.054 284.514L719.828 251.194C714.772 256.753 711.308 265.765 711.308 265.765C711.308 265.765 708.502 259.447 703.065 250.676L705.558 318.076L704.692 294.493L699.913 245.808C696.38 240.56 692.016 234.724 686.889 229.027C680.863 222.363 665.484 219.739 648.616 219.083L656.687 327.434C656.583 327.364 656.479 327.295 656.375 327.226L653.604 305.059L639.784 217.322C633.273 217.287 586.167 204.719 586.167 204.719L585.613 197.641C597.493 196.225 686.751 218.22 698.423 223.917C699.774 224.573 700.986 225.263 702.129 226.023C702.614 226.334 703.064 226.679 703.515 227.024C710.407 232.342 715.187 234.759 718.789 235.553C720.071 235.829 721.214 235.898 722.253 235.829C729.215 235.346 730.773 227.957 740.195 233.205C754.811 241.354 776.285 275.779 776.285 275.779Z" fill="#ADC7F6"/>
<path d="M898.863 249.607L871.258 254.441C871.258 254.441 861.04 225.748 852.416 218.359C843.757 210.935 631.264 195.708 631.264 195.708H631.298C712.278 198.747 874.791 206.101 882.618 216.632C891.901 229.028 896.611 240.388 898.863 249.607Z" fill="url(#paint59_linear_1_9748)"/>
<path d="M898.863 249.607L871.258 254.441C871.258 254.441 861.04 225.748 852.416 218.359C843.757 210.935 631.264 195.708 631.264 195.708H631.298C712.278 198.747 874.791 206.101 882.618 216.632C891.901 229.028 896.611 240.388 898.863 249.607Z" fill="url(#paint60_linear_1_9748)"/>
<path d="M944.028 337.138C938.659 354.195 934.122 366.349 934.122 366.349C934.122 366.349 870.876 491.239 857.541 569.584H168.593C128.518 523.385 98.2811 416.485 98.2811 416.485L364.218 345.632L387.008 349.534C387.008 349.534 399.581 386.341 430.2 393.385C438.997 395.422 481.427 380.886 538.715 359.685C681.001 307.029 914.864 213.353 951.821 230.479C971.183 239.457 955.7 299.951 944.028 337.138Z" fill="url(#paint61_linear_1_9748)"/>
<path d="M944.028 337.138C944.028 337.138 955.043 281.167 943.924 295.324C932.772 309.48 900.352 346.978 873.647 408.75C846.943 470.487 835.063 555.255 835.063 555.255L178.43 569.55C148.192 556.636 98.316 416.45 98.316 416.45L362.001 351.536L386.316 375.844C386.316 375.844 399.616 386.306 430.269 393.35C439.067 395.387 481.496 380.851 538.785 359.65C681.07 306.994 913.133 219.775 950.09 236.901C969.382 245.913 955.701 299.95 944.028 337.138Z" fill="#ADC7F6"/>
<path d="M430.165 393.35C386.974 396.078 364.183 345.562 364.183 345.562L386.974 349.464C386.974 349.499 399.547 386.306 430.165 393.35Z" fill="white"/>
<path opacity="0.5" d="M807.043 339.9C842.302 336.102 818.958 429.122 787.161 428.431C755.331 427.706 771.783 343.698 807.043 339.9Z" fill="#8FB3F3"/>
<path opacity="0.63" d="M786.572 384.786C798.903 382.438 793.361 415.966 782.104 416.622C770.848 417.278 774.207 387.134 786.572 384.786Z" fill="#6392E2"/>
<path opacity="0.63" d="M789.932 428.224C825.953 408.474 813.346 352.399 787.369 355.162C786.295 355.265 785.221 355.472 784.217 355.714C790.278 347.013 798.036 340.832 807.042 339.866C841.228 336.24 820.273 423.701 789.932 428.224Z" fill="#6392E2"/>
<path opacity="0.3" d="M164.541 519.414C164.541 519.414 314.135 492.62 437.613 463.408C585.682 428.396 765.063 384.096 765.063 384.096C760.11 418.383 763.366 442.795 780.511 451.807C780.511 451.807 567.498 467.863 440.557 485.369C324.976 501.321 178.569 530.67 178.569 530.67L164.541 519.414Z" fill="url(#paint62_linear_1_9748)"/>
<path opacity="0.5" d="M184.213 492.792L178.187 493.793L161.076 496.59C158.41 497.039 155.777 495.623 154.184 492.93L149.439 484.92C148.4 483.193 149.127 480.673 150.79 480.155L173.165 472.904C175.658 472.11 178.256 472.973 180.092 475.079C180.542 475.597 180.923 476.184 181.269 476.84L186.43 486.819C187.712 489.201 186.499 492.412 184.213 492.792Z" fill="#729FEF"/>
<path opacity="0.63" d="M184.213 492.792L178.187 493.793C176.871 493.172 175.728 492.102 174.862 490.651L170.117 482.606C169.077 480.88 169.805 478.359 171.467 477.841L180.092 475.044C180.542 475.562 180.923 476.149 181.269 476.805L186.43 486.784C187.712 489.201 186.499 492.412 184.213 492.792Z" fill="#4A7ED8"/>
<path opacity="0.5" d="M229.206 485.471L218.122 487.094L198.692 489.925C197.133 490.167 195.574 489.373 194.708 487.888L187.747 475.803C186.292 473.283 187.469 469.899 190.136 469.139L220.166 460.162C222.036 459.609 224.045 460.576 224.877 462.475L225.119 462.993L232.358 479.083C233.57 481.811 231.977 485.057 229.206 485.471Z" fill="#729FEF"/>
<path opacity="0.63" d="M229.206 485.471L218.122 487.094C217.568 486.749 217.083 486.231 216.737 485.644L209.775 473.559C208.32 471.038 209.498 467.655 212.13 466.895L225.084 463.028L232.323 479.118C233.57 481.811 231.977 485.057 229.206 485.471Z" fill="#4A7ED8"/>
<path opacity="0.5" d="M282.06 478.912L267.859 480.776L247.666 483.435C244.757 483.815 241.917 482.261 240.67 479.602L234.158 465.446C232.426 461.682 234.539 457.297 238.557 456.261L272.085 447.525C275.098 446.731 278.215 448.112 279.67 450.736C279.809 450.978 279.912 451.22 280.016 451.496L287.394 469.9C289.022 473.905 286.389 478.359 282.06 478.912Z" fill="#729FEF"/>
<path opacity="0.63" d="M282.06 478.912L267.86 480.776C266.994 480.12 266.301 479.257 265.816 478.256L259.304 464.099C257.573 460.335 259.685 455.95 263.703 454.914L279.705 450.736C279.844 450.978 279.948 451.22 280.052 451.496L287.429 469.9C289.022 473.905 286.39 478.359 282.06 478.912Z" fill="#4A7ED8"/>
<path opacity="0.5" d="M353.203 465.066L322.827 469.209L305.89 471.523C302.669 471.972 299.552 470.211 298.27 467.241L291.135 450.598C289.369 446.49 291.828 441.794 296.227 440.861L344.925 430.365C348.042 429.709 351.125 431.124 352.649 433.714C352.961 434.232 353.203 434.819 353.376 435.44L359.091 456.088C360.304 460.266 357.498 464.479 353.203 465.066Z" fill="#729FEF"/>
<path opacity="0.63" d="M353.204 465.066L322.828 469.209C322.308 468.657 321.892 467.966 321.581 467.241L314.446 450.598C312.679 446.489 315.138 441.794 319.537 440.861L352.684 433.714C352.996 434.232 353.238 434.819 353.411 435.44L359.126 456.088C360.304 460.266 357.498 464.479 353.204 465.066Z" fill="#4A7ED8"/>
<path d="M301.457 532.189C301.942 534.572 301.388 536.747 300.141 536.989C298.929 537.23 297.543 535.504 297.024 533.121C296.539 530.739 297.093 528.564 298.34 528.322C299.552 528.046 300.938 529.807 301.457 532.189Z" fill="#789AD4"/>
<path d="M310.669 531.153C311.189 533.639 310.566 535.848 309.319 536.125C308.072 536.401 306.617 534.571 306.097 532.119C305.578 529.633 306.201 527.423 307.448 527.147C308.73 526.871 310.15 528.701 310.669 531.153Z" fill="#789AD4"/>
<path d="M320.022 530.325C320.577 533.018 319.918 535.435 318.568 535.711C317.182 535.987 315.624 534.054 315.069 531.361C314.515 528.667 315.173 526.25 316.524 525.974C317.875 525.663 319.434 527.632 320.022 530.325Z" fill="#789AD4"/>
<path d="M329.097 529.048C329.651 531.741 328.993 534.158 327.642 534.434C326.256 534.711 324.698 532.777 324.144 530.084C323.589 527.39 324.248 524.973 325.598 524.697C326.984 524.421 328.542 526.389 329.097 529.048Z" fill="#789AD4"/>
<path d="M339.627 527.803C340.216 530.6 339.523 533.086 338.103 533.362C336.683 533.673 335.055 531.636 334.501 528.839C333.912 526.042 334.605 523.556 336.025 523.28C337.41 523.004 339.038 525.041 339.627 527.803Z" fill="#789AD4"/>
<path d="M351.021 526.837C351.61 529.634 350.917 532.12 349.497 532.431C348.077 532.742 346.449 530.704 345.86 527.908C345.271 525.111 345.964 522.625 347.384 522.314C348.804 522.003 350.432 524.04 351.021 526.837Z" fill="#789AD4"/>
<path d="M362.244 525.594C362.867 528.633 362.14 531.36 360.581 531.671C359.022 531.982 357.256 529.772 356.633 526.734C356.009 523.695 356.736 520.967 358.295 520.657C359.854 520.346 361.62 522.556 362.244 525.594Z" fill="#789AD4"/>
<path d="M376.099 524.144C376.757 527.39 375.995 530.29 374.333 530.635C372.67 530.981 370.8 528.633 370.142 525.387C369.483 522.141 370.245 519.241 371.908 518.896C373.571 518.585 375.441 520.898 376.099 524.144Z" fill="#789AD4"/>
<path d="M389.329 522.659C389.987 525.904 389.225 528.805 387.563 529.15C385.9 529.495 384.03 527.147 383.372 523.902C382.714 520.656 383.476 517.756 385.138 517.41C386.766 517.065 388.637 519.413 389.329 522.659Z" fill="#789AD4"/>
<path d="M401.037 521.001C401.695 524.247 400.933 527.147 399.27 527.493C397.607 527.838 395.737 525.49 395.079 522.244C394.421 518.999 395.183 516.098 396.846 515.753C398.473 515.408 400.344 517.756 401.037 521.001Z" fill="#789AD4"/>
<path d="M412.951 519.241C413.609 522.487 412.847 525.387 411.184 525.732C409.522 526.078 407.651 523.73 406.993 520.484C406.335 517.238 407.097 514.338 408.76 513.993C410.387 513.647 412.258 515.995 412.951 519.241Z" fill="#789AD4"/>
<path d="M472.767 437.269C473.737 440.342 473.286 443.243 471.728 443.726C470.169 444.209 468.091 442.138 467.121 439.065C466.151 435.992 466.602 433.091 468.16 432.608C469.719 432.124 471.762 434.196 472.767 437.269Z" fill="#789AD5"/>
<path d="M484.717 434.681C485.721 437.857 485.236 440.861 483.643 441.379C482.015 441.897 479.902 439.722 478.863 436.545C477.859 433.369 478.344 430.365 479.937 429.847C481.565 429.329 483.678 431.504 484.717 434.681Z" fill="#789AD5"/>
<path d="M496.805 432.263C497.913 435.716 497.394 438.962 495.627 439.514C493.861 440.067 491.575 437.719 490.467 434.3C489.358 430.847 489.878 427.602 491.644 427.049C493.376 426.497 495.697 428.845 496.805 432.263Z" fill="#789AD5"/>
<path d="M508.545 429.398C509.654 432.851 509.134 436.097 507.368 436.649C505.601 437.201 503.281 434.854 502.207 431.435C501.098 427.982 501.618 424.737 503.384 424.184C505.116 423.597 507.437 425.945 508.545 429.398Z" fill="#789AD5"/>
<path d="M522.159 426.324C523.302 429.881 522.748 433.265 520.947 433.817C519.146 434.404 516.721 431.987 515.578 428.396C514.435 424.84 514.989 421.456 516.79 420.903C518.626 420.351 521.016 422.768 522.159 426.324Z" fill="#789AD5"/>
<path d="M536.948 423.492C538.091 427.083 537.537 430.432 535.736 431.019C533.9 431.606 531.51 429.155 530.367 425.598C529.224 422.007 529.778 418.658 531.579 418.071C533.38 417.484 535.77 419.901 536.948 423.492Z" fill="#789AD5"/>
<path d="M551.875 419.696C553.053 423.39 552.499 426.878 550.628 427.465C548.758 428.052 546.264 425.566 545.087 421.871C543.909 418.176 544.463 414.689 546.333 414.102C548.204 413.48 550.698 416.001 551.875 419.696Z" fill="#789AD5"/>
<path d="M569.227 416.345C570.509 420.316 569.885 424.079 567.877 424.735C565.833 425.392 563.166 422.664 561.884 418.693C560.603 414.722 561.226 410.959 563.235 410.303C565.279 409.681 567.946 412.374 569.227 416.345Z" fill="#789AD5"/>
<path d="M585.232 412.031C586.548 416.174 585.924 420.076 583.812 420.766C581.699 421.422 578.928 418.625 577.577 414.482C576.261 410.339 576.884 406.437 578.997 405.746C581.145 405.056 583.915 407.887 585.232 412.031Z" fill="#789AD5"/>
<path d="M601.614 408.508C602.931 412.651 602.307 416.553 600.194 417.243C598.082 417.899 595.311 415.102 593.96 410.959C592.644 406.816 593.267 402.914 595.38 402.223C597.493 401.567 600.298 404.364 601.614 408.508Z" fill="#789AD5"/>
<path d="M616.991 405.09C618.308 409.234 617.684 413.135 615.571 413.826C613.458 414.482 610.688 411.685 609.337 407.542C608.021 403.398 608.644 399.496 610.757 398.806C612.87 398.115 615.675 400.947 616.991 405.09Z" fill="#789AD5"/>
<path d="M632.266 400.912C633.686 405.366 632.993 409.544 630.742 410.269C628.49 410.994 625.512 407.99 624.057 403.536C622.602 399.082 623.295 394.904 625.581 394.213C627.867 393.488 630.846 396.492 632.266 400.912Z" fill="#789AD5"/>
<path d="M648.441 396.872C649.861 401.327 649.168 405.505 646.917 406.23C644.666 406.955 641.687 403.951 640.232 399.497C638.812 395.042 639.505 390.864 641.756 390.139C644.008 389.449 647.021 392.453 648.441 396.872Z" fill="#789AD5"/>
<path d="M664.894 392.694C666.314 397.148 665.622 401.326 663.37 402.051C661.119 402.776 658.14 399.772 656.686 395.318C655.265 390.864 655.958 386.686 658.21 385.96C660.495 385.235 663.474 388.239 664.894 392.694Z" fill="#789AD5"/>
<mask id="mask0_1_9748" style="mask-type:alpha" maskUnits="userSpaceOnUse" x="-20" y="498" width="1005" height="332">
<rect width="1003.97" height="331.359" transform="matrix(-1 0 0 1 984.852 498.122)" fill="url(#paint63_linear_1_9748)"/>
</mask>
<g mask="url(#mask0_1_9748)">
<g opacity="0.5">
<g style="mix-blend-mode:overlay">
<path d="M125.713 722.167C125.852 723.099 125.99 723.755 126.164 724.031C128.519 727.829 141.092 730.833 141.092 730.833V750.515L159.172 756.557L158.964 759.492L158.41 766.674H717.75L741.822 742.262L487.211 682.873L474.119 679.835L446.271 673.343L410.561 665.022L397.919 664.642L126.164 656.666C126.164 656.666 124.64 697.479 125.263 715.641C125.367 718.403 125.506 720.648 125.713 722.167Z" fill="url(#paint64_linear_1_9748)"/>
<path opacity="0.79" d="M158.929 759.492L158.41 766.674H282.581L141.092 730.834V750.515L159.137 756.592L158.929 759.492Z" fill="url(#paint65_linear_1_9748)"/>
<path d="M178.324 763.117L177.943 748.684L178.324 725.101L178.601 748.684L178.324 763.117Z" fill="url(#paint66_linear_1_9748)"/>
<path d="M168.662 759.594L168.281 745.161L168.662 721.578L168.939 745.161L168.662 759.594Z" fill="url(#paint67_linear_1_9748)"/>
<path d="M157.855 757.628L157.439 743.195L157.855 719.612L158.098 743.161L157.855 757.628Z" fill="url(#paint68_linear_1_9748)"/>
<path d="M145.594 751.274L145.213 738.913L145.594 718.644L145.836 738.878L145.594 751.274Z" fill="url(#paint69_linear_1_9748)"/>
<path d="M188.404 766.673L189.443 751.584L188.473 729.279L187.607 751.688L188.369 766.673H188.404Z" fill="url(#paint70_linear_1_9748)"/>
<path d="M310.463 766.674H717.75L741.822 742.263L487.212 682.874L397.919 664.608L126.164 656.666C126.164 656.666 124.155 710.876 125.713 722.167L310.463 766.674Z" fill="url(#paint71_linear_1_9748)"/>
<path d="M242.091 766.674L241.987 750.169L241.64 766.674H242.091Z" fill="url(#paint72_linear_1_9748)"/>
<path d="M186.499 766.674H214.555L141.091 748.512L140.814 748.443L139.117 754.348L158.929 759.492L186.499 766.674Z" fill="url(#paint73_linear_1_9748)"/>
<path d="M441.559 766.674L444.711 748.858L451.742 683.426L440.381 748.858L439.135 766.674H441.559Z" fill="url(#paint74_linear_1_9748)"/>
<path d="M475.607 766.674L478.862 748.857L482.638 693.301L474.152 748.857L473.078 766.674H475.607Z" fill="url(#paint75_linear_1_9748)"/>
<path d="M509.377 766.674L512.737 750.066L516.963 696.236L509.897 748.858L507.715 766.674H509.377Z" fill="url(#paint76_linear_1_9748)"/>
<path d="M540.099 766.674L544.463 748.858L548.793 707.354L540.515 748.858L537.986 766.674H540.099Z" fill="url(#paint77_linear_1_9748)"/>
<path d="M572.726 766.674L576.259 751.585L578.615 716.469L572.726 750.618L570.648 766.674H572.726Z" fill="url(#paint78_linear_1_9748)"/>
<path d="M600.505 766.674L606.497 747.442L622.153 682.804L602.202 747.165L598.254 766.674H600.505Z" fill="url(#paint79_linear_1_9748)"/>
<path d="M635.142 766.673L640.511 749.823L651.559 694.784L635.835 749.478L632.51 766.673H635.142Z" fill="url(#paint80_linear_1_9748)"/>
<path d="M669.57 766.674L674.073 753.346L685.364 700.068L671.406 751.965L667.631 766.674H669.57Z" fill="url(#paint81_linear_1_9748)"/>
<path d="M701.089 766.674L705.799 754.347L715.567 713.327L701.885 754.071L698.422 766.674H701.089Z" fill="url(#paint82_linear_1_9748)"/>
<path d="M332.49 766.674H332.836L332.455 735.46L329.996 670.029L330.827 735.529L332.49 766.674Z" fill="url(#paint83_linear_1_9748)"/>
<path d="M310.6 766.087L308.487 726.068L307.656 660.533L310.115 725.999L310.6 766.087Z" fill="url(#paint84_linear_1_9748)"/>
<path d="M289.992 762.324L287.88 722.305L287.014 656.804L289.507 722.236L289.992 762.324Z" fill="url(#paint85_linear_1_9748)"/>
<path d="M241.848 754.899L239.735 720.508L238.904 664.227L241.363 720.439L241.848 754.899Z" fill="url(#paint86_linear_1_9748)"/>
<path d="M163.916 734.977L163.05 700.552L163.015 644.34L163.916 700.552V734.977Z" fill="url(#paint87_linear_1_9748)"/>
<path d="M152.209 729.833L151.343 695.442L151.308 639.23L152.209 695.408V729.833Z" fill="url(#paint88_linear_1_9748)"/>
<path d="M140.814 727.172L139.948 692.747L139.914 636.535L140.814 692.747V727.172Z" fill="url(#paint89_linear_1_9748)"/>
<path d="M131.15 726.483L130.284 692.058L130.25 635.845L131.116 692.058L131.15 726.483Z" fill="url(#paint90_linear_1_9748)"/>
<path d="M354.554 766.674L355.523 738.775L351.332 676.9L350.847 739.086L352.891 766.674H354.554Z" fill="url(#paint91_linear_1_9748)"/>
<path d="M378.21 766.674H379.491L380.704 741.123L377.101 677.694L377.69 739.88L378.21 766.674Z" fill="url(#paint92_linear_1_9748)"/>
<path d="M412.223 766.673L413.851 740.121L411.219 689.053L409.937 740.397L410.492 766.673H412.223Z" fill="url(#paint93_linear_1_9748)"/>
<path d="M473.496 753.242L507.82 766.673H753.53L754.292 754.968L755.157 741.813L528.36 694.267L511.041 690.124L483.367 688.639L482.605 693.231V693.266L473.946 746.716C473.946 746.716 427.118 751.826 392.932 746.06C361.967 740.846 126.303 685.359 126.303 685.359V686.774C126.303 686.774 347.247 740.017 389.676 748.788C432.106 757.627 473.496 753.242 473.496 753.242Z" fill="url(#paint94_linear_1_9748)"/>
<path d="M753.772 766.673L756.162 747.406L620.942 718.402L565.455 766.673H753.772Z" fill="#ADC7F6"/>
<path opacity="0.85" d="M521.467 766.674L567.602 696.097L568.018 693.3L511.873 686.498L482.64 684.323L473.496 753.242L507.82 766.674H521.467Z" fill="#ADC7F6"/>
<path opacity="0.79" d="M514.61 755.762L523.823 744.782L486.52 736.944L489.464 721.578L533.452 730.107L541.903 715.639L491.819 705.488L494.59 690.261L487.489 687.844L478.865 744.367L514.61 755.762Z" fill="url(#paint95_linear_1_9748)"/>
<path opacity="0.89" d="M126.163 724.031C128.518 727.829 141.091 730.833 141.091 730.833V748.512L140.814 748.442L139.082 754.312L158.929 759.492L158.375 766.674H402.629L399.096 699.239L423.446 695.683L433.421 735.287L473.426 753.311L483.332 688.743L474.049 679.869L467.434 673.515L446.202 673.377L125.644 671.098V715.813L125.193 715.709C125.297 718.472 125.436 720.751 125.644 722.235C125.817 723.098 125.99 723.72 126.163 724.031Z" fill="#5EA1AB"/>
<path opacity="0.62" d="M231.284 766.674L215.317 762.324L214.52 751.274L278.84 766.674H279.879L141.092 730.833L140.814 748.443L214.555 766.674H231.284Z" fill="#5EA1AB"/>
<path opacity="0.62" d="M185.98 766.673L164.298 760.907H164.263L158.929 759.491L158.41 766.673H185.98Z" fill="#5EA1AB"/>
<path opacity="0.62" d="M125.125 666.368L125.714 722.166L248.603 751.274L147.846 724.341L145.837 689.64L350.849 737.255L145.837 686.187L145.214 671.167L125.125 666.368Z" fill="#5EA1AB"/>
<path opacity="0.62" d="M318.013 766.674L267.791 756.384C267.791 756.384 283.481 760.942 305.613 766.674H318.013Z" fill="#5EA1AB"/>
<path opacity="0.44" d="M329.407 766.674H336.265V701.346L210.605 677.694L219.23 740.57L329.407 766.674Z" fill="#5EA1AB"/>
<path d="M651.247 766.673L656.72 720.854L656.789 720.37L656.408 720.957L653.603 725.55L644.701 766.673H651.247Z" fill="url(#paint96_linear_1_9748)"/>
<path d="M703.236 766.673L705.591 726.689L704.275 730.625L700.465 766.673H703.236Z" fill="url(#paint97_linear_1_9748)"/>
<path d="M722.944 766.672L725.507 723.166L724.226 727.103L720.035 766.672H722.944Z" fill="url(#paint98_linear_1_9748)"/>
<path d="M717.575 766.674C713.8 763.359 711.34 759.388 711.34 759.388C711.34 759.388 709.228 762.358 705.14 766.674H717.575Z" fill="url(#paint99_linear_1_9748)"/>
<path d="M899.796 766.674C901.943 759.181 900.004 754.52 900.004 754.52C900.004 754.52 821.276 727.829 773.27 750.687C772.3 751.171 771.296 751.654 770.361 752.172L749.821 746.786C749.821 746.786 744.661 759.561 736.763 766.709H899.796V766.674Z" fill="url(#paint100_linear_1_9748)"/>
<path d="M722.943 766.674L724.086 747.649L720.207 766.674H722.943Z" fill="#ADC7F6"/>
<path d="M717.61 766.674C713.835 763.359 711.375 759.388 711.375 759.388C711.375 759.388 709.263 762.358 705.176 766.674H717.61Z" fill="#ADC7F6"/>
<path d="M724.088 747.647L725.508 723.166L724.088 747.647Z" fill="#ADC7F6"/>
<path d="M761.043 766.674C769.529 759.837 776.283 753.069 776.283 753.069L773.27 750.652C772.3 751.136 771.296 751.619 770.361 752.137L749.821 746.751C749.821 746.751 744.661 759.526 736.763 766.674H761.043V766.674Z" fill="#ADC7F6"/>
<path d="M704.726 741.433L705.592 726.689L704.726 741.433Z" fill="#ADC7F6"/>
<path d="M703.236 766.673L704.725 741.433L700.742 766.673H703.236Z" fill="#ADC7F6"/>
<path d="M651.247 766.673L656.72 720.854C656.616 720.888 656.512 720.923 656.408 720.992L653.637 734.838L645.602 766.708H651.247V766.673Z" fill="#ADC7F6"/>
<path d="M386.974 707.044C386.974 707.044 399.547 684.048 430.165 679.663C438.963 678.385 481.392 687.466 538.68 700.725C623.4 720.303 740.575 748.961 829.313 766.709H960.965C961.207 752.138 951.752 730.247 944.028 714.778C938.659 704.109 934.122 696.547 934.122 696.547C934.122 696.547 870.876 618.512 857.541 569.585H168.593C128.518 598.451 98.2811 665.23 98.2811 665.23L364.218 709.495L386.974 707.044Z" fill="url(#paint101_linear_1_9748)"/>
<path d="M386.247 690.573C386.247 690.573 399.548 684.047 430.201 679.627C438.998 678.35 481.428 687.431 538.716 700.689C628.008 721.338 752.629 750.48 842.233 766.674H959.269C961.763 753.449 952.411 731.42 944.063 714.743C944.063 714.743 955.078 749.72 943.96 740.846C932.807 732.007 900.387 708.562 873.683 669.994C846.978 631.425 835.098 578.458 835.098 578.458L178.465 569.515C148.228 577.595 98.3514 665.16 98.3514 665.16L362.037 705.696L386.247 690.573Z" fill="#ADC7F6"/>
<path d="M430.165 679.627C386.974 677.901 364.183 709.46 364.183 709.46L386.974 707.008C386.974 707.043 399.547 684.047 430.165 679.627Z" fill="white"/>
<path opacity="0.5" d="M807.043 713.016C842.302 715.398 818.958 657.286 787.162 657.735C755.331 658.15 771.783 710.668 807.043 713.016Z" fill="#ADC7F6"/>
<path opacity="0.5" d="M786.572 684.978C798.903 686.429 793.361 665.504 782.104 665.09C770.848 664.676 774.207 683.528 786.572 684.978Z" fill="#ADC7F6"/>
<path opacity="0.5" d="M789.934 657.838C825.955 670.164 813.348 705.211 787.37 703.484C786.297 703.415 785.223 703.312 784.219 703.139C790.28 708.56 798.038 712.427 807.044 713.049C841.23 715.328 820.275 660.669 789.934 657.838Z" fill="#ADC7F6"/>
<path opacity="0.22" d="M164.541 600.867C164.541 600.867 314.134 617.613 437.612 635.844C585.682 657.701 765.063 685.393 765.063 685.393C760.11 663.95 763.366 648.723 780.511 643.095C780.511 643.095 567.498 633.082 440.557 622.136C324.976 612.157 178.568 593.823 178.568 593.823L164.541 600.867Z" fill="#ADC7F6"/>
<path opacity="0.5" d="M184.214 617.51L178.187 616.889L161.077 615.128C158.41 614.852 155.777 615.749 154.184 617.407L149.439 622.413C148.4 623.518 149.127 625.072 150.79 625.383L173.165 629.906C175.659 630.424 178.256 629.872 180.092 628.525C180.542 628.214 180.923 627.834 181.27 627.42L186.43 621.205C187.712 619.755 186.5 617.752 184.214 617.51Z" fill="#ADC7F6"/>
<path opacity="0.63" d="M184.214 617.51L178.187 616.888C176.871 617.268 175.728 617.959 174.862 618.856L170.117 623.863C169.078 624.968 169.805 626.522 171.467 626.832L180.092 628.593C180.542 628.283 180.923 627.903 181.27 627.488L186.43 621.273C187.712 619.754 186.5 617.751 184.214 617.51Z" fill="#ADC7F6"/>
<path opacity="0.5" d="M229.206 622.104L218.122 621.102L198.692 619.341C197.133 619.203 195.574 619.687 194.708 620.619L187.747 628.181C186.292 629.769 187.469 631.875 190.136 632.359L220.166 637.952C222.036 638.298 224.045 637.711 224.877 636.502L225.119 636.191L232.358 626.144C233.57 624.383 231.977 622.345 229.206 622.104Z" fill="#ADC7F6"/>
<path opacity="0.63" d="M229.206 622.105L218.122 621.103C217.568 621.31 217.083 621.621 216.737 622.001L209.775 629.563C208.32 631.151 209.498 633.257 212.13 633.741L225.084 636.158L232.323 626.11C233.57 624.383 231.977 622.346 229.206 622.105Z" fill="#ADC7F6"/>
<path opacity="0.5" d="M282.06 626.176L267.859 625.002L247.666 623.345C244.757 623.103 241.917 624.07 240.67 625.727L234.158 634.566C232.426 636.914 234.539 639.642 238.557 640.298L272.085 645.754C275.098 646.237 278.215 645.408 279.67 643.751C279.809 643.613 279.912 643.44 280.016 643.268L287.394 631.77C289.022 629.318 286.389 626.556 282.06 626.176Z" fill="#ADC7F6"/>
<path opacity="0.63" d="M282.06 626.176L267.86 625.002C266.994 625.417 266.301 625.934 265.816 626.591L259.304 635.43C257.573 637.778 259.685 640.506 263.703 641.162L279.705 643.786C279.844 643.648 279.948 643.475 280.052 643.302L287.429 631.804C289.022 629.318 286.39 626.556 282.06 626.176Z" fill="#ADC7F6"/>
<path opacity="0.5" d="M353.203 634.843L322.827 632.254L305.89 630.804C302.669 630.527 299.552 631.632 298.27 633.462L291.135 643.855C289.369 646.411 291.828 649.345 296.227 649.932L344.925 656.493C348.042 656.907 351.125 656.009 352.649 654.387C352.961 654.041 353.203 653.696 353.376 653.316L359.091 640.403C360.304 637.813 357.498 635.189 353.203 634.843Z" fill="#ADC7F6"/>
<path opacity="0.63" d="M353.204 634.843L322.828 632.254C322.308 632.599 321.892 633.013 321.581 633.462L314.446 643.855C312.679 646.41 315.138 649.345 319.537 649.932L352.684 654.387C352.996 654.041 353.238 653.696 353.411 653.316L359.126 640.402C360.304 637.813 357.498 635.189 353.204 634.843Z" fill="#ADC7F6"/>
<path d="M301.457 592.891C301.942 591.406 301.388 590.06 300.141 589.887C298.929 589.715 297.543 590.819 297.024 592.304C296.539 593.789 297.093 595.136 298.34 595.308C299.552 595.481 300.938 594.41 301.457 592.891Z" fill="#ADC7F6"/>
<path d="M310.67 593.548C311.189 591.994 310.566 590.613 309.319 590.44C308.072 590.268 306.617 591.407 306.098 592.961C305.578 594.515 306.202 595.896 307.448 596.069C308.73 596.207 310.15 595.102 310.67 593.548Z" fill="#ADC7F6"/>
<path d="M320.023 594.065C320.577 592.373 319.919 590.889 318.568 590.716C317.217 590.543 315.624 591.752 315.07 593.444C314.515 595.136 315.173 596.62 316.524 596.793C317.875 596.966 319.434 595.757 320.023 594.065Z" fill="#ADC7F6"/>
<path d="M329.097 594.859C329.651 593.167 328.993 591.683 327.642 591.51C326.257 591.337 324.698 592.546 324.144 594.238C323.59 595.93 324.248 597.414 325.599 597.587C326.984 597.76 328.543 596.551 329.097 594.859Z" fill="#ADC7F6"/>
<path d="M339.627 595.619C340.216 593.892 339.523 592.339 338.103 592.131C336.683 591.959 335.055 593.202 334.501 594.963C333.912 596.689 334.605 598.243 336.025 598.45C337.41 598.623 339.038 597.38 339.627 595.619Z" fill="#ADC7F6"/>
<path d="M351.021 596.24C351.61 594.479 350.917 592.926 349.497 592.753C348.077 592.58 346.449 593.823 345.86 595.584C345.272 597.345 345.964 598.899 347.384 599.072C348.804 599.244 350.432 598.001 351.021 596.24Z" fill="#ADC7F6"/>
<path d="M362.244 597.034C362.867 595.135 362.14 593.443 360.581 593.236C359.023 593.028 357.256 594.41 356.633 596.309C356.009 598.208 356.737 599.9 358.295 600.107C359.854 600.314 361.62 598.933 362.244 597.034Z" fill="#ADC7F6"/>
<path d="M376.099 597.931C376.757 595.894 375.995 594.099 374.333 593.892C372.67 593.684 370.8 595.135 370.142 597.172C369.484 599.209 370.246 601.004 371.908 601.212C373.571 601.419 375.441 599.934 376.099 597.931Z" fill="#ADC7F6"/>
<path d="M389.33 598.864C389.988 596.827 389.226 595.031 387.563 594.824C385.901 594.617 384.03 596.067 383.372 598.104C382.714 600.142 383.476 601.937 385.139 602.144C386.766 602.351 388.637 600.867 389.33 598.864Z" fill="#ADC7F6"/>
<path d="M401.037 599.9C401.695 597.862 400.933 596.067 399.27 595.86C397.608 595.653 395.737 597.103 395.079 599.14C394.421 601.177 395.183 602.973 396.846 603.18C398.474 603.387 400.344 601.902 401.037 599.9Z" fill="#ADC7F6"/>
<path d="M412.951 601.006C413.609 598.968 412.847 597.173 411.184 596.966C409.522 596.759 407.651 598.209 406.993 600.246C406.335 602.283 407.097 604.079 408.76 604.286C410.388 604.493 412.258 603.008 412.951 601.006Z" fill="#ADC7F6"/>
<path d="M472.767 652.211C473.737 650.278 473.286 648.482 471.728 648.171C470.169 647.861 468.091 649.173 467.121 651.072C466.151 653.005 466.602 654.801 468.16 655.112C469.719 655.422 471.762 654.11 472.767 652.211Z" fill="#ADC7F6"/>
<path d="M484.717 653.835C485.721 651.867 485.236 649.967 483.643 649.657C482.015 649.346 479.902 650.693 478.863 652.661C477.859 654.629 478.344 656.528 479.937 656.839C481.565 657.149 483.678 655.803 484.717 653.835Z" fill="#ADC7F6"/>
<path d="M496.805 655.319C497.913 653.178 497.394 651.141 495.627 650.796C493.861 650.45 491.575 651.901 490.467 654.076C489.358 656.217 489.878 658.254 491.644 658.599C493.376 658.944 495.697 657.46 496.805 655.319Z" fill="#ADC7F6"/>
<path d="M508.545 657.114C509.654 654.974 509.134 652.936 507.368 652.591C505.601 652.246 503.281 653.696 502.207 655.871C501.098 658.012 501.618 660.049 503.384 660.395C505.116 660.74 507.437 659.255 508.545 657.114Z" fill="#ADC7F6"/>
<path d="M522.159 659.048C523.302 656.803 522.748 654.732 520.947 654.352C519.146 654.007 516.721 655.491 515.578 657.736C514.435 659.98 514.989 662.052 516.79 662.432C518.591 662.811 521.016 661.258 522.159 659.048Z" fill="#ADC7F6"/>
<path d="M536.948 660.809C538.091 658.565 537.537 656.458 535.736 656.113C533.9 655.768 531.51 657.252 530.367 659.497C529.224 661.741 529.778 663.847 531.579 664.193C533.38 664.573 535.77 663.053 536.948 660.809Z" fill="#ADC7F6"/>
<path d="M551.875 663.191C553.053 660.877 552.499 658.702 550.628 658.322C548.758 657.942 546.264 659.531 545.087 661.809C543.909 664.123 544.463 666.298 546.333 666.678C548.204 667.058 550.698 665.504 551.875 663.191Z" fill="#ADC7F6"/>
<path d="M569.229 665.263C570.511 662.777 569.887 660.429 567.879 660.015C565.835 659.6 563.168 661.292 561.886 663.778C560.605 666.265 561.228 668.612 563.237 669.027C565.281 669.441 567.948 667.749 569.229 665.263Z" fill="#ADC7F6"/>
<path d="M585.232 667.957C586.548 665.367 585.924 662.916 583.812 662.502C581.699 662.087 578.928 663.848 577.577 666.438C576.261 669.027 576.884 671.479 578.997 671.893C581.145 672.308 583.915 670.547 585.232 667.957Z" fill="#ADC7F6"/>
<path d="M601.612 670.166C602.928 667.576 602.305 665.125 600.192 664.711C598.079 664.296 595.308 666.057 593.958 668.647C592.607 671.236 593.265 673.688 595.378 674.102C597.491 674.517 600.296 672.756 601.612 670.166Z" fill="#ADC7F6"/>
<path d="M616.991 672.308C618.308 669.718 617.684 667.267 615.571 666.852C613.458 666.438 610.688 668.199 609.337 670.788C608.021 673.378 608.644 675.83 610.757 676.244C612.87 676.658 615.675 674.897 616.991 672.308Z" fill="#ADC7F6"/>
<path d="M632.266 674.896C633.686 672.134 632.993 669.509 630.742 669.061C628.491 668.612 625.512 670.511 624.057 673.273C622.637 676.035 623.295 678.66 625.581 679.108C627.867 679.557 630.846 677.693 632.266 674.896Z" fill="#ADC7F6"/>
<path d="M648.441 677.418C649.861 674.656 649.168 672.031 646.917 671.583C644.666 671.134 641.687 673.033 640.232 675.795C638.812 678.557 639.505 681.182 641.756 681.63C644.008 682.079 647.021 680.215 648.441 677.418Z" fill="#ADC7F6"/>
<path d="M664.894 680.041C666.314 677.279 665.622 674.655 663.37 674.206C661.119 673.757 658.14 675.656 656.686 678.419C655.265 681.181 655.958 683.805 658.21 684.254C660.495 684.703 663.474 682.838 664.894 680.041Z" fill="#ADC7F6"/>
</g>
</g>
</g>
<path fill-rule="evenodd" clip-rule="evenodd" d="M242.922 573.072C247.425 578.355 370.764 582.809 402.872 581.221C435.014 579.632 448.038 573.555 448.038 573.555C448.038 573.555 494.173 580.427 509.24 575.972C524.306 571.518 515.509 568.894 515.509 568.894C515.509 568.894 547.132 571.898 503.629 572.658C460.126 573.417 462.342 573.383 462.342 573.383L242.922 573.072Z" fill="white"/>
<path opacity="0.6" fill-rule="evenodd" clip-rule="evenodd" d="M683.287 590.82C683.322 592.028 672.169 593.202 658.419 593.444C644.668 593.686 633.515 592.892 633.481 591.683C633.446 590.475 644.599 589.301 658.349 589.059C672.1 588.817 683.253 589.611 683.287 590.82Z" fill="#A2E7F8"/>
<path opacity="0.6" fill-rule="evenodd" clip-rule="evenodd" d="M752.455 582.429C752.455 583.051 746.117 583.638 738.289 583.776C730.461 583.914 724.088 583.534 724.088 582.913C724.088 582.291 730.427 581.704 738.254 581.566C746.082 581.428 752.455 581.842 752.455 582.429Z" fill="#A2E7F8"/>
<path fill-rule="evenodd" clip-rule="evenodd" d="M583.777 579.115C583.777 579.771 577.577 580.427 569.922 580.566C562.268 580.704 556.033 580.255 556.033 579.599C556.033 578.943 562.233 578.287 569.888 578.149C577.542 578.01 583.777 578.425 583.777 579.115Z" fill="white"/>
<path fill-rule="evenodd" clip-rule="evenodd" d="M537.607 572.728C537.607 573.142 533.727 573.556 528.948 573.626C524.168 573.695 520.254 573.453 520.254 573.004C520.254 572.59 524.133 572.175 528.913 572.106C533.727 572.037 537.607 572.313 537.607 572.728Z" fill="white"/>
<path fill-rule="evenodd" clip-rule="evenodd" d="M515.82 579.701C515.82 579.943 515.023 580.15 513.984 580.15C512.98 580.185 512.149 579.978 512.149 579.736C512.149 579.494 512.945 579.287 513.984 579.287C514.989 579.287 515.785 579.494 515.82 579.701Z" fill="white"/>
<path fill-rule="evenodd" clip-rule="evenodd" d="M554.058 571.38C554.058 571.207 552.604 571.104 550.837 571.138C549.071 571.173 547.651 571.311 547.651 571.483C547.651 571.656 549.105 571.759 550.872 571.725C552.604 571.725 554.058 571.552 554.058 571.38Z" fill="white"/>
<path fill-rule="evenodd" clip-rule="evenodd" d="M554.023 569.827C554.023 570.068 553.226 570.276 552.187 570.276C551.183 570.31 550.352 570.103 550.352 569.861C550.352 569.62 551.148 569.412 552.187 569.412C553.192 569.378 554.023 569.585 554.023 569.827Z" fill="white"/>
<path fill-rule="evenodd" clip-rule="evenodd" d="M788.268 574.764C788.268 575.109 786.155 575.42 783.558 575.454C780.96 575.489 778.813 575.282 778.813 574.937C778.813 574.591 780.925 574.28 783.523 574.246C786.121 574.211 788.268 574.453 788.268 574.764Z" fill="white"/>
<path fill-rule="evenodd" clip-rule="evenodd" d="M730.98 578.597C730.98 579.253 724.78 579.909 717.126 580.047C709.471 580.185 703.236 579.736 703.236 579.08C703.236 578.424 709.436 577.768 717.091 577.63C724.746 577.492 730.98 577.941 730.98 578.597Z" fill="white"/>
<path fill-rule="evenodd" clip-rule="evenodd" d="M609.028 571.932C609.028 572.519 606.846 573.002 604.109 573.071C601.373 573.106 599.191 572.692 599.156 572.105C599.156 571.518 601.338 571.034 604.075 570.965C606.811 570.931 609.028 571.38 609.028 571.932Z" fill="white"/>
<path fill-rule="evenodd" clip-rule="evenodd" d="M615.954 573.417C615.954 573.624 615.192 573.796 614.222 573.796C613.252 573.796 612.49 573.658 612.49 573.451C612.49 573.244 613.252 573.072 614.222 573.072C615.192 573.038 615.954 573.21 615.954 573.417Z" fill="white"/>
<defs>
<linearGradient id="paint0_linear_1_9748" x1="341.505" y1="53.2425" x2="344.034" y2="53.0139" gradientUnits="userSpaceOnUse">
<stop stop-color="#D6ECF8"/>
<stop offset="1" stop-color="white"/>
</linearGradient>
<linearGradient id="paint1_linear_1_9748" x1="359.313" y1="133.394" x2="463.674" y2="83.8058" gradientUnits="userSpaceOnUse">
<stop stop-color="#D6ECF8"/>
<stop offset="1" stop-color="white"/>
</linearGradient>
<linearGradient id="paint2_linear_1_9748" x1="125.113" y1="254.723" x2="741.818" y2="254.723" gradientUnits="userSpaceOnUse">
<stop stop-color="#D6ECF8"/>
<stop offset="1" stop-color="white"/>
</linearGradient>
<linearGradient id="paint3_linear_1_9748" x1="141.085" y1="205.337" x2="688.535" y2="205.337" gradientUnits="userSpaceOnUse">
<stop stop-color="#1261AA"/>
<stop offset="1" stop-color="#14CDCD"/>
</linearGradient>
<linearGradient id="paint4_linear_1_9748" x1="282.489" y1="295.408" x2="310.585" y2="296.503" gradientUnits="userSpaceOnUse">
<stop stop-color="#D6ECF8"/>
<stop offset="1" stop-color="white"/>
</linearGradient>
<linearGradient id="paint5_linear_1_9748" x1="282.277" y1="301.539" x2="310.377" y2="302.634" gradientUnits="userSpaceOnUse">
<stop stop-color="#D6ECF8"/>
<stop offset="1" stop-color="white"/>
</linearGradient>
<linearGradient id="paint6_linear_1_9748" x1="282.129" y1="305.241" x2="310.226" y2="306.335" gradientUnits="userSpaceOnUse">
<stop stop-color="#D6ECF8"/>
<stop offset="1" stop-color="white"/>
</linearGradient>
<linearGradient id="paint7_linear_1_9748" x1="281.93" y1="311.688" x2="310.035" y2="312.783" gradientUnits="userSpaceOnUse">
<stop stop-color="#D6ECF8"/>
<stop offset="1" stop-color="white"/>
</linearGradient>
<linearGradient id="paint8_linear_1_9748" x1="253.857" y1="288.711" x2="327.87" y2="294.496" gradientUnits="userSpaceOnUse">
<stop stop-color="#D6ECF8"/>
<stop offset="1" stop-color="white"/>
</linearGradient>
<linearGradient id="paint9_linear_1_9748" x1="125.114" y1="324.283" x2="741.804" y2="324.283" gradientUnits="userSpaceOnUse">
<stop stop-color="#1261AA"/>
<stop offset="1" stop-color="#14CDCD"/>
</linearGradient>
<linearGradient id="paint10_linear_1_9748" x1="285.113" y1="228.451" x2="313.218" y2="229.546" gradientUnits="userSpaceOnUse">
<stop stop-color="#D6ECF8"/>
<stop offset="1" stop-color="white"/>
</linearGradient>
<linearGradient id="paint11_linear_1_9748" x1="284.868" y1="234.581" x2="312.969" y2="235.676" gradientUnits="userSpaceOnUse">
<stop stop-color="#D6ECF8"/>
<stop offset="1" stop-color="white"/>
</linearGradient>
<linearGradient id="paint12_linear_1_9748" x1="284.737" y1="238.284" x2="312.838" y2="239.378" gradientUnits="userSpaceOnUse">
<stop stop-color="#D6ECF8"/>
<stop offset="1" stop-color="white"/>
</linearGradient>
<linearGradient id="paint13_linear_1_9748" x1="284.478" y1="244.728" x2="312.574" y2="245.822" gradientUnits="userSpaceOnUse">
<stop stop-color="#D6ECF8"/>
<stop offset="1" stop-color="white"/>
</linearGradient>
<linearGradient id="paint14_linear_1_9748" x1="259.106" y1="221.507" x2="333.112" y2="227.291" gradientUnits="userSpaceOnUse">
<stop stop-color="#D6ECF8"/>
<stop offset="1" stop-color="white"/>
</linearGradient>
<linearGradient id="paint15_linear_1_9748" x1="331.623" y1="178.876" x2="336.108" y2="179.042" gradientUnits="userSpaceOnUse">
<stop stop-color="#D6ECF8"/>
<stop offset="1" stop-color="white"/>
</linearGradient>
<linearGradient id="paint16_linear_1_9748" x1="311.944" y1="184.804" x2="316.65" y2="184.978" gradientUnits="userSpaceOnUse">
<stop stop-color="#D6ECF8"/>
<stop offset="1" stop-color="white"/>
</linearGradient>
<linearGradient id="paint17_linear_1_9748" x1="294.007" y1="195.288" x2="298.171" y2="195.442" gradientUnits="userSpaceOnUse">
<stop stop-color="#D6ECF8"/>
<stop offset="1" stop-color="white"/>
</linearGradient>
<linearGradient id="paint18_linear_1_9748" x1="274.782" y1="209.094" x2="279.135" y2="209.255" gradientUnits="userSpaceOnUse">
<stop stop-color="#D6ECF8"/>
<stop offset="1" stop-color="white"/>
</linearGradient>
<linearGradient id="paint19_linear_1_9748" x1="239.908" y1="227.39" x2="243.94" y2="227.539" gradientUnits="userSpaceOnUse">
<stop stop-color="#D6ECF8"/>
<stop offset="1" stop-color="white"/>
</linearGradient>
<linearGradient id="paint20_linear_1_9748" x1="347.954" y1="164.23" x2="357.466" y2="164.928" gradientUnits="userSpaceOnUse">
<stop stop-color="#D6ECF8"/>
<stop offset="1" stop-color="white"/>
</linearGradient>
<linearGradient id="paint21_linear_1_9748" x1="589.053" y1="153.25" x2="557.602" y2="155.448" gradientUnits="userSpaceOnUse">
<stop stop-color="#D6ECF8"/>
<stop offset="1" stop-color="white"/>
</linearGradient>
<linearGradient id="paint22_linear_1_9748" x1="619.783" y1="151.271" x2="588.597" y2="155.91" gradientUnits="userSpaceOnUse">
<stop stop-color="#D6ECF8"/>
<stop offset="1" stop-color="white"/>
</linearGradient>
<linearGradient id="paint23_linear_1_9748" x1="424.689" y1="153.183" x2="393.883" y2="146.473" gradientUnits="userSpaceOnUse">
<stop stop-color="#D6ECF8"/>
<stop offset="1" stop-color="white"/>
</linearGradient>
<linearGradient id="paint24_linear_1_9748" x1="394.311" y1="161.048" x2="363.504" y2="154.337" gradientUnits="userSpaceOnUse">
<stop stop-color="#D6ECF8"/>
<stop offset="1" stop-color="white"/>
</linearGradient>
<linearGradient id="paint25_linear_1_9748" x1="454.748" y1="159.845" x2="423.512" y2="155.553" gradientUnits="userSpaceOnUse">
<stop stop-color="#D6ECF8"/>
<stop offset="1" stop-color="white"/>
</linearGradient>
<linearGradient id="paint26_linear_1_9748" x1="487.398" y1="156.593" x2="456.19" y2="152.061" gradientUnits="userSpaceOnUse">
<stop stop-color="#D6ECF8"/>
<stop offset="1" stop-color="white"/>
</linearGradient>
<linearGradient id="paint27_linear_1_9748" x1="524.634" y1="161.467" x2="493.172" y2="159.38" gradientUnits="userSpaceOnUse">
<stop stop-color="#D6ECF8"/>
<stop offset="1" stop-color="white"/>
</linearGradient>
<linearGradient id="paint28_linear_1_9748" x1="650.536" y1="156.368" x2="619.35" y2="161.007" gradientUnits="userSpaceOnUse">
<stop stop-color="#D6ECF8"/>
<stop offset="1" stop-color="white"/>
</linearGradient>
<linearGradient id="paint29_linear_1_9748" x1="552.332" y1="158.047" x2="531.477" y2="159.309" gradientUnits="userSpaceOnUse">
<stop stop-color="#D6ECF8"/>
<stop offset="1" stop-color="white"/>
</linearGradient>
<linearGradient id="paint30_linear_1_9748" x1="139.104" y1="224.239" x2="675.466" y2="224.239" gradientUnits="userSpaceOnUse">
<stop stop-color="#D6ECF8"/>
<stop offset="1" stop-color="white"/>
</linearGradient>
<linearGradient id="paint31_linear_1_9748" x1="437.63" y1="302.862" x2="451.76" y2="302.862" gradientUnits="userSpaceOnUse">
<stop stop-color="#D6ECF8"/>
<stop offset="1" stop-color="white"/>
</linearGradient>
<linearGradient id="paint32_linear_1_9748" x1="471.793" y1="296.112" x2="482.632" y2="296.112" gradientUnits="userSpaceOnUse">
<stop stop-color="#D6ECF8"/>
<stop offset="1" stop-color="white"/>
</linearGradient>
<linearGradient id="paint33_linear_1_9748" x1="505.179" y1="293.777" x2="516.963" y2="293.777" gradientUnits="userSpaceOnUse">
<stop stop-color="#D6ECF8"/>
<stop offset="1" stop-color="white"/>
</linearGradient>
<linearGradient id="paint34_linear_1_9748" x1="535.032" y1="284.887" x2="548.779" y2="284.887" gradientUnits="userSpaceOnUse">
<stop stop-color="#D6ECF8"/>
<stop offset="1" stop-color="white"/>
</linearGradient>
<linearGradient id="paint35_linear_1_9748" x1="568.025" y1="278.191" x2="578.63" y2="278.191" gradientUnits="userSpaceOnUse">
<stop stop-color="#D6ECF8"/>
<stop offset="1" stop-color="white"/>
</linearGradient>
<linearGradient id="paint36_linear_1_9748" x1="602.254" y1="305.582" x2="614.088" y2="304.445" gradientUnits="userSpaceOnUse">
<stop stop-color="#D6ECF8"/>
<stop offset="1" stop-color="white"/>
</linearGradient>
<linearGradient id="paint37_linear_1_9748" x1="635.586" y1="295.121" x2="644.382" y2="294.276" gradientUnits="userSpaceOnUse">
<stop stop-color="#D6ECF8"/>
<stop offset="1" stop-color="white"/>
</linearGradient>
<linearGradient id="paint38_linear_1_9748" x1="668.599" y1="289.097" x2="678.399" y2="288.156" gradientUnits="userSpaceOnUse">
<stop stop-color="#D6ECF8"/>
<stop offset="1" stop-color="white"/>
</linearGradient>
<linearGradient id="paint39_linear_1_9748" x1="697.463" y1="276.94" x2="709.458" y2="275.788" gradientUnits="userSpaceOnUse">
<stop stop-color="#D6ECF8"/>
<stop offset="1" stop-color="white"/>
</linearGradient>
<linearGradient id="paint40_linear_1_9748" x1="415.774" y1="343.111" x2="507.659" y2="363.791" gradientUnits="userSpaceOnUse">
<stop stop-color="#D6ECF8"/>
<stop offset="1" stop-color="white"/>
</linearGradient>
<linearGradient id="paint41_linear_1_9748" x1="411.45" y1="362.32" x2="503.333" y2="382.999" gradientUnits="userSpaceOnUse">
<stop stop-color="#D6ECF8"/>
<stop offset="1" stop-color="white"/>
</linearGradient>
<linearGradient id="paint42_linear_1_9748" x1="409.176" y1="372.431" x2="501.06" y2="393.11" gradientUnits="userSpaceOnUse">
<stop stop-color="#D6ECF8"/>
<stop offset="1" stop-color="white"/>
</linearGradient>
<linearGradient id="paint43_linear_1_9748" x1="406.87" y1="382.681" x2="498.755" y2="403.361" gradientUnits="userSpaceOnUse">
<stop stop-color="#D6ECF8"/>
<stop offset="1" stop-color="white"/>
</linearGradient>
<linearGradient id="paint44_linear_1_9748" x1="183.481" y1="377.557" x2="216.077" y2="377.951" gradientUnits="userSpaceOnUse">
<stop stop-color="#D6ECF8"/>
<stop offset="1" stop-color="white"/>
</linearGradient>
<linearGradient id="paint45_linear_1_9748" x1="183.378" y1="385.902" x2="215.973" y2="386.296" gradientUnits="userSpaceOnUse">
<stop stop-color="#D6ECF8"/>
<stop offset="1" stop-color="white"/>
</linearGradient>
<linearGradient id="paint46_linear_1_9748" x1="183.324" y1="390.317" x2="215.919" y2="390.711" gradientUnits="userSpaceOnUse">
<stop stop-color="#D6ECF8"/>
<stop offset="1" stop-color="white"/>
</linearGradient>
<linearGradient id="paint47_linear_1_9748" x1="183.324" y1="391.533" x2="215.93" y2="391.927" gradientUnits="userSpaceOnUse">
<stop stop-color="#D6ECF8"/>
<stop offset="1" stop-color="white"/>
</linearGradient>
<linearGradient id="paint48_linear_1_9748" x1="419.079" y1="328.42" x2="510.963" y2="349.1" gradientUnits="userSpaceOnUse">
<stop stop-color="#D6ECF8"/>
<stop offset="1" stop-color="white"/>
</linearGradient>
<linearGradient id="paint49_linear_1_9748" x1="421.009" y1="319.849" x2="512.893" y2="340.528" gradientUnits="userSpaceOnUse">
<stop stop-color="#D6ECF8"/>
<stop offset="1" stop-color="white"/>
</linearGradient>
<linearGradient id="paint50_linear_1_9748" x1="403.124" y1="298.296" x2="418.998" y2="299.874" gradientUnits="userSpaceOnUse">
<stop stop-color="#D6ECF8"/>
<stop offset="1" stop-color="white"/>
</linearGradient>
<linearGradient id="paint51_linear_1_9748" x1="126.316" y1="315.672" x2="755.184" y2="315.672" gradientUnits="userSpaceOnUse">
<stop stop-color="#D6ECF8"/>
<stop offset="1" stop-color="white"/>
</linearGradient>
<linearGradient id="paint52_linear_1_9748" x1="457.932" y1="284.794" x2="542.335" y2="450.558" gradientUnits="userSpaceOnUse">
<stop stop-color="#1261AA"/>
<stop offset="1" stop-color="#14CDCD"/>
</linearGradient>
<linearGradient id="paint53_linear_1_9748" x1="337.487" y1="192.85" x2="486.162" y2="122.206" gradientUnits="userSpaceOnUse">
<stop stop-color="#D6ECF8"/>
<stop offset="1" stop-color="white"/>
</linearGradient>
<linearGradient id="paint54_linear_1_9748" x1="392.343" y1="204.645" x2="852.896" y2="137.518" gradientUnits="userSpaceOnUse">
<stop/>
<stop offset="1" stop-color="#14CDCD"/>
</linearGradient>
<linearGradient id="paint55_linear_1_9748" x1="545.072" y1="278.317" x2="690.973" y2="267.15" gradientUnits="userSpaceOnUse">
<stop stop-color="#D6ECF8"/>
<stop offset="1" stop-color="white"/>
</linearGradient>
<linearGradient id="paint56_linear_1_9748" x1="463.98" y1="286.21" x2="705.473" y2="267.726" gradientUnits="userSpaceOnUse">
<stop stop-color="#D6ECF8"/>
<stop offset="1" stop-color="white"/>
</linearGradient>
<linearGradient id="paint57_linear_1_9748" x1="459.383" y1="293.717" x2="700.681" y2="275.248" gradientUnits="userSpaceOnUse">
<stop stop-color="#D6ECF8"/>
<stop offset="1" stop-color="white"/>
</linearGradient>
<linearGradient id="paint58_linear_1_9748" x1="731.435" y1="287.69" x2="756.034" y2="173.713" gradientUnits="userSpaceOnUse">
<stop stop-color="#D6ECF8"/>
<stop offset="1" stop-color="white"/>
</linearGradient>
<linearGradient id="paint59_linear_1_9748" x1="699.399" y1="277.193" x2="837.085" y2="162.098" gradientUnits="userSpaceOnUse">
<stop/>
<stop offset="1" stop-color="#DDFFED"/>
</linearGradient>
<linearGradient id="paint60_linear_1_9748" x1="573.941" y1="214.408" x2="838.484" y2="203.553" gradientUnits="userSpaceOnUse">
<stop stop-color="#1261AA"/>
<stop offset="1" stop-color="#14CDCD"/>
</linearGradient>
<linearGradient id="paint61_linear_1_9748" x1="527.058" y1="318.517" x2="558.364" y2="491.739" gradientUnits="userSpaceOnUse">
<stop stop-color="#D6ECF8"/>
<stop offset="1" stop-color="white"/>
</linearGradient>
<linearGradient id="paint62_linear_1_9748" x1="763.676" y1="401.745" x2="165.254" y2="521.142" gradientUnits="userSpaceOnUse">
<stop stop-color="#7A98CF"/>
<stop offset="1" stop-color="#7A98CF" stop-opacity="0.61"/>
</linearGradient>
<linearGradient id="paint63_linear_1_9748" x1="501.984" y1="7.03152e-06" x2="540.922" y2="249.075" gradientUnits="userSpaceOnUse">
<stop stop-color="#D9D9D9"/>
<stop offset="1" stop-color="#D9D9D9" stop-opacity="0"/>
</linearGradient>
<linearGradient id="paint64_linear_1_9748" x1="125.113" y1="711.658" x2="741.818" y2="711.658" gradientUnits="userSpaceOnUse">
<stop stop-color="#D6ECF8"/>
<stop offset="1" stop-color="white"/>
</linearGradient>
<linearGradient id="paint65_linear_1_9748" x1="141.085" y1="748.754" x2="688.535" y2="748.754" gradientUnits="userSpaceOnUse">
<stop stop-color="#5CA28F"/>
<stop offset="1" stop-color="#BFFF9D"/>
</linearGradient>
<linearGradient id="paint66_linear_1_9748" x1="262.352" y1="740.815" x2="284.993" y2="739.676" gradientUnits="userSpaceOnUse">
<stop stop-color="#D6ECF8"/>
<stop offset="1" stop-color="white"/>
</linearGradient>
<linearGradient id="paint67_linear_1_9748" x1="260.316" y1="736.983" x2="282.961" y2="735.844" gradientUnits="userSpaceOnUse">
<stop stop-color="#D6ECF8"/>
<stop offset="1" stop-color="white"/>
</linearGradient>
<linearGradient id="paint68_linear_1_9748" x1="258.099" y1="734.672" x2="280.741" y2="733.533" gradientUnits="userSpaceOnUse">
<stop stop-color="#D6ECF8"/>
<stop offset="1" stop-color="white"/>
</linearGradient>
<linearGradient id="paint69_linear_1_9748" x1="255.574" y1="730.642" x2="278.223" y2="729.503" gradientUnits="userSpaceOnUse">
<stop stop-color="#D6ECF8"/>
<stop offset="1" stop-color="white"/>
</linearGradient>
<linearGradient id="paint70_linear_1_9748" x1="241.46" y1="744.746" x2="301.235" y2="738.71" gradientUnits="userSpaceOnUse">
<stop stop-color="#D6ECF8"/>
<stop offset="1" stop-color="white"/>
</linearGradient>
<linearGradient id="paint71_linear_1_9748" x1="122.413" y1="680.587" x2="659.455" y2="816.933" gradientUnits="userSpaceOnUse">
<stop stop-color="#5CA28F"/>
<stop offset="1" stop-color="#BFFF9D"/>
</linearGradient>
<linearGradient id="paint72_linear_1_9748" x1="239.105" y1="758.504" x2="242.38" y2="758.348" gradientUnits="userSpaceOnUse">
<stop stop-color="#D6ECF8"/>
<stop offset="1" stop-color="white"/>
</linearGradient>
<linearGradient id="paint73_linear_1_9748" x1="139.104" y1="757.566" x2="675.465" y2="757.566" gradientUnits="userSpaceOnUse">
<stop stop-color="#D6ECF8"/>
<stop offset="1" stop-color="white"/>
</linearGradient>
<linearGradient id="paint74_linear_1_9748" x1="437.629" y1="725.046" x2="451.759" y2="725.046" gradientUnits="userSpaceOnUse">
<stop stop-color="#D6ECF8"/>
<stop offset="1" stop-color="white"/>
</linearGradient>
<linearGradient id="paint75_linear_1_9748" x1="471.791" y1="729.995" x2="482.63" y2="729.995" gradientUnits="userSpaceOnUse">
<stop stop-color="#D6ECF8"/>
<stop offset="1" stop-color="white"/>
</linearGradient>
<linearGradient id="paint76_linear_1_9748" x1="505.178" y1="731.454" x2="516.962" y2="731.454" gradientUnits="userSpaceOnUse">
<stop stop-color="#D6ECF8"/>
<stop offset="1" stop-color="white"/>
</linearGradient>
<linearGradient id="paint77_linear_1_9748" x1="535.029" y1="737.008" x2="548.777" y2="737.008" gradientUnits="userSpaceOnUse">
<stop stop-color="#D6ECF8"/>
<stop offset="1" stop-color="white"/>
</linearGradient>
<linearGradient id="paint78_linear_1_9748" x1="568.024" y1="741.563" x2="578.629" y2="741.563" gradientUnits="userSpaceOnUse">
<stop stop-color="#D6ECF8"/>
<stop offset="1" stop-color="white"/>
</linearGradient>
<linearGradient id="paint79_linear_1_9748" x1="601.981" y1="724.129" x2="616.787" y2="725.966" gradientUnits="userSpaceOnUse">
<stop stop-color="#D6ECF8"/>
<stop offset="1" stop-color="white"/>
</linearGradient>
<linearGradient id="paint80_linear_1_9748" x1="635.534" y1="730.249" x2="646.995" y2="731.671" gradientUnits="userSpaceOnUse">
<stop stop-color="#D6ECF8"/>
<stop offset="1" stop-color="white"/>
</linearGradient>
<linearGradient id="paint81_linear_1_9748" x1="668.739" y1="732.796" x2="681.112" y2="734.33" gradientUnits="userSpaceOnUse">
<stop stop-color="#D6ECF8"/>
<stop offset="1" stop-color="white"/>
</linearGradient>
<linearGradient id="paint82_linear_1_9748" x1="697.9" y1="739.325" x2="712.126" y2="741.09" gradientUnits="userSpaceOnUse">
<stop stop-color="#D6ECF8"/>
<stop offset="1" stop-color="white"/>
</linearGradient>
<linearGradient id="paint83_linear_1_9748" x1="396.885" y1="707.014" x2="467.262" y2="686.556" gradientUnits="userSpaceOnUse">
<stop stop-color="#D6ECF8"/>
<stop offset="1" stop-color="white"/>
</linearGradient>
<linearGradient id="paint84_linear_1_9748" x1="390.022" y1="699.312" x2="460.397" y2="678.854" gradientUnits="userSpaceOnUse">
<stop stop-color="#D6ECF8"/>
<stop offset="1" stop-color="white"/>
</linearGradient>
<linearGradient id="paint85_linear_1_9748" x1="383.909" y1="693.047" x2="454.286" y2="672.589" gradientUnits="userSpaceOnUse">
<stop stop-color="#D6ECF8"/>
<stop offset="1" stop-color="white"/>
</linearGradient>
<linearGradient id="paint86_linear_1_9748" x1="371.518" y1="686.857" x2="441.632" y2="666.475" gradientUnits="userSpaceOnUse">
<stop stop-color="#D6ECF8"/>
<stop offset="1" stop-color="white"/>
</linearGradient>
<linearGradient id="paint87_linear_1_9748" x1="179.606" y1="689.505" x2="206.015" y2="689.092" gradientUnits="userSpaceOnUse">
<stop stop-color="#D6ECF8"/>
<stop offset="1" stop-color="white"/>
</linearGradient>
<linearGradient id="paint88_linear_1_9748" x1="177.312" y1="684.29" x2="203.732" y2="683.878" gradientUnits="userSpaceOnUse">
<stop stop-color="#D6ECF8"/>
<stop offset="1" stop-color="white"/>
</linearGradient>
<linearGradient id="paint89_linear_1_9748" x1="175.098" y1="681.531" x2="201.507" y2="681.119" gradientUnits="userSpaceOnUse">
<stop stop-color="#D6ECF8"/>
<stop offset="1" stop-color="white"/>
</linearGradient>
<linearGradient id="paint90_linear_1_9748" x1="173.247" y1="680.772" x2="199.657" y2="680.36" gradientUnits="userSpaceOnUse">
<stop stop-color="#D6ECF8"/>
<stop offset="1" stop-color="white"/>
</linearGradient>
<linearGradient id="paint91_linear_1_9748" x1="403.159" y1="713.084" x2="473.672" y2="692.586" gradientUnits="userSpaceOnUse">
<stop stop-color="#D6ECF8"/>
<stop offset="1" stop-color="white"/>
</linearGradient>
<linearGradient id="paint92_linear_1_9748" x1="409.761" y1="716.739" x2="480.898" y2="696.06" gradientUnits="userSpaceOnUse">
<stop stop-color="#D6ECF8"/>
<stop offset="1" stop-color="white"/>
</linearGradient>
<linearGradient id="paint93_linear_1_9748" x1="403.28" y1="728.515" x2="416.06" y2="726.874" gradientUnits="userSpaceOnUse">
<stop stop-color="#D6ECF8"/>
<stop offset="1" stop-color="white"/>
</linearGradient>
<linearGradient id="paint94_linear_1_9748" x1="126.317" y1="726.042" x2="755.185" y2="726.042" gradientUnits="userSpaceOnUse">
<stop stop-color="#D6ECF8"/>
<stop offset="1" stop-color="white"/>
</linearGradient>
<linearGradient id="paint95_linear_1_9748" x1="528.091" y1="676.737" x2="537.637" y2="646.791" gradientUnits="userSpaceOnUse">
<stop stop-color="#5CA28F"/>
<stop offset="1" stop-color="#BFFF9D"/>
</linearGradient>
<linearGradient id="paint96_linear_1_9748" x1="529.376" y1="736.386" x2="698.511" y2="753.107" gradientUnits="userSpaceOnUse">
<stop stop-color="#D6ECF8"/>
<stop offset="1" stop-color="white"/>
</linearGradient>
<linearGradient id="paint97_linear_1_9748" x1="514.955" y1="735.607" x2="705.15" y2="754.411" gradientUnits="userSpaceOnUse">
<stop stop-color="#D6ECF8"/>
<stop offset="1" stop-color="white"/>
</linearGradient>
<linearGradient id="paint98_linear_1_9748" x1="515.154" y1="732.693" x2="705.347" y2="751.496" gradientUnits="userSpaceOnUse">
<stop stop-color="#D6ECF8"/>
<stop offset="1" stop-color="white"/>
</linearGradient>
<linearGradient id="paint99_linear_1_9748" x1="706.73" y1="750.134" x2="719.623" y2="827.294" gradientUnits="userSpaceOnUse">
<stop stop-color="#D6ECF8"/>
<stop offset="1" stop-color="white"/>
</linearGradient>
<linearGradient id="paint100_linear_1_9748" x1="810.594" y1="732.779" x2="823.487" y2="809.938" gradientUnits="userSpaceOnUse">
<stop stop-color="#D6ECF8"/>
<stop offset="1" stop-color="white"/>
</linearGradient>
<linearGradient id="paint101_linear_1_9748" x1="528.345" y1="721.351" x2="543.973" y2="609.653" gradientUnits="userSpaceOnUse">
<stop stop-color="#D6ECF8"/>
<stop offset="1" stop-color="white"/>
</linearGradient>
</defs>
</svg>
