<svg width="28" height="21" viewBox="0 0 28 21" fill="none" xmlns="http://www.w3.org/2000/svg">
<path d="M27.4235 19.8069H0.910156V20.9596H27.4235V19.8069Z" fill="#263954"/>
<path d="M27.0222 1.64723C25.0966 0.524972 22.9087 1.12112 21.4126 1.81876L16.9527 3.89844L9.2823 0.0405273L4.71435 0.236784L11.0483 6.65807L7.01167 8.57562L2.81191 6.97727L0 8.28841L2.54118 11.444C2.27271 11.7643 2.02942 12.2153 2.25029 12.6889C2.53876 13.3075 3.3914 13.6193 4.78997 13.6192C5.07678 13.6192 5.38658 13.6061 5.71909 13.5798C7.25433 13.4586 8.91879 13.0667 9.95955 12.5814L25.9019 5.14733C27.2788 4.50519 27.9647 3.83095 27.9987 3.08593C28.0164 2.69952 27.8613 2.13612 27.0222 1.64723ZM25.4146 4.10254L9.47234 11.5366C8.58564 11.9501 7.12989 12.2966 5.76364 12.4192C4.3672 12.5446 3.62056 12.3872 3.37168 12.2535C3.42292 12.1834 3.5186 12.0732 3.69515 11.9178L4.10921 11.5533L1.82054 8.71136L2.85721 8.22789L7.06147 9.82808L13.0079 7.00332L7.3594 1.27691L9.0321 1.20504L16.9336 5.17909L21.8996 2.86344C23.7133 2.01773 25.2414 1.94372 26.4417 2.6431L26.4417 2.64315C26.7441 2.81935 26.8498 2.97307 26.8471 3.03336C26.847 3.03751 26.8123 3.45089 25.4146 4.10254Z" fill="#263954"/>
</svg>
