<svg width="153" height="50" viewBox="0 0 153 50" fill="none" xmlns="http://www.w3.org/2000/svg">
<path fill-rule="evenodd" clip-rule="evenodd" d="M141.233 8.50357V3.09245H143.214V2.51758H138.508V3.09245H140.407V8.50357H141.233V8.50357ZM150.48 2.51758H149.737C148.911 4.07536 148.004 5.71538 147.177 7.43763C146.435 5.71538 145.609 4.07536 144.865 2.51758H143.958V8.50357H144.619V3.66575H144.701C144.866 4.40352 146.187 6.94579 146.931 8.50357H147.261C148.086 6.94579 149.408 4.32207 149.655 3.66575V8.50357H150.481V2.51758H150.48ZM85.0896 29.7431C85.0896 29.7431 96.7304 28.7594 96.7304 19.6571C96.7304 9.73475 82.7784 9.32514 81.8691 9.32514H59.2461V44.1767H71.0532V30.4002L89.2177 44.1767H103.997L85.0896 29.7431V29.7431ZM80.9607 24.1668H71.0532V16.4577H80.9607C80.9607 16.4577 84.9232 16.7859 84.9232 20.2304C84.9232 23.6741 80.9607 24.1668 80.9607 24.1668V24.1668Z" fill="#B8CEF0"/>
<path fill-rule="evenodd" clip-rule="evenodd" d="M134.378 10.1444V18.0171C134.378 18.0171 130.828 16.7867 125.792 16.7867C117.618 16.7867 111.344 19.3289 111.344 26.9565C111.344 36.3048 120.011 37.4514 123.645 37.4514C130.002 37.4514 134.378 36.4677 134.378 36.4677V44.1759C134.378 44.1759 130.663 45.4886 123.645 45.4886C116.71 45.4886 99.124 42.8633 99.124 26.7082C99.124 19.9853 104.821 8.83252 125.05 8.83252C130.993 8.83252 134.378 10.1444 134.378 10.1444ZM42.402 9.40582L9.54102 44.1751H20.3577L42.8152 20.3949V44.1751H53.7959V9.48806L42.402 9.40582Z" fill="#B8CEF0"/>
<path fill-rule="evenodd" clip-rule="evenodd" d="M68.5751 34.3349C43.4752 39.5831 7.88979 34.6623 9.54183 27.0371C10.6151 21.7889 24.7335 19.3288 32.9077 19.4925C32.5773 19.8207 30.5128 22.0348 30.5128 22.0348C30.5128 22.0348 20.0273 22.6911 20.0273 25.6438C20.0273 30.6453 54.8684 35.3186 68.5751 34.3349Z" fill="#B8CEF0"/>
</svg>
