<svg width="112" height="27" viewBox="0 0 112 27" fill="none" xmlns="http://www.w3.org/2000/svg">
<g clip-path="url(#clip0_1238_650)">
<path d="M70.1841 0.221332C72.4998 0.17707 74.771 0.221332 77.0867 0.221332C77.3985 0.221332 77.6211 0.486901 77.5766 0.796737C76.4187 6.72788 75.3054 12.7033 74.0585 18.6345C74.014 18.9443 74.2366 19.2541 74.5484 19.2541H80.6493C80.9611 19.2541 81.1837 19.564 81.1392 19.8738L79.9368 25.982C79.8923 26.2033 79.6696 26.3804 79.447 26.3804H65.3746C65.0629 26.3804 64.8402 26.1148 64.8847 25.8049C65.1965 24.3 65.3301 22.7066 66.1762 21.3787C67.5122 18.9885 68.0466 16.1558 67.3786 13.4558V13.2787C67.7348 10.7115 68.4028 8.18855 68.8036 5.62134C68.9372 4.51478 69.5161 3.58527 70.0951 2.65576C70.2287 2.47871 70.1841 2.21314 70.0505 2.08035C69.7388 1.68199 69.6497 1.19511 69.6943 0.70822C69.6943 0.442646 69.9169 0.265595 70.1841 0.221332ZM51.4804 2.03609C51.7476 2.16888 51.8366 2.47871 51.703 2.74429C50.6788 4.51478 49.6545 6.28527 48.6303 8.0115C48.4967 8.27707 48.1404 8.32133 47.9177 8.18855C46.3591 7.12625 44.5332 6.15248 42.6183 6.68363C41.5941 6.9492 40.9261 8.45412 41.9949 9.07379C43.9098 10.0033 46.27 10.1361 47.8732 11.6853C49.8326 13.2344 50.0108 16.023 49.2537 18.2361C48.3185 21.9099 45.3348 24.8754 41.7277 25.9377C37.6752 27.2656 32.8211 26.5131 29.6593 23.5476C29.4812 23.4148 29.4812 23.1492 29.5702 22.9721C30.5499 21.1131 31.4851 19.2541 32.4203 17.3951C32.5985 17.0853 32.9992 17.041 33.2664 17.3066C34.8251 19.1213 37.0517 20.6705 39.5456 20.2279C40.6144 20.0508 42.2621 18.5902 41.1488 17.6164C39.1002 16.4656 36.4728 16.3771 34.6915 14.7836C32.9102 13.1902 32.5985 10.4902 33.2664 8.32133C34.2462 5.13444 36.7845 2.43444 39.9464 1.23936C43.6426 -0.309821 47.9177 0.221335 51.4804 2.03609Z" fill="#B8CEF0"/>
<path d="M68.0468 2.08039C68.2695 2.21317 68.3586 2.52301 68.225 2.74432L65.1522 8.0558C65.0186 8.32137 64.7069 8.36563 64.4842 8.23284C63.1482 7.3476 61.7232 6.50661 60.0755 6.55087C59.1403 6.46234 58.2941 7.08202 57.9824 7.923C57.9824 8.01153 57.9824 8.10005 57.9379 8.18858C58.1605 9.3394 59.5856 9.51645 60.5208 9.82629C62.9256 10.4017 65.4639 11.7296 66.0874 14.2525C66.6663 17.882 64.9741 21.6443 62.1685 23.9017C58.2051 27.0886 52.3267 27.3541 47.918 24.9197C47.6508 24.7427 47.5617 24.3886 47.7844 24.1673C49.1649 22.7509 50.2337 21.1132 50.9017 19.2542C50.9908 18.9443 51.347 18.8558 51.6142 19.0328C53.1283 20.0066 55.0432 20.7591 56.78 19.8738C57.4035 19.6082 57.7152 18.9886 57.9824 18.4132C58.0715 18.1919 58.0269 17.9705 57.8488 17.8378C56.1566 16.5099 53.7518 16.5099 51.926 15.3591C51.7924 15.2706 51.7478 15.1378 51.7033 15.005C51.4806 13.323 50.7681 11.7738 49.5657 10.5787C49.3876 10.4017 49.3876 10.1804 49.4766 9.95907C51.0353 7.56891 52.2822 4.95743 53.9299 2.61153L54.0635 2.47874C58.116 -0.398304 63.7717 -0.221252 68.0468 2.08039ZM82.0747 26.3361V24.6984H83.7224V26.3361H82.0747ZM90.714 21.9984L89.1108 22.3082C89.0663 21.9984 88.9327 21.7328 88.7546 21.6C88.5764 21.423 88.3092 21.3787 87.9975 21.3787C87.5967 21.3787 87.285 21.5115 87.0178 21.7771C86.7951 22.0427 86.6615 22.4853 86.6615 23.1492C86.6615 23.8574 86.7951 24.3886 87.0178 24.6984C87.285 25.0082 87.5967 25.141 87.9975 25.141C88.3092 25.141 88.5764 25.0525 88.7546 24.8755C88.9327 24.6984 89.1108 24.3886 89.1554 23.9902L90.7586 24.2558C90.5804 25.0082 90.2687 25.5394 89.8234 25.8935C89.3335 26.2476 88.71 26.4689 87.9085 26.4689C87.0178 26.4689 86.3053 26.2033 85.7709 25.6279C85.2365 25.0525 84.9693 24.3001 84.9693 23.282C84.9693 22.264 85.2365 21.4673 85.7709 20.9361C86.3053 20.405 87.0178 20.0951 87.953 20.0951C88.71 20.0951 89.289 20.2722 89.7343 20.582C90.2242 20.8476 90.5359 21.3345 90.714 21.9984ZM91.5601 23.1935C91.5601 22.6623 91.6937 22.1312 91.9609 21.6443C92.2281 21.1574 92.5844 20.7591 93.0743 20.4935C93.5641 20.2279 94.0985 20.0951 94.722 20.0951C95.6572 20.0951 96.4142 20.405 96.9931 20.9804C97.5721 21.6001 97.8838 22.3525 97.8838 23.282C97.8838 24.2115 97.5721 24.964 96.9931 25.5837C96.3697 26.2033 95.6572 26.5132 94.722 26.5132C94.143 26.5132 93.6087 26.3804 93.1188 26.1148C92.5844 25.8492 92.2281 25.4951 91.9609 25.0083C91.6937 24.4771 91.5601 23.8574 91.5601 23.1935ZM93.2524 23.2378C93.2524 23.8574 93.386 24.3001 93.6977 24.6542C94.0094 24.964 94.3657 25.141 94.7665 25.141C95.1673 25.141 95.5681 24.964 95.8353 24.6542C96.1025 24.3443 96.2806 23.8574 96.2806 23.2378C96.2806 22.6181 96.147 22.1755 95.8353 21.8656C95.5681 21.5558 95.2118 21.3787 94.7665 21.3787C94.3212 21.3787 93.9649 21.5558 93.6977 21.8656C93.386 22.1755 93.2524 22.6623 93.2524 23.2378ZM99.0862 20.1837H100.6V21.0246C101.135 20.3607 101.758 20.0509 102.515 20.0509C102.916 20.0509 103.272 20.1394 103.539 20.2722C103.851 20.4492 104.074 20.6705 104.252 21.0246C104.519 20.7148 104.831 20.4492 105.143 20.2722C105.454 20.0951 105.811 20.0509 106.167 20.0509C106.612 20.0509 107.013 20.1394 107.325 20.3164C107.636 20.4935 107.859 20.7591 108.037 21.1132C108.171 21.3787 108.215 21.7771 108.215 22.3968V26.3361H106.568V22.8394C106.568 22.2197 106.523 21.8214 106.39 21.6443C106.256 21.423 105.989 21.2902 105.677 21.2902C105.454 21.2902 105.232 21.3787 105.054 21.5115C104.831 21.6443 104.697 21.8656 104.608 22.1312C104.519 22.3968 104.475 22.8394 104.475 23.4148V26.3361H102.827V22.9722C102.827 22.3968 102.782 21.9984 102.738 21.8214C102.693 21.6443 102.604 21.5115 102.471 21.423C102.337 21.3345 102.203 21.2902 101.981 21.2902C101.714 21.2902 101.491 21.3787 101.313 21.5115C101.09 21.6443 100.957 21.8214 100.867 22.0869C100.778 22.3525 100.734 22.7509 100.734 23.3705V26.3361H99.0862V20.1837Z" fill="#B8CEF0"/>
<path d="M-0.756646 4.82467H3.07317C3.29583 4.82467 3.5185 4.64762 3.56303 4.42631L4.36463 0.575482C4.40916 0.354171 4.27556 0.177124 4.0529 0.177124H0.223074C0.000410292 0.177124 -0.222256 0.354171 -0.266789 0.575482L-1.06837 4.42631C-1.15744 4.64762 -0.97931 4.82467 -0.756646 4.82467ZM3.56303 11.4197H7.39286C7.61552 11.4197 7.83818 11.2427 7.88272 11.0214L8.68431 7.17057C8.72884 6.94926 8.59524 6.7722 8.37258 6.7722H4.54275C4.32009 6.7722 4.09743 6.94926 4.0529 7.17057L3.25131 11.0214C3.16224 11.2427 3.29584 11.4197 3.56303 11.4197Z" fill="#B8CEF0"/>
<path d="M29.6148 4.78035H27.2546C27.0319 4.78035 26.8983 4.60331 26.9429 4.382L27.7445 0.531184C27.789 0.309872 27.6554 0.132812 27.4327 0.132812H6.85858C6.63591 0.132812 6.41325 0.309872 6.36872 0.531184L5.56713 4.382C5.52259 4.60331 5.65619 4.78035 5.87885 4.78035H10.822C11.0447 4.78035 11.1783 4.95741 11.1337 5.17872L6.63591 26.3804C6.59138 26.6017 6.72498 26.7787 6.94765 26.7787H24.9389C25.1616 26.7787 25.3842 26.6017 25.4288 26.3804L29.9266 5.17872C29.9711 4.95741 29.8375 4.78035 29.6148 4.78035ZM20.7973 13.0131C20.7083 13.7213 20.263 14.3853 19.6395 14.7836L19.4614 19.564C19.4614 19.8295 19.1942 20.1394 18.927 20.1394H15.587C15.3198 20.1394 15.2307 19.8738 15.3198 19.564L17.3683 14.8722C16.8785 14.4738 16.6558 13.8099 16.923 13.0131C17.2347 12.0836 18.0808 11.3754 18.9715 11.2427C19.1051 11.2427 19.2387 11.1984 19.3723 11.2427C19.5059 11.2427 19.6395 11.2869 19.7286 11.2869C20.4856 11.464 20.9309 12.1722 20.7973 13.0131Z" fill="#B8CEF0"/>
</g>
<defs>
<clipPath id="clip0_1238_650">
<rect width="112" height="27" fill="white"/>
</clipPath>
</defs>
</svg>
