<svg width="249" height="38" viewBox="0 0 249 38" fill="none" xmlns="http://www.w3.org/2000/svg">
<g clip-path="url(#clip0_1238_772)">
<path fill-rule="evenodd" clip-rule="evenodd" d="M42.5172 1.29518H0.261719V37.1555C0.261719 37.1555 4.0278 33.6551 9.20288 33.314C16.6046 32.822 19.664 36.458 26.687 37.6637C35.274 39.1347 40.8837 33.8248 42.1961 32.289C42.5172 31.8934 42.4647 31.7911 42.502 31.6998L42.5172 31.5847C42.5189 31.5847 42.5172 1.29518 42.5172 1.29518Z" fill="#6ECFF1"/>
<path fill-rule="evenodd" clip-rule="evenodd" d="M4.26468 30.6391C5.68299 29.8895 6.94118 29.5084 9.9227 29.3353C17.1295 28.9132 19.8187 31.6052 26.635 32.6694C31.9947 33.5051 35.0161 32.301 37.2969 30.8318C38.5068 30.0524 38.1857 30.2579 38.8194 29.7249C39.382 29.2534 39.5176 28.9234 39.4362 28.5951C39.4117 28.497 39.3058 28.497 39.1024 28.6335C38.9414 28.7384 38.6322 28.9456 38.6322 28.9456C33.269 32.7112 26.2359 30.4975 20.0949 28.5584C14.381 26.7549 7.36312 27.5445 4.18758 29.8213C4.18758 29.8213 3.8097 30.066 3.54196 30.477C3.45469 30.6126 3.2505 31.1652 3.50214 31.0484C3.7936 30.9136 4.02829 30.7474 4.26468 30.6391Z" fill="white"/>
<path fill-rule="evenodd" clip-rule="evenodd" d="M12.6128 21.2699L6.53619 13.2407V21.2699H3.81055V8.63858H6.35742L12.2374 16.4145V8.63858H14.9631V21.2699H12.6128Z" fill="white"/>
<path fill-rule="evenodd" clip-rule="evenodd" d="M23.1615 21.4851C19.4683 21.4851 16.7266 18.6174 16.7266 14.99V14.9533C16.7266 11.3625 19.4149 8.42145 23.2674 8.42145C25.6338 8.42145 27.0505 9.21618 28.2171 10.3699L26.4599 12.4105C25.4915 11.5245 24.5053 10.9847 23.2496 10.9847C21.1366 10.9847 19.6123 12.7516 19.6123 14.9166V14.9533C19.6123 17.1184 21.1001 18.9227 23.2496 18.9227C24.6841 18.9227 25.5627 18.3463 26.5489 17.4432L28.307 19.2305C27.0157 20.6196 25.5813 21.4851 23.1615 21.4851Z" fill="white"/>
<path fill-rule="evenodd" clip-rule="evenodd" d="M30.1328 21.2699V8.63858H32.8949V18.7433H39.1511V21.2699H30.1328Z" fill="white"/>
<path fill-rule="evenodd" clip-rule="evenodd" d="M63.1462 20.3216L53.972 8.20015V20.3216H49.8594V1.25558H53.7L62.5785 12.995V1.25558H66.6919V20.3216H63.1462Z" fill="white"/>
<path fill-rule="evenodd" clip-rule="evenodd" d="M88.8851 10.787C88.8851 7.51764 86.5035 4.79405 83.1475 4.79405C79.7915 4.79405 77.4649 7.46563 77.4649 10.7333V10.787C77.4649 14.0563 79.8449 16.7791 83.2026 16.7791C86.5569 16.7791 88.8851 14.1092 88.8851 10.8416V10.787ZM83.1475 20.6478C77.3014 20.6478 73.1074 16.2614 73.1074 10.8416V10.787C73.1074 5.36537 77.3556 0.926956 83.2026 0.926956C89.047 0.926956 93.2418 5.31421 93.2418 10.7333V10.787C93.2418 16.206 88.9936 20.6478 83.1475 20.6478Z" fill="white"/>
<path fill-rule="evenodd" clip-rule="evenodd" d="M110.719 7.76441C110.719 5.96687 109.474 5.04082 107.446 5.04082H103.304V10.517H107.525C109.556 10.517 110.719 9.42807 110.719 7.82069V7.76441ZM110.637 20.3216L106.578 14.2212H103.304V20.3216H99.1367V1.25558H107.797C112.263 1.25558 114.942 3.6253 114.942 7.54952V7.60239C114.942 10.6807 113.292 12.6138 110.881 13.5135L115.509 20.3216H110.637Z" fill="white"/>
<path fill-rule="evenodd" clip-rule="evenodd" d="M141.821 20.4555H138.195L133.919 7.98017L129.641 20.4555H126.016L119.549 1.25134H124.013L127.937 14.1624L132.185 1.19762H135.758L140.007 14.1624L143.931 1.25134H148.288L141.821 20.4555Z" fill="white"/>
<path fill-rule="evenodd" clip-rule="evenodd" d="M153.281 20.3216V1.25558H167.573V4.98624H157.422V8.85333H166.353V12.5857H157.422V16.5909H167.707V20.3216H153.281Z" fill="white"/>
<path fill-rule="evenodd" clip-rule="evenodd" d="M182.44 20.6478C176.543 20.6478 172.482 16.4806 172.482 10.8416V10.787C172.482 5.36537 176.677 0.926956 182.416 0.926956C185.825 0.926956 187.881 1.85301 189.857 3.54225L187.232 6.72973C185.77 5.50351 184.471 4.79405 182.278 4.79405C179.247 4.79405 176.839 7.49035 176.839 10.7333V10.787C176.839 14.2738 179.222 16.8319 182.578 16.8319C184.092 16.8319 185.446 16.4525 186.501 15.6901V12.9648H182.306V9.34417H190.534V17.6232C188.585 19.2835 185.906 20.6478 182.44 20.6478Z" fill="white"/>
<path fill-rule="evenodd" clip-rule="evenodd" d="M197.037 20.3216H201.204V1.25558H197.037V20.3216Z" fill="white"/>
<path fill-rule="evenodd" clip-rule="evenodd" d="M216.317 6.15529L213.8 12.3375H218.834L216.317 6.15529ZM222.054 20.3181L219.921 16.0435H212.312L210.579 20.3181H206.33L214.449 1.11742H218.291L226.411 20.3181H222.054Z" fill="white"/>
<path fill-rule="evenodd" clip-rule="evenodd" d="M244.649 20.3216L235.475 8.20015V20.3216H231.361V1.25558H235.204L244.08 12.995V1.25558H248.194V20.3216H244.649Z" fill="white"/>
<path fill-rule="evenodd" clip-rule="evenodd" d="M54.5806 36.8288C51.7923 36.8288 49.7207 34.6637 49.7207 31.9273V31.8983C49.7207 29.1875 51.7524 26.9653 54.6619 26.9653C56.4488 26.9653 57.5181 27.5665 58.3984 28.438L57.0716 29.9771C56.3412 29.3103 55.5973 28.901 54.6484 28.901C53.0521 28.901 51.9016 30.2364 51.9016 31.8719V31.8983C51.9016 33.5321 53.025 34.8965 54.6484 34.8965C55.7329 34.8965 56.3946 34.4599 57.1393 33.7794L58.4661 35.1267C57.4918 36.1773 56.4098 36.8288 54.5806 36.8288Z" fill="white"/>
<path fill-rule="evenodd" clip-rule="evenodd" d="M67.2741 30.3848C67.2741 29.4834 66.653 29.0221 65.6371 29.0221H63.5656V31.7619H65.677C66.6928 31.7619 67.2741 31.2162 67.2741 30.4112V30.3848ZM67.2342 36.665L65.2033 33.614H63.5656V36.665H61.4805V27.1308H65.8125C68.0468 27.1308 69.3871 28.3126 69.3871 30.2748V30.3012C69.3871 31.8421 68.561 32.8099 67.3545 33.2593L69.6718 36.665H67.2342Z" fill="white"/>
<path fill-rule="evenodd" clip-rule="evenodd" d="M76.5743 36.8151C74.0274 36.8151 72.4727 35.3843 72.4727 32.578V27.1308H74.5561V32.5234C74.5561 34.077 75.3288 34.8803 76.6014 34.8803C77.874 34.8803 78.645 34.1035 78.645 32.5916V27.1308H80.7301V32.5097C80.7301 35.3962 79.1177 36.8151 76.5743 36.8151Z" fill="white"/>
<path fill-rule="evenodd" clip-rule="evenodd" d="M84.2988 36.6659H86.3839V27.1308H84.2988V36.6659Z" fill="white"/>
<path fill-rule="evenodd" clip-rule="evenodd" d="M93.4781 36.799C92.0429 36.799 90.5949 36.2967 89.457 35.2735L90.6898 33.788C91.5413 34.4975 92.4352 34.9477 93.5171 34.9477C94.3711 34.9477 94.8863 34.6075 94.8863 34.0498V34.0217C94.8863 33.4904 94.5618 33.2167 92.9783 32.8091C91.0685 32.3179 89.8358 31.7867 89.8358 29.8945V29.8647C89.8358 28.1353 91.2176 26.9901 93.1536 26.9901C94.5338 26.9901 95.7115 27.4259 96.6732 28.2036L95.5895 29.7845C94.7499 29.1978 93.9246 28.8431 93.1274 28.8431C92.3259 28.8431 91.9073 29.2115 91.9073 29.6745V29.7026C91.9073 30.3294 92.314 30.5341 93.9509 30.9553C95.8742 31.4601 96.9578 32.1542 96.9578 33.8179V33.8435C96.9578 35.7382 95.5217 36.799 93.4781 36.799Z" fill="white"/>
<path fill-rule="evenodd" clip-rule="evenodd" d="M100.119 36.665V27.1308H107.267V28.994H102.19V30.9296H106.657V32.7962H102.19V34.8001H107.334V36.665H100.119Z" fill="white"/>
<path fill-rule="evenodd" clip-rule="evenodd" d="M115.951 36.665V27.1308H118.036V34.7567H122.761V36.665H115.951Z" fill="white"/>
<path fill-rule="evenodd" clip-rule="evenodd" d="M125.775 36.6654H127.86V27.1302H125.775V36.6654Z" fill="white"/>
<path fill-rule="evenodd" clip-rule="evenodd" d="M138.228 36.665L133.639 30.6031V36.665H131.582V27.1308H133.505L137.945 33.0009V27.1308H140.002V36.665H138.228Z" fill="white"/>
<path fill-rule="evenodd" clip-rule="evenodd" d="M143.627 36.665V27.1308H150.775V28.994H145.699V30.9296H150.167V32.7962H145.699V34.8001H150.843V36.665H143.627Z" fill="white"/>
<path fill-rule="evenodd" clip-rule="evenodd" d="M156.004 28.8911C155.867 28.8127 155.648 28.7734 155.346 28.7734H154.883V29.9016H155.375C155.603 29.9016 155.777 29.876 155.895 29.8317C156.104 29.7472 156.213 29.5827 156.213 29.3439C156.213 29.1205 156.141 28.967 156.004 28.8911ZM155.419 28.4008C155.801 28.4008 156.082 28.4383 156.261 28.5125C156.581 28.6481 156.738 28.9099 156.738 29.2996C156.738 29.5784 156.638 29.7813 156.44 29.9118C156.331 29.9817 156.184 30.0338 155.991 30.0636C156.237 30.1003 156.41 30.206 156.522 30.3706C156.636 30.5343 156.688 30.6938 156.688 30.8498V31.0775C156.688 31.1483 156.692 31.2259 156.696 31.3086C156.703 31.3913 156.71 31.445 156.725 31.4697L156.745 31.5098H156.237C156.232 31.4996 156.228 31.4876 156.226 31.4783C156.223 31.4689 156.221 31.4561 156.221 31.4424L156.209 31.3427V31.0962C156.209 30.7381 156.11 30.5027 155.916 30.3851C155.801 30.3203 155.597 30.2853 155.311 30.2853H154.883V31.5098H154.336V28.4008H155.419ZM153.763 28.2439C153.294 28.7163 153.059 29.2919 153.059 29.9672C153.059 30.6434 153.292 31.2233 153.76 31.7008C154.229 32.1792 154.8 32.4197 155.472 32.4197C156.141 32.4197 156.733 32.1152 157.185 31.7008C157.68 31.2472 157.89 30.6434 157.89 29.9672C157.89 29.2919 157.655 28.7163 157.185 28.2439C156.71 27.7638 156.141 27.525 155.472 27.525C154.805 27.525 154.235 27.7638 153.763 28.2439ZM157.465 31.972C156.915 32.5254 156.251 32.8034 155.472 32.8034C154.695 32.8034 154.03 32.5254 153.485 31.972C152.939 31.4194 152.668 30.7483 152.668 29.9613C152.668 29.1853 152.943 28.5185 153.492 27.9651C154.036 27.4133 154.698 27.1388 155.472 27.1388C156.251 27.1388 156.915 27.4133 157.465 27.9651C158.012 28.5159 158.289 29.1802 158.289 29.9613C158.289 30.7483 158.012 31.4152 157.465 31.972Z" fill="white"/>
</g>
<defs>
<clipPath id="clip0_1238_772">
<rect width="248.248" height="37.5197" fill="white" transform="translate(0.261719 0.399124)"/>
</clipPath>
</defs>
</svg>
