<svg width="88" height="44" viewBox="0 0 88 44" fill="none" xmlns="http://www.w3.org/2000/svg">
<g clip-path="url(#clip0_1220_25692)">
<path fill-rule="evenodd" clip-rule="evenodd" d="M53.2576 29.9561C54.0019 30.1893 54.7697 30.3372 55.5466 30.3969C55.5466 30.3969 54.4844 27.6385 54.7993 25.7635C55.1141 23.8885 58.5684 16.9027 58.3494 15.4613C58.1305 14.0199 53.9869 4.9103 53.71 0.695756C53.6684 0.0408924 51.6183 1.61037 51.3993 3.10851C51.2618 4.05422 53.4458 8.4901 53.4458 8.4901C53.4458 8.4901 50.5923 4.15483 50.1635 4.12739C49.7347 4.09995 48.7159 5.95662 48.6363 7.1822C48.5784 8.01999 48.7648 9.28764 48.8824 9.99739C48.7196 9.18155 48.4083 7.73097 48.2636 7.80231C48.0627 7.89011 47.4837 9.37362 47.2829 10.2169C47.082 11.0602 47.9759 12.3059 47.9759 12.3059C47.9759 12.3059 43.2713 15.6643 41.0167 18.9021C39.039 21.7447 47.3335 28.1909 53.2576 29.9561Z" fill="url(#paint0_linear_1220_25692)"/>
<g style="mix-blend-mode:multiply" opacity="0.8">
<path fill-rule="evenodd" clip-rule="evenodd" d="M53.2576 29.9561L53.9923 29.7293C53.9923 29.7293 53.0876 27.1135 53.1708 25.3245C53.254 23.5355 55.7601 14.6729 56.7897 14.5448C57.8193 14.4168 58.344 15.4595 58.344 15.4595C58.2752 15.0168 57.8428 13.8607 57.2674 12.3498H57.2583C55.9555 8.89985 53.9 3.62069 53.71 0.695756C53.6684 0.0408924 51.6183 1.61037 51.3993 3.10851C51.2618 4.05422 53.4458 8.4901 53.4458 8.4901C53.4458 8.4901 50.5923 4.15483 50.1635 4.12739C49.7347 4.09995 48.7159 5.95662 48.6363 7.1822C48.5784 8.01999 48.7648 9.28764 48.8824 9.99739C48.7196 9.18155 48.4083 7.73097 48.2636 7.80231C48.0627 7.89011 47.4837 9.37362 47.2829 10.2169C47.082 11.0602 47.9759 12.3059 47.9759 12.3059C46.5329 13.3585 45.1557 14.5003 43.8522 15.7247C43.816 15.7576 43.7798 15.7887 43.7472 15.8216C43.7277 15.8417 43.7065 15.8601 43.6839 15.8765C42.7008 16.7948 41.8076 17.8067 41.0167 18.8984C39.039 21.7447 47.3335 28.1909 53.2576 29.9561Z" fill="#D7D2E2"/>
</g>
<path d="M8.99294 39.007C8.99294 39.007 7.31197 39.9454 6.66057 40.0185C5.84089 40.1136 4.95607 39.146 4.74075 39.2045C4.52542 39.2631 4.54714 40.688 5.25825 41.1508C5.96936 41.6136 9.69139 39.4185 9.69139 39.4185L8.99294 39.007Z" fill="#A1133F"/>
<path d="M37.3726 38.3558C37.3726 38.3558 25.2764 38.7399 24.3265 39.2192C23.3765 39.6984 22.5984 40.2509 21.7806 40.3167C20.5918 40.4027 19.9711 39.5741 19.4482 39.618C18.9253 39.6619 10.5982 40.185 9.85814 40.3167C9.11808 40.4484 5.36891 42.0838 5.13007 42.1716C4.89122 42.2594 3.35319 41.9008 3.15234 39.7478C3.15234 39.7478 4.87855 40.8454 5.36891 40.8838C5.85927 40.9222 9.28817 39.5045 9.28817 39.3655C9.28817 39.2265 8.79781 38.782 8.45402 38.7253C8.11022 38.6686 7.53301 39.1607 7.2435 39.2485C6.95399 39.3363 6.06374 38.9558 6.06374 38.9558C6.06374 38.9558 6.8418 37.3845 7.90575 37.5015C8.96971 37.6186 10.6416 38.9265 10.6416 38.9265L19.5984 38.5844C19.5984 38.5844 20.722 37.69 21.7806 37.7119C22.698 37.7302 24.0894 38.3229 24.0894 38.3229L34.7018 37.0881C34.7018 37.0881 36.723 38.1674 37.3726 38.3558Z" fill="#A1133F"/>
<path fill-rule="evenodd" clip-rule="evenodd" d="M28.8972 34.2949L18.5001 34.9991L17.4651 34.8839L17.9971 34.6077H16.1406C16.1406 34.6077 22.4628 30.3876 28.8972 34.2949Z" fill="#9489A6" fill-opacity="0.73"/>
<path fill-rule="evenodd" clip-rule="evenodd" d="M16.1367 33.8943V34.6095C16.1367 34.6095 20.6115 32.6138 24.3263 32.8772C27.1146 33.0748 29.9265 34.7924 31.8083 35.9723C32.4326 36.3619 32.9573 36.6948 33.3445 36.8869C33.8065 37.103 34.2852 37.2804 34.7758 37.4174C34.7758 37.4174 34.7885 37.4174 34.7939 37.4174L34.8428 37.432C36.2288 37.8472 38.0563 38.257 39.6649 38.8186C39.6775 38.8207 39.6903 38.8207 39.7029 38.8186H39.7156H39.7246C40.1987 38.9868 40.6547 39.1606 41.0727 39.3545C42.9907 40.238 46.036 40.4868 48.6977 40.2691C48.6996 40.268 48.7018 40.2674 48.704 40.2674C48.7062 40.2674 48.7084 40.268 48.7103 40.2691C49.4206 40.2149 50.127 40.1172 50.8256 39.9765C53.8075 39.3673 56.7823 36.6564 58.2081 36.5704C59.3155 36.5009 60.1098 36.907 61.8596 37.0534C61.9917 37.068 62.1274 37.0771 62.2613 37.0808C62.6702 37.1046 63.1298 37.1101 63.6491 37.0954C66.7577 37.0094 68.0117 36.832 69.519 37.1375C70.4526 37.3204 72.4014 37.8326 73.7585 38.1893C73.82 38.2076 73.8815 38.2222 73.9394 38.2369L73.9901 38.2515L75.2079 38.5753H75.2205L75.6457 37.9021L76.0076 37.3332L76.2175 37.0058L78.7598 35.9083C78.7598 35.9083 77.6976 34.1065 77.1186 33.4351C77.1005 33.4132 77.0806 33.3931 77.0607 33.3711C76.422 32.6723 74.4967 31.2254 71.6215 31.3096C70.8028 31.3435 69.9922 31.488 69.2113 31.7394C67.42 32.2974 65.9761 33.2138 64.7728 33.3199C63.0737 33.4662 58.4958 32.4766 56.424 30.8449C56.0874 30.5815 55.5301 30.3346 54.7828 30.1133C54.7809 30.1142 54.7787 30.1147 54.7765 30.1147C54.7743 30.1147 54.7721 30.1142 54.7702 30.1133C54.3685 29.998 53.9125 29.8883 53.4113 29.7858C51.8871 29.4938 50.3469 29.2953 48.799 29.1913C43.7613 28.8348 38.7016 28.9572 33.6865 29.5572C33.5273 29.5773 33.3717 29.5956 33.2161 29.6175C23.3872 30.9071 16.1367 33.8943 16.1367 33.8943Z" fill="url(#paint1_linear_1220_25692)"/>
<g style="mix-blend-mode:multiply" opacity="0.8">
<path d="M72.0384 36.587C73.7556 36.587 74.8593 37.1011 76.0192 37.3517L76.2291 37.0242L78.7714 35.9267C78.3009 35.9889 75.1 36.5834 74.2134 35.6212C73.4498 34.7889 75.9957 35.495 77.246 35.0724C76.1169 34.7542 75.1597 34.0828 74.3907 33.5121C74.2221 33.3868 74.0196 33.3165 73.8104 33.3106C73.6012 33.3047 73.3952 33.3635 73.22 33.4792C72.2563 34.0366 71.1722 34.3469 70.0625 34.3828C70.9709 35.2016 72.0446 35.8108 73.2091 36.1682C73.2091 36.1682 73.6506 36.3328 72.0384 36.587Z" fill="#D7D2E2"/>
</g>
<path d="M86.1096 43.2637L78.49 36.3949L76.7747 37.5857L74.5273 37.0845L75.4882 38.0833C79.0491 40.0954 82.7151 41.7564 86.1096 43.2637Z" fill="#7D2C4F"/>
<path fill-rule="evenodd" clip-rule="evenodd" d="M26.1063 33.1937C26.1063 33.1937 21.0905 33.4864 17.6797 35.6632L18.3709 35.9687C18.3709 35.9687 23.2057 33.2632 26.8319 33.3071L26.1063 33.1937Z" fill="url(#paint2_linear_1220_25692)"/>
<path d="M75.2305 38.59C75.2305 38.59 80.9881 41.4856 86.1107 43.26C81.0786 40.9003 77.0254 39.1918 74.3203 36.8741C74.3203 36.8778 75.2341 38.0906 75.2305 38.59Z" fill="#A1133F"/>
<path fill-rule="evenodd" clip-rule="evenodd" d="M26.623 14.1021C27.0645 14.199 27.4029 14.2722 27.5838 14.3143L27.2527 14.2612H27.2111C25.4487 13.9393 19.8647 12.9625 19.4775 13.2808C19.0179 13.6576 20.0529 15.2015 21.0047 15.6935C21.9565 16.1856 25.5536 16.0722 25.5536 16.0722C25.5536 16.0722 24.4861 16.4216 24.4861 16.5972C24.4861 16.7728 25.0922 17.3856 25.8088 17.3526C25.8088 17.3526 25.1465 20.4166 25.2659 22.9867C25.2852 23.6052 25.3769 24.2192 25.5392 24.8159C25.8594 25.8805 27.3631 26.775 29.0404 27.4646C30.7173 28.1202 32.4437 28.6383 34.2028 29.014C33.66 28.9481 31.2462 28.6628 30.9458 29.0323C30.7956 29.2152 31.9211 29.4512 33.2384 29.6633C34.324 29.8463 35.5436 29.9944 36.2728 30.0822C36.6835 30.1335 36.9441 30.1609 36.9441 30.1609C37.0672 30.3517 37.2326 30.5108 37.4272 30.6255C37.8317 30.8854 38.2745 31.0787 38.7391 31.1981H38.7517C39.7759 31.457 40.8281 31.5854 41.8839 31.5804C46.1397 31.6353 49.1343 30.6493 49.1343 30.6493C49.1343 30.6493 51.454 31.0151 51.8829 31.1432C52.3117 31.2712 54.8087 30.1572 54.8087 30.1572C54.8047 30.1588 54.8002 30.1588 54.7961 30.1572C54.7038 30.1115 54.322 29.9176 53.7375 29.6085C51.6368 28.4981 46.9666 25.8768 44.3773 23.2921C40.9683 19.8861 38.1148 13.4692 37.0816 12.2015C36.7487 11.8009 35.6992 11.1936 34.2607 10.4564C34.2559 10.4575 34.251 10.4575 34.2462 10.4564C31.1792 8.89062 26.3625 6.7486 23.0277 4.78583C18.1186 1.88834 16.8303 0.724946 16.3689 0.695679C16.2965 0.695679 16.2459 0.783482 16.2187 0.957258C16.1994 1.08255 16.1891 1.2091 16.188 1.33591C16.1699 2.5743 16.6892 5.31631 17.9504 6.65714C18.4299 7.16749 19.4775 7.78577 20.726 8.40771L20.7767 8.43149C22.1808 9.12659 23.8292 9.82719 25.2153 10.3833C22.3998 9.32415 18.5203 7.94674 18.0969 8.201C17.4365 8.61075 18.4986 11.0235 19.9064 12.0149C20.7098 12.5765 23.129 13.2497 25.0669 13.7289L26.1779 13.996L26.623 14.1021Z" fill="url(#paint3_linear_1220_25692)"/>
<path fill-rule="evenodd" clip-rule="evenodd" d="M19.91 12.0149C21.1947 12.9131 26.623 14.1021 27.5893 14.3143C26.5036 14.1112 19.9009 12.9186 19.4775 13.2643C19.0179 13.6411 20.0529 15.185 21.0047 15.6771C21.9565 16.1691 25.5536 16.0557 25.5536 16.0557C25.5536 16.0557 24.4861 16.4051 24.4861 16.5807C24.4861 16.7563 25.0922 17.3691 25.8088 17.3362C25.8088 17.3362 25.1465 20.4001 25.2659 22.9702C25.2852 23.5887 25.3769 24.2028 25.5392 24.7994C25.8594 25.864 27.3631 26.7585 29.0404 27.4482C30.7173 28.1038 32.4437 28.6219 34.2028 28.9975C33.66 28.9317 31.2462 28.6463 30.9458 29.0158C30.7956 29.1987 31.9211 29.4347 33.2384 29.6469C34.324 29.8298 35.5436 29.978 36.2728 30.0658C35.9109 29.8829 35.663 29.7438 35.663 29.6999C35.663 29.517 36.7288 29.3341 36.7288 29.3341C36.7288 29.3341 27.9783 25.9006 28.1791 25.2933C28.38 24.686 30.3396 24.6531 30.3396 24.6531C30.3396 24.6531 27.6055 23.3123 27.6255 23.0818C27.6454 22.8513 29.073 22.8733 29.073 22.8733C29.073 22.8733 26.9722 22.1178 26.8438 21.1007C26.7153 20.0837 27.8372 17.3911 27.8372 17.3911C27.8372 17.3911 26.851 15.9075 27.0247 15.249C27.1984 14.5905 28.3004 14.585 28.3004 14.585C26.3552 12.7979 26.8329 11.49 26.8329 11.49C26.8329 11.49 25.2153 10.3833 25.6948 9.94243C26.1743 9.50159 30.1514 10.1254 30.1514 10.1254L29.2123 9.50525C29.5579 9.15952 33.9567 10.3577 34.2299 10.4308C31.1629 8.86502 26.3462 6.72299 23.0114 4.76023C18.1186 1.88834 16.8303 0.724946 16.3689 0.695679C16.2549 0.695679 16.188 0.92982 16.188 1.33591C16.1699 2.5743 16.6892 5.31631 17.9504 6.65714C18.9763 7.7437 22.5771 9.32415 25.2153 10.3833C22.3998 9.32415 18.5203 7.94674 18.0969 8.201C17.4365 8.61075 18.4986 11.0235 19.91 12.0149Z" fill="#45204F"/>
<path d="M6.40088 38.076C6.40088 38.076 4.72171 39.0144 4.07031 39.0876C3.24882 39.1827 2.36401 38.2151 2.14868 38.2736C1.93336 38.3321 1.94783 39.7571 2.66618 40.2236C3.38453 40.69 7.09932 38.4913 7.09932 38.4913L6.40088 38.076Z" fill="#A1133F"/>
<path d="M34.783 37.4248C34.783 37.4248 22.6869 37.8089 21.7369 38.2882C20.7869 38.7674 20.0071 39.3198 19.1892 39.3857C18.0022 39.4717 17.3798 38.643 16.8568 38.6869C16.3339 38.7308 8.00684 39.254 7.26678 39.3857C6.52672 39.5174 2.78298 41.1509 2.54594 41.235C2.3089 41.3192 0.767255 40.968 0.566406 38.8113C0.566406 38.8113 2.29262 39.9088 2.78298 39.9473C3.27334 39.9857 6.6968 38.579 6.6968 38.4345C6.6968 38.29 6.20825 37.851 5.86265 37.7943C5.51705 37.7376 4.94164 38.2296 4.65394 38.3174C4.36624 38.4052 3.47418 38.0266 3.47418 38.0266C3.47418 38.0266 4.25044 36.4553 5.3162 36.5632C6.38196 36.6711 8.05027 37.99 8.05027 37.99L17.007 37.6479C17.007 37.6479 18.1307 36.7534 19.1892 36.7754C20.1084 36.7937 21.4999 37.3863 21.4999 37.3863L32.1105 36.1516C32.1105 36.1516 34.1334 37.2363 34.783 37.4248Z" fill="#CF4045"/>
<path d="M74.1526 34.6077C74.0667 34.5307 73.9595 34.4824 73.8455 34.4693C73.7315 34.4562 73.6163 34.479 73.5156 34.5346C73.595 34.6227 73.7034 34.6786 73.8205 34.6921C73.9376 34.7056 74.0556 34.6756 74.1526 34.6077Z" fill="#F8F8F8"/>
<g style="mix-blend-mode:multiply" opacity="0.8">
<path fill-rule="evenodd" clip-rule="evenodd" d="M16.1367 33.8943V34.6096C16.1367 34.6096 20.6115 32.6139 24.3263 32.8773C27.1146 33.0749 29.9265 34.7925 31.8083 35.9724C31.7685 35.8791 31.1479 34.5638 32.2571 34.5858C33.4097 34.6041 36.1836 36.9492 36.198 37.0918C36.2125 37.2345 34.7812 37.4229 34.7812 37.4229C34.7812 37.4229 34.7939 37.4229 34.7993 37.4229C35.9248 37.9022 39.1872 38.7034 39.6704 38.8241C39.6829 38.8263 39.6958 38.8263 39.7084 38.8241H39.721C39.484 38.6668 34.8627 35.6321 34.7812 34.9827C34.6998 34.3334 38.0111 32.6413 44.574 32.1566C51.1368 31.6718 56.6194 33.2962 55.6315 35.6504C54.6688 37.9534 49.0596 40.1467 48.7212 40.2838C49.4315 40.2296 50.1379 40.1319 50.8364 39.9912C53.8184 39.382 56.7931 36.6711 58.219 36.5851C59.6448 36.4992 60.5532 37.1979 63.66 37.1101C66.7668 37.0223 68.0225 36.8467 69.5298 37.1522C71.0371 37.4577 75.1282 38.5662 75.2296 38.5936C75.1872 38.3048 75.0815 38.0291 74.9201 37.7869C73.744 37.5674 71.4333 37.1175 70.0184 36.7187C68.0623 36.1699 66.2764 34.6809 66.5678 33.8358C66.7903 33.1809 68.4731 32.1895 69.2204 31.7615C67.429 32.3194 65.9851 33.2358 64.7818 33.3419C63.0828 33.4883 58.5049 32.4986 56.4331 30.867C56.0965 30.6036 55.5392 30.3566 54.7919 30.1353C54.7899 30.1363 54.7877 30.1368 54.7855 30.1368C54.7834 30.1368 54.7812 30.1363 54.7792 30.1353C54.6869 30.0896 54.3033 29.8938 53.7207 29.5865C53.6535 29.698 53.5456 29.7782 53.4203 29.8097C52.3528 30.1755 49.0668 29.3579 49.0668 29.3579L48.808 29.2152C47.565 28.5109 42.1909 25.4323 40.7144 23.9452C39.0425 22.2586 37.0955 15.624 36.2288 14.6344C35.3621 13.6448 32.248 11.4314 28.4011 8.9894C24.5543 6.54738 16.3683 0.695679 16.3683 0.695679L16.1874 1.33591C16.1693 2.5743 16.6886 5.31631 17.9534 6.65713C18.9775 7.75467 22.5783 9.32415 25.2165 10.3833C22.401 9.32415 18.5216 7.94674 18.0982 8.201C17.4377 8.61075 18.4999 11.0253 19.9076 12.0149C21.1941 12.9131 26.6224 14.1021 27.5887 14.3143C26.503 14.1112 19.9022 12.9186 19.477 13.2625C19.0174 13.6411 20.0524 15.185 21.0041 15.6771C21.9559 16.1691 25.5531 16.0557 25.5531 16.0557C25.5531 16.0557 24.4855 16.4069 24.4855 16.5807C24.4855 16.7545 25.0917 17.3691 25.8064 17.3362C25.8064 17.3362 25.1459 20.4001 25.2636 22.9702C25.2824 23.5889 25.3748 24.203 25.5386 24.7994C25.8571 25.864 27.3589 26.7585 29.0381 27.45C30.7149 28.1053 32.4413 28.6228 34.2004 28.9975C33.6576 28.9335 31.2438 28.6463 30.9434 29.0158C30.7932 29.1987 31.9187 29.4347 33.2342 29.6469C23.3872 30.9072 16.1367 33.8943 16.1367 33.8943Z" fill="#D7D2E2" fill-opacity="0.63"/>
</g>
<g style="mix-blend-mode:multiply">
<path fill-rule="evenodd" clip-rule="evenodd" d="M42.9795 31.5237C42.9795 31.5237 40.6924 31.959 35.8557 32.2206C31.0191 32.4822 26.832 30.7572 26.832 30.7572L32.8665 29.7018C32.8665 29.7018 39.5687 31.8219 42.9795 31.5237Z" fill="#9786A6" fill-opacity="0.5"/>
</g>
<path fill-rule="evenodd" clip-rule="evenodd" d="M49.07 13.4656C49.07 13.4656 49.3034 12.5107 50.029 12.3077C50.7546 12.1047 51.6846 13.7564 51.6846 13.7564C51.6662 13.5166 51.7128 13.2761 51.8197 13.0611C51.9265 12.846 52.0894 12.6646 52.2908 12.5364C52.9838 12.1303 55.0538 12.7705 55.0538 12.7705C55.0538 12.7705 55.0665 12.0571 55.6329 11.7516C56.1612 11.4626 57.1582 12.2547 57.2614 12.337C55.9549 8.89985 53.8994 3.62069 53.7094 0.695756C53.6678 0.0408925 51.6177 1.61037 51.3988 3.10851C51.2612 4.05422 53.4452 8.4901 53.4452 8.4901C53.4452 8.4901 50.5917 4.15483 50.1629 4.12739C49.7341 4.09995 48.7153 5.95662 48.6357 7.1822C48.5778 8.01999 48.7642 9.28764 48.8818 9.99738C48.719 9.18155 48.4077 7.73097 48.263 7.80231C48.0621 7.89011 47.4831 9.37362 47.2823 10.2169C47.0814 11.0602 47.9753 12.3059 47.9753 12.3059C46.5323 13.3585 45.1552 14.5003 43.8516 15.7247C45.0404 14.715 49.07 13.4656 49.07 13.4656Z" fill="#3A1345"/>
<g style="mix-blend-mode:multiply">
<path d="M62.2695 37.0956C62.6803 37.1193 63.1399 37.1248 63.6592 37.1102C66.7678 37.0224 68.0218 36.8468 69.529 37.1523C70.9965 37.4504 74.9718 38.5242 75.2179 38.59C74.9628 38.4657 71.2842 36.7279 69.643 36.6035C67.9494 36.47 64.6508 37.1834 62.2695 37.0956Z" fill="#DBB4CE"/>
</g>
<g style="mix-blend-mode:multiply">
<path d="M34.8516 37.4468C36.2358 37.862 38.0633 38.2718 39.6719 38.8333C39.6839 38.8352 39.6961 38.8352 39.7081 38.8333H39.7226C39.724 38.834 39.7255 38.8343 39.7271 38.8343C39.7287 38.8343 39.7302 38.834 39.7316 38.8333C40.2057 38.998 40.6617 39.1736 41.0815 39.3675C42.9995 40.251 46.043 40.4998 48.7047 40.2821C48.7066 40.281 48.7088 40.2804 48.711 40.2804C48.7132 40.2804 48.7154 40.281 48.7173 40.2821C49.4277 40.2274 50.1341 40.129 50.8326 39.9876C53.8127 39.3803 56.7893 36.6712 58.2151 36.5834C59.3225 36.5139 60.115 36.92 61.8666 37.0663C59.6373 36.8504 57.5872 35.6029 56.46 35.9285C55.2675 36.2742 52.2982 39.4498 48.8042 39.8778C45.3102 40.3059 40.6834 38.4071 38.7473 38.1876C37.435 38.0212 36.134 37.7738 34.8516 37.4468Z" fill="#DBB4CE"/>
</g>
<g style="mix-blend-mode:multiply">
<path d="M42.9775 31.5236C42.9775 31.5236 45.0855 30.9748 45.8961 30.3968C46.7068 29.8188 41.7543 27.0859 39.6246 24.3494C37.4949 21.6128 36.4454 16.2111 35.4882 14.6892C34.531 13.1673 30.6172 10.4198 30.6172 10.4198C30.6172 10.4198 35.6257 13.5149 36.2265 14.627C36.8272 15.7392 38.928 21.5781 41.4268 24.5579C43.9257 27.5377 49.0645 29.3505 49.0645 29.3505L51.8673 31.1248C51.8673 31.1248 49.9095 30.5761 49.1188 30.6309C48.328 30.6858 45.223 31.959 42.9775 31.5236Z" fill="#C3C2D7" fill-opacity="0.7"/>
</g>
<g style="mix-blend-mode:multiply">
<path d="M54.7977 27.4153C54.3147 27.7029 53.7705 27.8692 53.2108 27.9C52.4056 27.9 47.4531 25.8019 47.4531 25.8019C47.4531 25.8019 52.8977 29.5774 55.545 30.3969C55.545 30.3969 54.8501 28.4158 54.7977 27.4153Z" fill="#C3C2D7" fill-opacity="0.7"/>
</g>
<g style="mix-blend-mode:multiply">
<path d="M16.188 1.33591C16.1699 2.5743 16.6892 5.31631 17.9504 6.65714C18.4299 7.16749 19.4775 7.78577 20.726 8.40771L20.7767 8.43149L25.2153 10.3833L33.1678 13.2314C32.8674 13.0979 23.1652 8.80465 20.5252 7.20956C17.8508 5.59801 16.3689 0.695679 16.3689 0.695679L16.2187 0.957258C16.1994 1.08255 16.1891 1.2091 16.188 1.33591Z" fill="#9795A6"/>
</g>
<g style="mix-blend-mode:multiply">
<path fill-rule="evenodd" clip-rule="evenodd" d="M19.9085 12.0149C20.7119 12.5764 23.1311 13.2496 25.069 13.7288L26.18 13.9959L26.627 14.102L27.2096 14.2447H27.2512L32.6018 15.4245C31.3351 15.1209 23.1456 13.1307 20.9797 11.4807C18.6274 9.69357 18.0954 8.18811 18.0954 8.18811C17.435 8.61066 18.4971 11.0234 19.9085 12.0149Z" fill="#9795A6"/>
</g>
<path fill-rule="evenodd" clip-rule="evenodd" d="M30.3607 37.5948L28.8281 36.5411L32.1105 36.1588L34.85 37.4466L30.3607 37.5948Z" fill="#A1133F"/>
<path d="M78.769 35.932C78.769 35.932 83.8354 39.7423 87.0001 43.2636L85.8493 42.9434L76.7243 38.4344C76.2846 38.2039 74.571 37.271 74.2852 36.843C74.828 37.0771 75.4957 37.0899 76.2213 37.0259L78.769 35.932Z" fill="#CF4045"/>
<g style="mix-blend-mode:soft-light" opacity="0.97">
<path fill-rule="evenodd" clip-rule="evenodd" d="M47.4511 13.2313C47.4511 13.2313 43.1301 15.6551 41.5469 18.6513C41.5469 18.6513 46.36 15.7538 47.4511 13.2313Z" fill="#F5FFFF"/>
</g>
<g style="mix-blend-mode:soft-light" opacity="0.97">
<path fill-rule="evenodd" clip-rule="evenodd" d="M57.6949 15.9423C57.0397 18.023 56.2217 20.0476 55.2485 21.997C53.6363 25.2366 54.3058 27.0896 54.3058 27.0896C54.3058 27.0896 54.0108 25.2604 55.5507 22.4854C56.6725 20.4513 58.1925 17.1441 57.6949 15.9423Z" fill="#F5FFFF"/>
</g>
<g style="mix-blend-mode:soft-light" opacity="0.97">
<path fill-rule="evenodd" clip-rule="evenodd" d="M66.6334 33.0694C66.6334 33.0694 65.1008 33.834 62.5531 33.8779C60.0054 33.9218 56.5312 31.5695 56.5312 31.5695C56.5312 31.5695 59.8516 33.1133 62.2708 33.5066C63.7381 33.7391 65.2398 33.5886 66.6334 33.0694Z" fill="#F5FFFF"/>
</g>
<g style="mix-blend-mode:soft-light" opacity="0.97">
<path fill-rule="evenodd" clip-rule="evenodd" d="M36.2134 11.8174C36.2134 11.8174 33.8792 11.5558 29.8133 9.89669C25.7475 8.23758 19.4688 3.25842 19.4688 3.25842C19.4688 3.25842 33.0703 10.2772 36.2134 11.8174Z" fill="#F5FFFF"/>
</g>
<g style="mix-blend-mode:soft-light" opacity="0.97">
<path fill-rule="evenodd" clip-rule="evenodd" d="M57.5034 13.6465C56.1866 11.4996 55.0696 9.23384 54.1668 6.87836C52.6667 2.97113 53.443 1.07239 53.443 1.07239C53.443 1.07239 55.437 9.89293 57.5034 13.6465Z" fill="#F5FFFF"/>
</g>
<path fill-rule="evenodd" clip-rule="evenodd" d="M52.1704 29.0139C52.1704 29.0139 48.0575 28.4414 43.8469 25.1725C39.6363 21.9037 38.7461 15.9423 38.7461 15.9423C38.7461 15.9423 42.3071 24.1738 52.1704 29.0139Z" fill="#F5FFFF"/>
<path fill-rule="evenodd" clip-rule="evenodd" d="M77.1073 34.1832C77.1073 34.1832 75.5458 32.0211 73.3618 31.7028C71.1778 31.3845 69.6289 32.0046 69.6289 32.0046C69.6289 32.0046 74.1272 31.5729 77.1073 34.1832Z" fill="#F5FFFF"/>
<g style="mix-blend-mode:soft-light" opacity="0.97">
<path fill-rule="evenodd" clip-rule="evenodd" d="M20.6498 37.5949C20.6498 37.5949 18.2976 37.0736 17.0816 38.076L8.24609 38.1217L17.0309 37.8857C17.0309 37.8857 18.8657 36.0547 20.6498 37.5949Z" fill="#F5FFFF"/>
</g>
<path d="M71.0664 34.6387C71.0664 34.6387 71.7649 34.4558 72.514 34.3241C72.7073 34.285 72.8867 34.194 73.0333 34.0607C73.4531 33.7077 73.9579 33.8302 74.1714 34.2272H74.1841C74.6025 34.3637 74.9658 34.6339 75.2191 34.9973C74.9679 35.0383 74.7149 35.0663 74.4609 35.0814C74.2649 35.093 74.0764 35.1616 73.9181 35.279C73.8288 35.351 73.723 35.3992 73.6104 35.419C73.4978 35.4388 73.3821 35.4297 73.2739 35.3924C73.1615 35.3537 73.0585 35.2914 72.9718 35.2095C72.8232 35.08 72.6411 34.9962 72.447 34.968C71.9782 34.8991 71.5163 34.7889 71.0664 34.6387Z" fill="#6A4D86"/>
<path d="M74.1073 34.4522C74.2231 34.8857 73.7672 35.4418 73.2732 35.2717C72.7503 35.0887 72.7086 34.5144 73.1049 34.1741C73.5012 33.8339 73.9915 34.0168 74.1073 34.4522Z" fill="url(#paint4_linear_1220_25692)"/>
<path d="M73.0414 34.3114C73.004 34.3556 72.9761 34.4072 72.9594 34.4628C72.9426 34.5185 72.9375 34.577 72.9443 34.6348C72.9511 34.6926 72.9697 34.7483 72.9989 34.7984C73.028 34.8485 73.0672 34.892 73.1138 34.9261C73.2116 34.9964 73.3319 35.027 73.4509 35.0117C73.5699 34.9965 73.6789 34.9365 73.7562 34.8438C73.7933 34.7995 73.8211 34.7479 73.8376 34.6923C73.8542 34.6367 73.8592 34.5782 73.8524 34.5205C73.8457 34.4628 73.8272 34.4072 73.7981 34.3571C73.7691 34.3069 73.7302 34.2634 73.6838 34.2291C73.5861 34.1588 73.4657 34.1282 73.3467 34.1435C73.2277 34.1587 73.1187 34.2187 73.0414 34.3114Z" fill="url(#paint5_linear_1220_25692)"/>
<path d="M73.6382 34.7267C73.6273 34.735 73.6182 34.7454 73.6114 34.7573C73.6045 34.7692 73.6001 34.7823 73.5984 34.796C73.5967 34.8097 73.5978 34.8235 73.6015 34.8368C73.6053 34.85 73.6116 34.8624 73.6201 34.8731C73.639 34.895 73.6655 34.9087 73.6942 34.9114C73.7228 34.9141 73.7513 34.9056 73.7739 34.8877C73.7848 34.8794 73.794 34.8691 73.8008 34.8572C73.8077 34.8452 73.8121 34.8321 73.8138 34.8184C73.8154 34.8048 73.8144 34.7909 73.8107 34.7777C73.8069 34.7644 73.8006 34.7521 73.792 34.7414C73.7731 34.7195 73.7467 34.7057 73.718 34.703C73.6894 34.7003 73.6609 34.7088 73.6382 34.7267Z" fill="white"/>
<g style="mix-blend-mode:soft-light" opacity="0.97">
<path fill-rule="evenodd" clip-rule="evenodd" d="M85.8902 42.3838L78.875 36.3949C78.875 36.3949 83.3262 39.1808 85.8902 42.3838Z" fill="#F5FFFF"/>
</g>
</g>
<defs>
<linearGradient id="paint0_linear_1220_25692" x1="49.5392" y1="30.3969" x2="49.5392" y2="0.542101" gradientUnits="userSpaceOnUse">
<stop stop-color="#E0DFF5"/>
<stop offset="1" stop-color="#F5F7FF"/>
</linearGradient>
<linearGradient id="paint1_linear_1220_25692" x1="78.7706" y1="34.69" x2="16.1385" y2="34.69" gradientUnits="userSpaceOnUse">
<stop stop-color="white"/>
<stop offset="1" stop-color="#E5E7F8"/>
</linearGradient>
<linearGradient id="paint2_linear_1220_25692" x1="26.8337" y1="34.5839" x2="17.6797" y2="34.5839" gradientUnits="userSpaceOnUse">
<stop stop-color="#E4DEEC"/>
<stop offset="1" stop-color="#ACB3EB"/>
</linearGradient>
<linearGradient id="paint3_linear_1220_25692" x1="35.4985" y1="31.5826" x2="35.4985" y2="0.694907" gradientUnits="userSpaceOnUse">
<stop stop-color="#E0DFF5"/>
<stop offset="1" stop-color="#F5F7FF"/>
</linearGradient>
<linearGradient id="paint4_linear_1220_25692" x1="72.9891" y1="34.7801" x2="74.0325" y2="33.9465" gradientUnits="userSpaceOnUse">
<stop stop-color="white"/>
<stop offset="1" stop-color="#D0C7F8"/>
</linearGradient>
<linearGradient id="paint5_linear_1220_25692" x1="73.3703" y1="35.0904" x2="73.9284" y2="34.3796" gradientUnits="userSpaceOnUse">
<stop offset="0.01" stop-color="#934A1A"/>
<stop offset="0.98" stop-color="#33112F"/>
</linearGradient>
<clipPath id="clip0_1220_25692">
<rect width="86.4354" height="42.7216" fill="white" transform="translate(0.566406 0.541992)"/>
</clipPath>
</defs>
</svg>
