<svg width="2440" height="328" viewBox="0 0 2440 328" fill="none" xmlns="http://www.w3.org/2000/svg">
<path fill-rule="evenodd" clip-rule="evenodd" d="M180.882 135.99V137.515L179.82 175.139L179.675 180.293L179.144 202.504L168.986 219.973L160.468 234.491C166.09 234.491 162.037 236.765 150.816 240.298C147.752 241.266 144.108 242.33 140.006 243.468C133.154 245.355 124.974 247.46 115.684 249.734C104.971 252.347 92.7853 255.154 79.4901 258.058C49.8351 264.494 14.558 271.317 -22.5529 277.414C-33.2905 279.156 -44.2693 280.802 -55.1275 282.253L-57.1302 282.544L-65.841 283.753C-82.0559 285.979 -98.3432 287.939 -114.413 289.56C-157.967 294.012 -199.686 295.948 -233.95 293.528C-259.913 291.69 -281.63 287.334 -296.686 279.664C-315.58 269.986 -323.76 255.009 -316.207 233.063C-315.395 230.71 -314.46 228.4 -313.408 226.143C-313.07 225.442 -302.453 214.384 -288.362 199.891C-259.624 170.324 -216.384 126.36 -216.384 126.36L-102.421 125.925H-97.5952L61.6585 125.32L61.9239 136.885L62.1652 147.798L65.7846 136.692L68.3423 128.877L108.373 127.11L110.303 134.611L115.129 152.806L180.882 135.99Z" fill="url(#paint0_linear_1421_612)"/>
<path fill-rule="evenodd" clip-rule="evenodd" d="M163.098 169.138C161.782 170.6 160.371 171.974 158.876 173.251C156.468 175.383 153.697 177.063 150.696 178.211C118.893 189.608 62.3824 202.819 -5.80717 209.23C-9.25766 209.569 -12.7323 209.859 -16.231 210.15C-23.1079 210.706 -30.0571 211.214 -37.1029 211.626C-47.9611 212.271 -59.0204 212.715 -70.2808 212.957H-74.0932C-80.2221 212.957 -86.3992 213.102 -92.6245 212.957C-96.0992 212.957 -99.622 212.957 -103.145 212.957H-107.561L-201.207 186.123L-205.188 178.091L-216.312 155.782C-216.312 155.782 -184.943 153.363 -140.039 150.048L-106.764 147.628C-94.6997 146.757 -82.1041 145.886 -69.1949 145.015L-61.8114 144.507C48.4839 137.03 177.914 129.627 180.906 135.748C181.943 137.901 174.318 156.992 163.098 169.138Z" fill="#147EA3"/>
<path fill-rule="evenodd" clip-rule="evenodd" d="M61.8516 125.296C61.8516 125.296 23.2446 133.571 -27.1374 139.813C-37.0546 141.047 -47.4302 142.233 -58.0471 143.249L-67.6988 144.12C-116.368 148.257 -168.921 148.765 -206.274 138.41L-216.191 126.312L-102.228 125.876H-97.4021L61.8516 125.296Z" fill="#0C82DD"/>
<path fill-rule="evenodd" clip-rule="evenodd" d="M68.5355 128.852C81.6618 136.353 108.638 128.852 108.638 127.086C108.638 125.32 68.5355 128.852 68.5355 128.852Z" fill="#0C82DD"/>
<g style="mix-blend-mode:multiply" opacity="0.5">
<path fill-rule="evenodd" clip-rule="evenodd" d="M121.741 187.745L121.065 187.333C112.439 182.44 103.345 178.428 93.9194 175.356C92.8819 174.994 91.796 174.655 90.7102 174.316C86.1015 172.889 81.0585 171.534 75.7742 170.421L74.4712 169.937L99.5174 172.961L107.311 173.905L148.741 178.937H149.345V181.478L150.286 223.264L150.648 240.201V243.613V244.048L115.274 251.186L115.419 249.637L116.118 242.814L117.928 224.933L121.741 187.745Z" fill="url(#paint1_linear_1421_612)" style="mix-blend-mode:multiply"/>
<path fill-rule="evenodd" clip-rule="evenodd" d="M121.741 187.745L121.065 187.333C112.439 182.44 103.345 178.428 93.9194 175.356C92.8819 174.994 91.796 174.655 90.7102 174.316C86.1015 172.889 81.0585 171.534 75.7742 170.421L74.4712 169.937L99.5174 172.961L107.311 173.905L148.741 178.937H149.345V181.478L150.286 223.264L150.648 240.201V243.613V244.048L115.274 251.186L115.419 249.637L116.118 242.814L117.928 224.933L121.741 187.745Z" fill="url(#paint2_linear_1421_612)" style="mix-blend-mode:multiply"/>
</g>
<path style="mix-blend-mode:multiply" opacity="0.7" fill-rule="evenodd" clip-rule="evenodd" d="M-13.7698 210.077L-25.4243 296.504L77.246 266.066L94.6433 195.124L-13.7698 210.077Z" fill="url(#paint3_linear_1421_612)"/>
<path style="mix-blend-mode:screen" fill-rule="evenodd" clip-rule="evenodd" d="M163.098 169.138C160.951 168.606 158.682 168.146 156.342 167.735C138.8 164.71 136.363 170.155 109.41 165.775C100.796 164.348 91.5788 162.726 81.9271 160.936L84.8226 161.734C97.4422 165.267 105.984 168.316 106.901 169.985C107.408 170.905 104.657 171.921 99.4208 172.913C97.0079 173.373 94.0883 173.832 90.7101 174.268C51.7171 179.325 -47.1649 182.494 -92.9142 167.348C-96.5577 166.162 -94.5067 162.509 -88.9328 158.178C-86.4071 156.246 -83.746 154.5 -80.9701 152.951C-79.1122 151.911 -77.1336 150.871 -75.0343 149.854C-70.7454 147.769 -66.3289 145.959 -61.8114 144.434C-60.605 144.031 -59.3744 143.644 -58.1197 143.273C-51.1367 141.142 -43.9129 139.907 -36.6204 139.595C-34.0386 139.595 -30.9017 139.595 -27.3306 139.886C-52.3527 134.877 -76.5062 130.038 -97.4987 125.901H-102.325C-78.5089 130.038 -61.6908 135.579 -65.4308 142.354C-66.1006 143.126 -66.922 143.752 -67.8438 144.192L-69.2191 144.991C-71.6321 146.298 -74.9861 147.919 -78.6296 149.564L-85.6512 152.685C-90.4771 154.718 -94.8686 156.605 -97.8365 157.839L-101.191 159.218L-113.521 162.484C-113.521 162.484 -178.284 158.637 -205.212 178.018L-201.231 186.051L-107.561 212.908H-103.145C-99.6221 212.908 -96.0992 212.908 -92.6246 212.908C-86.3992 212.908 -80.2221 212.908 -74.0933 212.908L-80.7771 199.673L-70.2808 212.836C-59.0205 212.594 -47.9612 212.15 -37.103 211.505C-30.0572 211.094 -23.108 210.586 -16.2311 210.029C-12.7324 209.739 -9.25774 209.448 -5.80724 209.11L-6.41048 208.964C-49.8433 197.447 -76.8681 183.123 -81.2114 178.405C-81.2114 178.405 27.9497 182.978 62.2858 179.059C72.1788 177.946 82.9646 176.518 93.9435 175.236C98.3591 174.727 102.799 174.219 107.239 173.784C125.77 171.945 144.108 171.026 158.9 173.131C162.214 173.582 165.494 174.253 168.72 175.139C172.599 176.267 176.29 177.962 179.675 180.172L179.82 175.018C174.478 172.448 168.871 170.476 163.098 169.138ZM-77.8092 192.826C-90.1634 198.705 -178.742 182.349 -180.118 174.848C-182.289 162.968 -112.821 163.065 -108.019 165.025C-103.217 166.985 -65.455 187.043 -77.8092 192.826ZM-13.5769 141.241C-18.5475 140.587 -23.2286 140.103 -27.1376 139.813L-18.4269 141.555C15.7403 148.354 51.0898 155.298 81.9995 160.912C50.5471 152.53 18.6342 145.994 -13.5769 141.337V141.241Z" fill="url(#paint4_linear_1421_612)"/>
<path style="mix-blend-mode:multiply" opacity="0.86" fill-rule="evenodd" clip-rule="evenodd" d="M1.09375 134.514L-50.1328 154.355L-46.7306 157.452L-116.44 210.077L-193.461 189.269L-192.786 166.428L-105.727 140.926L1.09375 134.514Z" fill="url(#paint5_linear_1421_612)"/>
<path fill-rule="evenodd" clip-rule="evenodd" d="M2480.39 121.296L2493 300.633L2492.84 310.98L2492.77 315.285L2491.68 380.442L2491.05 416.296L1881.89 385.997L1687.86 359.24L-10.0578 343.269L-21 318.132L-3.94789 308.966L3.78829 304.8L112.885 309.73L129.286 310.447L183.439 312.901L193.336 311.165L265.239 298.411L399.727 275.936L400.656 275.797V259.549L405.628 260.59L425.77 264.78L432.252 266.099L434.157 266.516L434.691 265.798L438.733 260.428L441.103 257.304L460.432 231.727L488.682 239.643L688.8 236.796L705.875 236.541L745.207 221.056L757.682 219.228L2480.39 121.296Z" fill="url(#paint6_linear_1421_612)"/>
<path fill-rule="evenodd" clip-rule="evenodd" d="M2723.25 12.982L2685.76 127.687L2682.09 139.06L2648.26 141.585L2645.32 141.812H2645.04L2643.49 141.926L2568.21 147.59L2511.18 151.866L2506.32 152.23L2484.99 153.845H2484.74L2468.58 155.05H2468.42L2465.64 155.278L2446.3 156.733L2442.85 156.984L2435.25 157.552L2430.9 157.871L2374.62 162.124H2373.64L2332.18 165.217L2316.53 166.423L2289 168.47L2258.06 170.745L2253.66 171.086L2239.08 172.178L2182.05 176.454L2180.59 176.567L2103.48 164.49L2130.63 120.227L2130.74 120.068H2131.86H2132L2160.33 118.134L2181.05 116.747H2181.8L2186.2 116.451L2191.91 116.065L2195.67 115.814L2203.31 115.291V115.132L2205.59 109.059L2211.64 92.6594L2212.03 91.6359L2214.1 85.9268L2214.72 84.2663L2241.66 84.4938L2241.94 82.7197L2242.14 81.4004V80.9227L2243.33 72.9164L2243.58 71.2787H2243.74L2296.57 67.5484H2296.85H2298.22L2322.26 65.8425H2323.49V66.4112V68.6857V71.3014V72.416L2323.22 81.2867V84.1754L2327.62 83.584L2328.19 81.1275L2330.47 70.9147L2330.59 70.4371L2330.77 69.6182L2330.97 68.6857V68.3445L2333.03 59.5875H2334.56L2340.42 59.724L2364.21 60.4063H2366.27L2397.04 61.2479L2397.59 62.1577L2398.05 62.9538L2406.97 78.0341L2408.08 79.922L2407.4 78.0113L2402.01 62.6354L2401.65 61.6801L2396.45 46.7818L2391.77 33.4757L2424.35 31.4968L2474.13 28.0168L2479.69 27.6983L2491.99 26.925L2502.87 26.2881H2503.4L2519.5 25.3328L2571.31 22.1939L2578.54 21.739L2638.15 18.1453L2654.9 17.1217L2723.25 12.982Z" fill="url(#paint7_linear_1421_612)" style="mix-blend-mode:multiply"/>
<path fill-rule="evenodd" clip-rule="evenodd" d="M2664.57 29.2679L2661.42 31.8608L2692.06 41.4367L2669.09 61.248L2614.86 69.823L2437.22 88.6108C2437.22 88.6108 2416.04 89.5888 2385.75 90.2257C2368.23 90.5896 2347.7 90.8398 2326.43 90.6578C2317.17 90.6578 2307.8 90.4759 2298.44 90.2484H2295.5C2287.68 90.021 2279.9 89.748 2272.32 89.3614C2268.31 89.1794 2264.36 88.9747 2260.46 88.7245C2258.06 88.5653 2255.67 88.4288 2253.32 88.2468L2249.94 87.9966C2237.1 87.0413 2225.17 85.7221 2214.79 84.1072L2239.38 81.1048L2241.32 80.8546H2242.28L2247.11 80.2859L2262.49 78.398L2289.61 75.1L2291.9 74.827L2300.72 73.758L2323.54 70.983L2330.63 70.1187L2332.37 69.8913L2338.37 69.1862L2348.45 67.9351H2348.7L2363.19 66.1837L2384.54 63.568H2384.68L2397.57 61.9986L2401.63 61.4982L2413.44 60.0652L2454.64 55.0612L2478.21 52.218L2487.11 51.1262L2518.07 47.3505L2533.65 45.4399L2556.62 42.6422H2556.98L2577.63 40.1402L2652.23 31.042L2664.57 29.2679Z" fill="#147EA3"/>
<path fill-rule="evenodd" clip-rule="evenodd" d="M2491.99 52.5136L2478.87 53.9239L2455.88 56.4031L2420.74 60.2016C2420.74 60.2016 2418.46 60.5428 2414.45 61.0205C2411.3 61.3844 2407.08 61.8393 2402.2 62.2487C2400.92 62.3852 2399.6 62.4762 2398.23 62.5671C2394.1 62.8856 2389.6 63.1585 2384.88 63.3405H2384.75C2378.29 63.5907 2371.47 63.6589 2364.69 63.3405C2355 63.1917 2345.35 62.0253 2335.9 59.8604C2334.94 59.6102 2333.99 59.3828 2333.07 59.1098C2333.07 59.1098 2333.39 59.1098 2334.03 58.8369L2336.72 58.1318C2339.74 57.3357 2344.5 56.1302 2350.53 54.7427C2354.45 53.8329 2358.92 52.8548 2363.78 51.854C2373.5 49.8979 2384.79 47.8963 2396.52 46.3724C2402.4 45.6445 2408.43 45.0076 2414.4 44.5755C2418.53 44.3025 2422.66 44.0978 2426.72 44.0296C2433.2 43.8931 2439.2 44.0296 2444.74 44.3025L2448.07 44.4618C2453.5 44.8257 2458.45 45.3033 2462.88 45.8947C2468.24 46.5998 2472.87 47.4187 2476.77 48.1693L2477.41 48.3285H2477.96C2481.82 49.1701 2484.8 50.0116 2487.09 50.603C2488.75 51.1535 2490.39 51.7913 2491.99 52.5136Z" fill="#147EA3"/>
<path fill-rule="evenodd" clip-rule="evenodd" d="M2723.25 12.982L2707.89 25.4465L2661.42 31.8608L2651.98 33.1345L2557.81 46.0767L2544.46 47.9191C2544.46 47.9191 2540.72 47.9191 2534.22 47.6689C2529.97 47.6689 2524.54 47.3504 2518.25 47.1002C2510.61 46.759 2501.69 46.3041 2492.01 45.69H2490.64C2487.2 45.4625 2483.64 45.2351 2480.01 44.9394C2475.82 44.6437 2471.6 44.3025 2467.28 43.9386C2462.08 43.4837 2456.79 42.9833 2451.47 42.4374L2449.35 42.2099C2438.81 41.0954 2428.27 39.7534 2418.21 38.184C2408.9 36.7056 2399.96 35.0451 2391.93 33.1118C2406.14 25.7422 2425.31 20.4425 2447.21 16.644C2457.54 14.8017 2468.47 13.3005 2479.81 12.095C2485.92 11.4581 2492.1 10.8667 2498.4 10.3663C2501.87 10.0706 2505.36 9.8204 2508.87 9.5702C2527.26 8.34195 2546.17 7.65959 2564.79 7.40939C2571.58 7.40939 2578.32 7.37147 2585 7.29565H2594.51C2613.52 7.43213 2631.72 7.90978 2648.1 8.59215L2653.89 8.8196C2694.8 10.4345 2723.25 12.982 2723.25 12.982Z" fill="#147EA3"/>
<path style="mix-blend-mode:multiply" opacity="0.7" fill-rule="evenodd" clip-rule="evenodd" d="M2238.95 172.246L2181.94 176.522L2190.83 140.152L2192.73 132.396L2198.27 132.919L2203.11 133.351L2238.26 136.626L2238.33 140.903L2238.95 172.246Z" fill="url(#paint8_linear_1421_612)"/>
<path fill-rule="evenodd" clip-rule="evenodd" d="M2622.8 80.1267L2556.64 102.872L2506.84 119.909L2503.76 120.272C2493.91 121.319 2461.58 124.822 2420.65 128.597L2408.13 129.757C2379.73 132.328 2348.08 134.966 2317.4 137.081C2304.47 137.946 2291.69 138.742 2279.37 139.356C2272.12 139.72 2265 140.084 2258.13 140.334H2255.74C2249.83 140.561 2244.13 140.721 2238.63 140.857C2229.09 141.085 2220.22 141.153 2212.23 141.016H2211.37C2203.72 140.88 2196.95 140.584 2191.13 140.107L2188.01 139.811C2134.35 134.147 2130.97 120.841 2130.97 120.159L2132.34 119.886C2140.42 118.225 2149.47 116.656 2159.37 115.109C2163.27 114.503 2167.3 113.904 2171.47 113.312L2183.03 111.697C2190.38 110.719 2198.04 109.787 2205.85 108.831L2218.73 107.376C2222.98 106.875 2227.31 106.42 2231.69 105.966L2237.67 105.329C2248.21 104.237 2259.03 103.175 2270.13 102.144L2271.66 102.031C2272.82 101.894 2273.94 101.803 2275.17 101.689L2285.26 100.78L2295.5 99.8925L2306.63 98.96L2310.99 98.596C2317.04 98.0956 2323.13 97.6407 2329.24 97.163C2347.7 95.7073 2354.68 97.3223 2373.11 96.0485C2474.58 89.0884 2582.24 81.8326 2612.9 80.5589L2622.8 80.1267Z" fill="#147EA3"/>
<path style="mix-blend-mode:screen" fill-rule="evenodd" clip-rule="evenodd" d="M2137.98 91.5334C2140.13 91.0011 2142.4 90.5414 2144.74 90.1301C2162.28 87.1056 2164.72 92.5496 2191.67 88.1702C2200.28 86.7427 2209.5 85.1216 2219.15 83.3311L2216.26 84.1295C2203.64 87.6621 2195.1 90.7107 2194.18 92.3802C2193.67 93.2997 2196.42 94.3159 2201.66 95.3079C2204.07 95.7677 2206.99 96.2274 2210.37 96.6629C2249.36 101.72 2348.25 104.889 2393.99 89.7429C2397.64 88.5573 2395.59 84.9038 2390.01 80.5727C2387.49 78.6413 2384.83 76.8947 2382.05 75.3465C2380.19 74.3061 2378.21 73.2657 2376.11 72.2494C2371.83 70.1642 2367.41 68.3539 2362.89 66.8296C2361.69 66.4263 2360.45 66.0392 2359.2 65.6682C2352.22 63.5374 2344.99 62.3017 2337.7 61.9904C2335.12 61.9904 2331.98 61.9904 2328.41 62.2808C2353.43 57.2723 2377.59 52.4331 2398.58 48.2957H2403.4C2379.59 52.4331 2362.77 57.9739 2366.51 64.7487C2367.18 65.5214 2368 66.1474 2368.92 66.5876L2370.3 67.3861C2372.71 68.6926 2376.07 70.3137 2379.71 71.9591L2386.73 75.0803C2391.56 77.1128 2395.95 79 2398.92 80.234L2402.27 81.6132L2414.6 84.8796C2414.6 84.8796 2479.36 81.0325 2506.29 100.413L2502.31 108.446L2408.64 135.303H2404.23C2400.7 135.303 2397.18 135.303 2393.7 135.303C2387.48 135.303 2381.3 135.303 2375.17 135.303L2381.86 122.068L2371.36 135.231C2360.1 134.989 2349.04 134.545 2338.18 133.9C2331.14 133.489 2324.19 132.981 2317.31 132.424C2313.81 132.134 2310.34 131.843 2306.89 131.505L2307.49 131.36C2350.92 119.842 2377.95 105.519 2382.29 100.8C2382.29 100.8 2273.13 105.373 2238.79 101.454C2228.9 100.341 2218.12 98.9131 2207.14 97.6307C2202.72 97.1226 2198.28 96.6145 2193.84 96.179C2175.31 94.3401 2156.97 93.4207 2142.18 95.5257C2138.87 95.9774 2135.59 96.6483 2132.36 97.5339C2128.48 98.6616 2124.79 100.357 2121.41 102.567L2121.26 97.413C2126.6 94.8429 2132.21 92.8712 2137.98 91.5334ZM2378.89 115.221C2391.24 121.101 2479.82 104.744 2481.2 97.2436C2483.37 85.3635 2413.9 85.4603 2409.1 87.4201C2404.3 89.38 2366.54 109.438 2378.89 115.221ZM2314.66 63.6357C2319.63 62.9824 2324.31 62.4985 2328.22 62.2082L2319.51 63.9503C2285.34 70.7493 2249.99 77.6934 2219.08 83.3069C2250.53 74.9251 2282.45 68.3892 2314.66 63.7325V63.6357Z" fill="url(#paint9_linear_1421_612)"/>
<path fill-rule="evenodd" clip-rule="evenodd" d="M2604.77 53.4893L2603.56 59.0674L2600.92 71.1052L2600.44 73.1911L2599.03 79.773L2596.51 91.2693L2580.43 93.7489L2513.52 104.08L2510.37 104.551L2510.05 104.05L2509.24 102.658L2508.89 102.055L2508.66 102.066L2489.65 103.931L2452.7 107.547L2450.89 103.741L2450.73 103.39L2446.68 103.7L2438.27 104.326L2400.85 107.151L2398.59 103.448L2389.77 88.8444L2389.11 87.7422L2388.77 87.221L2417.24 75.1337L2421.29 73.4061L2430.37 69.5482L2448.69 61.7787L2456.27 58.5441L2454.48 55.7113L2449.46 47.7352L2447.2 44.173L2445.56 41.5494L2445.68 41.5143L2495.31 26.4396L2497.66 25.7318L2508.12 25.2156L2593.14 21.1013L2592.44 23.5827L2587.6 40.8718L2585.91 46.834L2598.02 51.1291L2604.77 53.4893Z" fill="url(#paint10_linear_1421_612)"/>
<path style="mix-blend-mode:multiply" opacity="0.36" fill-rule="evenodd" clip-rule="evenodd" d="M2445.76 80.0423L2451.08 102.15L2438.27 104.326L2419.68 75.7057L2467.42 48.2747L2472.1 75.6603L2445.76 80.0423Z" fill="url(#paint11_linear_1421_612)"/>
<path fill-rule="evenodd" clip-rule="evenodd" d="M2464.92 56.1258C2463.28 58.0672 2461.49 59.885 2459.59 61.5646C2452.88 67.4537 2445.27 72.2238 2437.06 75.6931C2435.74 76.2637 2434.47 76.7956 2433.18 77.3064C2429.75 78.656 2426.31 79.8228 2422.94 80.9113C2411.8 84.2811 2400.34 86.4436 2388.75 87.3615C2387.78 82.9611 2388.38 78.3602 2390.42 74.3499C2391.24 72.6183 2392.24 70.9781 2393.4 69.4563C2393.57 69.2143 2393.75 68.9854 2393.95 68.7716C2395.69 66.5749 2397.64 64.5566 2399.78 62.7464C2405.97 57.6206 2412.96 53.5585 2420.46 50.725C2429.01 47.3307 2438 45.1783 2447.15 44.3328C2455.75 43.5935 2462.73 44.5051 2465.86 47.1733C2466.37 47.5866 2466.8 48.0932 2467.12 48.6666C2468.24 50.3558 2467.66 52.9032 2464.92 56.1258Z" fill="url(#paint12_linear_1421_612)"/>
<path fill-rule="evenodd" clip-rule="evenodd" d="M2542.05 159.752L2477.11 326.49L2470.74 343.026L2420.44 343.977L2416.07 344.072L2415.66 344.049L2413.35 344.09L2301.43 346.276L2216.64 347.91L2209.41 348.049L2177.7 348.683L2177.33 348.662L2153.32 349.117L2153.08 349.104L2148.94 349.212L2120.18 349.774L2115.06 349.86L2103.76 350.077L2097.29 350.189L2013.61 351.852L2012.16 351.771L1950.53 352.938L1927.27 353.434L1886.33 354.197L1840.34 355.017L1833.8 355.16L1812.12 355.576L1727.33 357.21L1725.16 357.258L1611.99 333.027L1655.83 269.73L1656.01 269.503L1657.67 269.596L1657.87 269.607L1699.98 269.078L1730.76 268.729L1731.88 268.791L1738.42 268.716L1746.9 268.613L1752.49 268.553L1763.85 268.408L1763.86 268.172L1767.74 259.368L1778.04 235.586L1778.7 234.103L1782.24 225.821L1783.29 223.414L1823.16 225.969L1823.71 223.365L1824.13 221.429L1824.16 220.721L1826.58 208.965L1827.09 206.561L1827.32 206.575L1905.85 205.403L1906.26 205.425L1908.29 205.538L1944.03 204.992L1945.85 205.094L1945.8 205.936L1945.62 209.303L1945.4 213.176L1945.31 214.826L1944.17 227.937L1943.93 232.214L1950.5 231.701L1951.55 228.111L1955.77 213.178L1955.98 212.481L1956.31 211.283L1956.69 209.92L1956.72 209.414L1960.48 196.618L1962.75 196.744L1971.42 197.429L2006.59 200.399L2009.63 200.568L2055.12 204.348L2055.86 205.74L2056.47 206.957L2068.43 230.018L2069.93 232.905L2069.07 230.02L2062.37 206.812L2061.91 205.368L2055.43 182.882L2049.61 162.797L2098 162.549L2171.99 161.496L2180.25 161.483L2198.52 161.351L2214.68 161.304L2215.46 161.347L2239.39 161.259L2316.35 160.878L2327.09 160.8L2415.64 160.389L2440.52 160.252L2542.05 159.752Z" fill="url(#paint13_linear_1421_612)"/>
<path fill-rule="evenodd" clip-rule="evenodd" d="M2453.84 179.032L2448.97 182.611L2493.54 199.312L2457.89 226.751L2376.9 234.981L2112.35 248.168C2112.35 248.168 2080.92 247.873 2036.02 246.321C2010.05 245.417 1979.63 244.097 1948.16 242.076C1934.45 241.313 1920.58 240.272 1906.75 239.165L1902.4 238.923C1890.83 237.942 1879.34 236.897 1868.15 235.701C1862.23 235.101 1856.4 234.472 1850.64 233.781C1847.11 233.348 1843.58 232.948 1840.11 232.486L1835.13 231.837C1816.2 229.365 1798.64 226.429 1783.41 223.184L1820.06 220.764L1822.95 220.553L1824.37 220.632L1831.58 220.188L1854.5 218.659L1894.93 216.01L1898.33 215.794L1911.49 214.938L1945.49 212.708L1956.07 212.013L1958.66 211.819L1967.6 211.269L1982.63 210.247L1983 210.268L2004.59 208.868L2036.42 206.754L2036.62 206.765L2055.84 205.503L2061.89 205.096L2079.5 203.948L2140.91 199.932L2176.04 197.663L2189.3 196.78L2235.44 193.739L2258.67 192.193L2292.91 189.943L2293.45 189.973L2324.23 187.969L2435.42 180.642L2453.84 179.032Z" fill="#147EA3"/>
<path fill-rule="evenodd" clip-rule="evenodd" d="M2196.41 199.236L2176.88 200.243L2142.63 202.02L2090.3 204.751C2090.3 204.751 2086.89 205.068 2080.91 205.445C2076.22 205.724 2069.93 206.05 2062.67 206.255C2060.77 206.351 2058.8 206.377 2056.77 206.399C2050.63 206.531 2043.95 206.565 2036.95 206.445L2036.74 206.434C2027.16 206.273 2017.06 205.812 2007.06 204.782C1992.72 203.764 1978.53 201.242 1964.72 197.259C1963.32 196.81 1961.92 196.394 1960.59 195.915C1960.59 195.915 1961.06 195.941 1962.03 195.59L1966.08 194.768C1970.6 193.837 1977.76 192.445 1986.79 190.886C1992.67 189.863 1999.37 188.783 2006.65 187.701C2021.2 185.605 2038.08 183.572 2055.57 182.281C2064.34 181.688 2073.31 181.241 2082.2 181.094C2088.33 181.03 2094.46 181.067 2100.48 181.3C2110.08 181.632 2118.96 182.328 2127.14 183.188L2132.06 183.698C2140.07 184.684 2147.36 185.799 2153.86 187.039C2161.74 188.524 2168.53 190.118 2174.24 191.551L2175.18 191.839L2175.99 191.884C2181.63 193.448 2185.98 194.94 2189.31 196.003C2191.73 196.955 2194.1 198.035 2196.41 199.236Z" fill="#147EA3"/>
<path fill-rule="evenodd" clip-rule="evenodd" d="M2542.05 159.752L2518.3 176.941L2448.97 182.611L2434.88 183.719L2294.39 195.126L2274.48 196.754C2274.48 196.754 2268.94 196.446 2259.33 195.54C2253.05 195.191 2245.04 194.272 2235.74 193.383C2224.45 192.249 2211.28 190.841 2197.01 189.135L2194.98 189.022C2189.9 188.402 2184.65 187.772 2179.31 187.036C2173.12 186.252 2166.9 185.399 2160.54 184.506C2152.88 183.404 2145.08 182.227 2137.26 180.981L2134.14 180.47C2118.62 177.952 2103.13 175.097 2088.36 171.945C2074.71 168.989 2061.6 165.795 2049.87 162.271C2071.52 152.53 2100.33 146.262 2133.07 142.442C2148.52 140.565 2164.82 139.242 2181.71 138.391C2190.81 137.952 2200.01 137.585 2209.38 137.363C2214.53 137.211 2219.72 137.128 2224.94 137.047C2252.27 136.742 2280.33 137.29 2307.91 138.452C2317.97 139.012 2327.95 139.511 2337.84 139.948L2351.93 140.732C2380.05 142.499 2406.96 144.705 2431.16 147.064L2439.72 147.878C2500.14 153.637 2542.05 159.752 2542.05 159.752Z" fill="#147EA3"/>
<path style="mix-blend-mode:multiply" opacity="0.2" fill-rule="evenodd" clip-rule="evenodd" d="M1811.92 355.665L1727.16 357.302L1743.33 304.187L1746.77 292.86L1754.93 294.091L1762.06 295.129L1813.84 302.873L1813.58 309.21L1811.92 355.665Z" fill="url(#paint14_linear_1421_612)"/>
<path style="mix-blend-mode:multiply" opacity="0.47" fill-rule="evenodd" clip-rule="evenodd" d="M2416.04 343.935L2415.67 343.948L2415.63 343.947L2413.36 343.989L2301.43 346.175L2216.61 347.807L2216.62 347.706L2212.8 301.723L2212.66 300.127L2287.82 279.007L2287.89 279.011L2387.81 250.89L2408.28 318.405L2416.04 343.935Z" fill="url(#paint15_linear_1421_612)"/>
<path fill-rule="evenodd" clip-rule="evenodd" d="M2387.81 250.89L2287.99 279.117L2212.85 300.239L2208.26 300.524C2193.59 301.262 2145.44 303.786 2084.53 306.006L2065.89 306.692C2023.63 308.158 1976.57 309.459 1930.97 310.064C1911.74 310.278 1892.76 310.405 1874.47 310.3C1863.7 310.241 1853.14 310.194 1842.95 309.999L1839.4 309.801C1830.64 309.652 1822.18 309.418 1814.03 309.167C1799.89 308.718 1786.75 308.089 1774.94 307.229L1773.65 307.158C1762.35 306.326 1752.34 305.331 1743.77 304.144L1739.17 303.449C1660.19 290.645 1656.29 270.667 1656.34 269.657L1658.39 269.366C1670.49 267.572 1684.03 265.995 1698.81 264.52C1704.63 263.943 1710.64 263.388 1716.86 262.855L1734.12 261.417C1745.07 260.574 1756.5 259.824 1768.13 259.052L1787.33 257.959C1793.66 257.567 1800.11 257.251 1806.63 256.938L1815.53 256.487C1831.23 255.739 1847.34 255.058 1863.86 254.446L1866.13 254.403C1867.87 254.297 1869.53 254.254 1871.36 254.187L1886.37 253.671L1901.6 253.201L1918.16 252.737L1924.64 252.557C1933.64 252.314 1942.69 252.142 1951.78 251.938C1979.23 251.303 1989.43 254.269 2016.82 253.901C2167.63 251.953 2327.62 250.075 2373.12 250.714L2387.81 250.89Z" fill="#147EA3"/>
<path style="mix-blend-mode:screen" fill-rule="evenodd" clip-rule="evenodd" d="M1989.98 250.533C1992.13 250.001 1994.4 249.541 1996.74 249.13C2014.28 246.106 2016.72 251.55 2043.67 247.17C2052.28 245.743 2061.5 244.122 2071.15 242.331L2068.26 243.129C2055.64 246.662 2047.1 249.711 2046.18 251.38C2045.67 252.3 2048.42 253.316 2053.66 254.308C2056.07 254.768 2058.99 255.227 2062.37 255.663C2101.36 260.72 2200.25 263.889 2245.99 248.743C2249.64 247.557 2247.59 243.904 2242.01 239.573C2239.49 237.641 2236.83 235.895 2234.05 234.346C2232.19 233.306 2230.21 232.266 2228.11 231.249C2223.83 229.164 2219.41 227.354 2214.89 225.83C2213.69 225.426 2212.45 225.039 2211.2 224.668C2204.22 222.537 2196.99 221.302 2189.7 220.99C2187.12 220.99 2183.98 220.99 2180.41 221.281C2205.43 216.272 2229.59 211.433 2250.58 207.296H2255.4C2231.59 211.433 2214.77 216.974 2218.51 223.749C2219.18 224.521 2220 225.147 2220.92 225.588L2222.3 226.386C2224.71 227.693 2228.07 229.314 2231.71 230.959L2238.73 234.08C2243.56 236.113 2247.95 238 2250.92 239.234L2254.27 240.613L2266.6 243.88C2266.6 243.88 2331.36 240.032 2358.29 259.413L2354.31 267.446L2260.64 294.303H2256.23C2252.7 294.303 2249.18 294.303 2245.7 294.303C2239.48 294.303 2233.3 294.303 2227.17 294.303L2233.86 281.068L2223.36 294.231C2212.1 293.989 2201.04 293.545 2190.18 292.9C2183.14 292.489 2176.19 291.981 2169.31 291.424C2165.81 291.134 2162.34 290.843 2158.89 290.505L2159.49 290.36C2202.92 278.842 2229.95 264.519 2234.29 259.8C2234.29 259.8 2125.13 264.373 2090.79 260.454C2080.9 259.341 2070.12 257.913 2059.14 256.631C2054.72 256.123 2050.28 255.615 2045.84 255.179C2027.31 253.34 2008.97 252.421 1994.18 254.526C1990.87 254.977 1987.59 255.648 1984.36 256.534C1980.48 257.662 1976.79 259.357 1973.41 261.567L1973.26 256.413C1978.6 253.843 1984.21 251.871 1989.98 250.533ZM2230.89 274.221C2243.24 280.101 2331.82 263.744 2333.2 256.244C2335.37 244.364 2265.9 244.46 2261.1 246.42C2256.3 248.38 2218.54 268.438 2230.89 274.221ZM2166.66 222.636C2171.63 221.982 2176.31 221.499 2180.22 221.208L2171.51 222.95C2137.34 229.749 2101.99 236.693 2071.08 242.307C2102.53 233.925 2134.45 227.389 2166.66 222.733V222.636Z" fill="url(#paint16_linear_1421_612)"/>
<path style="mix-blend-mode:screen" fill-rule="evenodd" clip-rule="evenodd" d="M2119.98 189.533C2122.13 189.001 2124.4 188.541 2126.74 188.13C2144.28 185.106 2146.72 190.55 2173.67 186.17C2182.28 184.743 2191.5 183.122 2201.15 181.331L2198.26 182.129C2185.64 185.662 2177.1 188.711 2176.18 190.38C2175.67 191.3 2178.42 192.316 2183.66 193.308C2186.07 193.768 2188.99 194.227 2192.37 194.663C2231.36 199.72 2330.25 202.889 2375.99 187.743C2379.64 186.557 2377.59 182.904 2372.01 178.573C2369.49 176.641 2366.83 174.895 2364.05 173.346C2362.19 172.306 2360.21 171.266 2358.11 170.249C2353.83 168.164 2349.41 166.354 2344.89 164.83C2343.69 164.426 2342.45 164.039 2341.2 163.668C2334.22 161.537 2326.99 160.302 2319.7 159.99C2317.12 159.99 2313.98 159.99 2310.41 160.281C2335.43 155.272 2359.59 150.433 2380.58 146.296H2385.4C2361.59 150.433 2344.77 155.974 2348.51 162.749C2349.18 163.521 2350 164.147 2350.92 164.588L2352.3 165.386C2354.71 166.693 2358.07 168.314 2361.71 169.959L2368.73 173.08C2373.56 175.113 2377.95 177 2380.92 178.234L2384.27 179.613L2396.6 182.88C2396.6 182.88 2461.36 179.032 2488.29 198.413L2484.31 206.446L2390.64 233.303H2386.23C2382.7 233.303 2379.18 233.303 2375.7 233.303C2369.48 233.303 2363.3 233.303 2357.17 233.303L2363.86 220.068L2353.36 233.231C2342.1 232.989 2331.04 232.545 2320.18 231.9C2313.14 231.489 2306.19 230.981 2299.31 230.424C2295.81 230.134 2292.34 229.843 2288.89 229.505L2289.49 229.36C2332.92 217.842 2359.95 203.519 2364.29 198.8C2364.29 198.8 2255.13 203.373 2220.79 199.454C2210.9 198.341 2200.12 196.913 2189.14 195.631C2184.72 195.123 2180.28 194.615 2175.84 194.179C2157.31 192.34 2138.97 191.421 2124.18 193.526C2120.87 193.977 2117.59 194.648 2114.36 195.534C2110.48 196.662 2106.79 198.357 2103.41 200.567L2103.26 195.413C2108.6 192.843 2114.21 190.871 2119.98 189.533ZM2360.89 213.221C2373.24 219.101 2461.82 202.744 2463.2 195.244C2465.37 183.364 2395.9 183.46 2391.1 185.42C2386.3 187.38 2348.54 207.438 2360.89 213.221ZM2296.66 161.636C2301.63 160.982 2306.31 160.499 2310.22 160.208L2301.51 161.95C2267.34 168.749 2231.99 175.693 2201.08 181.307C2232.53 172.925 2264.45 166.389 2296.66 161.733V161.636Z" fill="url(#paint17_linear_1421_612)"/>
<path style="mix-blend-mode:screen" fill-rule="evenodd" clip-rule="evenodd" d="M1669.98 289.533C1672.13 289.001 1674.4 288.541 1676.74 288.13C1694.28 285.106 1696.72 290.55 1723.67 286.17C1732.28 284.743 1741.5 283.122 1751.15 281.331L1748.26 282.129C1735.64 285.662 1727.1 288.711 1726.18 290.38C1725.67 291.3 1728.42 292.316 1733.66 293.308C1736.07 293.768 1738.99 294.227 1742.37 294.663C1781.36 299.72 1880.25 302.889 1925.99 287.743C1929.64 286.557 1927.59 282.904 1922.01 278.573C1919.49 276.641 1916.83 274.895 1914.05 273.346C1912.19 272.306 1910.21 271.266 1908.11 270.249C1903.83 268.164 1899.41 266.354 1894.89 264.83C1893.69 264.426 1892.45 264.039 1891.2 263.668C1884.22 261.537 1876.99 260.302 1869.7 259.99C1867.12 259.99 1863.98 259.99 1860.41 260.281C1885.43 255.272 1909.59 250.433 1930.58 246.296H1935.4C1911.59 250.433 1894.77 255.974 1898.51 262.749C1899.18 263.521 1900 264.147 1900.92 264.588L1902.3 265.386C1904.71 266.693 1908.07 268.314 1911.71 269.959L1918.73 273.08C1923.56 275.113 1927.95 277 1930.92 278.234L1934.27 279.613L1946.6 282.88C1946.6 282.88 2011.36 279.032 2038.29 298.413L2034.31 306.446L1940.64 333.303H1936.23C1932.7 333.303 1929.18 333.303 1925.7 333.303C1919.48 333.303 1913.3 333.303 1907.17 333.303L1913.86 320.068L1903.36 333.231C1892.1 332.989 1881.04 332.545 1870.18 331.9C1863.14 331.489 1856.19 330.981 1849.31 330.424C1845.81 330.134 1842.34 329.843 1838.89 329.505L1839.49 329.36C1882.92 317.842 1909.95 303.519 1914.29 298.8C1914.29 298.8 1805.13 303.373 1770.79 299.454C1760.9 298.341 1750.12 296.913 1739.14 295.631C1734.72 295.123 1730.28 294.615 1725.84 294.179C1707.31 292.34 1688.97 291.421 1674.18 293.526C1670.87 293.977 1667.59 294.648 1664.36 295.534C1660.48 296.662 1656.79 298.357 1653.41 300.567L1653.26 295.413C1658.6 292.843 1664.21 290.871 1669.98 289.533ZM1910.89 313.221C1923.24 319.101 2011.82 302.744 2013.2 295.244C2015.37 283.364 1945.9 283.46 1941.1 285.42C1936.3 287.38 1898.54 307.438 1910.89 313.221ZM1846.66 261.636C1851.63 260.982 1856.31 260.499 1860.22 260.208L1851.51 261.95C1817.34 268.749 1781.99 275.693 1751.08 281.307C1782.53 272.925 1814.45 266.389 1846.66 261.733V261.636Z" fill="url(#paint18_linear_1421_612)"/>
<path style="mix-blend-mode:screen" fill-rule="evenodd" clip-rule="evenodd" d="M1799.98 228.533C1802.13 228.001 1804.4 227.541 1806.74 227.13C1824.28 224.106 1826.72 229.55 1853.67 225.17C1862.28 223.743 1871.5 222.122 1881.15 220.331L1878.26 221.129C1865.64 224.662 1857.1 227.711 1856.18 229.38C1855.67 230.3 1858.42 231.316 1863.66 232.308C1866.07 232.768 1868.99 233.227 1872.37 233.663C1911.36 238.72 2010.25 241.889 2055.99 226.743C2059.64 225.557 2057.59 221.904 2052.01 217.573C2049.49 215.641 2046.83 213.895 2044.05 212.346C2042.19 211.306 2040.21 210.266 2038.11 209.249C2033.83 207.164 2029.41 205.354 2024.89 203.83C2023.69 203.426 2022.45 203.039 2021.2 202.668C2014.22 200.537 2006.99 199.302 1999.7 198.99C1997.12 198.99 1993.98 198.99 1990.41 199.281C2015.43 194.272 2039.59 189.433 2060.58 185.296H2065.4C2041.59 189.433 2024.77 194.974 2028.51 201.749C2029.18 202.521 2030 203.147 2030.92 203.588L2032.3 204.386C2034.71 205.693 2038.07 207.314 2041.71 208.959L2048.73 212.08C2053.56 214.113 2057.95 216 2060.92 217.234L2064.27 218.613L2076.6 221.88C2076.6 221.88 2141.36 218.032 2168.29 237.413L2164.31 245.446L2070.64 272.303H2066.23C2062.7 272.303 2059.18 272.303 2055.7 272.303C2049.48 272.303 2043.3 272.303 2037.17 272.303L2043.86 259.068L2033.36 272.231C2022.1 271.989 2011.04 271.545 2000.18 270.9C1993.14 270.489 1986.19 269.981 1979.31 269.424C1975.81 269.134 1972.34 268.843 1968.89 268.505L1969.49 268.36C2012.92 256.842 2039.95 242.519 2044.29 237.8C2044.29 237.8 1935.13 242.373 1900.79 238.454C1890.9 237.341 1880.12 235.913 1869.14 234.631C1864.72 234.123 1860.28 233.615 1855.84 233.179C1837.31 231.34 1818.97 230.421 1804.18 232.526C1800.87 232.977 1797.59 233.648 1794.36 234.534C1790.48 235.662 1786.79 237.357 1783.41 239.567L1783.26 234.413C1788.6 231.843 1794.21 229.871 1799.98 228.533ZM2040.89 252.221C2053.24 258.101 2141.82 241.744 2143.2 234.244C2145.37 222.364 2075.9 222.46 2071.1 224.42C2066.3 226.38 2028.54 246.438 2040.89 252.221ZM1976.66 200.636C1981.63 199.982 1986.31 199.499 1990.22 199.208L1981.51 200.95C1947.34 207.749 1911.99 214.693 1881.08 220.307C1912.53 211.925 1944.45 205.389 1976.66 200.733V200.636Z" fill="url(#paint19_linear_1421_612)"/>
<path fill-rule="evenodd" clip-rule="evenodd" d="M2413.1 172.134L2411.11 177.484L2406.78 189.026L2406.02 191.024L2403.69 197.338L2399.56 208.362L2383.3 208.537L2315.59 209.276L2312.41 209.296L2312.17 208.755L2311.56 207.263L2311.3 206.615L2311.08 206.594L2291.99 205.745L2254.9 204.086L2253.65 200.062L2253.54 199.69L2249.49 199.424L2241.07 198.85L2203.63 196.342L2201.92 192.355L2195.26 176.649L2194.76 175.465L2194.5 174.901L2224.4 166.972L2228.65 165.836L2238.18 163.304L2257.42 158.211L2265.38 156.083L2264.01 153.025L2260.17 144.419L2258.44 140.571L2257.19 137.742L2257.31 137.724L2308.58 129.838L2311 129.471L2321.43 130.443L2406.17 138.424L2405.14 140.782L2397.89 157.21L2395.37 162.872L2406.75 168.841L2413.1 172.134Z" fill="url(#paint20_linear_1421_612)"/>
<path fill-rule="evenodd" clip-rule="evenodd" d="M2321.76 131.431C2321.76 131.431 2311.97 133.236 2300 135.104C2282.55 137.814 2260.45 140.578 2257.33 137.768C2256.73 137.224 2256.83 136.5 2257.75 135.501C2266.99 126.036 2305.31 104.372 2318.78 125.044C2319.87 126.742 2320.75 128.567 2321.41 130.479C2321.58 130.759 2321.67 131.063 2321.76 131.431Z" fill="url(#paint21_linear_1421_612)"/>
<path style="mix-blend-mode:multiply" opacity="0.36" fill-rule="evenodd" clip-rule="evenodd" d="M2301.67 172.026L2301.16 203.968L2323.63 206.318L2321.86 182.802L2362.99 157.423L2363.84 150.83L2278.21 160.637L2283.25 168.07L2301.67 172.026Z" fill="url(#paint22_linear_1421_612)"/>
<path fill-rule="evenodd" clip-rule="evenodd" d="M2413.1 172.134C2413.1 172.134 2406.32 173.639 2396.41 175.648C2380.64 178.861 2356.98 183.267 2340.57 184.794C2330.93 185.7 2323.77 185.591 2322.24 183.614C2322.04 183.376 2321.92 183.08 2321.91 182.769C2321.98 181.988 2322.33 181.258 2322.89 180.709C2327.26 175.91 2332.26 171.731 2337.75 168.286C2343.78 164.279 2350.21 160.926 2356.94 158.285C2359 157.477 2361.04 156.769 2363.15 156.136C2374.95 152.548 2387.4 151.841 2397.79 157.191C2403.46 160.132 2408.25 164.543 2411.66 169.97C2412.2 170.669 2412.66 171.394 2413.1 172.134Z" fill="url(#paint23_linear_1421_612)"/>
<path style="mix-blend-mode:multiply" opacity="0.36" fill-rule="evenodd" clip-rule="evenodd" d="M2251.93 175.874L2254.06 198.513L2241.07 198.85L2226.72 167.884L2277.88 147.499L2278.62 175.271L2251.93 175.874Z" fill="url(#paint24_linear_1421_612)"/>
<path fill-rule="evenodd" clip-rule="evenodd" d="M2274.29 154.916C2272.39 156.605 2270.36 158.152 2268.23 159.544C2260.76 164.422 2252.55 168.065 2243.93 170.335C2242.55 170.713 2241.21 171.059 2239.86 171.382C2236.28 172.232 2232.71 172.9 2229.21 173.499C2217.71 175.256 2206.06 175.771 2194.45 175.036C2194.12 170.544 2195.36 166.073 2197.96 162.394C2199.01 160.796 2200.23 159.313 2201.6 157.971C2201.8 157.756 2202.01 157.555 2202.24 157.372C2204.28 155.444 2206.49 153.723 2208.86 152.234C2215.72 148.037 2223.21 145.007 2231.04 143.267C2239.99 141.119 2249.19 140.262 2258.37 140.723C2266.99 141.211 2273.76 143.102 2276.48 146.187C2276.93 146.669 2277.28 147.231 2277.52 147.845C2278.39 149.675 2277.46 152.115 2274.29 154.916Z" fill="url(#paint25_linear_1421_612)"/>
<path fill-rule="evenodd" clip-rule="evenodd" d="M2405.14 140.782C2399.92 146.72 2383.05 151.744 2363.24 155.555C2359.65 156.219 2355.96 156.864 2352.22 157.439C2332.45 160.648 2312.47 162.397 2292.44 162.674C2285.73 162.646 2280.77 162.188 2278.55 161.256L2278.21 161.193C2278.05 161.128 2277.89 161.044 2277.75 160.941C2277.58 160.85 2277.45 160.713 2277.36 160.547C2277.27 160.38 2277.23 160.191 2277.25 160.002C2277.39 159.094 2277.69 158.217 2278.12 157.408C2280.14 153.614 2282.72 150.149 2285.77 147.13C2292.47 140.311 2300.16 134.543 2308.56 130.021C2311.88 128.215 2315.29 126.602 2318.79 125.191C2341.02 116.272 2365.73 115.908 2388.17 124.169C2405.69 130.077 2409.55 135.743 2405.14 140.782Z" fill="url(#paint26_linear_1421_612)"/>
<path fill-rule="evenodd" clip-rule="evenodd" d="M2339.45 196.383C2338.63 184.945 2353.44 189.768 2357.97 193.029C2362.51 196.289 2339.45 196.383 2339.45 196.383Z" fill="url(#paint27_linear_1421_612)"/>
<path fill-rule="evenodd" clip-rule="evenodd" d="M2311.11 207.261C2309.29 182.209 2341.66 192.824 2351.55 199.934C2361.45 207.044 2311.11 207.261 2311.11 207.261Z" fill="url(#paint28_linear_1421_612)"/>
<path fill-rule="evenodd" clip-rule="evenodd" d="M161.359 118.493C156.458 118.305 153.198 132.513 152.72 134.734C153.281 131.591 158.057 103.153 150.477 98.9623C145.119 96.0075 143.583 110.677 143.105 120.631C143.105 114.7 142.648 107.827 139.907 107.491C137.83 107.219 136.335 111.389 135.421 116.02C136.21 108.413 136.709 99.8424 135.172 99.2556C133.635 98.6689 132.223 107.386 131.018 116.02C132.181 103.635 132.887 88.5682 129.918 86.2421C124.809 82.3024 121.756 128.154 121.756 128.699C121.756 127.295 119.036 83.0777 112.889 81.9671C109.109 81.2755 110.376 100.555 111.934 115.685C109.857 100.534 106.16 81.1498 101.55 81.2965C94.1984 81.5689 103.232 132.073 103.294 133.854C103.213 133.674 103.157 133.483 103.128 133.288C101.861 128.049 94.6138 92.8431 87.0546 90.8523C83.005 89.8046 83.898 100.806 85.7878 111.976C85.7956 112.115 85.7956 112.255 85.7878 112.395C86.5562 116.838 87.4699 121.259 88.2798 124.968C89.3597 129.956 90.2527 133.581 90.3565 134C90.1489 133.56 87.013 127.714 82.9635 120.882C76.7333 110.404 68.4265 97.6001 65.1038 98.7317C61.7811 99.8634 63.0271 115.266 72.5176 129.537C75.3964 133.905 78.8948 137.824 82.9012 141.167C83.184 141.443 83.4822 141.702 83.7941 141.943C86.6531 144.273 89.7594 146.276 93.0562 147.915C93.1349 147.965 93.2184 148.007 93.3054 148.041C95.9692 149.38 98.75 150.467 101.612 151.289C102.9 151.708 104.229 152.064 105.6 152.379L106.7 152.609C107.842 152.861 108.985 153.091 110.106 153.28C113.076 153.846 115.962 154.244 118.724 154.516C124.242 155.108 129.797 155.255 135.338 154.956L137.664 154.789C138.785 154.789 139.844 154.6 140.883 154.474L143.686 154.118C148.351 153.528 152.94 152.432 157.372 150.849C157.372 150.849 166.675 118.682 161.359 118.493ZM142.856 127.777C142.856 128.573 142.856 129.055 142.856 129.16C142.856 129.264 142.835 128.573 142.856 127.777Z" fill="url(#paint29_linear_1421_612)"/>
<path fill-rule="evenodd" clip-rule="evenodd" d="M137.643 154.83C137.29 156.276 136.875 157.094 136.418 156.926C135.961 156.758 135.65 156.067 135.317 155.019C133.697 150.073 133.033 137.29 136.48 135.006C139.388 133.036 139.055 149.005 137.643 154.83Z" fill="url(#paint30_linear_1421_612)"/>
<path fill-rule="evenodd" clip-rule="evenodd" d="M143.666 154.16C142.939 155.669 142.191 156.633 141.402 156.737C141.049 156.737 140.862 155.941 140.862 154.516C140.862 148.439 143.5 131.716 146.656 128.174C149.813 124.633 147.321 146.469 143.666 154.16Z" fill="url(#paint31_linear_1421_612)"/>
<path fill-rule="evenodd" clip-rule="evenodd" d="M118.704 154.558C118.214 160.007 117.374 165.418 116.191 170.757C108.028 175.918 98.916 179.361 89.4014 180.879C88.4669 181.046 87.47 181.193 86.494 181.319C72.2922 183.165 57.8607 181.041 44.7729 175.179C44.7729 175.179 19.4164 137.94 24.7327 133.937C30.0491 129.935 46.7043 171.784 48.3864 172.224C50.0685 172.664 17.9211 113.38 25.6465 108.057C31.8766 103.866 42.1148 129.537 45.8321 139.491C42.9247 131.108 36.6323 111.934 39.602 110.781C42.5716 109.629 50.4216 141.146 53.1421 151.037C53.682 153.007 54.0143 154.118 54.0974 153.929C54.0261 153.088 53.8589 152.259 53.5989 151.456C51.5222 143.368 44.1292 117.403 43.6723 102.86C43.5062 97.139 44.3991 93.2202 47.0989 92.8011C52.8306 91.9 57.9393 111.033 61.6358 129.18C64.8962 145.505 66.9522 160.991 67.1806 160.488C67.679 159.441 61.3866 121.364 66.703 122.202C69.6104 122.663 72.4554 133.937 74.4283 144.038C73.7222 139.344 73.0369 134.189 72.6008 129.369C71.8117 120.987 71.7701 114.029 73.7015 113.233C76.8996 111.892 80.5961 128.552 82.8805 141C83.4412 144.101 83.8981 146.909 84.2719 149.13C84.6457 151.352 84.9157 153.196 84.9987 153.825C84.9987 153.196 84.7288 151.352 84.438 148.795C84.2304 146.825 84.0019 144.415 83.7735 141.775C83.1001 134.812 82.8573 127.813 83.0466 120.819C83.2958 115.832 84.085 112.227 85.7879 111.913C85.8625 111.891 85.9417 111.891 86.0163 111.913C86.4284 111.918 86.8227 112.083 87.117 112.374C88.0235 113.441 88.6769 114.702 89.0276 116.062C91.2704 123.145 92.4334 137.689 93.0148 147.831C93.0148 148.02 93.0148 148.208 93.0148 148.376C93.0148 150.325 93.2017 152.064 93.264 153.573C93.264 154.076 93.264 154.558 93.264 154.998C93.264 154.642 93.264 154.265 93.264 153.866C93.264 152.169 93.264 150.115 93.264 147.936V146.029C93.534 136.578 94.78 125.576 99.1619 127.42C100.699 128.07 101.965 130.207 102.983 133.183L103.17 133.707C104.887 139.82 106.006 146.088 106.513 152.42C107.386 161.075 107.573 168.598 107.573 168.598C107.573 168.598 108.59 160.656 109.919 153.091C111.082 146.259 112.515 139.721 113.678 139.554C118.704 139.093 119.306 146.7 118.704 154.558Z" fill="url(#paint32_linear_1421_612)"/>
<path fill-rule="evenodd" clip-rule="evenodd" d="M61.6356 129.264C61.511 131.129 61.1788 132.261 60.618 132.345C55.3017 133.016 45.0427 115.266 43.7137 103.007C43.5475 97.2858 44.4405 93.3671 47.1402 92.9479C52.8719 91.984 57.9806 111.117 61.6356 129.264Z" fill="url(#paint33_linear_1421_612)"/>
<path fill-rule="evenodd" clip-rule="evenodd" d="M71.4794 151.1C67.326 152.84 74.5737 161.578 77.5019 161.914C80.43 162.249 75.0513 149.466 71.4794 151.1Z" fill="url(#paint34_linear_1421_612)"/>
<path fill-rule="evenodd" clip-rule="evenodd" d="M77.8755 154.453C75.7988 154.726 72.7668 142.404 76.0687 139.889C79.3707 137.374 83.1503 153.741 77.8755 154.453Z" fill="url(#paint35_linear_1421_612)"/>
<path fill-rule="evenodd" clip-rule="evenodd" d="M98.1442 162.333C93.3055 162.542 90.1697 142.865 96.6906 142.655C103.211 142.446 102.921 162.123 98.1442 162.333Z" fill="url(#paint36_linear_1421_612)"/>
<path fill-rule="evenodd" clip-rule="evenodd" d="M59.8082 164.491C57.7315 166.587 43.4022 152.337 46.4134 148.628C47.5764 147.203 50.3799 148.628 53.1835 151.121L53.6404 151.54C57.9807 155.606 62.1133 162.102 59.8082 164.491Z" fill="url(#paint37_linear_1421_612)"/>
<path fill-rule="evenodd" clip-rule="evenodd" d="M89.4013 180.879C89.1736 181.619 88.8451 182.325 88.4253 182.974C87.8645 183.792 87.2 182.974 86.4939 181.382C83.9811 175.095 81.3437 155.669 84.2718 149.361C84.3103 149.242 84.3663 149.129 84.438 149.026L84.5626 148.795C88.5706 142.194 92.9109 170.673 89.4013 180.879Z" fill="url(#paint38_linear_1421_612)"/>
<path fill-rule="evenodd" clip-rule="evenodd" d="M87.3039 125.723C85.2272 126.289 82.8183 113.464 86.0787 112.29C89.3391 111.117 91.1874 124.612 87.3039 125.723Z" fill="url(#paint39_linear_1421_612)"/>
<path fill-rule="evenodd" clip-rule="evenodd" d="M61.3865 154.872C58.4999 154.998 55.4679 144.185 58.8529 143.975C62.238 143.766 63.7955 154.768 61.3865 154.872Z" fill="url(#paint40_linear_1421_612)"/>
<path fill-rule="evenodd" clip-rule="evenodd" d="M79.1424 131.171C71.3547 132.743 71.417 113.191 74.4283 113.82C77.4395 114.449 80.6999 130.857 79.1424 131.171Z" fill="url(#paint41_linear_1421_612)"/>
<path style="mix-blend-mode:screen" fill-rule="evenodd" clip-rule="evenodd" d="M38.5428 178.993C38.3559 181.863 24.7951 165.916 24.8158 160.845C24.8366 155.773 38.8751 173.418 38.5428 178.993Z" fill="url(#paint42_linear_1421_612)"/>
<path fill-rule="evenodd" clip-rule="evenodd" d="M409.882 236.99V238.515L408.82 276.139L408.675 281.293L408.144 303.504L397.986 320.973L389.468 335.491C395.09 335.491 391.037 337.765 379.816 341.298C376.752 342.266 373.108 343.33 369.006 344.468C362.154 346.355 353.974 348.46 344.684 350.734C333.971 353.347 321.785 356.154 308.49 359.058C278.835 365.494 243.558 372.317 206.447 378.414C195.71 380.156 184.731 381.802 173.872 383.253L171.87 383.544L163.159 384.753C146.944 386.979 130.657 388.939 114.587 390.56C71.0332 395.012 29.3136 396.948 -4.9501 394.528C-30.9133 392.69 -52.6297 388.334 -67.6864 380.664C-86.5797 370.986 -94.7595 356.009 -87.207 334.063C-86.3946 331.71 -85.4603 329.4 -84.408 327.143C-84.0702 326.442 -73.4533 315.384 -59.3618 300.891C-30.6237 271.324 12.6161 227.36 12.6161 227.36L126.579 226.925H131.405L290.658 226.32L290.924 237.885L291.165 248.798L294.785 237.692L297.342 229.877L337.373 228.11L339.303 235.611L344.129 253.806L409.882 236.99Z" fill="url(#paint43_linear_1421_612)"/>
<path fill-rule="evenodd" clip-rule="evenodd" d="M392.098 270.138C390.782 271.6 389.371 272.974 387.876 274.251C385.468 276.383 382.697 278.063 379.696 279.211C347.893 290.608 291.382 303.819 223.193 310.23C219.742 310.569 216.268 310.859 212.769 311.15C205.892 311.706 198.943 312.214 191.897 312.626C181.039 313.271 169.98 313.715 158.719 313.957H154.907C148.778 313.957 142.601 314.102 136.375 313.957C132.901 313.957 129.378 313.957 125.855 313.957H121.439L27.7934 287.123L23.8121 279.091L12.6885 256.782C12.6885 256.782 44.0566 254.363 88.9613 251.048L122.236 248.628C134.3 247.757 146.896 246.886 159.805 246.015L167.189 245.507C277.484 238.03 406.914 230.627 409.906 236.748C410.943 238.901 403.318 257.992 392.098 270.138Z" fill="#147EA3"/>
<path fill-rule="evenodd" clip-rule="evenodd" d="M290.851 226.296C290.851 226.296 252.245 234.571 201.862 240.813C191.945 242.047 181.57 243.233 170.953 244.249L161.301 245.12C112.632 249.257 60.0785 249.765 22.7262 239.41L12.8091 227.312L126.772 226.876H131.598L290.851 226.296Z" fill="#147EA3"/>
<path fill-rule="evenodd" clip-rule="evenodd" d="M297.535 229.852C310.662 237.353 337.638 229.852 337.638 228.086C337.638 226.32 297.535 229.852 297.535 229.852Z" fill="#0C82DD"/>
<path style="mix-blend-mode:multiply" opacity="0.5" fill-rule="evenodd" clip-rule="evenodd" d="M350.741 288.745L350.065 288.333C341.439 283.44 332.345 279.428 322.919 276.356C321.882 275.994 320.796 275.655 319.71 275.316C315.102 273.889 310.059 272.534 304.774 271.421L303.471 270.937L328.517 273.961L336.311 274.905L377.741 279.937H378.345V282.478L379.286 324.264L379.648 341.201V344.613V345.048L344.274 352.186L344.419 350.637L345.118 343.814L346.928 325.934L350.741 288.745Z" fill="url(#paint44_linear_1421_612)"/>
<path style="mix-blend-mode:multiply" opacity="0.5" fill-rule="evenodd" clip-rule="evenodd" d="M-69.0376 382.842L12.6885 256.976L27.7693 287.317L-9.1727 408.296L-69.0376 382.842Z" fill="url(#paint45_linear_1421_612)"/>
<path style="mix-blend-mode:multiply" opacity="0.7" fill-rule="evenodd" clip-rule="evenodd" d="M215.23 311.077L203.576 397.504L306.246 367.066L323.643 296.124L215.23 311.077Z" fill="url(#paint46_linear_1421_612)"/>
<path style="mix-blend-mode:screen" fill-rule="evenodd" clip-rule="evenodd" d="M392.098 270.138C389.951 269.606 387.683 269.146 385.342 268.735C367.8 265.711 365.363 271.155 338.411 266.775C329.796 265.348 320.579 263.726 310.927 261.936L313.823 262.734C326.442 266.267 334.984 269.316 335.901 270.985C336.408 271.905 333.657 272.921 328.421 273.913C326.008 274.373 323.088 274.832 319.71 275.268C280.717 280.325 181.835 283.494 136.086 268.348C132.443 267.162 134.494 263.509 140.067 259.178C142.593 257.246 145.254 255.5 148.03 253.951C149.888 252.911 151.867 251.871 153.966 250.854C158.255 248.769 162.671 246.959 167.189 245.434C168.395 245.031 169.626 244.644 170.881 244.273C177.863 242.142 185.087 240.907 192.38 240.595C194.962 240.595 198.098 240.595 201.67 240.886C176.647 235.877 152.494 231.038 131.501 226.901H126.676C150.491 231.038 167.309 236.579 163.569 243.354C162.9 244.126 162.078 244.752 161.156 245.193L159.781 245.991C157.368 247.298 154.014 248.919 150.371 250.564L143.349 253.685C138.523 255.718 134.132 257.605 131.164 258.839L127.81 260.218L115.48 263.485C115.48 263.485 50.7164 259.637 23.7881 279.018L27.7694 287.051L121.44 313.908H125.855C129.378 313.908 132.901 313.908 136.376 313.908C142.601 313.908 148.778 313.908 154.907 313.908L148.223 300.673L158.719 313.836C169.98 313.594 181.039 313.15 191.897 312.505C198.943 312.094 205.892 311.586 212.769 311.029C216.268 310.739 219.742 310.448 223.193 310.11L222.59 309.964C179.157 298.447 152.132 284.123 147.789 279.405C147.789 279.405 256.95 283.978 291.286 280.059C301.179 278.946 311.965 277.518 322.944 276.236C327.359 275.728 331.799 275.219 336.239 274.784C354.77 272.945 373.109 272.026 387.9 274.131C391.214 274.582 394.495 275.253 397.721 276.139C401.599 277.267 405.291 278.962 408.675 281.172L408.82 276.018C403.479 273.448 397.871 271.476 392.098 270.138ZM151.191 293.826C138.837 299.705 50.258 283.349 48.8826 275.849C46.711 263.968 116.179 264.065 120.981 266.025C125.783 267.985 163.545 288.043 151.191 293.826ZM215.423 242.241C210.453 241.587 205.772 241.103 201.863 240.813L210.573 242.555C244.74 249.354 280.09 256.298 311 261.912C279.547 253.53 247.634 246.994 215.423 242.337V242.241Z" fill="url(#paint47_linear_1421_612)"/>
<path style="mix-blend-mode:multiply" opacity="0.86" fill-rule="evenodd" clip-rule="evenodd" d="M230.094 235.514L178.867 255.355L182.27 258.452L112.56 311.077L35.5391 290.269L36.2147 267.428L123.273 241.926L230.094 235.514Z" fill="url(#paint48_linear_1421_612)"/>
<path fill-rule="evenodd" clip-rule="evenodd" d="M157.192 233.647C160.753 233.508 163.123 243.955 163.47 245.588C163.062 243.277 159.592 222.368 165.099 219.286C168.992 217.113 170.109 227.899 170.456 235.218C170.456 230.858 170.788 225.804 172.78 225.557C174.289 225.357 175.375 228.423 176.039 231.828C175.466 226.235 175.104 219.933 176.22 219.502C177.337 219.07 178.363 225.48 179.238 231.828C178.393 222.722 177.88 211.643 180.038 209.933C183.75 207.036 185.968 240.75 185.968 241.151C185.968 240.118 187.945 207.606 192.412 206.789C195.158 206.281 194.238 220.457 193.106 231.582C194.615 220.441 197.301 206.188 200.651 206.296C205.992 206.497 199.428 243.632 199.383 244.941C199.442 244.809 199.483 244.669 199.504 244.525C200.424 240.673 205.691 214.786 211.183 213.323C214.126 212.552 213.477 220.642 212.104 228.855C212.098 228.957 212.098 229.06 212.104 229.163C211.546 232.429 210.882 235.681 210.293 238.408C209.508 242.075 208.86 244.741 208.784 245.049C208.935 244.726 211.214 240.427 214.156 235.403C218.683 227.699 224.719 218.284 227.133 219.116C229.548 219.948 228.642 231.274 221.746 241.767C219.654 244.979 217.112 247.861 214.201 250.319C213.996 250.521 213.779 250.712 213.552 250.889C211.475 252.603 209.218 254.075 206.822 255.281C206.765 255.317 206.705 255.348 206.641 255.373C204.706 256.358 202.685 257.157 200.605 257.761C199.67 258.07 198.704 258.331 197.708 258.563L196.908 258.732C196.079 258.917 195.249 259.086 194.434 259.225C192.276 259.641 190.178 259.934 188.172 260.134C184.162 260.57 180.126 260.678 176.1 260.458L174.41 260.335C173.595 260.335 172.825 260.196 172.071 260.103L170.034 259.842C166.644 259.408 163.31 258.602 160.09 257.438C160.09 257.438 153.329 233.785 157.192 233.647ZM170.637 240.473C170.637 241.058 170.637 241.413 170.637 241.49C170.637 241.567 170.652 241.058 170.637 240.473Z" fill="url(#paint49_linear_1421_612)"/>
<path fill-rule="evenodd" clip-rule="evenodd" d="M174.425 260.365C174.681 261.428 174.983 262.029 175.315 261.906C175.647 261.783 175.873 261.274 176.115 260.504C177.292 256.868 177.775 247.468 175.27 245.789C173.157 244.34 173.399 256.082 174.425 260.365Z" fill="url(#paint50_linear_1421_612)"/>
<path fill-rule="evenodd" clip-rule="evenodd" d="M170.049 259.872C170.577 260.982 171.12 261.69 171.693 261.767C171.95 261.767 172.086 261.182 172.086 260.134C172.086 255.666 170.169 243.369 167.876 240.765C165.582 238.161 167.393 254.217 170.049 259.872Z" fill="url(#paint51_linear_1421_612)"/>
<path fill-rule="evenodd" clip-rule="evenodd" d="M188.187 260.165C188.543 264.171 189.153 268.15 190.012 272.076C195.943 275.871 202.565 278.403 209.478 279.518C210.157 279.642 210.881 279.749 211.591 279.842C221.91 281.199 232.396 279.638 241.906 275.327C241.906 275.327 260.331 247.946 256.468 245.003C252.605 242.06 240.503 272.831 239.28 273.155C238.058 273.478 261.417 229.887 255.804 225.973C251.277 222.891 243.837 241.767 241.136 249.086C243.249 242.923 247.821 228.824 245.663 227.976C243.505 227.129 237.802 250.303 235.825 257.576C235.432 259.025 235.191 259.841 235.131 259.703C235.182 259.084 235.304 258.474 235.493 257.885C237.002 251.937 242.374 232.845 242.706 222.152C242.826 217.945 242.178 215.064 240.216 214.756C236.051 214.093 232.339 228.161 229.653 241.505C227.284 253.508 225.79 264.896 225.624 264.526C225.262 263.755 229.834 235.758 225.971 236.374C223.859 236.713 221.791 245.003 220.358 252.43C220.871 248.978 221.369 245.188 221.686 241.644C222.259 235.48 222.289 230.365 220.886 229.779C218.562 228.793 215.876 241.043 214.216 250.196C213.809 252.476 213.477 254.541 213.205 256.174C212.934 257.807 212.738 259.163 212.677 259.626C212.677 259.163 212.873 257.807 213.085 255.928C213.235 254.479 213.401 252.707 213.567 250.766C214.057 245.646 214.233 240.499 214.096 235.357C213.915 231.69 213.341 229.039 212.104 228.808C212.05 228.792 211.992 228.792 211.938 228.808C211.638 228.812 211.352 228.933 211.138 229.147C210.479 229.932 210.005 230.859 209.75 231.859C208.12 237.067 207.275 247.761 206.853 255.219C206.853 255.358 206.853 255.496 206.853 255.619C206.853 257.052 206.717 258.331 206.671 259.441C206.671 259.811 206.671 260.165 206.671 260.489C206.671 260.227 206.671 259.949 206.671 259.657C206.671 258.408 206.671 256.898 206.671 255.296V253.894C206.475 246.944 205.57 238.855 202.386 240.211C201.269 240.688 200.349 242.26 199.609 244.448L199.474 244.833C198.226 249.328 197.413 253.937 197.044 258.593C196.41 264.957 196.275 270.489 196.275 270.489C196.275 270.489 195.535 264.649 194.569 259.086C193.724 254.063 192.683 249.256 191.838 249.132C188.187 248.793 187.749 254.387 188.187 260.165Z" fill="url(#paint52_linear_1421_612)"/>
<path fill-rule="evenodd" clip-rule="evenodd" d="M229.653 241.567C229.744 242.938 229.985 243.77 230.393 243.832C234.256 244.325 241.71 231.274 242.676 222.26C242.796 218.053 242.148 215.172 240.186 214.863C236.021 214.155 232.309 228.223 229.653 241.567Z" fill="url(#paint53_linear_1421_612)"/>
<path fill-rule="evenodd" clip-rule="evenodd" d="M222.501 257.623C225.518 258.902 220.252 265.327 218.125 265.574C215.997 265.82 219.905 256.421 222.501 257.623Z" fill="url(#paint54_linear_1421_612)"/>
<path fill-rule="evenodd" clip-rule="evenodd" d="M217.853 260.088C219.362 260.288 221.565 251.228 219.166 249.379C216.767 247.53 214.02 259.564 217.853 260.088Z" fill="url(#paint55_linear_1421_612)"/>
<path fill-rule="evenodd" clip-rule="evenodd" d="M203.125 265.882C206.641 266.036 208.92 251.567 204.182 251.413C199.444 251.259 199.655 265.728 203.125 265.882Z" fill="url(#paint56_linear_1421_612)"/>
<path fill-rule="evenodd" clip-rule="evenodd" d="M230.981 267.469C232.49 269.01 242.902 258.532 240.714 255.804C239.869 254.757 237.832 255.804 235.795 257.638L235.463 257.946C232.309 260.936 229.306 265.712 230.981 267.469Z" fill="url(#paint57_linear_1421_612)"/>
<path fill-rule="evenodd" clip-rule="evenodd" d="M209.478 279.518C209.644 280.063 209.882 280.582 210.187 281.059C210.595 281.66 211.078 281.059 211.591 279.888C213.417 275.266 215.333 260.982 213.205 256.344C213.177 256.256 213.137 256.173 213.085 256.097L212.994 255.928C210.082 251.074 206.928 272.014 209.478 279.518Z" fill="url(#paint58_linear_1421_612)"/>
<path fill-rule="evenodd" clip-rule="evenodd" d="M211.002 238.963C212.511 239.379 214.262 229.949 211.892 229.086C209.523 228.223 208.18 238.146 211.002 238.963Z" fill="url(#paint59_linear_1421_612)"/>
<path fill-rule="evenodd" clip-rule="evenodd" d="M229.834 260.396C231.932 260.489 234.135 252.538 231.675 252.384C229.216 252.23 228.084 260.319 229.834 260.396Z" fill="url(#paint60_linear_1421_612)"/>
<path fill-rule="evenodd" clip-rule="evenodd" d="M216.933 242.969C222.591 244.125 222.546 229.748 220.358 230.211C218.17 230.673 215.801 242.738 216.933 242.969Z" fill="url(#paint61_linear_1421_612)"/>
<path style="mix-blend-mode:screen" fill-rule="evenodd" clip-rule="evenodd" d="M246.433 278.132C246.569 280.243 256.422 268.517 256.407 264.788C256.392 261.059 246.191 274.033 246.433 278.132Z" fill="url(#paint62_linear_1421_612)"/>
<defs>
<linearGradient id="paint0_linear_1421_612" x1="-73.6347" y1="107.899" x2="-68.8552" y2="195.123" gradientUnits="userSpaceOnUse">
<stop stop-color="#1C7B9D"/>
<stop offset="0.37" stop-color="#036284"/>
<stop offset="0.99" stop-color="#024F6A"/>
</linearGradient>
<linearGradient id="paint1_linear_1421_612" x1="36.9018" y1="227.692" x2="210.602" y2="180.558" gradientUnits="userSpaceOnUse">
<stop stop-color="#38327F"/>
<stop offset="1" stop-color="#7B92FF"/>
</linearGradient>
<linearGradient id="paint2_linear_1421_612" x1="36.9018" y1="227.692" x2="210.602" y2="180.558" gradientUnits="userSpaceOnUse">
<stop stop-color="#104360"/>
<stop offset="1" stop-color="#13817A"/>
</linearGradient>
<linearGradient id="paint3_linear_1421_612" x1="35.8884" y1="-290.314" x2="34.3113" y2="365.559" gradientUnits="userSpaceOnUse">
<stop stop-color="#2B33C4"/>
<stop offset="1" stop-color="white"/>
</linearGradient>
<linearGradient id="paint4_linear_1421_612" x1="14.0271" y1="39.3525" x2="-40.2855" y2="321.201" gradientUnits="userSpaceOnUse">
<stop stop-color="#2A96C1"/>
<stop offset="0.04" stop-color="#278AB2"/>
<stop offset="0.16" stop-color="#1D6683"/>
<stop offset="0.29" stop-color="#14475B"/>
<stop offset="0.42" stop-color="#0D2D3A"/>
<stop offset="0.55" stop-color="#071920"/>
<stop offset="0.69" stop-color="#030B0E"/>
<stop offset="0.84" stop-color="#010304"/>
<stop offset="1"/>
</linearGradient>
<linearGradient id="paint5_linear_1421_612" x1="-60.7015" y1="69.2824" x2="-120.577" y2="206.812" gradientUnits="userSpaceOnUse">
<stop stop-color="#38327F"/>
<stop offset="1" stop-color="#7B92FF"/>
</linearGradient>
<linearGradient id="paint6_linear_1421_612" x1="956" y1="187.796" x2="974.544" y2="476.825" gradientUnits="userSpaceOnUse">
<stop stop-color="#09A3CF"/>
<stop offset="1" stop-color="#11638B"/>
</linearGradient>
<linearGradient id="paint7_linear_1421_612" x1="1797.82" y1="129.265" x2="2486.76" y2="-626.16" gradientUnits="userSpaceOnUse">
<stop stop-color="#104360"/>
<stop offset="1" stop-color="#13817A"/>
</linearGradient>
<linearGradient id="paint8_linear_1421_612" x1="2212.55" y1="273.668" x2="2208.74" y2="90.2252" gradientUnits="userSpaceOnUse">
<stop stop-color="#2B33C4"/>
<stop offset="1" stop-color="white"/>
</linearGradient>
<linearGradient id="paint9_linear_1421_612" x1="2287.05" y1="-38.2524" x2="2341.37" y2="243.597" gradientUnits="userSpaceOnUse">
<stop stop-color="#2A96C1"/>
<stop offset="0.04" stop-color="#278AB2"/>
<stop offset="0.16" stop-color="#1D6683"/>
<stop offset="0.29" stop-color="#14475B"/>
<stop offset="0.42" stop-color="#0D2D3A"/>
<stop offset="0.55" stop-color="#071920"/>
<stop offset="0.69" stop-color="#030B0E"/>
<stop offset="0.84" stop-color="#010304"/>
<stop offset="1"/>
</linearGradient>
<linearGradient id="paint10_linear_1421_612" x1="2441.26" y1="-7.20432" x2="2464.13" y2="109.833" gradientUnits="userSpaceOnUse">
<stop offset="0.01" stop-color="#FFFBB9"/>
<stop offset="0.19" stop-color="#FFF8B8"/>
<stop offset="0.33" stop-color="#FEEEB3"/>
<stop offset="0.45" stop-color="#FDDEAB"/>
<stop offset="0.57" stop-color="#FBC69F"/>
<stop offset="0.68" stop-color="#F9A891"/>
<stop offset="0.79" stop-color="#F7847F"/>
<stop offset="0.88" stop-color="#F4606E"/>
</linearGradient>
<linearGradient id="paint11_linear_1421_612" x1="2504.51" y1="23.1134" x2="2415.85" y2="106.756" gradientUnits="userSpaceOnUse">
<stop stop-color="#1C33C4"/>
<stop offset="1" stop-color="white"/>
</linearGradient>
<linearGradient id="paint12_linear_1421_612" x1="2428.26" y1="140.796" x2="2371.61" y2="57.1634" gradientUnits="userSpaceOnUse">
<stop offset="0.01" stop-color="#FFFBB9"/>
<stop offset="0.19" stop-color="#FFF8B8"/>
<stop offset="0.33" stop-color="#FEEEB3"/>
<stop offset="0.45" stop-color="#FDDEAB"/>
<stop offset="0.57" stop-color="#FBC69F"/>
<stop offset="0.68" stop-color="#F9A891"/>
<stop offset="0.79" stop-color="#F7847F"/>
<stop offset="0.88" stop-color="#F4606E"/>
<stop offset="0.99" stop-color="#F27F5F"/>
</linearGradient>
<linearGradient id="paint13_linear_1421_612" x1="2076.25" y1="108.838" x2="2074.64" y2="234.091" gradientUnits="userSpaceOnUse">
<stop stop-color="#1C7B9D"/>
<stop offset="0.37" stop-color="#036284"/>
<stop offset="0.99" stop-color="#024F6A"/>
</linearGradient>
<linearGradient id="paint14_linear_1421_612" x1="1686.58" y1="336.095" x2="1871.64" y2="278.391" gradientUnits="userSpaceOnUse">
<stop stop-color="#104360"/>
<stop offset="1" stop-color="#13817A"/>
</linearGradient>
<linearGradient id="paint15_linear_1421_612" x1="2110.53" y1="311.129" x2="2504.96" y2="118.33" gradientUnits="userSpaceOnUse">
<stop stop-color="#104360"/>
<stop offset="1" stop-color="#13817A"/>
</linearGradient>
<linearGradient id="paint16_linear_1421_612" x1="2139.05" y1="120.748" x2="2193.37" y2="402.597" gradientUnits="userSpaceOnUse">
<stop stop-color="#2A96C1"/>
<stop offset="0.04" stop-color="#278AB2"/>
<stop offset="0.16" stop-color="#1D6683"/>
<stop offset="0.29" stop-color="#14475B"/>
<stop offset="0.42" stop-color="#0D2D3A"/>
<stop offset="0.55" stop-color="#071920"/>
<stop offset="0.69" stop-color="#030B0E"/>
<stop offset="0.84" stop-color="#010304"/>
<stop offset="1"/>
</linearGradient>
<linearGradient id="paint17_linear_1421_612" x1="2269.05" y1="59.7476" x2="2323.37" y2="341.597" gradientUnits="userSpaceOnUse">
<stop stop-color="#2A96C1"/>
<stop offset="0.04" stop-color="#278AB2"/>
<stop offset="0.16" stop-color="#1D6683"/>
<stop offset="0.29" stop-color="#14475B"/>
<stop offset="0.42" stop-color="#0D2D3A"/>
<stop offset="0.55" stop-color="#071920"/>
<stop offset="0.69" stop-color="#030B0E"/>
<stop offset="0.84" stop-color="#010304"/>
<stop offset="1"/>
</linearGradient>
<linearGradient id="paint18_linear_1421_612" x1="1819.05" y1="159.748" x2="1873.37" y2="441.597" gradientUnits="userSpaceOnUse">
<stop stop-color="#2A96C1"/>
<stop offset="0.04" stop-color="#278AB2"/>
<stop offset="0.16" stop-color="#1D6683"/>
<stop offset="0.29" stop-color="#14475B"/>
<stop offset="0.42" stop-color="#0D2D3A"/>
<stop offset="0.55" stop-color="#071920"/>
<stop offset="0.69" stop-color="#030B0E"/>
<stop offset="0.84" stop-color="#010304"/>
<stop offset="1"/>
</linearGradient>
<linearGradient id="paint19_linear_1421_612" x1="1949.05" y1="98.7476" x2="2003.37" y2="380.597" gradientUnits="userSpaceOnUse">
<stop stop-color="#2A96C1"/>
<stop offset="0.04" stop-color="#278AB2"/>
<stop offset="0.16" stop-color="#1D6683"/>
<stop offset="0.29" stop-color="#14475B"/>
<stop offset="0.42" stop-color="#0D2D3A"/>
<stop offset="0.55" stop-color="#071920"/>
<stop offset="0.69" stop-color="#030B0E"/>
<stop offset="0.84" stop-color="#010304"/>
<stop offset="1"/>
</linearGradient>
<linearGradient id="paint20_linear_1421_612" x1="2331.26" y1="-3.70432" x2="2298.41" y2="219.952" gradientUnits="userSpaceOnUse">
<stop offset="0.01" stop-color="#FFFBB9"/>
<stop offset="0.19" stop-color="#FFF8B8"/>
<stop offset="0.33" stop-color="#FEEEB3"/>
<stop offset="0.45" stop-color="#FDDEAB"/>
<stop offset="0.57" stop-color="#FBC69F"/>
<stop offset="0.68" stop-color="#F9A891"/>
<stop offset="0.79" stop-color="#F7847F"/>
<stop offset="0.88" stop-color="#F4606E"/>
</linearGradient>
<linearGradient id="paint21_linear_1421_612" x1="2310.26" y1="150.796" x2="2294.48" y2="120.558" gradientUnits="userSpaceOnUse">
<stop offset="0.01" stop-color="#FFFBB9"/>
<stop offset="0.19" stop-color="#FFF8B8"/>
<stop offset="0.33" stop-color="#FEEEB3"/>
<stop offset="0.45" stop-color="#FDDEAB"/>
<stop offset="0.57" stop-color="#FBC69F"/>
<stop offset="0.68" stop-color="#F9A891"/>
<stop offset="0.79" stop-color="#F7847F"/>
<stop offset="0.88" stop-color="#F4606E"/>
<stop offset="1" stop-color="#F27F5F"/>
</linearGradient>
<linearGradient id="paint22_linear_1421_612" x1="2314.61" y1="220.101" x2="2322.22" y2="143.21" gradientUnits="userSpaceOnUse">
<stop stop-color="#1C33C4"/>
<stop offset="1" stop-color="white"/>
</linearGradient>
<linearGradient id="paint23_linear_1421_612" x1="2342.26" y1="252.796" x2="2315.75" y2="129.975" gradientUnits="userSpaceOnUse">
<stop offset="0.01" stop-color="#FFFBB9"/>
<stop offset="0.19" stop-color="#FFF8B8"/>
<stop offset="0.33" stop-color="#FEEEB3"/>
<stop offset="0.45" stop-color="#FDDEAB"/>
<stop offset="0.57" stop-color="#FBC69F"/>
<stop offset="0.68" stop-color="#F9A891"/>
<stop offset="0.79" stop-color="#F7847F"/>
<stop offset="0.88" stop-color="#F4606E"/>
<stop offset="0.99" stop-color="#F27F5F"/>
</linearGradient>
<linearGradient id="paint24_linear_1421_612" x1="2318.16" y1="127.85" x2="2218.53" y2="198.077" gradientUnits="userSpaceOnUse">
<stop stop-color="#1C33C4"/>
<stop offset="1" stop-color="white"/>
</linearGradient>
<linearGradient id="paint25_linear_1421_612" x1="2280.99" y1="-62.7795" x2="2182.94" y2="425.45" gradientUnits="userSpaceOnUse">
<stop offset="0.01" stop-color="#FF3B59"/>
<stop offset="0.22" stop-color="#FC3959"/>
<stop offset="0.38" stop-color="#F23459"/>
<stop offset="0.53" stop-color="#E22A58"/>
<stop offset="0.67" stop-color="#CA1D58"/>
<stop offset="0.81" stop-color="#AD0B57"/>
<stop offset="0.88" stop-color="#990057"/>
</linearGradient>
<linearGradient id="paint26_linear_1421_612" x1="2319.26" y1="263.296" x2="2268.52" y2="79.8509" gradientUnits="userSpaceOnUse">
<stop offset="0.01" stop-color="#FFFBB9"/>
<stop offset="0.19" stop-color="#FFF8B8"/>
<stop offset="0.33" stop-color="#FEEEB3"/>
<stop offset="0.45" stop-color="#FDDEAB"/>
<stop offset="0.57" stop-color="#FBC69F"/>
<stop offset="0.68" stop-color="#F9A891"/>
<stop offset="0.79" stop-color="#F7847F"/>
<stop offset="0.88" stop-color="#F4606E"/>
<stop offset="0.99" stop-color="#F27F5F"/>
</linearGradient>
<linearGradient id="paint27_linear_1421_612" x1="2349.26" y1="212.296" x2="2334.29" y2="190.008" gradientUnits="userSpaceOnUse">
<stop offset="0.01" stop-color="#FFFBB9"/>
<stop offset="0.19" stop-color="#FFF8B8"/>
<stop offset="0.33" stop-color="#FEEEB3"/>
<stop offset="0.45" stop-color="#FDDEAB"/>
<stop offset="0.57" stop-color="#FBC69F"/>
<stop offset="0.68" stop-color="#F9A891"/>
<stop offset="0.79" stop-color="#F7847F"/>
<stop offset="0.88" stop-color="#F4606E"/>
<stop offset="0.99" stop-color="#F27F5F"/>
</linearGradient>
<linearGradient id="paint28_linear_1421_612" x1="2319.76" y1="226.296" x2="2310.83" y2="185.991" gradientUnits="userSpaceOnUse">
<stop offset="0.01" stop-color="#FFFBB9"/>
<stop offset="0.19" stop-color="#FFF8B8"/>
<stop offset="0.33" stop-color="#FEEEB3"/>
<stop offset="0.45" stop-color="#FDDEAB"/>
<stop offset="0.57" stop-color="#FBC69F"/>
<stop offset="0.68" stop-color="#F9A891"/>
<stop offset="0.79" stop-color="#F7847F"/>
<stop offset="0.88" stop-color="#F4606E"/>
<stop offset="0.99" stop-color="#F27F5F"/>
</linearGradient>
<linearGradient id="paint29_linear_1421_612" x1="127.779" y1="18.0517" x2="108.248" y2="144.593" gradientUnits="userSpaceOnUse">
<stop offset="0.01" stop-color="#FFFBB9"/>
<stop offset="0.19" stop-color="#FFF8B8"/>
<stop offset="0.33" stop-color="#FEEEB3"/>
<stop offset="0.45" stop-color="#FDDEAB"/>
<stop offset="0.57" stop-color="#FBC69F"/>
<stop offset="0.68" stop-color="#F9A891"/>
<stop offset="0.79" stop-color="#F7847F"/>
<stop offset="0.88" stop-color="#F4606E"/>
</linearGradient>
<linearGradient id="paint30_linear_1421_612" x1="135.774" y1="56.5056" x2="136.662" y2="191.545" gradientUnits="userSpaceOnUse">
<stop offset="0.01" stop-color="#FFFBB9"/>
<stop offset="0.19" stop-color="#FFF8B8"/>
<stop offset="0.33" stop-color="#FEEEB3"/>
<stop offset="0.45" stop-color="#FDDEAB"/>
<stop offset="0.57" stop-color="#FBC69F"/>
<stop offset="0.68" stop-color="#F9A891"/>
<stop offset="0.79" stop-color="#F7847F"/>
<stop offset="0.88" stop-color="#F4606E"/>
<stop offset="0.99" stop-color="#F27F5F"/>
</linearGradient>
<linearGradient id="paint31_linear_1421_612" x1="143.894" y1="50.5749" x2="144.867" y2="196.386" gradientUnits="userSpaceOnUse">
<stop offset="0.01" stop-color="#FFFBB9"/>
<stop offset="0.19" stop-color="#FFF8B8"/>
<stop offset="0.33" stop-color="#FEEEB3"/>
<stop offset="0.45" stop-color="#FDDEAB"/>
<stop offset="0.57" stop-color="#FBC69F"/>
<stop offset="0.68" stop-color="#F9A891"/>
<stop offset="0.79" stop-color="#F7847F"/>
<stop offset="0.88" stop-color="#F4606E"/>
<stop offset="0.99" stop-color="#F27F5F"/>
</linearGradient>
<linearGradient id="paint32_linear_1421_612" x1="72.5593" y1="49.6111" x2="70.8464" y2="187.521" gradientUnits="userSpaceOnUse">
<stop offset="0.01" stop-color="#FFFBB9"/>
<stop offset="0.19" stop-color="#FFF8B8"/>
<stop offset="0.33" stop-color="#FEEEB3"/>
<stop offset="0.45" stop-color="#FDDEAB"/>
<stop offset="0.57" stop-color="#FBC69F"/>
<stop offset="0.68" stop-color="#F9A891"/>
<stop offset="0.79" stop-color="#F7847F"/>
<stop offset="0.88" stop-color="#F4606E"/>
</linearGradient>
<linearGradient id="paint33_linear_1421_612" x1="56.2362" y1="86.9336" x2="44.9264" y2="172.91" gradientUnits="userSpaceOnUse">
<stop offset="0.01" stop-color="#FFFBB9"/>
<stop offset="0.19" stop-color="#FFF8B8"/>
<stop offset="0.33" stop-color="#FEEEB3"/>
<stop offset="0.45" stop-color="#FDDEAB"/>
<stop offset="0.57" stop-color="#FBC69F"/>
<stop offset="0.68" stop-color="#F9A891"/>
<stop offset="0.79" stop-color="#F7847F"/>
<stop offset="0.88" stop-color="#F4606E"/>
<stop offset="0.99" stop-color="#F27F5F"/>
</linearGradient>
<linearGradient id="paint34_linear_1421_612" x1="43.0127" y1="116.905" x2="90.9222" y2="176.239" gradientUnits="userSpaceOnUse">
<stop offset="0.01" stop-color="#FFFBB9"/>
<stop offset="0.19" stop-color="#FFF8B8"/>
<stop offset="0.33" stop-color="#FEEEB3"/>
<stop offset="0.45" stop-color="#FDDEAB"/>
<stop offset="0.57" stop-color="#FBC69F"/>
<stop offset="0.68" stop-color="#F9A891"/>
<stop offset="0.79" stop-color="#F7847F"/>
<stop offset="0.88" stop-color="#F4606E"/>
<stop offset="0.99" stop-color="#F27F5F"/>
</linearGradient>
<linearGradient id="paint35_linear_1421_612" x1="84.9212" y1="101.797" x2="72.8934" y2="173.709" gradientUnits="userSpaceOnUse">
<stop offset="0.01" stop-color="#FFFBB9"/>
<stop offset="0.19" stop-color="#FFF8B8"/>
<stop offset="0.33" stop-color="#FEEEB3"/>
<stop offset="0.45" stop-color="#FDDEAB"/>
<stop offset="0.57" stop-color="#FBC69F"/>
<stop offset="0.68" stop-color="#F9A891"/>
<stop offset="0.79" stop-color="#F7847F"/>
<stop offset="0.88" stop-color="#F4606E"/>
<stop offset="0.99" stop-color="#F27F5F"/>
</linearGradient>
<linearGradient id="paint36_linear_1421_612" x1="97.0644" y1="110.404" x2="97.5296" y2="183.414" gradientUnits="userSpaceOnUse">
<stop offset="0.01" stop-color="#FFFBB9"/>
<stop offset="0.19" stop-color="#FFF8B8"/>
<stop offset="0.33" stop-color="#FEEEB3"/>
<stop offset="0.45" stop-color="#FDDEAB"/>
<stop offset="0.57" stop-color="#FBC69F"/>
<stop offset="0.68" stop-color="#F9A891"/>
<stop offset="0.79" stop-color="#F7847F"/>
<stop offset="0.88" stop-color="#F4606E"/>
<stop offset="0.99" stop-color="#F27F5F"/>
</linearGradient>
<linearGradient id="paint37_linear_1421_612" x1="52.955" y1="111.096" x2="53.4203" y2="184.148" gradientUnits="userSpaceOnUse">
<stop offset="0.01" stop-color="#FFFBB9"/>
<stop offset="0.19" stop-color="#FFF8B8"/>
<stop offset="0.33" stop-color="#FEEEB3"/>
<stop offset="0.45" stop-color="#FDDEAB"/>
<stop offset="0.57" stop-color="#FBC69F"/>
<stop offset="0.68" stop-color="#F9A891"/>
<stop offset="0.79" stop-color="#F7847F"/>
<stop offset="0.88" stop-color="#F4606E"/>
<stop offset="0.99" stop-color="#F27F5F"/>
</linearGradient>
<linearGradient id="paint38_linear_1421_612" x1="90.0659" y1="130.983" x2="84.0613" y2="192.205" gradientUnits="userSpaceOnUse">
<stop offset="0.01" stop-color="#FFFBB9"/>
<stop offset="0.19" stop-color="#FFF8B8"/>
<stop offset="0.33" stop-color="#FEEEB3"/>
<stop offset="0.45" stop-color="#FDDEAB"/>
<stop offset="0.57" stop-color="#FBC69F"/>
<stop offset="0.68" stop-color="#F9A891"/>
<stop offset="0.79" stop-color="#F7847F"/>
<stop offset="0.88" stop-color="#F4606E"/>
<stop offset="0.99" stop-color="#F27F5F"/>
</linearGradient>
<linearGradient id="paint39_linear_1421_612" x1="92.3381" y1="109.105" x2="74.6912" y2="141.29" gradientUnits="userSpaceOnUse">
<stop offset="0.01" stop-color="#FFFBB9"/>
<stop offset="0.19" stop-color="#FFF8B8"/>
<stop offset="0.33" stop-color="#FEEEB3"/>
<stop offset="0.45" stop-color="#FDDEAB"/>
<stop offset="0.57" stop-color="#FBC69F"/>
<stop offset="0.68" stop-color="#F9A891"/>
<stop offset="0.79" stop-color="#F7847F"/>
<stop offset="0.88" stop-color="#F4606E"/>
<stop offset="0.99" stop-color="#F27F5F"/>
</linearGradient>
<linearGradient id="paint40_linear_1421_612" x1="59.6836" y1="108.623" x2="60.17" y2="181.633" gradientUnits="userSpaceOnUse">
<stop offset="0.01" stop-color="#FFFBB9"/>
<stop offset="0.19" stop-color="#FFF8B8"/>
<stop offset="0.33" stop-color="#FEEEB3"/>
<stop offset="0.45" stop-color="#FDDEAB"/>
<stop offset="0.57" stop-color="#FBC69F"/>
<stop offset="0.68" stop-color="#F9A891"/>
<stop offset="0.79" stop-color="#F7847F"/>
<stop offset="0.88" stop-color="#F4606E"/>
<stop offset="0.99" stop-color="#F27F5F"/>
</linearGradient>
<linearGradient id="paint41_linear_1421_612" x1="77.0657" y1="98.627" x2="74.2956" y2="167.297" gradientUnits="userSpaceOnUse">
<stop offset="0.01" stop-color="#FFFBB9"/>
<stop offset="0.19" stop-color="#FFF8B8"/>
<stop offset="0.33" stop-color="#FEEEB3"/>
<stop offset="0.45" stop-color="#FDDEAB"/>
<stop offset="0.57" stop-color="#FBC69F"/>
<stop offset="0.68" stop-color="#F9A891"/>
<stop offset="0.79" stop-color="#F7847F"/>
<stop offset="0.88" stop-color="#F4606E"/>
<stop offset="0.99" stop-color="#F27F5F"/>
</linearGradient>
<linearGradient id="paint42_linear_1421_612" x1="29.613" y1="175.074" x2="31.6169" y2="170.078" gradientUnits="userSpaceOnUse">
<stop/>
<stop offset="0.21" stop-color="#010104"/>
<stop offset="0.41" stop-color="#03030F"/>
<stop offset="0.6" stop-color="#060722"/>
<stop offset="0.79" stop-color="#0B0D3C"/>
<stop offset="0.97" stop-color="#12155D"/>
<stop offset="1" stop-color="#131664"/>
</linearGradient>
<linearGradient id="paint43_linear_1421_612" x1="155.365" y1="208.899" x2="160.145" y2="296.123" gradientUnits="userSpaceOnUse">
<stop stop-color="#1C7B9D"/>
<stop offset="0.37" stop-color="#036284"/>
<stop offset="0.99" stop-color="#024F6A"/>
</linearGradient>
<linearGradient id="paint44_linear_1421_612" x1="265.902" y1="328.692" x2="439.602" y2="281.558" gradientUnits="userSpaceOnUse">
<stop stop-color="#104360"/>
<stop offset="1" stop-color="#13817A"/>
</linearGradient>
<linearGradient id="paint45_linear_1421_612" x1="13.7743" y1="241.926" x2="-65.541" y2="471.094" gradientUnits="userSpaceOnUse">
<stop stop-color="#38327F"/>
<stop offset="1" stop-color="#7B92FF"/>
</linearGradient>
<linearGradient id="paint46_linear_1421_612" x1="264.888" y1="-189.314" x2="263.311" y2="466.559" gradientUnits="userSpaceOnUse">
<stop stop-color="#2B33C4"/>
<stop offset="1" stop-color="white"/>
</linearGradient>
<linearGradient id="paint47_linear_1421_612" x1="243.027" y1="140.352" x2="188.715" y2="422.202" gradientUnits="userSpaceOnUse">
<stop stop-color="#2A96C1"/>
<stop offset="0.04" stop-color="#278AB2"/>
<stop offset="0.16" stop-color="#1D6683"/>
<stop offset="0.29" stop-color="#14475B"/>
<stop offset="0.42" stop-color="#0D2D3A"/>
<stop offset="0.55" stop-color="#071920"/>
<stop offset="0.69" stop-color="#030B0E"/>
<stop offset="0.84" stop-color="#010304"/>
<stop offset="1"/>
</linearGradient>
<linearGradient id="paint48_linear_1421_612" x1="168.299" y1="170.282" x2="108.423" y2="307.812" gradientUnits="userSpaceOnUse">
<stop stop-color="#1E516D"/>
<stop offset="1" stop-color="#10ADCF" stop-opacity="0.47"/>
</linearGradient>
<linearGradient id="paint49_linear_1421_612" x1="181.592" y1="159.793" x2="196.117" y2="252.786" gradientUnits="userSpaceOnUse">
<stop offset="0.01" stop-color="#FFFBB9"/>
<stop offset="0.19" stop-color="#FFF8B8"/>
<stop offset="0.33" stop-color="#FEEEB3"/>
<stop offset="0.45" stop-color="#FDDEAB"/>
<stop offset="0.57" stop-color="#FBC69F"/>
<stop offset="0.68" stop-color="#F9A891"/>
<stop offset="0.79" stop-color="#F7847F"/>
<stop offset="0.88" stop-color="#F4606E"/>
</linearGradient>
<linearGradient id="paint50_linear_1421_612" x1="175.783" y1="188.068" x2="175.122" y2="287.361" gradientUnits="userSpaceOnUse">
<stop offset="0.01" stop-color="#FFFBB9"/>
<stop offset="0.19" stop-color="#FFF8B8"/>
<stop offset="0.33" stop-color="#FEEEB3"/>
<stop offset="0.45" stop-color="#FDDEAB"/>
<stop offset="0.57" stop-color="#FBC69F"/>
<stop offset="0.68" stop-color="#F9A891"/>
<stop offset="0.79" stop-color="#F7847F"/>
<stop offset="0.88" stop-color="#F4606E"/>
<stop offset="0.99" stop-color="#F27F5F"/>
</linearGradient>
<linearGradient id="paint51_linear_1421_612" x1="169.883" y1="183.707" x2="169.159" y2="290.921" gradientUnits="userSpaceOnUse">
<stop offset="0.01" stop-color="#FFFBB9"/>
<stop offset="0.19" stop-color="#FFF8B8"/>
<stop offset="0.33" stop-color="#FEEEB3"/>
<stop offset="0.45" stop-color="#FDDEAB"/>
<stop offset="0.57" stop-color="#FBC69F"/>
<stop offset="0.68" stop-color="#F9A891"/>
<stop offset="0.79" stop-color="#F7847F"/>
<stop offset="0.88" stop-color="#F4606E"/>
<stop offset="0.99" stop-color="#F27F5F"/>
</linearGradient>
<linearGradient id="paint52_linear_1421_612" x1="221.716" y1="182.998" x2="222.99" y2="284.402" gradientUnits="userSpaceOnUse">
<stop offset="0.01" stop-color="#FFFBB9"/>
<stop offset="0.19" stop-color="#FFF8B8"/>
<stop offset="0.33" stop-color="#FEEEB3"/>
<stop offset="0.45" stop-color="#FDDEAB"/>
<stop offset="0.57" stop-color="#FBC69F"/>
<stop offset="0.68" stop-color="#F9A891"/>
<stop offset="0.79" stop-color="#F7847F"/>
<stop offset="0.88" stop-color="#F4606E"/>
</linearGradient>
<linearGradient id="paint53_linear_1421_612" x1="233.577" y1="210.441" x2="241.988" y2="273.633" gradientUnits="userSpaceOnUse">
<stop offset="0.01" stop-color="#FFFBB9"/>
<stop offset="0.19" stop-color="#FFF8B8"/>
<stop offset="0.33" stop-color="#FEEEB3"/>
<stop offset="0.45" stop-color="#FDDEAB"/>
<stop offset="0.57" stop-color="#FBC69F"/>
<stop offset="0.68" stop-color="#F9A891"/>
<stop offset="0.79" stop-color="#F7847F"/>
<stop offset="0.88" stop-color="#F4606E"/>
<stop offset="0.99" stop-color="#F27F5F"/>
</linearGradient>
<linearGradient id="paint54_linear_1421_612" x1="243.185" y1="232.479" x2="207.872" y2="275.697" gradientUnits="userSpaceOnUse">
<stop offset="0.01" stop-color="#FFFBB9"/>
<stop offset="0.19" stop-color="#FFF8B8"/>
<stop offset="0.33" stop-color="#FEEEB3"/>
<stop offset="0.45" stop-color="#FDDEAB"/>
<stop offset="0.57" stop-color="#FBC69F"/>
<stop offset="0.68" stop-color="#F9A891"/>
<stop offset="0.79" stop-color="#F7847F"/>
<stop offset="0.88" stop-color="#F4606E"/>
<stop offset="0.99" stop-color="#F27F5F"/>
</linearGradient>
<linearGradient id="paint55_linear_1421_612" x1="212.734" y1="221.37" x2="221.677" y2="274.212" gradientUnits="userSpaceOnUse">
<stop offset="0.01" stop-color="#FFFBB9"/>
<stop offset="0.19" stop-color="#FFF8B8"/>
<stop offset="0.33" stop-color="#FEEEB3"/>
<stop offset="0.45" stop-color="#FDDEAB"/>
<stop offset="0.57" stop-color="#FBC69F"/>
<stop offset="0.68" stop-color="#F9A891"/>
<stop offset="0.79" stop-color="#F7847F"/>
<stop offset="0.88" stop-color="#F4606E"/>
<stop offset="0.99" stop-color="#F27F5F"/>
</linearGradient>
<linearGradient id="paint56_linear_1421_612" x1="203.91" y1="227.699" x2="203.564" y2="281.383" gradientUnits="userSpaceOnUse">
<stop offset="0.01" stop-color="#FFFBB9"/>
<stop offset="0.19" stop-color="#FFF8B8"/>
<stop offset="0.33" stop-color="#FEEEB3"/>
<stop offset="0.45" stop-color="#FDDEAB"/>
<stop offset="0.57" stop-color="#FBC69F"/>
<stop offset="0.68" stop-color="#F9A891"/>
<stop offset="0.79" stop-color="#F7847F"/>
<stop offset="0.88" stop-color="#F4606E"/>
<stop offset="0.99" stop-color="#F27F5F"/>
</linearGradient>
<linearGradient id="paint57_linear_1421_612" x1="235.961" y1="228.207" x2="235.615" y2="281.922" gradientUnits="userSpaceOnUse">
<stop offset="0.01" stop-color="#FFFBB9"/>
<stop offset="0.19" stop-color="#FFF8B8"/>
<stop offset="0.33" stop-color="#FEEEB3"/>
<stop offset="0.45" stop-color="#FDDEAB"/>
<stop offset="0.57" stop-color="#FBC69F"/>
<stop offset="0.68" stop-color="#F9A891"/>
<stop offset="0.79" stop-color="#F7847F"/>
<stop offset="0.88" stop-color="#F4606E"/>
<stop offset="0.99" stop-color="#F27F5F"/>
</linearGradient>
<linearGradient id="paint58_linear_1421_612" x1="208.995" y1="242.83" x2="213.462" y2="287.837" gradientUnits="userSpaceOnUse">
<stop offset="0.01" stop-color="#FFFBB9"/>
<stop offset="0.19" stop-color="#FFF8B8"/>
<stop offset="0.33" stop-color="#FEEEB3"/>
<stop offset="0.45" stop-color="#FDDEAB"/>
<stop offset="0.57" stop-color="#FBC69F"/>
<stop offset="0.68" stop-color="#F9A891"/>
<stop offset="0.79" stop-color="#F7847F"/>
<stop offset="0.88" stop-color="#F4606E"/>
<stop offset="0.99" stop-color="#F27F5F"/>
</linearGradient>
<linearGradient id="paint59_linear_1421_612" x1="207.344" y1="226.744" x2="220.402" y2="250.278" gradientUnits="userSpaceOnUse">
<stop offset="0.01" stop-color="#FFFBB9"/>
<stop offset="0.19" stop-color="#FFF8B8"/>
<stop offset="0.33" stop-color="#FEEEB3"/>
<stop offset="0.45" stop-color="#FDDEAB"/>
<stop offset="0.57" stop-color="#FBC69F"/>
<stop offset="0.68" stop-color="#F9A891"/>
<stop offset="0.79" stop-color="#F7847F"/>
<stop offset="0.88" stop-color="#F4606E"/>
<stop offset="0.99" stop-color="#F27F5F"/>
</linearGradient>
<linearGradient id="paint60_linear_1421_612" x1="231.072" y1="226.389" x2="230.71" y2="280.073" gradientUnits="userSpaceOnUse">
<stop offset="0.01" stop-color="#FFFBB9"/>
<stop offset="0.19" stop-color="#FFF8B8"/>
<stop offset="0.33" stop-color="#FEEEB3"/>
<stop offset="0.45" stop-color="#FDDEAB"/>
<stop offset="0.57" stop-color="#FBC69F"/>
<stop offset="0.68" stop-color="#F9A891"/>
<stop offset="0.79" stop-color="#F7847F"/>
<stop offset="0.88" stop-color="#F4606E"/>
<stop offset="0.99" stop-color="#F27F5F"/>
</linearGradient>
<linearGradient id="paint61_linear_1421_612" x1="218.441" y1="219.039" x2="220.503" y2="269.53" gradientUnits="userSpaceOnUse">
<stop offset="0.01" stop-color="#FFFBB9"/>
<stop offset="0.19" stop-color="#FFF8B8"/>
<stop offset="0.33" stop-color="#FEEEB3"/>
<stop offset="0.45" stop-color="#FDDEAB"/>
<stop offset="0.57" stop-color="#FBC69F"/>
<stop offset="0.68" stop-color="#F9A891"/>
<stop offset="0.79" stop-color="#F7847F"/>
<stop offset="0.88" stop-color="#F4606E"/>
<stop offset="0.99" stop-color="#F27F5F"/>
</linearGradient>
<linearGradient id="paint62_linear_1421_612" x1="252.921" y1="275.25" x2="251.435" y2="271.589" gradientUnits="userSpaceOnUse">
<stop/>
<stop offset="0.21" stop-color="#010104"/>
<stop offset="0.41" stop-color="#03030F"/>
<stop offset="0.6" stop-color="#060722"/>
<stop offset="0.79" stop-color="#0B0D3C"/>
<stop offset="0.97" stop-color="#12155D"/>
<stop offset="1" stop-color="#131664"/>
</linearGradient>
</defs>
</svg>
