<svg width="200" height="80" viewBox="0 0 200 80" fill="none" xmlns="http://www.w3.org/2000/svg">
<g clip-path="url(#clip0_1_25855)">
<rect width="200" height="80" fill="#F5F8FC"/>
<g clip-path="url(#clip1_1_25855)">
<path d="M-28.2716 -43.1705C-28.2716 -43.1705 -22.687 -37.8334 -13.0558 -36.3802C-3.42449 -34.9271 5.88917 -35.4037 9.22401 -34.6777C12.5589 -33.9517 17.2906 -28.0401 24.9922 -27.1924C29.9533 -26.736 34.9554 -27.0536 39.8194 -28.1338C35.9702 -25.9374 31.7172 -24.542 27.3157 -24.0314C22.4152 -23.4282 14.9429 -26.6836 14.9429 -26.6836C14.9429 -26.6836 22.7069 -20.4103 29.7272 -18.8297C28.3382 -18.0511 26.8114 -17.5498 25.2314 -17.3538C21.3505 -17.4966 17.6425 -18.9954 14.7518 -21.5896C14.7518 -21.5896 17.1776 -16.8232 15.8527 -11.7399C15.8527 -11.7399 13.2191 -8.43231 7.38828 -7.00871C7.38828 -7.00871 10.6694 -14.4135 10.4161 -18.9868C10.4161 -18.9868 9.70422 -12.8577 6.55152 -7.89119C6.55152 -7.89119 2.26376 -6.19887 -1.11353 -7.58386C-0.457607 -8.74006 0.100807 -9.94896 0.555899 -11.198C0.555899 -11.198 -3.07419 -18.6359 -2.89308 -24.1619C-2.89308 -24.1619 -4.80626 -16.6277 -12.2033 -9.84234C-12.2033 -9.84234 -15.4321 -8.35062 -18.751 -9.56291L-15.4083 -12.5289C-16.955 -11.6001 -18.6647 -10.9755 -20.4455 -10.6886C-23.1182 -10.3359 -31.3048 -12.6396 -35.5374 -15.2301L-36.8213 -14.9019C-36.8213 -14.9019 -38.7872 -16.031 -40.7533 -19.6065C-40.7533 -19.6065 -43.6475 -21.1498 -45.0528 -23.421L-44.7249 -24.4369C-44.7249 -24.4369 -45.6014 -26.3094 -45.0567 -27.6833C-42.4786 -29.9867 -39.5628 -31.8809 -36.411 -33.3001C-36.411 -33.3001 -42.1825 -31.2656 -45.8501 -31.1186C-45.8501 -31.1186 -47.0178 -31.8972 -46.5653 -32.9254C-46.1128 -33.9535 -28.2716 -43.1705 -28.2716 -43.1705Z" fill="url(#paint0_linear_1_25855)"/>
</g>
<path d="M73.1484 48.4043H74.591L75.98 50.972H76.0395L77.4285 48.4043H78.871L76.6492 52.2587V54.3665H75.3702V52.2587L73.1484 48.4043Z" fill="#B4B4B4"/>
<path d="M79.5744 54.3665V48.4043H83.679V49.4436H80.8623V50.8643H83.4678V51.9036H80.8623V53.3272H83.6909V54.3665H79.5744Z" fill="#B4B4B4"/>
<path d="M85.7528 54.3665H84.3727L86.4756 48.4043H88.1352L90.2351 54.3665H88.855L87.3292 49.7667H87.2816L85.7528 54.3665ZM85.6666 52.0229H88.9264V53.0069H85.6666V52.0229Z" fill="#B4B4B4"/>
<path d="M90.9683 54.3665V48.4043H93.3715C93.8315 48.4043 94.2242 48.4848 94.5493 48.6459C94.8765 48.805 95.1254 49.0312 95.2959 49.3242C95.4684 49.6153 95.5547 49.9579 95.5547 50.3519C95.5547 50.7478 95.4674 51.0884 95.2929 51.3737C95.1184 51.6571 94.8656 51.8744 94.5345 52.0258C94.2053 52.1772 93.8068 52.2529 93.3388 52.2529H91.7297V51.2398H93.1306C93.3765 51.2398 93.5807 51.2068 93.7433 51.1408C93.9059 51.0748 94.0269 50.9759 94.1062 50.8439C94.1875 50.7119 94.2281 50.5479 94.2281 50.3519C94.2281 50.1539 94.1875 49.987 94.1062 49.8511C94.0269 49.7153 93.9049 49.6124 93.7403 49.5426C93.5777 49.4707 93.3725 49.4348 93.1246 49.4348H92.2561V54.3665H90.9683ZM94.2579 51.6532L95.7718 54.3665H94.3501L92.8689 51.6532H94.2579Z" fill="#B4B4B4"/>
<path d="M99.7693 50.119C99.7455 49.8841 99.6433 49.7017 99.4629 49.5717C99.2825 49.4416 99.0376 49.3766 98.7282 49.3766C98.5181 49.3766 98.3406 49.4057 98.1958 49.464C98.0511 49.5202 97.9401 49.5988 97.8627 49.6998C97.7874 49.8007 97.7497 49.9152 97.7497 50.0433C97.7457 50.15 97.7685 50.2432 97.8181 50.3228C97.8697 50.4023 97.9401 50.4712 98.0293 50.5295C98.1185 50.5857 98.2216 50.6352 98.3386 50.6779C98.4556 50.7187 98.5805 50.7536 98.7134 50.7827L99.2607 50.9108C99.5264 50.9691 99.7702 51.0467 99.9923 51.1437C100.214 51.2408 100.407 51.3601 100.569 51.5018C100.732 51.6435 100.858 51.8104 100.947 52.0025C101.038 52.1947 101.085 52.415 101.087 52.6634C101.085 53.0283 100.99 53.3446 100.801 53.6125C100.615 53.8783 100.345 54.085 99.9923 54.2325C99.6414 54.3781 99.218 54.4509 98.7223 54.4509C98.2305 54.4509 97.8022 54.3771 97.4374 54.2296C97.0745 54.0821 96.791 53.8638 96.5867 53.5746C96.3845 53.2835 96.2784 52.9235 96.2685 52.4945H97.5147C97.5286 52.6944 97.5871 52.8614 97.6902 52.9953C97.7953 53.1272 97.9351 53.2272 98.1096 53.2951C98.2861 53.3611 98.4853 53.3941 98.7074 53.3941C98.9255 53.3941 99.1149 53.3631 99.2755 53.301C99.4381 53.2388 99.564 53.1525 99.6533 53.0419C99.7425 52.9312 99.7871 52.8041 99.7871 52.6605C99.7871 52.5266 99.7465 52.414 99.6652 52.3228C99.5858 52.2316 99.4689 52.1539 99.3142 52.0899C99.1615 52.0258 98.9741 51.9676 98.752 51.9152L98.0888 51.7522C97.5752 51.6299 97.1697 51.4387 96.8723 51.1787C96.5748 50.9186 96.4271 50.5683 96.4291 50.1277C96.4271 49.7667 96.5253 49.4513 96.7236 49.1816C96.9238 48.9118 97.1985 48.7012 97.5474 48.5498C97.8964 48.3984 98.293 48.3228 98.7372 48.3228C99.1893 48.3228 99.5839 48.3984 99.9209 48.5498C100.26 48.7012 100.524 48.9118 100.712 49.1816C100.9 49.4513 100.998 49.7638 101.004 50.119H99.7693Z" fill="#B4B4B4"/>
<path fill-rule="evenodd" clip-rule="evenodd" d="M20.2196 66.2075L34.9312 37.7137H18.9785V28.1157H47.3957V36.4086L32.0743 66.2075H20.2196ZM37.8356 35.8919V36.1274L23.2457 64.3857H30.9273L45.5345 35.976V29.9375H20.8398V35.8919H37.8356Z" fill="#B4B4B4"/>
<path fill-rule="evenodd" clip-rule="evenodd" d="M52.5476 53.3517L52.5437 53.3499C50.3899 52.3534 48.6299 50.9532 47.3177 49.1392C45.98 47.29 45.294 45.1729 45.2403 42.8461L45.1973 40.9831H56.0737L56.1768 42.6979C56.226 43.5173 56.5459 44.1193 57.1961 44.6257C57.906 45.1786 58.7549 45.4742 59.8351 45.4742C60.7194 45.4742 61.4204 45.2864 61.9946 44.9631C62.6012 44.6167 63.0643 44.1501 63.4066 43.5332L63.4104 43.5264C63.7562 42.9096 63.9542 42.1643 63.9542 41.2406C63.9542 40.2947 63.7507 39.5451 63.4016 38.936L63.3974 38.9286L63.3932 38.9212C63.0396 38.2905 62.5653 37.8178 61.949 37.471C61.3426 37.1297 60.6173 36.9327 59.7231 36.9229C58.9598 36.9241 58.2139 37.0765 57.4715 37.3922C56.7623 37.6985 56.2902 38.0787 55.9736 38.5007L55.2869 39.4159L45.8509 37.7606L47.8226 16.2739H72.9009V25.8719H57.338L57.0199 28.8858C58.5302 28.2151 60.1838 27.8968 61.9488 27.8968C64.3729 27.8968 66.6001 28.4586 68.5774 29.6198C70.527 30.7647 72.0666 32.3423 73.183 34.3187C74.3193 36.319 74.8543 38.5827 74.8428 41.0561C74.8542 43.6724 74.2299 46.0668 72.9269 48.1842C71.6443 50.276 69.8473 51.9141 67.583 53.0927L67.5795 53.0945C65.2981 54.2759 62.6984 54.8367 59.8351 54.8367C57.1752 54.8367 54.7329 54.3568 52.5476 53.3517ZM71.3318 47.2455C72.4431 45.4401 72.993 43.3768 72.9815 41.0556C72.993 38.8465 72.5175 36.8953 71.5552 35.2021C70.5928 33.4976 69.281 32.1576 67.6198 31.182C65.9586 30.2064 64.0683 29.7186 61.9488 29.7186C60.4022 29.7186 59.0045 29.999 57.7557 30.5596C57.4098 30.7149 57.0881 30.8814 56.7905 31.0591C56.0138 31.5229 55.4019 32.0628 54.9546 32.679H54.7483L55.6591 24.0501H71.0396V18.0957H49.5241L47.8572 36.2618L54.4734 37.4224C55.0118 36.7047 55.7623 36.1384 56.7246 35.7235C57.6984 35.3086 58.7009 35.1012 59.732 35.1012C60.912 35.1124 61.9603 35.3759 62.8768 35.8917C63.7933 36.4075 64.5094 37.1252 65.0249 38.0447C65.5519 38.9642 65.8154 40.0295 65.8154 41.2406C65.8154 42.4292 65.5576 43.4833 65.0421 44.4028C64.538 45.3111 63.8334 46.0232 62.9284 46.539C62.0347 47.0436 61.0037 47.296 59.8351 47.296C58.3686 47.296 57.1027 46.881 56.0372 46.0512C54.9717 45.2214 54.3989 44.1393 54.3187 42.8049H47.1011C47.1156 43.4347 47.1838 44.042 47.3056 44.6267C47.5677 45.8845 48.0781 47.0378 48.8367 48.0865C49.948 49.6228 51.4488 50.8282 53.3392 51.7029C55.241 52.5776 57.4063 53.0149 59.8351 53.0149C62.4472 53.0149 64.7385 52.5047 66.709 51.4842C68.691 50.4526 70.2319 49.0397 71.3318 47.2455Z" fill="#B4B4B4"/>
<path fill-rule="evenodd" clip-rule="evenodd" d="M101.824 54.366H37.8438L32.0273 66.2075H101.824L97.1713 60.2868L101.824 54.366ZM87.1048 59.6H85.8021C85.7783 59.435 85.7297 59.2885 85.6563 59.1604C85.583 59.0304 85.4888 58.9198 85.3738 58.8285C85.2588 58.7373 85.1259 58.6675 84.9752 58.6189C84.8265 58.5704 84.6649 58.5462 84.4904 58.5462C84.1751 58.5462 83.9005 58.6228 83.6665 58.7761C83.4326 58.9275 83.2511 59.1488 83.1222 59.4399C82.9933 59.7291 82.9289 60.0804 82.9289 60.4938C82.9289 60.9188 82.9933 61.2759 83.1222 61.5651C83.2531 61.8543 83.4355 62.0726 83.6695 62.2201C83.9035 62.3676 84.1741 62.4414 84.4815 62.4414C84.654 62.4414 84.8136 62.4191 84.9604 62.3744C85.1091 62.3298 85.2409 62.2648 85.3559 62.1794C85.4709 62.092 85.5661 61.9863 85.6415 61.862C85.7188 61.7378 85.7723 61.5961 85.8021 61.437L87.1048 61.4428C87.0711 61.7165 86.9869 61.9804 86.852 62.2347C86.7192 62.487 86.5397 62.7131 86.3137 62.913C86.0896 63.111 85.8219 63.2682 85.5106 63.3846C85.2013 63.4991 84.8513 63.5564 84.4607 63.5564C83.9174 63.5564 83.4316 63.436 83.0033 63.1954C82.5769 62.9547 82.2399 62.6063 81.992 62.1502C81.7461 61.6942 81.6232 61.142 81.6232 60.4938C81.6232 59.8436 81.7481 59.2905 81.9979 58.8344C82.2478 58.3783 82.5869 58.0309 83.0152 57.7921C83.4435 57.5515 83.9253 57.4312 84.4607 57.4312C84.8136 57.4312 85.1408 57.4797 85.4422 57.5767C85.7456 57.6738 86.0143 57.8154 86.2482 58.0018C86.4822 58.1861 86.6726 58.4122 86.8193 58.6801C86.968 58.9479 87.0632 59.2545 87.1048 59.6ZM40.9316 57.5127V63.4749H45.0481V62.4355H42.2195V61.012H44.825V59.9727H42.2195V58.552H45.0362V57.5127H40.9316ZM48.4961 59.5447L47.2677 57.5127H45.8073L47.6781 60.4938L45.7716 63.4749H47.2468L48.4961 61.4399H48.5436L49.7929 63.4749H51.2741L49.3735 60.4938L51.2324 57.5127H49.778L48.5436 59.5447H48.4961ZM52.0474 57.5127H54.4506C54.9126 57.5127 55.3062 57.599 55.6314 57.7718C55.9566 57.9426 56.2045 58.1803 56.375 58.485C56.5475 58.7878 56.6338 59.1371 56.6338 59.5331C56.6338 59.929 56.5465 60.2783 56.372 60.5811C56.1975 60.8839 55.9447 61.1197 55.6136 61.2885C55.2844 61.4574 54.8859 61.5418 54.4179 61.5418H53.3353V63.4749H52.0474V57.5127ZM54.2097 60.5316H53.3353V58.5432H54.2038C54.4536 58.5432 54.6598 58.585 54.8224 58.6684C54.985 58.7499 55.106 58.8654 55.1853 59.0149C55.2666 59.1624 55.3072 59.3351 55.3072 59.5331C55.3072 59.7291 55.2666 59.9028 55.1853 60.0542C55.106 60.2036 54.985 60.321 54.8224 60.4064C54.6618 60.4899 54.4576 60.5316 54.2097 60.5316ZM61.5748 57.5127H57.4703V63.4749H61.5867V62.4355H58.7582V61.012H61.3637V59.9727H58.7582V58.552H61.5748V57.5127ZM62.5987 57.5127H65.002C65.462 57.5127 65.8546 57.5932 66.1798 57.7543C66.507 57.9134 66.7558 58.1396 66.9264 58.4326C67.0989 58.7237 67.1851 59.0663 67.1851 59.4603C67.1851 59.8562 67.0979 60.1968 66.9234 60.4821C66.7489 60.7655 66.4961 60.9828 66.1649 61.1342C66.1468 61.1426 66.1284 61.1507 66.1098 61.1586L67.4023 63.4749H65.9805L64.8267 61.3613H63.8866V63.4749H62.5987V57.5127ZM64.7611 60.3482H63.8866V58.5432H64.7551C65.003 58.5432 65.2082 58.5791 65.3708 58.651C65.5354 58.7208 65.6573 58.8237 65.7366 58.9595C65.8179 59.0954 65.8586 59.2623 65.8586 59.4603C65.8586 59.6563 65.8179 59.8203 65.7366 59.9523C65.6573 60.0842 65.5364 60.1832 65.3738 60.2492C65.2112 60.3152 65.007 60.3482 64.7611 60.3482ZM68.0953 63.4749H69.3832V57.5127H68.0953V63.4749ZM70.4428 57.5127H74.5473V58.552H71.7306V59.9727H74.3361V61.012H71.7306V62.4355H74.5592V63.4749H70.4428V57.5127ZM79.5538 63.4749H80.6662V57.5127H79.3843V61.2623H79.3307L76.7014 57.5127H75.5712V63.4749H76.8591V59.7223H76.9037L79.5538 63.4749ZM92.1329 57.5127H88.0284V63.4749H92.1448V62.4355H89.3162V61.012H91.9217V59.9727H89.3162V58.552H92.1329V57.5127Z" fill="#B4B4B4"/>
<path d="M118.814 26.4858L114.922 35.6138H113.634L117.582 26.6118H112.178V25.5198H118.814V26.4858ZM126.68 26.5978H121.766V29.7898C121.981 29.4912 122.298 29.2485 122.718 29.0618C123.138 28.8658 123.591 28.7678 124.076 28.7678C124.851 28.7678 125.481 28.9312 125.966 29.2578C126.452 29.5752 126.797 29.9905 127.002 30.5038C127.217 31.0078 127.324 31.5445 127.324 32.1138C127.324 32.7858 127.198 33.3878 126.946 33.9198C126.694 34.4518 126.307 34.8718 125.784 35.1798C125.271 35.4878 124.632 35.6418 123.866 35.6418C122.886 35.6418 122.093 35.3898 121.486 34.8858C120.88 34.3818 120.511 33.7098 120.38 32.8698H121.626C121.748 33.4018 122.004 33.8172 122.396 34.1158C122.788 34.4145 123.283 34.5638 123.88 34.5638C124.618 34.5638 125.173 34.3445 125.546 33.9058C125.92 33.4578 126.106 32.8698 126.106 32.1418C126.106 31.4138 125.92 30.8538 125.546 30.4618C125.173 30.0605 124.622 29.8598 123.894 29.8598C123.4 29.8598 122.966 29.9812 122.592 30.2238C122.228 30.4572 121.962 30.7792 121.794 31.1898H120.59V25.4778H126.68V26.5978ZM139.792 25.8558L136.614 31.9318V35.6138H135.34V31.9318L132.148 25.8558H133.562L135.97 30.7978L138.378 25.8558H139.792ZM142.41 26.8918V30.1538H145.966V31.2038H142.41V34.5638H146.386V35.6138H141.136V25.8418H146.386V26.8918H142.41ZM154.081 33.4438H149.825L149.041 35.6138H147.697L151.225 25.9118H152.695L156.209 35.6138H154.865L154.081 33.4438ZM153.717 32.4078L151.953 27.4798L150.189 32.4078H153.717ZM162.885 35.6138L160.561 31.6238H159.021V35.6138H157.747V25.8558H160.897C161.634 25.8558 162.255 25.9818 162.759 26.2338C163.272 26.4858 163.655 26.8265 163.907 27.2558C164.159 27.6852 164.285 28.1752 164.285 28.7258C164.285 29.3978 164.089 29.9905 163.697 30.5038C163.314 31.0172 162.736 31.3578 161.961 31.5258L164.411 35.6138H162.885ZM159.021 30.6018H160.897C161.588 30.6018 162.106 30.4338 162.451 30.0978C162.796 29.7525 162.969 29.2952 162.969 28.7258C162.969 28.1472 162.796 27.6992 162.451 27.3818C162.115 27.0645 161.597 26.9058 160.897 26.9058H159.021V30.6018ZM169.359 35.7118C168.715 35.7118 168.136 35.5998 167.623 35.3758C167.119 35.1425 166.722 34.8252 166.433 34.4238C166.143 34.0132 165.994 33.5418 165.985 33.0098H167.343C167.389 33.4672 167.576 33.8545 167.903 34.1718C168.239 34.4798 168.724 34.6338 169.359 34.6338C169.965 34.6338 170.441 34.4845 170.787 34.1858C171.141 33.8778 171.319 33.4858 171.319 33.0098C171.319 32.6365 171.216 32.3332 171.011 32.0998C170.805 31.8665 170.549 31.6892 170.241 31.5678C169.933 31.4465 169.517 31.3158 168.995 31.1758C168.351 31.0078 167.833 30.8398 167.441 30.6718C167.058 30.5038 166.727 30.2425 166.447 29.8878C166.176 29.5238 166.041 29.0385 166.041 28.4318C166.041 27.8998 166.176 27.4285 166.447 27.0178C166.717 26.6072 167.095 26.2898 167.581 26.0658C168.075 25.8418 168.64 25.7298 169.275 25.7298C170.189 25.7298 170.936 25.9585 171.515 26.4158C172.103 26.8732 172.434 27.4798 172.509 28.2358H171.109C171.062 27.8625 170.866 27.5358 170.521 27.2558C170.175 26.9665 169.718 26.8218 169.149 26.8218C168.617 26.8218 168.183 26.9618 167.847 27.2418C167.511 27.5125 167.343 27.8952 167.343 28.3898C167.343 28.7445 167.441 29.0338 167.637 29.2578C167.842 29.4818 168.089 29.6545 168.379 29.7758C168.677 29.8878 169.093 30.0185 169.625 30.1678C170.269 30.3452 170.787 30.5225 171.179 30.6998C171.571 30.8678 171.907 31.1338 172.187 31.4978C172.467 31.8525 172.607 32.3378 172.607 32.9538C172.607 33.4298 172.481 33.8778 172.229 34.2978C171.977 34.7178 171.603 35.0585 171.109 35.3198C170.614 35.5812 170.031 35.7118 169.359 35.7118ZM114.068 47.8918V51.1538H117.624V52.2038H114.068V55.5638H118.044V56.6138H112.794V46.8418H118.044V47.8918H114.068ZM123.962 51.7418L126.958 56.6138H125.516L123.178 52.8058L120.952 56.6138H119.538L122.52 51.7418L119.524 46.8558H120.952L123.304 50.6778L125.544 46.8558H126.972L123.962 51.7418ZM135.191 49.7118C135.191 50.5238 134.911 51.2005 134.351 51.7418C133.8 52.2738 132.956 52.5398 131.817 52.5398H129.941V56.6138H128.667V46.8558H131.817C132.918 46.8558 133.754 47.1218 134.323 47.6538C134.902 48.1858 135.191 48.8718 135.191 49.7118ZM131.817 51.4898C132.526 51.4898 133.049 51.3358 133.385 51.0278C133.721 50.7198 133.889 50.2812 133.889 49.7118C133.889 48.5078 133.198 47.9058 131.817 47.9058H129.941V51.4898H131.817ZM138.048 47.8918V51.1538H141.604V52.2038H138.048V55.5638H142.024V56.6138H136.774V46.8418H142.024V47.8918H138.048ZM149.09 56.6138L146.766 52.6238H145.226V56.6138H143.952V46.8558H147.102C147.839 46.8558 148.46 46.9818 148.964 47.2338C149.477 47.4858 149.86 47.8265 150.112 48.2558C150.364 48.6852 150.49 49.1752 150.49 49.7258C150.49 50.3978 150.294 50.9905 149.902 51.5038C149.519 52.0172 148.941 52.3578 148.166 52.5258L150.616 56.6138H149.09ZM145.226 51.6018H147.102C147.793 51.6018 148.311 51.4338 148.656 51.0978C149.001 50.7525 149.174 50.2952 149.174 49.7258C149.174 49.1472 149.001 48.6992 148.656 48.3818C148.32 48.0645 147.802 47.9058 147.102 47.9058H145.226V51.6018ZM153.744 46.8558V56.6138H152.47V46.8558H153.744ZM157.189 47.8918V51.1538H160.745V52.2038H157.189V55.5638H161.165V56.6138H155.915V46.8418H161.165V47.8918H157.189ZM170.765 56.6138H169.491L164.367 48.8438V56.6138H163.093V46.8418H164.367L169.491 54.5978V46.8418H170.765V56.6138ZM172.46 51.7278C172.46 50.7758 172.675 49.9218 173.104 49.1658C173.534 48.4005 174.117 47.8032 174.854 47.3738C175.601 46.9445 176.427 46.7298 177.332 46.7298C178.396 46.7298 179.325 46.9865 180.118 47.4998C180.912 48.0132 181.49 48.7412 181.854 49.6838H180.328C180.058 49.0958 179.666 48.6432 179.152 48.3258C178.648 48.0085 178.042 47.8498 177.332 47.8498C176.651 47.8498 176.04 48.0085 175.498 48.3258C174.957 48.6432 174.532 49.0958 174.224 49.6838C173.916 50.2625 173.762 50.9438 173.762 51.7278C173.762 52.5025 173.916 53.1838 174.224 53.7718C174.532 54.3505 174.957 54.7985 175.498 55.1158C176.04 55.4332 176.651 55.5918 177.332 55.5918C178.042 55.5918 178.648 55.4378 179.152 55.1298C179.666 54.8125 180.058 54.3598 180.328 53.7718H181.854C181.49 54.7052 180.912 55.4285 180.118 55.9418C179.325 56.4458 178.396 56.6978 177.332 56.6978C176.427 56.6978 175.601 56.4878 174.854 56.0678C174.117 55.6385 173.534 55.0458 173.104 54.2898C172.675 53.5338 172.46 52.6798 172.46 51.7278ZM185.025 47.8918V51.1538H188.581V52.2038H185.025V55.5638H189.001V56.6138H183.751V46.8418H189.001V47.8918H185.025Z" fill="#B4B4B4"/>
<g style="mix-blend-mode:lighten">
<rect x="19" y="7" width="1422" height="69" fill="#B8CEF0"/>
</g>
</g>
<defs>
<linearGradient id="paint0_linear_1_25855" x1="29.3334" y1="-12.5195" x2="-85.2353" y2="-51.8283" gradientUnits="userSpaceOnUse">
<stop offset="0.0330179" stop-color="#7224A3"/>
<stop offset="0.1875" stop-color="#435CB8"/>
<stop offset="0.369792" stop-color="#5F9646"/>
<stop offset="0.584508" stop-color="#ECBA39"/>
<stop offset="0.778682" stop-color="#FC902C"/>
<stop offset="1" stop-color="#FF3D00"/>
</linearGradient>
<clipPath id="clip0_1_25855">
<rect width="200" height="80" fill="white"/>
</clipPath>
<clipPath id="clip1_1_25855">
<rect width="166.782" height="96.0882" fill="white" transform="matrix(-0.982973 -0.183748 -0.183748 0.982973 49.5977 -80.4441)"/>
</clipPath>
</defs>
</svg>
