<svg width="182" height="127" viewBox="0 0 182 127" fill="none" xmlns="http://www.w3.org/2000/svg">
<g clip-path="url(#clip0_829_617)">
<path d="M37.0835 90.6541C37.0835 90.6541 35.706 93.1074 36.6727 95.7425L45.4645 88.3103L45.7618 84.9685C45.7618 84.9685 38.6201 88.2147 37.0835 90.6541Z" fill="#1B0725"/>
<path d="M51.0725 87.1093C51.0725 87.1093 37.0932 92.5025 34.5698 101.825C34.5698 101.825 33.8254 94.0974 43.116 88.4276C52.4066 82.7578 51.0725 87.1093 51.0725 87.1093Z" fill="#1B0725"/>
<path d="M52.9902 87.0455C48.7469 87.0021 41.0779 88.1531 35.8851 96.0371C35.8851 96.0371 41.4307 82.6158 63.9318 76.6572C63.9318 76.6572 60.2032 74.662 59.1975 68.2276C59.1975 68.2276 64.8909 79.9656 77.3515 71.8737C87.8452 65.0635 94.8413 78.3985 94.8413 78.3985C94.8413 78.3985 95.0983 79.1331 84.0895 84.1424C70.2068 90.4533 60.397 90.8411 54.4804 88.3777L56.1126 87.3254C55.0885 87.1403 54.0499 87.0478 53.0092 87.0491L52.9902 87.0455Z" fill="url(#paint0_linear_829_617)"/>
<path style="mix-blend-mode:multiply" opacity="0.6" d="M81.4082 81.1753C81.4082 81.1753 72.4826 86.7279 66.0991 87.2471C56.0522 88.0602 51.9131 83.7036 41.8671 88.1825C41.8671 88.1825 46.3565 83.3436 53.3069 82.9145C60.2572 82.4854 74.4186 84.1777 81.4082 81.1753Z" fill="url(#paint1_linear_829_617)"/>
<path d="M92.8633 70.9182C92.8633 70.9182 87.7566 77.962 78.9509 77.8312C70.1451 77.7004 67.9981 76.4428 61.185 77.446C54.3719 78.4492 41.7296 83.4412 37.0804 90.6534C37.0804 90.6534 42.2514 83.6453 59.0604 85.7102C74.4972 87.6053 88.9149 77.9891 92.8633 70.9182Z" fill="url(#paint2_linear_829_617)"/>
<path d="M78.5062 76.6035C78.5062 76.6035 67.0167 78.2557 63.1951 75.9354C59.3735 73.615 59.1898 68.226 59.1898 68.226C59.1898 68.226 64.2942 76.638 78.5062 76.6035Z" fill="#44165F"/>
<path d="M64.2216 76.4115C67.1851 77.0818 70.2307 77.3148 73.2617 77.103C69.2456 77.4196 65.2162 77.5343 61.1886 77.4466L63.4418 76.6169L62.3698 75.3472L64.2216 76.4115Z" fill="#44165F"/>
<path d="M57.6111 84.6027C58.7156 84.6435 59.3672 84.7021 59.3672 84.7021C59.3672 84.7021 58.4768 84.6975 57.6111 84.6027Z" fill="url(#paint3_linear_829_617)"/>
<path d="M47.6904 84.8672C47.6904 84.8672 56.9379 80.7992 57.8604 78.1425C58.9542 77.8405 60.0659 77.6081 61.1889 77.4467C62.6944 77.2625 70.9698 77.3613 70.9698 77.3613C70.9698 77.3613 67.6135 77.5941 66.8067 77.8379C66 78.0817 56.097 83.5463 55.7834 84.0637C55.6121 84.3474 56.6276 84.5057 57.6255 84.5896C57.0413 84.5712 56.3302 84.5566 55.5212 84.5593C62.7412 84.9027 70.2262 86.0651 82.8888 80.2049C82.8888 80.2049 73.8391 86.1052 63.6435 85.9197C53.448 85.7343 44.4674 83.4795 37.1015 90.6258C37.0843 90.6541 38.7422 86.2999 47.6904 84.8672Z" fill="black" fill-opacity="0.24"/>
<path d="M103.728 68.8298C103.728 68.8298 109.313 74.1669 118.944 75.62C128.576 77.0731 137.889 76.5965 141.224 77.3225C144.559 78.0485 149.291 83.9601 156.992 84.8079C161.953 85.2642 166.955 84.9466 171.819 83.8664C167.97 86.0628 163.717 87.4582 159.316 87.9689C154.415 88.572 146.943 85.3166 146.943 85.3166C146.943 85.3166 154.707 91.5899 161.727 93.1705C160.338 93.9492 158.811 94.4504 157.231 94.6464C153.35 94.5036 149.643 93.0048 146.752 90.4106C146.752 90.4106 149.178 95.177 147.853 100.26C147.853 100.26 145.219 103.568 139.388 104.992C139.388 104.992 142.669 97.5867 142.416 93.0134C142.416 93.0134 141.704 99.1425 138.552 104.109C138.552 104.109 134.264 105.801 130.886 104.416C131.542 103.26 132.101 102.051 132.556 100.802C132.556 100.802 128.926 93.3643 129.107 87.8383C129.107 87.8383 127.194 95.3725 119.797 102.158C119.797 102.158 116.568 103.65 113.249 102.437L116.592 99.4714C115.045 100.4 113.335 101.025 111.555 101.312C108.882 101.664 100.695 99.3606 96.4626 96.7701L95.1787 97.0983C95.1787 97.0983 93.2128 95.9692 91.2467 92.3937C91.2467 92.3937 88.3525 90.8504 86.9472 88.5792L87.2751 87.5633C87.2751 87.5633 86.3986 85.6908 86.9433 84.3169C89.5214 82.0135 92.4372 80.1193 95.589 78.7002C95.589 78.7002 89.8175 80.7346 86.1499 80.8816C86.1499 80.8816 84.9822 80.103 85.4347 79.0748C85.8872 78.0467 103.728 68.8298 103.728 68.8298Z" fill="url(#paint4_linear_829_617)"/>
<path style="mix-blend-mode:multiply" opacity="0.6" d="M126.822 78.3909C126.822 78.3909 112.886 88.5943 91.2632 92.4086C91.2632 92.4086 88.4315 90.3838 86.9637 88.5942C86.9637 88.5942 90.6522 81.964 104.273 75.4936C104.271 75.5013 118.972 78.1703 126.822 78.3909Z" fill="url(#paint5_linear_829_617)"/>
<path d="M155.431 84.5553C155.431 84.5553 150.186 83.9182 145.695 81.5082C137.159 76.9176 126.06 78.9467 114.906 78.2782C103.409 77.5852 101.613 72.8063 101.613 72.8063L103.729 68.8297C103.729 68.8297 110.835 74.2144 118.945 75.6199C127.055 77.0254 140.61 76.6433 142.137 77.2484C143.665 77.8536 149.543 83.139 155.431 84.5553Z" fill="url(#paint6_linear_829_617)"/>
<path style="mix-blend-mode:multiply" opacity="0.6" d="M130.465 78.4246C130.465 78.4246 113.163 93.4245 95.1999 97.114C95.1999 97.114 93.1711 95.5195 92.2195 93.9644C92.2195 93.9644 113.659 88.6439 126.827 78.3917L130.465 78.4246Z" fill="url(#paint7_linear_829_617)"/>
<path style="mix-blend-mode:multiply" opacity="0.6" d="M113.269 102.437C113.269 102.437 127.323 91.4583 131.562 78.4203L132.428 78.4519C132.428 78.4519 129.576 93.8328 119.832 102.141C119.814 102.173 115.588 104.082 113.269 102.437Z" fill="url(#paint8_linear_829_617)"/>
<path d="M132.572 100.817C132.572 100.817 138.268 91.1019 138.476 80.7944C138.476 80.7944 137.773 88.1208 131.839 99.2085L132.572 100.817Z" fill="black" fill-opacity="0.24"/>
<path d="M142.388 92.6767C142.388 92.6767 142.499 85.7526 141.197 81.0108C141.197 81.0108 147.309 91.7934 139.387 105.015C139.387 105.015 141.662 99.9159 141.531 97.2634C141.533 97.2519 142.406 94.3295 142.388 92.6767Z" fill="black" fill-opacity="0.24"/>
<path d="M92.2143 93.9636C92.2143 93.9636 102.276 90.1584 107.188 88.2117C107.188 88.2117 96.9036 91.6636 91.2627 92.4085L92.2143 93.9636Z" fill="black" fill-opacity="0.24"/>
<path d="M116.608 99.4862C116.608 99.4862 120.456 96.0346 122.814 93.0781C122.814 93.0781 116.271 97.9789 109.927 101.323C109.93 101.304 115.302 100.966 116.608 99.4862Z" fill="black" fill-opacity="0.24"/>
<path d="M126.822 78.3909C126.822 78.3909 114.067 87.0038 100.698 90.25C100.698 90.25 101.674 88.6607 106.057 84.7884C110.441 80.9161 120.84 78.4288 120.84 78.4288L126.822 78.3909Z" fill="black" fill-opacity="0.24"/>
<path d="M131.547 78.4336C131.547 78.4336 129.064 87.6844 122.815 93.0783C123.261 90.4317 124.216 87.8966 125.626 85.6133C128.03 81.6117 130.468 78.4055 130.468 78.4055L131.547 78.4336Z" fill="black" fill-opacity="0.24"/>
<path style="mix-blend-mode:multiply" opacity="0.99" d="M150.593 83.4855C150.593 83.4855 147.083 83.2752 141.83 81.145C133.032 77.5748 108.446 81.8375 101.41 77.3062L88.2755 77.187L103.735 68.8311L106.189 70.4735C106.189 70.4735 104.781 72.4556 106.778 74.6637C110.243 78.4918 128.586 77.6274 135.136 77.7352C142.409 77.8596 146.064 82.2954 150.593 83.4855Z" fill="url(#paint9_linear_829_617)"/>
<path d="M69.8219 82.1859C70.4096 83.1219 71.1464 83.9554 72.003 84.6534C73.3343 85.8019 76.4096 88.6338 77.9862 88.8496C79.9044 89.1372 81.8598 87.1154 83.7681 86.6751C87.0682 85.8991 89.5205 85.5446 92.4939 84.3011C92.7715 84.1872 93.0422 84.0682 93.3144 83.9415C94.42 83.4328 95.4853 82.8404 96.5009 82.1696L96.8673 81.9184C97.4749 81.4954 98.3721 80.8305 99.3489 80.0148C99.3034 80.0891 99.2656 80.1649 99.2216 80.2317C98.95 80.6912 98.6354 81.1239 98.2819 81.5239C100.019 80.4787 101.504 79.0625 102.63 77.3767C102.784 78.241 102.798 79.1242 102.674 79.9931C102.674 79.9931 105.575 77.4063 105.647 74.8668C105.72 72.3273 103.856 69.9783 104.298 67.6342C104.557 67.3314 104.859 67.0676 105.193 66.8506C106.042 66.3141 106.786 65.6284 107.39 64.8266C107.57 64.6049 107.701 64.3475 107.774 64.0715C107.848 63.7955 107.862 63.507 107.815 63.2252C107.743 62.7315 107.603 62.2501 107.401 61.7942C107.112 61.3016 106.721 60.8772 106.253 60.5498C105.422 59.9525 104.457 59.6102 103.518 59.1665C102.317 58.5943 101.203 57.8547 100.21 56.9697C99.9779 56.7984 99.8048 56.5592 99.7146 56.2852C99.9014 57.0345 100.259 57.7305 100.758 58.3191C101.284 59.099 101.892 59.82 102.573 60.4695L102.26 60.411C101.212 60.164 100.237 59.6749 99.4115 58.9828C99.8071 59.5567 100.246 60.0992 100.725 60.6055L101.104 61.0275L101.02 61.0118C99.062 61.1434 97.1186 61.4401 95.2105 61.8988C93.8772 62.2098 92.5623 62.595 91.2719 63.0527C90.7096 63.2474 90.1632 63.4557 89.6328 63.6775C87.9218 64.3915 86.2225 65.1905 84.5387 66.0122C82.8549 66.8339 81.2606 67.6407 79.609 68.4171C78.5945 69.6244 77.6406 70.9297 76.3197 71.6456C73.1846 73.3324 69.7891 74.935 69.2484 78.334C69.0106 79.6904 69.0476 80.885 69.8219 82.1859Z" fill="url(#paint10_linear_829_617)"/>
<path fill-rule="evenodd" clip-rule="evenodd" d="M76.0508 92.4177C76.0508 92.4177 75.045 93.8949 73.7556 93.5986C73.2113 93.3996 72.7145 93.0891 72.2973 92.6868C72.2973 92.6868 71.8376 92.1708 71.8828 92.0766C71.6667 92.3686 71.4767 92.679 71.315 93.0043C71.3149 93.1108 72.7692 94.0653 73.9376 94.3548C74.0505 94.3837 75.3179 93.7644 76.0508 92.4177Z" fill="url(#paint11_linear_829_617)"/>
<path style="mix-blend-mode:multiply" opacity="0.6" d="M86.1361 84.0555C86.1361 84.0555 82.0918 82.9049 80.301 83.0121L79.2049 84.1291C81.4808 84.7197 83.8729 84.6943 86.1361 84.0555ZM69.2349 78.3274C69.7909 74.9312 73.1711 73.3258 76.3062 71.639C77.6233 70.9224 78.5886 69.6191 79.5955 68.4105C81.2471 67.6341 82.8807 66.807 84.5252 66.0056C82.4158 68.8509 80.3725 71.9966 80.3725 71.9966L83.378 72.1638L79.6589 72.755C76.4476 75.6508 76.1132 80.2879 76.1132 80.2879C77.9241 81.4866 80.6825 81.3511 80.6825 81.3511L83.4268 77.5986C83.6378 75.7204 84.203 73.8992 85.0926 72.2318C84.4269 73.7534 84.1178 75.407 84.1889 77.0663L87.4675 77.7344L84.3419 77.8723C83.0986 79.125 82.1997 80.6777 81.7325 82.38C83.5759 83.3204 87.2603 82.9359 87.2603 82.9359L91.2915 78.8399C89.6532 80.5332 88.2642 82.4512 87.1663 84.5361C89.62 84.5881 92.0256 83.8495 94.0279 82.4292L97.5806 75.5132L95.6382 80.7139C97.2958 80.4753 99.4635 79.9768 100.263 79.1793C99.8829 79.5896 99.5344 79.9348 99.209 80.241C98.3842 80.9955 97.4681 81.6435 96.4822 82.1698C95.6389 82.6514 94.6394 83.167 93.2956 83.9417C93.0235 84.0684 92.7528 84.1875 92.4751 84.3013C89.517 85.5477 87.0495 85.8993 83.7494 86.6753C81.8577 87.1109 79.8932 89.1389 77.9675 88.8499C76.3944 88.6151 73.3156 85.8022 71.9843 84.6537C71.1276 83.9556 70.3909 83.1222 69.8032 82.1862C69.2938 80.6704 69.0824 79.2695 69.2349 78.3274Z" fill="url(#paint12_linear_829_617)"/>
<path d="M103.952 65.6834C104.148 66.1776 104.909 67.109 106.751 67.5915C107.256 67.7193 107.754 67.8781 108.239 68.0671C108.556 68.1788 108.855 68.3356 109.127 68.5328L109.234 66.9034L108.041 66.2621L107.046 66.1195L103.952 65.6834Z" fill="url(#paint13_linear_829_617)"/>
<path d="M103.954 65.6835C104.18 66.0314 104.495 66.3124 104.867 66.4973C104.989 66.5401 105.115 66.5741 105.242 66.5991L105.269 66.6041L105.779 66.6995L105.814 66.7059C106.065 66.7529 106.351 66.8064 106.641 66.8605C107.287 66.9744 107.901 67.2238 108.444 67.5922C108.73 67.8489 108.962 68.1606 109.125 68.5086C109.267 68.7905 109.369 69.0912 109.427 69.4017C110.26 68.4919 111.406 65.881 110.631 64.714C109.851 63.5501 106.852 63.0488 106.852 63.0488C106.616 63.1725 106.425 63.3674 106.306 63.6058C106.142 63.8551 105.951 64.1786 105.685 64.5905C105.466 64.9165 105.168 65.1813 104.819 65.3599C104.549 65.5118 104.257 65.621 103.954 65.6835Z" fill="url(#paint14_linear_829_617)"/>
<path style="mix-blend-mode:multiply" opacity="0.99" d="M105.784 66.7086L105.224 66.6038L105.274 66.6131C105.646 66.7301 107.596 67.3748 108.239 68.071C108.556 68.1828 108.854 68.3396 109.126 68.5367C109.269 68.8186 109.37 69.1193 109.428 69.4298C110.261 68.52 111.408 65.9091 110.632 64.7421C110.705 64.956 110.707 65.188 110.636 65.4028C110.565 65.6175 110.426 65.8033 110.24 65.9315C109.584 66.318 106.242 64.6594 106.13 64.4805C106.017 64.3017 106.193 63.932 106.289 63.6265C106.124 63.8758 105.934 64.1993 105.668 64.6112C105.449 64.9372 105.151 65.2021 104.802 65.3806C105.58 65.5014 106.333 65.7502 107.031 66.1168C108.057 66.7033 106.693 66.8902 106.625 66.8972L105.798 66.7426L105.784 66.7086Z" fill="url(#paint15_linear_829_617)"/>
<path d="M108.535 65.3285C108.436 65.143 108.276 64.9974 108.082 64.9166C107.888 64.8357 107.672 64.8245 107.47 64.8848C107.783 65.1175 108.149 65.2699 108.535 65.3285Z" fill="white"/>
<path d="M31.3648 28.2654C31.3648 28.2654 26.1383 29.4942 23.4328 34.347C23.4328 34.347 23.1156 37.6892 24.9227 42.474C25.3039 43.474 25.7413 44.4516 26.2329 45.4022C26.2329 45.4022 30.7165 41.7972 32.4739 34.7586C32.4775 34.7545 32.4798 34.7495 32.4808 34.7441C32.4818 34.7388 32.4814 34.7333 32.4796 34.7281C32.5031 34.6023 32.5464 34.4762 32.5737 34.3511C32.3769 35.6362 32.0012 40.9798 27.4737 45.5157C27.4737 45.5157 28.8685 49.1936 31.4201 51.5568C31.8683 51.9753 32.3598 52.3449 32.8861 52.6595C32.8861 52.6595 43.8718 48.8928 46.098 42.6166C46.0124 42.8847 45.8651 43.3347 45.6489 43.9216C44.5051 47.0027 41.4987 53.7604 36.353 56.2236C36.353 56.2236 41.7681 63.9439 47.2936 67.1707L46.9769 62.0292C47.3755 63.7802 48.0052 65.4703 48.8494 67.0551C49.0005 67.3438 49.1683 67.6277 49.3489 67.9061C49.9228 68.8026 52.7851 71.0857 60.1552 68.3478C62.1697 67.5796 64.1212 66.6555 65.9921 65.5837C66.9918 65.0248 56.9716 71.8761 57.045 71.9056C57.3553 72.0386 57.69 72.1683 58.0434 72.2817C61.4161 73.4172 66.3447 73.719 71.4641 73.2318C73.3715 73.0538 75.2677 72.7707 77.1439 72.3837C78.2967 72.132 79.425 71.7791 80.5159 71.3291C85.256 69.453 90.015 65.9784 92.6343 63.9072L93.363 63.3213C93.8515 62.9233 94.2217 62.6097 94.4414 62.4259C94.4565 62.407 94.4742 62.3904 94.494 62.3765C94.6145 62.2807 94.6723 62.2244 94.6723 62.2244L94.6533 62.2208L94.5232 62.1571L92.7703 61.2809C86.9351 58.3395 69.2556 49.1592 62.517 42.8014C60.4857 40.8827 58.5525 38.9035 56.7536 36.9652L56.3505 36.5268L56.2263 36.3892C51.0796 30.7985 47.0643 25.6956 44.9014 23.8905C42.1283 21.5727 35.2244 21.3949 29.238 16.2668C28.7831 15.8872 28.3346 15.4732 27.8926 15.0249C21.6179 8.61178 17.6545 0.910281 17.6545 0.910281C18.9066 5.97965 21.015 10.7976 23.8887 15.1564C26.9972 19.9202 34.6018 24.2617 34.8943 24.4268C34.5818 24.3684 24.5683 21.8376 18.3568 16.7109C18.8164 18.5303 19.5735 20.2612 20.5977 21.8333C20.5977 21.8333 24.8339 27.1472 31.3648 28.2654Z" fill="url(#paint16_linear_829_617)"/>
<path d="M48.8518 67.0436C49.0029 67.3322 49.1707 67.6161 49.3513 67.8946C49.9252 68.791 52.7875 71.0741 60.1576 68.3362C62.171 67.5717 64.1218 66.6514 65.9924 65.5836C66.9921 65.0247 56.9719 71.876 57.0452 71.9055C57.3556 72.0385 57.6903 72.1682 58.0437 72.2816C59.2421 71.8624 60.4136 71.3553 61.5774 70.8468C63.6041 69.963 65.6346 69.0799 67.5793 68.0229C72.6806 65.2765 77.1429 61.4804 80.6725 56.8845C80.8596 56.6433 77.8383 55.2736 77.5035 55.2504C76.594 55.1791 75.4199 56.6918 74.7214 57.2637C72.6802 58.9441 70.5097 60.4608 68.2299 61.7994C66.9489 62.5555 65.6268 63.2397 64.2698 63.8489C59.5818 66.0273 54.458 67.1036 49.2907 66.9954C49.1428 66.9904 48.995 67.0066 48.8518 67.0436Z" fill="black" fill-opacity="0.24"/>
<path style="mix-blend-mode:multiply" opacity="0.6" d="M57.0494 71.8866C61.526 73.8046 69.683 73.9246 77.1407 72.3632C78.2935 72.1115 79.4218 71.7586 80.5127 71.3086C85.2528 69.4326 90.0118 65.9579 92.6311 63.8867L93.3598 63.3008C93.8483 62.9028 94.2185 62.5893 94.4382 62.4054C94.4533 62.3865 94.471 62.3699 94.4908 62.3561C94.6113 62.2602 94.6691 62.2039 94.6691 62.2039L94.5207 62.1328L92.7678 61.2566C87.7685 60.3446 82.853 59.0219 78.071 57.3019C71.9693 63.1495 63.7926 66.806 65.9929 65.5837C66.9962 65.0057 56.976 71.8571 57.0494 71.8866Z" fill="url(#paint17_linear_829_617)"/>
<path d="M29.234 16.2304C30.5878 17.52 32.0306 18.7127 33.5518 19.7997C33.8472 20.0127 34.154 20.2279 34.473 20.4414C35.7738 21.3335 37.1454 22.1178 38.574 22.7864C48.1716 27.2045 52.4119 35.4708 61.1179 45.0808C70.0699 54.9775 83.5276 60.8985 91.8699 63.6773C92.1149 63.7627 92.369 63.8195 92.6271 63.8464C94.0331 63.983 94.3908 62.8503 94.4906 62.3165C94.5091 62.2174 94.5233 62.1411 94.5319 62.0954C94.5319 62.0954 69.4717 49.0849 62.513 42.7649C60.705 41.1287 58.7215 39.0809 56.7573 36.9302L56.3541 36.4918L56.23 36.3542C50.7333 30.3153 45.4001 23.6757 44.2843 22.9778C42.719 22.0263 34.5842 20.5214 29.234 16.2304Z" fill="url(#paint18_linear_829_617)"/>
<path d="M31.4239 51.5454C31.8721 51.964 32.3636 52.3336 32.8899 52.6481C32.8899 52.6481 43.8734 48.8929 46.0996 42.6167C46.014 42.8848 45.8668 43.3348 45.6506 43.9217C47.4669 41.1677 49.207 37.5549 50.6816 32.8311C50.4515 33.2181 47.4276 44.4157 31.4239 51.5454Z" fill="black" fill-opacity="0.24"/>
<path d="M42.1985 41.7336C42.1985 41.7336 47.3051 36.8639 49.6152 32.5015C49.6152 32.5015 47.2548 44.7701 30.5622 48.3065C30.5622 48.3065 36.3111 46.3507 38.1134 44.3674C38.1134 44.3674 41.0167 42.9292 42.1985 41.7336Z" fill="black" fill-opacity="0.24"/>
<path style="mix-blend-mode:multiply" opacity="0.99" d="M33.5582 19.8286C33.7217 20.0091 36.4614 22.9479 41.6851 26.0592C50.7528 31.4555 55.3716 45.4825 62.8133 50.5472C66.2005 52.8495 83.6425 62.6681 80.5129 71.3087C85.253 69.4326 90.012 65.958 92.6314 63.8867C94.0374 64.0233 94.3951 62.8906 94.4949 62.3568C94.6153 62.261 94.6732 62.2047 94.6732 62.2047L94.5248 62.1336C94.5033 62.2288 94.4752 62.3224 94.4408 62.4138C94.3504 62.6415 94.2043 62.8428 94.0158 62.9992C93.8274 63.1557 93.6027 63.2623 93.3624 63.3092C92.7125 63.4302 92.0424 63.3811 91.4172 63.1665C65.8523 55.957 53.3388 35.1114 48.4559 29.2702C43.4188 23.262 38.5053 23.0696 34.4818 20.4787C34.1652 20.2735 33.8622 20.059 33.5582 19.8286Z" fill="url(#paint19_linear_829_617)"/>
<path d="M24.9253 42.4663C25.3065 43.4663 25.7439 44.4439 26.2355 45.3944C26.2355 45.3944 30.7191 41.7894 32.4765 34.7509C32.48 34.7467 32.4824 34.7417 32.4834 34.7364C32.4844 34.731 32.484 34.7255 32.4822 34.7204C32.5378 34.423 32.5927 34.1294 32.614 33.8256C31.7603 35.8292 30.5322 37.6514 28.9956 39.1944C27.7709 40.44 26.4049 41.5381 24.9253 42.4663Z" fill="url(#paint20_linear_829_617)"/>
<path style="mix-blend-mode:multiply" opacity="0.99" d="M105.003 63.8003C105.003 63.8003 105.063 62.7224 103.773 62.0906C102.483 61.4589 102.235 62.7857 102.284 63.1974L105.003 63.8003Z" fill="url(#paint21_linear_829_617)"/>
<path fill-rule="evenodd" clip-rule="evenodd" d="M103.21 64.4833C104.242 64.8065 105.069 64.2231 105.005 63.8048C104.768 62.2886 102.988 61.94 102.59 62.3787C102.489 62.4875 102.412 62.6173 102.365 62.7588C102.3 62.9271 102.271 63.107 102.278 63.2873C102.286 63.4675 102.331 63.6442 102.411 63.8062C102.49 63.9682 102.602 64.112 102.74 64.2285C102.877 64.3451 103.038 64.4318 103.21 64.4833Z" fill="url(#paint22_linear_829_617)"/>
<path d="M102.421 63.3172C102.389 63.5277 102.443 63.742 102.569 63.9134C102.695 64.0847 102.883 64.1993 103.093 64.2322C103.252 64.2578 103.415 64.2356 103.561 64.1683C103.707 64.101 103.83 63.9917 103.914 63.8543C103.998 63.7169 104.039 63.5577 104.032 63.3969C104.025 63.2361 103.971 63.081 103.875 62.9514C103.78 62.8218 103.648 62.7235 103.497 62.669C103.345 62.6146 103.181 62.6065 103.025 62.6457C102.869 62.685 102.728 62.7698 102.621 62.8894C102.513 63.009 102.443 63.1579 102.421 63.3172Z" fill="url(#paint23_radial_829_617)"/>
<path d="M102.619 63.3269C102.603 63.4284 102.617 63.5325 102.659 63.626C102.702 63.7196 102.771 63.7984 102.858 63.8526C102.946 63.9067 103.047 63.9338 103.15 63.9303C103.252 63.9267 103.352 63.8929 103.435 63.8329C103.519 63.7729 103.582 63.6895 103.619 63.5933C103.655 63.497 103.661 63.3923 103.638 63.2922C103.615 63.1921 103.562 63.1013 103.487 63.0311C103.412 62.9609 103.318 62.9146 103.216 62.8979C103.149 62.8869 103.08 62.8892 103.014 62.9048C102.947 62.9204 102.885 62.9489 102.829 62.9887C102.774 63.0286 102.727 63.079 102.691 63.137C102.655 63.195 102.631 63.2596 102.619 63.3269Z" fill="url(#paint24_linear_829_617)"/>
<path style="mix-blend-mode:multiply" opacity="0.91" d="M102.363 62.7582C104.163 62.8578 104.961 63.7567 105.003 63.8041C104.766 62.2879 102.985 61.9393 102.588 62.378C102.486 62.4868 102.41 62.6166 102.363 62.7582Z" fill="url(#paint25_linear_829_617)"/>
<path style="mix-blend-mode:screen" opacity="0.5" d="M103.51 62.9528L103.146 63.3385L102.372 63.0676L102.507 62.7692C102.849 62.7712 103.189 62.8333 103.51 62.9528Z" fill="url(#paint26_linear_829_617)"/>
<path style="mix-blend-mode:multiply" opacity="0.6" d="M99.1416 79.6721C100.065 79.1423 100.609 78.7626 100.609 78.7626C101.32 76.603 100.25 72.2439 99.9815 71.1914C99.9554 71.1504 99.9257 71.1119 99.8926 71.0762C99.8827 71.1295 99.8684 71.2058 99.8513 71.2973C99.8342 71.3888 99.8714 71.4431 99.8766 71.4993L99.8948 72.0986C99.9112 72.4962 99.9199 72.8924 99.9363 73.2901C99.9801 75.4607 99.9578 77.6899 99.1416 79.6721Z" fill="url(#paint27_linear_829_617)"/>
<path style="mix-blend-mode:multiply" opacity="0.6" d="M102.614 77.3853C102.614 77.3853 102.184 78.1454 102.19 77.965C102.367 73.9613 100.676 69.1864 100.676 69.1864C100.676 69.1864 103.156 74.2312 102.614 77.3853Z" fill="url(#paint28_linear_829_617)"/>
<path d="M74.6094 93.8138C75.2248 93.4185 75.7487 92.8962 76.146 92.282C76.5104 91.8015 76.8498 91.3026 77.1629 90.7872C77.3752 90.4322 77.5798 90.0759 77.7578 89.7146C78.06 89.1223 78.3304 88.5142 78.5676 87.893C78.7633 87.3732 79.0808 86.4342 78.1576 86.5418C77.4401 86.6247 77.2509 87.489 77.0366 88.0448C76.8828 88.5322 76.5751 88.9565 76.1598 89.2541C75.9658 89.3809 75.7485 89.4677 75.5205 89.5094C75.3036 89.5518 74.8433 89.588 74.4327 89.6534C74.2534 89.6774 74.0767 89.7184 73.9051 89.7757C73.6639 89.8672 73.4332 89.9841 73.2167 90.1245C73.6272 90.0947 74.0398 90.1344 74.4371 90.2421C74.4903 90.2546 74.5409 90.2761 74.5869 90.3056C74.5957 90.4059 74.4413 91.6121 74.2256 91.8165C73.9545 92.0362 73.6463 92.2058 73.3156 92.3172C73.1754 92.3687 73.0234 92.3787 72.8777 92.3458C72.732 92.313 72.5989 92.2388 72.4944 92.1321C72.4783 92.1098 72.4642 92.086 72.4525 92.0611C72.3047 91.7336 72.6971 91.1953 72.8144 90.8424C72.4565 91.128 72.1314 91.4523 71.8448 91.8094C71.7549 91.9133 71.6889 92.0357 71.6516 92.1679C71.6436 92.3163 73.2357 94.5593 74.6094 93.8138Z" fill="url(#paint29_linear_829_617)"/>
<path fill-rule="evenodd" clip-rule="evenodd" d="M71.8544 91.8266C71.9067 91.9317 71.9894 92.0186 72.0917 92.0761C72.2103 92.0981 72.332 92.0981 72.4506 92.0761C72.3028 91.7486 72.6953 91.2104 72.8125 90.8574C72.4585 91.1443 72.1372 91.4693 71.8544 91.8266Z" fill="url(#paint30_linear_829_617)"/>
<path fill-rule="evenodd" clip-rule="evenodd" d="M73.2186 90.1167C73.6291 90.0869 74.0416 90.1266 74.4389 90.2343C74.4999 90.1635 74.545 90.0805 74.5712 89.9907C74.5502 89.8674 74.5037 89.7498 74.4346 89.6456C74.2552 89.6696 74.0785 89.7106 73.9069 89.7679C73.6657 89.8594 73.435 89.9763 73.2186 90.1167Z" fill="url(#paint31_linear_829_617)"/>
<path style="mix-blend-mode:multiply" opacity="0.6" fill-rule="evenodd" clip-rule="evenodd" d="M76.162 89.2463C76.7406 89.1888 77.586 89.1179 77.6897 89.3228C77.7334 89.447 77.7595 89.5768 77.7675 89.7082C78.0698 89.1159 78.3401 88.5079 78.5774 87.8866C78.7731 87.3669 79.0906 86.4279 78.1674 86.5355C77.4499 86.6184 77.2607 87.4827 77.0464 88.0385C76.8925 88.5258 76.5849 88.9501 76.1696 89.2477L76.162 89.2463Z" fill="url(#paint32_linear_829_617)"/>
<path fill-rule="evenodd" clip-rule="evenodd" d="M70.9844 88.9492C70.9844 88.9492 69.7388 90.4644 68.3481 90.0348C67.6488 89.8094 66.8428 88.8892 66.8428 88.8892C66.8428 88.8892 66.3895 88.2758 66.4469 88.1799C66.1839 88.4801 65.9459 88.8011 65.735 89.1399C65.7136 89.2543 67.2278 90.437 68.4773 90.8836C68.5955 90.9057 70.0422 90.3396 70.9844 88.9492Z" fill="url(#paint33_linear_829_617)"/>
<path d="M69.2542 90.3306C69.9674 89.9576 70.5931 89.437 71.0896 88.8033C71.538 88.3149 71.959 87.8022 72.3509 87.2674C72.6201 86.9034 72.8831 86.5303 73.1208 86.1446C73.5121 85.5251 73.8688 84.8844 74.1894 84.2254C74.454 83.6751 74.9008 82.6774 73.8746 82.7026C73.0818 82.7241 72.7862 83.6514 72.4993 84.237C72.2843 84.7567 71.9052 85.1916 71.4199 85.4755C71.1962 85.5948 70.9505 85.6671 70.6979 85.6878C70.4519 85.7168 69.9447 85.7088 69.5048 85.741C69.3055 85.7495 69.1075 85.7772 68.9136 85.8238C68.6401 85.9018 68.3756 86.0084 68.1245 86.1419C68.5773 86.1494 69.0256 86.2332 69.4506 86.3898C69.5077 86.4099 69.5608 86.4399 69.6076 86.4783C69.5876 86.5851 69.3189 87.8962 69.0577 88.1118C68.7386 88.3249 68.3838 88.4791 68.0103 88.5671C67.8528 88.6143 67.6847 88.6131 67.528 88.5633C67.3713 88.5136 67.2331 88.4178 67.1317 88.2884C67.1146 88.2629 67.1012 88.2352 67.0919 88.206C66.961 87.8303 67.4429 87.2772 67.6116 86.9023C67.1938 87.1822 66.8077 87.507 66.4604 87.8709C66.3511 87.9792 66.2673 88.1104 66.215 88.2551C66.1613 88.395 67.6859 91.02 69.2542 90.3306Z" fill="url(#paint34_linear_829_617)"/>
<path fill-rule="evenodd" clip-rule="evenodd" d="M66.443 87.8795C66.5117 88.0186 66.6008 88.1537 66.6787 88.1801C66.805 88.2132 66.9359 88.2257 67.0662 88.217C66.9353 87.8413 67.4173 87.2882 67.5859 86.9133C67.1711 87.193 66.7879 87.517 66.443 87.8795Z" fill="url(#paint35_linear_829_617)"/>
<path fill-rule="evenodd" clip-rule="evenodd" d="M68.1074 86.1466C68.5602 86.1542 69.0085 86.238 69.4335 86.3945C69.5101 86.3258 69.5684 86.2391 69.6029 86.1421C69.5929 86.0044 69.5534 85.8705 69.487 85.7495C69.2877 85.758 69.0897 85.7858 68.8957 85.8323C68.6227 85.9092 68.3584 86.0145 68.1074 86.1466Z" fill="url(#paint36_linear_829_617)"/>
<path style="mix-blend-mode:multiply" opacity="0.6" fill-rule="evenodd" clip-rule="evenodd" d="M71.4226 85.4839C72.0628 85.4773 73.0025 85.4715 73.09 85.7206C73.1247 85.8602 73.1404 86.0038 73.1364 86.1476C73.5277 85.528 73.8844 84.8873 74.205 84.2284C74.4696 83.678 74.9164 82.6804 73.8902 82.7056C73.0975 82.7271 72.8019 83.6543 72.5149 84.2399C72.2999 84.7596 71.9208 85.1946 71.4355 85.4784L71.4226 85.4839Z" fill="url(#paint37_linear_829_617)"/>
</g>
<defs>
<linearGradient id="paint0_linear_829_617" x1="44.8599" y1="88.6179" x2="70.2904" y2="77.7804" gradientUnits="userSpaceOnUse">
<stop stop-color="#301242"/>
<stop offset="1" stop-color="#611C8A"/>
</linearGradient>
<linearGradient id="paint1_linear_829_617" x1="80.0939" y1="77.5809" x2="42.9992" y2="91.2131" gradientUnits="userSpaceOnUse">
<stop offset="0.01" stop-color="#CA7DC4"/>
<stop offset="0.98" stop-color="#B1799F"/>
</linearGradient>
<linearGradient id="paint2_linear_829_617" x1="41.2388" y1="95.6586" x2="66.2069" y2="72.6899" gradientUnits="userSpaceOnUse">
<stop stop-color="#301242"/>
<stop offset="1" stop-color="#611C8A"/>
</linearGradient>
<linearGradient id="paint3_linear_829_617" x1="58.0897" y1="85.0867" x2="58.0717" y2="84.8537" gradientUnits="userSpaceOnUse">
<stop stop-color="#2B1619"/>
<stop offset="1" stop-color="#37223D"/>
</linearGradient>
<linearGradient id="paint4_linear_829_617" x1="161.333" y1="99.4807" x2="46.7647" y2="60.1719" gradientUnits="userSpaceOnUse">
<stop offset="0.0330179" stop-color="#7224A3"/>
<stop offset="0.1875" stop-color="#435CB8"/>
<stop offset="0.369792" stop-color="#5F9646"/>
<stop offset="0.584508" stop-color="#ECBA39"/>
<stop offset="0.778682" stop-color="#FC902C"/>
<stop offset="1" stop-color="#FF3D00"/>
</linearGradient>
<linearGradient id="paint5_linear_829_617" x1="97.1909" y1="94.2623" x2="109.18" y2="69.0481" gradientUnits="userSpaceOnUse">
<stop stop-color="#753470"/>
<stop offset="0.98" stop-color="#854467"/>
</linearGradient>
<linearGradient id="paint6_linear_829_617" x1="155.701" y1="82.3817" x2="142.39" y2="53.1108" gradientUnits="userSpaceOnUse">
<stop stop-color="#AC3D11"/>
<stop offset="1" stop-color="#F79C30"/>
</linearGradient>
<linearGradient id="paint7_linear_829_617" x1="100.345" y1="98.5677" x2="114.09" y2="69.6577" gradientUnits="userSpaceOnUse">
<stop offset="0.01" stop-color="#CA7DC4"/>
<stop offset="0.98" stop-color="#C989AC"/>
</linearGradient>
<linearGradient id="paint8_linear_829_617" x1="115.175" y1="102.345" x2="127.989" y2="75.3977" gradientUnits="userSpaceOnUse">
<stop offset="0.01" stop-color="#CA7DC4"/>
<stop offset="0.98" stop-color="#C989AC"/>
</linearGradient>
<linearGradient id="paint9_linear_829_617" x1="124.585" y1="91.9592" x2="115.768" y2="64.8806" gradientUnits="userSpaceOnUse">
<stop offset="0.02" stop-color="#F0AEA6"/>
<stop offset="1" stop-color="#6B454E"/>
</linearGradient>
<linearGradient id="paint10_linear_829_617" x1="70.8084" y1="90.6295" x2="111.246" y2="67.7831" gradientUnits="userSpaceOnUse">
<stop offset="0.0330179" stop-color="#7224A3"/>
<stop offset="0.1875" stop-color="#435CB8"/>
<stop offset="0.369792" stop-color="#5F9646"/>
<stop offset="0.584508" stop-color="#ECBA39"/>
<stop offset="0.778682" stop-color="#FC902C"/>
<stop offset="1" stop-color="#FF3D00"/>
</linearGradient>
<linearGradient id="paint11_linear_829_617" x1="73.9925" y1="94.3411" x2="73.4962" y2="91.7549" gradientUnits="userSpaceOnUse">
<stop offset="0.02" stop-color="#983E35"/>
<stop offset="0.99" stop-color="#860C18"/>
</linearGradient>
<linearGradient id="paint12_linear_829_617" x1="85.1325" y1="88.6628" x2="83.4014" y2="66.2902" gradientUnits="userSpaceOnUse">
<stop offset="0.01" stop-color="#CA7DC4"/>
<stop offset="0.98" stop-color="#C989AC"/>
</linearGradient>
<linearGradient id="paint13_linear_829_617" x1="109.031" y1="67.112" x2="103.853" y2="67.5112" gradientUnits="userSpaceOnUse">
<stop offset="0.02" stop-color="#FF8C1B"/>
<stop offset="0.99" stop-color="#D64D0D"/>
</linearGradient>
<linearGradient id="paint14_linear_829_617" x1="107.512" y1="69.7808" x2="107.006" y2="63.2372" gradientUnits="userSpaceOnUse">
<stop offset="0.02" stop-color="#FF8E1B"/>
<stop offset="0.99" stop-color="#FFAE2A"/>
</linearGradient>
<linearGradient id="paint15_linear_829_617" x1="107.953" y1="69.7466" x2="107.487" y2="63.7156" gradientUnits="userSpaceOnUse">
<stop offset="0.01" stop-color="#FFC0B8"/>
<stop offset="0.98" stop-color="#FFE3D6"/>
</linearGradient>
<linearGradient id="paint16_linear_829_617" x1="39.2259" y1="70.3119" x2="114.852" y2="28.0388" gradientUnits="userSpaceOnUse">
<stop offset="0.0330179" stop-color="#7224A3"/>
<stop offset="0.1875" stop-color="#435CB8"/>
<stop offset="0.369792" stop-color="#5F9646"/>
<stop offset="0.584508" stop-color="#ECBA39"/>
<stop offset="0.778682" stop-color="#FC902C"/>
<stop offset="1" stop-color="#FF3D00"/>
</linearGradient>
<linearGradient id="paint17_linear_829_617" x1="81.3626" y1="73.9059" x2="69.6611" y2="60.6473" gradientUnits="userSpaceOnUse">
<stop offset="0.01" stop-color="#CA7DC4"/>
<stop offset="0.98" stop-color="#C989AC"/>
</linearGradient>
<linearGradient id="paint18_linear_829_617" x1="33.795" y1="18.814" x2="93.9431" y2="63.07" gradientUnits="userSpaceOnUse">
<stop stop-color="#AC3D11"/>
<stop offset="1" stop-color="#F79C30"/>
</linearGradient>
<linearGradient id="paint19_linear_829_617" x1="92.9017" y1="42.9159" x2="35.1262" y2="47.3707" gradientUnits="userSpaceOnUse">
<stop offset="0.02" stop-color="#F0AEA6"/>
<stop offset="0.99" stop-color="#D6899A"/>
</linearGradient>
<linearGradient id="paint20_linear_829_617" x1="28.7524" y1="45.3282" x2="27.8967" y2="34.2682" gradientUnits="userSpaceOnUse">
<stop stop-color="#2B1619"/>
<stop offset="1" stop-color="#37223D"/>
</linearGradient>
<linearGradient id="paint21_linear_829_617" x1="103.528" y1="63.4346" x2="103.786" y2="61.8808" gradientUnits="userSpaceOnUse">
<stop offset="0.01" stop-color="#9F65C4"/>
<stop offset="0.98" stop-color="#F09090"/>
</linearGradient>
<linearGradient id="paint22_linear_829_617" x1="103.389" y1="64.4027" x2="103.764" y2="62.1486" gradientUnits="userSpaceOnUse">
<stop stop-color="#FFFFD9"/>
<stop offset="1" stop-color="#FFBBCE"/>
</linearGradient>
<radialGradient id="paint23_radial_829_617" cx="0" cy="0" r="1" gradientUnits="userSpaceOnUse" gradientTransform="translate(103.02 63.936) rotate(-170.558) scale(1.57424 1.57508)">
<stop offset="0.16" stop-color="#F44D28"/>
<stop offset="1" stop-color="#FFBD0D"/>
</radialGradient>
<linearGradient id="paint24_linear_829_617" x1="102.964" y1="63.7773" x2="103.135" y2="62.7478" gradientUnits="userSpaceOnUse">
<stop stop-color="#923C34"/>
<stop offset="1" stop-color="#823300"/>
</linearGradient>
<linearGradient id="paint25_linear_829_617" x1="105.028" y1="63.0193" x2="102.293" y2="62.5645" gradientUnits="userSpaceOnUse">
<stop stop-color="#C2DEF0"/>
<stop offset="0.99" stop-color="#89B4C4"/>
</linearGradient>
<linearGradient id="paint26_linear_829_617" x1="103.4" y1="62.9964" x2="102.307" y2="62.8145" gradientUnits="userSpaceOnUse">
<stop stop-color="#C48260"/>
<stop offset="1" stop-color="#DECFEF"/>
</linearGradient>
<linearGradient id="paint27_linear_829_617" x1="97.0299" y1="77.2136" x2="101.579" y2="74.1022" gradientUnits="userSpaceOnUse">
<stop offset="0.01" stop-color="#CA7DC4"/>
<stop offset="0.98" stop-color="#C989AC"/>
</linearGradient>
<linearGradient id="paint28_linear_829_617" x1="99.8406" y1="74.6177" x2="102.905" y2="72.5243" gradientUnits="userSpaceOnUse">
<stop offset="0.01" stop-color="#CA7DC4"/>
<stop offset="0.98" stop-color="#C989AC"/>
</linearGradient>
<linearGradient id="paint29_linear_829_617" x1="71.191" y1="90.9331" x2="78.7099" y2="90.3533" gradientUnits="userSpaceOnUse">
<stop offset="0.02" stop-color="#E85E47"/>
<stop offset="0.99" stop-color="#AE2718"/>
</linearGradient>
<linearGradient id="paint30_linear_829_617" x1="72.049" y1="92.4253" x2="71.9567" y2="91.2331" gradientUnits="userSpaceOnUse">
<stop offset="0.02" stop-color="#A1044C"/>
<stop offset="0.99" stop-color="#9A0218"/>
</linearGradient>
<linearGradient id="paint31_linear_829_617" x1="73.5753" y1="90.6039" x2="73.5299" y2="90.0175" gradientUnits="userSpaceOnUse">
<stop offset="0.02" stop-color="#A1044C"/>
<stop offset="0.99" stop-color="#9A0218"/>
</linearGradient>
<linearGradient id="paint32_linear_829_617" x1="77.2774" y1="90.0479" x2="77.0343" y2="86.9062" gradientUnits="userSpaceOnUse">
<stop offset="0.01" stop-color="#CA7DC4"/>
<stop offset="0.98" stop-color="#B1799F"/>
</linearGradient>
<linearGradient id="paint33_linear_829_617" x1="68.5532" y1="90.8689" x2="68.2656" y2="87.982" gradientUnits="userSpaceOnUse">
<stop offset="0.02" stop-color="#983E35"/>
<stop offset="0.99" stop-color="#860C18"/>
</linearGradient>
<linearGradient id="paint34_linear_829_617" x1="66.2142" y1="86.5042" x2="74.4786" y2="86.6201" gradientUnits="userSpaceOnUse">
<stop offset="0.02" stop-color="#E85E47"/>
<stop offset="0.99" stop-color="#AE2718"/>
</linearGradient>
<linearGradient id="paint35_linear_829_617" x1="67.0005" y1="88.218" x2="67.0187" y2="86.9033" gradientUnits="userSpaceOnUse">
<stop offset="0.02" stop-color="#A1044C"/>
<stop offset="0.99" stop-color="#9A0218"/>
</linearGradient>
<linearGradient id="paint36_linear_829_617" x1="68.8481" y1="86.3815" x2="68.857" y2="85.7339" gradientUnits="userSpaceOnUse">
<stop offset="0.02" stop-color="#A1044C"/>
<stop offset="0.99" stop-color="#9A0218"/>
</linearGradient>
<linearGradient id="paint37_linear_829_617" x1="72.9465" y1="86.1397" x2="72.9943" y2="82.688" gradientUnits="userSpaceOnUse">
<stop offset="0.01" stop-color="#CA7DC4"/>
<stop offset="0.98" stop-color="#B1799F"/>
</linearGradient>
<clipPath id="clip0_829_617">
<rect width="166.782" height="96.0882" fill="white" transform="matrix(-0.982973 -0.183748 -0.183748 0.982973 181.598 31.5559)"/>
</clipPath>
</defs>
</svg>
