<svg width="343" height="230" viewBox="0 0 343 230" fill="none" xmlns="http://www.w3.org/2000/svg">
<g clip-path="url(#clip0_1409_15675)">
<rect width="343" height="230" fill="#F5F8FC"/>
<g filter="url(#filter0_d_1409_15675)">
<path d="M51.5871 87.9662L48.6806 88.027L46.3554 88.0792L41.783 88.1747L29.5843 88.4441L28.0312 60.8621L32.7858 60.6187L35.0937 60.4971L39.6747 83.7081L46.3033 87.2449L45.2274 68.8916L47.3878 68.8221L48.802 68.77L51.5871 87.9662Z" fill="white"/>
<path opacity="0.26" d="M28.5176 70.4124L36.9682 70.0127L38.1221 75.8611L28.7865 75.722L28.5176 70.4124Z" fill="#A4C9F9"/>
<path opacity="0.85" d="M48.7673 88.6005L29.966 92.3546L29.5496 90.7208L28.0312 60.862L32.7858 60.6187L28.5605 61.2096L32.1264 87.9748L41.783 88.1747L46.364 88.2789L46.3554 88.0791L45.2275 68.8915L47.3878 68.822L45.8088 69.1435L48.6806 88.0269L48.7673 88.6005Z" fill="#A4C9F9"/>
<path d="M181.07 141.94L180.836 148.588L180.385 148.579L180.159 143.574L180.116 142.418L180.09 141.905L181.07 141.94Z" fill="white"/>
<path d="M198.457 143.756L197.667 144.79L193.659 142.835C193.659 142.835 193.65 142.835 193.633 142.835C193.624 142.835 193.624 142.835 193.616 142.835C193.607 142.835 193.598 142.835 193.59 142.835C193.581 142.835 193.572 142.835 193.564 142.835C193.555 142.835 193.546 142.835 193.529 142.835C193.52 142.835 193.512 142.835 193.503 142.835C192.41 142.852 185.677 142.991 181.018 143.478C180.723 143.504 180.437 143.539 180.168 143.573C178.467 143.782 177.157 144.034 176.688 144.364C174.832 145.659 176.524 149.196 176.524 149.196L175.621 149.161C175.621 149.161 173.513 145.633 169.921 141.705C169.635 141.392 169.34 141.079 169.036 140.767C167.578 139.254 165.913 137.725 164.073 136.352C163.761 136.117 163.449 135.891 163.128 135.666C161.635 134.631 160.039 133.702 158.356 132.972C157.974 132.807 157.601 132.65 157.228 132.511C156.82 132.355 156.421 132.216 156.039 132.085C147.467 129.304 143.979 133.676 143.979 133.676C143.979 133.676 142.261 129.235 135.268 124.325C134.574 123.838 133.828 123.343 133.021 122.848C132.804 122.717 132.579 122.578 132.344 122.448C123.555 117.434 105.856 114.062 104.424 113.801C104.416 113.801 104.407 113.793 104.39 113.793C104.381 113.793 104.372 113.793 104.364 113.784C104.355 113.784 104.355 113.784 104.346 113.784C104.338 113.784 104.329 113.784 104.329 113.784L103.496 111.742C154.642 122.066 198.457 143.756 198.457 143.756Z" fill="white"/>
<path d="M139.389 150.256L138.487 150.221L133.819 129.166L132.336 122.474L132.084 121.327L134.982 122.639L135.251 124.351L136.223 130.417L139.389 150.256Z" fill="white"/>
<path d="M158.304 149.326L157.775 149.309L156.95 141.21L156.022 132.103L155.918 131.034L157.124 131.077L157.219 132.529L157.809 141.653L158.304 149.326Z" fill="white"/>
<path d="M165.323 149.57L164.871 149.552L164.299 145.034L163.11 135.674L162.789 133.137L163.882 134.458L164.064 136.361L164.915 145.355L165.323 149.57Z" fill="white"/>
<path d="M170.252 148.979L169.879 148.97L169.757 147.875L169.029 140.775L168.682 137.499L168.725 137.482L169.688 136.969L169.757 138.533L169.905 141.714L170.209 148.11L170.252 148.979Z" fill="white"/>
<path opacity="0.85" d="M193.502 142.835C192.409 142.852 185.676 142.991 181.017 143.478L180.844 148.597L180.393 148.579L180.167 143.574C178.466 143.782 177.156 144.034 176.688 144.364C174.831 145.659 176.523 149.196 176.523 149.196L175.621 149.161C175.621 149.161 173.512 145.633 169.92 141.705L170.224 148.101L169.773 147.867L169.035 140.758C167.578 139.246 165.912 137.717 164.073 136.344L164.932 145.346L164.307 145.025L163.127 135.666C161.635 134.632 160.038 133.702 158.355 132.972C157.973 132.807 157.6 132.65 157.227 132.511L157.817 141.644L156.958 141.201L156.03 132.094C147.458 129.313 143.97 133.684 143.97 133.684C143.97 133.684 142.252 129.244 135.259 124.334L136.231 130.408L133.827 129.157L132.344 122.466C123.555 117.452 105.855 114.08 104.424 113.819C106.029 114.088 128.04 117.808 135.363 122.144C142.963 126.646 141.818 127.714 144.699 128.922C147.579 130.13 153.045 129.409 159.83 131.164C163.63 132.146 166.32 134.979 168.74 137.473C169.087 137.838 169.435 138.186 169.773 138.525C171.291 140.046 172.749 141.297 174.371 141.697C175.647 142.009 177.764 142.244 180.124 142.401C180.436 142.418 180.748 142.444 181.061 142.461C186.327 142.8 192.47 142.826 193.502 142.835Z" fill="#A4C9F9"/>
<path d="M-27.539 78.2681L-29.1094 71.2553L-12.3904 68.2051L-11.6269 72.3155L1.86462 71.1162L14.393 75.635L-27.539 78.2681Z" fill="url(#paint0_linear_1409_15675)"/>
<path opacity="0.85" d="M-12.3904 68.2051L-27.2961 71.3943L-25.3179 78.1291L-17.6221 77.6424L-11.6269 72.3155L0.380983 71.2466L-7.72257 72.4458L-10.3515 77.5034L-27.539 78.2681L-29.1094 71.2553L-12.3904 68.2051Z" fill="#A4C9F9"/>
<path d="M59.655 89.0614L-34.1866 94.2754L-37.6484 78.0164C-37.3708 77.9468 -19.7408 73.5931 9.60209 74.6099C29.1235 75.2877 44.6886 81.362 53.0091 85.4202C57.2864 87.5058 59.655 89.0614 59.655 89.0614Z" fill="url(#paint1_linear_1409_15675)"/>
<g style="mix-blend-mode:lighten" opacity="0.63">
<path d="M53.0004 85.4202L44.142 86.0025C44.142 86.0025 25.0284 76.9649 11.2679 75.8352C-2.41444 74.7142 -37.2493 77.9816 -37.6484 78.0164C-37.3708 77.9468 -19.7408 73.5931 9.60209 74.6099C29.1148 75.2877 44.6799 81.3707 53.0004 85.4202Z" fill="url(#paint2_linear_1409_15675)"/>
</g>
<path opacity="0.64" d="M-28.6847 91.6942L-31.2441 78.2942L-30.0034 78.1812L-26.1165 91.7811L-21.0409 91.3987L-22.8977 77.4426L-22.0647 77.4686L-18.3947 91.4943L8.25854 89.4956L6.79227 77.3383C6.79227 77.3383 28.8905 76.1912 46.5205 86.0804C64.1506 95.9697 -28.6847 91.6942 -28.6847 91.6942Z" fill="#A4C9F9"/>
<path opacity="0.64" d="M7.73023 89.5739L7.93846 91.3032L-7.14075 92.4329C-11.583 92.3373 -15.6521 92.2156 -19.0271 92.1027L-22.3848 79.2849L-22.6711 79.2762L-22.9141 77.4861L-22.0811 77.5122L-18.4111 91.5378L7.73023 89.5739Z" fill="#A4C9F9"/>
<path opacity="0.64" d="M48.1339 89.3829C47.7956 88.9223 47.1622 88.427 46.2078 87.8969C30.1569 78.894 10.4099 79.0331 6.99144 79.1374L6.7832 77.382C6.7832 77.382 28.8815 76.2349 46.5115 86.1241C48.8801 87.445 49.2532 88.5226 48.1339 89.3829Z" fill="#A4C9F9"/>
<path d="M183.206 156.661L16.1543 173.259L-103.725 153.967C-102.9 138.864 -96.5581 121.536 -96.5581 121.536L-79.5875 120.006L-79.3011 111.846L-61.1245 110.36L-60.5172 92.8327L66.6671 84.5337L80.0458 108.301L85.1734 108.475L95.6456 128.809L125.882 128.045L137.543 149.031L182.008 147.545L183.206 156.661Z" fill="url(#paint3_linear_1409_15675)"/>
<path opacity="0.79" d="M85.1643 108.475L-62.7821 118.833L-79.5879 120.006L-79.3102 111.846L-61.125 110.36L-60.5263 92.8327L66.658 84.5337L80.0367 108.301L85.1643 108.475Z" fill="url(#paint4_linear_1409_15675)"/>
<path d="M-99.9066 136.735L-102.414 150.891L-10.6634 168.975L110.552 159.294L96.583 130.156L-99.9066 136.735Z" fill="url(#paint5_linear_1409_15675)"/>
<path d="M-99.9066 136.735L-102.414 150.891L-10.6634 168.975L110.552 159.294L96.583 130.156L-99.9066 136.735Z" fill="url(#paint6_linear_1409_15675)"/>
<path opacity="0.62" d="M-60.7344 147.441L52.0821 143.913L53.7046 149.04L76.0197 155.818L98.6646 155.653L89.8843 131.008L96.5823 130.156L110.551 159.294L-41.4472 165.863L-60.3092 151.038L-60.7344 147.441Z" fill="#17A3AE"/>
<g style="mix-blend-mode:screen" opacity="0.63">
<path d="M107.506 157.173L95.7755 132.233L11.0352 138.855L40.0136 156.6L107.506 157.173Z" fill="url(#paint7_linear_1409_15675)"/>
<path d="M107.506 157.173L95.7755 132.233L11.0352 138.855L40.0136 156.6L107.506 157.173Z" fill="url(#paint8_linear_1409_15675)"/>
</g>
<path opacity="0.62" d="M-50.2812 105.251L75.0637 99.4543L71.0986 93.6929L-50.2118 103.417L-50.2812 105.251Z" fill="#17A3AE"/>
<path d="M94.7332 130.321L107.14 163.587L106.854 163.708L94.4902 130.417L94.7332 130.321Z" fill="url(#paint9_linear_1409_15675)"/>
<path d="M90.362 130.851L102.396 164.308L101.815 164.508L89.8848 131.008L90.362 130.851Z" fill="url(#paint10_linear_1409_15675)"/>
<path d="M84.5389 130.921L94.8549 164.499L94.5686 164.621L84.3047 131.025L84.5389 130.921Z" fill="url(#paint11_linear_1409_15675)"/>
<path d="M76.2286 131.251L85.1391 165.542L84.3235 165.724L75.5605 131.399L76.2286 131.251Z" fill="url(#paint12_linear_1409_15675)"/>
<path d="M67.4541 131.416L73.8137 166.463L72.9895 166.567L66.7773 131.503L67.4541 131.416Z" fill="url(#paint13_linear_1409_15675)"/>
<path d="M59.4983 131.703L64.6779 166.871L64.14 166.941L59.0645 131.755L59.4983 131.703Z" fill="url(#paint14_linear_1409_15675)"/>
<path d="M31.311 132.476L34.7555 167.827L34.339 167.879L30.9727 132.511L31.311 132.476Z" fill="url(#paint15_linear_1409_15675)"/>
<path d="M21.299 132.633L23.9713 168.079L23.4507 168.114L20.8652 132.659L21.299 132.633Z" fill="url(#paint16_linear_1409_15675)"/>
<path d="M2.37596 133.363L4.95279 168.879L4.11988 168.896L1.69922 133.371L2.37596 133.363Z" fill="url(#paint17_linear_1409_15675)"/>
<path d="M-100.828 141.922L2.14089 139.863L97.874 135.648L2.2797 139.037L-100.828 141.922Z" fill="url(#paint18_linear_1409_15675)"/>
<path d="M-101.01 147.962L1.95925 145.903L100.738 142.235L2.09807 145.077L-101.01 147.962Z" fill="url(#paint19_linear_1409_15675)"/>
<path d="M-97.0879 155.053L5.87244 152.993L104.66 149.335L6.01994 152.168L-97.0879 155.053Z" fill="url(#paint20_linear_1409_15675)"/>
<path d="M-94.1992 161.518L8.7698 159.459L107.548 155.8L8.90861 158.633L-94.1992 161.518Z" fill="url(#paint21_linear_1409_15675)"/>
<path d="M111.887 157.06L103.35 133.006L125.725 132.676L128.78 137.36L109.336 137.69L111.097 143.495L131.339 142.791L135.278 148.979L112.677 148.735L114.594 154.41L137.785 153.802L142.097 160.137L113.076 160.51L111.887 157.06Z" fill="url(#paint22_linear_1409_15675)"/>
<path d="M111.887 157.06L103.35 133.006L125.725 132.676L128.78 137.36L109.336 137.69L111.097 143.495L131.339 142.791L135.278 148.979L112.677 148.735L114.594 154.41L137.785 153.802L142.097 160.137L113.076 160.51L111.887 157.06Z" fill="url(#paint23_linear_1409_15675)"/>
<path opacity="0.53" d="M126.203 137.404L124.884 133.736L103.593 133.693L103.35 133.006L125.725 132.676L128.78 137.36L126.203 137.404Z" fill="#0E5498"/>
<path opacity="0.53" d="M111.098 143.495L131.339 142.791L135.278 148.979L132.762 148.953L130.315 143.912L110.412 144.382L108.998 138.785L109.336 137.69L111.098 143.495Z" fill="#0E5498"/>
<path opacity="0.53" d="M112.677 148.735L111.982 149.935L113.735 156.009L136.753 155.792L139.052 160.032L142.097 160.137L137.785 153.802L114.594 154.41L112.677 148.735Z" fill="#0E5498"/>
<path opacity="0.62" d="M37.5146 104.634L-63.0684 113.037L-62.7821 118.833L-79.5879 120.006L-79.3102 111.847L-61.125 110.361L-60.5263 92.8328L67.5603 86.1328L-51.3903 96.7086L-51.8328 109.422L37.5146 104.634Z" fill="url(#paint24_linear_1409_15675)"/>
<g style="mix-blend-mode:screen" opacity="0.63">
<path d="M39.4937 104.503L50.0266 104.99L53.6272 112.376L80.3846 109.717L66.5808 86.7756L17.916 92.7544L39.4937 104.503Z" fill="url(#paint25_linear_1409_15675)"/>
<path d="M39.4937 104.503L50.0266 104.99L53.6272 112.376L80.3846 109.717L66.5808 86.7756L17.916 92.7544L39.4937 104.503Z" fill="url(#paint26_linear_1409_15675)"/>
</g>
<path d="M-63.9883 93.2412L77.0432 85.6722L78.5702 82.1006L-63.9449 92.0159L-63.9883 93.2412Z" fill="url(#paint27_linear_1409_15675)"/>
<g opacity="0.76">
<path d="M-1.79883 89.8086L-1.06135 97.0474L0.292136 103.843L-0.427989 96.7954L-1.79883 89.8086Z" fill="url(#paint28_linear_1409_15675)"/>
<path d="M7.24414 89.687L7.98162 96.9258L9.32643 103.721L8.61498 96.6738L7.24414 89.687Z" fill="url(#paint29_linear_1409_15675)"/>
<path d="M16.0586 88.2966L17.1605 95.4833L18.861 102.201L17.7852 95.1965L16.0586 88.2966Z" fill="url(#paint30_linear_1409_15675)"/>
<path d="M24.0762 88.5659L25.2908 95.7352L27.0955 102.426L25.9068 95.4397L24.0762 88.5659Z" fill="url(#paint31_linear_1409_15675)"/>
<path d="M32.6289 87.8186L33.8436 94.9879L35.6482 101.688L34.4596 94.7011L32.6289 87.8186Z" fill="url(#paint32_linear_1409_15675)"/>
<path d="M42.6328 86.8279L44.2119 93.9276L46.3462 100.523L44.8105 93.6061L42.6328 86.8279Z" fill="url(#paint33_linear_1409_15675)"/>
<path d="M49.8789 86.5671L51.458 93.6582L53.5923 100.254L52.0566 93.3367L49.8789 86.5671Z" fill="url(#paint34_linear_1409_15675)"/>
<path d="M55.8906 85.7244L57.4697 92.8241L59.6127 99.4198L58.077 92.5026L55.8906 85.7244Z" fill="url(#paint35_linear_1409_15675)"/>
<path d="M61.1562 85.4202L63.3427 92.3548L66.0409 98.7419L63.9153 91.9811L61.1562 85.4202Z" fill="url(#paint36_linear_1409_15675)"/>
<path d="M65.418 85.2725L67.9341 92.0941L70.9447 98.3335L68.4893 91.6857L65.418 85.2725Z" fill="url(#paint37_linear_1409_15675)"/>
</g>
<g opacity="0.76">
<path d="M6.44531 105.824L7.17411 113.054L8.52761 119.858L7.81615 112.802L6.44531 105.824Z" fill="url(#paint38_linear_1409_15675)"/>
<path d="M15.4863 105.702L16.2151 112.932L17.5686 119.737L16.8572 112.68L15.4863 105.702Z" fill="url(#paint39_linear_1409_15675)"/>
<path d="M24.3008 104.303L25.394 111.49L27.0945 118.216L26.0187 111.203L24.3008 104.303Z" fill="url(#paint40_linear_1409_15675)"/>
<path d="M32.3086 104.573L33.5233 111.742L35.3279 118.433L34.148 111.447L32.3086 104.573Z" fill="url(#paint41_linear_1409_15675)"/>
<path d="M40.873 103.834L42.079 111.003L43.8837 117.695L42.7037 110.708L40.873 103.834Z" fill="url(#paint42_linear_1409_15675)"/>
<path d="M50.8672 102.843L52.4463 109.943L54.5893 116.53L53.0536 109.613L50.8672 102.843Z" fill="url(#paint43_linear_1409_15675)"/>
<path d="M58.1113 102.574L59.6904 109.674L61.8334 116.261L60.2977 109.344L58.1113 102.574Z" fill="url(#paint44_linear_1409_15675)"/>
<path d="M64.1348 101.74L65.7138 108.84L67.8482 115.427L66.3125 108.51L64.1348 101.74Z" fill="url(#paint45_linear_1409_15675)"/>
<path d="M69.4004 101.427L71.5781 108.37L74.2764 114.749L72.1507 107.988L69.4004 101.427Z" fill="url(#paint46_linear_1409_15675)"/>
<path d="M73.6602 101.279L76.1762 108.101L79.1782 114.349L76.7315 107.701L73.6602 101.279Z" fill="url(#paint47_linear_1409_15675)"/>
</g>
<path d="M-79.3027 111.733L-79.1292 106.624L74.8645 99.4543L76.4869 101.696L-79.3027 111.733Z" fill="url(#paint48_linear_1409_15675)"/>
<g opacity="0.79">
<path d="M95.646 128.809L88.2886 129.061L87.4817 129.087L76.9401 129.452L76.1593 129.478L67.2488 129.782L66.4766 129.808L57.5575 130.113L56.7853 130.139L48.3607 130.425L47.5972 130.451L38.5914 130.764L37.8279 130.79L28.7352 131.095L27.9804 131.121L19.443 131.416L18.6882 131.442L9.6042 131.755L8.84938 131.781L-0.338699 132.094L-1.09354 132.12L-11.0451 132.459L-11.8 132.485L-20.8579 132.789L-21.6301 132.815L-30.7054 133.128L-31.4515 133.154L-40.2492 133.458L-40.9953 133.484L-50.1661 133.797L-50.9469 133.823L-58.7381 134.093L-59.4843 134.11L-68.1778 134.414L-68.924 134.44L-76.6979 134.701L-77.444 134.727L-85.2613 134.996L-86.0161 135.022L-89.5993 135.144L-93.5904 135.283L-94.3452 135.309L-99.8633 135.492L-96.4188 123.065L-96.4015 123.004L-92.289 122.709L-91.5949 122.657L-84.758 122.161L-84.0726 122.118L-76.8887 121.596L-76.2033 121.553L-68.4034 120.988L-67.7267 120.945L-59.4409 120.345L-58.7642 120.302L-51.32 119.763L-50.6085 119.711L-41.6808 119.068L-41.004 119.024L-32.2931 118.398L-31.6164 118.346L-22.5498 117.695L-21.847 117.651L-13.2228 117.025L-12.5461 116.982L-2.55981 116.261L-1.87439 116.217L7.3484 115.557L8.03381 115.505L17.1525 114.844L17.8379 114.801L26.4187 114.184L27.0954 114.132L35.2337 113.549L35.9191 113.497L44.951 112.854L45.6364 112.802L53.3062 112.255L53.9916 112.202L62.9281 111.559L63.6135 111.516L71.7518 110.925L72.4458 110.882L81.1481 110.256L81.8595 110.204L85.9113 109.917L86.3451 110.76L95.646 128.809Z" fill="url(#paint49_linear_1409_15675)"/>
<path d="M95.646 128.809L88.2886 129.061L87.4817 129.087L76.9401 129.452L76.1593 129.478L67.2488 129.782L66.4766 129.808L57.5575 130.113L56.7853 130.139L48.3607 130.425L47.5972 130.451L38.5914 130.764L37.8279 130.79L28.7352 131.095L27.9804 131.121L19.443 131.416L18.6882 131.442L9.6042 131.755L8.84938 131.781L-0.338699 132.094L-1.09354 132.12L-11.0451 132.459L-11.8 132.485L-20.8579 132.789L-21.6301 132.815L-30.7054 133.128L-31.4515 133.154L-40.2492 133.458L-40.9953 133.484L-50.1661 133.797L-50.9469 133.823L-58.7381 134.093L-59.4843 134.11L-68.1778 134.414L-68.924 134.44L-76.6979 134.701L-77.444 134.727L-85.2613 134.996L-86.0161 135.022L-89.5993 135.144L-93.5904 135.283L-94.3452 135.309L-99.8633 135.492L-96.4188 123.065L-96.4015 123.004L-92.289 122.709L-91.5949 122.657L-84.758 122.161L-84.0726 122.118L-76.8887 121.596L-76.2033 121.553L-68.4034 120.988L-67.7267 120.945L-59.4409 120.345L-58.7642 120.302L-51.32 119.763L-50.6085 119.711L-41.6808 119.068L-41.004 119.024L-32.2931 118.398L-31.6164 118.346L-22.5498 117.695L-21.847 117.651L-13.2228 117.025L-12.5461 116.982L-2.55981 116.261L-1.87439 116.217L7.3484 115.557L8.03381 115.505L17.1525 114.844L17.8379 114.801L26.4187 114.184L27.0954 114.132L35.2337 113.549L35.9191 113.497L44.951 112.854L45.6364 112.802L53.3062 112.255L53.9916 112.202L62.9281 111.559L63.6135 111.516L71.7518 110.925L72.4458 110.882L81.1481 110.256L81.8595 110.204L85.9113 109.917L86.3451 110.76L95.646 128.809Z" fill="url(#paint50_linear_1409_15675)"/>
</g>
<path d="M9.60346 131.755L8.84863 131.781L7.34766 115.557L8.03307 115.505L9.60346 131.755Z" fill="url(#paint51_linear_1409_15675)"/>
<path d="M38.5901 130.765L37.8266 130.791L35.2324 113.55L35.9178 113.498L38.5901 130.765Z" fill="url(#paint52_linear_1409_15675)"/>
<path d="M48.3609 130.426L47.5974 130.452L44.9512 112.854L45.6366 112.802L48.3609 130.426Z" fill="url(#paint53_linear_1409_15675)"/>
<path d="M83.3879 129.113L83.2404 129.209L77.5488 111.69L77.679 111.586L83.3879 129.113Z" fill="url(#paint54_linear_1409_15675)"/>
<path d="M74.4419 129.522L74.2857 129.609L69.748 111.759L69.8782 111.664L74.4419 129.522Z" fill="url(#paint55_linear_1409_15675)"/>
<path d="M90.5363 128.505L90.2587 128.618L83.7949 110.986L84.0379 110.856L90.5363 128.505Z" fill="url(#paint56_linear_1409_15675)"/>
<path d="M28.9708 130.73L28.5978 130.808L26.6543 114.236L26.9927 114.141L28.9708 130.73Z" fill="url(#paint57_linear_1409_15675)"/>
<path d="M18.0734 131.694L17.683 131.764L16.4423 115.488L16.4336 115.427L16.7806 115.253L16.798 115.392L18.0734 131.694Z" fill="url(#paint58_linear_1409_15675)"/>
<path d="M-98.1973 129.487L90.5359 118.885L-1.05864 124.681L-98.1973 129.487Z" fill="url(#paint59_linear_1409_15675)"/>
<g opacity="0.62">
<path d="M86.3437 110.708L-65.8627 123.43L-66.5048 134.449L-93.5918 135.231L-94.3467 135.257L-98.3984 135.118L-96.4203 123.013L85.9098 109.865L86.3437 110.708Z" fill="#17A3AE"/>
<path d="M86.3437 110.708L-65.8627 123.43L-66.5048 134.449L-93.5918 135.231L-94.3467 135.257L-98.3984 135.118L-96.4203 123.013L85.9098 109.865L86.3437 110.708Z" fill="url(#paint60_linear_1409_15675)"/>
</g>
<g style="mix-blend-mode:screen" opacity="0.63">
<path d="M94.0143 128.027L86.1971 111.412L10.8184 117.973L34.0532 129.496L94.0143 128.027Z" fill="url(#paint61_linear_1409_15675)"/>
<path d="M94.0143 128.027L86.1971 111.412L10.8184 117.973L34.0532 129.496L94.0143 128.027Z" fill="url(#paint62_linear_1409_15675)"/>
</g>
<g opacity="0.62">
<path d="M-101.738 151.707L-99.9076 136.735L96.5821 130.156L97.1373 131.329L-69.3587 140.228L-69.4021 154.992L-101.738 151.707Z" fill="#17A3AE"/>
<path d="M-101.738 151.707L-99.9076 136.735L96.5821 130.156L97.1373 131.329L-69.3587 140.228L-69.4021 154.992L-101.738 151.707Z" fill="url(#paint63_linear_1409_15675)"/>
</g>
<path d="M231.999 152.333C231.999 152.333 220.763 161.875 209.033 172.042C197.329 182.174 185.13 192.924 183.083 195.427C178.979 200.432 175.647 209.392 175.647 209.392C175.647 209.392 165.401 209.478 148.951 209.539C104.685 209.696 -84.0397 210.982 -86.9636 208.479C-98.4075 198.703 -112.992 151.264 -112.992 151.264L-106.997 151.056L-99.2925 150.786L25.8529 146.398C25.8529 146.398 30.0695 156.608 40.0558 160.58C40.0645 160.58 40.0732 160.588 40.0818 160.588C42.9363 161.718 46.2506 162.335 50.0768 162.066C67.3424 160.841 231.999 152.333 231.999 152.333Z" fill="url(#paint64_linear_1409_15675)"/>
<path d="M22.5408 176.491L22.4541 172.129C22.428 170.834 21.2915 169.8 19.9206 169.826L4.73729 170.052C3.36645 170.069 2.27325 171.138 2.29928 172.433L2.38605 176.787C2.41208 178.082 3.54866 179.116 4.9195 179.09L20.1028 178.864C21.4737 178.846 22.5669 177.778 22.5408 176.491ZM14.3939 176.378L12.1121 176.222C10.7412 176.239 5.8652 177.169 5.83917 175.874L2.69839 173.832C2.67237 172.537 3.76556 171.477 5.1364 171.451L8.7457 171.399L8.87584 174.162L9.05803 171.39L15.3136 171.295C15.4611 171.295 15.5999 171.303 15.7387 171.321L16.1378 175.414L16.0944 171.399C17.0922 171.686 17.8297 172.564 17.8557 173.598L17.9078 176.248C17.9164 177.552 15.7647 176.352 14.3939 176.378Z" fill="#A4C9F9"/>
<path d="M3.01953 174.875C3.01953 178.308 20.719 178.151 21.1094 177.56C21.4998 176.969 22.0811 175.066 21.8729 174.684C21.6647 174.302 3.04556 173.963 3.04556 173.963L3.01953 174.875Z" fill="#FFDD9A"/>
<path d="M21.109 177.56C20.7794 178.073 7.80843 178.255 4.04297 176.161C9.29206 177.213 18.7925 177.039 19.0615 176.622C19.3304 176.205 19.6948 175.162 19.825 174.432C21.5862 174.519 21.8292 174.588 21.8725 174.684C22.0808 175.066 21.4995 176.961 21.109 177.56Z" fill="#FF7D48"/>
<path opacity="0.25" d="M-80.2637 186.833C-81.0532 186.824 -81.7994 186.511 -82.3633 185.964C-82.962 185.39 -83.2917 184.617 -83.309 183.782L-85.8685 169.566C-85.9032 167.854 -84.5324 166.437 -82.8318 166.402L21.9852 164.482C22.8095 164.465 23.599 164.777 24.189 165.351C24.7876 165.924 25.1173 166.698 25.1347 167.532L25.395 181.671C25.4123 182.496 25.1 183.287 24.5273 183.878C23.9547 184.478 23.1825 184.808 22.3496 184.825V184.625V184.825L-80.1682 186.824C-80.2029 186.833 -80.2376 186.833 -80.2637 186.833ZM22.0807 164.882C22.0546 164.882 22.0199 164.882 21.9939 164.882L-82.8232 166.802C-84.3155 166.828 -85.5041 168.062 -85.4781 169.557L-83.0921 183.965C-83.0748 184.686 -82.7885 185.364 -82.2679 185.868C-81.7473 186.372 -81.0619 186.641 -80.3418 186.624L22.3756 184.704C23.0958 184.686 23.7725 184.399 24.2757 183.878C24.779 183.357 25.0219 182.401 25.0045 181.679L24.7442 167.541C24.7269 166.819 24.4406 166.142 23.92 165.638C23.4168 165.16 22.7661 164.89 22.0807 164.882Z" fill="#17A3AE"/>
<path d="M40.0558 160.571C30.6074 156.991 27.0328 151.273 23.7359 148.901C20.4389 146.528 -110.893 151.395 -110.893 151.395L-107.006 151.047L25.8442 146.389C25.8442 146.389 30.0608 156.6 40.0558 160.571Z" fill="white"/>
<g style="mix-blend-mode:screen">
<path d="M78.5449 163.726L227.168 155.766L203.551 176.039C203.551 176.039 218.145 163.291 217.017 161.153C215.889 159.016 78.5449 163.726 78.5449 163.726Z" fill="url(#paint65_linear_1409_15675)"/>
</g>
<path opacity="0.37" d="M175.874 193.098C173.479 193.289 25.0815 205.09 -41.1265 204.777C-67.3199 203.604 -84.9239 204.265 -87.8564 201.762C-99.3003 191.977 -113 151.256 -113 151.256L-107.005 151.047L-99.3003 150.778L-59.3725 150.169C-64.8992 150.569 -73.7663 151.169 -74.443 155.131C-77.2368 171.486 -68.4651 194.297 -62.843 196.6C-53.1777 200.563 172.82 193.22 175.874 193.098Z" fill="#A4C9F9"/>
<g style="mix-blend-mode:screen">
<path d="M209.027 172.042C197.323 182.175 185.124 192.924 183.076 195.427C178.973 200.432 175.641 209.392 175.641 209.392C175.641 209.392 165.394 209.479 148.944 209.539H148.936C148.936 209.539 170.574 207.358 172.804 206.898C175.034 206.446 178.391 196.756 178.226 195.601C178.062 194.445 131.002 197.113 131.002 197.113L183.363 192.611L209.027 172.042Z" fill="url(#paint66_linear_1409_15675)"/>
</g>
<path opacity="0.5" d="M188.331 168.471C194.917 170.209 184.323 185.381 178.666 183.061C173.001 180.75 181.746 166.733 188.331 168.471Z" fill="#A4C9F9"/>
<path opacity="0.5" d="M181.565 175.153C183.942 175.579 180.637 181.245 178.572 180.584C176.507 179.933 179.188 174.727 181.565 175.153Z" fill="#A4C9F9"/>
<path opacity="0.5" d="M179.178 183.226C187.004 182.149 188.6 171.164 183.75 169.878C183.551 169.826 183.351 169.783 183.143 169.765C184.826 168.618 186.648 168.036 188.331 168.479C194.725 170.165 184.939 184.495 179.178 183.226Z" fill="#A4C9F9"/>
<path d="M62.6507 177.325C62.6594 178.464 62.0781 179.402 61.3579 179.402C60.6378 179.411 60.0478 178.481 60.0392 177.343C60.0305 176.204 60.6118 175.266 61.3319 175.266C62.052 175.266 62.642 176.187 62.6507 177.325Z" fill="url(#paint67_linear_1409_15675)"/>
<path d="M67.7093 177.299C67.718 178.438 67.1366 179.376 66.4165 179.376C65.6964 179.385 65.0978 178.455 65.0978 177.317C65.0891 176.178 65.6704 175.24 66.3905 175.24C67.1106 175.231 67.7093 176.152 67.7093 177.299Z" fill="url(#paint68_linear_1409_15675)"/>
<path d="M72.8792 176.995C72.8879 178.134 72.3066 179.072 71.5865 179.072C70.8663 179.081 70.2764 178.151 70.2677 177.013C70.259 175.874 70.8403 174.936 71.5604 174.936C72.2806 174.927 72.8705 175.848 72.8792 176.995Z" fill="url(#paint69_linear_1409_15675)"/>
<path d="M78.0413 176.691C78.05 177.829 77.4687 178.768 76.7486 178.768C76.0284 178.777 75.4385 177.847 75.4298 176.708C75.4211 175.57 76.0024 174.631 76.7225 174.631C77.4427 174.623 78.0413 175.544 78.0413 176.691Z" fill="url(#paint70_linear_1409_15675)"/>
<path d="M83.3772 176.491C83.3859 177.63 82.8046 178.568 82.0845 178.568C81.3644 178.577 80.7744 177.647 80.7657 176.509C80.757 175.362 81.3384 174.432 82.0585 174.432C82.7786 174.423 83.3686 175.344 83.3772 176.491Z" fill="url(#paint71_linear_1409_15675)"/>
<path d="M88.471 176.239C88.4797 177.386 87.8984 178.316 87.1783 178.316C86.4581 178.325 85.8681 177.395 85.8595 176.257C85.8508 175.118 86.4321 174.18 87.1522 174.18C87.8724 174.171 88.4623 175.092 88.471 176.239Z" fill="url(#paint72_linear_1409_15675)"/>
<path d="M93.6331 175.935C93.6418 177.073 93.0605 178.012 92.3404 178.012C91.6202 178.021 91.0303 177.091 91.0216 175.952C91.0129 174.805 91.5942 173.876 92.3143 173.876C93.0345 173.867 93.6244 174.788 93.6331 175.935Z" fill="url(#paint73_linear_1409_15675)"/>
<path d="M98.969 175.727C98.9777 176.865 98.3964 177.803 97.6763 177.803C96.9562 177.812 96.3662 176.882 96.3575 175.744C96.3488 174.606 96.9301 173.667 97.6503 173.667C98.3704 173.667 98.9604 174.588 98.969 175.727Z" fill="url(#paint74_linear_1409_15675)"/>
<path d="M105.041 175.353C105.05 176.491 104.469 177.43 103.749 177.43C103.028 177.438 102.438 176.509 102.43 175.37C102.421 174.232 103.002 173.293 103.723 173.293C104.443 173.293 105.041 174.214 105.041 175.353Z" fill="url(#paint75_linear_1409_15675)"/>
<path d="M110.11 175.318C110.118 176.456 109.537 177.395 108.817 177.395C108.097 177.404 107.507 176.474 107.498 175.335C107.489 174.197 108.071 173.259 108.791 173.259C109.511 173.259 110.101 174.18 110.11 175.318Z" fill="url(#paint76_linear_1409_15675)"/>
<path d="M115.28 175.022C115.288 176.161 114.707 177.099 113.987 177.099C113.267 177.108 112.668 176.178 112.668 175.04C112.659 173.893 113.241 172.963 113.961 172.963C114.681 172.954 115.271 173.875 115.28 175.022Z" fill="url(#paint77_linear_1409_15675)"/>
<path d="M120.442 174.719C120.45 175.857 119.869 176.795 119.149 176.795C118.429 176.804 117.839 175.874 117.83 174.736C117.821 173.598 118.403 172.659 119.123 172.659C119.843 172.65 120.433 173.571 120.442 174.719Z" fill="url(#paint78_linear_1409_15675)"/>
<path d="M125.778 174.51C125.786 175.648 125.205 176.587 124.485 176.587C123.765 176.596 123.175 175.666 123.166 174.527C123.157 173.389 123.739 172.45 124.459 172.45C125.179 172.45 125.769 173.372 125.778 174.51Z" fill="url(#paint79_linear_1409_15675)"/>
<path d="M130.869 174.258C130.878 175.396 130.297 176.335 129.577 176.335C128.857 176.344 128.258 175.414 128.258 174.275C128.249 173.137 128.831 172.198 129.551 172.198C130.271 172.198 130.861 173.12 130.869 174.258Z" fill="url(#paint80_linear_1409_15675)"/>
<path d="M136.032 173.962C136.04 175.101 135.459 176.039 134.739 176.039C134.019 176.048 133.42 175.118 133.42 173.98C133.411 172.841 133.993 171.903 134.713 171.903C135.433 171.894 136.023 172.815 136.032 173.962Z" fill="url(#paint81_linear_1409_15675)"/>
<path d="M141.367 173.754C141.376 174.892 140.795 175.831 140.075 175.831C139.355 175.839 138.756 174.91 138.756 173.771C138.747 172.624 139.329 171.694 140.049 171.694C140.769 171.694 141.359 172.615 141.367 173.754Z" fill="url(#paint82_linear_1409_15675)"/>
<path d="M4.675 193.35C4.66632 194.488 4.06766 195.418 3.34754 195.409C2.62742 195.401 2.04611 194.471 2.05478 193.333C2.06346 192.194 2.66212 191.264 3.38224 191.273C4.11104 191.282 4.68367 192.212 4.675 193.35Z" fill="url(#paint83_linear_1409_15675)"/>
<path d="M9.8449 193.124C9.83623 194.262 9.23757 195.192 8.51745 195.184C7.79733 195.175 7.21603 194.245 7.22471 193.107C7.23338 191.968 7.83204 191.038 8.55216 191.047C9.27228 191.056 9.85358 191.986 9.8449 193.124Z" fill="url(#paint84_linear_1409_15675)"/>
<path d="M15.1809 193.002C15.1722 194.141 14.5735 195.07 13.8534 195.062C13.1333 195.053 12.552 194.123 12.5606 192.985C12.5693 191.846 13.168 190.917 13.8881 190.925C14.6082 190.934 15.1895 191.864 15.1809 193.002Z" fill="url(#paint85_linear_1409_15675)"/>
<path d="M20.2746 192.829C20.2659 193.967 19.6673 194.897 18.9471 194.888C18.227 194.88 17.6457 193.95 17.6544 192.811C17.6631 191.673 18.2617 190.743 18.9818 190.752C19.7106 190.752 20.2833 191.69 20.2746 192.829Z" fill="url(#paint86_linear_1409_15675)"/>
<path d="M25.4445 192.603C25.4359 193.741 24.8372 194.671 24.1171 194.662C23.3969 194.653 22.8156 193.724 22.8243 192.585C22.833 191.447 23.4316 190.517 24.1518 190.526C24.8719 190.526 25.4532 191.464 25.4445 192.603Z" fill="url(#paint87_linear_1409_15675)"/>
<path d="M30.7805 192.481C30.7718 193.619 30.1731 194.549 29.453 194.541C28.7329 194.532 28.1516 193.602 28.1603 192.464C28.1689 191.325 28.7676 190.395 29.4877 190.404C30.2078 190.413 30.7891 191.334 30.7805 192.481Z" fill="url(#paint88_linear_1409_15675)"/>
<path d="M36.8644 192.194C36.8558 193.333 36.2571 194.262 35.537 194.254C34.8169 194.245 34.2356 193.315 34.2442 192.177C34.2529 191.038 34.8516 190.109 35.5717 190.117C36.2918 190.126 36.8731 191.056 36.8644 192.194Z" fill="url(#paint89_linear_1409_15675)"/>
<path d="M41.9328 192.238C41.9241 193.376 41.3255 194.306 40.6053 194.297C39.8852 194.288 39.3039 193.359 39.3126 192.22C39.3213 191.082 39.9199 190.152 40.6401 190.161C41.3602 190.169 41.9415 191.099 41.9328 192.238Z" fill="url(#paint90_linear_1409_15675)"/>
<path d="M47.1027 192.012C47.0941 193.15 46.4954 194.08 45.7753 194.071C45.0552 194.063 44.4738 193.133 44.4825 191.994C44.4912 190.856 45.0898 189.926 45.81 189.935C46.5301 189.944 47.1114 190.873 47.1027 192.012Z" fill="url(#paint91_linear_1409_15675)"/>
</g>
<path d="M239 75.4204C239 75.4204 225.441 69.2798 223.335 69.2798C221.229 69.2798 209.096 71.5046 209.096 71.5046L206.068 70.8149C205.791 71.2728 205.413 71.6596 204.964 71.9452C204.515 72.2307 204.007 72.4074 203.479 72.4613C201.285 72.9285 195.537 67.7224 192.751 68.0116C189.964 68.3009 182 72.7505 182 72.7505L193.672 71.7939C196.48 71.5491 200.451 75.5761 200.451 75.5761L198.587 77C198.587 77 217.565 72.8173 224.037 72.3501C229.171 72.4035 234.249 73.4454 239 75.4204Z" fill="url(#paint92_linear_1409_15675)"/>
<path d="M172 49C166.95 49.0773 161.911 49.499 156.918 50.2622C155.172 51.0905 146.163 57.5592 146.163 57.5592L143.424 58.1508C143.38 58.6313 143.225 59.0952 142.97 59.5059C142.715 59.9166 142.368 60.2628 141.956 60.5174C140.447 61.7007 134.018 55.6659 131.914 56.9281C129.811 58.1903 121 62.1346 121 62.1346C125.453 61.7113 129.853 60.8526 134.137 59.5708C136.32 58.3086 140.686 64.1462 140.686 64.1462L139.733 66C139.733 66 153.545 55.3503 158.665 52.4316C162.847 50.448 167.375 49.283 172 49V49Z" fill="url(#paint93_linear_1409_15675)"/>
<path d="M98.2239 203.259C51.1548 190.948 -96.3888 189.078 -164.277 189.681L-444.881 158L-484.709 292.871L290.121 368L301.888 203.259C291.026 200.845 261.336 194.75 229.474 189.681C189.647 183.345 157.06 218.647 98.2239 203.259Z" fill="#2B69C5"/>
<path d="M-352.128 206.141C-429.536 177.153 -548.962 194.063 -599 206.141L-551.977 300.352C-214.977 317.866 451.607 332.783 421.946 252.341C384.87 151.788 218.48 217.918 162.414 221.541C106.348 225.165 22.249 206.141 -37.4343 200.706C-97.1176 195.271 -255.369 242.376 -352.128 206.141Z" fill="#51A7E4"/>
<path d="M-461.012 221.411C-508.767 229.392 -550.252 218.085 -565.025 211.434L-588.541 235.922L-461.012 311.203L128.698 303.947L334.011 235.922C179.348 190.573 92.5197 211.434 28.3029 244.992C-35.9141 278.551 -139.023 233.202 -225.851 211.434C-312.68 189.666 -401.317 211.434 -461.012 221.411Z" fill="#62C7EA"/>
</g>
<defs>
<filter id="filter0_d_1409_15675" x="-129" y="-15" width="429" height="258.008" filterUnits="userSpaceOnUse" color-interpolation-filters="sRGB">
<feFlood flood-opacity="0" result="BackgroundImageFix"/>
<feColorMatrix in="SourceAlpha" type="matrix" values="0 0 0 0 0 0 0 0 0 0 0 0 0 0 0 0 0 0 127 0" result="hardAlpha"/>
<feOffset dx="26" dy="-9"/>
<feGaussianBlur stdDeviation="21"/>
<feComposite in2="hardAlpha" operator="out"/>
<feColorMatrix type="matrix" values="0 0 0 0 0.215686 0 0 0 0 0.458824 0 0 0 0 0.819608 0 0 0 0.1 0"/>
<feBlend mode="normal" in2="BackgroundImageFix" result="effect1_dropShadow_1409_15675"/>
<feBlend mode="normal" in="SourceGraphic" in2="effect1_dropShadow_1409_15675" result="shape"/>
</filter>
<linearGradient id="paint0_linear_1409_15675" x1="-36.4718" y1="73.9695" x2="18.9039" y2="71.5097" gradientUnits="userSpaceOnUse">
<stop stop-color="#CFEEFA"/>
<stop offset="1" stop-color="white"/>
</linearGradient>
<linearGradient id="paint1_linear_1409_15675" x1="-35.9789" y1="85.1071" x2="19.3968" y2="82.6472" gradientUnits="userSpaceOnUse">
<stop stop-color="#CFEEFA"/>
<stop offset="1" stop-color="white"/>
</linearGradient>
<linearGradient id="paint2_linear_1409_15675" x1="53.8693" y1="61.8577" x2="-6.73122" y2="87.8302" gradientUnits="userSpaceOnUse">
<stop/>
<stop offset="1" stop-color="#D9FF5E"/>
</linearGradient>
<linearGradient id="paint3_linear_1409_15675" x1="-124.391" y1="148.819" x2="221.911" y2="104.076" gradientUnits="userSpaceOnUse">
<stop stop-color="#CFEEFA"/>
<stop offset="1" stop-color="white"/>
</linearGradient>
<linearGradient id="paint4_linear_1409_15675" x1="-79.5898" y1="102.275" x2="85.1595" y2="102.275" gradientUnits="userSpaceOnUse">
<stop stop-color="#1261AA"/>
<stop offset="1" stop-color="#14CDCD"/>
</linearGradient>
<linearGradient id="paint5_linear_1409_15675" x1="19.5984" y1="116.213" x2="4.17358" y2="150.46" gradientUnits="userSpaceOnUse">
<stop stop-color="#9FFF9A"/>
<stop offset="1" stop-color="#00A490"/>
</linearGradient>
<linearGradient id="paint6_linear_1409_15675" x1="-102.416" y1="149.571" x2="110.545" y2="149.571" gradientUnits="userSpaceOnUse">
<stop stop-color="#1261AA"/>
<stop offset="1" stop-color="#14CDCD"/>
</linearGradient>
<linearGradient id="paint7_linear_1409_15675" x1="29.5887" y1="163.724" x2="105.342" y2="123.75" gradientUnits="userSpaceOnUse">
<stop/>
<stop offset="1" stop-color="#D9FF5E"/>
</linearGradient>
<linearGradient id="paint8_linear_1409_15675" x1="11.0341" y1="144.707" x2="107.503" y2="144.707" gradientUnits="userSpaceOnUse">
<stop stop-color="#1261AA"/>
<stop offset="1" stop-color="#14CDCD"/>
</linearGradient>
<linearGradient id="paint9_linear_1409_15675" x1="99.1917" y1="146.994" x2="102.199" y2="146.142" gradientUnits="userSpaceOnUse">
<stop stop-color="#CFEEFA"/>
<stop offset="1" stop-color="white"/>
</linearGradient>
<linearGradient id="paint10_linear_1409_15675" x1="93.0917" y1="147.999" x2="99.1011" y2="146.864" gradientUnits="userSpaceOnUse">
<stop stop-color="#CFEEFA"/>
<stop offset="1" stop-color="white"/>
</linearGradient>
<linearGradient id="paint11_linear_1409_15675" x1="88.1981" y1="147.717" x2="90.7961" y2="147.111" gradientUnits="userSpaceOnUse">
<stop stop-color="#CFEEFA"/>
<stop offset="1" stop-color="white"/>
</linearGradient>
<linearGradient id="paint12_linear_1409_15675" x1="77.4082" y1="148.792" x2="83.2949" y2="148.167" gradientUnits="userSpaceOnUse">
<stop stop-color="#CFEEFA"/>
<stop offset="1" stop-color="white"/>
</linearGradient>
<linearGradient id="paint13_linear_1409_15675" x1="68.1505" y1="149.154" x2="72.4416" y2="148.82" gradientUnits="userSpaceOnUse">
<stop stop-color="#CFEEFA"/>
<stop offset="1" stop-color="white"/>
</linearGradient>
<linearGradient id="paint14_linear_1409_15675" x1="60.5114" y1="149.412" x2="63.2232" y2="149.189" gradientUnits="userSpaceOnUse">
<stop stop-color="#CFEEFA"/>
<stop offset="1" stop-color="white"/>
</linearGradient>
<linearGradient id="paint15_linear_1409_15675" x1="31.7393" y1="150.184" x2="33.9807" y2="150.087" gradientUnits="userSpaceOnUse">
<stop stop-color="#CFEEFA"/>
<stop offset="1" stop-color="white"/>
</linearGradient>
<linearGradient id="paint16_linear_1409_15675" x1="20.6365" y1="150.253" x2="24.2085" y2="150.3" gradientUnits="userSpaceOnUse">
<stop stop-color="#CFEEFA"/>
<stop offset="1" stop-color="white"/>
</linearGradient>
<linearGradient id="paint17_linear_1409_15675" x1="1.08498" y1="151.051" x2="5.56773" y2="151.206" gradientUnits="userSpaceOnUse">
<stop stop-color="#CFEEFA"/>
<stop offset="1" stop-color="white"/>
</linearGradient>
<linearGradient id="paint18_linear_1409_15675" x1="-100.6" y1="135.347" x2="97.6484" y2="142.2" gradientUnits="userSpaceOnUse">
<stop stop-color="#CFEEFA"/>
<stop offset="1" stop-color="white"/>
</linearGradient>
<linearGradient id="paint19_linear_1409_15675" x1="-100.789" y1="141.608" x2="100.522" y2="148.566" gradientUnits="userSpaceOnUse">
<stop stop-color="#CFEEFA"/>
<stop offset="1" stop-color="white"/>
</linearGradient>
<linearGradient id="paint20_linear_1409_15675" x1="-96.8721" y1="148.703" x2="104.439" y2="155.662" gradientUnits="userSpaceOnUse">
<stop stop-color="#CFEEFA"/>
<stop offset="1" stop-color="white"/>
</linearGradient>
<linearGradient id="paint21_linear_1409_15675" x1="-93.9805" y1="155.168" x2="107.331" y2="162.127" gradientUnits="userSpaceOnUse">
<stop stop-color="#CFEEFA"/>
<stop offset="1" stop-color="white"/>
</linearGradient>
<linearGradient id="paint22_linear_1409_15675" x1="119.136" y1="129.37" x2="128.149" y2="172.446" gradientUnits="userSpaceOnUse">
<stop stop-color="#9FFF9A"/>
<stop offset="1" stop-color="#00A490"/>
</linearGradient>
<linearGradient id="paint23_linear_1409_15675" x1="103.349" y1="146.597" x2="142.096" y2="146.597" gradientUnits="userSpaceOnUse">
<stop stop-color="#1261AA"/>
<stop offset="1" stop-color="#14CDCD"/>
</linearGradient>
<linearGradient id="paint24_linear_1409_15675" x1="-79.5896" y1="103.075" x2="67.556" y2="103.075" gradientUnits="userSpaceOnUse">
<stop stop-color="#1261AA"/>
<stop offset="1" stop-color="#14CDCD"/>
</linearGradient>
<linearGradient id="paint25_linear_1409_15675" x1="17.735" y1="98.1067" x2="80.7113" y2="100.284" gradientUnits="userSpaceOnUse">
<stop/>
<stop offset="1" stop-color="#D9FF5E"/>
</linearGradient>
<linearGradient id="paint26_linear_1409_15675" x1="17.9153" y1="99.5798" x2="80.3828" y2="99.5798" gradientUnits="userSpaceOnUse">
<stop stop-color="#1261AA"/>
<stop offset="1" stop-color="#14CDCD"/>
</linearGradient>
<linearGradient id="paint27_linear_1409_15675" x1="-63.7066" y1="85.2098" x2="78.296" y2="90.1182" gradientUnits="userSpaceOnUse">
<stop stop-color="#CFEEFA"/>
<stop offset="1" stop-color="white"/>
</linearGradient>
<linearGradient id="paint28_linear_1409_15675" x1="-56.7454" y1="100.093" x2="24.5744" y2="95.3645" gradientUnits="userSpaceOnUse">
<stop stop-color="#CFEEFA"/>
<stop offset="1" stop-color="white"/>
</linearGradient>
<linearGradient id="paint29_linear_1409_15675" x1="-56.7134" y1="100.499" x2="24.6013" y2="95.77" gradientUnits="userSpaceOnUse">
<stop stop-color="#CFEEFA"/>
<stop offset="1" stop-color="white"/>
</linearGradient>
<linearGradient id="paint30_linear_1409_15675" x1="-56.7754" y1="99.5776" x2="24.5508" y2="94.8484" gradientUnits="userSpaceOnUse">
<stop stop-color="#CFEEFA"/>
<stop offset="1" stop-color="white"/>
</linearGradient>
<linearGradient id="paint31_linear_1409_15675" x1="-56.7296" y1="100.296" x2="24.5945" y2="95.5673" gradientUnits="userSpaceOnUse">
<stop stop-color="#CFEEFA"/>
<stop offset="1" stop-color="white"/>
</linearGradient>
<linearGradient id="paint32_linear_1409_15675" x1="-56.7444" y1="100.055" x2="24.5799" y2="95.3259" gradientUnits="userSpaceOnUse">
<stop stop-color="#CFEEFA"/>
<stop offset="1" stop-color="white"/>
</linearGradient>
<linearGradient id="paint33_linear_1409_15675" x1="-56.778" y1="99.5848" x2="24.5531" y2="94.8553" gradientUnits="userSpaceOnUse">
<stop stop-color="#CFEEFA"/>
<stop offset="1" stop-color="white"/>
</linearGradient>
<linearGradient id="paint34_linear_1409_15675" x1="-56.7641" y1="99.7385" x2="24.5647" y2="95.0092" gradientUnits="userSpaceOnUse">
<stop stop-color="#CFEEFA"/>
<stop offset="1" stop-color="white"/>
</linearGradient>
<linearGradient id="paint35_linear_1409_15675" x1="-56.7921" y1="99.2541" x2="24.5365" y2="94.5248" gradientUnits="userSpaceOnUse">
<stop stop-color="#CFEEFA"/>
<stop offset="1" stop-color="white"/>
</linearGradient>
<linearGradient id="paint36_linear_1409_15675" x1="-56.8053" y1="99.103" x2="24.5263" y2="94.3734" gradientUnits="userSpaceOnUse">
<stop stop-color="#CFEEFA"/>
<stop offset="1" stop-color="white"/>
</linearGradient>
<linearGradient id="paint37_linear_1409_15675" x1="-56.8057" y1="99.0954" x2="24.5273" y2="94.3658" gradientUnits="userSpaceOnUse">
<stop stop-color="#CFEEFA"/>
<stop offset="1" stop-color="white"/>
</linearGradient>
<linearGradient id="paint38_linear_1409_15675" x1="-48.5065" y1="116.103" x2="32.8134" y2="111.375" gradientUnits="userSpaceOnUse">
<stop stop-color="#CFEEFA"/>
<stop offset="1" stop-color="white"/>
</linearGradient>
<linearGradient id="paint39_linear_1409_15675" x1="-48.4806" y1="116.509" x2="32.8393" y2="111.78" gradientUnits="userSpaceOnUse">
<stop stop-color="#CFEEFA"/>
<stop offset="1" stop-color="white"/>
</linearGradient>
<linearGradient id="paint40_linear_1409_15675" x1="-48.5385" y1="115.588" x2="32.7878" y2="110.859" gradientUnits="userSpaceOnUse">
<stop stop-color="#CFEEFA"/>
<stop offset="1" stop-color="white"/>
</linearGradient>
<linearGradient id="paint41_linear_1409_15675" x1="-48.4976" y1="116.307" x2="32.8304" y2="111.578" gradientUnits="userSpaceOnUse">
<stop stop-color="#CFEEFA"/>
<stop offset="1" stop-color="white"/>
</linearGradient>
<linearGradient id="paint42_linear_1409_15675" x1="-48.5092" y1="116.066" x2="32.8185" y2="111.336" gradientUnits="userSpaceOnUse">
<stop stop-color="#CFEEFA"/>
<stop offset="1" stop-color="white"/>
</linearGradient>
<linearGradient id="paint43_linear_1409_15675" x1="-48.5372" y1="115.595" x2="32.7916" y2="110.866" gradientUnits="userSpaceOnUse">
<stop stop-color="#CFEEFA"/>
<stop offset="1" stop-color="white"/>
</linearGradient>
<linearGradient id="paint44_linear_1409_15675" x1="-48.5312" y1="115.749" x2="32.7999" y2="111.02" gradientUnits="userSpaceOnUse">
<stop stop-color="#CFEEFA"/>
<stop offset="1" stop-color="white"/>
</linearGradient>
<linearGradient id="paint45_linear_1409_15675" x1="-48.5533" y1="115.265" x2="32.7754" y2="110.535" gradientUnits="userSpaceOnUse">
<stop stop-color="#CFEEFA"/>
<stop offset="1" stop-color="white"/>
</linearGradient>
<linearGradient id="paint46_linear_1409_15675" x1="-48.5667" y1="115.113" x2="32.7652" y2="110.384" gradientUnits="userSpaceOnUse">
<stop stop-color="#CFEEFA"/>
<stop offset="1" stop-color="white"/>
</linearGradient>
<linearGradient id="paint47_linear_1409_15675" x1="-48.5688" y1="115.106" x2="32.7643" y2="110.376" gradientUnits="userSpaceOnUse">
<stop stop-color="#CFEEFA"/>
<stop offset="1" stop-color="white"/>
</linearGradient>
<linearGradient id="paint48_linear_1409_15675" x1="-79.0016" y1="102.928" x2="76.2599" y2="108.295" gradientUnits="userSpaceOnUse">
<stop stop-color="#CFEEFA"/>
<stop offset="1" stop-color="white"/>
</linearGradient>
<linearGradient id="paint49_linear_1409_15675" x1="70.8053" y1="102.373" x2="-129.746" y2="168.463" gradientUnits="userSpaceOnUse">
<stop stop-color="#9FFF9A"/>
<stop offset="1" stop-color="#00A490"/>
</linearGradient>
<linearGradient id="paint50_linear_1409_15675" x1="-99.8655" y1="122.708" x2="95.6403" y2="122.708" gradientUnits="userSpaceOnUse">
<stop stop-color="#1261AA"/>
<stop offset="1" stop-color="#14CDCD"/>
</linearGradient>
<linearGradient id="paint51_linear_1409_15675" x1="7.06933" y1="123.593" x2="9.88012" y2="123.691" gradientUnits="userSpaceOnUse">
<stop stop-color="#CFEEFA"/>
<stop offset="1" stop-color="white"/>
</linearGradient>
<linearGradient id="paint52_linear_1409_15675" x1="34.9419" y1="122.078" x2="38.8813" y2="122.214" gradientUnits="userSpaceOnUse">
<stop stop-color="#CFEEFA"/>
<stop offset="1" stop-color="white"/>
</linearGradient>
<linearGradient id="paint53_linear_1409_15675" x1="44.6509" y1="121.561" x2="48.6631" y2="121.7" gradientUnits="userSpaceOnUse">
<stop stop-color="#CFEEFA"/>
<stop offset="1" stop-color="white"/>
</linearGradient>
<linearGradient id="paint54_linear_1409_15675" x1="79.8558" y1="120.552" x2="81.0797" y2="120.234" gradientUnits="userSpaceOnUse">
<stop stop-color="#CFEEFA"/>
<stop offset="1" stop-color="white"/>
</linearGradient>
<linearGradient id="paint55_linear_1409_15675" x1="71.4711" y1="120.753" x2="72.7137" y2="120.515" gradientUnits="userSpaceOnUse">
<stop stop-color="#CFEEFA"/>
<stop offset="1" stop-color="white"/>
</linearGradient>
<linearGradient id="paint56_linear_1409_15675" x1="85.7503" y1="120.04" x2="88.5758" y2="119.429" gradientUnits="userSpaceOnUse">
<stop stop-color="#CFEEFA"/>
<stop offset="1" stop-color="white"/>
</linearGradient>
<linearGradient id="paint57_linear_1409_15675" x1="27.1263" y1="122.51" x2="28.4947" y2="122.431" gradientUnits="userSpaceOnUse">
<stop stop-color="#CFEEFA"/>
<stop offset="1" stop-color="white"/>
</linearGradient>
<linearGradient id="paint58_linear_1409_15675" x1="16.6926" y1="123.526" x2="17.8153" y2="123.491" gradientUnits="userSpaceOnUse">
<stop stop-color="#CFEEFA"/>
<stop offset="1" stop-color="white"/>
</linearGradient>
<linearGradient id="paint59_linear_1409_15675" x1="-97.9027" y1="120.925" x2="90.2375" y2="127.428" gradientUnits="userSpaceOnUse">
<stop stop-color="#CFEEFA"/>
<stop offset="1" stop-color="white"/>
</linearGradient>
<linearGradient id="paint60_linear_1409_15675" x1="-98.4005" y1="122.565" x2="86.3383" y2="122.565" gradientUnits="userSpaceOnUse">
<stop stop-color="#1261AA"/>
<stop offset="1" stop-color="#14CDCD"/>
</linearGradient>
<linearGradient id="paint61_linear_1409_15675" x1="25.77" y1="137.109" x2="93.4561" y2="101.391" gradientUnits="userSpaceOnUse">
<stop/>
<stop offset="1" stop-color="#D9FF5E"/>
</linearGradient>
<linearGradient id="paint62_linear_1409_15675" x1="10.8174" y1="120.456" x2="94.0119" y2="120.456" gradientUnits="userSpaceOnUse">
<stop stop-color="#1261AA"/>
<stop offset="1" stop-color="#14CDCD"/>
</linearGradient>
<linearGradient id="paint63_linear_1409_15675" x1="-101.741" y1="142.578" x2="97.1315" y2="142.578" gradientUnits="userSpaceOnUse">
<stop stop-color="#1261AA"/>
<stop offset="1" stop-color="#14CDCD"/>
</linearGradient>
<linearGradient id="paint64_linear_1409_15675" x1="59.9165" y1="163.865" x2="60.9286" y2="192.952" gradientUnits="userSpaceOnUse">
<stop stop-color="#CFEEFA"/>
<stop offset="1" stop-color="white"/>
</linearGradient>
<linearGradient id="paint65_linear_1409_15675" x1="111.358" y1="172.337" x2="224.682" y2="162.982" gradientUnits="userSpaceOnUse">
<stop/>
<stop offset="1" stop-color="#D0FFEE"/>
</linearGradient>
<linearGradient id="paint66_linear_1409_15675" x1="169.992" y1="187.684" x2="169.753" y2="216.423" gradientUnits="userSpaceOnUse">
<stop/>
<stop offset="1" stop-color="#D0FFEE"/>
</linearGradient>
<linearGradient id="paint67_linear_1409_15675" x1="143.43" y1="147.809" x2="38.3114" y2="185.501" gradientUnits="userSpaceOnUse">
<stop stop-color="#9FFF9A"/>
<stop offset="1" stop-color="#00A490"/>
</linearGradient>
<linearGradient id="paint68_linear_1409_15675" x1="143.999" y1="149.393" x2="38.8799" y2="187.085" gradientUnits="userSpaceOnUse">
<stop stop-color="#9FFF9A"/>
<stop offset="1" stop-color="#00A490"/>
</linearGradient>
<linearGradient id="paint69_linear_1409_15675" x1="144.492" y1="150.772" x2="39.3734" y2="188.464" gradientUnits="userSpaceOnUse">
<stop stop-color="#9FFF9A"/>
<stop offset="1" stop-color="#00A490"/>
</linearGradient>
<linearGradient id="paint70_linear_1409_15675" x1="144.986" y1="152.149" x2="39.8674" y2="189.842" gradientUnits="userSpaceOnUse">
<stop stop-color="#9FFF9A"/>
<stop offset="1" stop-color="#00A490"/>
</linearGradient>
<linearGradient id="paint71_linear_1409_15675" x1="145.531" y1="153.669" x2="40.4122" y2="191.361" gradientUnits="userSpaceOnUse">
<stop stop-color="#9FFF9A"/>
<stop offset="1" stop-color="#00A490"/>
</linearGradient>
<linearGradient id="paint72_linear_1409_15675" x1="146.034" y1="155.068" x2="40.9149" y2="192.76" gradientUnits="userSpaceOnUse">
<stop stop-color="#9FFF9A"/>
<stop offset="1" stop-color="#00A490"/>
</linearGradient>
<linearGradient id="paint73_linear_1409_15675" x1="146.528" y1="156.445" x2="41.4087" y2="194.138" gradientUnits="userSpaceOnUse">
<stop stop-color="#9FFF9A"/>
<stop offset="1" stop-color="#00A490"/>
</linearGradient>
<linearGradient id="paint74_linear_1409_15675" x1="147.073" y1="157.965" x2="41.954" y2="195.657" gradientUnits="userSpaceOnUse">
<stop stop-color="#9FFF9A"/>
<stop offset="1" stop-color="#00A490"/>
</linearGradient>
<linearGradient id="paint75_linear_1409_15675" x1="147.647" y1="159.569" x2="42.5286" y2="197.261" gradientUnits="userSpaceOnUse">
<stop stop-color="#9FFF9A"/>
<stop offset="1" stop-color="#00A490"/>
</linearGradient>
<linearGradient id="paint76_linear_1409_15675" x1="148.217" y1="161.154" x2="43.0981" y2="198.846" gradientUnits="userSpaceOnUse">
<stop stop-color="#9FFF9A"/>
<stop offset="1" stop-color="#00A490"/>
</linearGradient>
<linearGradient id="paint77_linear_1409_15675" x1="148.711" y1="162.532" x2="43.59" y2="200.224" gradientUnits="userSpaceOnUse">
<stop stop-color="#9FFF9A"/>
<stop offset="1" stop-color="#00A490"/>
</linearGradient>
<linearGradient id="paint78_linear_1409_15675" x1="149.204" y1="163.909" x2="44.0848" y2="201.602" gradientUnits="userSpaceOnUse">
<stop stop-color="#9FFF9A"/>
<stop offset="1" stop-color="#00A490"/>
</linearGradient>
<linearGradient id="paint79_linear_1409_15675" x1="149.749" y1="165.429" x2="44.631" y2="203.121" gradientUnits="userSpaceOnUse">
<stop stop-color="#9FFF9A"/>
<stop offset="1" stop-color="#00A490"/>
</linearGradient>
<linearGradient id="paint80_linear_1409_15675" x1="150.25" y1="166.828" x2="45.1296" y2="204.521" gradientUnits="userSpaceOnUse">
<stop stop-color="#9FFF9A"/>
<stop offset="1" stop-color="#00A490"/>
</linearGradient>
<linearGradient id="paint81_linear_1409_15675" x1="150.744" y1="168.205" x2="45.6231" y2="205.899" gradientUnits="userSpaceOnUse">
<stop stop-color="#9FFF9A"/>
<stop offset="1" stop-color="#00A490"/>
</linearGradient>
<linearGradient id="paint82_linear_1409_15675" x1="151.289" y1="169.725" x2="46.1684" y2="207.417" gradientUnits="userSpaceOnUse">
<stop stop-color="#9FFF9A"/>
<stop offset="1" stop-color="#00A490"/>
</linearGradient>
<linearGradient id="paint83_linear_1409_15675" x1="11.8908" y1="235.178" x2="10.2749" y2="227.272" gradientUnits="userSpaceOnUse">
<stop stop-color="#9FFF9A"/>
<stop offset="1" stop-color="#00A490"/>
</linearGradient>
<linearGradient id="paint84_linear_1409_15675" x1="16.8958" y1="234.155" x2="15.28" y2="226.249" gradientUnits="userSpaceOnUse">
<stop stop-color="#9FFF9A"/>
<stop offset="1" stop-color="#00A490"/>
</linearGradient>
<linearGradient id="paint85_linear_1409_15675" x1="22.0424" y1="233.103" x2="20.4266" y2="225.197" gradientUnits="userSpaceOnUse">
<stop stop-color="#9FFF9A"/>
<stop offset="1" stop-color="#00A490"/>
</linearGradient>
<linearGradient id="paint86_linear_1409_15675" x1="26.9689" y1="232.096" x2="25.353" y2="224.19" gradientUnits="userSpaceOnUse">
<stop stop-color="#9FFF9A"/>
<stop offset="1" stop-color="#00A490"/>
</linearGradient>
<linearGradient id="paint87_linear_1409_15675" x1="31.9741" y1="231.073" x2="30.3583" y2="223.167" gradientUnits="userSpaceOnUse">
<stop stop-color="#9FFF9A"/>
<stop offset="1" stop-color="#00A490"/>
</linearGradient>
<linearGradient id="paint88_linear_1409_15675" x1="37.1207" y1="230.022" x2="35.5048" y2="222.116" gradientUnits="userSpaceOnUse">
<stop stop-color="#9FFF9A"/>
<stop offset="1" stop-color="#00A490"/>
</linearGradient>
<linearGradient id="paint89_linear_1409_15675" x1="43.0167" y1="228.817" x2="41.4008" y2="220.911" gradientUnits="userSpaceOnUse">
<stop stop-color="#9FFF9A"/>
<stop offset="1" stop-color="#00A490"/>
</linearGradient>
<linearGradient id="paint90_linear_1409_15675" x1="47.8733" y1="227.825" x2="46.2574" y2="219.919" gradientUnits="userSpaceOnUse">
<stop stop-color="#9FFF9A"/>
<stop offset="1" stop-color="#00A490"/>
</linearGradient>
<linearGradient id="paint91_linear_1409_15675" x1="52.8812" y1="226.801" x2="51.2654" y2="218.895" gradientUnits="userSpaceOnUse">
<stop stop-color="#9FFF9A"/>
<stop offset="1" stop-color="#00A490"/>
</linearGradient>
<linearGradient id="paint92_linear_1409_15675" x1="210.57" y1="69.4539" x2="210.498" y2="77" gradientUnits="userSpaceOnUse">
<stop stop-color="#ABC0ED"/>
<stop offset="1" stop-color="#ABC0ED" stop-opacity="0"/>
</linearGradient>
<linearGradient id="paint93_linear_1409_15675" x1="146.563" y1="51.7462" x2="146.276" y2="65.9955" gradientUnits="userSpaceOnUse">
<stop stop-color="#ABC0ED"/>
<stop offset="1" stop-color="#ABC0ED" stop-opacity="0"/>
</linearGradient>
<clipPath id="clip0_1409_15675">
<rect width="343" height="230" fill="white"/>
</clipPath>
</defs>
</svg>
