<svg width="28" height="25" viewBox="0 0 28 25" fill="none" xmlns="http://www.w3.org/2000/svg">
<path d="M27.4235 23.8066H0.910156V24.9594H27.4235V23.8066Z" fill="#263954"/>
<path d="M27.2758 16.3218C26.5366 14.2192 24.484 13.2553 22.8924 12.8171L18.1481 11.5108L14.8064 3.6018L11.2003 0.791016L11.8629 9.78618L7.54593 8.63064L5.3832 4.69168L2.39197 3.86799L2.28235 7.91811C1.87032 7.98806 1.39279 8.17384 1.25404 8.67772C1.07288 9.33576 1.52021 10.1257 2.5854 11.0321C2.80383 11.2179 3.04825 11.4087 3.31853 11.6042C4.56635 12.5067 6.08795 13.2869 7.1951 13.5918L24.1544 18.2614C25.6192 18.6647 26.5785 18.5957 27.0872 18.0503C27.3511 17.7675 27.5981 17.2379 27.2758 16.3218ZM24.4604 17.1499L7.50108 12.4804C6.55781 12.2207 5.22459 11.5411 4.10458 10.7492C2.95981 9.93966 2.49318 9.33592 2.39025 9.07284C2.47473 9.05263 2.61902 9.0307 2.85417 9.02676L3.4057 9.01754L3.5044 5.36991L4.60724 5.67352L6.7722 9.61679L13.1316 11.319L12.5407 3.2973L13.8612 4.32655L17.3036 12.4737L22.5864 13.9284C24.5157 14.4596 25.7275 15.3936 26.1883 16.704C26.3045 17.0342 26.2854 17.2198 26.2442 17.264C26.2414 17.2671 25.9472 17.5594 24.4604 17.1499Z" fill="#263954"/>
</svg>
