<svg width="32" height="32" viewBox="0 0 32 32" fill="none" xmlns="http://www.w3.org/2000/svg">
<g clip-path="url(#clip0_492_15966)">
<path d="M6.34351 24.0503L1.58733 20.3093C1.32752 20.1138 1.24246 19.7688 1.39839 19.543C2.1607 18.439 3.6292 18.062 5.07207 18.5998L9.37356 21.0398L6.34351 24.0503Z" fill="#95A6C8"/>
<path d="M7.93945 25.6463L11.6903 30.4123C11.8857 30.6721 12.2307 30.7571 12.4565 30.6012L12.7401 30.4054C13.6739 29.7606 13.9928 28.5185 13.5379 27.2981L10.9597 22.626L7.93945 25.6463Z" fill="#95A6C8"/>
<path d="M6.62068 19.4785L3.92969 22.1521L6.34318 24.0504L9.3733 21.04L6.62068 19.4785Z" fill="#7786A5"/>
<path d="M7.63399 9.39877C7.03667 8.80146 6.98943 7.84971 7.52305 7.1949C8.2863 6.25828 9.24255 5.21534 9.81617 4.64172C10.6009 3.85697 10.6695 3.95072 11.5079 3.43678C11.6314 3.36109 11.7907 3.37934 11.893 3.48172L13.5511 5.13978C13.6535 5.24215 13.6717 5.40146 13.596 5.5249C13.0821 6.36334 13.1759 6.43184 12.3911 7.21659C11.8175 7.79021 10.7745 8.74646 9.83792 9.50971C9.18305 10.0433 8.23123 9.99608 7.63399 9.39877Z" fill="#C3D3DB"/>
<path d="M22.6027 24.3678C22.0054 23.7705 21.9582 22.8187 22.4918 22.1639C23.255 21.2273 24.2113 20.1843 24.7849 19.6107C25.5697 18.826 25.6382 18.9197 26.4767 18.4058C26.6001 18.3301 26.7594 18.3483 26.8618 18.4507L28.5198 20.1088C28.6222 20.2111 28.6404 20.3705 28.5648 20.4939C28.0509 21.3323 28.1446 21.4008 27.3599 22.1856C26.7862 22.7593 25.7433 23.7155 24.8067 24.4788C24.1518 25.0123 23.2 24.9651 22.6027 24.3678Z" fill="#C3D3DB"/>
<path d="M15.1201 15.0527L20.988 9.18475L2.81044 3.47351C2.43613 3.37795 2.06401 3.46895 1.81638 3.71657L0.280637 5.25232C-0.233674 5.76663 -0.0129244 6.70944 0.713137 7.09932L15.1201 15.0527Z" fill="#95A6C8"/>
<path d="M16.8811 7.89429L11.6426 13.1328L15.1204 15.0526L20.9883 9.18472L16.8811 7.89429Z" fill="#7786A5"/>
<path d="M16.9473 16.8799L22.8152 11.012L28.5264 29.1896C28.622 29.5639 28.531 29.936 28.2834 30.1836L26.7476 31.7194C26.2333 32.2337 25.2905 32.0129 24.9006 31.2869L16.9473 16.8799Z" fill="#95A6C8"/>
<path d="M28.0246 8.54517L18.1666 18.4031C16.5125 20.0572 14.7539 21.6001 12.9128 23.0125L8.22256 26.6104C7.13675 27.4434 5.84538 27.5442 5.15131 26.8501C4.45725 26.1561 4.558 24.8647 5.391 23.7789L8.98899 19.0886C10.4014 17.2475 11.9442 15.489 13.5984 13.8348L23.4563 3.97693C24.804 2.62931 26.3517 1.5065 27.9868 0.735622C29.3948 0.0718106 30.8915 -0.344063 31.6185 0.382935C32.3455 1.10993 31.9296 2.60662 31.2658 4.01468C30.495 5.64986 29.3722 7.19755 28.0246 8.54517Z" fill="#E0F3FC"/>
<path d="M31.6171 0.382902C31.3612 0.127027 31.0097 0.0131523 30.6006 0.00146484C30.63 0.758588 30.3017 1.71884 29.8669 2.64108C29.0961 4.27614 27.9733 5.82389 26.6256 7.17151L16.7676 17.0294C15.1135 18.6836 13.355 20.2264 11.5138 21.6387L6.82361 25.2367C6.13298 25.7665 5.35936 25.9996 4.70898 25.9209C4.75786 26.2818 4.90355 26.6036 5.14992 26.85C5.84398 27.544 7.13535 27.4433 8.22116 26.6103L12.9114 23.0123C14.7525 21.5999 16.511 20.0571 18.1652 18.4029L28.0232 8.54507C29.3708 7.19745 30.4936 5.6497 31.2645 4.01464C31.9282 2.60658 32.3441 1.1099 31.6171 0.382902Z" fill="#C3D3DB"/>
<path d="M28.8398 6.65725L28.5032 6.99387C28.1906 7.3065 24.6935 3.80938 25.0061 3.49675L25.3427 3.16013C25.5549 2.94794 25.8663 2.88107 26.12 2.99326C27.3836 3.55225 28.4477 4.61638 29.0068 5.88006C29.1188 6.13362 29.052 6.44506 28.8398 6.65725Z" fill="#51C4F5"/>
<path d="M6.21483 26.2539C6.09489 26.2539 5.97489 26.2081 5.88339 26.1166C5.70033 25.9335 5.70033 25.6367 5.88339 25.4537L9.97688 21.3602C10.1599 21.1771 10.4568 21.1771 10.6398 21.3602C10.8228 21.5433 10.8228 21.8401 10.6398 22.0231L6.54626 26.1166C6.45476 26.2081 6.33483 26.2539 6.21483 26.2539Z" fill="#95A6C8"/>
</g>
<defs>
<clipPath id="clip0_492_15966">
<rect width="32" height="32" fill="white"/>
</clipPath>
</defs>
</svg>
